<?xml version="1.0" encoding="UTF-8" standalone="no"?>
<!-- Created with Inkscape (http://www.inkscape.org/) -->

<svg
   width="317.21118"
   height="315.94934"
   viewBox="0 0 83.928791 83.594931"
   version="1.1"
   id="svg5"
   inkscape:version="1.1.1 (3bf5ae0d25, 2021-09-20)"
   sodipodi:docname="icon.svg"
   xmlns:inkscape="http://www.inkscape.org/namespaces/inkscape"
   xmlns:sodipodi="http://sodipodi.sourceforge.net/DTD/sodipodi-0.dtd"
   xmlns:xlink="http://www.w3.org/1999/xlink"
   xmlns="http://www.w3.org/2000/svg"
   xmlns:svg="http://www.w3.org/2000/svg">
  <sodipodi:namedview
     id="namedview7"
     pagecolor="#000000"
     bordercolor="#ffffff"
     borderopacity="1"
     inkscape:pageshadow="0"
     inkscape:pageopacity="0"
     inkscape:pagecheckerboard="1"
     inkscape:document-units="mm"
     showgrid="false"
     inkscape:snap-global="false"
     inkscape:zoom="0.76435188"
     inkscape:cx="-81.768622"
     inkscape:cy="-115.78437"
     inkscape:window-width="1920"
     inkscape:window-height="1017"
     inkscape:window-x="1272"
     inkscape:window-y="-8"
     inkscape:window-maximized="1"
     inkscape:current-layer="layer1"
     fit-margin-top="0"
     fit-margin-left="0"
     fit-margin-right="0"
     fit-margin-bottom="0"
     units="px" />
  <defs
     id="defs2">
    <rect
       x="-697.53021"
       y="-251.62894"
       width="1032.4187"
       height="501.40765"
       id="rect17435" />
    <rect
       x="-125.5966"
       y="-204.09448"
       width="1076.7292"
       height="248.57661"
       id="rect2308" />
    <linearGradient
       inkscape:collect="always"
       id="linearGradient2009">
      <stop
         style="stop-color:#415781;stop-opacity:1;"
         offset="0"
         id="stop2005" />
      <stop
         style="stop-color:#84a7e7;stop-opacity:1"
         offset="1"
         id="stop2007" />
    </linearGradient>
    <rect
       x="-396.87064"
       y="-6.4757447"
       width="470.87915"
       height="440.35065"
       id="rect32972" />
    <linearGradient
       inkscape:collect="always"
       xlink:href="#linearGradient2009"
       id="linearGradient2011"
       x1="134.3031"
       y1="138.90965"
       x2="134.53532"
       y2="59.604916"
       gradientUnits="userSpaceOnUse"
       gradientTransform="translate(11.748852,-4.405819)" />
  </defs>
  <g
     inkscape:label="Layer 1"
     inkscape:groupmode="layer"
     id="layer1"
     transform="translate(-134.96937,-84.079456)">
    <g
       id="g24023"
       transform="translate(31.499999,29.423077)">
      <ellipse
         style="fill:url(#linearGradient2011);fill-opacity:1;stroke:none;stroke-width:2.59971;stroke-linecap:round;stroke-linejoin:round;stroke-miterlimit:4;stroke-dasharray:none;stroke-opacity:1"
         id="path29224"
         cx="145.43376"
         cy="96.320076"
         rx="40.013256"
         ry="39.712551" />
      <path
         id="path31493"
         style="fill:#000000;fill-opacity:1;stroke-width:0.107589;stroke-linejoin:bevel"
         d="m 134.17315,131.72208 c -0.61929,0.14315 -0.88361,-0.36755 -0.52649,-1.43443 0.95224,-1.67674 3.58935,-5.08034 4.28746,-5.82846 0.56291,0.009 1.13073,0.71306 1.178,1.83086 -0.49447,1.01534 -3.74575,4.71127 -4.93897,5.43203 z"
         sodipodi:nodetypes="ccccc" />
      <g
         id="g31453"
         transform="matrix(0.06874011,-0.99794061,1.0694346,0.06414469,6.794252,226.7709)">
        <ellipse
           style="fill:#f0ff00;fill-opacity:1;stroke-width:0.307943;stroke-linejoin:bevel"
           id="ellipse31449"
           cx="103.8029"
           cy="122.27885"
           rx="6.7932696"
           ry="7.5288458" />
        <ellipse
           style="fill:#050505;fill-opacity:1;stroke-width:0.307943;stroke-linejoin:bevel"
           id="ellipse31451"
           cx="106.13943"
           cy="122.45192"
           rx="6.7932696"
           ry="7.5288458" />
      </g>
      <g
         id="g14903"
         transform="rotate(-86.322255,126.27532,102.29988)">
        <ellipse
           style="fill:#f0ff00;fill-opacity:1;stroke-width:0.307943;stroke-linejoin:bevel"
           id="path9417"
           cx="103.8029"
           cy="122.27885"
           rx="6.7932696"
           ry="7.5288458" />
        <ellipse
           style="fill:#050505;fill-opacity:1;stroke-width:0.307943;stroke-linejoin:bevel"
           id="ellipse11237"
           cx="106.13943"
           cy="122.45192"
           rx="6.7932696"
           ry="7.5288458" />
      </g>
      <g
         id="g4839"
         transform="matrix(0.0595055,-0.92576566,0.86182462,0.05539556,31.719332,210.05211)">
        <ellipse
           style="fill:#f8ff25;fill-opacity:1;stroke-width:0.183264;stroke-linejoin:bevel"
           id="ellipse4835"
           cx="103.69713"
           cy="122.77692"
           rx="7.573081"
           ry="9.7352018" />
        <ellipse
           style="fill:#050505;fill-opacity:1;stroke-width:0.169785;stroke-linejoin:bevel"
           id="ellipse4833"
           cx="105.3187"
           cy="122.58856"
           rx="6.5634127"
           ry="9.6410179" />
      </g>
      <path
         id="path27368"
         style="fill:#ffffff;fill-opacity:1;stroke:#000000;stroke-width:1.66073;stroke-linejoin:bevel;stroke-miterlimit:4;stroke-dasharray:none;stroke-opacity:1"
         d="m 154.9037,99.933737 c -4.48059,-2.895056 -17.96176,-3.765326 -21.20108,3.310413 -2.62109,5.72528 2.07573,25.62598 7.93778,24.49547 7.203,-1.61427 21.19442,-22.53713 13.2633,-27.805883 z"
         sodipodi:nodetypes="cscc" />
      <use
         x="0"
         y="0"
         xlink:href="#rect76516"
         id="use78163"
         transform="matrix(0.94444974,-0.30109763,0.35873642,0.94444974,-30.900575,51.686389)"
         width="100%"
         height="100%" />
      <rect
         style="fill:#050505;fill-opacity:1;stroke:none;stroke-width:3.92799;stroke-linecap:round;stroke-linejoin:round;stroke-miterlimit:4;stroke-dasharray:none;stroke-opacity:1;paint-order:stroke fill markers"
         id="rect76516"
         width="2.2245388"
         height="11.103827"
         x="-177.69061"
         y="-20.201738"
         transform="matrix(-0.81277975,-0.58257109,-0.64940074,0.76044637,0,0)" />
      <path
         id="path117403"
         style="fill:#050505;stroke-width:1.82265;stroke-linecap:round;stroke-linejoin:round"
         d="m 149.52646,87.477871 -1.92998,0.92406 c 0,0 -14.3058,-10.97273 -16.12854,-15.596256 -0.41902,-1.062873 0.60119,-1.551314 1.92995,-0.924052 5.78032,2.728647 16.12857,15.596248 16.12857,15.596248 z"
         sodipodi:nodetypes="ccaac"
         inkscape:transform-center-x="7.2303784"
         inkscape:transform-center-y="-7.0305544" />
      <path
         id="path22857"
         style="fill:#050505;stroke-width:1.82265;stroke-linecap:round;stroke-linejoin:round"
         d="m 157.5411,88.188911 -2.17725,0.0401 c 0,0 -7.47736,-15.660359 -6.86256,-20.543841 0.1411,-1.122677 1.29221,-1.143886 2.17716,-0.04007 3.84984,4.800993 6.86265,20.543851 6.86265,20.543851 z"
         sodipodi:nodetypes="ccaac"
         inkscape:transform-center-x="3.2948965"
         inkscape:transform-center-y="-9.752964" />
      <ellipse
         style="fill:#ffffff;fill-opacity:1;stroke:#000000;stroke-width:1.80452;stroke-linejoin:bevel;stroke-miterlimit:4;stroke-dasharray:none;stroke-opacity:1"
         id="ellipse8524"
         cx="-59.593643"
         cy="-167.80219"
         rx="8.3229952"
         ry="5.8529735"
         transform="matrix(0.39286473,-0.91959627,-0.9637793,-0.26670107,0,0)" />
      <path
         id="ellipse4848"
         style="fill:#f0ff00;stroke:#000000;stroke-width:1.66073;stroke-linejoin:bevel;stroke-miterlimit:4;stroke-dasharray:none;stroke-opacity:1"
         d="m 157.47048,99.413057 c -3.80948,-3.612636 -16.87419,-6.780666 -21.50269,-0.38597 -3.74514,5.174243 -3.19975,25.528693 2.78968,25.424043 7.40556,-0.34979 25.42667,-18.50169 18.71301,-25.038073 z"
         sodipodi:nodetypes="cscc" />
      <ellipse
         style="fill:#ffffff;fill-opacity:1;stroke:#000000;stroke-width:1.91077;stroke-linejoin:bevel;stroke-miterlimit:4;stroke-dasharray:none;stroke-opacity:1"
         id="ellipse4850"
         cx="-65.437027"
         cy="-181.58278"
         rx="9.0241728"
         ry="7.0872955"
         transform="matrix(0.37111455,-0.92858709,-0.97336708,-0.22925212,0,0)" />
      <ellipse
         style="fill:#0d0d0d;fill-opacity:1;stroke:none;stroke-width:1.22877;stroke-linejoin:bevel;stroke-miterlimit:4;stroke-dasharray:none;stroke-opacity:1"
         id="ellipse8628"
         cx="20.088219"
         cy="-184.50751"
         rx="3.2380495"
         ry="1.780616"
         transform="matrix(0.56274683,-0.82662931,-0.7676501,-0.64086919,0,0)" />
      <g
         id="g31447"
         transform="translate(12.789112,-5.2625061)">
        <path
           id="path18000"
           style="fill:#050505;stroke-width:0.107589;stroke-linejoin:bevel"
           d="m 139.28035,127.60649 c -0.11932,-0.62432 0.40112,-0.86889 1.45354,-0.47117 1.63905,1.01575 4.93916,3.78127 5.66,4.50752 -0.0308,0.56215 -0.75584,1.1026 -1.87463,1.10702 -0.99566,-0.53299 -4.56437,-3.92342 -5.23891,-5.14337 z"
           sodipodi:nodetypes="ccccc" />
        <g
           id="g28124"
           transform="rotate(0.61416294,263.26727,32.565019)">
          <path
             id="path18120"
             style="fill:#050505;stroke-width:0.0850969;stroke-linejoin:bevel"
             d="m 147.01278,127.97098 c 0.3832,-0.52206 0.78824,-0.49575 0.98294,0.23424 0.0259,1.43737 -0.42597,4.87778 -0.61016,5.72191 -0.4072,0.4138 -1.11119,0.52866 -1.61709,0.0767 -0.0745,-0.80943 0.69386,-4.83308 1.24431,-6.03283 z"
             sodipodi:nodetypes="ccccc"
             inkscape:transform-center-x="-0.40689585"
             inkscape:transform-center-y="-2.2619774" />
          <path
             id="path18122"
             style="fill:#050505;stroke-width:0.0364336;stroke-linejoin:bevel"
             d="m 146.00748,125.77991 c -0.19104,0.007 -0.25368,0.2213 -0.11085,0.58227 0.34202,0.52959 1.24815,1.53678 1.48296,1.74675 0.16904,-0.0577 0.31655,-0.37317 0.29375,-0.79194 -0.1824,-0.32862 -1.28298,-1.38496 -1.66584,-1.53709 z"
             sodipodi:nodetypes="ccccc"
             inkscape:transform-center-x="-0.27390372"
             inkscape:transform-center-y="-6.2713351" />
        </g>
      </g>
      <ellipse
         style="fill:#000000;fill-opacity:1;stroke-width:0.165026;stroke-linecap:round;stroke-linejoin:round"
         id="path28870"
         cx="139.7747"
         cy="121.53352"
         rx="0.69665647"
         ry="0.48773414" />
      <use
         x="0"
         y="0"
         xlink:href="#path28870"
         id="use28952"
         transform="translate(-1.896948,0.03059594)"
         width="100%"
         height="100%" />
      <ellipse
         style="fill:none;fill-opacity:1;stroke:#000000;stroke-width:3.90349;stroke-linecap:round;stroke-linejoin:round;stroke-miterlimit:4;stroke-dasharray:none;stroke-opacity:1"
         id="ellipse31455"
         cx="145.43376"
         cy="96.453842"
         rx="40.01265"
         ry="39.845718" />
      <path
         id="path31495"
         style="fill:#000000;fill-opacity:1;stroke-width:0.071053;stroke-linejoin:bevel"
         d="m 132.34434,135.00165 c -0.47077,0.30267 -0.82758,0.20399 -0.82444,-0.36284 0.32675,-1.04581 1.56968,-3.44797 1.94043,-4.02294 0.46593,-0.21956 1.12521,-0.16432 1.46883,0.26236 -0.13027,0.60071 -1.79902,3.36297 -2.58478,4.12342 z"
         sodipodi:nodetypes="ccccc"
         inkscape:transform-center-x="0.81230251"
         inkscape:transform-center-y="1.5548632" />
    </g>
    <text
       xml:space="preserve"
       transform="matrix(0.26458333,0,0,0.26458333,1.7003262,-29.857496)"
       id="text2306"
       style="font-style:normal;font-weight:normal;font-size:40px;line-height:1.25;font-family:sans-serif;white-space:pre;shape-inside:url(#rect2308);fill:#000000;fill-opacity:1;stroke:none" />
    <text
       xml:space="preserve"
       transform="matrix(0.26458333,0,0,0.26458333,4.5407672,-81.960051)"
       id="text17433"
       style="font-style:normal;font-weight:normal;font-size:40px;line-height:1.25;font-family:sans-serif;white-space:pre;shape-inside:url(#rect17435);fill:#000000;fill-opacity:1;stroke:none" />
  </g>
</svg>
