<?xml version="1.0" encoding="UTF-8" standalone="no"?>
<!-- Created with Inkscape (http://www.inkscape.org/) -->

<svg
   width="107.90006"
   height="193.74243"
   viewBox="0 0 28.548557 51.261018"
   version="1.1"
   id="svg8376"
   inkscape:version="1.1 (c68e22c387, 2021-05-23)"
   sodipodi:docname="ant.svg"
   xmlns:inkscape="http://www.inkscape.org/namespaces/inkscape"
   xmlns:sodipodi="http://sodipodi.sourceforge.net/DTD/sodipodi-0.dtd"
   xmlns:xlink="http://www.w3.org/1999/xlink"
   xmlns="http://www.w3.org/2000/svg"
   xmlns:svg="http://www.w3.org/2000/svg">
  <sodipodi:namedview
     id="namedview8378"
     pagecolor="#505050"
     bordercolor="#ffffff"
     borderopacity="1"
     inkscape:pageshadow="0"
     inkscape:pageopacity="0"
     inkscape:pagecheckerboard="1"
     inkscape:document-units="mm"
     showgrid="false"
     inkscape:snap-global="false"
     inkscape:zoom="4"
     inkscape:cx="8.6250001"
     inkscape:cy="111.625"
     inkscape:window-width="1920"
     inkscape:window-height="1017"
     inkscape:window-x="1272"
     inkscape:window-y="-8"
     inkscape:window-maximized="1"
     inkscape:current-layer="layer1"
     fit-margin-top="0"
     fit-margin-left="0"
     fit-margin-right="0"
     fit-margin-bottom="0"
     units="px" />
  <defs
     id="defs8373">
    <inkscape:path-effect
       effect="spiro"
       id="path-effect22900"
       is_visible="true"
       lpeversion="1" />
  </defs>
  <g
     inkscape:label="Layer 1"
     inkscape:groupmode="layer"
     id="layer1"
     transform="translate(-32.276474,-98.590683)">
    <path
       style="fill:#050505;fill-opacity:0.435897;stroke:none;stroke-width:0.0538732px;stroke-linecap:butt;stroke-linejoin:miter;stroke-opacity:1"
       d="m 47.532835,136.42446 c -0.279778,-0.60144 -2.642437,-0.6844 -4.100044,-0.38256 -1.021196,0.21147 -2.704142,0.0275 -2.568811,0.59179 0.173383,0.72292 2.4084,-0.16667 3.325175,0.2797 0.602841,0.29351 3.716984,0.31356 3.34368,-0.48893 z"
       id="path20858"
       sodipodi:nodetypes="sssss" />
    <path
       style="fill:#050505;fill-opacity:0.435897;stroke:none;stroke-width:0.0674857px;stroke-linecap:butt;stroke-linejoin:miter;stroke-opacity:1"
       d="m 41.278045,136.70511 c 0.88623,-0.10611 -1.129615,-2.33974 -3.04452,-3.81226 -1.341579,-1.03164 -2.540069,-2.58924 -3.488499,-2.61109 -1.215096,-0.028 2.532567,2.34413 2.527236,3.09996 -0.0035,0.497 2.823298,3.46498 4.005783,3.32339 z"
       id="path20864"
       sodipodi:nodetypes="sssss" />
    <path
       style="fill:#050505;fill-opacity:0.435897;stroke:none;stroke-width:0.0954944px;stroke-linecap:butt;stroke-linejoin:miter;stroke-opacity:1"
       d="m 46.008057,127.65024 c 0.01432,0.97927 -4.502223,-1.18878 -7.616326,-3.26388 -2.181737,-1.45381 -5.283015,-2.73727 -5.543671,-3.78203 -0.333944,-1.33851 4.837181,2.73489 6.205271,2.71085 0.899613,-0.0158 6.935611,3.0284 6.954726,4.33506 z"
       id="path20834"
       sodipodi:nodetypes="sssss" />
    <g
       id="g20802"
       transform="matrix(-0.38079176,-0.19972913,0.23540465,-0.38518314,64.142118,221.89165)"
       style="fill:#050505;fill-opacity:0.435897">
      <path
         style="fill:#050505;fill-opacity:0.435897;stroke:none;stroke-width:0.264583px;stroke-linecap:butt;stroke-linejoin:miter;stroke-opacity:1"
         d="m 153.10455,172.35846 c -3.1146,1.53594 0.40129,10.6269 4.67731,15.96129 2.99578,3.73726 4.75499,10.3098 7.89294,9.35459 4.02024,-1.22379 -5.08335,-9.07187 -3.97571,-12.92103 0.72835,-2.53108 -4.43877,-14.44423 -8.59454,-12.39485 z"
         id="path20798"
         sodipodi:nodetypes="sssss" />
      <path
         style="fill:#050505;fill-opacity:0.435897;stroke:none;stroke-width:0.237506px;stroke-linecap:butt;stroke-linejoin:miter;stroke-opacity:1"
         d="m 152.48648,172.10632 c -2.72062,1.41689 0.35053,9.80318 4.08565,14.72409 2.61682,3.44757 4.1535,9.51065 6.89451,8.62948 3.5117,-1.12893 -4.44032,-8.36868 -3.47279,-11.91948 0.63621,-2.33489 -3.87729,-13.32461 -7.50737,-11.43409 z"
         id="path20800"
         sodipodi:nodetypes="sssss" />
    </g>
    <path
       style="fill:#050505;fill-opacity:0.435897;stroke:none;stroke-width:0.145867px;stroke-linecap:butt;stroke-linejoin:miter;stroke-opacity:1"
       d="m 47.72143,114.51103 c 1.560557,-0.98765 -2.30507,-5.10761 -5.894258,-7.35112 -2.514581,-1.5718 -4.842144,-4.61196 -6.529518,-3.9033 -2.161806,0.90791 4.797531,3.98748 4.884538,5.93602 0.05721,1.28129 5.457001,6.63622 7.539238,5.3184 z"
       id="path20804"
       sodipodi:nodetypes="sssss" />
    <path
       style="fill:#050505;fill-opacity:1;stroke:none;stroke-width:0.0986911;stroke-linecap:butt;stroke-linejoin:miter;stroke-miterlimit:4;stroke-dasharray:none;stroke-opacity:1"
       d="m 43.664096,144.57752 c -3.237321,0.78831 -5.111028,0.87715 -5.094238,2.97472 3.356373,-2.5013 6.44369,-0.89289 2.050798,2.26414 2.39796,0.43276 5.836776,-3.2305 4.104944,-4.45577 -0.36834,-0.65298 -1.061464,-0.78311 -1.061464,-0.78311 z"
       id="path19349"
       sodipodi:nodetypes="ccccc" />
    <path
       id="path21291"
       style="fill:#000000;fill-opacity:1;stroke-width:0.0333721;stroke-linejoin:bevel"
       d="m 49.443043,132.92182 c 3.421847,-0.0743 2.661954,4.92548 2.400021,6.5927 -0.310512,1.97647 -5.480565,1.42464 -6.725461,1.28082 -3.202931,-0.37003 -2.356565,-4.95367 -1.880346,-5.64833 1.33535,-1.94787 2.064982,-2.13527 6.205786,-2.22519 z"
       sodipodi:nodetypes="sssss" />
    <path
       id="ellipse14331"
       style="fill:#241705;fill-opacity:1;stroke-width:0.0271995;stroke-linejoin:bevel"
       d="m 49.965989,134.20309 c 2.751854,-0.0611 2.141247,4.06877 1.930767,5.44589 -0.249516,1.63257 -4.407347,1.17626 -5.408511,1.05735 -2.575845,-0.30595 -1.895654,-4.09202 -1.512746,-4.66578 1.073696,-1.60885 1.660451,-1.76357 4.99049,-1.83746 z"
       sodipodi:nodetypes="sssss" />
    <path
       id="path21351"
       style="fill:#000000;fill-opacity:1;stroke-width:0.0400642;stroke-linejoin:bevel"
       d="m 49.784882,123.68187 c 3.854987,-0.0928 3.002404,6.30296 2.708482,8.43569 -0.348434,2.52832 -6.173383,1.81899 -7.575978,1.63419 -3.60867,-0.47547 -2.658375,-6.33883 -2.122355,-7.22721 1.503032,-2.49107 2.324901,-2.73032 6.989851,-2.84267 z"
       sodipodi:nodetypes="sssss" />
    <path
       id="path21353"
       style="fill:#241705;fill-opacity:1;stroke-width:0.0326537;stroke-linejoin:bevel"
       d="m 50.37493,125.32135 c 3.100186,-0.0763 2.415176,5.20662 2.179017,6.96826 -0.279958,2.0884 -4.964473,1.50194 -6.092464,1.34916 -2.902152,-0.39308 -2.138509,-5.23621 -1.707529,-5.96998 1.208492,-2.05752 1.86942,-2.25507 5.620976,-2.34744 z"
       sodipodi:nodetypes="sssss" />
    <path
       id="path22180"
       style="fill:#000000;fill-opacity:1;stroke-width:0.0641335;stroke-linejoin:bevel"
       d="m 49.608843,124.78419 c -3.709549,2.13356 -7.639657,-3.9494 -9.124668,-9.60814 -1.485017,-5.65874 0.346431,-13.21065 4.055981,-15.344209 3.709544,-2.13356 7.706444,-0.580573 9.191459,5.078159 1.485017,5.65874 -0.413222,17.74063 -4.122772,19.87419 z"
       sodipodi:nodetypes="sssss" />
    <path
       id="path21357"
       style="fill:#241705;fill-opacity:1;stroke-width:0.0594719;stroke-linejoin:bevel"
       d="m 50.023623,124.86222 c -3.188524,2.13134 -6.572005,-3.95395 -7.852633,-9.61356 -1.280634,-5.65961 0.289395,-13.21041 3.477924,-15.341747 3.188523,-2.13134 6.626521,-0.575973 7.907151,5.083637 1.280635,5.6596 -0.343913,17.74033 -3.532442,19.87167 z"
       sodipodi:nodetypes="sssss" />
    <path
       id="path11103"
       style="fill:#704d2d;fill-opacity:0.689977;stroke-width:0.0184835;stroke-linejoin:bevel"
       d="m 52.534931,108.84764 c -0.664144,0.95716 -2.215802,-0.67744 -3.143643,-2.36181 -0.927837,-1.68438 -1.260455,-4.21993 -0.596312,-5.1771 0.664146,-0.95715 1.771237,-0.76567 2.699078,0.91872 0.927841,1.68437 1.705029,5.66304 1.040877,6.62019 z"
       sodipodi:nodetypes="sssss" />
    <path
       style="fill:#050505;fill-opacity:1;stroke:none;stroke-width:0.0884351px;stroke-linecap:butt;stroke-linejoin:miter;stroke-opacity:1"
       d="m 44.194129,130.62731 c -1.083866,-0.70126 2.10336,-2.11428 4.941639,-2.66741 1.988495,-0.38753 3.950393,-1.50671 5.149823,-0.92082 1.536671,0.75062 -3.869464,1.21363 -4.083187,2.13572 -0.140542,0.60632 -4.562083,2.38818 -6.008275,1.45251 z"
       id="path25141"
       sodipodi:nodetypes="sssss"
       inkscape:transform-center-x="-3.7806162"
       inkscape:transform-center-y="-1.1532001" />
    <path
       style="fill:#050505;fill-opacity:1;stroke:none;stroke-width:0.133111px;stroke-linecap:butt;stroke-linejoin:miter;stroke-opacity:1"
       d="m 54.418098,127.43668 c -0.201175,1.05765 -7.674439,-2.07103 -12.692965,-4.85341 -3.515971,-1.94935 -8.694935,-3.87653 -8.913542,-5.04796 -0.28007,-1.50079 7.908294,3.79571 10.32943,4.00993 1.59206,0.14095 11.545512,4.48022 11.277077,5.89144 z"
       id="path25147"
       sodipodi:nodetypes="sssss" />
    <path
       style="fill:#050505;fill-opacity:1;stroke:none;stroke-width:0.0982176px;stroke-linecap:butt;stroke-linejoin:miter;stroke-opacity:1"
       d="m 46.838927,123.83018 c 1.584548,0.0679 5.596452,-2.69215 7.409504,-4.63049 1.270216,-1.358 4.362086,-3.24072 3.083021,-3.45596 -1.6387,-0.27576 -3.618444,2.98114 -5.951876,3.77576 -1.534388,0.52252 -6.654888,4.22006 -4.540649,4.31069 z"
       id="path25153"
       sodipodi:nodetypes="sssss" />
    <path
       style="fill:#050505;fill-opacity:1;stroke:none;stroke-width:0.174904px;stroke-linecap:butt;stroke-linejoin:miter;stroke-opacity:1"
       d="m 57.369271,116.75273 c 1.806574,-0.48888 -4.814888,-6.85235 -10.445775,-10.93611 -3.944996,-2.86108 -8.114773,-7.337984 -10.185589,-7.223795 -2.653063,0.146329 7.849765,6.599045 8.605421,8.882975 0.496895,1.50183 9.615445,9.92925 12.025943,9.27693 z"
       id="path25159"
       sodipodi:nodetypes="sssss"
       inkscape:transform-center-x="9.8025358"
       inkscape:transform-center-y="-8.3742301" />
    <path
       style="fill:#050505;fill-opacity:1;stroke:none;stroke-width:0.0538732px;stroke-linecap:butt;stroke-linejoin:miter;stroke-opacity:1"
       d="m 46.709909,137.11253 c -0.492934,-0.45727 -2.716704,0.31554 -3.951618,1.11977 -0.865178,0.56344 -2.497648,0.9981 -2.153129,1.47283 0.441389,0.60821 2.169322,-1.0208 3.192942,-0.93649 0.673098,0.0555 3.56952,-1.04599 2.911805,-1.65611 z"
       id="path22898"
       sodipodi:nodetypes="sssss" />
    <path
       style="fill:#050505;fill-opacity:1;stroke:none;stroke-width:0.0674857px;stroke-linecap:butt;stroke-linejoin:miter;stroke-opacity:1"
       d="m 41.016959,139.62246 c 0.780873,-0.41717 -1.955855,-1.76404 -4.30357,-2.44121 -1.644803,-0.47442 -3.361004,-1.48819 -4.249235,-1.16735 -1.137971,0.41106 3.258917,1.26353 3.547304,1.96654 0.189632,0.46228 3.963592,2.19865 5.005501,1.64202 z"
       id="path25126"
       sodipodi:nodetypes="sssss" />
    <path
       id="path18775"
       style="fill:#080705;fill-opacity:1;stroke:none;stroke-width:0.508755;stroke-linejoin:bevel;stroke-miterlimit:4;stroke-dasharray:none;stroke-opacity:1"
       d="m 47.275269,149.06219 c -1.923651,0.0611 -4.282395,-1.25372 -4.794408,-2.72094 -0.668398,-1.91534 0.801054,-3.49458 3.651208,-5.25287 4.308178,-2.65774 5.079594,-5.4339 7.419351,1.91653 1.566331,4.92068 -3.6024,5.97233 -6.276151,6.05728 z"
       sodipodi:nodetypes="sssss" />
    <path
       id="path15084"
       style="fill:#241705;fill-opacity:1;stroke:none;stroke-width:0.466229;stroke-linejoin:bevel;stroke-miterlimit:4;stroke-dasharray:none;stroke-opacity:1"
       d="m 48.873683,149.01388 c -1.90647,0.37067 -4.424542,-0.31744 -5.124539,-1.43841 -0.9138,-1.46335 0.430115,-2.8551 2.951813,-4.92675 4.957603,-4.0728 4.722956,-5.72438 7.272585,0.31074 2.233811,5.28757 -2.449993,5.53923 -5.099859,6.05442 z"
       sodipodi:nodetypes="sssss" />
    <path
       id="path14812"
       style="fill:#362610;fill-opacity:1;stroke-width:0.0614314;stroke-linejoin:bevel"
       d="m 49.36194,148.76384 c -1.191729,0.24808 -2.788683,-0.37101 -3.25071,-1.2905 -0.603141,-1.20033 0.157588,-2.40795 1.760483,-3.88345 2.422874,-2.23028 2.858799,-4.47833 4.579633,0.44015 1.507678,4.30925 -1.43298,4.38898 -3.089406,4.7338 z"
       sodipodi:nodetypes="sssss" />
    <path
       id="path19575"
       style="fill:#a32e26;fill-opacity:1;stroke-width:0.0314032;stroke-linejoin:bevel"
       d="m 51.843168,148.2341 c -0.864028,0.16279 -1.987441,0.0315 -2.285698,-0.27836 -0.389353,-0.40453 0.200124,-0.89379 1.403529,-1.53208 1.819024,-0.96481 2.21307,-1.81661 3.269933,-0.11387 0.92595,1.49184 -1.186828,1.69803 -2.387764,1.92431 z"
       sodipodi:nodetypes="sssss" />
    <use
       x="0"
       y="0"
       xlink:href="#path19575"
       id="use19775"
       transform="matrix(0.55469822,-0.97037956,-0.71344238,-0.55469821,126.50003,274.3531)"
       width="100%"
       height="100%" />
    <path
       id="rect25196"
       style="fill:#241705;fill-opacity:1;stroke-width:0.311681;stroke-linejoin:bevel"
       d="m 53.688953,144.47477 0.246602,0.65545 c 0,0 5.193655,0.62259 6.583365,0.2512 0.498585,-0.13324 0.368237,-0.47971 -0.246601,-0.65544 -1.713719,-0.48981 -6.583366,-0.25121 -6.583366,-0.25121 z"
       sodipodi:nodetypes="ccaac" />
    <use
       x="0"
       y="0"
       xlink:href="#rect25196"
       id="use26504"
       transform="matrix(0.8850401,-0.5417558,0.39739807,0.88663474,-52.381564,42.473546)"
       width="100%"
       height="100%"
       style="fill:#241705;fill-opacity:1" />
  </g>
</svg>
