<?xml version="1.0" encoding="UTF-8" standalone="no"?>
<svg
   id="eqWQrz9ZfFg1"
   viewBox="0 0 98.624187 151.50505"
   shape-rendering="geometricPrecision"
   text-rendering="geometricPrecision"
   version="1.1"
   sodipodi:docname="bee-egg-broken.svg"
   width="98.624184"
   height="151.50505"
   inkscape:version="1.1 (c68e22c387, 2021-05-23)"
   xmlns:inkscape="http://www.inkscape.org/namespaces/inkscape"
   xmlns:sodipodi="http://sodipodi.sourceforge.net/DTD/sodipodi-0.dtd"
   xmlns:xlink="http://www.w3.org/1999/xlink"
   xmlns="http://www.w3.org/2000/svg"
   xmlns:svg="http://www.w3.org/2000/svg">
  <defs
     id="defs2314" />
  <sodipodi:namedview
     id="namedview2312"
     pagecolor="#4f4a4a"
     bordercolor="#666666"
     borderopacity="1.0"
     inkscape:pageshadow="2"
     inkscape:pageopacity="0"
     inkscape:pagecheckerboard="true"
     showgrid="false"
     fit-margin-top="0"
     fit-margin-left="0"
     fit-margin-right="0"
     fit-margin-bottom="0"
     inkscape:zoom="1.1020833"
     inkscape:cx="-210.05671"
     inkscape:cy="-138.37429"
     inkscape:window-width="1920"
     inkscape:window-height="1017"
     inkscape:window-x="1272"
     inkscape:window-y="-8"
     inkscape:window-maximized="1"
     inkscape:current-layer="eqWQrz9ZfFg1" />
  <path
     id="path80254"
     style="fill:#ecc192;fill-opacity:1;stroke:#94674b;stroke-width:8;stroke-linecap:round;stroke-linejoin:round;stroke-miterlimit:4;stroke-dasharray:none;stroke-opacity:1"
     d="M 94.464215,79.267068 C 96.759837,118.39513 74.541876,143.61925 49.435958,143.61925 24.330044,143.61925 1.6316665,119.82562 4.1926889,80.727999 6.342779,47.903846 6.1373999,32.433086 20.19245,3.9989327 22.518508,32.033815 27.042017,55.585032 42.814343,42.780483 37.695798,69.441266 51.035267,91.769691 53.091336,90.600245 55.147405,89.4308 52.706697,58.136304 63.462394,56.274065 72.471369,54.714253 76.766269,45.018967 77.385825,16.839013 c 19.428939,1.26177 16.159308,46.762626 17.07839,62.428055 z"
     sodipodi:nodetypes="sssccsscs" />
  <g
     id="g131535"
     transform="matrix(0.7782298,0,0,0.88536012,2.9228692,-7.5789042)"
     style="fill:#00a60f;fill-opacity:1">
    <g
       id="g131576"
       style="fill:#00a60f;fill-opacity:1">
      <path
         id="path126595"
         style="fill:#00a60f;fill-opacity:1;stroke-width:10.4389;stroke-linecap:round;stroke-linejoin:round"
         d="m 76.57314,157.04217 c -12.96822,-0.20128 5.331616,-14.3864 -4.862635,-31.86778 -12.623389,-21.64693 -24.960007,40.69423 -39.436931,28.83502 -17.121193,-14.02534 1.805876,-16.92603 8.451487,-23.06035 7.574806,-6.99202 17.356627,-17.92829 13.688932,-60.922335 5.621747,-1.787302 10.273691,-2.312463 16.355013,0.384136 -2.384386,20.698267 -4.490845,25.908625 0.297158,39.900819 4.373057,12.77958 31.196946,47.12923 5.506976,46.73049 z"
         sodipodi:nodetypes="ssssccss" />
    </g>
  </g>
  <g
     id="g86144"
     transform="matrix(0.46716621,-0.57648292,0.44382411,0.60253203,32.703685,13.061893)"
     style="fill:#763958;fill-opacity:1" />
  <path
     id="path19792"
     style="fill:#00a60f;stroke-width:3.37346;stroke-linejoin:bevel"
     d="m 17.53074,74.926006 c -0.08344,-5.783846 6.958275,-16.351478 7.015916,-19.014987 0.182717,2.622833 7.478066,13.020847 7.561503,18.804694 0.08344,5.783846 -3.112188,10.519654 -7.137633,10.577726 -4.025444,0.05807 -7.35635,-4.583587 -7.439786,-10.367433 z"
     sodipodi:nodetypes="scsss" />
  <use
     x="0"
     y="0"
     xlink:href="#path19792"
     id="use21081"
     transform="matrix(0.65770693,0,0,0.72207184,60.896429,41.853046)"
     width="100%"
     height="100%" />
</svg>
