<?xml version="1.0" encoding="UTF-8" standalone="no"?>
<svg
   id="eqWQrz9ZfFg1"
   viewBox="0 0 98.744548 151.88684"
   shape-rendering="geometricPrecision"
   text-rendering="geometricPrecision"
   version="1.1"
   sodipodi:docname="bee-egg.svg"
   width="98.744545"
   height="151.88684"
   inkscape:version="1.1 (c68e22c387, 2021-05-23)"
   xmlns:inkscape="http://www.inkscape.org/namespaces/inkscape"
   xmlns:sodipodi="http://sodipodi.sourceforge.net/DTD/sodipodi-0.dtd"
   xmlns="http://www.w3.org/2000/svg"
   xmlns:svg="http://www.w3.org/2000/svg">
  <defs
     id="defs2314" />
  <sodipodi:namedview
     id="namedview2312"
     pagecolor="#4f4a4a"
     bordercolor="#666666"
     borderopacity="1.0"
     inkscape:pageshadow="2"
     inkscape:pageopacity="0"
     inkscape:pagecheckerboard="true"
     showgrid="false"
     fit-margin-top="0"
     fit-margin-left="0"
     fit-margin-right="0"
     fit-margin-bottom="0"
     inkscape:zoom="2.2041667"
     inkscape:cx="-88.695651"
     inkscape:cy="8.3931946"
     inkscape:window-width="1920"
     inkscape:window-height="1017"
     inkscape:window-x="1272"
     inkscape:window-y="-8"
     inkscape:window-maximized="1"
     inkscape:current-layer="eqWQrz9ZfFg1" />
  <path
     id="path80254"
     style="fill:#ecc192;fill-opacity:1;stroke:#94674b;stroke-width:8.011;stroke-linecap:round;stroke-linejoin:round;stroke-miterlimit:4;stroke-dasharray:none;stroke-opacity:1"
     d="m 94.578861,83.280523 c 2.2984,39.279237 -19.94637,64.600817 -45.082577,64.600817 -25.136199,0 -47.8619593,-23.88557 -45.2978473,-63.134237 C 6.3511207,51.796125 18.934164,3.2520356 49.065746,4.0140326 78.856191,4.7674016 92.856721,53.849323 94.578861,83.280523 Z"
     sodipodi:nodetypes="sssss" />
  <g
     id="g86144"
     transform="matrix(0.46716621,-0.57648292,0.44382411,0.60253203,7.0405402,-2.1752585)"
     style="fill:#763958;fill-opacity:1" />
  <path
     id="path7742"
     style="fill:#ffebd2;fill-opacity:1;stroke-width:4.06089;stroke-linecap:round;stroke-linejoin:bevel"
     d="m 35.210386,20.616706 c -5.276223,4.537945 -16.638446,26.62549 -9.24211,28.442989 5.929293,1.457 8.064383,-12.33516 12.078137,-19.472157 3.848081,-6.842412 17.238579,-8.365182 15.118229,-14.82781 -2.120352,-6.4626238 -13.3017,1.855433 -17.954256,5.856978 z"
     sodipodi:nodetypes="sssss" />
</svg>
