<?xml version="1.0" encoding="UTF-8" standalone="no"?>
<!-- Created with Inkscape (http://www.inkscape.org/) -->

<svg
   width="45mm"
   height="39mm"
   viewBox="0 0 45.000001 38.999999"
   version="1.1"
   id="svg1105"
   inkscape:version="1.1.1 (3bf5ae0d25, 2021-09-20)"
   sodipodi:docname="bee-jellymaker-head-green.svg"
   xmlns:inkscape="http://www.inkscape.org/namespaces/inkscape"
   xmlns:sodipodi="http://sodipodi.sourceforge.net/DTD/sodipodi-0.dtd"
   xmlns:xlink="http://www.w3.org/1999/xlink"
   xmlns="http://www.w3.org/2000/svg"
   xmlns:svg="http://www.w3.org/2000/svg">
  <sodipodi:namedview
     id="namedview1107"
     pagecolor="#505050"
     bordercolor="#ffffff"
     borderopacity="1"
     inkscape:pageshadow="0"
     inkscape:pageopacity="0"
     inkscape:pagecheckerboard="1"
     inkscape:document-units="mm"
     showgrid="false"
     fit-margin-top="0"
     fit-margin-left="0"
     fit-margin-right="0"
     fit-margin-bottom="0"
     inkscape:zoom="3.0574074"
     inkscape:cx="15.536039"
     inkscape:cy="52.822532"
     inkscape:window-width="1920"
     inkscape:window-height="1017"
     inkscape:window-x="1272"
     inkscape:window-y="-8"
     inkscape:window-maximized="1"
     inkscape:current-layer="layer1" />
  <defs
     id="defs1102" />
  <g
     inkscape:label="Layer 1"
     inkscape:groupmode="layer"
     id="layer1"
     transform="translate(-164.23061,-147.10374)">
    <g
       id="g882"
       transform="matrix(0.0640246,-0.99794832,-0.99794832,-0.0640246,280.66493,254.28445)"
       inkscape:transform-center-x="-5.227881"
       inkscape:transform-center-y="0.30170652"
       inkscape:label="#head"
       class="head">
      <use
         x="0"
         y="0"
         xlink:href="#rect76516"
         id="use78163"
         transform="matrix(0.94444974,-0.35513618,0.30415004,0.94444974,-26.708304,33.900421)"
         width="100%"
         height="100%" />
      <rect
         style="fill:#050505;fill-opacity:1;stroke:none;stroke-width:2.35307;stroke-linecap:round;stroke-linejoin:round;stroke-miterlimit:4;stroke-dasharray:none;stroke-opacity:1;paint-order:stroke fill markers"
         id="rect76516"
         width="1.3706738"
         height="6.467051"
         x="-99.158066"
         y="-88.783073"
         transform="matrix(-0.02832063,-0.99959889,-0.99945326,0.03306334,0,0)" />
      <path
         id="path117403-5"
         style="fill:#050505;stroke-width:1.39178;stroke-linecap:round;stroke-linejoin:round"
         d="m 88.930488,92.222608 -1.798412,-0.500027 c 0,0 0.04211,-11.1406 2.467662,-13.905486 0.557589,-0.635606 1.508228,-0.371271 1.798378,0.500017 1.262255,3.790232 -2.467628,13.905496 -2.467628,13.905496 z"
         sodipodi:nodetypes="ccaac"
         inkscape:transform-center-x="-1.1887591"
         inkscape:transform-center-y="-6.3455588" />
      <path
         id="path22857-2"
         style="fill:#050505;stroke-width:1.31092;stroke-linecap:round;stroke-linejoin:round"
         d="m 91.65438,96.239611 -1.132668,-0.982218 c 0,0 6.626546,-9.963018 10.189708,-11.717987 0.81902,-0.403558 1.41787,0.115729 1.13263,0.982176 -1.24033,3.768943 -10.189681,11.718035 -10.189681,11.718035 z"
         sodipodi:nodetypes="ccaac"
         inkscape:transform-center-x="-4.5925662"
         inkscape:transform-center-y="-5.4712728" />
      <path
         id="ellipse4848"
         style="fill:#f0ff00;stroke:#000000;stroke-width:1.359;stroke-linejoin:bevel;stroke-miterlimit:4;stroke-dasharray:none;stroke-opacity:1"
         d="m 86.892206,105.11305 c -0.09969,-3.6758 -5.294082,-13.473571 -11.089926,-14.655407 -4.689659,-0.956268 -15.114115,5.611314 -11.913466,9.628847 4.073446,4.90036 23.089792,11.55626 23.003392,5.02656 z"
         sodipodi:nodetypes="cscc" />
      <ellipse
         style="fill:#71b374;fill-opacity:1;stroke:#1e581f;stroke-width:1.29618;stroke-linejoin:bevel;stroke-miterlimit:4;stroke-dasharray:none;stroke-opacity:1"
         id="ellipse8628"
         cx="-6.4304051"
         cy="121.42758"
         rx="4.5307746"
         ry="4.9465647"
         transform="matrix(-0.81784423,0.57543967,0.60972078,0.79261628,0,0)" />
      <ellipse
         style="fill:#71b374;fill-opacity:1;stroke:#1e581f;stroke-width:1.57471;stroke-linejoin:bevel;stroke-miterlimit:4;stroke-dasharray:none;stroke-opacity:1"
         id="ellipse18455"
         cx="-7.0050378"
         cy="129.40025"
         rx="5.4453592"
         ry="5.9838996"
         transform="matrix(-0.81185111,0.58386452,0.60132633,0.79900353,0,0)" />
      <ellipse
         style="fill:#1e581f;fill-opacity:1;stroke:none;stroke-width:2.60825;stroke-linecap:round;stroke-linejoin:round;stroke-opacity:1;paint-order:stroke fill markers"
         id="path66792"
         cx="80.923653"
         cy="97.456116"
         rx="1.3475646"
         ry="1.5054671" />
      <use
         x="0"
         y="0"
         xlink:href="#path66792"
         id="use66962"
         transform="matrix(0.87021104,0,0,0.78681823,7.0715322,14.784915)"
         width="100%"
         height="100%" />
    </g>
  </g>
</svg>
