<?xml version="1.0" encoding="UTF-8" standalone="no"?>
<!-- Created with Inkscape (http://www.inkscape.org/) -->

<svg
   width="219.80544"
   height="151.49442"
   viewBox="0 0 58.156855 40.082899"
   version="1.1"
   id="svg5"
   inkscape:version="1.1 (c68e22c387, 2021-05-23)"
   sodipodi:docname="bee-dead.svg"
   xmlns:inkscape="http://www.inkscape.org/namespaces/inkscape"
   xmlns:sodipodi="http://sodipodi.sourceforge.net/DTD/sodipodi-0.dtd"
   xmlns:xlink="http://www.w3.org/1999/xlink"
   xmlns="http://www.w3.org/2000/svg"
   xmlns:svg="http://www.w3.org/2000/svg">
  <sodipodi:namedview
     id="namedview7"
     pagecolor="#505050"
     bordercolor="#ffffff"
     borderopacity="1"
     inkscape:pageshadow="0"
     inkscape:pageopacity="0"
     inkscape:pagecheckerboard="1"
     inkscape:document-units="mm"
     showgrid="false"
     inkscape:snap-global="false"
     inkscape:zoom="2.1619135"
     inkscape:cx="68.226596"
     inkscape:cy="9.0197873"
     inkscape:window-width="1920"
     inkscape:window-height="1017"
     inkscape:window-x="1272"
     inkscape:window-y="-8"
     inkscape:window-maximized="1"
     inkscape:current-layer="layer1"
     fit-margin-top="0"
     fit-margin-left="0"
     fit-margin-right="0"
     fit-margin-bottom="0"
     units="px" />
  <defs
     id="defs2" />
  <g
     inkscape:label="Layer 1"
     inkscape:groupmode="layer"
     id="layer1"
     transform="translate(-47.674765,-94.454487)">
    <g
       id="g18128"
       transform="matrix(0.74948216,0.47012281,0.53015831,-0.66461028,-51.219637,170.86532)"
       style="fill:#262626;fill-opacity:0.83921599">
      <path
         id="path18105"
         style="fill:#262626;stroke-width:0.0677414;stroke-linejoin:bevel;fill-opacity:0.83921599"
         d="m 90.072785,143.47158 c -0.1172,0.4565 0.142525,0.64258 0.743364,0.36426 0.96932,-0.72424 2.98202,-2.71093 3.432004,-3.23452 0.03101,-0.41282 -0.31387,-0.81859 -0.916391,-0.83615 -0.581707,0.3783 -2.792103,2.82001 -3.258977,3.70641 z"
         sodipodi:nodetypes="ccccc" />
      <path
         id="path18000"
         style="fill:#262626;stroke-width:0.107589;stroke-linejoin:bevel;fill-opacity:0.83921599"
         d="m 93.069103,140.07664 c 0.317408,-0.5507 0.871242,-0.39598 1.408429,0.59256 0.57775,1.83968 1.270522,6.08925 1.342046,7.11001 -0.390521,0.40553 -1.292501,0.34128 -2.142591,-0.38609 -0.405849,-1.0539 -0.893874,-5.95211 -0.607884,-7.31648 z"
         sodipodi:nodetypes="ccccc" />
      <path
         id="path18120"
         style="fill:#262626;stroke-width:0.0850969;stroke-linejoin:bevel;fill-opacity:0.83921599"
         d="m 93.328073,153.7976 c -0.450687,0.46505 -0.848362,0.38387 -0.941918,-0.36581 0.169926,-1.42753 1.085755,-4.77445 1.383106,-5.58567 0.459721,-0.35453 1.17279,-0.37253 1.612492,0.14405 -0.0363,0.81204 -1.34508,4.6937 -2.053668,5.80739 z"
         sodipodi:nodetypes="ccccc" />
      <path
         id="path18122"
         style="fill:#262626;stroke-width:0.0364336;stroke-linejoin:bevel;fill-opacity:0.83921599"
         d="m 94.025861,156.10509 c 0.190183,0.0194 0.281417,-0.18475 0.189069,-0.56177 -0.266784,-0.57121 -1.027428,-1.69233 -1.231484,-1.9323 -0.175323,0.0342 -0.364393,0.32662 -0.398775,0.7446 0.135986,0.35038 1.082585,1.54666 1.441186,1.74947 z"
         sodipodi:nodetypes="ccccc" />
    </g>
    <g
       id="g18662"
       transform="matrix(0.90006487,-0.1522554,-0.36731431,-0.84925931,52.709311,240.63139)"
       inkscape:transform-center-x="3.2730815"
       inkscape:transform-center-y="5.8264443"
       style="fill:#262626;fill-opacity:0.83921599">
      <path
         id="path18555"
         style="fill:#262626;stroke-width:0.183859;stroke-linejoin:bevel;fill-opacity:0.83921599"
         d="m 76.012201,134.47984 c -1.031201,-0.72282 -1.999098,-0.39848 -2.313027,1.10784 0.24106,2.72368 2.053139,8.89418 2.673981,10.35843 1.06601,0.50272 2.782239,0.2413 3.902782,-0.95284 0.0083,-1.57444 -2.687583,-8.62821 -4.263736,-10.51343 z"
         sodipodi:nodetypes="ccccc" />
      <path
         id="path18557"
         style="fill:#262626;stroke-width:0.134814;stroke-linejoin:bevel;fill-opacity:0.83921599"
         d="m 76.116231,152.67315 c 0.383679,0.87819 1.121128,1.11705 1.887526,0.37656 0.871586,-1.69669 2.041243,-6.10062 2.197463,-7.23009 -0.488626,-0.7651 -1.678207,-1.37176 -2.839994,-1.17039 -0.597727,0.91544 -1.537776,6.22604 -1.244995,8.02392 z"
         sodipodi:nodetypes="ccccc" />
      <path
         id="path18559"
         style="fill:#262626;stroke-width:0.061786;stroke-linejoin:bevel;fill-opacity:0.83921599"
         d="m 77.954442,158.0264 c 0.293437,0.21911 0.524822,-0.006 0.538324,-0.68112 -0.180804,-1.14886 -0.911685,-3.63933 -1.133553,-4.2134 -0.292611,-0.12143 -0.716658,0.1431 -0.948574,0.75554 0.06703,0.67721 1.06101,3.46878 1.543803,4.13898 z"
         sodipodi:nodetypes="ccccc" />
    </g>
    <g
       id="g18533"
       transform="matrix(-0.7711296,-0.07754884,0.05788432,-0.70158413,149.11608,214.82992)"
       style="fill:#262626;fill-opacity:0.83921599">
      <g
         id="g18112"
         transform="translate(2.9423077,-12.115385)"
         style="fill:#262626;fill-opacity:0.83921599">
        <path
           id="path17998"
           style="fill:#262626;stroke-width:0.167231;stroke-linejoin:bevel;fill-opacity:0.83921599"
           d="m 81.839819,151.40775 c -0.728592,0.76184 -1.59969,0.49853 -2.143846,-0.95394 -0.30669,-2.67065 0.05865,-8.79051 0.305151,-10.25322 0.798839,-0.549 2.28487,-0.38814 3.44621,0.71544 0.300959,1.53568 -0.639609,8.56584 -1.607515,10.49172 z"
           sodipodi:nodetypes="ccccc" />
        <path
           id="path18103"
           style="fill:#262626;stroke-width:0.118932;stroke-linejoin:bevel;fill-opacity:0.83921599"
           d="m 82.56848,159.69211 c 0.556927,0.53055 1.04703,0.22053 1.160404,-1.00902 -0.213317,-2.18252 -1.351462,-7.06336 -1.720241,-8.21199 -0.567808,-0.35142 -1.447016,-0.0545 -1.987791,0.96406 0.04693,1.26905 1.670985,6.81715 2.547628,8.25695 z"
           sodipodi:nodetypes="ccccc" />
        <path
           id="path18107"
           style="fill:#262626;stroke-width:0.107589;stroke-linejoin:bevel;fill-opacity:0.83921599"
           d="m 87.035628,144.09077 c 0.102154,0.62736 -0.424793,0.85756 -1.465919,0.43114 -1.61058,-1.06032 -4.833622,-3.91527 -5.534282,-4.66102 0.04626,-0.56109 0.78579,-1.08146 1.904287,-1.0552 0.980671,0.5601 4.455074,4.04708 5.095914,5.28508 z"
           sodipodi:nodetypes="ccccc" />
      </g>
      <path
         id="path18118"
         style="fill:#262626;stroke-width:0.0435123;stroke-linejoin:bevel;fill-opacity:0.83921599"
         d="m 84.765478,149.96654 c 0.132811,0.16366 0.415499,0.0759 0.727924,-0.28983 0.371454,-0.65319 0.910112,-2.12029 0.992277,-2.46653 -0.17584,-0.11032 -0.627619,-0.0302 -1.08385,0.26846 -0.250051,0.37906 -0.716417,2.04991 -0.636351,2.4879 z"
         sodipodi:nodetypes="ccccc"
         inkscape:transform-center-x="-1.9038462"
         inkscape:transform-center-y="-1.125" />
    </g>
    <path
       id="path1868"
       style="fill:#050505;stroke-width:0.1567;stroke-linejoin:bevel"
       d="m 63.990931,120.61874 c 0.328163,0.54211 0.699987,1.33823 -0.172406,1.73265 -0.925689,0.41852 -3.28384,-0.97286 -10.32092,1.99813 0.684444,-2.942 7.296648,-5.12885 8.371612,-5.11101 1.074963,0.0178 1.809266,0.86408 2.121714,1.38023 z"
       sodipodi:nodetypes="scccs" />
    <g
       id="g4846"
       transform="matrix(0.91803668,0,0,-0.81407756,4.1322879,223.42552)">
      <ellipse
         style="fill:#050505;fill-opacity:1;stroke-width:0.276598;stroke-linejoin:bevel"
         id="path846"
         cx="76.772659"
         cy="123.92308"
         rx="15.650415"
         ry="10.730769" />
      <ellipse
         style="fill:#f8ff25;fill-opacity:1;stroke-width:0.254343;stroke-linejoin:bevel"
         id="ellipse1398"
         cx="78.944977"
         cy="123.98428"
         rx="13.233335"
         ry="10.730769" />
      <ellipse
         style="fill:#050505;fill-opacity:1;stroke-width:0.234454;stroke-linejoin:bevel"
         id="ellipse1840"
         cx="81.178482"
         cy="123.92308"
         rx="11.244596"
         ry="10.730769" />
      <ellipse
         style="fill:#f8ff25;fill-opacity:1;stroke-width:0.211655;stroke-linejoin:bevel"
         id="ellipse1842"
         cx="83.014244"
         cy="123.98428"
         rx="9.1640711"
         ry="10.730769" />
      <ellipse
         style="fill:#050505;fill-opacity:1;stroke-width:0.179123;stroke-linejoin:bevel"
         id="ellipse1844"
         cx="85.859665"
         cy="123.92308"
         rx="6.5634127"
         ry="10.730769" />
    </g>
    <g
       id="g4839"
       transform="matrix(0.91803668,0,0,-0.81407756,-7.327706,223.47534)">
      <ellipse
         style="fill:#f8ff25;fill-opacity:1;stroke-width:0.183264;stroke-linejoin:bevel"
         id="ellipse4835"
         cx="103.69713"
         cy="122.77692"
         rx="7.573081"
         ry="9.7352018" />
      <ellipse
         style="fill:#050505;fill-opacity:1;stroke-width:0.169785;stroke-linejoin:bevel"
         id="ellipse4833"
         cx="105.3187"
         cy="122.58856"
         rx="6.5634127"
         ry="9.6410179" />
    </g>
    <g
       id="g14903"
       transform="matrix(0.91803668,0,0,-0.81407756,-1.1071216,224.82034)">
      <ellipse
         style="fill:#f0ff00;fill-opacity:1;stroke-width:0.307943;stroke-linejoin:bevel"
         id="path9417"
         cx="103.8029"
         cy="122.27885"
         rx="6.7932696"
         ry="7.5288458" />
      <ellipse
         style="fill:#050505;fill-opacity:1;stroke-width:0.307943;stroke-linejoin:bevel"
         id="ellipse11237"
         cx="106.13943"
         cy="122.45192"
         rx="6.7932696"
         ry="7.5288458" />
    </g>
    <path
       id="path882"
       style="fill:#050505;fill-opacity:0.461538;stroke-width:0.207112;stroke-linejoin:bevel"
       d="m 95.443972,128.91169 c 0.641699,-2.80753 -17.260165,-1.40982 -25.535258,-3.64938 -8.193792,-2.21756 -11.409293,-1.07816 -12.051017,1.72938 -0.641738,2.80755 6.104463,7.94763 14.191257,7.52067 8.29121,-0.43781 22.753286,-2.79312 23.395018,-5.60067 z"
       sodipodi:nodetypes="sssss" />
    <path
       id="path18002"
       style="fill:#050505;stroke-width:0.159287;stroke-linejoin:bevel"
       d="m 81.695765,114.94078 c 0.607976,-0.81698 0.0638,-1.36234 -1.670359,-1.22975 -2.982258,0.75524 -9.498444,3.27326 -11.008532,3.99242 -0.356685,0.79058 0.259486,1.82685 1.799582,2.2774 1.751931,-0.34243 9.082423,-3.61895 10.879309,-5.04007 z"
       sodipodi:nodetypes="ccccc" />
    <g
       id="g887"
       transform="matrix(0.91800063,-0.00721441,-0.00813571,-0.81404559,5.3277548,223.72971)">
      <path
         id="rect15412"
         style="fill:#050505;stroke-width:0.238437;stroke-linejoin:bevel"
         d="m 71.550795,127.11776 c 1.656744,-0.10914 2.609229,0.87783 2.07625,2.72011 -1.922366,2.80092 -7.778193,8.31638 -9.393998,9.50007 -1.565756,-0.15279 -3.443139,-1.56207 -4.053932,-3.59406 0.936165,-1.71592 8.370467,-7.61145 11.37168,-8.62612 z"
         sodipodi:nodetypes="ccccc" />
      <path
         id="path18114"
         style="fill:#050505;stroke-width:0.195403;stroke-linejoin:bevel"
         d="m 54.178057,145.93056 c -1.428091,0.075 -2.30686,-0.69679 -1.946849,-2.12372 1.509947,-2.16291 6.275401,-6.40982 7.608942,-7.31914 1.363753,0.12781 3.066348,1.23282 3.706838,2.81377 -0.715951,1.32647 -6.826861,5.85913 -9.368931,6.62909 z"
         sodipodi:nodetypes="ccccc" />
      <path
         id="path18116"
         style="fill:#050505;stroke-width:0.080127;stroke-linejoin:bevel"
         d="m 47.742761,147.71992 c -0.45692,-0.15243 -0.423485,-0.57113 0.233285,-1.09199 1.284563,-0.6665 4.34659,-1.74542 5.096106,-1.93648 0.359611,0.2248 0.444949,0.88097 0.02884,1.59068 -0.724835,0.43556 -4.300073,1.4563 -5.358235,1.43779 z"
         sodipodi:nodetypes="ccccc" />
    </g>
    <g
       id="g18545"
       transform="matrix(0.91803668,0,0,-0.81407756,5.3046934,222.77561)">
      <g
         id="g18541"
         transform="translate(2.9423077,-12.115385)">
        <path
           id="path18535"
           style="fill:#050505;stroke-width:0.167231;stroke-linejoin:bevel"
           d="m 81.839819,151.40775 c -0.728592,0.76184 -1.59969,0.49853 -2.143846,-0.95394 -0.30669,-2.67065 0.05865,-8.79051 0.305151,-10.25322 0.798839,-0.549 2.28487,-0.38814 3.44621,0.71544 0.300959,1.53568 -0.639609,8.56584 -1.607515,10.49172 z"
           sodipodi:nodetypes="ccccc" />
        <path
           id="path18537"
           style="fill:#050505;stroke-width:0.118932;stroke-linejoin:bevel"
           d="m 82.56848,159.69211 c 0.556927,0.53055 1.04703,0.22053 1.160404,-1.00902 -0.213317,-2.18252 -1.351462,-7.06336 -1.720241,-8.21199 -0.567808,-0.35142 -1.447016,-0.0545 -1.987791,0.96406 0.04693,1.26905 1.670985,6.81715 2.547628,8.25695 z"
           sodipodi:nodetypes="ccccc" />
        <path
           id="path18539"
           style="fill:#050505;stroke-width:0.107589;stroke-linejoin:bevel"
           d="m 87.035628,144.09077 c 0.102154,0.62736 -0.424793,0.85756 -1.465919,0.43114 -1.61058,-1.06032 -4.833622,-3.91527 -5.534282,-4.66102 0.04626,-0.56109 0.78579,-1.08146 1.904287,-1.0552 0.980671,0.5601 4.455074,4.04708 5.095914,5.28508 z"
           sodipodi:nodetypes="ccccc" />
      </g>
      <path
         id="path18543"
         style="fill:#050505;stroke-width:0.0435123;stroke-linejoin:bevel"
         d="m 84.765478,149.96654 c 0.132811,0.16366 0.415499,0.0759 0.727924,-0.28983 0.371454,-0.65319 0.910112,-2.12029 0.992277,-2.46653 -0.17584,-0.11032 -0.627619,-0.0302 -1.08385,0.26846 -0.250051,0.37906 -0.716417,2.04991 -0.636351,2.4879 z"
         sodipodi:nodetypes="ccccc"
         inkscape:transform-center-x="-1.9038462"
         inkscape:transform-center-y="-1.125" />
    </g>
    <ellipse
       style="fill:#000000;fill-opacity:1;stroke-width:0.0848638;stroke-linejoin:bevel"
       id="ellipse8524"
       cx="-163.97545"
       cy="65.39196"
       rx="5.3368964"
       ry="2.9621809"
       transform="matrix(-0.86260242,-0.50588246,-0.70918654,0.70502088,0,0)" />
    <ellipse
       style="fill:#000000;fill-opacity:1;stroke-width:0.0603644;stroke-linejoin:bevel"
       id="ellipse1905"
       cx="-151.07483"
       cy="37.942753"
       rx="3.6309879"
       ry="2.2028928"
       transform="matrix(-0.76828357,-0.64010964,-0.57786397,0.8161331,0,0)" />
    <path
       id="ellipse4848"
       style="fill:#f0ff00;stroke:#000000;stroke-width:1.10406;stroke-linejoin:bevel;stroke-miterlimit:4;stroke-dasharray:none;stroke-opacity:1"
       d="m 96.61481,116.61676 c -2.181811,1.26162 -5.392705,7.48601 -3.048193,11.238 1.897046,3.03589 11.398443,6.93735 12.149213,3.76344 0.8262,-3.96974 -5.17733,-17.18997 -9.10102,-15.00144 z"
       sodipodi:nodetypes="cscc" />
    <ellipse
       style="fill:#ffffff;fill-opacity:1;stroke:#000000;stroke-width:0.991951;stroke-linejoin:bevel;stroke-miterlimit:4;stroke-dasharray:none;stroke-opacity:1"
       id="ellipse4850"
       cx="-148.81851"
       cy="22.97459"
       rx="4.4010715"
       ry="3.1624603"
       transform="matrix(-0.73806658,-0.67472789,-0.4902027,0.87160846,0,0)" />
    <use
       x="0"
       y="0"
       xlink:href="#path882"
       id="use84029"
       transform="matrix(1,0.11580029,0,1,-1.2115385,-10.156576)"
       width="100%"
       height="100%"
       inkscape:transform-center-x="17.048078"
       inkscape:transform-center-y="-2.0568767" />
    <ellipse
       style="fill:#000000;fill-opacity:1;stroke-width:0.0694624;stroke-linejoin:bevel"
       id="ellipse1903"
       cx="-147.99911"
       cy="28.94536"
       rx="3.8900862"
       ry="2.7226782"
       transform="matrix(-0.76583921,-0.64303212,-0.52221256,0.85281536,0,0)" />
    <g
       id="g18138"
       transform="matrix(-0.80027008,-0.03951002,-0.01544593,-0.76006401,164.77354,229.52491)"
       inkscape:transform-center-x="0.20950099"
       inkscape:transform-center-y="-5.645222">
      <path
         id="path18130"
         style="fill:#050505;stroke-width:0.0677414;stroke-linejoin:bevel"
         d="m 90.072785,143.47158 c -0.1172,0.4565 0.142525,0.64258 0.743364,0.36426 0.96932,-0.72424 2.98202,-2.71093 3.432004,-3.23452 0.03101,-0.41282 -0.31387,-0.81859 -0.916391,-0.83615 -0.581707,0.3783 -2.792103,2.82001 -3.258977,3.70641 z"
         sodipodi:nodetypes="ccccc" />
      <path
         id="path18132"
         style="fill:#050505;stroke-width:0.107589;stroke-linejoin:bevel"
         d="m 93.069103,140.07664 c 0.317408,-0.5507 0.871242,-0.39598 1.408429,0.59256 0.57775,1.83968 1.270522,6.08925 1.342046,7.11001 -0.390521,0.40553 -1.292501,0.34128 -2.142591,-0.38609 -0.405849,-1.0539 -0.893874,-5.95211 -0.607884,-7.31648 z"
         sodipodi:nodetypes="ccccc" />
      <path
         id="path18134"
         style="fill:#050505;stroke-width:0.0850969;stroke-linejoin:bevel"
         d="m 93.328073,153.7976 c -0.450687,0.46505 -0.848362,0.38387 -0.941918,-0.36581 0.169926,-1.42753 1.085755,-4.77445 1.383106,-5.58567 0.459721,-0.35453 1.17279,-0.37253 1.612492,0.14405 -0.0363,0.81204 -1.34508,4.6937 -2.053668,5.80739 z"
         sodipodi:nodetypes="ccccc" />
      <path
         id="path18136"
         style="fill:#050505;stroke-width:0.0364336;stroke-linejoin:bevel"
         d="m 94.025861,156.10509 c 0.190183,0.0194 0.281417,-0.18475 0.189069,-0.56177 -0.266784,-0.57121 -1.027428,-1.69233 -1.231484,-1.9323 -0.175323,0.0342 -0.364393,0.32662 -0.398775,0.7446 0.135986,0.35038 1.082585,1.54666 1.441186,1.74947 z"
         sodipodi:nodetypes="ccccc" />
    </g>
  </g>
</svg>
