<?xml version="1.0" encoding="UTF-8" standalone="no"?>
<!-- Created with Inkscape (http://www.inkscape.org/) -->

<svg
   width="243.69676"
   height="257.90286"
   viewBox="0 0 64.478102 68.236801"
   version="1.1"
   id="svg5"
   inkscape:version="1.1.1 (3bf5ae0d25, 2021-09-20)"
   sodipodi:docname="bee-friend-bearded.svg"
   xmlns:inkscape="http://www.inkscape.org/namespaces/inkscape"
   xmlns:sodipodi="http://sodipodi.sourceforge.net/DTD/sodipodi-0.dtd"
   xmlns:xlink="http://www.w3.org/1999/xlink"
   xmlns="http://www.w3.org/2000/svg"
   xmlns:svg="http://www.w3.org/2000/svg">
  <sodipodi:namedview
     id="namedview7"
     pagecolor="#505050"
     bordercolor="#ffffff"
     borderopacity="1"
     inkscape:pageshadow="0"
     inkscape:pageopacity="0"
     inkscape:pagecheckerboard="1"
     inkscape:document-units="mm"
     showgrid="false"
     inkscape:snap-global="false"
     inkscape:zoom="1.5287038"
     inkscape:cx="89.291333"
     inkscape:cy="190.03027"
     inkscape:window-width="1920"
     inkscape:window-height="1017"
     inkscape:window-x="1272"
     inkscape:window-y="-8"
     inkscape:window-maximized="1"
     inkscape:current-layer="layer1"
     fit-margin-top="0"
     fit-margin-left="0"
     fit-margin-right="0"
     fit-margin-bottom="0"
     units="px" />
  <defs
     id="defs2" />
  <g
     inkscape:label="Layer 1"
     inkscape:groupmode="layer"
     id="layer1"
     transform="translate(-44.802717,-77.282672)">
    <g
       id="g40744">
      <path
         id="path18130"
         style="fill:#050505;stroke-width:0.0528056;stroke-linejoin:bevel"
         d="m 67.552888,110.31639 c -0.11535,0.33379 -0.374757,0.34495 -0.670063,-0.0736 -0.358061,-0.84771 -0.893903,-2.91064 -0.979546,-3.42163 0.156098,-0.2714 0.568792,-0.38572 0.992536,-0.15174 0.239103,0.47341 0.715825,2.90187 0.657121,3.6472 z"
         sodipodi:nodetypes="ccccc"
         inkscape:transform-center-x="0.38550585"
         inkscape:transform-center-y="-1.2615546" />
      <path
         id="path18132"
         style="fill:#050505;stroke-width:0.0838674;stroke-linejoin:bevel"
         d="m 67.16437,107.29651 c 0.34312,-0.3277 0.110336,-0.73245 -0.740389,-0.9995 -1.493707,-0.17096 -4.807978,-0.0699 -5.58395,0.0277 -0.219422,0.36246 0.01978,1.04976 0.742226,1.59767 0.871589,0.15575 4.625868,-0.2006 5.582113,-0.62589 z"
         sodipodi:nodetypes="ccccc"
         inkscape:transform-center-x="3.0769807"
         inkscape:transform-center-y="-2.7319756" />
      <path
         id="path18134"
         style="fill:#050505;stroke-width:0.0663345;stroke-linejoin:bevel"
         d="m 56.882822,109.15101 c -0.251022,0.41786 -0.106165,0.71297 0.47244,0.673 1.027936,-0.34505 3.328232,-1.55384 3.869789,-1.90507 0.166731,-0.40829 0.0289,-0.96195 -0.449384,-1.22434 -0.59754,0.14964 -3.213049,1.74213 -3.892818,2.45639 z"
         sodipodi:nodetypes="ccccc"
         inkscape:transform-center-x="8.087388"
         inkscape:transform-center-y="-1.5530644" />
      <path
         id="path18136"
         style="fill:#050505;stroke-width:0.0284006;stroke-linejoin:bevel"
         d="m 55.014978,108.95738 c -0.05482,-0.14401 0.07801,-0.2451 0.378604,-0.23021 0.482328,0.12058 1.479267,0.54044 1.701404,0.66218 0.01169,0.14058 -0.166148,0.33045 -0.470388,0.41961 -0.289952,-0.0528 -1.382394,-0.60487 -1.609617,-0.85158 z"
         sodipodi:nodetypes="ccccc"
         inkscape:transform-center-x="11.066879"
         inkscape:transform-center-y="-0.54684219" />
    </g>
    <g
       id="g4846"
       transform="matrix(-0.03325654,-1.0298465,-1.0866506,0.02498012,216.75274,201.10437)">
      <ellipse
         style="fill:#050505;fill-opacity:1;stroke-width:0.276598;stroke-linejoin:bevel"
         id="path846"
         cx="76.772659"
         cy="123.92308"
         rx="15.650415"
         ry="10.730769" />
      <ellipse
         style="fill:#f8ff25;fill-opacity:1;stroke-width:0.254343;stroke-linejoin:bevel"
         id="ellipse1398"
         cx="78.944977"
         cy="123.98428"
         rx="13.233335"
         ry="10.730769" />
      <ellipse
         style="fill:#050505;fill-opacity:1;stroke-width:0.234454;stroke-linejoin:bevel"
         id="ellipse1840"
         cx="81.178482"
         cy="123.92308"
         rx="11.244596"
         ry="10.730769" />
      <ellipse
         style="fill:#f8ff25;fill-opacity:1;stroke-width:0.211655;stroke-linejoin:bevel"
         id="ellipse1842"
         cx="83.014244"
         cy="123.98428"
         rx="9.1640711"
         ry="10.730769" />
      <ellipse
         style="fill:#050505;fill-opacity:1;stroke-width:0.179123;stroke-linejoin:bevel"
         id="ellipse1844"
         cx="85.859665"
         cy="123.92308"
         rx="6.5634127"
         ry="10.730769" />
    </g>
    <g
       id="g4839"
       transform="matrix(-0.17050109,-0.95143644,-0.88694029,0.1170445,205.79478,193.0812)">
      <ellipse
         style="fill:#f8ff25;fill-opacity:1;stroke-width:0.183264;stroke-linejoin:bevel"
         id="ellipse4835"
         cx="103.69713"
         cy="122.77692"
         rx="7.573081"
         ry="9.7352018" />
      <ellipse
         style="fill:#050505;fill-opacity:1;stroke-width:0.169785;stroke-linejoin:bevel"
         id="ellipse4833"
         cx="105.3187"
         cy="122.58856"
         rx="6.5634127"
         ry="9.6410179" />
    </g>
    <g
       id="g85882"
       transform="matrix(-0.08407786,-0.61485991,-0.75719032,0.06827359,161.01615,134.47451)">
      <path
         id="path17998"
         style="fill:#050505;stroke-width:0.168509;stroke-linejoin:bevel"
         d="m 42.560233,127.44198 c 0.649251,0.82908 1.600929,0.70637 2.387734,-0.59215 0.72,-2.48879 1.251239,-8.34779 1.211501,-9.77139 -0.754704,-0.63733 -2.335021,-0.70162 -3.716098,0.17585 -0.544518,1.41292 -0.609247,8.21942 0.116863,10.18769 z"
         sodipodi:nodetypes="ccccc"
         inkscape:transform-center-x="-5.9216015"
         inkscape:transform-center-y="6.3596616" />
      <path
         id="path18103"
         style="fill:#050505;stroke-width:0.119841;stroke-linejoin:bevel"
         d="m 40.560008,135.19473 c -0.662508,0.42205 -1.129501,0.0564 -1.064633,-1.12654 0.54932,-2.03935 2.470167,-6.50356 3.027911,-7.53941 0.647148,-0.25054 1.523621,0.15943 1.937873,1.20463 -0.238647,1.19706 -2.768027,6.22336 -3.901151,7.46132 z"
         sodipodi:nodetypes="ccccc"
         inkscape:transform-center-x="-3.8035261"
         inkscape:transform-center-y="14.988236" />
      <path
         id="path18107"
         style="fill:#050505;stroke-width:0.108411;stroke-linejoin:bevel"
         d="m 36.962387,115.30553 c -0.551575,0.26976 -0.392826,0.844 0.603694,1.47878 1.852133,0.75483 6.126687,1.84961 7.152897,2.01666 0.405232,-0.35713 0.335363,-1.27494 -0.400506,-2.20178 -1.061457,-0.5081 -5.986655,-1.45612 -7.356085,-1.29366 z"
         sodipodi:nodetypes="ccccc"
         inkscape:transform-center-x="-2.6349061"
         inkscape:transform-center-y="1.1216943" />
      <path
         id="path18118"
         style="fill:#050505;stroke-width:0.0438447;stroke-linejoin:bevel"
         d="m 40.983711,137.57063 c -0.163533,0.13588 -0.446482,0.0114 -0.719133,-0.38109 -0.291454,-0.67388 -0.63657,-2.14423 -0.670899,-2.48469 0.200618,-0.079 0.661804,0.0629 1.095028,0.41283 0.205234,0.39612 0.444214,2.04922 0.294953,2.45303 z"
         sodipodi:nodetypes="ccccc"
         inkscape:transform-center-x="-2.1402528"
         inkscape:transform-center-y="20.23132" />
    </g>
    <g
       id="g14903"
       transform="matrix(0.09417407,-0.66916634,-1.0194466,-0.06024054,193.90207,182.09456)">
      <ellipse
         style="fill:#f0ff00;fill-opacity:1;stroke-width:0.307943;stroke-linejoin:bevel"
         id="path9417"
         cx="103.8029"
         cy="122.27885"
         rx="6.7932696"
         ry="7.5288458" />
      <ellipse
         style="fill:#050505;fill-opacity:1;stroke-width:0.307943;stroke-linejoin:bevel"
         id="ellipse11237"
         cx="106.13943"
         cy="122.45192"
         rx="6.7932696"
         ry="7.5288458" />
    </g>
    <g
       id="g18545"
       transform="matrix(-0.78310977,0.47909335,0.42484048,0.69442987,104.30325,-18.286594)">
      <g
         id="g18541"
         transform="translate(2.9423077,-12.115385)">
        <path
           id="path18535"
           style="fill:#050505;stroke-width:0.167231;stroke-linejoin:bevel"
           d="m 81.839819,151.40775 c -0.728592,0.76184 -1.59969,0.49853 -2.143846,-0.95394 -0.30669,-2.67065 0.05865,-8.79051 0.305151,-10.25322 0.798839,-0.549 2.28487,-0.38814 3.44621,0.71544 0.300959,1.53568 -0.639609,8.56584 -1.607515,10.49172 z"
           sodipodi:nodetypes="ccccc" />
        <path
           id="path18537"
           style="fill:#050505;stroke-width:0.118932;stroke-linejoin:bevel"
           d="m 82.56848,159.69211 c 0.556927,0.53055 1.04703,0.22053 1.160404,-1.00902 -0.213317,-2.18252 -1.351462,-7.06336 -1.720241,-8.21199 -0.567808,-0.35142 -1.447016,-0.0545 -1.987791,0.96406 0.04693,1.26905 1.670985,6.81715 2.547628,8.25695 z"
           sodipodi:nodetypes="ccccc" />
        <path
           id="path18539"
           style="fill:#050505;stroke-width:0.107589;stroke-linejoin:bevel"
           d="m 87.035628,144.09077 c 0.102154,0.62736 -0.424793,0.85756 -1.465919,0.43114 -1.61058,-1.06032 -4.833622,-3.91527 -5.534282,-4.66102 0.04626,-0.56109 0.78579,-1.08146 1.904287,-1.0552 0.980671,0.5601 4.455074,4.04708 5.095914,5.28508 z"
           sodipodi:nodetypes="ccccc" />
      </g>
      <path
         id="path18543"
         style="fill:#050505;stroke-width:0.0435123;stroke-linejoin:bevel"
         d="m 84.765478,149.96654 c 0.132811,0.16366 0.415499,0.0759 0.727924,-0.28983 0.371454,-0.65319 0.910112,-2.12029 0.992277,-2.46653 -0.17584,-0.11032 -0.627619,-0.0302 -1.08385,0.26846 -0.250051,0.37906 -0.716417,2.04991 -0.636351,2.4879 z"
         sodipodi:nodetypes="ccccc"
         inkscape:transform-center-x="-1.9038462"
         inkscape:transform-center-y="-1.125" />
    </g>
    <path
       id="ellipse4848"
       style="fill:#f0ff00;stroke:#000000;stroke-width:1.057;stroke-linejoin:bevel;stroke-miterlimit:4;stroke-dasharray:none;stroke-opacity:1"
       d="m 87.229919,102.3908 c -0.08186,-3.11273 -4.347601,-11.409687 -9.107259,-12.410489 -3.851238,-0.809786 -12.412001,4.751772 -9.783567,8.153898 3.345192,4.149721 18.96178,9.786071 18.890826,4.256591 z"
       sodipodi:nodetypes="cscc" />
    <path
       style="fill:#fdfdfd;fill-opacity:1;stroke:#999999;stroke-width:1.5387;stroke-linecap:butt;stroke-linejoin:miter;stroke-miterlimit:4;stroke-dasharray:none;stroke-opacity:1"
       d="m 64.520137,114.35206 c -2.201615,-1.99558 -3.01034,-2.90089 -4.145896,-7.04318 -0.969906,-3.53802 3.049847,-11.554273 5.37348,-11.532689 1.227518,0.0114 1.832645,5.055049 4.261235,7.318449 6.003489,5.59512 9.648478,-1.65825 13.530982,0.92893 5.387193,6.13218 -14.624309,13.5202 -19.019801,10.32849 z"
       id="path37718"
       sodipodi:nodetypes="cssscc" />
    <path
       style="fill:#fdfdfd;fill-opacity:1;stroke:#999999;stroke-width:1.5387;stroke-linecap:butt;stroke-linejoin:miter;stroke-miterlimit:4;stroke-dasharray:none;stroke-opacity:1"
       d="m 64.668786,104.2697 c -1.104261,-2.25274 -1.445837,-3.19697 -0.85793,-6.468279 0.502144,-2.794099 6.853639,-6.581789 8.794186,-5.616738 1.025143,0.509813 -0.342721,4.174936 0.852301,6.701983 2.954098,6.246874 8.707671,2.822824 11.001538,6.163964 2.237586,6.35871 -17.290818,3.17967 -19.790095,-0.78093 z"
       id="path96688"
       sodipodi:nodetypes="cssscc" />
    <path
       style="fill:#fdfdfd;fill-opacity:1;stroke:#999999;stroke-width:1.5387;stroke-linecap:butt;stroke-linejoin:miter;stroke-miterlimit:4;stroke-dasharray:none;stroke-opacity:1"
       d="m 90.603841,96.76931 c 0.171971,-3.045434 0.149346,-4.259272 -1.312333,-7.549526 -1.24845,-2.810278 -7.369422,-3.690205 -8.589122,-1.627423 -0.644336,1.089719 1.547134,4.409682 1.388351,7.803372 -0.392516,8.389207 -5.935096,7.599897 -6.702524,12.455667 0.201322,8.14192 14.477629,-5.43965 15.215628,-11.08209 z"
       id="path40655"
       sodipodi:nodetypes="cssscc" />
    <ellipse
       style="fill:#ffffff;fill-opacity:1;stroke:#000000;stroke-width:1.12523;stroke-linejoin:bevel;stroke-miterlimit:4;stroke-dasharray:none;stroke-opacity:1"
       id="ellipse8628"
       cx="-3.3217421"
       cy="121.11563"
       rx="3.9728444"
       ry="4.2513752"
       transform="matrix(-0.83555771,0.54940269,0.6355361,0.77207116,0,0)" />
    <ellipse
       style="fill:#ffffff;fill-opacity:1;stroke:#000000;stroke-width:1.19706;stroke-linejoin:bevel;stroke-miterlimit:4;stroke-dasharray:none;stroke-opacity:1"
       id="ellipse18455"
       cx="-5.2401195"
       cy="126.30967"
       rx="4.1639023"
       ry="4.5221262"
       transform="matrix(-0.8226094,0.56860688,0.61651428,0.78734372,0,0)" />
    <ellipse
       style="fill:#000000;fill-opacity:1;stroke:none;stroke-width:2.61096;stroke-linecap:round;stroke-linejoin:round;stroke-opacity:1;paint-order:stroke fill markers"
       id="path66792"
       cx="80.927742"
       cy="95.829559"
       rx="1.4043393"
       ry="1.4476086" />
    <use
       x="0"
       y="0"
       xlink:href="#path66792"
       id="use66962"
       transform="matrix(0.87021104,0,0,0.83755805,7.6751558,10.702002)"
       width="100%"
       height="100%" />
    <path
       id="path18105"
       style="fill:#050505;stroke-width:0.0585622;stroke-linejoin:bevel"
       d="m 87.100108,106.3953 c -0.21375,0.32649 -0.05312,0.5719 0.503803,0.56621 0.970367,-0.23183 3.111457,-1.10384 3.61091,-1.36304 0.132884,-0.32264 -0.03897,-0.77688 -0.519877,-1.01118 -0.567616,0.0936 -2.986941,1.26145 -3.594828,1.808 z"
       sodipodi:nodetypes="ccccc"
       inkscape:transform-center-x="1.1896981"
       inkscape:transform-center-y="0.12532026" />
    <path
       id="path18000"
       style="fill:#050505;stroke-width:0.0930102;stroke-linejoin:bevel"
       d="m 89.688129,105.45001 c -0.300948,-0.42167 0.05398,-0.80373 1.059645,-0.90848 1.694133,0.13352 5.337634,0.94155 6.172919,1.20949 0.15569,0.43256 -0.274255,1.11431 -1.205473,1.54543 -1.002003,-0.0182 -5.071082,-1.19125 -6.027091,-1.84644 z"
       sodipodi:nodetypes="ccccc" />
    <path
       id="path18120"
       style="fill:#050505;stroke-width:0.0735659;stroke-linejoin:bevel"
       d="m 100.62058,109.59854 c 0.17735,0.49827 -0.0539,0.78209 -0.684618,0.61723 -1.054634,-0.58486 -3.309713,-2.35887 -3.824601,-2.84753 -0.08636,-0.47025 0.199268,-1.03103 0.791649,-1.20952 0.625301,0.28571 3.13697,2.53513 3.71755,3.4398 z"
       sodipodi:nodetypes="ccccc" />
    <path
       id="path18122"
       style="fill:#050505;stroke-width:0.0314967;stroke-linejoin:bevel"
       d="m 102.73421,109.78694 c 0.0953,-0.14189 -0.0274,-0.27763 -0.36364,-0.32528 -0.56277,0.0266 -1.76698,0.26323 -2.04208,0.34599 -0.0467,0.14732 0.10443,0.38721 0.41969,0.54649 0.33357,0.005 1.67526,-0.35235 1.98603,-0.5672 z"
       sodipodi:nodetypes="ccccc" />
    <path
       id="path18002"
       style="fill:#050505;stroke-width:0.164293;stroke-linejoin:bevel"
       d="m 71.049005,135.48126 c 0.932404,0.30265 1.358943,-0.44447 0.870418,-2.12759 -1.360923,-2.69775 -5.191812,-8.26858 -6.213568,-9.50898 -0.854511,-0.0614 -1.751143,0.94078 -1.878691,2.64752 0.699471,1.62258 5.447533,7.72399 7.221874,8.98903 z"
       sodipodi:nodetypes="ccccc"
       inkscape:transform-center-x="-2.9084199"
       inkscape:transform-center-y="3.9697209" />
    <g
       id="g887"
       transform="matrix(0.03130754,-0.91094678,-0.87595404,0.09187941,175.83296,178.72274)">
      <path
         id="rect15412"
         style="fill:#050505;stroke-width:0.238437;stroke-linejoin:bevel"
         d="m 71.550795,127.11776 c 1.656744,-0.10914 2.609229,0.87783 2.07625,2.72011 -1.922366,2.80092 -7.778193,8.31638 -9.393998,9.50007 -1.565756,-0.15279 -3.443139,-1.56207 -4.053932,-3.59406 0.936165,-1.71592 8.370467,-7.61145 11.37168,-8.62612 z"
         sodipodi:nodetypes="ccccc" />
      <path
         id="path18114"
         style="fill:#050505;stroke-width:0.195403;stroke-linejoin:bevel"
         d="m 54.178057,145.93056 c -1.428091,0.075 -2.30686,-0.69679 -1.946849,-2.12372 1.509947,-2.16291 6.275401,-6.40982 7.608942,-7.31914 1.363753,0.12781 3.066348,1.23282 3.706838,2.81377 -0.715951,1.32647 -6.826861,5.85913 -9.368931,6.62909 z"
         sodipodi:nodetypes="ccccc" />
      <path
         id="path18116"
         style="fill:#050505;stroke-width:0.080127;stroke-linejoin:bevel"
         d="m 52.414138,151.25255 c -0.314363,0.40263 -0.636994,0.19107 -0.780115,-0.70114 0.0033,-1.59583 0.421094,-5.18386 0.582087,-6.03118 0.331707,-0.27248 0.895138,-0.0818 1.29113,0.64438 0.04596,0.92567 -0.634042,5.0138 -1.093104,6.08794 z"
         sodipodi:nodetypes="ccccc" />
    </g>
    <path
       id="path113394"
       style="fill:#050505;stroke-width:0.208178;stroke-linejoin:bevel"
       d="m 86.070711,137.13557 c -1.361916,0.46359 -1.93853,-0.31358 -1.145069,-2.25947 2.106066,-3.19675 7.928433,-9.93535 9.468487,-11.4585 1.236827,-0.18364 2.478735,0.81513 2.573407,2.70455 -1.094822,1.90667 -8.269065,9.36142 -10.896871,11.01339 z"
       sodipodi:nodetypes="ccccc"
       inkscape:transform-center-x="4.1421456"
       inkscape:transform-center-y="4.7098048" />
    <g
       id="g113402"
       transform="matrix(0.05334749,-0.86814584,0.7251314,0.09004315,-2.6696084,175.65336)">
      <path
         id="path113396"
         style="fill:#050505;stroke-width:0.238437;stroke-linejoin:bevel"
         d="m 71.550795,127.11776 c 1.656744,-0.10914 2.609229,0.87783 2.07625,2.72011 -1.922366,2.80092 -7.778193,8.31638 -9.393998,9.50007 -1.565756,-0.15279 -3.443139,-1.56207 -4.053932,-3.59406 0.936165,-1.71592 8.370467,-7.61145 11.37168,-8.62612 z"
         sodipodi:nodetypes="ccccc" />
      <path
         id="path113398"
         style="fill:#050505;stroke-width:0.195403;stroke-linejoin:bevel"
         d="m 54.178057,145.93056 c -1.428091,0.075 -2.30686,-0.69679 -1.946849,-2.12372 1.509947,-2.16291 6.275401,-6.40982 7.608942,-7.31914 1.363753,0.12781 3.066348,1.23282 3.706838,2.81377 -0.715951,1.32647 -6.826861,5.85913 -9.368931,6.62909 z"
         sodipodi:nodetypes="ccccc" />
      <path
         id="path113400"
         style="fill:#050505;stroke-width:0.080127;stroke-linejoin:bevel"
         d="m 51.945343,150.40743 c -0.332099,0.38409 -0.644835,0.15437 -0.747665,-0.74478 0.07506,-1.59342 0.653721,-5.15254 0.85263,-5.98948 0.34357,-0.25312 0.897759,-0.0305 1.260629,0.71732 0.0043,0.92701 -0.85877,4.97055 -1.365596,6.01694 z"
         sodipodi:nodetypes="ccccc" />
    </g>
    <path
       style="fill:none;stroke:#646464;stroke-width:1.27594;stroke-linecap:round;stroke-linejoin:round;stroke-miterlimit:4;stroke-dasharray:none;stroke-opacity:1"
       d="M 70.323028,99.908032 C 69.474584,98.627489 69.568621,97.261349 69.568621,97.261349"
       id="path101755"
       sodipodi:nodetypes="cc" />
    <path
       style="fill:none;stroke:#4d1c01;stroke-width:1.576;stroke-linecap:round;stroke-linejoin:round;stroke-miterlimit:4;stroke-dasharray:none;stroke-opacity:1"
       d="m 100.6544,142.87419 c -0.24399,-18.71761 -2.439933,-41.48227 4.51388,-32.27523"
       id="path120607"
       sodipodi:nodetypes="cc" />
    <g
       id="g40661"
       transform="translate(0.4283435,-0.18357579)">
      <use
         x="0"
         y="0"
         xlink:href="#rect76516"
         id="use78163"
         transform="rotate(-19.187213,79.400725,100.21453)"
         width="100%"
         height="100%" />
      <rect
         style="fill:#050505;fill-opacity:1;stroke:none;stroke-width:2.23843;stroke-linecap:round;stroke-linejoin:round;stroke-miterlimit:4;stroke-dasharray:none;stroke-opacity:1;paint-order:stroke fill markers"
         id="rect76516"
         width="1.2544346"
         height="6.394557"
         x="-97.345688"
         y="-88.419441"
         transform="matrix(-0.03060041,-0.9995317,-0.9995317,0.03060041,0,0)" />
      <path
         id="path117403-5"
         style="fill:#050505;stroke-width:1.04054;stroke-linecap:round;stroke-linejoin:round"
         d="m 88.863905,90.970295 -1.098449,-0.457591 c 0,0 0.02572,-10.195143 1.507219,-12.725384 0.340569,-0.581664 0.921208,-0.339763 1.098429,0.457582 0.770971,3.468571 -1.507199,12.725393 -1.507199,12.725393 z"
         sodipodi:nodetypes="ccaac"
         inkscape:transform-center-x="-0.72608053"
         inkscape:transform-center-y="-5.8070372" />
      <path
         id="path22857-2"
         style="fill:#050505;stroke-width:1.04054;stroke-linecap:round;stroke-linejoin:round"
         d="M 91.340914,94.606795 90.56112,93.707934 c 0,0 4.562096,-9.117498 7.015184,-10.723529 0.563854,-0.36931 0.976142,0.105908 0.779762,0.898822 -0.853916,3.449089 -7.01516,10.723574 -7.01516,10.723574 z"
         sodipodi:nodetypes="ccaac"
         inkscape:transform-center-x="-3.1617871"
         inkscape:transform-center-y="-5.0069479" />
    </g>
  </g>
</svg>
