<?xml version="1.0" encoding="UTF-8" standalone="no"?>
<!-- Created with Inkscape (http://www.inkscape.org/) -->

<svg
   width="149.32254"
   height="218.63376"
   viewBox="0 0 39.508257 57.84685"
   version="1.1"
   id="svg5"
   inkscape:version="1.1.1 (3bf5ae0d25, 2021-09-20)"
   sodipodi:docname="bee-friend-girl.svg"
   xmlns:inkscape="http://www.inkscape.org/namespaces/inkscape"
   xmlns:sodipodi="http://sodipodi.sourceforge.net/DTD/sodipodi-0.dtd"
   xmlns:xlink="http://www.w3.org/1999/xlink"
   xmlns="http://www.w3.org/2000/svg"
   xmlns:svg="http://www.w3.org/2000/svg">
  <sodipodi:namedview
     id="namedview7"
     pagecolor="#505050"
     bordercolor="#ffffff"
     borderopacity="1"
     inkscape:pageshadow="0"
     inkscape:pageopacity="0"
     inkscape:pagecheckerboard="1"
     inkscape:document-units="mm"
     showgrid="false"
     inkscape:snap-global="false"
     inkscape:zoom="2.1619135"
     inkscape:cx="-73.777235"
     inkscape:cy="98.755107"
     inkscape:window-width="1920"
     inkscape:window-height="1017"
     inkscape:window-x="1272"
     inkscape:window-y="-8"
     inkscape:window-maximized="1"
     inkscape:current-layer="layer1"
     fit-margin-top="0"
     fit-margin-left="0"
     fit-margin-right="0"
     fit-margin-bottom="0"
     units="px" />
  <defs
     id="defs2" />
  <g
     inkscape:label="Layer 1"
     inkscape:groupmode="layer"
     id="layer1"
     transform="translate(-51.266871,-76.428004)">
    <use
       x="0"
       y="0"
       xlink:href="#path15388"
       id="use18582"
       transform="matrix(0.99607546,0.09057198,-0.08649128,0.99607546,5.4770062,-5.5683421)"
       width="100%"
       height="100%"
       inkscape:transform-center-x="-3.2512056"
       inkscape:transform-center-y="12.414482" />
    <path
       id="path15388"
       style="fill:#050505;fill-opacity:0.461538;stroke-width:0.178381;stroke-linejoin:bevel"
       d="m 73.653126,94.243854 c -2.26915,0.666143 6.651863,14.184386 8.735578,21.637406 2.063251,7.3798 4.293613,9.43718 6.562766,8.77103 2.269146,-0.66615 2.913531,-8.12523 -0.9719,-14.31717 C 83.995956,103.98673 75.922277,93.577704 73.653126,94.243854 Z"
       sodipodi:nodetypes="sssss" />
    <path
       id="path18130"
       style="fill:#050505;stroke-width:0.0426361;stroke-linejoin:bevel"
       d="m 67.500141,102.67768 c -0.04157,0.28498 -0.243411,0.33103 -0.536383,0.0365 -0.405079,-0.63075 -1.12768,-2.21365 -1.269736,-2.61246 0.08267,-0.240622 0.389637,-0.391552 0.756306,-0.263882 0.256921,0.346652 0.986711,2.232032 1.049882,2.839982 z"
       sodipodi:nodetypes="ccccc"
       inkscape:transform-center-x="0.48681552"
       inkscape:transform-center-y="-0.98324719" />
    <path
       id="path18132"
       style="fill:#050505;stroke-width:0.0677158;stroke-linejoin:bevel"
       d="m 66.752876,100.30395 c 0.221121,-0.312639 -0.02078,-0.604964 -0.727219,-0.698227 -1.196709,0.07591 -3.781599,0.630767 -4.375967,0.820157 -0.119001,0.32292 0.16934,0.84161 0.816311,1.17913 0.706494,7.5e-4 3.599115,-0.82234 4.286871,-1.30108 z"
       sodipodi:nodetypes="ccccc"
       inkscape:transform-center-x="2.8561733"
       inkscape:transform-center-y="-1.730738" />
    <path
       id="path18134"
       style="fill:#050505;stroke-width:0.0535595;stroke-linejoin:bevel"
       d="m 58.959822,103.26483 c -0.135669,0.37201 0.02119,0.5887 0.469197,0.47387 0.755747,-0.42444 2.382961,-1.72549 2.756288,-2.08541 0.07095,-0.35226 -0.118291,-0.77794 -0.531902,-0.92067 -0.44678,0.20575 -2.265021,1.8605 -2.693566,2.53219 z"
       sodipodi:nodetypes="ccccc"
       inkscape:transform-center-x="6.52767"
       inkscape:transform-center-y="-0.085037029" />
    <path
       id="path18136"
       style="fill:#050505;stroke-width:0.0229311;stroke-linejoin:bevel"
       d="m 57.46632,103.37597 c -0.0641,-0.10801 0.02528,-0.20832 0.263241,-0.23929 0.396007,0.0281 1.239524,0.22338 1.431606,0.28956 0.02975,0.11143 -0.0819,0.28956 -0.307482,0.40476 -0.23518,-0.001 -1.172978,-0.28905 -1.387362,-0.45503 z"
       sodipodi:nodetypes="ccccc"
       inkscape:transform-center-x="8.7778865"
       inkscape:transform-center-y="1.1477353" />
    <use
       x="0"
       y="0"
       xlink:href="#rect76516"
       id="use78163"
       transform="matrix(0.94152831,-0.336513,0.32100757,0.94737117,-26.700172,29.137389)"
       width="100%"
       height="100%" />
    <rect
       style="fill:#050505;fill-opacity:1;stroke:none;stroke-width:1.80734;stroke-linecap:round;stroke-linejoin:round;stroke-miterlimit:4;stroke-dasharray:none;stroke-opacity:1;paint-order:stroke fill markers"
       id="rect76516"
       width="1.0256717"
       height="5.0985255"
       x="-104.79133"
       y="-59.575336"
       transform="matrix(-0.20848861,-0.97802479,-0.97770213,0.20999653,0,0)" />
    <path
       id="path117403-5"
       style="fill:#050505;stroke-width:0.840148;stroke-linecap:round;stroke-linejoin:round"
       d="m 77.608217,87.418784 -0.92867,-0.211141 c 0,0 -1.473755,-8.204832 -0.682443,-10.451889 0.181907,-0.516564 0.672805,-0.40494 0.928654,0.211137 1.113009,2.68002 0.682459,10.451893 0.682459,10.451893 z"
       sodipodi:nodetypes="ccaac"
       inkscape:transform-center-x="0.39612161"
       inkscape:transform-center-y="-4.7983907" />
    <path
       id="path22857-2"
       style="fill:#050505;stroke-width:0.840148;stroke-linecap:round;stroke-linejoin:round"
       d="m 80.084042,89.990119 -0.743381,-0.611638 c 0,0 2.242467,-7.986141 3.931321,-9.628574 0.388167,-0.377646 0.7812,-0.05428 0.743348,0.611612 -0.1644,2.896521 -3.931294,9.628607 -3.931294,9.628607 z"
       sodipodi:nodetypes="ccaac"
       inkscape:transform-center-x="-1.7375248"
       inkscape:transform-center-y="-4.504931" />
    <ellipse
       style="fill:#050505;fill-opacity:1;stroke-width:0.214726;stroke-linejoin:bevel"
       id="path846"
       cx="-127.99723"
       cy="-50.997776"
       rx="13.183034"
       ry="7.6773977"
       transform="matrix(-0.20471476,-0.97882167,-0.97829326,0.20722523,0,0)" />
    <ellipse
       style="fill:#f8ff25;fill-opacity:1;stroke-width:0.196826;stroke-linejoin:bevel"
       id="ellipse1398"
       cx="-126.77583"
       cy="-50.923748"
       rx="11.146973"
       ry="7.6289811"
       transform="matrix(-0.20455428,-0.97885522,-0.97825569,0.20740254,0,0)" />
    <ellipse
       style="fill:#050505;fill-opacity:1;stroke-width:0.185764;stroke-linejoin:bevel"
       id="ellipse1840"
       cx="-125.25383"
       cy="-50.893742"
       rx="9.4720907"
       ry="7.997149"
       transform="matrix(-0.20577437,-0.97859946,-0.97852925,0.20610798,0,0)" />
    <ellipse
       style="fill:#f8ff25;fill-opacity:1;stroke-width:0.166823;stroke-linejoin:bevel"
       id="ellipse1842"
       cx="-123.71984"
       cy="-50.800644"
       rx="7.7194638"
       ry="7.9139314"
       transform="matrix(-0.20549864,-0.9786574,-0.97846979,0.20639009,0,0)" />
    <ellipse
       style="fill:#050505;fill-opacity:1;stroke-width:0.137548;stroke-linejoin:bevel"
       id="ellipse1844"
       cx="-122.18939"
       cy="-50.655136"
       rx="5.2107558"
       ry="7.9701252"
       transform="matrix(-0.20729758,-0.97827793,-0.97883541,0.20464906,0,0)" />
    <g
       id="g4839"
       transform="matrix(-0.31948818,-0.84074653,-0.81799014,0.25959311,207.75351,160.10879)">
      <ellipse
         style="fill:#f8ff25;fill-opacity:1;stroke-width:0.183264;stroke-linejoin:bevel"
         id="ellipse4835"
         cx="103.69713"
         cy="122.77692"
         rx="7.573081"
         ry="9.7352018" />
      <ellipse
         style="fill:#050505;fill-opacity:1;stroke-width:0.169785;stroke-linejoin:bevel"
         id="ellipse4833"
         cx="105.3187"
         cy="122.58856"
         rx="6.5634127"
         ry="9.6410179" />
    </g>
    <g
       id="g85882"
       transform="matrix(-0.15604801,-0.4825908,-0.58393228,0.1631127,140.79276,109.51063)">
      <path
         id="path17998"
         style="fill:#050505;stroke-width:0.168509;stroke-linejoin:bevel"
         d="m 42.560233,127.44198 c 0.649251,0.82908 1.600929,0.70637 2.387734,-0.59215 0.72,-2.48879 1.251239,-8.34779 1.211501,-9.77139 -0.754704,-0.63733 -2.335021,-0.70162 -3.716098,0.17585 -0.544518,1.41292 -0.609247,8.21942 0.116863,10.18769 z"
         sodipodi:nodetypes="ccccc"
         inkscape:transform-center-x="-5.9216015"
         inkscape:transform-center-y="6.3596616" />
      <path
         id="path18103"
         style="fill:#050505;stroke-width:0.119841;stroke-linejoin:bevel"
         d="m 40.560008,135.19473 c -0.662508,0.42205 -1.129501,0.0564 -1.064633,-1.12654 0.54932,-2.03935 2.470167,-6.50356 3.027911,-7.53941 0.647148,-0.25054 1.523621,0.15943 1.937873,1.20463 -0.238647,1.19706 -2.768027,6.22336 -3.901151,7.46132 z"
         sodipodi:nodetypes="ccccc"
         inkscape:transform-center-x="-3.8035261"
         inkscape:transform-center-y="14.988236" />
      <path
         id="path18107"
         style="fill:#050505;stroke-width:0.108411;stroke-linejoin:bevel"
         d="m 36.962387,115.30553 c -0.551575,0.26976 -0.392826,0.844 0.603694,1.47878 1.852133,0.75483 6.126687,1.84961 7.152897,2.01666 0.405232,-0.35713 0.335363,-1.27494 -0.400506,-2.20178 -1.061457,-0.5081 -5.986655,-1.45612 -7.356085,-1.29366 z"
         sodipodi:nodetypes="ccccc"
         inkscape:transform-center-x="-2.6349061"
         inkscape:transform-center-y="1.1216943" />
      <path
         id="path18118"
         style="fill:#050505;stroke-width:0.0438447;stroke-linejoin:bevel"
         d="m 40.983711,137.57063 c -0.163533,0.13588 -0.446482,0.0114 -0.719133,-0.38109 -0.291454,-0.67388 -0.63657,-2.14423 -0.670899,-2.48469 0.200618,-0.079 0.661804,0.0629 1.095028,0.41283 0.205234,0.39612 0.444214,2.04922 0.294953,2.45303 z"
         sodipodi:nodetypes="ccccc"
         inkscape:transform-center-x="-2.1402528"
         inkscape:transform-center-y="20.23132" />
    </g>
    <g
       id="g14903"
       transform="matrix(-0.03713769,-0.6510621,-0.86394077,0.09815672,182.91352,156.22288)">
      <g
         id="g122893"
         transform="matrix(0.9642438,0.00951845,0.00927586,0.86206217,2.1228653,16.512728)">
        <ellipse
           style="fill:#f0ff00;fill-opacity:1;stroke-width:0.331515;stroke-linejoin:bevel"
           id="path9417"
           cx="103.17281"
           cy="121.09525"
           rx="7.8620129"
           ry="7.5394435"
           transform="matrix(0.99992124,0.01255032,0.01413471,0.9999001,0,0)" />
        <ellipse
           style="fill:#050505;fill-opacity:1;stroke-width:0.307943;stroke-linejoin:bevel"
           id="ellipse11237"
           cx="106.13943"
           cy="122.45192"
           rx="6.7932696"
           ry="7.5288458" />
      </g>
    </g>
    <path
       id="path18535"
       style="fill:#050505;stroke-width:0.116728;stroke-linejoin:bevel"
       d="m 87.958165,106.72392 c 0.692071,-0.22456 0.853199,-0.87902 0.222924,-1.7114 -1.406245,-1.07813 -5.009472,-2.8523 -5.92743,-3.17258 -0.596341,0.34029 -1.034823,1.36203 -0.822564,2.48208 0.764199,0.70118 5.089085,2.39966 6.52707,2.4019 z"
       sodipodi:nodetypes="ccccc" />
    <path
       id="path18537"
       style="fill:#050505;stroke-width:0.0830152;stroke-linejoin:bevel"
       d="m 84.216099,110.97895 c -0.514121,0.14336 -0.757329,-0.19917 -0.501586,-0.97619 0.730293,-1.24778 2.804142,-3.82853 3.359464,-4.40385 0.473173,-0.0317 0.979221,0.42612 1.065211,1.21153 -0.373233,0.74999 -2.950774,3.57878 -3.923089,4.16851 z"
       sodipodi:nodetypes="ccccc"
       inkscape:transform-center-x="1.8339742"
       inkscape:transform-center-y="2.3994789" />
    <path
       id="path18539"
       style="fill:#050505;stroke-width:0.0750979;stroke-linejoin:bevel"
       d="m 81.953516,107.7054 c 0.319606,0.2729 0.638098,0.005 0.76727,-0.81395 -0.02756,-1.39872 -0.498709,-4.43881 -0.672134,-5.14085 -0.334908,-0.15434 -0.893851,0.15673 -1.277698,0.89455 -0.03175,0.82356 0.708466,4.23536 1.182562,5.06025 z"
       sodipodi:nodetypes="ccccc" />
    <path
       id="path18543"
       style="fill:#050505;stroke-width:0.0303719;stroke-linejoin:bevel"
       d="m 83.99215,112.36556 c -0.132639,0.0565 -0.297411,-0.086 -0.407113,-0.40556 -0.0716,-0.51151 -0.03531,-1.56661 0.0032,-1.80134 0.146932,-0.0107 0.426483,0.18086 0.650111,0.50557 0.0645,0.30779 -0.07483,1.46274 -0.246222,1.70133 z"
       sodipodi:nodetypes="ccccc"
       inkscape:transform-center-x="3.8103071"
       inkscape:transform-center-y="5.3633208" />
    <g
       id="g110884"
       transform="matrix(0.63844497,0.20428902,0.31122745,0.87817508,-6.893967,-15.954645)"
       style="fill:#f086ac;fill-opacity:1;stroke:#ac5060;stroke-opacity:1">
      <path
         style="fill:#f086ac;fill-opacity:1;stroke:#ac5060;stroke-width:0.846742;stroke-linecap:butt;stroke-linejoin:miter;stroke-miterlimit:4;stroke-dasharray:none;stroke-opacity:1"
         d="m 88.705772,89.661839 c -1.385915,-2.361116 -11.46588,6.275545 -10.831262,7.847072 1.590906,3.939609 4.73026,-3.151898 7.247533,1.583213 1.565629,2.945026 -4.178889,2.607696 -2.73333,6.020076 1.397515,3.29895 12.452657,-0.92092 11.531809,-4.5319 -1.168247,-4.581118 -5.517182,-1.102325 -6.260328,-2.952544 -1.558239,-3.879569 2.518533,-5.456517 1.045578,-7.965917 z"
         id="path107854"
         sodipodi:nodetypes="sssssss" />
      <ellipse
         style="fill:#f086ac;fill-opacity:1;stroke:#ac5060;stroke-width:1.33501;stroke-linecap:round;stroke-linejoin:round;stroke-miterlimit:4;stroke-dasharray:none;stroke-opacity:1;paint-order:stroke fill markers"
         id="path110776"
         cx="152.56638"
         cy="76.317787"
         rx="1.0273234"
         ry="1.7318852"
         transform="matrix(0.94737851,0.32011554,-0.76839511,0.63997574,0,0)" />
    </g>
    <path
       id="ellipse4848"
       style="fill:#f0ff00;stroke:#000000;stroke-width:0.812324;stroke-linejoin:bevel;stroke-miterlimit:4;stroke-dasharray:none;stroke-opacity:1"
       d="m 77.679975,94.968799 c -0.44361,-2.031101 -5.14948,-6.803165 -9.412521,-6.705625 -3.449404,0.07893 -10.236333,5.088628 -7.541286,6.905957 3.408418,2.194605 17.677025,3.419552 16.953807,-0.200332 z"
       sodipodi:nodetypes="cscc" />
    <ellipse
       style="fill:#ffffff;fill-opacity:1;stroke:#000000;stroke-width:0.90749;stroke-linejoin:bevel;stroke-miterlimit:4;stroke-dasharray:none;stroke-opacity:1"
       id="ellipse8628"
       cx="21.322416"
       cy="113.5794"
       rx="3.192184"
       ry="3.4414744"
       transform="matrix(-0.71549598,0.69861685,0.75558808,0.65504706,0,0)" />
    <ellipse
       style="fill:#ffffff;fill-opacity:1;stroke:#000000;stroke-width:0.965973;stroke-linejoin:bevel;stroke-miterlimit:4;stroke-dasharray:none;stroke-opacity:1"
       id="ellipse18455"
       cx="19.375208"
       cy="117.26595"
       rx="3.3475273"
       ry="3.6628323"
       transform="matrix(-0.6989714,0.71514962,0.73947917,0.67317944,0,0)" />
    <ellipse
       style="fill:#000000;fill-opacity:1;stroke:none;stroke-width:2.10813;stroke-linecap:round;stroke-linejoin:round;stroke-opacity:1;paint-order:stroke fill markers"
       id="path66792"
       cx="54.357746"
       cy="103.88505"
       rx="1.1196846"
       ry="1.1836451"
       transform="rotate(-10.323869)" />
    <use
       x="0"
       y="0"
       xlink:href="#path66792"
       id="use66962"
       transform="matrix(0.86916233,-0.00575707,-0.00575707,0.83860676,7.0336629,11.828592)"
       width="100%"
       height="100%" />
    <g
       id="g18128"
       transform="matrix(0.21575616,-0.68625545,0.66521519,0.14232037,-34.125154,143.10812)">
      <path
         id="path18105"
         style="fill:#050505;stroke-width:0.0677414;stroke-linejoin:bevel"
         d="m 90.072785,143.47158 c -0.1172,0.4565 0.142525,0.64258 0.743364,0.36426 0.96932,-0.72424 2.98202,-2.71093 3.432004,-3.23452 0.03101,-0.41282 -0.31387,-0.81859 -0.916391,-0.83615 -0.581707,0.3783 -2.792103,2.82001 -3.258977,3.70641 z"
         sodipodi:nodetypes="ccccc" />
      <path
         id="path18000"
         style="fill:#050505;stroke-width:0.107589;stroke-linejoin:bevel"
         d="m 93.069103,140.07664 c 0.317408,-0.5507 0.871242,-0.39598 1.408429,0.59256 0.57775,1.83968 1.270522,6.08925 1.342046,7.11001 -0.390521,0.40553 -1.292501,0.34128 -2.142591,-0.38609 -0.405849,-1.0539 -0.893874,-5.95211 -0.607884,-7.31648 z"
         sodipodi:nodetypes="ccccc" />
      <path
         id="path18120"
         style="fill:#050505;stroke-width:0.0850969;stroke-linejoin:bevel"
         d="m 93.328073,153.7976 c -0.450687,0.46505 -0.848362,0.38387 -0.941918,-0.36581 0.169926,-1.42753 1.085755,-4.77445 1.383106,-5.58567 0.459721,-0.35453 1.17279,-0.37253 1.612492,0.14405 -0.0363,0.81204 -1.34508,4.6937 -2.053668,5.80739 z"
         sodipodi:nodetypes="ccccc" />
      <path
         id="path18122"
         style="fill:#050505;stroke-width:0.0364336;stroke-linejoin:bevel"
         d="m 94.025861,156.10509 c 0.190183,0.0194 0.281417,-0.18475 0.189069,-0.56177 -0.266784,-0.57121 -1.027428,-1.69233 -1.231484,-1.9323 -0.175323,0.0342 -0.364393,0.32662 -0.398775,0.7446 0.135986,0.35038 1.082585,1.54666 1.441186,1.74947 z"
         sodipodi:nodetypes="ccccc" />
    </g>
    <path
       id="path18002"
       style="fill:#050505;stroke-width:0.132653;stroke-linejoin:bevel"
       d="m 72.826416,124.95345 c 0.737351,0.27411 1.093424,-0.32357 0.739398,-1.71197 -1.028427,-2.24211 -3.966226,-6.90158 -4.754982,-7.94395 -0.680329,-0.0749 -1.416793,0.71744 -1.554699,2.1073 0.523578,1.34508 4.181751,6.46433 5.570311,7.54861 z"
       sodipodi:nodetypes="ccccc" />
    <path
       id="rect15412"
       style="fill:#050505;stroke-width:0.171662;stroke-linejoin:bevel"
       d="m 68.973364,117.22061 c 0.09775,-1.24384 -0.57847,-1.86093 -1.870817,-1.29206 -1.979322,1.69295 -5.903911,6.56829 -6.75086,7.88198 0.0862,1.15163 1.045009,2.41799 2.454812,2.68308 1.209438,-0.8573 5.419786,-6.9435 6.166865,-9.273 z"
       sodipodi:nodetypes="ccccc" />
    <g
       id="g113404"
       transform="matrix(1.1044239,-0.31933217,0.33092712,0.91256591,-40.045063,18.412262)">
      <path
         id="path113394"
         style="fill:#050505;stroke-width:0.159287;stroke-linejoin:bevel"
         d="m 68.722224,139.35098 c 0.855151,0.55302 1.363597,-0.0258 1.117391,-1.74752 -0.949481,-2.92621 -3.890042,-9.26295 -4.706827,-10.72254 -0.812303,-0.30399 -1.805866,0.37892 -2.154294,1.94527 0.456756,1.72566 4.207669,8.82513 5.743766,10.52478 z"
         sodipodi:nodetypes="ccccc" />
      <g
         id="g113402"
         transform="matrix(-0.10153156,-0.71272585,-0.49475807,0.1845528,135.65717,155.42495)">
        <path
           id="path113396"
           style="fill:#050505;stroke-width:0.238437;stroke-linejoin:bevel"
           d="m 71.550795,127.11776 c 1.656744,-0.10914 2.609229,0.87783 2.07625,2.72011 -1.922366,2.80092 -7.778193,8.31638 -9.393998,9.50007 -1.565756,-0.15279 -3.443139,-1.56207 -4.053932,-3.59406 0.936165,-1.71592 8.370467,-7.61145 11.37168,-8.62612 z"
           sodipodi:nodetypes="ccccc" />
        <path
           id="path113398"
           style="fill:#050505;stroke-width:0.195403;stroke-linejoin:bevel"
           d="m 54.178057,145.93056 c -1.428091,0.075 -2.30686,-0.69679 -1.946849,-2.12372 1.509947,-2.16291 6.275401,-6.40982 7.608942,-7.31914 1.363753,0.12781 3.066348,1.23282 3.706838,2.81377 -0.715951,1.32647 -6.826861,5.85913 -9.368931,6.62909 z"
           sodipodi:nodetypes="ccccc" />
        <path
           id="path113400"
           style="fill:#050505;stroke-width:0.080127;stroke-linejoin:bevel"
           d="m 51.945343,150.40743 c -0.332099,0.38409 -0.644835,0.15437 -0.747665,-0.74478 0.07506,-1.59342 0.653721,-5.15254 0.85263,-5.98948 0.34357,-0.25312 0.897759,-0.0305 1.260629,0.71732 0.0043,0.92701 -0.85877,4.97055 -1.365596,6.01694 z"
           sodipodi:nodetypes="ccccc" />
      </g>
    </g>
    <path
       id="path4471"
       style="fill:#ffffff;fill-opacity:1;stroke:#979797;stroke-width:1.027;stroke-linecap:round;stroke-linejoin:round;stroke-miterlimit:4;stroke-dasharray:none;stroke-opacity:1"
       d="m 67.722347,119.89927 c 0.417679,1.36605 -10.13165,14.23445 -12.366105,13.84948 -2.049828,-0.35315 -3.626697,-2.56785 -3.574149,-3.64157 1.226236,-1.16888 0.998724,-0.27151 4.699794,0.29997 -1.861825,-2.50105 6.602179,-12.17988 8.101821,-12.33588 0.375189,1.27898 1.69716,1.95184 3.138639,1.828 z"
       sodipodi:nodetypes="cscccc" />
  </g>
</svg>
