<?xml version="1.0" encoding="UTF-8" standalone="no"?>
<!-- Created with Inkscape (http://www.inkscape.org/) -->

<svg
   width="177.49782"
   height="265.47012"
   viewBox="0 0 46.962964 70.238972"
   version="1.1"
   id="svg5"
   inkscape:version="1.1 (c68e22c387, 2021-05-23)"
   sodipodi:docname="bee-friend-girl.svg"
   xmlns:inkscape="http://www.inkscape.org/namespaces/inkscape"
   xmlns:sodipodi="http://sodipodi.sourceforge.net/DTD/sodipodi-0.dtd"
   xmlns:xlink="http://www.w3.org/1999/xlink"
   xmlns="http://www.w3.org/2000/svg"
   xmlns:svg="http://www.w3.org/2000/svg">
  <sodipodi:namedview
     id="namedview7"
     pagecolor="#505050"
     bordercolor="#ffffff"
     borderopacity="1"
     inkscape:pageshadow="0"
     inkscape:pageopacity="0"
     inkscape:pagecheckerboard="1"
     inkscape:document-units="mm"
     showgrid="false"
     inkscape:snap-global="false"
     inkscape:zoom="1.5287037"
     inkscape:cx="116.7656"
     inkscape:cy="116.11145"
     inkscape:window-width="1920"
     inkscape:window-height="1017"
     inkscape:window-x="1272"
     inkscape:window-y="-8"
     inkscape:window-maximized="1"
     inkscape:current-layer="layer1"
     fit-margin-top="0"
     fit-margin-left="0"
     fit-margin-right="0"
     fit-margin-bottom="0"
     units="px" />
  <defs
     id="defs2" />
  <g
     inkscape:label="Layer 1"
     inkscape:groupmode="layer"
     id="layer1"
     transform="translate(-52.490524,-78.504709)">
    <path
       id="path18130"
       style="fill:#050505;stroke-width:0.0528056;stroke-linejoin:bevel"
       d="m 71.230772,108.15293 c -0.11535,0.33379 -0.374757,0.34495 -0.670063,-0.0736 -0.358061,-0.84771 -0.893903,-2.91064 -0.979546,-3.42163 0.156098,-0.2714 0.568792,-0.38572 0.992536,-0.15174 0.239103,0.47341 0.715825,2.90187 0.657121,3.6472 z"
       sodipodi:nodetypes="ccccc"
       inkscape:transform-center-x="0.38550585"
       inkscape:transform-center-y="-1.2615546" />
    <path
       id="path18132"
       style="fill:#050505;stroke-width:0.0838674;stroke-linejoin:bevel"
       d="m 70.842254,105.13305 c 0.34312,-0.3277 0.110336,-0.73245 -0.740389,-0.9995 -1.493707,-0.17096 -4.807978,-0.0699 -5.58395,0.0277 -0.219422,0.36246 0.01978,1.04976 0.742226,1.59767 0.871589,0.15575 4.625868,-0.2006 5.582113,-0.62589 z"
       sodipodi:nodetypes="ccccc"
       inkscape:transform-center-x="3.0769807"
       inkscape:transform-center-y="-2.7319756" />
    <path
       id="path18134"
       style="fill:#050505;stroke-width:0.0663345;stroke-linejoin:bevel"
       d="m 60.560706,106.98755 c -0.251022,0.41786 -0.106165,0.71297 0.47244,0.673 1.027936,-0.34505 3.328232,-1.55384 3.869789,-1.90507 0.166731,-0.40829 0.0289,-0.96195 -0.449384,-1.22434 -0.59754,0.14964 -3.213049,1.74213 -3.892818,2.45639 z"
       sodipodi:nodetypes="ccccc"
       inkscape:transform-center-x="8.087388"
       inkscape:transform-center-y="-1.5530644" />
    <path
       id="path18136"
       style="fill:#050505;stroke-width:0.0284006;stroke-linejoin:bevel"
       d="m 58.692862,106.79392 c -0.05482,-0.14401 0.07801,-0.2451 0.378604,-0.23021 0.482328,0.12058 1.479267,0.54044 1.701404,0.66218 0.01169,0.14058 -0.166148,0.33045 -0.470388,0.41961 -0.289952,-0.0528 -1.382394,-0.60487 -1.609617,-0.85158 z"
       sodipodi:nodetypes="ccccc"
       inkscape:transform-center-x="11.066879"
       inkscape:transform-center-y="-0.54684219" />
    <use
       x="0"
       y="0"
       xlink:href="#rect76516"
       id="use78163"
       transform="rotate(-19.187213,77.669956,101.253)"
       width="100%"
       height="100%" />
    <rect
       style="fill:#050505;fill-opacity:1;stroke:none;stroke-width:2.23843;stroke-linecap:round;stroke-linejoin:round;stroke-miterlimit:4;stroke-dasharray:none;stroke-opacity:1;paint-order:stroke fill markers"
       id="rect76516"
       width="1.2544346"
       height="6.394557"
       x="-98.330704"
       y="-86.657707"
       transform="matrix(-0.03060041,-0.9995317,-0.9995317,0.03060041,0,0)" />
    <path
       id="path117403-5"
       style="fill:#050505;stroke-width:1.04054;stroke-linecap:round;stroke-linejoin:round"
       d="m 87.133136,92.008757 -1.098449,-0.457591 c 0,0 0.02572,-10.195143 1.507219,-12.725384 0.340569,-0.581664 0.921208,-0.339763 1.098429,0.457582 0.770971,3.468571 -1.507199,12.725393 -1.507199,12.725393 z"
       sodipodi:nodetypes="ccaac"
       inkscape:transform-center-x="-0.72608053"
       inkscape:transform-center-y="-5.8070372" />
    <path
       id="path22857-2"
       style="fill:#050505;stroke-width:1.04054;stroke-linecap:round;stroke-linejoin:round"
       d="m 89.610145,95.645257 -0.779794,-0.898861 c 0,0 4.562096,-9.117498 7.015184,-10.723529 0.563854,-0.36931 0.976142,0.105908 0.779762,0.898822 -0.853916,3.449089 -7.01516,10.723574 -7.01516,10.723574 z"
       sodipodi:nodetypes="ccaac"
       inkscape:transform-center-x="-3.1617871"
       inkscape:transform-center-y="-5.0069479" />
    <ellipse
       style="fill:#050505;fill-opacity:1;stroke-width:0.265942;stroke-linejoin:bevel"
       id="path846"
       cx="-126.67863"
       cy="-75.781929"
       rx="16.123251"
       ry="9.6290112"
       transform="matrix(-0.02664666,-0.99964491,-0.99961244,0.02783836,0,0)" />
    <ellipse
       style="fill:#f8ff25;fill-opacity:1;stroke-width:0.243773;stroke-linejoin:bevel"
       id="ellipse1398"
       cx="-125.18687"
       cy="-75.684059"
       rx="13.633083"
       ry="9.568285"
       transform="matrix(-0.0264786,-0.99964938,-0.9996075,0.02801503,0,0)" />
    <ellipse
       style="fill:#050505;fill-opacity:1;stroke-width:0.230072;stroke-linejoin:bevel"
       id="ellipse1840"
       cx="-123.31042"
       cy="-75.684715"
       rx="11.584672"
       ry="10.03006"
       transform="matrix(-0.02775651,-0.99961471,-0.99964282,0.02672525,0,0)" />
    <ellipse
       style="fill:#f8ff25;fill-opacity:1;stroke-width:0.206614;stroke-linejoin:bevel"
       id="ellipse1842"
       cx="-121.43758"
       cy="-75.559296"
       rx="9.4411488"
       ry="9.925684"
       transform="matrix(-0.02746768,-0.99962269,-0.99963526,0.02700629,0,0)" />
    <ellipse
       style="fill:#050505;fill-opacity:1;stroke-width:0.170356;stroke-linejoin:bevel"
       id="ellipse1844"
       cx="-119.54545"
       cy="-75.433342"
       rx="6.3729362"
       ry="9.9961863"
       transform="matrix(-0.0293523,-0.99956913,-0.99968061,0.0252721,0,0)" />
    <g
       id="g4839"
       transform="matrix(-0.20524669,-1.0816186,-1.0676857,0.13305935,231.38358,207.99501)">
      <ellipse
         style="fill:#f8ff25;fill-opacity:1;stroke-width:0.183264;stroke-linejoin:bevel"
         id="ellipse4835"
         cx="103.69713"
         cy="122.77692"
         rx="7.573081"
         ry="9.7352018" />
      <ellipse
         style="fill:#050505;fill-opacity:1;stroke-width:0.169785;stroke-linejoin:bevel"
         id="ellipse4833"
         cx="105.3187"
         cy="122.58856"
         rx="6.5634127"
         ry="9.6410179" />
    </g>
    <g
       id="g85882"
       transform="matrix(-0.08407786,-0.61485991,-0.75719032,0.06827359,160.13231,132.43853)">
      <path
         id="path17998"
         style="fill:#050505;stroke-width:0.168509;stroke-linejoin:bevel"
         d="m 42.560233,127.44198 c 0.649251,0.82908 1.600929,0.70637 2.387734,-0.59215 0.72,-2.48879 1.251239,-8.34779 1.211501,-9.77139 -0.754704,-0.63733 -2.335021,-0.70162 -3.716098,0.17585 -0.544518,1.41292 -0.609247,8.21942 0.116863,10.18769 z"
         sodipodi:nodetypes="ccccc"
         inkscape:transform-center-x="-5.9216015"
         inkscape:transform-center-y="6.3596616" />
      <path
         id="path18103"
         style="fill:#050505;stroke-width:0.119841;stroke-linejoin:bevel"
         d="m 40.560008,135.19473 c -0.662508,0.42205 -1.129501,0.0564 -1.064633,-1.12654 0.54932,-2.03935 2.470167,-6.50356 3.027911,-7.53941 0.647148,-0.25054 1.523621,0.15943 1.937873,1.20463 -0.238647,1.19706 -2.768027,6.22336 -3.901151,7.46132 z"
         sodipodi:nodetypes="ccccc"
         inkscape:transform-center-x="-3.8035261"
         inkscape:transform-center-y="14.988236" />
      <path
         id="path18107"
         style="fill:#050505;stroke-width:0.108411;stroke-linejoin:bevel"
         d="m 36.962387,115.30553 c -0.551575,0.26976 -0.392826,0.844 0.603694,1.47878 1.852133,0.75483 6.126687,1.84961 7.152897,2.01666 0.405232,-0.35713 0.335363,-1.27494 -0.400506,-2.20178 -1.061457,-0.5081 -5.986655,-1.45612 -7.356085,-1.29366 z"
         sodipodi:nodetypes="ccccc"
         inkscape:transform-center-x="-2.6349061"
         inkscape:transform-center-y="1.1216943" />
      <path
         id="path18118"
         style="fill:#050505;stroke-width:0.0438447;stroke-linejoin:bevel"
         d="m 40.983711,137.57063 c -0.163533,0.13588 -0.446482,0.0114 -0.719133,-0.38109 -0.291454,-0.67388 -0.63657,-2.14423 -0.670899,-2.48469 0.200618,-0.079 0.661804,0.0629 1.095028,0.41283 0.205234,0.39612 0.444214,2.04922 0.294953,2.45303 z"
         sodipodi:nodetypes="ccccc"
         inkscape:transform-center-x="-2.1402528"
         inkscape:transform-center-y="20.23132" />
    </g>
    <g
       id="g14903"
       transform="matrix(0.10051599,-0.79150357,-1.0880987,-0.07125374,201.6064,197.87507)">
      <g
         id="g122893"
         transform="matrix(0.9642438,0.00951845,0.00927586,0.86206217,2.1228653,16.512728)">
        <ellipse
           style="fill:#f0ff00;fill-opacity:1;stroke-width:0.331515;stroke-linejoin:bevel"
           id="path9417"
           cx="103.17281"
           cy="121.09525"
           rx="7.8620129"
           ry="7.5394435"
           transform="matrix(0.99992124,0.01255032,0.01413471,0.9999001,0,0)" />
        <ellipse
           style="fill:#050505;fill-opacity:1;stroke-width:0.307943;stroke-linejoin:bevel"
           id="ellipse11237"
           cx="106.13943"
           cy="122.45192"
           rx="6.7932696"
           ry="7.5288458" />
      </g>
    </g>
    <path
       id="path18535"
       style="fill:#050505;stroke-width:0.14457;stroke-linejoin:bevel"
       d="m 95.564898,117.50535 c 0.904438,-0.11844 1.250363,-0.87064 0.659747,-2.01031 -1.492861,-1.60544 -5.540178,-4.52989 -6.600878,-5.11644 -0.812326,0.27874 -1.583038,1.412 -1.572882,2.80617 0.785353,1.01117 5.740155,4.00271 7.514013,4.32058 z"
       sodipodi:nodetypes="ccccc" />
    <path
       id="path18537"
       style="fill:#050505;stroke-width:0.102816;stroke-linejoin:bevel"
       d="m 89.991066,121.80487 c -0.666609,0.0598 -0.889718,-0.40564 -0.399497,-1.28451 1.181591,-1.34127 4.320641,-3.99191 5.135183,-4.56243 0.590987,0.0656 1.112503,0.72733 1.042068,1.6912 -0.629119,0.82059 -4.445438,3.65928 -5.777754,4.15574 z"
       sodipodi:nodetypes="ccccc"
       inkscape:transform-center-x="2.8913218"
       inkscape:transform-center-y="2.4188859" />
    <path
       id="path18539"
       style="fill:#050505;stroke-width:0.0930102;stroke-linejoin:bevel"
       d="m 87.935019,117.37019 c 0.333029,0.3984 0.786232,0.14592 1.129707,-0.81119 0.28039,-1.68898 0.382353,-5.45012 0.326159,-6.33282 -0.378558,-0.25911 -1.13817,-0.007 -1.777651,0.79629 -0.224293,0.98394 -0.0778,5.25129 0.321785,6.34772 z"
       sodipodi:nodetypes="ccccc" />
    <path
       id="path18543"
       style="fill:#050505;stroke-width:0.0376162;stroke-linejoin:bevel"
       d="m 89.403059,123.42415 c -0.176362,0.0389 -0.347645,-0.1687 -0.411187,-0.5772 0.02662,-0.63114 0.308563,-1.89268 0.40887,-2.16668 0.183708,0.0193 0.485595,0.31109 0.688548,0.7508 0.01046,0.38447 -0.421119,1.74358 -0.686231,1.99308 z"
       sodipodi:nodetypes="ccccc"
       inkscape:transform-center-x="5.9016176"
       inkscape:transform-center-y="5.5894458" />
    <g
       id="g110884"
       transform="matrix(0.74187287,0.38573547,0.18664067,1.1248424,6.0995373,-50.892106)">
      <path
         style="fill:#cf8989;fill-opacity:1;stroke:#964e4e;stroke-width:0.846742;stroke-linecap:butt;stroke-linejoin:miter;stroke-miterlimit:4;stroke-dasharray:none;stroke-opacity:1"
         d="m 88.705772,89.661839 c -1.385915,-2.361116 -11.46588,6.275545 -10.831262,7.847072 1.590906,3.939609 4.73026,-3.151898 7.247533,1.583213 1.565629,2.945026 -4.178889,2.607696 -2.73333,6.020076 1.397515,3.29895 12.452657,-0.92092 11.531809,-4.5319 -1.168247,-4.581118 -5.517182,-1.102325 -6.260328,-2.952544 -1.558239,-3.879569 2.518533,-5.456517 1.045578,-7.965917 z"
         id="path107854"
         sodipodi:nodetypes="sssssss" />
      <ellipse
         style="fill:#cf8989;fill-opacity:1;stroke:#964e4e;stroke-width:1.33501;stroke-linecap:round;stroke-linejoin:round;stroke-miterlimit:4;stroke-dasharray:none;stroke-opacity:1;paint-order:stroke fill markers"
         id="path110776"
         cx="152.56638"
         cy="76.317787"
         rx="1.0273234"
         ry="1.7318852"
         transform="matrix(0.94737851,0.32011554,-0.76839511,0.63997574,0,0)" />
    </g>
    <path
       id="ellipse4848"
       style="fill:#f0ff00;stroke:#000000;stroke-width:1.00608;stroke-linejoin:bevel;stroke-miterlimit:4;stroke-dasharray:none;stroke-opacity:1"
       d="M 85.524642,101.10873 C 85.433792,98.567661 80.69975,91.794448 75.417564,90.977445 71.143527,90.316377 61.64294,94.856549 64.559932,97.633871 c 3.712436,3.387619 21.043454,7.988849 20.96471,3.474859 z"
       sodipodi:nodetypes="cscc" />
    <ellipse
       style="fill:#ffffff;fill-opacity:1;stroke:#000000;stroke-width:1.12523;stroke-linejoin:bevel;stroke-miterlimit:4;stroke-dasharray:none;stroke-opacity:1"
       id="ellipse8628"
       cx="-1.3139914"
       cy="121.03196"
       rx="3.9728444"
       ry="4.2513752"
       transform="matrix(-0.83555771,0.54940269,0.6355361,0.77207116,0,0)" />
    <ellipse
       style="fill:#ffffff;fill-opacity:1;stroke:#000000;stroke-width:1.19706;stroke-linejoin:bevel;stroke-miterlimit:4;stroke-dasharray:none;stroke-opacity:1"
       id="ellipse18455"
       cx="-3.2336326"
       cy="126.17956"
       rx="4.1639023"
       ry="4.5221262"
       transform="matrix(-0.8226094,0.56860688,0.61651428,0.78734372,0,0)" />
    <ellipse
       style="fill:#000000;fill-opacity:1;stroke:none;stroke-width:2.61096;stroke-linecap:round;stroke-linejoin:round;stroke-opacity:1;paint-order:stroke fill markers"
       id="path66792"
       cx="79.196976"
       cy="96.868019"
       rx="1.4043393"
       ry="1.4476086" />
    <use
       x="0"
       y="0"
       xlink:href="#path66792"
       id="use66962"
       transform="matrix(0.87021104,0,0,0.83755805,7.4505211,10.870692)"
       width="100%"
       height="100%" />
    <g
       id="g18128"
       transform="matrix(0.42047784,-0.77841978,0.78883409,0.31704168,-63.254601,134.52518)">
      <path
         id="path18105"
         style="fill:#050505;stroke-width:0.0677414;stroke-linejoin:bevel"
         d="m 90.072785,143.47158 c -0.1172,0.4565 0.142525,0.64258 0.743364,0.36426 0.96932,-0.72424 2.98202,-2.71093 3.432004,-3.23452 0.03101,-0.41282 -0.31387,-0.81859 -0.916391,-0.83615 -0.581707,0.3783 -2.792103,2.82001 -3.258977,3.70641 z"
         sodipodi:nodetypes="ccccc" />
      <path
         id="path18000"
         style="fill:#050505;stroke-width:0.107589;stroke-linejoin:bevel"
         d="m 93.069103,140.07664 c 0.317408,-0.5507 0.871242,-0.39598 1.408429,0.59256 0.57775,1.83968 1.270522,6.08925 1.342046,7.11001 -0.390521,0.40553 -1.292501,0.34128 -2.142591,-0.38609 -0.405849,-1.0539 -0.893874,-5.95211 -0.607884,-7.31648 z"
         sodipodi:nodetypes="ccccc" />
      <path
         id="path18120"
         style="fill:#050505;stroke-width:0.0850969;stroke-linejoin:bevel"
         d="m 93.328073,153.7976 c -0.450687,0.46505 -0.848362,0.38387 -0.941918,-0.36581 0.169926,-1.42753 1.085755,-4.77445 1.383106,-5.58567 0.459721,-0.35453 1.17279,-0.37253 1.612492,0.14405 -0.0363,0.81204 -1.34508,4.6937 -2.053668,5.80739 z"
         sodipodi:nodetypes="ccccc" />
      <path
         id="path18122"
         style="fill:#050505;stroke-width:0.0364336;stroke-linejoin:bevel"
         d="m 94.025861,156.10509 c 0.190183,0.0194 0.281417,-0.18475 0.189069,-0.56177 -0.266784,-0.57121 -1.027428,-1.69233 -1.231484,-1.9323 -0.175323,0.0342 -0.364393,0.32662 -0.398775,0.7446 0.135986,0.35038 1.082585,1.54666 1.441186,1.74947 z"
         sodipodi:nodetypes="ccccc" />
    </g>
    <g
       id="g113312"
       transform="matrix(1.0413328,-0.09030445,-0.07644447,1.028252,12.168852,-1.3588858)"
       inkscape:transform-center-x="9.4008334"
       inkscape:transform-center-y="1.5820445">
      <path
         id="path18002"
         style="fill:#050505;stroke-width:0.159287;stroke-linejoin:bevel"
         d="m 68.477456,139.71813 c 0.855151,0.55302 1.363597,-0.0258 1.117391,-1.74752 -0.949481,-2.92621 -3.890042,-9.26295 -4.706827,-10.72254 -0.812303,-0.30399 -1.805866,0.37892 -2.154294,1.94527 0.456756,1.72566 4.207669,8.82513 5.743766,10.52478 z"
         sodipodi:nodetypes="ccccc" />
      <g
         id="g887"
         transform="matrix(-0.21631179,-0.8921807,-0.79075325,0.19350898,181.42905,167.38203)">
        <path
           id="rect15412"
           style="fill:#050505;stroke-width:0.238437;stroke-linejoin:bevel"
           d="m 71.550795,127.11776 c 1.656744,-0.10914 2.609229,0.87783 2.07625,2.72011 -1.922366,2.80092 -7.778193,8.31638 -9.393998,9.50007 -1.565756,-0.15279 -3.443139,-1.56207 -4.053932,-3.59406 0.936165,-1.71592 8.370467,-7.61145 11.37168,-8.62612 z"
           sodipodi:nodetypes="ccccc" />
        <path
           id="path18114"
           style="fill:#050505;stroke-width:0.195403;stroke-linejoin:bevel"
           d="m 54.178057,145.93056 c -1.428091,0.075 -2.30686,-0.69679 -1.946849,-2.12372 1.509947,-2.16291 6.275401,-6.40982 7.608942,-7.31914 1.363753,0.12781 3.066348,1.23282 3.706838,2.81377 -0.715951,1.32647 -6.826861,5.85913 -9.368931,6.62909 z"
           sodipodi:nodetypes="ccccc" />
        <path
           id="path18116"
           style="fill:#050505;stroke-width:0.080127;stroke-linejoin:bevel"
           d="m 52.414138,151.25255 c -0.314363,0.40263 -0.636994,0.19107 -0.780115,-0.70114 0.0033,-1.59583 0.421094,-5.18386 0.582087,-6.03118 0.331707,-0.27248 0.895138,-0.0818 1.29113,0.64438 0.04596,0.92567 -0.634042,5.0138 -1.093104,6.08794 z"
           sodipodi:nodetypes="ccccc" />
      </g>
    </g>
    <g
       id="g113404"
       transform="matrix(1.4345504,-0.14215796,0.20321841,1.1705395,-42.531081,-16.807523)">
      <path
         id="path113394"
         style="fill:#050505;stroke-width:0.159287;stroke-linejoin:bevel"
         d="m 68.722224,139.35098 c 0.855151,0.55302 1.363597,-0.0258 1.117391,-1.74752 -0.949481,-2.92621 -3.890042,-9.26295 -4.706827,-10.72254 -0.812303,-0.30399 -1.805866,0.37892 -2.154294,1.94527 0.456756,1.72566 4.207669,8.82513 5.743766,10.52478 z"
         sodipodi:nodetypes="ccccc" />
      <g
         id="g113402"
         transform="matrix(-0.10153156,-0.71272585,-0.49475807,0.1845528,135.65717,155.42495)">
        <path
           id="path113396"
           style="fill:#050505;stroke-width:0.238437;stroke-linejoin:bevel"
           d="m 71.550795,127.11776 c 1.656744,-0.10914 2.609229,0.87783 2.07625,2.72011 -1.922366,2.80092 -7.778193,8.31638 -9.393998,9.50007 -1.565756,-0.15279 -3.443139,-1.56207 -4.053932,-3.59406 0.936165,-1.71592 8.370467,-7.61145 11.37168,-8.62612 z"
           sodipodi:nodetypes="ccccc" />
        <path
           id="path113398"
           style="fill:#050505;stroke-width:0.195403;stroke-linejoin:bevel"
           d="m 54.178057,145.93056 c -1.428091,0.075 -2.30686,-0.69679 -1.946849,-2.12372 1.509947,-2.16291 6.275401,-6.40982 7.608942,-7.31914 1.363753,0.12781 3.066348,1.23282 3.706838,2.81377 -0.715951,1.32647 -6.826861,5.85913 -9.368931,6.62909 z"
           sodipodi:nodetypes="ccccc" />
        <path
           id="path113400"
           style="fill:#050505;stroke-width:0.080127;stroke-linejoin:bevel"
           d="m 51.945343,150.40743 c -0.332099,0.38409 -0.644835,0.15437 -0.747665,-0.74478 0.07506,-1.59342 0.653721,-5.15254 0.85263,-5.98948 0.34357,-0.25312 0.897759,-0.0305 1.260629,0.71732 0.0043,0.92701 -0.85877,4.97055 -1.365596,6.01694 z"
           sodipodi:nodetypes="ccccc" />
      </g>
    </g>
  </g>
</svg>
