<?xml version="1.0" encoding="UTF-8" standalone="no"?>
<svg
   id="eqWQrz9ZfFg1"
   viewBox="0 0 109.37242 133.8575"
   shape-rendering="geometricPrecision"
   text-rendering="geometricPrecision"
   version="1.1"
   sodipodi:docname="bug-egg.svg"
   width="109.37241"
   height="133.8575"
   inkscape:version="1.1 (c68e22c387, 2021-05-23)"
   xmlns:inkscape="http://www.inkscape.org/namespaces/inkscape"
   xmlns:sodipodi="http://sodipodi.sourceforge.net/DTD/sodipodi-0.dtd"
   xmlns="http://www.w3.org/2000/svg"
   xmlns:svg="http://www.w3.org/2000/svg">
  <defs
     id="defs2314" />
  <sodipodi:namedview
     id="namedview2312"
     pagecolor="#4f4a4a"
     bordercolor="#666666"
     borderopacity="1.0"
     inkscape:pageshadow="2"
     inkscape:pageopacity="0"
     inkscape:pagecheckerboard="true"
     showgrid="false"
     fit-margin-top="0"
     fit-margin-left="0"
     fit-margin-right="0"
     fit-margin-bottom="0"
     inkscape:zoom="3.1171624"
     inkscape:cx="83.890399"
     inkscape:cy="57.263618"
     inkscape:window-width="1920"
     inkscape:window-height="1017"
     inkscape:window-x="1272"
     inkscape:window-y="-8"
     inkscape:window-maximized="1"
     inkscape:current-layer="eqWQrz9ZfFg1" />
  <path
     id="path80254"
     style="fill:#a9517d;fill-opacity:0.778555;stroke:#763958;stroke-width:2.99818;stroke-linecap:round;stroke-linejoin:round;stroke-opacity:1"
     d="M 107.68289,73.598573 C 110.37731,109.32631 84.299759,132.3584 54.832599,132.3584 25.365443,132.3584 -1.2759533,110.63249 1.7299539,74.932545 4.2535439,44.960885 24.860725,1.499091 54.32788,1.49909 c 29.46716,-1.6e-6 51.33614,45.329351 53.35501,72.099483 z"
     sodipodi:nodetypes="sssss" />
  <path
     id="path83746"
     style="fill:#763958;stroke-width:2.8202;stroke-linecap:round;stroke-linejoin:round"
     d="m 52.511782,75.523316 c -1.465198,12.466391 -2.476744,19.054776 3.243967,33.585534 3.927342,9.97556 -5.224443,18.14554 -24.371916,0.71406 -8.642742,-7.86818 -6.762415,-24.982416 -1.429221,-34.266063 5.333193,-9.283645 23.927209,-11.690264 22.55717,-0.03353 z"
     sodipodi:nodetypes="ssssss" />
  <ellipse
     style="fill:#763958;fill-opacity:1;stroke:none;stroke-width:2.18705;stroke-linecap:round;stroke-linejoin:round;stroke-opacity:1"
     id="ellipse86134"
     cx="77.898888"
     cy="-24.524195"
     rx="14.236238"
     ry="16.004141"
     transform="matrix(0.42337288,0.90595552,-0.81052258,0.58570739,0,0)" />
  <ellipse
     style="fill:#763958;fill-opacity:1;stroke:none;stroke-width:1.13541;stroke-linecap:round;stroke-linejoin:round;stroke-opacity:1"
     id="ellipse95036"
     cx="53.635159"
     cy="118.08962"
     rx="10.307428"
     ry="5.9574847"
     transform="matrix(0.99926964,-0.03821246,0.00619445,0.99998081,0,0)"
     inkscape:transform-center-x="0.33203662"
     inkscape:transform-center-y="-0.5871954" />
  <ellipse
     style="fill:#763958;fill-opacity:1;stroke:none;stroke-width:0.89766;stroke-linecap:round;stroke-linejoin:round;stroke-opacity:1"
     id="ellipse95038"
     cx="-78.814827"
     cy="78.682457"
     rx="10.249319"
     ry="3.7449193"
     transform="matrix(-0.02896149,-0.99958053,0.99654277,0.08308138,0,0)" />
  <ellipse
     style="fill:#763958;fill-opacity:1;stroke:none;stroke-width:0.78525;stroke-linecap:round;stroke-linejoin:round;stroke-opacity:1"
     id="ellipse3084"
     cx="96.14782"
     cy="63.488834"
     rx="7.519011"
     ry="3.9063735"
     transform="matrix(0.95271232,0.30387371,-0.60225625,0.79830283,0,0)" />
  <ellipse
     style="fill:#763958;fill-opacity:1;stroke:none;stroke-width:0.703856;stroke-linecap:round;stroke-linejoin:round;stroke-opacity:1"
     id="ellipse3086"
     cx="92.280022"
     cy="109.60929"
     rx="6.7268009"
     ry="3.5081909"
     transform="matrix(0.99912764,-0.04176078,-0.33889458,0.94082435,0,0)" />
  <path
     id="path7742"
     style="fill:#b679ae;fill-opacity:1;stroke-width:4.3238;stroke-linecap:round;stroke-linejoin:bevel"
     d="m 44.169821,11.173042 c -9.183946,4.585387 -25.210898,21.63803 -18.020523,25.966032 5.764184,3.469552 12.427457,-9.215262 18.932447,-14.77278 6.23649,-5.328128 20.796442,-2.177183 20.639044,-9.200712 C 65.563386,6.1420562 50.301034,8.1118432 44.169821,11.173042 Z"
     sodipodi:nodetypes="sssss" />
  <ellipse
     style="fill:#763958;fill-opacity:1;stroke:none;stroke-width:0.806393;stroke-linecap:round;stroke-linejoin:round;stroke-opacity:1"
     id="ellipse8897"
     cx="-98.757484"
     cy="53.663166"
     rx="6.9077425"
     ry="4.4840603"
     transform="matrix(-0.3168193,-0.94848592,0.89377016,-0.44852525,0,0)" />
  <ellipse
     style="fill:#763958;fill-opacity:1;stroke:none;stroke-width:1.06661;stroke-linecap:round;stroke-linejoin:round;stroke-opacity:1"
     id="ellipse9325"
     cx="40.804852"
     cy="140.99774"
     rx="10.248733"
     ry="5.2875533"
     transform="matrix(0.80336395,-0.59548834,0.2482192,0.96870389,0,0)"
     inkscape:transform-center-x="0.39458182"
     inkscape:transform-center-y="-0.32112009" />
  <ellipse
     style="fill:#763958;fill-opacity:1;stroke:none;stroke-width:0.882158;stroke-linecap:round;stroke-linejoin:round;stroke-opacity:1"
     id="ellipse9327"
     cx="-51.418526"
     cy="113.29143"
     rx="8.710845"
     ry="4.2554526"
     transform="matrix(0.4346687,-0.90059043,0.87911348,0.47661251,0,0)"
     inkscape:transform-center-x="0.49732988"
     inkscape:transform-center-y="0.045867275" />
</svg>
