<?xml version="1.0" encoding="UTF-8" standalone="no"?>
<svg
   id="eqWQrz9ZfFg1"
   viewBox="0 0 153.87613 244.04806"
   shape-rendering="geometricPrecision"
   text-rendering="geometricPrecision"
   version="1.1"
   sodipodi:docname="bug.svg"
   width="153.87613"
   height="244.04805"
   inkscape:version="1.1 (c68e22c387, 2021-05-23)"
   xmlns:inkscape="http://www.inkscape.org/namespaces/inkscape"
   xmlns:sodipodi="http://sodipodi.sourceforge.net/DTD/sodipodi-0.dtd"
   xmlns="http://www.w3.org/2000/svg"
   xmlns:svg="http://www.w3.org/2000/svg">
  <defs
     id="defs2314" />
  <sodipodi:namedview
     id="namedview2312"
     pagecolor="#4f4a4a"
     bordercolor="#666666"
     borderopacity="1.0"
     inkscape:pageshadow="2"
     inkscape:pageopacity="0"
     inkscape:pagecheckerboard="true"
     showgrid="false"
     fit-margin-top="0"
     fit-margin-left="0"
     fit-margin-right="0"
     fit-margin-bottom="0"
     inkscape:zoom="1.5585812"
     inkscape:cx="-14.436206"
     inkscape:cy="231.30011"
     inkscape:window-width="1920"
     inkscape:window-height="1017"
     inkscape:window-x="1272"
     inkscape:window-y="-8"
     inkscape:window-maximized="1"
     inkscape:current-layer="eqWQrz9ZfFg1" />
  <ellipse
     id="ellipse79764"
     rx="7.5726953"
     ry="8.0016394"
     transform="matrix(-0.81957359,-0.57297393,0.99969025,-0.02488794,0,0)"
     fill="#0a0a0b"
     stroke="none"
     stroke-width="0"
     stroke-miterlimit="1"
     cx="-408.51602"
     cy="-226.43481"
     style="fill:#72003a;fill-opacity:1"
     inkscape:transform-center-x="-0.62658648"
     inkscape:transform-center-y="0.28933009" />
  <ellipse
     id="ellipse79664"
     rx="7.8936524"
     ry="7.6010537"
     transform="matrix(-0.99874555,-0.05007323,0.76969837,0.63840772,0,0)"
     fill="#0a0a0b"
     stroke="none"
     stroke-width="0"
     stroke-miterlimit="1"
     cx="42.628155"
     cy="220.39229"
     style="fill:#6d1b44;fill-opacity:0.780392"
     inkscape:transform-center-x="-29.644227"
     inkscape:transform-center-y="6.0383437" />
  <ellipse
     style="fill:#6d1b44;fill-opacity:0.780392;stroke:none;stroke-width:3.29719;stroke-linecap:round;stroke-linejoin:round;stroke-opacity:0.2"
     id="ellipse79666"
     cx="160.40286"
     cy="61.302097"
     rx="9.6332169"
     ry="23.361588"
     transform="matrix(0.25849888,0.96601156,0.97837911,-0.20681954,0,0)"
     inkscape:transform-center-x="-7.7393704"
     inkscape:transform-center-y="-6.3402176" />
  <ellipse
     id="ellipse77054"
     rx="7.8936524"
     ry="7.6010537"
     transform="matrix(-0.99874555,-0.05007323,0.76969837,0.63840772,0,0)"
     fill="#0a0a0b"
     stroke="none"
     stroke-width="0"
     stroke-miterlimit="1"
     cx="-33.282127"
     cy="134.47256"
     style="fill:#6d1b44;fill-opacity:0.780392"
     inkscape:transform-center-x="-29.644237"
     inkscape:transform-center-y="6.038348" />
  <ellipse
     style="fill:#6d1b44;fill-opacity:0.778555;stroke:none;stroke-width:3.29719;stroke-linecap:round;stroke-linejoin:round;stroke-opacity:0.2"
     id="ellipse77056"
     cx="112.39071"
     cy="83.884216"
     rx="9.6332169"
     ry="23.361588"
     transform="matrix(0.25849888,0.96601156,0.97837911,-0.20681954,0,0)"
     inkscape:transform-center-x="-7.7393713"
     inkscape:transform-center-y="-6.3402137" />
  <ellipse
     id="ellipse77048"
     rx="4.7428589"
     ry="4.6927366"
     transform="matrix(-0.99950379,0.03149893,0.85018604,0.52648239,0,0)"
     fill="#0a0a0b"
     stroke="none"
     stroke-width="0"
     stroke-miterlimit="1"
     cx="-59.686798"
     cy="67.391884"
     style="fill:#72003a;fill-opacity:1" />
  <ellipse
     style="fill:#af276a;fill-opacity:0.832168;stroke:#72003a;stroke-width:1.94057;stroke-linecap:round;stroke-linejoin:round;stroke-opacity:1"
     id="ellipse77050"
     cx="64.781708"
     cy="77.341545"
     rx="5.703012"
     ry="13.669043"
     transform="matrix(0.42913493,0.9032404,0.96020513,-0.27929573,0,0)" />
  <ellipse
     id="ellipse77040"
     rx="7.8390474"
     ry="7.417057"
     transform="matrix(-0.97204802,0.23478213,0.61890448,-0.78546626,0,0)"
     fill="#0a0a0b"
     stroke="none"
     stroke-width="0"
     stroke-miterlimit="1"
     cx="-329.57031"
     cy="-310.79785"
     style="fill:#72003a;fill-opacity:1" />
  <ellipse
     id="ellipse77042"
     rx="7.8390474"
     ry="7.417057"
     transform="matrix(-0.97204802,0.23478213,0.61890448,-0.78546626,0,0)"
     fill="#0a0a0b"
     stroke="none"
     stroke-width="0"
     stroke-miterlimit="1"
     cx="-296.62994"
     cy="-231.63223"
     style="fill:#72003a;fill-opacity:1" />
  <ellipse
     style="fill:#af276a;fill-opacity:0.832168;stroke:#72003a;stroke-width:3.30562;stroke-linecap:round;stroke-linejoin:round;stroke-opacity:1"
     id="ellipse77032"
     cx="-79.130302"
     cy="234.4994"
     rx="10.32599"
     ry="21.905899"
     transform="matrix(0.82193421,-0.56958244,0.65945182,0.75174683,0,0)" />
  <ellipse
     style="fill:#af276a;fill-opacity:0.832168;stroke:#72003a;stroke-width:5.07783;stroke-linecap:round;stroke-linejoin:round;stroke-opacity:1"
     id="ellipse77030"
     cx="-93.89267"
     cy="206.13489"
     rx="22.672804"
     ry="23.541433"
     transform="matrix(0.78401707,-0.62073926,0.70790059,0.70631208,0,0)" />
  <ellipse
     style="fill:#af276a;fill-opacity:0.832168;stroke:#72003a;stroke-width:7.27732;stroke-linecap:round;stroke-linejoin:round;stroke-opacity:1"
     id="ellipse77028"
     cx="-84.585487"
     cy="179.92285"
     rx="33.453773"
     ry="32.770298"
     transform="matrix(0.78401707,-0.62073926,0.70790059,0.70631208,0,0)" />
  <line
     id="eqWQrz9ZfFg5"
     x1="63.972237"
     y1="33.708519"
     x2="30.566404"
     y2="3.1125851"
     fill="none"
     stroke="#0e0e0e"
     stroke-width="6.22517"
     style="stroke:#72003a;stroke-linecap:round;stroke-opacity:1" />
  <ellipse
     style="fill:#af276a;fill-opacity:0.832168;stroke:#72003a;stroke-width:12.5886;stroke-linecap:round;stroke-linejoin:round;stroke-opacity:1"
     id="path65068"
     cx="-32.694866"
     cy="133.59328"
     rx="54.225784"
     ry="60.497028"
     transform="matrix(0.68851774,-0.7252195,0.60171832,0.79870837,0,0)" />
  <ellipse
     id="eqWQrz9ZfFg4"
     rx="12.19"
     ry="10.717545"
     transform="matrix(0.42592613,-0.90475794,0.93728523,0.34856334,0,0)"
     fill="#0a0a0b"
     stroke="none"
     stroke-width="0"
     stroke-miterlimit="1"
     cx="-118.50942"
     cy="95.411545"
     style="fill:#72003a;fill-opacity:1" />
  <ellipse
     id="ellipse2324"
     rx="11.96106"
     ry="10.885383"
     transform="matrix(0.06559958,0.99784603,-0.99865419,0.05186337,0,0)"
     fill="#0a0a0b"
     stroke="none"
     stroke-width="0"
     stroke-miterlimit="1"
     cx="118.37817"
     cy="-57.476162"
     style="fill:#72003a;fill-opacity:1" />
  <ellipse
     id="ellipse2318"
     rx="13.44962"
     ry="9.6800556"
     transform="matrix(0.9994871,0.03202388,-0.04052582,0.99917849,0,0)"
     fill="#0a0a0b"
     stroke="none"
     stroke-width="0"
     stroke-miterlimit="1"
     cx="42.728256"
     cy="92.291771"
     style="fill:#72003a;fill-opacity:1" />
  <ellipse
     style="fill:#af276a;fill-opacity:0.832168;stroke:#72003a;stroke-width:6.08481;stroke-linecap:round;stroke-linejoin:round;stroke-opacity:1"
     id="ellipse67900"
     cx="12.877498"
     cy="85.808105"
     rx="27.872223"
     ry="27.498219"
     transform="matrix(0.78401707,-0.62073926,0.70790059,0.70631208,0,0)" />
  <line
     id="eqWQrz9ZfFg6"
     x1="52.129711"
     y1="47.407326"
     x2="10.079137"
     y2="26.893497"
     fill="none"
     stroke="#0e0e0e"
     stroke-width="6.22517"
     style="stroke:#72003a;stroke-linecap:round;stroke-opacity:1" />
  <ellipse
     id="ellipse76916"
     rx="9.8087378"
     ry="7.600533"
     transform="matrix(0.87104536,-0.49120258,0.5732622,0.81937198,0,0)"
     fill="#0a0a0b"
     stroke="none"
     stroke-width="0"
     stroke-miterlimit="1"
     cx="-13.40785"
     cy="162.2352"
     style="fill:#72003a;fill-opacity:1" />
  <ellipse
     style="fill:#af276a;fill-opacity:0.832168;stroke:#72003a;stroke-width:3.74613;stroke-linecap:round;stroke-linejoin:round;stroke-opacity:1"
     id="ellipse76608"
     cx="-54.885063"
     cy="176.11868"
     rx="17.399075"
     ry="16.696459"
     transform="matrix(0.78401707,-0.62073926,0.70790059,0.70631208,0,0)" />
  <ellipse
     id="ellipse76918"
     rx="6.9830709"
     ry="6.0212393"
     transform="matrix(0.07835988,-0.99692514,0.9960652,0.0886235,0,0)"
     fill="#0a0a0b"
     stroke="none"
     stroke-width="0"
     stroke-miterlimit="1"
     cx="-114.57808"
     cy="26.822414"
     style="fill:#72003a;fill-opacity:1" />
  <ellipse
     style="fill:#af276a;fill-opacity:0.832168;stroke:#72003a;stroke-width:3.74613;stroke-linecap:round;stroke-linejoin:round;stroke-opacity:1"
     id="ellipse76920"
     cx="-1.1505375"
     cy="145.62421"
     rx="17.399075"
     ry="16.696459"
     transform="matrix(0.78401707,-0.62073926,0.70790059,0.70631208,0,0)" />
  <ellipse
     style="fill:#af276a;fill-opacity:0.832168;stroke:#72003a;stroke-width:3.29488;stroke-linecap:round;stroke-linejoin:round;stroke-opacity:1"
     id="ellipse76922"
     cx="-166.83676"
     cy="106.61861"
     rx="9.5661402"
     ry="23.492573"
     transform="matrix(0.02756477,-0.99962002,0.99976282,0.02177832,0,0)" />
  <ellipse
     style="fill:#af276a;fill-opacity:0.832168;stroke:#72003a;stroke-width:3.29488;stroke-linecap:round;stroke-linejoin:round;stroke-opacity:1"
     id="ellipse77026"
     cx="-110.77632"
     cy="122.13479"
     rx="9.5661402"
     ry="23.492573"
     transform="matrix(0.02756477,-0.99962002,0.99976282,0.02177832,0,0)" />
  <ellipse
     id="ellipse77034"
     rx="7.8105659"
     ry="5.4023523"
     transform="matrix(-0.9799523,-0.19923224,0.28132861,-0.95961149,0,0)"
     fill="#0a0a0b"
     stroke="none"
     stroke-width="0"
     stroke-miterlimit="1"
     cx="-100.81973"
     cy="-163.86882"
     style="fill:#72003a;fill-opacity:1" />
  <ellipse
     id="ellipse77036"
     rx="4.4248853"
     ry="3.1477127"
     transform="matrix(-0.98598228,-0.16685007,0.31811535,-0.94805201,0,0)"
     fill="#0a0a0b"
     stroke="none"
     stroke-width="0"
     stroke-miterlimit="1"
     cx="-94.88195"
     cy="-153.286"
     style="fill:#72003a;fill-opacity:1" />
  <ellipse
     id="ellipse77038"
     rx="4.4248853"
     ry="3.1477127"
     transform="matrix(-0.98598228,-0.16685007,0.31811535,-0.94805201,0,0)"
     fill="#0a0a0b"
     stroke="none"
     stroke-width="0"
     stroke-miterlimit="1"
     cx="-111.45022"
     cy="-183.15231"
     style="fill:#72003a;fill-opacity:1" />
  <ellipse
     id="ellipse77044"
     rx="4.7003851"
     ry="4.5163436"
     transform="matrix(-0.96473328,0.26322938,0.63341252,-0.7738143,0,0)"
     fill="#0a0a0b"
     stroke="none"
     stroke-width="0"
     stroke-miterlimit="1"
     cx="-211.27484"
     cy="-138.77747"
     style="fill:#72003a;fill-opacity:1" />
  <ellipse
     style="fill:#af276a;fill-opacity:0.832168;stroke:#72003a;stroke-width:1.93194;stroke-linecap:round;stroke-linejoin:round;stroke-opacity:1"
     id="ellipse77046"
     cx="-54.710342"
     cy="104.71714"
     rx="5.5948877"
     ry="13.809644"
     transform="matrix(0.07445262,-0.99722455,0.99988555,-0.01512905,0,0)" />
  <ellipse
     id="ellipse77052"
     rx="13.156775"
     ry="9.618762"
     transform="matrix(-0.99089819,-0.1346134,0.35214174,-0.93594668,0,0)"
     fill="#0a0a0b"
     stroke="none"
     stroke-width="0"
     stroke-miterlimit="1"
     cx="-81.145279"
     cy="-31.290098"
     style="fill:#72003a;fill-opacity:1" />
</svg>
