<?xml version="1.0" encoding="UTF-8" standalone="no"?>
<svg
   id="eqWQrz9ZfFg1"
   viewBox="0 0 105.46671 219.12162"
   shape-rendering="geometricPrecision"
   text-rendering="geometricPrecision"
   version="1.1"
   sodipodi:docname="bug.svg"
   width="105.46671"
   height="219.12161"
   inkscape:version="1.1 (c68e22c387, 2021-05-23)"
   xmlns:inkscape="http://www.inkscape.org/namespaces/inkscape"
   xmlns:sodipodi="http://sodipodi.sourceforge.net/DTD/sodipodi-0.dtd"
   xmlns="http://www.w3.org/2000/svg"
   xmlns:svg="http://www.w3.org/2000/svg">
  <defs
     id="defs2314" />
  <sodipodi:namedview
     id="namedview2312"
     pagecolor="#4f4a4a"
     bordercolor="#666666"
     borderopacity="1.0"
     inkscape:pageshadow="2"
     inkscape:pageopacity="0"
     inkscape:pagecheckerboard="true"
     showgrid="false"
     fit-margin-top="0"
     fit-margin-left="0"
     fit-margin-right="0"
     fit-margin-bottom="0"
     inkscape:zoom="1.5585812"
     inkscape:cx="-62.556895"
     inkscape:cy="197.29482"
     inkscape:window-width="1920"
     inkscape:window-height="1017"
     inkscape:window-x="1272"
     inkscape:window-y="-8"
     inkscape:window-maximized="1"
     inkscape:current-layer="eqWQrz9ZfFg1" />
  <ellipse
     id="ellipse79764"
     rx="5.6882143"
     ry="5.5010114"
     transform="matrix(-0.74997453,-0.66146671,0.99950714,-0.03139236,0,0)"
     fill="#0a0a0b"
     stroke="none"
     stroke-width="0"
     stroke-miterlimit="1"
     cx="-317.74036"
     cy="-165.02187"
     style="fill:#72003a;fill-opacity:1"
     inkscape:transform-center-x="-0.43070012"
     inkscape:transform-center-y="0.25090293" />
  <ellipse
     id="ellipse79664"
     rx="5.4298005"
     ry="5.8205309"
     transform="matrix(-0.99800566,-0.06312456,0.69090095,0.72294943,0,0)"
     fill="#0a0a0b"
     stroke="none"
     stroke-width="0"
     stroke-miterlimit="1"
     cx="29.34244"
     cy="168.35832"
     style="fill:#a9517d;fill-opacity:0.778555"
     inkscape:transform-center-x="-20.376247"
     inkscape:transform-center-y="5.2362043" />
  <ellipse
     style="fill:#a9517d;fill-opacity:0.778555;stroke:#aa507d;stroke-width:2.54547;stroke-linecap:round;stroke-linejoin:round;stroke-opacity:0.2"
     id="ellipse79666"
     cx="136.99228"
     cy="42.432526"
     rx="8.249136"
     ry="16.25971"
     transform="matrix(0.207494,0.97823629,0.96623047,-0.2576794,0,0)"
     inkscape:transform-center-x="-5.3197311"
     inkscape:transform-center-y="-5.4979724" />
  <ellipse
     id="ellipse77054"
     rx="5.4298005"
     ry="5.8205309"
     transform="matrix(-0.99800566,-0.06312456,0.69090095,0.72294943,0,0)"
     fill="#0a0a0b"
     stroke="none"
     stroke-width="0"
     stroke-miterlimit="1"
     cx="-22.873907"
     cy="102.56501"
     style="fill:#a9517d;fill-opacity:0.778555"
     inkscape:transform-center-x="-20.37625"
     inkscape:transform-center-y="5.2362045" />
  <ellipse
     style="fill:#a9517d;fill-opacity:0.778555;stroke:#aa507d;stroke-width:2.54547;stroke-linecap:round;stroke-linejoin:round;stroke-opacity:0.2"
     id="ellipse77056"
     cx="95.878403"
     cy="58.149719"
     rx="8.249136"
     ry="16.25971"
     transform="matrix(0.207494,0.97823629,0.96623047,-0.2576794,0,0)"
     inkscape:transform-center-x="-5.319731"
     inkscape:transform-center-y="-5.497971" />
  <ellipse
     id="ellipse77048"
     rx="3.2610064"
     ry="3.4800253"
     transform="matrix(-0.99921058,0.03972674,0.78802821,0.61563913,0,0)"
     fill="#0a0a0b"
     stroke="none"
     stroke-width="0"
     stroke-miterlimit="1"
     cx="-41.112061"
     cy="49.500134"
     style="fill:#72003a;fill-opacity:1" />
  <ellipse
     style="fill:#af276a;fill-opacity:0.832168;stroke:#72003a;stroke-width:1.48857;stroke-linecap:round;stroke-linejoin:round;stroke-opacity:1"
     id="ellipse77050"
     cx="53.837494"
     cy="54.196384"
     rx="4.7731595"
     ry="9.6098919"
     transform="matrix(0.35243272,0.93583715,0.93878827,-0.34449467,0,0)" />
  <ellipse
     id="ellipse77040"
     rx="5.4753942"
     ry="5.9563327"
     transform="matrix(-0.95657636,0.29148186,0.529737,-0.84816196,0,0)"
     fill="#0a0a0b"
     stroke="none"
     stroke-width="0"
     stroke-miterlimit="1"
     cx="-229.56921"
     cy="-249.02406"
     style="fill:#72003a;fill-opacity:1" />
  <ellipse
     id="ellipse77042"
     rx="5.4753942"
     ry="5.9563327"
     transform="matrix(-0.95657636,0.29148186,0.529737,-0.84816196,0,0)"
     fill="#0a0a0b"
     stroke="none"
     stroke-width="0"
     stroke-miterlimit="1"
     cx="-206.56113"
     cy="-185.4494"
     style="fill:#72003a;fill-opacity:1" />
  <ellipse
     style="fill:#af276a;fill-opacity:0.832168;stroke:#72003a;stroke-width:2.55161;stroke-linecap:round;stroke-linejoin:round;stroke-opacity:1"
     id="ellipse77032"
     cx="-65.801132"
     cy="189.49217"
     rx="7.748898"
     ry="17.393005"
     transform="matrix(0.7528576,-0.65818343,0.57089148,0.82102553,0,0)" />
  <ellipse
     style="fill:#af276a;fill-opacity:0.832168;stroke:#72003a;stroke-width:3.91954;stroke-linecap:round;stroke-linejoin:round;stroke-opacity:1"
     id="ellipse77030"
     cx="-76.08519"
     cy="155.32408"
     rx="17.269472"
     ry="18.415056"
     transform="matrix(0.70751512,-0.70669821,0.62203689,0.78298794,0,0)" />
  <ellipse
     style="fill:#af276a;fill-opacity:0.832168;stroke:#72003a;stroke-width:5.61731;stroke-linecap:round;stroke-linejoin:round;stroke-opacity:1"
     id="ellipse77028"
     cx="-63.770382"
     cy="128.16719"
     rx="25.481144"
     ry="25.634247"
     transform="matrix(0.70751512,-0.70669821,0.62203689,0.78298794,0,0)" />
  <line
     id="eqWQrz9ZfFg5"
     x1="43.670399"
     y1="28.934582"
     x2="20.708576"
     y2="2.4030499"
     fill="none"
     stroke="#0e0e0e"
     stroke-width="4.8061"
     style="stroke:#72003a;stroke-linecap:round;stroke-opacity:1" />
  <ellipse
     style="fill:#af276a;fill-opacity:0.832168;stroke:#72003a;stroke-width:8.42532;stroke-linecap:round;stroke-linejoin:round;stroke-opacity:1"
     id="path65068"
     cx="-30.447952"
     cy="98.808418"
     rx="36.401131"
     ry="40.368328"
     transform="matrix(0.70751512,-0.70669821,0.62203689,0.78298794,0,0)" />
  <ellipse
     id="eqWQrz9ZfFg4"
     rx="10.208179"
     ry="7.6269588"
     transform="matrix(0.34960614,-0.93689676,0.90531491,0.424741,0,0)"
     fill="#0a0a0b"
     stroke="none"
     stroke-width="0"
     stroke-miterlimit="1"
     cx="-83.400925"
     cy="70.70356"
     style="fill:#72003a;fill-opacity:1" />
  <ellipse
     id="ellipse2324"
     rx="10.363838"
     ry="7.4881229"
     transform="matrix(0.05203962,0.99864502,-0.99786059,0.06537776,0,0)"
     fill="#0a0a0b"
     stroke="none"
     stroke-width="0"
     stroke-miterlimit="1"
     cx="100.89948"
     cy="-52.582027"
     style="fill:#72003a;fill-opacity:1" />
  <ellipse
     id="ellipse2318"
     rx="9.24753"
     ry="8.3915825"
     transform="matrix(0.99918406,0.04038841,-0.03213289,0.99948361,0,0)"
     fill="#0a0a0b"
     stroke="none"
     stroke-width="0"
     stroke-miterlimit="1"
     cx="29.067682"
     cy="79.723534"
     style="fill:#72003a;fill-opacity:1" />
  <ellipse
     style="fill:#af276a;fill-opacity:0.832168;stroke:#72003a;stroke-width:4.69682;stroke-linecap:round;stroke-linejoin:round;stroke-opacity:1"
     id="ellipse67900"
     cx="9.7562828"
     cy="66.697258"
     rx="21.229776"
     ry="21.510214"
     transform="matrix(0.70751512,-0.70669821,0.62203689,0.78298794,0,0)" />
  <line
     id="eqWQrz9ZfFg6"
     x1="35.530323"
     y1="40.813622"
     x2="6.6264534"
     y2="23.024876"
     fill="none"
     stroke="#0e0e0e"
     stroke-width="4.8061"
     style="stroke:#72003a;stroke-linecap:round;stroke-opacity:1" />
  <ellipse
     id="ellipse76916"
     rx="7.207262"
     ry="6.1752257"
     transform="matrix(0.81483116,-0.57969835,0.48498525,0.87452233,0,0)"
     fill="#0a0a0b"
     stroke="none"
     stroke-width="0"
     stroke-miterlimit="1"
     cx="-9.9726925"
     cy="131.39302"
     style="fill:#72003a;fill-opacity:1" />
  <ellipse
     style="fill:#af276a;fill-opacity:0.832168;stroke:#72003a;stroke-width:2.89161;stroke-linecap:round;stroke-linejoin:round;stroke-opacity:1"
     id="ellipse76608"
     cx="-41.857258"
     cy="137.34183"
     rx="13.252565"
     ry="13.060642"
     transform="matrix(0.70751512,-0.70669821,0.62203689,0.78298794,0,0)" />
  <ellipse
     id="ellipse76918"
     rx="6.0485168"
     ry="4.1483607"
     transform="matrix(0.06218353,-0.99806473,0.99375919,0.11154673,0,0)"
     fill="#0a0a0b"
     stroke="none"
     stroke-width="0"
     stroke-miterlimit="1"
     cx="-94.012573"
     cy="22.730291"
     style="fill:#72003a;fill-opacity:1" />
  <ellipse
     style="fill:#af276a;fill-opacity:0.832168;stroke:#72003a;stroke-width:2.89161;stroke-linecap:round;stroke-linejoin:round;stroke-opacity:1"
     id="ellipse76920"
     cx="-0.92862326"
     cy="113.48782"
     rx="13.252565"
     ry="13.060642"
     transform="matrix(0.70751512,-0.70669821,0.62203689,0.78298794,0,0)" />
  <ellipse
     style="fill:#af276a;fill-opacity:0.832168;stroke:#72003a;stroke-width:2.54379;stroke-linecap:round;stroke-linejoin:round;stroke-opacity:1"
     id="ellipse76922"
     cx="-144.36586"
     cy="72.987671"
     rx="8.2941904"
     ry="16.150112"
     transform="matrix(0.0218525,-0.99976121,0.99962259,0.02747123,0,0)" />
  <ellipse
     style="fill:#af276a;fill-opacity:0.832168;stroke:#72003a;stroke-width:2.54379;stroke-linecap:round;stroke-linejoin:round;stroke-opacity:1"
     id="ellipse77026"
     cx="-95.759422"
     cy="83.654358"
     rx="8.2941904"
     ry="16.150112"
     transform="matrix(0.0218525,-0.99976121,0.99962259,0.02747123,0,0)" />
  <ellipse
     id="ellipse77034"
     rx="5.4313354"
     ry="4.6152754"
     transform="matrix(-0.96864544,-0.24844719,0.22635142,-0.9740457,0,0)"
     fill="#0a0a0b"
     stroke="none"
     stroke-width="0"
     stroke-miterlimit="1"
     cx="-69.747513"
     cy="-139.78261"
     style="fill:#72003a;fill-opacity:1" />
  <ellipse
     id="ellipse77036"
     rx="3.0664306"
     ry="2.6777389"
     transform="matrix(-0.97796212,-0.2087824,0.25703693,-0.96640158,0,0)"
     fill="#0a0a0b"
     stroke="none"
     stroke-width="0"
     stroke-miterlimit="1"
     cx="-59.562458"
     cy="-137.18765"
     style="fill:#72003a;fill-opacity:1" />
  <ellipse
     id="ellipse77038"
     rx="3.0664306"
     ry="2.6777389"
     transform="matrix(-0.97796212,-0.2087824,0.25703693,-0.96640158,0,0)"
     fill="#0a0a0b"
     stroke="none"
     stroke-width="0"
     stroke-miterlimit="1"
     cx="-93.242363"
     cy="-162.9805"
     style="fill:#72003a;fill-opacity:1" />
  <ellipse
     id="ellipse77044"
     rx="3.2964072"
     ry="3.6125815"
     transform="matrix(-0.94554861,0.32548092,0.54430206,-0.8388893,0,0)"
     fill="#0a0a0b"
     stroke="none"
     stroke-width="0"
     stroke-miterlimit="1"
     cx="-147.49608"
     cy="-110.3931"
     style="fill:#72003a;fill-opacity:1" />
  <ellipse
     style="fill:#af276a;fill-opacity:0.832168;stroke:#72003a;stroke-width:1.49082;stroke-linecap:round;stroke-linejoin:round;stroke-opacity:1"
     id="ellipse77046"
     cx="-47.090973"
     cy="71.663727"
     rx="4.8466549"
     ry="9.4928341"
     transform="matrix(0.0590763,-0.99825347,0.99981786,-0.01908521,0,0)" />
  <ellipse
     id="ellipse77052"
     rx="9.0917797"
     ry="8.1465015"
     transform="matrix(-0.98562934,-0.16892248,0.28579168,-0.95829177,0,0)"
     fill="#0a0a0b"
     stroke="none"
     stroke-width="0"
     stroke-miterlimit="1"
     cx="-55.697865"
     cy="-26.258181"
     style="fill:#72003a;fill-opacity:1" />
</svg>
