<?xml version="1.0" encoding="UTF-8" standalone="no"?>
<svg
   id="eqWQrz9ZfFg1"
   viewBox="0 0 165.40193 253.03059"
   shape-rendering="geometricPrecision"
   text-rendering="geometricPrecision"
   version="1.1"
   sodipodi:docname="bug.svg"
   width="165.40193"
   height="253.03058"
   inkscape:version="1.1 (c68e22c387, 2021-05-23)"
   xmlns:inkscape="http://www.inkscape.org/namespaces/inkscape"
   xmlns:sodipodi="http://sodipodi.sourceforge.net/DTD/sodipodi-0.dtd"
   xmlns="http://www.w3.org/2000/svg"
   xmlns:svg="http://www.w3.org/2000/svg">
  <defs
     id="defs2314" />
  <sodipodi:namedview
     id="namedview2312"
     pagecolor="#4f4a4a"
     bordercolor="#666666"
     borderopacity="1.0"
     inkscape:pageshadow="2"
     inkscape:pageopacity="0"
     inkscape:pagecheckerboard="true"
     showgrid="false"
     fit-margin-top="0"
     fit-margin-left="0"
     fit-margin-right="0"
     fit-margin-bottom="0"
     inkscape:zoom="1.5585812"
     inkscape:cx="-2.8872413"
     inkscape:cy="231.30011"
     inkscape:window-width="1920"
     inkscape:window-height="1017"
     inkscape:window-x="1272"
     inkscape:window-y="-8"
     inkscape:window-maximized="1"
     inkscape:current-layer="eqWQrz9ZfFg1" />
  <ellipse
     id="ellipse79764"
     rx="7.5726953"
     ry="8.0016394"
     transform="matrix(-0.81957359,-0.57297393,0.99969025,-0.02488794,0,0)"
     fill="#0a0a0b"
     stroke="none"
     stroke-width="0"
     stroke-miterlimit="1"
     cx="-424.08371"
     cy="-228.95189"
     style="fill:#72003a;fill-opacity:1"
     inkscape:transform-center-x="-0.62658648"
     inkscape:transform-center-y="0.28933009" />
  <ellipse
     id="ellipse79664"
     rx="7.8936524"
     ry="7.6010537"
     transform="matrix(-0.99874555,-0.05007323,0.76969837,0.63840772,0,0)"
     fill="#0a0a0b"
     stroke="none"
     stroke-width="0"
     stroke-miterlimit="1"
     cx="30.345425"
     cy="219.42889"
     style="fill:#6d1b44;fill-opacity:0.780392"
     inkscape:transform-center-x="-29.644227"
     inkscape:transform-center-y="6.0383437" />
  <ellipse
     style="fill:#6d1b44;fill-opacity:0.780392;stroke:none;stroke-width:3.29719;stroke-linecap:round;stroke-linejoin:round;stroke-opacity:0.2"
     id="ellipse79666"
     cx="162.78999"
     cy="72.451897"
     rx="9.6332169"
     ry="23.361588"
     transform="matrix(0.25849888,0.96601156,0.97837911,-0.20681954,0,0)"
     inkscape:transform-center-x="-7.7393704"
     inkscape:transform-center-y="-6.3402176" />
  <ellipse
     id="ellipse77054"
     rx="7.8936524"
     ry="7.6010537"
     transform="matrix(-0.99874555,-0.05007323,0.76969837,0.63840772,0,0)"
     fill="#0a0a0b"
     stroke="none"
     stroke-width="0"
     stroke-miterlimit="1"
     cx="-45.564857"
     cy="133.50917"
     style="fill:#6d1b44;fill-opacity:0.780392"
     inkscape:transform-center-x="-29.644237"
     inkscape:transform-center-y="6.038348" />
  <ellipse
     style="fill:#6d1b44;fill-opacity:0.778555;stroke:none;stroke-width:3.29719;stroke-linecap:round;stroke-linejoin:round;stroke-opacity:0.2"
     id="ellipse77056"
     cx="114.77784"
     cy="95.034012"
     rx="9.6332169"
     ry="23.361588"
     transform="matrix(0.25849888,0.96601156,0.97837911,-0.20681954,0,0)"
     inkscape:transform-center-x="-7.7393713"
     inkscape:transform-center-y="-6.3402137" />
  <ellipse
     id="ellipse77048"
     rx="4.7428589"
     ry="4.6927366"
     transform="matrix(-0.99950379,0.03149893,0.85018604,0.52648239,0,0)"
     fill="#0a0a0b"
     stroke="none"
     stroke-width="0"
     stroke-miterlimit="1"
     cx="-70.659889"
     cy="68.048393"
     style="fill:#72003a;fill-opacity:1" />
  <ellipse
     style="fill:#af276a;fill-opacity:0.832168;stroke:#72003a;stroke-width:1.94057;stroke-linecap:round;stroke-linejoin:round;stroke-opacity:1"
     id="ellipse77050"
     cx="68.042717"
     cy="87.887611"
     rx="5.703012"
     ry="13.669043"
     transform="matrix(0.42913493,0.9032404,0.96020513,-0.27929573,0,0)" />
  <ellipse
     id="ellipse77040"
     rx="7.8390474"
     ry="7.417057"
     transform="matrix(-0.97204802,0.23478213,0.61890448,-0.78546626,0,0)"
     fill="#0a0a0b"
     stroke="none"
     stroke-width="0"
     stroke-miterlimit="1"
     cx="-344.21457"
     cy="-315.17514"
     style="fill:#72003a;fill-opacity:1" />
  <ellipse
     id="ellipse77042"
     rx="7.8390474"
     ry="7.417057"
     transform="matrix(-0.97204802,0.23478213,0.61890448,-0.78546626,0,0)"
     fill="#0a0a0b"
     stroke="none"
     stroke-width="0"
     stroke-miterlimit="1"
     cx="-311.2742"
     cy="-236.00952"
     style="fill:#72003a;fill-opacity:1" />
  <ellipse
     style="fill:#af276a;fill-opacity:0.832168;stroke:#72003a;stroke-width:3.30562;stroke-linecap:round;stroke-linejoin:round;stroke-opacity:1"
     id="ellipse77032"
     cx="-78.858452"
     cy="245.80077"
     rx="10.32599"
     ry="21.905899"
     transform="matrix(0.82193421,-0.56958244,0.65945182,0.75174683,0,0)" />
  <ellipse
     style="fill:#af276a;fill-opacity:0.832168;stroke:#72003a;stroke-width:5.07783;stroke-linecap:round;stroke-linejoin:round;stroke-opacity:1"
     id="ellipse77030"
     cx="-91.625656"
     cy="206.31046"
     rx="22.672804"
     ry="23.541433"
     transform="matrix(0.78401707,-0.62073926,0.70790059,0.70631208,0,0)" />
  <ellipse
     style="fill:#af276a;fill-opacity:0.832168;stroke:#72003a;stroke-width:7.27732;stroke-linecap:round;stroke-linejoin:round;stroke-opacity:1"
     id="ellipse77028"
     cx="-76.834816"
     cy="177.65056"
     rx="33.453773"
     ry="32.770298"
     transform="matrix(0.78401707,-0.62073926,0.70790059,0.70631208,0,0)" />
  <line
     id="eqWQrz9ZfFg5"
     x1="75.498039"
     y1="33.708519"
     x2="42.092205"
     y2="3.1125851"
     fill="none"
     stroke="#0e0e0e"
     stroke-width="6.22517"
     style="stroke:#72003a;stroke-linecap:round;stroke-opacity:1" />
  <ellipse
     style="fill:#af276a;fill-opacity:0.832168;stroke:#72003a;stroke-width:12.4217;stroke-linecap:round;stroke-linejoin:round;stroke-opacity:1"
     id="path65068"
     cx="-37.660431"
     cy="135.78491"
     rx="54.164967"
     ry="58.96954"
     transform="matrix(0.76177962,-0.64783625,0.68222308,0.73114408,0,0)" />
  <ellipse
     id="eqWQrz9ZfFg4"
     rx="12.19"
     ry="10.717545"
     transform="matrix(0.42592613,-0.90475794,0.93728523,0.34856334,0,0)"
     fill="#0a0a0b"
     stroke="none"
     stroke-width="0"
     stroke-miterlimit="1"
     cx="-114.47775"
     cy="105.87646"
     style="fill:#72003a;fill-opacity:1" />
  <ellipse
     id="ellipse2324"
     rx="11.96106"
     ry="10.885383"
     transform="matrix(0.06559958,0.99784603,-0.99865419,0.05186337,0,0)"
     fill="#0a0a0b"
     stroke="none"
     stroke-width="0"
     stroke-miterlimit="1"
     cx="118.976"
     cy="-68.978226"
     style="fill:#72003a;fill-opacity:1" />
  <ellipse
     id="ellipse2318"
     rx="13.44962"
     ry="9.6800556"
     transform="matrix(0.9994871,0.03202388,-0.04052582,0.99917849,0,0)"
     fill="#0a0a0b"
     stroke="none"
     stroke-width="0"
     stroke-miterlimit="1"
     cx="54.245007"
     cy="91.922653"
     style="fill:#72003a;fill-opacity:1" />
  <ellipse
     style="fill:#af276a;fill-opacity:0.832168;stroke:#72003a;stroke-width:6.08481;stroke-linecap:round;stroke-linejoin:round;stroke-opacity:1"
     id="ellipse67900"
     cx="21.074192"
     cy="93.011734"
     rx="27.872223"
     ry="27.498219"
     transform="matrix(0.78401707,-0.62073926,0.70790059,0.70631208,0,0)" />
  <line
     id="eqWQrz9ZfFg6"
     x1="63.655514"
     y1="47.407326"
     x2="21.604939"
     y2="26.893497"
     fill="none"
     stroke="#0e0e0e"
     stroke-width="6.22517"
     style="stroke:#72003a;stroke-linecap:round;stroke-opacity:1" />
  <ellipse
     id="ellipse76916"
     rx="9.8087378"
     ry="7.600533"
     transform="matrix(0.87104536,-0.49120258,0.5732622,0.81937198,0,0)"
     fill="#0a0a0b"
     stroke="none"
     stroke-width="0"
     stroke-miterlimit="1"
     cx="-3.9193172"
     cy="167.92345"
     style="fill:#72003a;fill-opacity:1" />
  <ellipse
     style="fill:#af276a;fill-opacity:0.832168;stroke:#72003a;stroke-width:3.74613;stroke-linecap:round;stroke-linejoin:round;stroke-opacity:1"
     id="ellipse76608"
     cx="-46.68837"
     cy="183.32231"
     rx="17.399075"
     ry="16.696459"
     transform="matrix(0.78401707,-0.62073926,0.70790059,0.70631208,0,0)" />
  <ellipse
     id="ellipse76918"
     rx="6.9830709"
     ry="6.0212393"
     transform="matrix(0.07835988,-0.99692514,0.9960652,0.0886235,0,0)"
     fill="#0a0a0b"
     stroke="none"
     stroke-width="0"
     stroke-miterlimit="1"
     cx="-113.55657"
     cy="38.313385"
     style="fill:#72003a;fill-opacity:1" />
  <ellipse
     style="fill:#af276a;fill-opacity:0.832168;stroke:#72003a;stroke-width:3.74613;stroke-linecap:round;stroke-linejoin:round;stroke-opacity:1"
     id="ellipse76920"
     cx="7.0461569"
     cy="152.82784"
     rx="17.399075"
     ry="16.696459"
     transform="matrix(0.78401707,-0.62073926,0.70790059,0.70631208,0,0)" />
  <ellipse
     style="fill:#af276a;fill-opacity:0.832168;stroke:#72003a;stroke-width:3.29488;stroke-linecap:round;stroke-linejoin:round;stroke-opacity:1"
     id="ellipse76922"
     cx="-166.58574"
     cy="118.14023"
     rx="9.5661402"
     ry="23.492573"
     transform="matrix(0.02756477,-0.99962002,0.99976282,0.02177832,0,0)" />
  <ellipse
     style="fill:#af276a;fill-opacity:0.832168;stroke:#72003a;stroke-width:3.29488;stroke-linecap:round;stroke-linejoin:round;stroke-opacity:1"
     id="ellipse77026"
     cx="-110.52531"
     cy="133.6564"
     rx="9.5661402"
     ry="23.492573"
     transform="matrix(0.02756477,-0.99962002,0.99976282,0.02177832,0,0)" />
  <ellipse
     id="ellipse77034"
     rx="7.8105659"
     ry="5.4023523"
     transform="matrix(-0.9799523,-0.19923224,0.28132861,-0.95961149,0,0)"
     fill="#0a0a0b"
     stroke="none"
     stroke-width="0"
     stroke-miterlimit="1"
     cx="-111.91972"
     cy="-161.56427"
     style="fill:#72003a;fill-opacity:1" />
  <ellipse
     id="ellipse77036"
     rx="4.4248853"
     ry="3.1477127"
     transform="matrix(-0.98598228,-0.16685007,0.31811535,-0.94805201,0,0)"
     fill="#0a0a0b"
     stroke="none"
     stroke-width="0"
     stroke-miterlimit="1"
     cx="-105.94352"
     cy="-151.33925"
     style="fill:#72003a;fill-opacity:1" />
  <ellipse
     id="ellipse77038"
     rx="4.4248853"
     ry="3.1477127"
     transform="matrix(-0.98598228,-0.16685007,0.31811535,-0.94805201,0,0)"
     fill="#0a0a0b"
     stroke="none"
     stroke-width="0"
     stroke-miterlimit="1"
     cx="-122.51179"
     cy="-181.20557"
     style="fill:#72003a;fill-opacity:1" />
  <ellipse
     id="ellipse77044"
     rx="4.7003851"
     ry="4.5163436"
     transform="matrix(-0.96473328,0.26322938,0.63341252,-0.7738143,0,0)"
     fill="#0a0a0b"
     stroke="none"
     stroke-width="0"
     stroke-miterlimit="1"
     cx="-226.65765"
     cy="-144.01025"
     style="fill:#72003a;fill-opacity:1" />
  <ellipse
     style="fill:#af276a;fill-opacity:0.832168;stroke:#72003a;stroke-width:1.93194;stroke-linecap:round;stroke-linejoin:round;stroke-opacity:1"
     id="ellipse77046"
     cx="-54.885422"
     cy="116.25729"
     rx="5.5948877"
     ry="13.809644"
     transform="matrix(0.07445262,-0.99722455,0.99988555,-0.01512905,0,0)" />
  <ellipse
     id="ellipse77052"
     rx="13.156775"
     ry="9.618762"
     transform="matrix(-0.99089819,-0.1346134,0.35214174,-0.93594668,0,0)"
     fill="#0a0a0b"
     stroke="none"
     stroke-width="0"
     stroke-miterlimit="1"
     cx="-92.211334"
     cy="-29.698511"
     style="fill:#72003a;fill-opacity:1" />
</svg>
