<?xml version="1.0" encoding="UTF-8" standalone="no"?>
<!-- Created with Inkscape (http://www.inkscape.org/) -->

<svg
   width="300"
   height="300"
   viewBox="0 0 79.375004 79.374996"
   version="1.1"
   id="svg21096"
   inkscape:version="1.1.1 (3bf5ae0d25, 2021-09-20)"
   sodipodi:docname="butterfly-larva-walk-3.svg"
   xmlns:inkscape="http://www.inkscape.org/namespaces/inkscape"
   xmlns:sodipodi="http://sodipodi.sourceforge.net/DTD/sodipodi-0.dtd"
   xmlns:xlink="http://www.w3.org/1999/xlink"
   xmlns="http://www.w3.org/2000/svg"
   xmlns:svg="http://www.w3.org/2000/svg">
  <sodipodi:namedview
     id="namedview21098"
     pagecolor="#505050"
     bordercolor="#ffffff"
     borderopacity="1"
     inkscape:pageshadow="0"
     inkscape:pageopacity="0"
     inkscape:pagecheckerboard="1"
     inkscape:document-units="mm"
     showgrid="false"
     fit-margin-top="0"
     fit-margin-left="0"
     fit-margin-right="0"
     fit-margin-bottom="0"
     units="px"
     inkscape:zoom="2.1619135"
     inkscape:cx="125.12064"
     inkscape:cy="142.23511"
     inkscape:window-width="1920"
     inkscape:window-height="1017"
     inkscape:window-x="3192"
     inkscape:window-y="-8"
     inkscape:window-maximized="1"
     inkscape:current-layer="layer1"
     inkscape:snap-global="false" />
  <defs
     id="defs21093">
    <linearGradient
       id="linearGradient2328"
       inkscape:swatch="solid">
      <stop
         style="stop-color:#2d2d2d;stop-opacity:1;"
         offset="0"
         id="stop2326" />
    </linearGradient>
    <linearGradient
       id="linearGradient2322"
       inkscape:swatch="solid">
      <stop
         style="stop-color:#2d2d2d;stop-opacity:1;"
         offset="0"
         id="stop2320" />
    </linearGradient>
    <linearGradient
       id="linearGradient2316"
       inkscape:swatch="solid">
      <stop
         style="stop-color:#2d2d2d;stop-opacity:1;"
         offset="0"
         id="stop2314" />
    </linearGradient>
    <linearGradient
       id="linearGradient2310"
       inkscape:swatch="solid">
      <stop
         style="stop-color:#262b57;stop-opacity:1;"
         offset="0"
         id="stop2308" />
    </linearGradient>
  </defs>
  <g
     inkscape:label="Layer 1"
     inkscape:groupmode="layer"
     id="layer1"
     transform="translate(133.88342,-85.894773)">
    <use
       x="0"
       y="0"
       xlink:href="#path64348"
       id="use65759"
       transform="matrix(-0.89019573,0.41743917,-0.41743917,-0.89019573,-133.59908,299.99514)"
       width="100%"
       height="100%"
       style="stroke-width:1.01708"
       inkscape:transform-center-x="8.5250364"
       inkscape:transform-center-y="5.2580932" />
    <use
       x="0"
       y="0"
       xlink:href="#path90240"
       inkscape:transform-center-x="5.2991423"
       inkscape:transform-center-y="3.7326981"
       id="use65761"
       transform="matrix(-0.92552361,0.33182819,-0.33182819,-0.92552361,-148.60162,296.2659)"
       width="100%"
       height="100%"
       style="stroke-width:1.01708" />
    <path
       id="path80592"
       d="m -106.10049,95.722481 c -0.20927,4.183087 -2.35322,7.177789 3.27737,8.305769 5.630574,1.128 3.185757,-2.83327 3.395017,-7.01636 0.20926,-4.183097 0.377251,-7.540868 -5.253337,-8.668852 -5.63057,-1.127974 -1.20979,3.196346 -1.41905,7.379443 z"
       fill="#2c4d90"
       stroke="#253156"
       stroke-width="1.56719"
       stroke-miterlimit="1"
       sodipodi:nodetypes="sssss"
       style="stroke-width:0.801105;stroke-miterlimit:1;stroke-dasharray:none;shape-rendering:geometricPrecision;text-rendering:geometricPrecision"
       inkscape:transform-center-x="3.1077074"
       inkscape:transform-center-y="-29.738257" />
    <path
       id="path50113"
       d="m -106.31508,104.92517 c 0.12933,3.23535 -1.64592,5.43889 4.11191,5.12878 6.657287,-0.35855 4.758591,-3.06121 4.62932,-6.29656 -0.129331,-3.23533 0.923804,-6.443661 -5.70312,-5.748315 -5.59889,0.587455 -3.1674,3.680745 -3.03811,6.916095 z"
       fill="#2c4d90"
       stroke="#253156"
       stroke-width="0.928501"
       stroke-miterlimit="1"
       sodipodi:nodetypes="sssss"
       style="stroke-width:0.801105;stroke-miterlimit:1.85714;stroke-dasharray:none;shape-rendering:geometricPrecision;text-rendering:geometricPrecision"
       inkscape:transform-center-x="2.6155306"
       inkscape:transform-center-y="-21.320342" />
    <use
       x="0"
       y="0"
       xlink:href="#path64348"
       id="use65257"
       transform="matrix(0.66530937,0.10563301,-0.10563301,0.66530937,-15.412236,33.228411)"
       width="100%"
       height="100%"
       style="stroke-width:1.48447"
       inkscape:transform-center-x="-6.8381537"
       inkscape:transform-center-y="-12.090622" />
    <path
       id="path57678"
       d="m -91.027663,114.60494 c 0.448131,0.51939 -0.876449,1.1772 -1.447801,1.42054 -0.624161,0.26581 -1.838615,0.10362 -1.650438,-0.88794 0.127321,-0.67079 0.278579,-1.09321 0.717232,-1.28986 0.705905,-0.31634 1.932832,0.23783 2.380959,0.75724 z"
       fill="#e2e264"
       stroke="#eca53c"
       stroke-width="2.25252"
       stroke-miterlimit="1"
       inkscape:transform-center-x="-5.0854374"
       inkscape:transform-center-y="-11.906685"
       sodipodi:nodetypes="sssss"
       style="stroke-width:0.736659;stroke-miterlimit:1;stroke-dasharray:none;shape-rendering:geometricPrecision;text-rendering:geometricPrecision" />
    <path
       id="path50111"
       d="m -104.91329,114.40119 c 1.07036,3.54925 -0.45864,6.56642 6.43142,4.36862 7.966417,-2.54117 4.902241,-4.92956 3.831904,-8.47881 -1.070325,-3.54925 -0.700172,-7.44914 -8.534694,-4.54398 -6.61911,2.45449 -2.79896,5.10492 -1.72863,8.65417 z"
       fill="#2c4d90"
       stroke="#253156"
       stroke-width="1.11263"
       stroke-miterlimit="1"
       sodipodi:nodetypes="sssss"
       style="stroke-width:0.801105;stroke-miterlimit:1.85714;stroke-dasharray:none;shape-rendering:geometricPrecision;text-rendering:geometricPrecision"
       inkscape:transform-center-x="-0.0081654809"
       inkscape:transform-center-y="0.75728521" />
    <use
       x="0"
       y="0"
       xlink:href="#path64348"
       id="use65755"
       transform="matrix(-0.77648145,0.21375847,-0.21375847,-0.77648145,-150.14274,252.12914)"
       width="100%"
       height="100%"
       style="stroke-width:1.24167"
       inkscape:transform-center-x="8.4121123"
       inkscape:transform-center-y="1.6588867" />
    <use
       x="0"
       y="0"
       xlink:href="#path90240"
       inkscape:transform-center-x="5.2345857"
       inkscape:transform-center-y="0.85012659"
       id="use65757"
       transform="matrix(-0.91638229,0.20528081,-0.26131202,-0.77852452,-156.46394,251.75359)"
       width="100%"
       height="100%"
       style="stroke-width:1.24167" />
    <path
       id="path50109"
       d="m -104.18662,122.34786 c -0.0787,3.894 -2.45256,6.47879 4.740303,6.31411 8.316511,-0.19043 6.152424,-3.50801 6.231159,-7.40201 0.07873,-3.89398 1.627788,-7.71275 -6.675865,-7.11638 -7.015497,0.50385 -4.216877,4.31031 -4.295597,8.20428 z"
       fill="#2c4d90"
       stroke="#253156"
       stroke-width="1.23086"
       stroke-miterlimit="1"
       sodipodi:nodetypes="sssss"
       style="stroke-width:0.740041;stroke-miterlimit:1.85714;stroke-dasharray:none;shape-rendering:geometricPrecision;text-rendering:geometricPrecision"
       inkscape:transform-center-x="1.2185766"
       inkscape:transform-center-y="-5.4783021" />
    <path
       id="eFnj7eCV8wJ4"
       d="m -105.39055,130.95184 c -0.52706,3.40212 -3.29689,5.40317 4.2197,6.05595 8.69085,0.7548 6.814158,-2.391 7.341235,-5.79314 0.527077,-3.40212 2.578212,-6.57542 -6.145618,-6.97318 -7.370497,-0.33604 -4.888247,3.30824 -5.415317,6.71037 z"
       fill="#2c4d90"
       stroke="#253156"
       stroke-width="1.094"
       stroke-miterlimit="1"
       sodipodi:nodetypes="sssss"
       style="stroke-width:0.801105;stroke-miterlimit:1.85714;stroke-dasharray:none;shape-rendering:geometricPrecision;text-rendering:geometricPrecision"
       inkscape:transform-center-x="-0.18024406"
       inkscape:transform-center-y="6.2086034" />
    <path
       id="eFnj7eCV8wJ2"
       d="m -105.99512,137.20053 c -0.48186,3.42108 -5.08753,16.69653 6.038947,15.60453 6.517685,-0.63969 7.081494,-6.01425 4.428223,-16.09424 -0.944247,-3.58733 -9.94361,-3.22718 -10.46717,0.48971 z"
       fill="#2c4d90"
       stroke="#253156"
       stroke-width="4.25672"
       stroke-miterlimit="1"
       style="stroke-width:0.801105;stroke-miterlimit:1.85714;stroke-dasharray:none;shape-rendering:geometricPrecision;text-rendering:geometricPrecision"
       sodipodi:nodetypes="ssss"
       inkscape:transform-center-x="-0.12561526"
       inkscape:transform-center-y="9.0407664" />
    <ellipse
       style="fill:#000000;fill-opacity:0.351981;stroke-width:0.736659;stroke-linecap:round;stroke-linejoin:round;stroke-miterlimit:1;stroke-dasharray:none;paint-order:fill markers stroke"
       id="path64348"
       cx="135.51682"
       cy="93.834785"
       rx="5.2542429"
       ry="5.5010862"
       inkscape:transform-center-x="-9.6565247"
       inkscape:transform-center-y="12.377595"
       transform="rotate(89.031035)" />
    <path
       id="path90240"
       d="m -92.71043,136.40082 c 0.523155,-0.71302 -1.325234,-0.95739 -2.116984,-1.01947 -0.864887,-0.0678 -2.4542,0.5289 -2.067905,1.52681 0.261318,0.67509 0.520262,1.07546 1.129529,1.13359 0.980361,0.0935 2.532217,-0.9279 3.05536,-1.64093 z"
       fill="#e2e264"
       stroke="#eca53c"
       stroke-width="2.25252"
       stroke-miterlimit="1"
       inkscape:transform-center-x="-6.0323272"
       inkscape:transform-center-y="2.214678"
       sodipodi:nodetypes="sssss"
       style="stroke-width:0.736659;stroke-miterlimit:1;stroke-dasharray:none;shape-rendering:geometricPrecision;text-rendering:geometricPrecision" />
    <use
       x="0"
       y="0"
       xlink:href="#path64348"
       id="use65263"
       transform="matrix(0.65453857,0,0,0.65453857,-48.504702,7.4718496)"
       width="100%"
       height="100%"
       style="stroke-width:1.5278"
       inkscape:transform-center-x="8.9415758"
       inkscape:transform-center-y="-28.11976" />
    <path
       id="path57817"
       d="m -107.53675,97.086979 c -0.65806,0.03293 -0.22916,1.193516 -0.0162,1.670964 0.23262,0.52155 1.15499,1.146652 1.71499,0.466585 0.37882,-0.460062 0.56996,-0.791832 0.41321,-1.164014 -0.25223,-0.59888 -1.45392,-1.006487 -2.11198,-0.973534 z"
       fill="#e2e264"
       stroke="#eca53c"
       stroke-width="2.25252"
       stroke-miterlimit="1"
       inkscape:transform-center-x="7.156059"
       inkscape:transform-center-y="-27.014551"
       sodipodi:nodetypes="sssss"
       style="stroke-width:0.736659;stroke-miterlimit:1;stroke-dasharray:none;shape-rendering:geometricPrecision;text-rendering:geometricPrecision" />
    <use
       x="0"
       y="0"
       xlink:href="#path64348"
       id="use65265"
       transform="matrix(0.65453857,0,0,0.65453857,-37.916053,1.4276928)"
       width="100%"
       height="100%"
       style="stroke-width:1.5278"
       inkscape:transform-center-x="-2.3813768"
       inkscape:transform-center-y="-34.775837" />
    <path
       id="path57863"
       d="m -99.053454,91.462521 c 0.126235,-0.611592 -0.799649,-0.567798 -1.188836,-0.51643 -0.42513,0.0562 -1.08112,0.711875 -0.7232,1.428055 0.24213,0.484474 0.43541,0.758835 0.73669,0.727225 0.484787,-0.05091 1.04913,-1.027268 1.175346,-1.63885 z"
       fill="#e2e264"
       stroke="#eca53c"
       stroke-width="2.25252"
       stroke-miterlimit="1"
       inkscape:transform-center-x="-0.15200028"
       inkscape:transform-center-y="-33.919024"
       sodipodi:nodetypes="sssss"
       style="stroke-width:0.736659;stroke-miterlimit:1;stroke-dasharray:none;shape-rendering:geometricPrecision;text-rendering:geometricPrecision" />
    <use
       x="0"
       y="0"
       xlink:href="#path64348"
       id="use65261"
       transform="matrix(0.4681185,-0.45747766,0.45747766,0.4681185,-116.28352,-3.4014559)"
       width="100%"
       height="100%"
       style="stroke-width:1.5278"
       inkscape:transform-center-x="-3.6675005"
       inkscape:transform-center-y="-8.7237247" />
    <path
       id="path57966"
       d="m -97.68223,102.85641 c 0.535102,-0.0424 0.322275,1.09691 0.205282,1.56965 -0.127835,0.51641 -0.800657,1.20709 -1.331026,0.62996 -0.358785,-0.39046 -0.551282,-0.68115 -0.467556,-1.04863 0.134776,-0.59132 1.058119,-1.10864 1.593264,-1.15096 z"
       fill="#e2e264"
       stroke="#eca53c"
       stroke-width="2.25252"
       stroke-miterlimit="1"
       inkscape:transform-center-x="-1.7697414"
       inkscape:transform-center-y="-7.3017601"
       sodipodi:nodetypes="sssss"
       style="stroke-width:0.736659;stroke-miterlimit:1;stroke-dasharray:none;shape-rendering:geometricPrecision;text-rendering:geometricPrecision" />
    <use
       x="0"
       y="0"
       xlink:href="#path64348"
       id="use65747"
       transform="matrix(0.92603891,0.1359866,-0.1359866,0.92603891,13.215717,9.9458804)"
       width="100%"
       height="100%"
       style="stroke-width:1.06841"
       inkscape:transform-center-x="-9.7764295"
       inkscape:transform-center-y="-0.017459191" />
    <use
       x="0"
       y="0"
       xlink:href="#path90240"
       inkscape:transform-center-x="-6.8672301"
       inkscape:transform-center-y="0.10904238"
       id="use65749"
       transform="matrix(0.92603891,0.1359866,-0.1359866,0.92603891,13.493674,10.494762)"
       width="100%"
       height="100%"
       style="stroke-width:1.06841" />
    <use
       x="0"
       y="0"
       xlink:href="#path64348"
       id="use65751"
       transform="matrix(-0.44490813,-0.67132174,0.67132174,-0.44490813,-240.11348,112.13513)"
       width="100%"
       height="100%"
       style="stroke-width:1.24167"
       inkscape:transform-center-x="9.7370091"
       inkscape:transform-center-y="-14.262781" />
    <use
       x="0"
       y="0"
       xlink:href="#path90240"
       inkscape:transform-center-x="7.8141795"
       inkscape:transform-center-y="-12.142781"
       id="use65753"
       transform="matrix(-0.44490813,-0.67132174,0.67132174,-0.44490813,-239.38391,111.72984)"
       width="100%"
       height="100%"
       style="stroke-width:1.24167" />
    <use
       x="0"
       y="0"
       xlink:href="#path64348"
       id="use66042"
       transform="matrix(-0.35498366,1.1342206,-1.1342206,-0.35498366,20.199772,311.26283)"
       width="100%"
       height="100%"
       style="stroke-width:0.841415"
       inkscape:transform-center-x="1.9733798"
       inkscape:transform-center-y="24.288106" />
    <use
       x="0"
       y="0"
       xlink:href="#path90240"
       inkscape:transform-center-x="0.99812284"
       inkscape:transform-center-y="19.94322"
       id="use66044"
       transform="rotate(112.77784,-104.26853,143.11416)"
       width="100%"
       height="100%" />
  </g>
</svg>
