<?xml version="1.0" encoding="UTF-8" standalone="no"?>
<svg
   id="eFnj7eCV8wJ1"
   viewBox="0 0 700.5835 586.06458"
   shape-rendering="geometricPrecision"
   text-rendering="geometricPrecision"
   version="1.1"
   sodipodi:docname="butterfly.svg"
   width="700.5835"
   height="586.06458"
   inkscape:version="1.1 (c68e22c387, 2021-05-23)"
   xmlns:inkscape="http://www.inkscape.org/namespaces/inkscape"
   xmlns:sodipodi="http://sodipodi.sourceforge.net/DTD/sodipodi-0.dtd"
   xmlns="http://www.w3.org/2000/svg"
   xmlns:svg="http://www.w3.org/2000/svg">
  <defs
     id="defs112662" />
  <sodipodi:namedview
     id="namedview112660"
     pagecolor="#505050"
     bordercolor="#ffffff"
     borderopacity="1"
     inkscape:pageshadow="0"
     inkscape:pageopacity="0"
     inkscape:pagecheckerboard="1"
     showgrid="false"
     fit-margin-top="0"
     fit-margin-left="0"
     fit-margin-right="0"
     fit-margin-bottom="0"
     inkscape:zoom="0.840625"
     inkscape:cx="238.51301"
     inkscape:cy="160"
     inkscape:window-width="1920"
     inkscape:window-height="1017"
     inkscape:window-x="1272"
     inkscape:window-y="-8"
     inkscape:window-maximized="1"
     inkscape:current-layer="eFnj7eCV8wJ1" />
  <path
     id="eFnj7eCV8wJ2"
     d="m 309.72879,348.38597 c 0,-120.87258 1.83865,-219.82072 41.36972,-219.82072 39.53106,0 39.53106,98.94814 39.53106,219.82072 0,120.87258 0,217.8976 -39.53106,217.8976 -39.53107,0 -41.36972,-97.02502 -41.36972,-217.8976 z"
     fill="#2c4d90"
     stroke="#253156"
     stroke-width="5"
     stroke-miterlimit="1" />
  <path
     id="eFnj7eCV8wJ3"
     d="m 309.72879,348.03019 c 0,-76.14972 1.83865,-138.48705 41.36972,-138.48705 39.53106,0 39.53106,62.33733 39.53106,138.48705 0,76.14973 0,137.27549 -39.53106,137.27549 -39.53107,0 -41.36972,-61.12576 -41.36972,-137.27549 z"
     fill="#2c4d90"
     stroke="#253156"
     stroke-width="5"
     stroke-miterlimit="1" />
  <path
     id="eFnj7eCV8wJ4"
     d="m 309.72879,347.69365 c 0,-33.84433 1.83865,-61.54981 41.36972,-61.54981 39.53106,0 39.53106,27.70548 39.53106,61.54981 0,33.84432 0,61.01133 -39.53106,61.01133 -39.53107,0 -41.36972,-27.16701 -41.36972,-61.01133 z"
     fill="#2c4d90"
     stroke="#253156"
     stroke-width="5"
     stroke-miterlimit="1" />
  <path
     id="eFnj7eCV8wJ5"
     d="m 114.71888,552.34377 c 0,57.53102 85.28568,12.82082 137.14859,0 51.86291,-12.82081 89.89571,-46.6381 89.89571,-104.16912 0,-57.53102 -35.72778,-113.78474 -89.89571,-104.16913 -54.16793,9.61561 -137.14859,150.80724 -137.14859,208.33825 z"
     fill="#e2e264"
     stroke="#eca53c"
     stroke-width="10"
     stroke-miterlimit="1" />
  <path
     id="eFnj7eCV8wJ6"
     d="m 5,124.0217 c 0,-78.625727 119.39995,-17.52178 192.00803,0 72.60808,17.52178 125.854,63.73874 125.854,142.36447 0,78.62573 -50.0189,155.50581 -125.854,142.36447 C 121.17293,395.60931 5,202.64743 5,124.0217 Z"
     fill="#e2e264"
     stroke="#eca53c"
     stroke-width="10"
     stroke-miterlimit="1" />
  <path
     id="eFnj7eCV8wJ7"
     d="m 605.22678,539.20244 c 0,57.53102 -85.28568,12.82081 -137.14859,0 -51.86291,-12.82082 -89.89572,-46.63811 -89.89572,-104.16913 0,-57.53102 35.72779,-113.78473 89.89572,-104.16912 54.16793,9.61561 137.14859,150.80723 137.14859,208.33825 z"
     fill="#e2e264"
     stroke="#eca53c"
     stroke-width="10"
     stroke-miterlimit="1" />
  <path
     id="eFnj7eCV8wJ8"
     d="m 695.5835,132.78259 c 0,-78.625728 -119.39995,-17.52178 -192.00803,0 -72.60808,17.52178 -125.854,63.73874 -125.854,142.36447 0,78.62573 50.0189,155.50581 125.854,142.36447 C 579.41057,404.3702 695.5835,211.40831 695.5835,132.78259 Z"
     fill="#e2e264"
     stroke="#eca53c"
     stroke-width="10"
     stroke-miterlimit="1" />
  <path
     id="eFnj7eCV8wJ9"
     d="M 334.28415,143.5891 Q 279.8293,98.819739 266.67291,9.2810317"
     fill="none"
     stroke="#1c2f54"
     stroke-width="5"
     stroke-miterlimit="1" />
  <path
     id="eFnj7eCV8wJ10"
     d="m 368.91429,143.5891 c 0,0 44.52447,-47.007821 21.71528,-134.3080683"
     fill="none"
     stroke="#1c2f54"
     stroke-width="5"
     stroke-miterlimit="1" />
  <ellipse
     id="eFnj7eCV8wJ11"
     rx="6.1569219"
     ry="7.4488411"
     fill="#253156"
     stroke="none"
     stroke-width="0"
     cx="266.89651"
     cy="8.1974373" />
  <ellipse
     id="eFnj7eCV8wJ12"
     rx="6.5973387"
     ry="8.5810623"
     fill="#253156"
     stroke="none"
     stroke-width="0"
     cx="390.86047"
     cy="8.5810623" />
</svg>
