<?xml version="1.0" encoding="UTF-8" standalone="no"?>
<svg
   id="eFnj7eCV8wJ1"
   viewBox="0 0 613.62836 486.71269"
   shape-rendering="geometricPrecision"
   text-rendering="geometricPrecision"
   version="1.1"
   sodipodi:docname="butterfly-profile.svg"
   width="613.62836"
   height="486.71268"
   inkscape:version="1.1.1 (3bf5ae0d25, 2021-09-20)"
   xmlns:inkscape="http://www.inkscape.org/namespaces/inkscape"
   xmlns:sodipodi="http://sodipodi.sourceforge.net/DTD/sodipodi-0.dtd"
   xmlns="http://www.w3.org/2000/svg"
   xmlns:svg="http://www.w3.org/2000/svg">
  <defs
     id="defs112662" />
  <sodipodi:namedview
     id="namedview112660"
     pagecolor="#505050"
     bordercolor="#ffffff"
     borderopacity="1"
     inkscape:pageshadow="0"
     inkscape:pageopacity="0"
     inkscape:pagecheckerboard="1"
     showgrid="false"
     fit-margin-top="0"
     fit-margin-left="0"
     fit-margin-right="0"
     fit-margin-bottom="0"
     inkscape:zoom="0.59441164"
     inkscape:cx="276.74424"
     inkscape:cy="-101.78132"
     inkscape:window-width="1920"
     inkscape:window-height="1017"
     inkscape:window-x="1272"
     inkscape:window-y="-8"
     inkscape:window-maximized="1"
     inkscape:current-layer="eFnj7eCV8wJ1"
     inkscape:snap-global="false" />
  <g
     id="g2605"
     transform="matrix(-0.43759561,1.1338705,-1.0927147,-0.3372475,527.58097,123.29381)"
     style="stroke-width:0.849235">
    <path
       id="eFnj7eCV8wJ5"
       d="m 188.88911,366.45414 c 24.08984,41.56006 68.11268,-30.11412 100.89953,-63.32056 32.78685,-33.20641 46.60715,-75.19529 22.51732,-116.75534 -24.08983,-41.56004 -73.92958,-65.70211 -109.75432,-33.74689 -35.82476,31.95521 -37.75235,172.26276 -13.66253,213.82279 z"
       fill="#e2e264"
       stroke="#eca53c"
       stroke-width="7.22991"
       stroke-miterlimit="1" />
    <path
       id="eFnj7eCV8wJ6"
       d="M -71.180843,107.69344 C -104.10362,50.894703 9.3242355,39.909674 70.078492,19.044651 130.83274,-1.8203803 189.35783,6.9831817 222.2806,63.781918 255.20337,120.58065 250.59654,199.21172 189.3024,224.73105 128.00825,250.25037 -38.258072,164.49217 -71.180843,107.69344 Z"
       fill="#e2e264"
       stroke="#eca53c"
       stroke-width="7.22991"
       stroke-miterlimit="1" />
  </g>
  <path
     id="eFnj7eCV8wJ2"
     d="m 374.48001,389.87725 c 98.31508,-60.93317 177.56012,-111.66089 150.96068,-129.86919 -26.59945,-18.20829 -107.08172,31.67254 -205.3968,92.6057 -98.3151,60.93318 -177.23311,109.84455 -150.63364,128.05285 26.59945,18.20828 106.75468,-29.85618 205.06976,-90.78936 z"
     fill="#2c4d90"
     stroke="#253156"
     stroke-width="4.25672"
     stroke-miterlimit="1"
     style="stroke-width:4.257;stroke-miterlimit:1;stroke-dasharray:none" />
  <path
     id="eFnj7eCV8wJ3"
     d="m 365.18946,399.51683 c 50.96115,-27.49079 91.98976,-51.24955 77.17708,-78.2192 -14.81265,-26.96965 -56.53022,-4.46529 -107.49137,23.02549 -50.96114,27.49078 -91.86791,49.55777 -77.05525,76.52743 14.81266,26.96966 56.40838,6.15706 107.36954,-21.33372 z"
     fill="#2c4d90"
     stroke="#253156"
     stroke-width="4.25672"
     stroke-miterlimit="1" />
  <path
     id="eFnj7eCV8wJ4"
     d="m 376.34987,392.66601 c 22.6494,-12.21813 40.50157,-23.47449 25.68892,-50.44414 -14.81266,-26.96965 -33.35382,-16.9677 -56.00322,-4.74957 -22.64939,12.21811 -40.83018,22.02566 -26.01753,48.99532 14.81268,26.96965 33.68243,18.4165 56.33183,6.19839 z"
     fill="#2c4d90"
     stroke="#253156"
     stroke-width="4.25672"
     stroke-miterlimit="1" />
  <g
     id="g10075"
     transform="translate(31.40111,-14.552669)">
    <path
       id="eFnj7eCV8wJ9"
       d="m 470.12068,270.43701 q 7.94847,-53.58786 61.66149,-96.51936"
       fill="none"
       stroke="#1c2f54"
       stroke-width="4.25672"
       stroke-miterlimit="1" />
    <ellipse
       id="eFnj7eCV8wJ11"
       rx="9.5130196"
       ry="11.221777"
       fill="#253156"
       stroke="none"
       stroke-width="0"
       cx="416.03418"
       cy="-378.56036"
       transform="matrix(0.50614685,0.86244731,-0.86477991,0.50215108,0,0)" />
  </g>
  <g
     id="g10079"
     transform="translate(17.311548,-8.0336165)">
    <path
       id="eFnj7eCV8wJ10"
       d="m 494.22903,264.71584 c 0,0 14.77498,-47.34663 81.74513,-63.30154"
       fill="none"
       stroke="#1c2f54"
       stroke-width="4.25672"
       stroke-miterlimit="1" />
    <ellipse
       id="eFnj7eCV8wJ12"
       rx="9.8201752"
       ry="11.997396"
       fill="#253156"
       stroke="none"
       stroke-width="0"
       cx="-345.70438"
       cy="-530.14191"
       transform="matrix(-0.21145745,-0.9773872,-0.96475244,0.26315912,0,0)" />
  </g>
  <path
     id="eFnj7eCV8wJ7"
     d="m 21.914643,270.66724 c -52.39157,25.06664 25.186698,82.16996 59.278373,123.15511 34.091674,40.98515 81.326494,60.40299 133.718054,35.33637 52.39158,-25.06663 88.17767,-81.65915 56.00859,-126.11066 C 238.75058,258.59656 74.306206,245.60062 21.914643,270.66724 Z"
     fill="#e2e264"
     stroke="#eca53c"
     stroke-width="8.51343"
     stroke-miterlimit="1" />
  <path
     id="eFnj7eCV8wJ8"
     d="m 342.04817,10.021207 c 75.05812,-36.944201 70.82493,107.392283 86.99574,185.938003 16.17081,78.54572 -3.8242,151.82452 -78.88232,188.76872 -75.05811,36.9442 -171.11255,24.63052 -192.92716,-54.98194 C 135.41983,250.13353 266.99006,46.965403 342.04817,10.021207 Z"
     fill="#e2e264"
     stroke="#eca53c"
     stroke-width="8.51343"
     stroke-miterlimit="1" />
  <path
     style="fill:none;stroke:#1c2f54;stroke-width:4.2;stroke-linecap:butt;stroke-linejoin:miter;stroke-miterlimit:4;stroke-dasharray:none;stroke-opacity:1"
     d="m 440.25752,347.44666 c 41.00934,-18.80305 51.00511,5.31591 44.13942,55.04035"
     id="path2656"
     sodipodi:nodetypes="cc" />
  <path
     style="fill:none;stroke:#1c2f54;stroke-width:4.2;stroke-linecap:butt;stroke-linejoin:miter;stroke-miterlimit:4;stroke-dasharray:none;stroke-opacity:1"
     d="m 418.71659,368.1988 c -74.65181,33.84663 -11.11212,92.9914 32.67852,82.24617"
     id="path4492"
     sodipodi:nodetypes="cc" />
  <path
     style="fill:none;stroke:#1c2f54;stroke-width:4.2;stroke-linecap:butt;stroke-linejoin:miter;stroke-miterlimit:4;stroke-dasharray:none;stroke-opacity:1"
     d="m 392.09855,386.3657 c -106.58373,44.15256 -3.12574,88.38518 40.35492,76.47178"
     id="path4494"
     sodipodi:nodetypes="cc" />
  <path
     style="fill:none;stroke:#1c2f54;stroke-width:4.2;stroke-linecap:butt;stroke-linejoin:miter;stroke-miterlimit:4;stroke-dasharray:none;stroke-opacity:1"
     d="m 418.20779,368.39023 c 41.00934,-18.80305 51.00511,5.3159 44.13942,55.04035"
     id="path10081"
     sodipodi:nodetypes="cc" />
</svg>
