<svg id="eFnj7eCV8wJ1" xmlns="http://www.w3.org/2000/svg" xmlns:xlink="http://www.w3.org/1999/xlink" viewBox="0 0 640 480" shape-rendering="geometricPrecision" text-rendering="geometricPrecision"><path id="eFnj7eCV8wJ2" d="M-39.484260,0.555444C-39.484260,-69.266480,-37.729402,-126.423777,0,-126.423777C37.729402,-126.423777,37.729402,-69.266480,37.729402,0.555444C37.729402,70.377368,37.729402,126.423777,0,126.423777C-37.729402,126.423776,-39.484260,70.377368,-39.484260,0.555444Z" transform="matrix(0.88273829692013 0 0 1.07446808439873 335.64348850000010 234.06057850000002)" fill="rgb(44,77,144)" stroke="rgb(37,49,86)" stroke-width="5" stroke-miterlimit="1"/><path id="eFnj7eCV8wJ3" d="M-39.484260,0.555444C-39.484260,-69.266480,-37.729402,-126.423777,0,-126.423777C37.729402,-126.423777,37.729402,-69.266480,37.729402,0.555444C37.729402,70.377368,37.729402,126.423777,0,126.423777C-37.729402,126.423776,-39.484260,70.377368,-39.484260,0.555444Z" transform="matrix(0.88273829692013 0 0 0.67691489977106 335.64348850000010 234.06057850000002)" fill="rgb(44,77,144)" stroke="rgb(37,49,86)" stroke-width="5" stroke-miterlimit="1"/><path id="eFnj7eCV8wJ4" d="M-39.484260,0.555444C-39.484260,-69.266480,-37.729402,-126.423777,0,-126.423777C37.729402,-126.423777,37.729402,-69.266480,37.729402,0.555444C37.729402,70.377368,37.729402,126.423777,0,126.423777C-37.729402,126.423776,-39.484260,70.377368,-39.484260,0.555444Z" transform="matrix(0.88273829692013 0 0 0.30085106963870 335.64348850000010 234.06057850000002)" fill="rgb(44,77,144)" stroke="rgb(37,49,86)" stroke-width="5" stroke-miterlimit="1"/><path id="eFnj7eCV8wJ5" d="M-161.768058,-88.360704C-161.768058,-137.160973,-61.172795,-99.235867,0,-88.360704C61.172795,-77.485541,106.032845,-48.800269,106.032845,0C106.032845,48.800269,63.891586,96.517076,0,88.360704C-63.891586,80.204332,-161.768058,-39.560435,-161.768058,-88.360704Z" transform="matrix(0.71428571340262 0 0 -0.73170731641676 252.04066900000004 296.59276799999992)" fill="rgb(226,226,100)" stroke="rgb(236,165,60)" stroke-width="10" stroke-miterlimit="1"/><path id="eFnj7eCV8wJ6" d="M-161.768058,-88.360704C-161.768058,-137.160973,-61.172795,-99.235867,0,-88.360704C61.172795,-77.485541,106.032845,-48.800269,106.032845,0C106.032845,48.800269,63.891586,96.517076,0,88.360704C-63.891586,80.204332,-161.768058,-39.560435,-161.768058,-88.360704Z" transform="matrix(1 0 0 1 205.82122300000000 183.76294599999997)" fill="rgb(226,226,100)" stroke="rgb(236,165,60)" stroke-width="10" stroke-miterlimit="1"/><path id="eFnj7eCV8wJ7" d="M-161.768058,-88.360704C-161.768058,-137.160973,-61.172795,-99.235867,0,-88.360704C61.172795,-77.485541,106.032845,-48.800269,106.032845,0C106.032845,48.800269,63.891586,96.517076,0,88.360704C-63.891586,80.204332,-161.768058,-39.560435,-161.768058,-88.360704Z" transform="matrix(-0.71428571340262 0 0 -0.73170731641676 434.19965900000011 288.43639500000000)" fill="rgb(226,226,100)" stroke="rgb(236,165,60)" stroke-width="10" stroke-miterlimit="1"/><path id="eFnj7eCV8wJ8" d="M-161.768058,-88.360704C-161.768058,-137.160973,-61.172795,-99.235867,0,-88.360704C61.172795,-77.485541,106.032845,-48.800269,106.032845,0C106.032845,48.800269,63.891586,96.517076,0,88.360704C-63.891586,80.204332,-161.768058,-39.560435,-161.768058,-88.360704Z" transform="matrix(-1 0 0 1 464.10635800000006 189.20052700000002)" fill="rgb(226,226,100)" stroke="rgb(236,165,60)" stroke-width="10" stroke-miterlimit="1"/><path id="eFnj7eCV8wJ9" d="M321.477276,101.989693Q275.598701,74.202902,264.514355,18.629320" transform="matrix(1 0 0 1 0 5.55735799999999)" fill="none" stroke="rgb(28,47,84)" stroke-width="5" stroke-miterlimit="1"/><path id="eFnj7eCV8wJ10" d="M350.653407,101.989693C350.653407,101.989693,388.165575,72.813563,368.948677,18.629320" transform="matrix(1 0 0 1 0 5.55735799999999)" fill="none" stroke="rgb(28,47,84)" stroke-width="5" stroke-miterlimit="1"/><ellipse id="eFnj7eCV8wJ11" rx="11.099531" ry="7.641368" transform="matrix(0.46733938801064 0 0 0.60502755336376 264.70273550000002 23.51412900000000)" fill="rgb(37,49,86)" stroke="none" stroke-width="0"/><ellipse id="eFnj7eCV8wJ12" rx="11.099531" ry="7.641368" transform="matrix(0.50076910161065 0 0 0.69699153293812 369.14321788556072 23.75223137243315)" fill="rgb(37,49,86)" stroke="none" stroke-width="0"/></svg>