<?xml version="1.0" encoding="UTF-8" standalone="no"?>
<svg
   id="eFnj7eCV8wJ1"
   viewBox="0 0 601.82489 494.37333"
   shape-rendering="geometricPrecision"
   text-rendering="geometricPrecision"
   version="1.1"
   sodipodi:docname="butterfly.svg"
   width="601.82489"
   height="494.37332"
   inkscape:version="1.1.1 (3bf5ae0d25, 2021-09-20)"
   xmlns:inkscape="http://www.inkscape.org/namespaces/inkscape"
   xmlns:sodipodi="http://sodipodi.sourceforge.net/DTD/sodipodi-0.dtd"
   xmlns="http://www.w3.org/2000/svg"
   xmlns:svg="http://www.w3.org/2000/svg">
  <defs
     id="defs112662" />
  <sodipodi:namedview
     id="namedview112660"
     pagecolor="#505050"
     bordercolor="#ffffff"
     borderopacity="1"
     inkscape:pageshadow="0"
     inkscape:pageopacity="0"
     inkscape:pagecheckerboard="1"
     showgrid="false"
     fit-margin-top="0"
     fit-margin-left="0"
     fit-margin-right="0"
     fit-margin-bottom="0"
     inkscape:zoom="3.3625"
     inkscape:cx="285.65056"
     inkscape:cy="491.15242"
     inkscape:window-width="1920"
     inkscape:window-height="1017"
     inkscape:window-x="1272"
     inkscape:window-y="-8"
     inkscape:window-maximized="1"
     inkscape:current-layer="eFnj7eCV8wJ1" />
  <path
     id="eFnj7eCV8wJ2"
     d="m 266.06298,200.54703 c 0,101.96956 1.57967,185.44339 35.54259,185.44339 33.96292,0 33.96292,-83.47383 33.96292,-185.44339 0,-101.969552 0,-183.821022 -33.96292,-183.821022 -33.96292,0 -35.54259,81.85147 -35.54259,183.821022 z"
     fill="#2c4d90"
     stroke="#253156"
     stroke-width="4.25672"
     stroke-miterlimit="1" />
  <path
     id="eFnj7eCV8wJ3"
     d="m 266.06298,200.84717 c 0,64.24082 1.57967,116.82933 35.54259,116.82933 33.96292,0 33.96292,-52.58851 33.96292,-116.82933 0,-64.24082 0,-115.807242 -33.96292,-115.807242 -33.96292,0 -35.54259,51.566422 -35.54259,115.807242 z"
     fill="#2c4d90"
     stroke="#253156"
     stroke-width="4.25672"
     stroke-miterlimit="1" />
  <path
     id="eFnj7eCV8wJ4"
     d="m 266.06298,201.13108 c 0,28.55148 1.57967,51.92416 35.54259,51.92416 33.96292,0 33.96292,-23.37268 33.96292,-51.92416 0,-28.55147 0,-51.46989 -33.96292,-51.46989 -33.96292,0 -35.54259,22.91842 -35.54259,51.46989 z"
     fill="#2c4d90"
     stroke="#253156"
     stroke-width="4.25672"
     stroke-miterlimit="1" />
  <path
     id="eFnj7eCV8wJ5"
     d="m 98.521165,28.485798 c 0,-48.533861 73.272775,-10.8158 117.830545,0 44.55776,10.81578 77.23346,39.34445 77.23346,87.878312 0,48.53385 -30.69535,95.99017 -77.23346,87.87832 C 169.81359,196.13059 98.521165,77.019638 98.521165,28.485798 Z"
     fill="#e2e264"
     stroke="#eca53c"
     stroke-width="8.51343"
     stroke-miterlimit="1" />
  <path
     id="eFnj7eCV8wJ6"
     d="m 4.2567148,389.82341 c 0,66.32961 102.5818852,14.78159 164.9627652,0 62.38088,-14.78158 108.12686,-53.77076 108.12686,-120.10037 0,-66.3296 -42.9735,-131.18656 -108.12686,-120.10037 C 104.06612,160.70886 4.2567148,323.49381 4.2567148,389.82341 Z"
     fill="#e2e264"
     stroke="#eca53c"
     stroke-width="8.51343"
     stroke-miterlimit="1" />
  <path
     id="eFnj7eCV8wJ7"
     d="m 519.93865,39.571978 c 0,-48.5338574 -73.27278,-10.81579 -117.83055,0 -44.55777,10.8158 -77.23347,39.34447 -77.23347,87.878322 0,48.53386 30.69535,95.99016 77.23347,87.87831 46.53811,-8.11184 117.83055,-127.222782 117.83055,-175.756632 z"
     fill="#e2e264"
     stroke="#eca53c"
     stroke-width="8.51343"
     stroke-miterlimit="1" />
  <path
     id="eFnj7eCV8wJ8"
     d="m 597.56819,382.43262 c 0,66.32961 -102.58189,14.78159 -164.96277,0 -62.38088,-14.78158 -108.12686,-53.77076 -108.12686,-120.10037 0,-66.3296 42.9735,-131.18656 108.12686,-120.10037 65.15335,11.08619 164.96277,173.87114 164.96277,240.20074 z"
     fill="#e2e264"
     stroke="#eca53c"
     stroke-width="8.51343"
     stroke-miterlimit="1" />
  <path
     id="eFnj7eCV8wJ9"
     d="m 285.07782,373.91092 q -46.78462,37.76797 -58.08787,113.3039"
     fill="none"
     stroke="#1c2f54"
     stroke-width="4.25672"
     stroke-miterlimit="1" />
  <path
     id="eFnj7eCV8wJ10"
     d="m 319.29109,373.31612 c 0,0 38.25299,39.65636 18.65658,113.3039"
     fill="none"
     stroke="#1c2f54"
     stroke-width="4.25672"
     stroke-miterlimit="1" />
  <ellipse
     id="eFnj7eCV8wJ11"
     rx="9.0071621"
     ry="12.083189"
     fill="#253156"
     stroke="none"
     stroke-width="0"
     cx="230.60214"
     cy="-481.43753"
     transform="scale(1,-1)" />
  <ellipse
     id="eFnj7eCV8wJ12"
     rx="8.9283237"
     ry="12.296018"
     fill="#253156"
     stroke="none"
     stroke-width="0"
     cx="493.31564"
     cy="-312.11658"
     transform="matrix(0.92134823,0.38873826,0.37379257,-0.92751233,0,0)" />
</svg>
