<?xml version="1.0" encoding="UTF-8" standalone="no"?>
<!-- Created with Inkscape (http://www.inkscape.org/) -->

<svg
   width="300"
   height="300"
   viewBox="0 0 79.375004 79.374996"
   version="1.1"
   id="svg21096"
   inkscape:version="1.1.1 (3bf5ae0d25, 2021-09-20)"
   sodipodi:docname="butterfly-larva-walk-4.svg"
   xmlns:inkscape="http://www.inkscape.org/namespaces/inkscape"
   xmlns:sodipodi="http://sodipodi.sourceforge.net/DTD/sodipodi-0.dtd"
   xmlns:xlink="http://www.w3.org/1999/xlink"
   xmlns="http://www.w3.org/2000/svg"
   xmlns:svg="http://www.w3.org/2000/svg">
  <sodipodi:namedview
     id="namedview21098"
     pagecolor="#505050"
     bordercolor="#ffffff"
     borderopacity="1"
     inkscape:pageshadow="0"
     inkscape:pageopacity="0"
     inkscape:pagecheckerboard="1"
     inkscape:document-units="mm"
     showgrid="false"
     fit-margin-top="0"
     fit-margin-left="0"
     fit-margin-right="0"
     fit-margin-bottom="0"
     units="px"
     inkscape:zoom="2.1619135"
     inkscape:cx="125.12064"
     inkscape:cy="142.23511"
     inkscape:window-width="1920"
     inkscape:window-height="1017"
     inkscape:window-x="1272"
     inkscape:window-y="-8"
     inkscape:window-maximized="1"
     inkscape:current-layer="layer1"
     inkscape:snap-global="false" />
  <defs
     id="defs21093">
    <linearGradient
       id="linearGradient2328"
       inkscape:swatch="solid">
      <stop
         style="stop-color:#2d2d2d;stop-opacity:1;"
         offset="0"
         id="stop2326" />
    </linearGradient>
    <linearGradient
       id="linearGradient2322"
       inkscape:swatch="solid">
      <stop
         style="stop-color:#2d2d2d;stop-opacity:1;"
         offset="0"
         id="stop2320" />
    </linearGradient>
    <linearGradient
       id="linearGradient2316"
       inkscape:swatch="solid">
      <stop
         style="stop-color:#2d2d2d;stop-opacity:1;"
         offset="0"
         id="stop2314" />
    </linearGradient>
    <linearGradient
       id="linearGradient2310"
       inkscape:swatch="solid">
      <stop
         style="stop-color:#262b57;stop-opacity:1;"
         offset="0"
         id="stop2308" />
    </linearGradient>
  </defs>
  <g
     inkscape:label="Layer 1"
     inkscape:groupmode="layer"
     id="layer1"
     transform="translate(133.88342,-85.894773)">
    <use
       x="0"
       y="0"
       xlink:href="#path64348"
       id="use65759"
       transform="matrix(-0.92552361,0.33182819,-0.33182819,-0.92552361,-148.00658,296.00107)"
       width="100%"
       height="100%"
       style="stroke-width:1.01708"
       inkscape:transform-center-x="8.6146981"
       inkscape:transform-center-y="14.223432" />
    <use
       x="0"
       y="0"
       xlink:href="#path90240"
       inkscape:transform-center-x="5.2987199"
       inkscape:transform-center-y="12.983171"
       id="use65761"
       transform="matrix(-0.92552361,0.33182819,-0.33182819,-0.92552361,-147.94739,296.15778)"
       width="100%"
       height="100%"
       style="stroke-width:1.01708" />
    <path
       id="path80592"
       d="m -106.55039,94.498642 c -0.20927,4.183087 -2.35322,7.177788 3.27736,8.305768 5.63058,1.128 3.18576,-2.833272 3.395027,-7.016359 0.20926,-4.183097 0.37725,-7.540868 -5.253337,-8.668852 -5.63057,-1.127974 -1.20979,3.196346 -1.41905,7.379443 z"
       fill="#2c4d90"
       stroke="#253156"
       stroke-width="1.56719"
       stroke-miterlimit="1"
       sodipodi:nodetypes="sssss"
       style="stroke-width:0.801105;stroke-miterlimit:1;stroke-dasharray:none;shape-rendering:geometricPrecision;text-rendering:geometricPrecision"
       inkscape:transform-center-x="3.1077074"
       inkscape:transform-center-y="-29.738257" />
    <path
       id="path50113"
       d="m -107.49928,104.31325 c 0.12933,3.23535 -1.64592,5.43889 4.11189,5.12878 6.6573,-0.35855 4.758604,-3.06121 4.629333,-6.29656 -0.129331,-3.235332 0.923804,-6.44366 -5.703123,-5.748314 -5.59888,0.587455 -3.16739,3.680744 -3.0381,6.916094 z"
       fill="#2c4d90"
       stroke="#253156"
       stroke-width="0.928501"
       stroke-miterlimit="1"
       sodipodi:nodetypes="sssss"
       style="stroke-width:0.801105;stroke-miterlimit:1.85714;stroke-dasharray:none;shape-rendering:geometricPrecision;text-rendering:geometricPrecision"
       inkscape:transform-center-x="2.6155306"
       inkscape:transform-center-y="-21.320342" />
    <use
       x="0"
       y="0"
       xlink:href="#path64348"
       id="use65257"
       transform="matrix(0.673643,0,0,0.673643,-32.284117,21.494743)"
       width="100%"
       height="100%"
       style="stroke-width:1.48447"
       inkscape:transform-center-x="-7.0710713"
       inkscape:transform-center-y="-10.866033" />
    <path
       id="path57678"
       d="m -93.847092,113.72171 c 0.524031,0.44269 -0.681012,1.30007 -1.207138,1.62999 -0.574758,0.3604 -1.799621,0.39065 -1.769257,-0.61815 0.02056,-0.68246 0.103708,-1.12337 0.506098,-1.38637 0.647568,-0.42312 1.946215,-0.0682 2.470247,0.37452 z"
       fill="#e2e264"
       stroke="#eca53c"
       stroke-width="2.25252"
       stroke-miterlimit="1"
       inkscape:transform-center-x="-5.3860647"
       inkscape:transform-center-y="-10.337512"
       sodipodi:nodetypes="sssss"
       style="stroke-width:0.736659;stroke-miterlimit:1;stroke-dasharray:none;shape-rendering:geometricPrecision;text-rendering:geometricPrecision" />
    <path
       id="path50111"
       d="m -107.48799,113.18043 c 0.22975,3.70001 -1.94912,6.28723 5.26105,5.72444 8.336549,-0.65072 5.900235,-3.67693 5.670502,-7.37694 -0.229723,-3.7 1.023048,-7.4117 -7.268402,-6.37645 -7.00515,0.87466 -3.89288,4.32895 -3.66315,8.02895 z"
       fill="#2c4d90"
       stroke="#253156"
       stroke-width="1.11263"
       stroke-miterlimit="1"
       sodipodi:nodetypes="sssss"
       style="stroke-width:0.801105;stroke-miterlimit:1.85714;stroke-dasharray:none;shape-rendering:geometricPrecision;text-rendering:geometricPrecision"
       inkscape:transform-center-x="1.5549914"
       inkscape:transform-center-y="-12.727936" />
    <use
       x="0"
       y="0"
       xlink:href="#path64348"
       id="use65755"
       transform="matrix(-0.75811421,0.27180686,-0.27180686,-0.75811421,-140.64822,255.65615)"
       width="100%"
       height="100%"
       style="stroke-width:1.24167"
       inkscape:transform-center-x="8.2627538"
       inkscape:transform-center-y="2.2896371" />
    <use
       x="0"
       y="0"
       xlink:href="#path90240"
       inkscape:transform-center-x="5.1281881"
       inkscape:transform-center-y="1.261077"
       id="use65757"
       transform="matrix(-0.89825571,0.27392223,-0.31937887,-0.75655901,-146.90559,255.75804)"
       width="100%"
       height="100%"
       style="stroke-width:1.24167" />
    <path
       id="path50109"
       d="m -105.62911,123.43228 c 0.53287,3.85817 -1.40628,6.78322 5.671777,5.49268 8.183763,-1.49218 5.526223,-4.42937 4.993372,-8.28754 -0.532851,-3.85816 0.398225,-7.87259 -7.709199,-5.98151 -6.84968,1.5977 -3.48881,4.91822 -2.95595,8.77637 z"
       fill="#2c4d90"
       stroke="#253156"
       stroke-width="1.23086"
       stroke-miterlimit="1"
       sodipodi:nodetypes="sssss"
       style="stroke-width:0.740041;stroke-miterlimit:1.85714;stroke-dasharray:none;shape-rendering:geometricPrecision;text-rendering:geometricPrecision"
       inkscape:transform-center-x="-0.13193322"
       inkscape:transform-center-y="-3.0028406" />
    <path
       id="eFnj7eCV8wJ4"
       d="m -105.57942,131.58813 c -0.26854,3.43222 -2.87929,5.6368 4.66514,5.71987 8.723032,0.0961 6.614053,-2.89894 6.88261,-6.33117 0.268557,-3.43222 2.074104,-6.75141 -6.65485,-6.48899 -7.37481,0.22172 -4.62435,3.66807 -4.8929,7.10029 z"
       fill="#2c4d90"
       stroke="#253156"
       stroke-width="1.094"
       stroke-miterlimit="1"
       sodipodi:nodetypes="sssss"
       style="stroke-width:0.801105;stroke-miterlimit:1.85714;stroke-dasharray:none;shape-rendering:geometricPrecision;text-rendering:geometricPrecision"
       inkscape:transform-center-x="-0.69265391"
       inkscape:transform-center-y="6.1852077" />
    <path
       id="eFnj7eCV8wJ2"
       d="m -105.69734,136.70152 c -0.80161,3.36056 -6.63595,16.14377 4.54391,16.10351 6.548962,-0.0236 7.615966,-5.32127 5.922898,-15.60619 -0.602524,-3.66026 -9.595848,-4.14846 -10.466808,-0.49732 z"
       fill="#2c4d90"
       stroke="#253156"
       stroke-width="4.25672"
       stroke-miterlimit="1"
       style="stroke-width:0.801105;stroke-miterlimit:1.85714;stroke-dasharray:none;shape-rendering:geometricPrecision;text-rendering:geometricPrecision"
       sodipodi:nodetypes="ssss"
       inkscape:transform-center-x="0.56665378"
       inkscape:transform-center-y="18.794017" />
    <ellipse
       style="fill:#000000;fill-opacity:0.351981;stroke-width:0.736659;stroke-linecap:round;stroke-linejoin:round;stroke-miterlimit:1;stroke-dasharray:none;paint-order:fill markers stroke"
       id="path64348"
       cx="135.52576"
       cy="93.305695"
       rx="5.2542429"
       ry="5.5010862"
       inkscape:transform-center-x="-9.6565247"
       inkscape:transform-center-y="12.377595"
       transform="rotate(89.031035)" />
    <path
       id="path90240"
       d="m -92.396343,137.15532 c 0.587922,-0.66063 -1.229273,-1.07784 -2.01167,-1.21414 -0.85467,-0.14888 -2.493077,0.29564 -2.20239,1.32547 0.19664,0.69668 0.416764,1.11964 1.017858,1.23484 0.967212,0.18535 2.60829,-0.68553 3.196202,-1.34617 z"
       fill="#e2e264"
       stroke="#eca53c"
       stroke-width="2.25252"
       stroke-miterlimit="1"
       inkscape:transform-center-x="-6.1941399"
       inkscape:transform-center-y="12.513443"
       sodipodi:nodetypes="sssss"
       style="stroke-width:0.736659;stroke-miterlimit:1;stroke-dasharray:none;shape-rendering:geometricPrecision;text-rendering:geometricPrecision" />
    <use
       x="0"
       y="0"
       xlink:href="#path64348"
       id="use65263"
       transform="matrix(0.65453857,0,0,0.65453857,-50.035269,6.8599303)"
       width="100%"
       height="100%"
       style="stroke-width:1.5278"
       inkscape:transform-center-x="8.9415758"
       inkscape:transform-center-y="-28.11976" />
    <path
       id="path57817"
       d="m -108.72095,96.47506 c -0.65806,0.03293 -0.22916,1.193516 -0.0162,1.670964 0.23262,0.52155 1.15499,1.146652 1.71499,0.466585 0.37882,-0.460062 0.56996,-0.791832 0.41321,-1.164014 -0.25223,-0.59888 -1.45392,-1.006487 -2.11198,-0.973534 z"
       fill="#e2e264"
       stroke="#eca53c"
       stroke-width="2.25252"
       stroke-miterlimit="1"
       inkscape:transform-center-x="7.156059"
       inkscape:transform-center-y="-27.014551"
       sodipodi:nodetypes="sssss"
       style="stroke-width:0.736659;stroke-miterlimit:1;stroke-dasharray:none;shape-rendering:geometricPrecision;text-rendering:geometricPrecision" />
    <use
       x="0"
       y="0"
       xlink:href="#path64348"
       id="use65265"
       transform="matrix(0.65453857,0,0,0.65453857,-38.712317,0.20385409)"
       width="100%"
       height="100%"
       style="stroke-width:1.5278"
       inkscape:transform-center-x="-2.3813768"
       inkscape:transform-center-y="-34.775837" />
    <path
       id="path57863"
       d="m -99.503353,90.238682 c 0.126227,-0.611592 -0.799647,-0.567798 -1.188837,-0.51643 -0.42514,0.0562 -1.08113,0.711875 -0.72321,1.428055 0.24214,0.484474 0.43542,0.758835 0.7367,0.727225 0.48479,-0.05091 1.049127,-1.027268 1.175347,-1.63885 z"
       fill="#e2e264"
       stroke="#eca53c"
       stroke-width="2.25252"
       stroke-miterlimit="1"
       inkscape:transform-center-x="-0.15200028"
       inkscape:transform-center-y="-33.919024"
       sodipodi:nodetypes="sssss"
       style="stroke-width:0.736659;stroke-miterlimit:1;stroke-dasharray:none;shape-rendering:geometricPrecision;text-rendering:geometricPrecision" />
    <use
       x="0"
       y="0"
       xlink:href="#path64348"
       id="use65261"
       transform="matrix(0.56038477,-0.33821538,0.33821538,0.56038477,-91.89536,-3.9192401)"
       width="100%"
       height="100%"
       style="stroke-width:1.5278"
       inkscape:transform-center-x="-4.1303402"
       inkscape:transform-center-y="-21.028152" />
    <path
       id="path57966"
       d="m -97.80693,103.59673 c 0.5306,0.0812 0.06271,1.14155 -0.159359,1.57497 -0.242618,0.47346 -1.055637,0.99184 -1.439867,0.30866 -0.259907,-0.4622 -0.380777,-0.78923 -0.215177,-1.1278 0.266507,-0.54479 1.283733,-0.83708 1.814363,-0.75582 z"
       fill="#e2e264"
       stroke="#eca53c"
       stroke-width="2.25252"
       stroke-miterlimit="1"
       inkscape:transform-center-x="-2.0269223"
       inkscape:transform-center-y="-20.010082"
       sodipodi:nodetypes="sssss"
       style="stroke-width:0.736659;stroke-miterlimit:1;stroke-dasharray:none;shape-rendering:geometricPrecision;text-rendering:geometricPrecision" />
    <use
       x="0"
       y="0"
       xlink:href="#path64348"
       id="use65747"
       transform="matrix(0.93366576,0.06564047,-0.06564047,0.93366576,3.0524659,1.9331248)"
       width="100%"
       height="100%"
       style="stroke-width:1.06841"
       inkscape:transform-center-x="-9.7471732"
       inkscape:transform-center-y="-0.75596871" />
    <use
       x="0"
       y="0"
       xlink:href="#path90240"
       inkscape:transform-center-x="-6.8402666"
       inkscape:transform-center-y="-0.3684437"
       id="use65749"
       transform="matrix(0.93366576,0.06564047,-0.06564047,0.93366576,3.3710938,2.4594378)"
       width="100%"
       height="100%"
       style="stroke-width:1.06841" />
    <use
       x="0"
       y="0"
       xlink:href="#path64348"
       id="use65751"
       transform="matrix(-0.54467319,-0.59325141,0.59325141,-0.54467319,-241.18761,134.9743)"
       width="100%"
       height="100%"
       style="stroke-width:1.24167"
       inkscape:transform-center-x="9.6396768"
       inkscape:transform-center-y="-10.412102" />
    <use
       x="0"
       y="0"
       xlink:href="#path90240"
       inkscape:transform-center-x="6.990444"
       inkscape:transform-center-y="-8.7637384"
       id="use65753"
       transform="matrix(-0.54467319,-0.59325141,0.59325141,-0.54467319,-240.53062,134.45962)"
       width="100%"
       height="100%"
       style="stroke-width:1.24167" />
    <use
       x="0"
       y="0"
       xlink:href="#path64348"
       id="use66042"
       transform="matrix(-0.46012834,1.0957882,-1.0957882,-0.46012834,3.803564,321.28549)"
       width="100%"
       height="100%"
       style="stroke-width:0.841415"
       inkscape:transform-center-x="3.882672"
       inkscape:transform-center-y="33.785446" />
    <use
       x="0"
       y="0"
       xlink:href="#path90240"
       inkscape:transform-center-x="2.4496284"
       inkscape:transform-center-y="29.533747"
       id="use66044"
       transform="rotate(112.77784,-104.53483,142.75136)"
       width="100%"
       height="100%" />
  </g>
</svg>
