<?xml version="1.0" encoding="UTF-8" standalone="no"?>
<!-- Created with Inkscape (http://www.inkscape.org/) -->

<svg
   width="300"
   height="300"
   viewBox="0 0 79.375004 79.374996"
   version="1.1"
   id="svg21096"
   inkscape:version="1.1.1 (3bf5ae0d25, 2021-09-20)"
   sodipodi:docname="butterfly-larva-hiding-1.svg"
   xmlns:inkscape="http://www.inkscape.org/namespaces/inkscape"
   xmlns:sodipodi="http://sodipodi.sourceforge.net/DTD/sodipodi-0.dtd"
   xmlns:xlink="http://www.w3.org/1999/xlink"
   xmlns="http://www.w3.org/2000/svg"
   xmlns:svg="http://www.w3.org/2000/svg">
  <sodipodi:namedview
     id="namedview21098"
     pagecolor="#505050"
     bordercolor="#ffffff"
     borderopacity="1"
     inkscape:pageshadow="0"
     inkscape:pageopacity="0"
     inkscape:pagecheckerboard="1"
     inkscape:document-units="mm"
     showgrid="false"
     fit-margin-top="0"
     fit-margin-left="0"
     fit-margin-right="0"
     fit-margin-bottom="0"
     units="px"
     inkscape:zoom="2.1619135"
     inkscape:cx="141.31"
     inkscape:cy="179.70192"
     inkscape:window-width="1920"
     inkscape:window-height="1017"
     inkscape:window-x="1272"
     inkscape:window-y="-8"
     inkscape:window-maximized="1"
     inkscape:current-layer="layer1"
     inkscape:snap-global="false" />
  <defs
     id="defs21093">
    <linearGradient
       id="linearGradient2328"
       inkscape:swatch="solid">
      <stop
         style="stop-color:#2d2d2d;stop-opacity:1;"
         offset="0"
         id="stop2326" />
    </linearGradient>
    <linearGradient
       id="linearGradient2322"
       inkscape:swatch="solid">
      <stop
         style="stop-color:#2d2d2d;stop-opacity:1;"
         offset="0"
         id="stop2320" />
    </linearGradient>
    <linearGradient
       id="linearGradient2316"
       inkscape:swatch="solid">
      <stop
         style="stop-color:#2d2d2d;stop-opacity:1;"
         offset="0"
         id="stop2314" />
    </linearGradient>
    <linearGradient
       id="linearGradient2310"
       inkscape:swatch="solid">
      <stop
         style="stop-color:#262b57;stop-opacity:1;"
         offset="0"
         id="stop2308" />
    </linearGradient>
  </defs>
  <g
     inkscape:label="Layer 1"
     inkscape:groupmode="layer"
     id="layer1"
     transform="translate(133.88342,-85.894773)">
    <use
       x="0"
       y="0"
       xlink:href="#path64348"
       id="use65759"
       transform="matrix(-0.98100014,0.06589844,-0.06589844,-0.98100014,-179.99822,273.40766)"
       width="100%"
       height="100%"
       style="stroke-width:1.01708"
       inkscape:transform-center-x="9.8520858"
       inkscape:transform-center-y="1.8055926" />
    <use
       x="0"
       y="0"
       xlink:href="#path64348"
       id="use65265"
       transform="matrix(0.65453857,0,0,0.65453857,-37.518755,14.821992)"
       width="100%"
       height="100%"
       style="stroke-width:1.5278"
       inkscape:transform-center-x="-2.3813768"
       inkscape:transform-center-y="-34.775837" />
    <path
       id="path57863"
       d="m -95.485157,105.42937 c 0.126235,-0.61159 -0.799646,-0.5678 -1.188833,-0.51643 -0.425131,0.0562 -1.081117,0.71188 -0.723204,1.42806 0.242137,0.48447 0.435415,0.75883 0.736693,0.72722 0.484789,-0.0509 1.049128,-1.02727 1.175344,-1.63885 z"
       fill="#e2e264"
       stroke="#eca53c"
       stroke-width="2.25252"
       stroke-miterlimit="1"
       inkscape:transform-center-x="-0.15200028"
       inkscape:transform-center-y="-33.919024"
       sodipodi:nodetypes="sssss"
       style="stroke-width:0.736659;stroke-miterlimit:1;stroke-dasharray:none;shape-rendering:geometricPrecision;text-rendering:geometricPrecision" />
    <path
       id="path80592"
       d="m -101.78341,111.89627 c 2.712038,3.1917 3.200388,6.84222 8.07608,3.80841 4.875643,-3.03375 0.381374,-4.24628 -2.33071,-7.43795 -2.712042,-3.19169 -4.889,-5.75366 -9.76467,-2.71989 -4.87566,3.03379 1.30721,3.15776 4.01928,6.34944 z"
       fill="#2c4d90"
       stroke="#253156"
       stroke-width="1.56719"
       stroke-miterlimit="1"
       sodipodi:nodetypes="sssss"
       style="stroke-width:0.801105;stroke-miterlimit:1;stroke-dasharray:none;shape-rendering:geometricPrecision;text-rendering:geometricPrecision"
       inkscape:transform-center-x="0.60679048"
       inkscape:transform-center-y="0.77977618" />
    <use
       x="0"
       y="0"
       xlink:href="#path64348"
       id="use65263"
       transform="matrix(0.1658196,-0.63318607,0.63318607,0.1658196,-171.49492,38.315845)"
       width="100%"
       height="100%"
       style="stroke-width:1.5278"
       inkscape:transform-center-x="2.1954622"
       inkscape:transform-center-y="2.2160787" />
    <path
       id="path57817"
       d="m -98.40108,115.20255 c -0.13489,0.64493 1.09653,0.52404 1.61236,0.43899 0.56347,-0.0929 1.401845,-0.82683 0.885814,-1.54085 -0.349091,-0.48302 -0.621604,-0.75197 -1.021354,-0.69462 -0.64324,0.0923 -1.342,1.1515 -1.47683,1.79645 z"
       fill="#e2e264"
       stroke="#eca53c"
       stroke-width="2.25252"
       stroke-miterlimit="1"
       inkscape:transform-center-x="0.75663367"
       inkscape:transform-center-y="0.69041855"
       sodipodi:nodetypes="sssss"
       style="stroke-width:0.736659;stroke-miterlimit:1;stroke-dasharray:none;shape-rendering:geometricPrecision;text-rendering:geometricPrecision" />
    <path
       id="path50113"
       d="m -89.256417,118.59729 c 3.218884,0.35083 5.135472,2.4326 5.680782,-3.3077 0.630492,-6.63706 -2.323373,-5.15919 -5.54223,-5.51007 -3.218846,-0.35083 -6.236025,-1.86713 -6.528955,4.78968 -0.247497,5.62419 3.171537,3.67719 6.39039,4.02807 z"
       fill="#2c4d90"
       stroke="#253156"
       stroke-width="0.928501"
       stroke-miterlimit="1"
       sodipodi:nodetypes="sssss"
       style="stroke-width:0.801105;stroke-miterlimit:1.85714;stroke-dasharray:none;shape-rendering:geometricPrecision;text-rendering:geometricPrecision"
       inkscape:transform-center-x="0.025498686"
       inkscape:transform-center-y="0.54285728" />
    <use
       x="0"
       y="0"
       xlink:href="#path64348"
       id="use65747"
       transform="matrix(0.85633076,0.37780688,-0.37780688,0.85633076,50.77465,42.943212)"
       width="100%"
       height="100%"
       style="stroke-width:1.06841"
       inkscape:transform-center-x="-9.4276725"
       inkscape:transform-center-y="2.5880276" />
    <use
       x="0"
       y="0"
       xlink:href="#path64348"
       id="use65257"
       transform="matrix(0.75015768,-0.04634848,0.04634848,0.75015768,-16.17878,8.8516965)"
       width="100%"
       height="100%"
       style="stroke-width:1.48447"
       inkscape:transform-center-x="-2.5217356"
       inkscape:transform-center-y="-0.5326879" />
    <path
       id="path57678"
       d="m -75.002152,116.32119 c 0.550337,0.40954 -0.599544,1.33959 -1.10432,1.70133 -0.55144,0.39516 -1.772101,0.50091 -1.804013,-0.50786 -0.02156,-0.68243 0.03424,-1.12763 0.41964,-1.41495 0.620242,-0.46225 1.93831,-0.18808 2.488645,0.22147 z"
       fill="#e2e264"
       stroke="#eca53c"
       stroke-width="2.25252"
       stroke-miterlimit="1"
       inkscape:transform-center-x="-0.60895286"
       inkscape:transform-center-y="0.18124959"
       sodipodi:nodetypes="sssss"
       style="stroke-width:0.736659;stroke-miterlimit:1;stroke-dasharray:none;shape-rendering:geometricPrecision;text-rendering:geometricPrecision" />
    <path
       id="path50111"
       d="m -89.978113,122.61975 c 0.549914,3.94053 -1.37998,6.98581 5.727377,5.63737 6.62809,-1.25751 6.936441,-3.98326 6.034013,-8.43012 -0.790002,-3.89285 -2.252722,-7.57187 -8.817574,-6.14765 -6.905905,1.49822 -3.493699,4.99989 -2.943816,8.9404 z"
       fill="#2c4d90"
       stroke="#253156"
       stroke-width="1.11263"
       stroke-miterlimit="1"
       sodipodi:nodetypes="sssss"
       style="stroke-width:0.829684;stroke-miterlimit:1.85714;stroke-dasharray:none;shape-rendering:geometricPrecision;text-rendering:geometricPrecision"
       inkscape:transform-center-x="0.07234482"
       inkscape:transform-center-y="0.74685113" />
    <use
       x="0"
       y="0"
       xlink:href="#path64348"
       id="use65751"
       transform="matrix(-0.63879499,-0.49046619,0.49046619,-0.63879499,-215.88424,167.38601)"
       width="100%"
       height="100%"
       style="stroke-width:1.24167"
       inkscape:transform-center-x="4.5923006"
       inkscape:transform-center-y="-1.8576503" />
    <use
       x="0"
       y="0"
       xlink:href="#path64348"
       id="use65755"
       transform="matrix(-0.51597718,-0.6183718,0.6183718,-0.51597718,-227.02454,144.28985)"
       width="100%"
       height="100%"
       style="stroke-width:1.24167"
       inkscape:transform-center-x="4.9919288"
       inkscape:transform-center-y="-6.9710958" />
    <use
       x="0"
       y="0"
       xlink:href="#path90240"
       inkscape:transform-center-x="-6.6298666"
       inkscape:transform-center-y="1.7801192"
       id="use65749"
       transform="matrix(0.85633076,0.37780688,-0.37780688,0.85633076,50.896314,43.546309)"
       width="100%"
       height="100%"
       style="stroke-width:1.06841" />
    <use
       x="0"
       y="0"
       xlink:href="#path90240"
       inkscape:transform-center-x="2.206732"
       inkscape:transform-center-y="-0.40471978"
       id="use65753"
       transform="matrix(-0.63879499,-0.49046619,0.49046619,-0.63879499,-215.32582,166.76577)"
       width="100%"
       height="100%"
       style="stroke-width:1.24167" />
    <path
       id="path50109"
       d="m -90.366645,123.8828 c -2.449981,3.0277 -5.910123,3.61389 -0.127315,7.89443 6.686224,4.94923 7.011082,1.00156 9.461077,-2.02613 2.449971,-3.02769 6.015279,-5.09437 -0.909709,-9.71506 -5.850686,-3.90387 -5.974095,0.81906 -8.424053,3.84676 z"
       fill="#2c4d90"
       stroke="#253156"
       stroke-width="1.23086"
       stroke-miterlimit="1"
       sodipodi:nodetypes="sssss"
       style="stroke-width:0.740041;stroke-miterlimit:1.85714;stroke-dasharray:none;shape-rendering:geometricPrecision;text-rendering:geometricPrecision"
       inkscape:transform-center-x="-2.1686091"
       inkscape:transform-center-y="-5.1231348" />
    <use
       x="0"
       y="0"
       xlink:href="#path90240"
       inkscape:transform-center-x="3.0718954"
       inkscape:transform-center-y="-4.2548446"
       id="use65757"
       transform="matrix(-0.56616524,-0.74923536,0.60054908,-0.56011179,-229.04026,139.05264)"
       width="100%"
       height="100%"
       style="stroke-width:1.24167" />
    <path
       id="eFnj7eCV8wJ4"
       d="m -96.250661,128.75835 c -2.642065,2.20721 -6.043559,1.88135 -0.829138,7.33435 6.028979,6.30491 6.696448,2.70318 9.33853,0.49597 2.642074,-2.20719 6.277724,-3.23629 -0.01176,-9.29482 -5.31378,-5.11864 -5.855558,-0.7427 -8.497632,1.4645 z"
       fill="#2c4d90"
       stroke="#253156"
       stroke-width="1.094"
       stroke-miterlimit="1"
       sodipodi:nodetypes="sssss"
       style="stroke-width:0.801105;stroke-miterlimit:1.85714;stroke-dasharray:none;shape-rendering:geometricPrecision;text-rendering:geometricPrecision"
       inkscape:transform-center-x="1.0201082"
       inkscape:transform-center-y="0.8713706" />
    <ellipse
       style="fill:#000000;fill-opacity:0.351981;stroke-width:0.736659;stroke-linecap:round;stroke-linejoin:round;stroke-miterlimit:1;stroke-dasharray:none;paint-order:fill markers stroke"
       id="path64348"
       cx="136.47345"
       cy="89.00563"
       rx="5.2542429"
       ry="5.5010862"
       inkscape:transform-center-x="-9.6565247"
       inkscape:transform-center-y="12.377595"
       transform="rotate(89.031035)" />
    <use
       x="0"
       y="0"
       xlink:href="#path90240"
       inkscape:transform-center-x="6.4331008"
       inkscape:transform-center-y="1.5742557"
       id="use65761"
       transform="matrix(-0.9828485,-0.02669684,0.02669684,-0.9828485,-192.69642,264.93803)"
       width="100%"
       height="100%"
       style="stroke-width:1.01708" />
    <path
       id="path90240"
       d="m -87.8658,137.27559 c 0.523155,-0.71302 -1.325234,-0.95739 -2.116984,-1.01947 -0.864887,-0.0678 -2.4542,0.5289 -2.067905,1.52681 0.261318,0.67509 0.520262,1.07546 1.129529,1.13359 0.980361,0.0935 2.532217,-0.9279 3.05536,-1.64093 z"
       fill="#e2e264"
       stroke="#eca53c"
       stroke-width="2.25252"
       stroke-miterlimit="1"
       inkscape:transform-center-x="-6.0323272"
       inkscape:transform-center-y="2.214678"
       sodipodi:nodetypes="sssss"
       style="stroke-width:0.736659;stroke-miterlimit:1;stroke-dasharray:none;shape-rendering:geometricPrecision;text-rendering:geometricPrecision" />
    <path
       id="eFnj7eCV8wJ2"
       d="m -101.10556,133.54319 c -1.69062,3.01294 -10.8003,13.71169 -0.0362,16.73228 6.305463,1.76938 8.781415,-3.0341 9.96738,-13.38976 0.422083,-3.68542 -8.094363,-6.61599 -9.93122,-3.34252 z"
       fill="#2c4d90"
       stroke="#253156"
       stroke-width="4.25672"
       stroke-miterlimit="1"
       style="stroke-width:0.801105;stroke-miterlimit:1.85714;stroke-dasharray:none;shape-rendering:geometricPrecision;text-rendering:geometricPrecision"
       sodipodi:nodetypes="ssss"
       inkscape:transform-center-x="3.4350275"
       inkscape:transform-center-y="8.4772034" />
    <use
       x="0"
       y="0"
       xlink:href="#path64348"
       id="use65261"
       transform="matrix(0.33779418,-0.56063877,0.56063877,0.33779418,-130.3614,13.192835)"
       width="100%"
       height="100%"
       style="stroke-width:1.5278"
       inkscape:transform-center-x="-1.6828977"
       inkscape:transform-center-y="-2.7499361" />
    <path
       id="path57966"
       d="m -83.468361,108.91873 c 0.507169,-0.17581 0.588178,0.98037 0.594032,1.46734 0.0064,0.53196 -0.470796,1.36984 -1.129434,0.94491 -0.445567,-0.2875 -0.705077,-0.52033 -0.716613,-0.89705 -0.01851,-0.6062 0.744755,-1.33942 1.251985,-1.51517 z"
       fill="#e2e264"
       stroke="#eca53c"
       stroke-width="2.25252"
       stroke-miterlimit="1"
       inkscape:transform-center-x="-0.18331387"
       inkscape:transform-center-y="-0.96953453"
       sodipodi:nodetypes="sssss"
       style="stroke-width:0.736659;stroke-miterlimit:1;stroke-dasharray:none;shape-rendering:geometricPrecision;text-rendering:geometricPrecision" />
    <use
       x="0"
       y="0"
       xlink:href="#path64348"
       id="use66042"
       transform="matrix(-0.74242182,0.92805156,-0.92805156,-0.74242182,-42.278851,337.69058)"
       width="100%"
       height="100%"
       style="stroke-width:0.841415"
       inkscape:transform-center-x="10.653701"
       inkscape:transform-center-y="21.915853" />
    <use
       x="0"
       y="0"
       xlink:href="#path90240"
       inkscape:transform-center-x="8.0502064"
       inkscape:transform-center-y="18.107548"
       id="use66044"
       transform="rotate(134.05805,-99.620242,141.36428)"
       width="100%"
       height="100%" />
  </g>
</svg>
