<?xml version="1.0" encoding="UTF-8" standalone="no"?>
<svg
   id="eFnj7eCV8wJ1"
   viewBox="0 0 480.56 494.30616"
   shape-rendering="geometricPrecision"
   text-rendering="geometricPrecision"
   version="1.1"
   sodipodi:docname="butterfly-profile.svg"
   width="480.56"
   height="494.30615"
   inkscape:version="1.1.1 (3bf5ae0d25, 2021-09-20)"
   xmlns:inkscape="http://www.inkscape.org/namespaces/inkscape"
   xmlns:sodipodi="http://sodipodi.sourceforge.net/DTD/sodipodi-0.dtd"
   xmlns="http://www.w3.org/2000/svg"
   xmlns:svg="http://www.w3.org/2000/svg">
  <defs
     id="defs112662" />
  <sodipodi:namedview
     id="namedview112660"
     pagecolor="#505050"
     bordercolor="#ffffff"
     borderopacity="1"
     inkscape:pageshadow="0"
     inkscape:pageopacity="0"
     inkscape:pagecheckerboard="1"
     showgrid="false"
     fit-margin-top="0"
     fit-margin-left="0"
     fit-margin-right="0"
     fit-margin-bottom="0"
     inkscape:zoom="1.68125"
     inkscape:cx="260.81784"
     inkscape:cy="289.96283"
     inkscape:window-width="1920"
     inkscape:window-height="1017"
     inkscape:window-x="1272"
     inkscape:window-y="-8"
     inkscape:window-maximized="1"
     inkscape:current-layer="eFnj7eCV8wJ1"
     inkscape:snap-global="false" />
  <g
     id="g2605"
     transform="matrix(-0.31752017,1.0864807,-1.0968192,-0.29050955,518.35662,114.71465)"
     style="stroke-width:0.882534">
    <path
       id="eFnj7eCV8wJ5"
       d="m 98.521165,28.485798 c 0,-48.533861 73.272775,-10.8158 117.830545,0 44.55776,10.81578 77.23346,39.34445 77.23346,87.878312 0,48.53385 -30.69535,95.99017 -77.23346,87.87832 C 169.81359,196.13059 98.521165,77.019638 98.521165,28.485798 Z"
       fill="#e2e264"
       stroke="#eca53c"
       stroke-width="7.5134"
       stroke-miterlimit="1" />
    <path
       id="eFnj7eCV8wJ6"
       d="m 4.2567148,389.82341 c 0,66.32961 102.5818852,14.78159 164.9627652,0 62.38088,-14.78158 108.12686,-53.77076 108.12686,-120.10037 0,-66.3296 -42.9735,-131.18656 -108.12686,-120.10037 C 104.06612,160.70886 4.2567148,323.49381 4.2567148,389.82341 Z"
       fill="#e2e264"
       stroke="#eca53c"
       stroke-width="7.5134"
       stroke-miterlimit="1" />
  </g>
  <path
     id="eFnj7eCV8wJ2"
     d="m 181.57353,402.76299 c 90.11045,47.72731 164.61561,85.40165 180.51211,55.38863 C 377.98214,428.13861 304.21635,389.06831 214.10589,341.34099 123.99543,293.61369 51.663326,255.30274 35.766825,285.31576 19.870334,315.32878 91.463069,355.03569 181.57353,402.76299 Z"
     fill="#2c4d90"
     stroke="#253156"
     stroke-width="4.25672"
     stroke-miterlimit="1"
     style="stroke-width:4.257;stroke-miterlimit:1;stroke-dasharray:none" />
  <path
     id="eFnj7eCV8wJ3"
     d="m 181.83876,402.90347 c 56.76959,30.0682 103.98141,53.28654 119.8779,23.27352 15.8965,-30.01302 -30.57594,-54.62731 -87.34553,-84.69551 -56.76959,-30.0682 -102.33882,-54.20411 -118.235321,-24.19108 -15.8965,30.01302 28.933361,55.54486 85.702951,85.61307 z"
     fill="#2c4d90"
     stroke="#253156"
     stroke-width="4.25672"
     stroke-miterlimit="1" />
  <path
     id="eFnj7eCV8wJ4"
     d="m 182.08965,403.03636 c 25.23093,13.36365 46.62473,22.90738 62.52123,-7.10564 15.8965,-30.01301 -4.75793,-40.95271 -29.98887,-54.31636 -25.23091,-13.36364 -45.48391,-24.09071 -61.38041,5.92231 -15.8965,30.01302 3.61713,42.13604 28.84805,55.49969 z"
     fill="#2c4d90"
     stroke="#253156"
     stroke-width="4.25672"
     stroke-miterlimit="1" />
  <path
     id="eFnj7eCV8wJ9"
     d="m 341.92202,436.535 q 54.54051,-25.30917 127.30877,-2.10964"
     fill="none"
     stroke="#1c2f54"
     stroke-width="4.25672"
     stroke-miterlimit="1" />
  <path
     id="eFnj7eCV8wJ10"
     d="m 358.04957,438.69316 c 0,0 52.9488,-15.24281 108.85892,36.54558"
     fill="none"
     stroke="#1c2f54"
     stroke-width="4.25672"
     stroke-miterlimit="1" />
  <ellipse
     id="eFnj7eCV8wJ11"
     rx="5.2896895"
     ry="6.2839313"
     fill="#253156"
     stroke="none"
     stroke-width="0"
     cx="182.88385"
     cy="-613.71643"
     transform="rotate(116.19363)" />
  <ellipse
     id="eFnj7eCV8wJ12"
     rx="5.6680717"
     ry="7.2390866"
     fill="#253156"
     stroke="none"
     stroke-width="0"
     cx="-201.23128"
     cy="-635.63501"
     transform="matrix(0.46805448,-0.88369961,-0.88369961,-0.46805448,0,0)" />
  <g
     id="g2601"
     transform="rotate(-62.087187,345.07712,422.18413)">
    <path
       id="eFnj7eCV8wJ7"
       d="m 519.93865,39.571978 c 0,-48.5338577 -73.27278,-10.81579 -117.83055,0 -44.55777,10.8158 -77.23347,39.34447 -77.23347,87.878322 0,48.53386 30.69535,95.99016 77.23347,87.87831 46.53811,-8.11184 117.83055,-127.222782 117.83055,-175.756632 z"
       fill="#e2e264"
       stroke="#eca53c"
       stroke-width="8.51343"
       stroke-miterlimit="1" />
    <path
       id="eFnj7eCV8wJ8"
       d="m 597.56819,382.43262 c 0,66.32961 -102.58189,14.78159 -164.96277,0 -62.38088,-14.78158 -108.12686,-53.77076 -108.12686,-120.10037 0,-66.3296 42.9735,-131.18656 108.12686,-120.10037 65.15335,11.08619 164.96277,173.87114 164.96277,240.20074 z"
       fill="#e2e264"
       stroke="#eca53c"
       stroke-width="8.51343"
       stroke-miterlimit="1" />
  </g>
  <path
     style="fill:none;stroke:#1c2f54;stroke-width:4.2;stroke-linecap:butt;stroke-linejoin:miter;stroke-miterlimit:4;stroke-dasharray:none;stroke-opacity:1"
     d="M 247.7933,433.78596 C 144.88702,377.72102 108.7676,409.86491 108.0861,493.58858"
     id="path2656"
     sodipodi:nodetypes="cc" />
  <path
     style="fill:none;stroke:#1c2f54;stroke-width:4.2;stroke-linecap:butt;stroke-linejoin:miter;stroke-miterlimit:4;stroke-dasharray:none;stroke-opacity:1"
     d="M 154.79848,386.37271 C 52.026207,322.13571 31.493202,447.73193 80.593159,492.75843"
     id="path4492"
     sodipodi:nodetypes="cc" />
  <path
     style="fill:none;stroke:#1c2f54;stroke-width:4.2;stroke-linecap:butt;stroke-linejoin:miter;stroke-miterlimit:4;stroke-dasharray:none;stroke-opacity:1"
     d="M 104.93164,360.10583 C -36.677946,265.02788 -6.1689779,427.54279 44.111341,471.24727"
     id="path4494"
     sodipodi:nodetypes="cc" />
</svg>
