<?xml version="1.0" encoding="UTF-8" standalone="no"?>
<!-- Created with Inkscape (http://www.inkscape.org/) -->

<svg
   width="17550"
   height="8833"
   viewBox="0 0 4643.4371 2337.0646"
   version="1.1"
   id="svg5"
   inkscape:version="1.1 (c68e22c387, 2021-05-23)"
   sodipodi:docname="grass.svg"
   xmlns:inkscape="http://www.inkscape.org/namespaces/inkscape"
   xmlns:sodipodi="http://sodipodi.sourceforge.net/DTD/sodipodi-0.dtd"
   xmlns="http://www.w3.org/2000/svg"
   xmlns:svg="http://www.w3.org/2000/svg">
  <sodipodi:namedview
     id="namedview7"
     pagecolor="#ffffff"
     bordercolor="#666666"
     borderopacity="1.0"
     inkscape:pageshadow="2"
     inkscape:pageopacity="0.0"
     inkscape:pagecheckerboard="0"
     inkscape:document-units="mm"
     showgrid="false"
     units="px"
     fit-margin-top="0"
     fit-margin-left="0"
     fit-margin-right="0"
     fit-margin-bottom="0"
     width="640px"
     inkscape:zoom="0.04"
     inkscape:cx="6012.5"
     inkscape:cy="1562.5"
     inkscape:window-width="1920"
     inkscape:window-height="1017"
     inkscape:window-x="1272"
     inkscape:window-y="-8"
     inkscape:window-maximized="1"
     inkscape:current-layer="layer1" />
  <defs
     id="defs2" />
  <g
     inkscape:label="Layer 1"
     inkscape:groupmode="layer"
     id="layer1"
     transform="translate(-49.497008,-8.8584446)">
    <path
       style="fill:#000000;fill-opacity:1;stroke:#000000;stroke-width:5.39034px;stroke-linecap:butt;stroke-linejoin:miter;stroke-opacity:1"
       d="M 512.22217,2859.6877 C 1109.4674,1884.1477 2389.7014,812.0933 2389.7014,812.0933 c 0,0 -1033.244,1251.2488 -1314.3005,2052.1554"
       id="path359"
       sodipodi:nodetypes="ccc" />
    <path
       style="fill:#000000;fill-opacity:1;stroke:#000000;stroke-width:3.85158px;stroke-linecap:butt;stroke-linejoin:miter;stroke-opacity:1"
       d="M 1876.9716,2397.8203 C 1468.8398,1668.9548 593.98275,867.97957 593.98275,867.97957 c 0,0 706.07485,934.85893 898.13695,1533.24833"
       id="path1940"
       sodipodi:nodetypes="ccc" />
    <path
       style="fill:#000000;fill-opacity:1;stroke:#000000;stroke-width:3.85158px;stroke-linecap:butt;stroke-linejoin:miter;stroke-opacity:1"
       d="m 1075.4009,2864.2487 c 408.1318,-728.8656 1282.9889,-1529.8408 1282.9889,-1529.8408 0,0 -706.075,934.8587 -898.137,1533.2481"
       id="path2022"
       sodipodi:nodetypes="ccc" />
    <path
       style="fill:#000000;fill-opacity:1;stroke:#000000;stroke-width:4.51169px;stroke-linecap:butt;stroke-linejoin:miter;stroke-opacity:1"
       d="M 4163.7966,2860.4245 C 3712.072,1956.8304 2743.7706,963.83985 2743.7706,963.83985 c 0,0 781.491,1158.96945 994.0674,1900.80905"
       id="path2024"
       sodipodi:nodetypes="ccc" />
    <path
       style="fill:#000000;fill-opacity:1;stroke:#000000;stroke-width:3.22377px;stroke-linecap:butt;stroke-linejoin:miter;stroke-opacity:1"
       d="M 496.65203,2372.0135 C 805.34143,1696.9019 1467.0371,954.99843 1467.0371,954.99843 c 0,0 -534.03757,865.91297 -679.30327,1420.17127"
       id="path2026"
       sodipodi:nodetypes="ccc" />
    <path
       style="fill:#000000;fill-opacity:1;stroke:#000000;stroke-width:3.22377px;stroke-linecap:butt;stroke-linejoin:miter;stroke-opacity:1"
       d="m 3737.838,2864.6489 c -308.6892,-675.1118 -970.3851,-1417.015 -970.3851,-1417.015 0,0 534.0379,865.9128 679.3033,1420.1711"
       id="path2028"
       sodipodi:nodetypes="ccc" />
    <path
       style="fill:#000000;fill-opacity:1;stroke:#000000;stroke-width:4.51169px;stroke-linecap:butt;stroke-linejoin:miter;stroke-opacity:1"
       d="M 3052.1716,2850.2929 C 2600.4469,1946.6987 2718.362,710.54864 2718.362,710.54864 c 0,0 -304.7253,1402.12896 -92.149,2143.96866"
       id="path2030"
       sodipodi:nodetypes="ccc" />
    <path
       style="fill:#000000;fill-opacity:1;stroke:#000000;stroke-width:3.22377px;stroke-linecap:butt;stroke-linejoin:miter;stroke-opacity:1"
       d="m 2335.1312,2851.3612 c 308.6894,-675.1117 -268.2827,-1493.0025 -268.2827,-1493.0025 0,0 704.6301,941.9003 559.3645,1496.1586"
       id="path2032"
       sodipodi:nodetypes="ccc" />
    <path
       style="fill:#000000;fill-opacity:1;stroke:#000000;stroke-width:3.22377px;stroke-linecap:butt;stroke-linejoin:miter;stroke-opacity:1"
       d="m 1797.0679,2864.6491 c 308.6891,-675.1117 773.4686,-1796.952 773.4686,-1796.952 0,0 -337.1214,1245.8498 -482.3869,1800.108"
       id="path2034"
       sodipodi:nodetypes="ccc" />
    <path
       style="fill:#000000;fill-opacity:1;stroke:#000000;stroke-width:3.22377px;stroke-linecap:butt;stroke-linejoin:miter;stroke-opacity:1"
       d="m 3493.0583,2570.451 c 308.6894,-675.1116 970.3851,-1417.0151 970.3851,-1417.0151 0,0 -534.0376,865.913 -679.3033,1420.1713"
       id="path3676"
       sodipodi:nodetypes="ccc" />
  </g>
</svg>
