<?xml version="1.0" encoding="UTF-8" standalone="no"?>
<!-- Created with Inkscape (http://www.inkscape.org/) -->

<svg
   width="217.76456"
   height="287.25174"
   viewBox="0 0 57.616872 76.002026"
   version="1.1"
   id="svg5"
   inkscape:version="1.1.1 (3bf5ae0d25, 2021-09-20)"
   sodipodi:docname="green-jelly-maker.svg"
   xmlns:inkscape="http://www.inkscape.org/namespaces/inkscape"
   xmlns:sodipodi="http://sodipodi.sourceforge.net/DTD/sodipodi-0.dtd"
   xmlns:xlink="http://www.w3.org/1999/xlink"
   xmlns="http://www.w3.org/2000/svg"
   xmlns:svg="http://www.w3.org/2000/svg">
  <sodipodi:namedview
     id="namedview7"
     pagecolor="#505050"
     bordercolor="#ffffff"
     borderopacity="1"
     inkscape:pageshadow="0"
     inkscape:pageopacity="0"
     inkscape:pagecheckerboard="1"
     inkscape:document-units="mm"
     showgrid="false"
     inkscape:snap-global="false"
     inkscape:zoom="3.0574074"
     inkscape:cx="148.32829"
     inkscape:cy="84.548759"
     inkscape:window-width="1920"
     inkscape:window-height="1017"
     inkscape:window-x="1272"
     inkscape:window-y="-8"
     inkscape:window-maximized="1"
     inkscape:current-layer="layer1"
     fit-margin-top="0"
     fit-margin-left="0"
     fit-margin-right="0"
     fit-margin-bottom="0"
     units="px" />
  <defs
     id="defs2" />
  <g
     inkscape:label="Layer 1"
     inkscape:groupmode="layer"
     id="layer1"
     transform="translate(-48.32169,-77.001979)">
    <ellipse
       style="fill:#050505;fill-opacity:1;stroke-width:0.351945;stroke-linejoin:bevel"
       id="path846"
       cx="-130.85165"
       cy="-74.169418"
       rx="18.757854"
       ry="14.495224"
       transform="matrix(-0.03448445,-0.99940523,-0.99976865,0.02150934,0,0)" />
    <ellipse
       style="fill:#f8ff25;fill-opacity:1;stroke-width:0.323628;stroke-linejoin:bevel"
       id="ellipse1398"
       cx="-128.24802"
       cy="-74.086746"
       rx="15.860856"
       ry="14.495224"
       transform="matrix(-0.03448445,-0.99940523,-0.99976865,0.02150934,0,0)" />
    <ellipse
       style="fill:#050505;fill-opacity:1;stroke-width:0.29832;stroke-linejoin:bevel"
       id="ellipse1840"
       cx="-125.57102"
       cy="-74.169418"
       rx="13.477245"
       ry="14.495224"
       transform="matrix(-0.03448445,-0.99940523,-0.99976865,0.02150934,0,0)" />
    <ellipse
       style="fill:#f8ff25;fill-opacity:1;stroke-width:0.269311;stroke-linejoin:bevel"
       id="ellipse1842"
       cx="-123.37077"
       cy="-74.086746"
       rx="10.983627"
       ry="14.495224"
       transform="matrix(-0.03448445,-0.99940523,-0.99976865,0.02150934,0,0)" />
    <ellipse
       style="fill:#050505;fill-opacity:1;stroke-width:0.227919;stroke-linejoin:bevel"
       id="ellipse1844"
       cx="-119.96039"
       cy="-74.169418"
       rx="7.866601"
       ry="14.495224"
       transform="matrix(-0.03448445,-0.99940523,-0.99976865,0.02150934,0,0)" />
    <g
       id="g4839"
       transform="matrix(-0.24103293,-1.0396689,-1.2538443,0.12789874,257.13506,204.37026)">
      <ellipse
         style="fill:#f8ff25;fill-opacity:1;stroke-width:0.183264;stroke-linejoin:bevel"
         id="ellipse4835"
         cx="103.69713"
         cy="122.77692"
         rx="7.573081"
         ry="9.7352018" />
      <ellipse
         style="fill:#050505;fill-opacity:1;stroke-width:0.169785;stroke-linejoin:bevel"
         id="ellipse4833"
         cx="105.3187"
         cy="122.58856"
         rx="6.5634127"
         ry="9.6410179" />
    </g>
    <g
       id="g85882"
       transform="matrix(-0.08502437,-0.6718796,-0.76571439,0.07460501,161.1199,136.0167)">
      <path
         id="path17998"
         style="fill:#050505;stroke-width:0.168509;stroke-linejoin:bevel"
         d="m 42.560233,127.44198 c 0.649251,0.82908 1.600929,0.70637 2.387734,-0.59215 0.72,-2.48879 1.251239,-8.34779 1.211501,-9.77139 -0.754704,-0.63733 -2.335021,-0.70162 -3.716098,0.17585 -0.544518,1.41292 -0.609247,8.21942 0.116863,10.18769 z"
         sodipodi:nodetypes="ccccc"
         inkscape:transform-center-x="-5.9216015"
         inkscape:transform-center-y="6.3596616" />
      <path
         id="path18103"
         style="fill:#050505;stroke-width:0.119841;stroke-linejoin:bevel"
         d="m 40.560008,135.19473 c -0.662508,0.42205 -1.129501,0.0564 -1.064633,-1.12654 0.54932,-2.03935 2.470167,-6.50356 3.027911,-7.53941 0.647148,-0.25054 1.523621,0.15943 1.937873,1.20463 -0.238647,1.19706 -2.768027,6.22336 -3.901151,7.46132 z"
         sodipodi:nodetypes="ccccc"
         inkscape:transform-center-x="-3.8035261"
         inkscape:transform-center-y="14.988236" />
      <path
         id="path18107"
         style="fill:#050505;stroke-width:0.108411;stroke-linejoin:bevel"
         d="m 36.962387,115.30553 c -0.551575,0.26976 -0.392826,0.844 0.603694,1.47878 1.852133,0.75483 6.126687,1.84961 7.152897,2.01666 0.405232,-0.35713 0.335363,-1.27494 -0.400506,-2.20178 -1.061457,-0.5081 -5.986655,-1.45612 -7.356085,-1.29366 z"
         sodipodi:nodetypes="ccccc"
         inkscape:transform-center-x="-2.6349061"
         inkscape:transform-center-y="1.1216943" />
      <path
         id="path18118"
         style="fill:#050505;stroke-width:0.0438447;stroke-linejoin:bevel"
         d="m 40.983711,137.57063 c -0.163533,0.13588 -0.446482,0.0114 -0.719133,-0.38109 -0.291454,-0.67388 -0.63657,-2.14423 -0.670899,-2.48469 0.200618,-0.079 0.661804,0.0629 1.095028,0.41283 0.205234,0.39612 0.444214,2.04922 0.294953,2.45303 z"
         sodipodi:nodetypes="ccccc"
         inkscape:transform-center-x="-2.1402528"
         inkscape:transform-center-y="20.23132" />
    </g>
    <g
       id="g14903"
       transform="matrix(0.10590458,-0.84938178,-1.1464309,-0.07646412,208.25645,206.44797)">
      <ellipse
         style="fill:#f0ff00;fill-opacity:1;stroke-width:0.307943;stroke-linejoin:bevel"
         id="path9417"
         cx="103.8029"
         cy="122.27885"
         rx="6.7932696"
         ry="7.5288458" />
      <ellipse
         style="fill:#050505;fill-opacity:1;stroke-width:0.307943;stroke-linejoin:bevel"
         id="ellipse11237"
         cx="106.13943"
         cy="122.45192"
         rx="6.7932696"
         ry="7.5288458" />
    </g>
    <g
       id="g18545"
       transform="matrix(-0.60380498,0.49936719,0.63804021,0.37160382,59.754241,23.638704)">
      <g
         id="g18541"
         transform="translate(2.9423077,-12.115385)">
        <path
           id="path18535"
           style="fill:#050505;stroke-width:0.167231;stroke-linejoin:bevel"
           d="m 81.839819,151.40775 c -0.728592,0.76184 -1.59969,0.49853 -2.143846,-0.95394 -0.30669,-2.67065 0.05865,-8.79051 0.305151,-10.25322 0.798839,-0.549 2.28487,-0.38814 3.44621,0.71544 0.300959,1.53568 -0.639609,8.56584 -1.607515,10.49172 z"
           sodipodi:nodetypes="ccccc" />
        <path
           id="path18537"
           style="fill:#050505;stroke-width:0.118932;stroke-linejoin:bevel"
           d="m 82.56848,159.69211 c 0.556927,0.53055 1.04703,0.22053 1.160404,-1.00902 -0.213317,-2.18252 -1.351462,-7.06336 -1.720241,-8.21199 -0.567808,-0.35142 -1.447016,-0.0545 -1.987791,0.96406 0.04693,1.26905 1.670985,6.81715 2.547628,8.25695 z"
           sodipodi:nodetypes="ccccc" />
        <path
           id="path18539"
           style="fill:#050505;stroke-width:0.107589;stroke-linejoin:bevel"
           d="m 87.035628,144.09077 c 0.102154,0.62736 -0.424793,0.85756 -1.465919,0.43114 -1.61058,-1.06032 -4.833622,-3.91527 -5.534282,-4.66102 0.04626,-0.56109 0.78579,-1.08146 1.904287,-1.0552 0.980671,0.5601 4.455074,4.04708 5.095914,5.28508 z"
           sodipodi:nodetypes="ccccc" />
      </g>
      <path
         id="path18543"
         style="fill:#050505;stroke-width:0.0435123;stroke-linejoin:bevel"
         d="m 84.765478,149.96654 c 0.132811,0.16366 0.415499,0.0759 0.727924,-0.28983 0.371454,-0.65319 0.910112,-2.12029 0.992277,-2.46653 -0.17584,-0.11032 -0.627619,-0.0302 -1.08385,0.26846 -0.250051,0.37906 -0.716417,2.04991 -0.636351,2.4879 z"
         sodipodi:nodetypes="ccccc"
         inkscape:transform-center-x="-1.9038462"
         inkscape:transform-center-y="-1.125" />
    </g>
    <g
       id="g18128"
       transform="matrix(0.42521136,-0.85060737,0.79771439,0.34644288,-66.448173,136.50687)">
      <path
         id="path18105"
         style="fill:#050505;stroke-width:0.0677414;stroke-linejoin:bevel"
         d="m 90.072785,143.47158 c -0.1172,0.4565 0.142525,0.64258 0.743364,0.36426 0.96932,-0.72424 2.98202,-2.71093 3.432004,-3.23452 0.03101,-0.41282 -0.31387,-0.81859 -0.916391,-0.83615 -0.581707,0.3783 -2.792103,2.82001 -3.258977,3.70641 z"
         sodipodi:nodetypes="ccccc" />
      <path
         id="path18000"
         style="fill:#050505;stroke-width:0.107589;stroke-linejoin:bevel"
         d="m 93.069103,140.07664 c 0.317408,-0.5507 0.871242,-0.39598 1.408429,0.59256 0.57775,1.83968 1.270522,6.08925 1.342046,7.11001 -0.390521,0.40553 -1.292501,0.34128 -2.142591,-0.38609 -0.405849,-1.0539 -0.893874,-5.95211 -0.607884,-7.31648 z"
         sodipodi:nodetypes="ccccc" />
      <path
         id="path18120"
         style="fill:#050505;stroke-width:0.0850969;stroke-linejoin:bevel"
         d="m 93.328073,153.7976 c -0.450687,0.46505 -0.848362,0.38387 -0.941918,-0.36581 0.169926,-1.42753 1.085755,-4.77445 1.383106,-5.58567 0.459721,-0.35453 1.17279,-0.37253 1.612492,0.14405 -0.0363,0.81204 -1.34508,4.6937 -2.053668,5.80739 z"
         sodipodi:nodetypes="ccccc" />
      <path
         id="path18122"
         style="fill:#050505;stroke-width:0.0364336;stroke-linejoin:bevel"
         d="m 94.025861,156.10509 c 0.190183,0.0194 0.281417,-0.18475 0.189069,-0.56177 -0.266784,-0.57121 -1.027428,-1.69233 -1.231484,-1.9323 -0.175323,0.0342 -0.364393,0.32662 -0.398775,0.7446 0.135986,0.35038 1.082585,1.54666 1.441186,1.74947 z"
         sodipodi:nodetypes="ccccc" />
    </g>
    <g
       id="g882"
       transform="rotate(-3.67085,82.486006,97.208571)"
       inkscape:transform-center-x="0.30170246"
       inkscape:transform-center-y="-5.2278822"
       inkscape:label="#head"
       class="head">
      <use
         x="0"
         y="0"
         xlink:href="#rect76516"
         id="use78163"
         transform="matrix(0.94444974,-0.35513618,0.30415004,0.94444974,-26.708304,33.900421)"
         width="100%"
         height="100%" />
      <rect
         style="fill:#050505;fill-opacity:1;stroke:none;stroke-width:2.35307;stroke-linecap:round;stroke-linejoin:round;stroke-miterlimit:4;stroke-dasharray:none;stroke-opacity:1;paint-order:stroke fill markers"
         id="rect76516"
         width="1.3706738"
         height="6.467051"
         x="-99.158066"
         y="-88.783073"
         transform="matrix(-0.02832063,-0.99959889,-0.99945326,0.03306334,0,0)" />
      <path
         id="path117403-5"
         style="fill:#050505;stroke-width:1.39178;stroke-linecap:round;stroke-linejoin:round"
         d="m 88.930488,92.222608 -1.798412,-0.500027 c 0,0 0.04211,-11.1406 2.467662,-13.905486 0.557589,-0.635606 1.508228,-0.371271 1.798378,0.500017 1.262255,3.790232 -2.467628,13.905496 -2.467628,13.905496 z"
         sodipodi:nodetypes="ccaac"
         inkscape:transform-center-x="-1.1887591"
         inkscape:transform-center-y="-6.3455588" />
      <path
         id="path22857-2"
         style="fill:#050505;stroke-width:1.31092;stroke-linecap:round;stroke-linejoin:round"
         d="m 91.65438,96.239611 -1.132668,-0.982218 c 0,0 6.626546,-9.963018 10.189708,-11.717987 0.81902,-0.403558 1.41787,0.115729 1.13263,0.982176 -1.24033,3.768943 -10.189681,11.718035 -10.189681,11.718035 z"
         sodipodi:nodetypes="ccaac"
         inkscape:transform-center-x="-4.5925662"
         inkscape:transform-center-y="-5.4712728" />
      <path
         id="ellipse4848"
         style="fill:#f0ff00;stroke:#000000;stroke-width:1.359;stroke-linejoin:bevel;stroke-miterlimit:4;stroke-dasharray:none;stroke-opacity:1"
         d="m 86.892206,105.11305 c -0.09969,-3.6758 -5.294082,-13.473571 -11.089926,-14.655407 -4.689659,-0.956268 -15.114115,5.611314 -11.913466,9.628847 4.073446,4.90036 23.089792,11.55626 23.003392,5.02656 z"
         sodipodi:nodetypes="cscc" />
      <ellipse
         style="fill:#71b374;fill-opacity:1;stroke:#1e581f;stroke-width:1.29618;stroke-linejoin:bevel;stroke-miterlimit:4;stroke-dasharray:none;stroke-opacity:1"
         id="ellipse8628"
         cx="-6.4304051"
         cy="121.42758"
         rx="4.5307746"
         ry="4.9465647"
         transform="matrix(-0.81784423,0.57543967,0.60972078,0.79261628,0,0)" />
      <ellipse
         style="fill:#71b374;fill-opacity:1;stroke:#1e581f;stroke-width:1.57471;stroke-linejoin:bevel;stroke-miterlimit:4;stroke-dasharray:none;stroke-opacity:1"
         id="ellipse18455"
         cx="-7.0050378"
         cy="129.40025"
         rx="5.4453592"
         ry="5.9838996"
         transform="matrix(-0.81185111,0.58386452,0.60132633,0.79900353,0,0)" />
      <ellipse
         style="fill:#1e581f;fill-opacity:1;stroke:none;stroke-width:2.60825;stroke-linecap:round;stroke-linejoin:round;stroke-opacity:1;paint-order:stroke fill markers"
         id="path66792"
         cx="80.923653"
         cy="97.456116"
         rx="1.3475646"
         ry="1.5054671" />
      <use
         x="0"
         y="0"
         xlink:href="#path66792"
         id="use66962"
         transform="matrix(0.87021104,0,0,0.78681823,7.0715322,14.784915)"
         width="100%"
         height="100%" />
    </g>
    <path
       id="path18130"
       style="fill:#050505;stroke-width:0.0578436;stroke-linejoin:bevel"
       d="m 70.175929,110.91191 c -0.06411,0.3806 -0.342976,0.43965 -0.73899,0.0422 -0.542151,-0.84859 -1.498177,-2.97446 -1.684001,-3.50958 0.119596,-0.32075 0.545664,-0.51875 1.047142,-0.34343 0.345153,0.4668 1.303746,2.99728 1.375947,3.81109 z"
       sodipodi:nodetypes="ccccc"
       inkscape:transform-center-x="0.64697628"
       inkscape:transform-center-y="-1.3190814" />
    <path
       id="path18132"
       style="fill:#050505;stroke-width:0.0881617;stroke-linejoin:bevel"
       d="m 70.374176,107.72813 c 0.287199,-0.41533 -0.01284,-0.80929 -0.906025,-0.94284 -1.518272,0.0866 -4.806457,0.79627 -5.563921,1.04209 -0.158012,0.43036 0.195834,1.12763 1.008203,1.58709 0.895316,0.01 4.579475,-1.05471 5.461743,-1.68634 z"
       sodipodi:nodetypes="ccccc"
       inkscape:transform-center-x="3.574948"
       inkscape:transform-center-y="-2.3499948" />
    <path
       id="path18134"
       style="fill:#050505;stroke-width:0.0697313;stroke-linejoin:bevel"
       d="m 60.432048,111.5903 c -0.180232,0.49579 0.01373,0.78753 0.58404,0.63958 0.967219,-0.55816 3.058397,-2.27774 3.539541,-2.75438 0.09778,-0.4702 -0.132556,-1.04183 -0.653538,-1.23789 -0.570789,0.26958 -2.911943,2.45976 -3.470019,3.35267 z"
       sodipodi:nodetypes="ccccc"
       inkscape:transform-center-x="8.2760992"
       inkscape:transform-center-y="-0.19689311" />
    <path
       id="path18136"
       style="fill:#050505;stroke-width:0.0298549;stroke-linejoin:bevel"
       d="m 58.536866,111.72023 c -0.07883,-0.14524 0.03668,-0.27826 0.338942,-0.3167 0.501229,0.0425 1.565856,0.31422 1.807803,0.40514 0.03524,0.14938 -0.110255,0.38622 -0.3987,0.53744 -0.298016,-0.004 -1.480057,-0.4012 -1.748042,-0.62588 z"
       sodipodi:nodetypes="ccccc"
       inkscape:transform-center-x="11.147578"
       inkscape:transform-center-y="1.4249104" />
    <g
       id="g113312"
       transform="matrix(1.0530556,-0.09867893,-0.07730504,1.123608,6.8637289,-11.018481)"
       inkscape:transform-center-x="9.5066622"
       inkscape:transform-center-y="1.7287508">
      <path
         id="path18002"
         style="fill:#050505;stroke-width:0.159287;stroke-linejoin:bevel"
         d="m 68.477456,139.71813 c 0.855151,0.55302 1.363597,-0.0258 1.117391,-1.74752 -0.949481,-2.92621 -3.890042,-9.26295 -4.706827,-10.72254 -0.812303,-0.30399 -1.805866,0.37892 -2.154294,1.94527 0.456756,1.72566 4.207669,8.82513 5.743766,10.52478 z"
         sodipodi:nodetypes="ccccc" />
      <g
         id="g887"
         transform="matrix(-0.21631179,-0.8921807,-0.79075325,0.19350898,181.42905,167.38203)">
        <path
           id="rect15412"
           style="fill:#050505;stroke-width:0.238437;stroke-linejoin:bevel"
           d="m 71.550795,127.11776 c 1.656744,-0.10914 2.609229,0.87783 2.07625,2.72011 -1.922366,2.80092 -7.778193,8.31638 -9.393998,9.50007 -1.565756,-0.15279 -3.443139,-1.56207 -4.053932,-3.59406 0.936165,-1.71592 8.370467,-7.61145 11.37168,-8.62612 z"
           sodipodi:nodetypes="ccccc" />
        <path
           id="path18114"
           style="fill:#050505;stroke-width:0.195403;stroke-linejoin:bevel"
           d="m 54.178057,145.93056 c -1.428091,0.075 -2.30686,-0.69679 -1.946849,-2.12372 1.509947,-2.16291 6.275401,-6.40982 7.608942,-7.31914 1.363753,0.12781 3.066348,1.23282 3.706838,2.81377 -0.715951,1.32647 -6.826861,5.85913 -9.368931,6.62909 z"
           sodipodi:nodetypes="ccccc" />
        <path
           id="path18116"
           style="fill:#050505;stroke-width:0.080127;stroke-linejoin:bevel"
           d="m 52.414138,151.25255 c -0.314363,0.40263 -0.636994,0.19107 -0.780115,-0.70114 0.0033,-1.59583 0.421094,-5.18386 0.582087,-6.03118 0.331707,-0.27248 0.895138,-0.0818 1.29113,0.64438 0.04596,0.92567 -0.634042,5.0138 -1.093104,6.08794 z"
           sodipodi:nodetypes="ccccc" />
      </g>
    </g>
    <g
       id="g113404"
       transform="matrix(-1.4514344,0.14711093,0.02450768,1.2979538,183.49693,-49.12481)">
      <path
         id="path113394"
         style="fill:#050505;stroke-width:0.159287;stroke-linejoin:bevel"
         d="m 68.722224,139.35098 c 0.855151,0.55302 1.363597,-0.0258 1.117391,-1.74752 -0.949481,-2.92621 -3.890042,-9.26295 -4.706827,-10.72254 -0.812303,-0.30399 -1.805866,0.37892 -2.154294,1.94527 0.456756,1.72566 4.207669,8.82513 5.743766,10.52478 z"
         sodipodi:nodetypes="ccccc" />
      <g
         id="g113402"
         transform="matrix(-0.10153156,-0.71272585,-0.49475807,0.1845528,135.65717,155.42495)">
        <path
           id="path113396"
           style="fill:#050505;stroke-width:0.238437;stroke-linejoin:bevel"
           d="m 71.550795,127.11776 c 1.656744,-0.10914 2.609229,0.87783 2.07625,2.72011 -1.922366,2.80092 -7.778193,8.31638 -9.393998,9.50007 -1.565756,-0.15279 -3.443139,-1.56207 -4.053932,-3.59406 0.936165,-1.71592 8.370467,-7.61145 11.37168,-8.62612 z"
           sodipodi:nodetypes="ccccc" />
        <path
           id="path113398"
           style="fill:#050505;stroke-width:0.195403;stroke-linejoin:bevel"
           d="m 54.178057,145.93056 c -1.428091,0.075 -2.30686,-0.69679 -1.946849,-2.12372 1.509947,-2.16291 6.275401,-6.40982 7.608942,-7.31914 1.363753,0.12781 3.066348,1.23282 3.706838,2.81377 -0.715951,1.32647 -6.826861,5.85913 -9.368931,6.62909 z"
           sodipodi:nodetypes="ccccc" />
        <path
           id="path113400"
           style="fill:#050505;stroke-width:0.080127;stroke-linejoin:bevel"
           d="m 51.945343,150.40743 c -0.332099,0.38409 -0.644835,0.15437 -0.747665,-0.74478 0.07506,-1.59342 0.653721,-5.15254 0.85263,-5.98948 0.34357,-0.25312 0.897759,-0.0305 1.260629,0.71732 0.0043,0.92701 -0.85877,4.97055 -1.365596,6.01694 z"
           sodipodi:nodetypes="ccccc" />
      </g>
    </g>
  </g>
</svg>
