<svg id="eTpvL3fO89o1" xmlns="http://www.w3.org/2000/svg" xmlns:xlink="http://www.w3.org/1999/xlink" viewBox="0 0 640 480" shape-rendering="geometricPrecision" text-rendering="geometricPrecision"><polygon id="eTpvL3fO89o2" points="-14.956300,-37.621003 -14.956300,-33.674526 -21.332604,-22.196772 -21.332604,-7.691322 -28.362238,9.210558 -38.210756,-5.018351 -28.362238,-9.849878 -25.366938,-22.196772 -28.362238,-27.670663 -28.362238,-30.677477 -23.924846,-24.573912 -14.956300,-37.621003" transform="matrix(-1.47500000000000 0 0 2.65306000000000 133.76199600000001 323.10237311000009)" fill="rgb(108,73,56)" stroke="none" stroke-width="0"/><polygon id="eTpvL3fO89o3" points="-14.956300,-37.621003 -14.956300,-33.674526 -21.332604,-22.196772 -21.332604,-7.691322 -28.362238,9.210558 -38.210756,-5.018351 -28.362238,-9.849878 -25.366938,-22.196772 -28.362238,-27.670663 -28.362238,-30.677477 -23.924846,-24.573912 -14.956300,-37.621003" transform="matrix(-1.47500000000000 0 0 2.65306000000000 223.23399600000002 216.54737311000002)" fill="rgb(108,73,56)" stroke="none" stroke-width="0"/><path id="eTpvL3fO89o4" d="M-5.866946,322.682032C-5.866946,322.682032,382.101063,365.365287,382.101063,261.131947C382.101063,181.726708,546.265790,154.576947,546.265790,268.223500Q546.265790,329.972504,634.133054,322.682032" transform="matrix(1 0 0 1 5.86694600000001 41.56488721500003)" fill="rgb(62,149,72)" stroke="rgb(23,69,37)" stroke-width="1"/><path id="eTpvL3fO89o5" d="M-5.866946,322.682032C-5.866946,322.682032,382.101063,365.365287,382.101063,261.131947C382.101063,181.726708,546.265790,154.576947,546.265790,268.223500Q546.265790,329.972504,634.133054,322.682032" transform="matrix(-0.64439443658679 0 0 0.75953087125253 402.93532600000003 121.19447649000008)" fill="rgb(62,149,72)" stroke="rgb(23,69,37)" stroke-width="1"/><polygon id="eTpvL3fO89o6" points="-14.956300,-37.621003 -14.956300,-33.674526 -21.332604,-22.196772 -21.332604,-7.691322 -28.362238,9.210558 -38.210756,-5.018351 -28.362238,-9.849878 -25.366938,-22.196772 -28.362238,-27.670663 -28.362238,-30.677477 -23.924846,-24.573912 -14.956300,-37.621003" transform="matrix(1.47500000000000 0 0 2.65306000000000 482.04799600000001 323.10237311000009)" fill="rgb(108,73,56)" stroke="none" stroke-width="0"/><path id="eTpvL3fO89o7" d="M-5.866946,322.682032C155.893138,322.682032,228.632144,194.447355,228.632144,194.447355C308.191625,42.734635,306.270691,30.568720,364.271623,194.447355Q418.371648,322.889038,634.133054,322.682032" transform="matrix(1 0 0 1 5.86694600000001 41.56488721500003)" fill="rgb(62,149,72)" stroke="rgb(23,69,37)" stroke-width="1"/><rect id="eTpvL3fO89o8" width="640" height="116.736595" rx="0" ry="0" transform="matrix(1 0 0 1 0 363.26340511000001)" fill="rgb(63,149,73)" stroke="none" stroke-width="0"/></svg>