<?xml version="1.0" encoding="UTF-8" standalone="no"?>
<!-- Created with Inkscape (http://www.inkscape.org/) -->

<svg
   width="254.94569"
   height="118.69659"
   viewBox="0 0 67.454379 31.405142"
   version="1.1"
   id="svg28490"
   inkscape:version="1.1 (c68e22c387, 2021-05-23)"
   sodipodi:docname="hint-water.svg"
   xmlns:inkscape="http://www.inkscape.org/namespaces/inkscape"
   xmlns:sodipodi="http://sodipodi.sourceforge.net/DTD/sodipodi-0.dtd"
   xmlns:xlink="http://www.w3.org/1999/xlink"
   xmlns="http://www.w3.org/2000/svg"
   xmlns:svg="http://www.w3.org/2000/svg">
  <sodipodi:namedview
     id="namedview28492"
     pagecolor="#505050"
     bordercolor="#ffffff"
     borderopacity="1"
     inkscape:pageshadow="0"
     inkscape:pageopacity="0"
     inkscape:pagecheckerboard="1"
     inkscape:document-units="mm"
     showgrid="false"
     units="px"
     fit-margin-top="0"
     fit-margin-left="0"
     fit-margin-right="0"
     fit-margin-bottom="0"
     inkscape:zoom="2.0000001"
     inkscape:cx="75.249998"
     inkscape:cy="61.749998"
     inkscape:window-width="1920"
     inkscape:window-height="1017"
     inkscape:window-x="1272"
     inkscape:window-y="-8"
     inkscape:window-maximized="1"
     inkscape:current-layer="layer1"
     inkscape:snap-global="false" />
  <defs
     id="defs28487">
    <inkscape:path-effect
       effect="spiro"
       id="path-effect31120"
       is_visible="true"
       lpeversion="1" />
    <inkscape:path-effect
       effect="spiro"
       id="path-effect31114"
       is_visible="true"
       lpeversion="1" />
    <inkscape:path-effect
       effect="spiro"
       id="path-effect30170"
       is_visible="true"
       lpeversion="1" />
    <inkscape:path-effect
       effect="spiro"
       id="path-effect28586"
       is_visible="true"
       lpeversion="1" />
  </defs>
  <g
     inkscape:label="Layer 1"
     inkscape:groupmode="layer"
     id="layer1"
     transform="translate(-24.045076,-33.664091)">
    <path
       id="path28728"
       style="fill:#000000;fill-opacity:0.198135;stroke:#000000;stroke-width:0.920075;stroke-linecap:round;stroke-linejoin:round;stroke-miterlimit:4;stroke-dasharray:none;stroke-opacity:0.296037;paint-order:stroke fill markers"
       d="m 42.395319,47.255489 c 0.132197,2.450296 -2.275139,4.443418 -5.081667,4.443418 -2.806527,0 -5.034034,-1.989872 -5.081666,-4.443418 -0.07419,-3.821237 1.403558,-2.754996 5.155851,-11.3554 2.824643,8.714068 4.784927,7.230339 5.007482,11.3554 z"
       sodipodi:nodetypes="ssscs" />
    <g
       id="g50287"
       transform="translate(0.79375025,-9.2604167)">
      <g
         id="g50456"
         transform="matrix(0.72898046,0,0,0.8362074,7.1849597,9.7634647)">
        <path
           style="fill:none;stroke:#000000;stroke-width:0.818447;stroke-linecap:round;stroke-linejoin:miter;stroke-miterlimit:4;stroke-dasharray:none;stroke-opacity:0.202797"
           d="m 22.969231,69.78137 c 1.526474,0.22379 3.136615,-0.192596 4.363231,-1.128339 1.076794,-0.821449 1.846169,-2.002834 2.959146,-2.774551 0.642404,-0.445431 1.396411,-0.743297 2.176578,-0.792608 0.780167,-0.04931 1.584835,0.160395 2.205473,0.635684 0.618645,0.473763 1.02043,1.171034 1.384747,1.859834 0.364317,0.6888 0.71765,1.402378 1.274425,1.947514 0.72092,0.705849 1.756881,1.068242 2.763218,0.9959 1.006338,-0.07234 1.969667,-0.570226 2.634189,-1.329409 0.488492,-0.558076 0.813186,-1.236433 1.168418,-1.887495 0.355233,-0.651063 0.761462,-1.299473 1.359849,-1.737659 0.70088,-0.51324 1.62398,-0.686852 2.47873,-0.531772 0.854751,0.155079 1.638022,0.62282 2.234799,1.254093 0.787651,0.83318 1.254417,1.924891 2.02096,2.777531 0.662065,0.736428 1.541584,1.274918 2.498519,1.529733 0.956936,0.254816 1.987779,0.225021 2.928399,-0.08464"
           id="path30166"
           inkscape:path-effect="#path-effect30170"
           inkscape:original-d="m 22.969231,69.78137 c 1.724658,-0.07665 2.638635,-1.051565 4.363231,-1.128339 1.724596,-0.07677 2.243011,-1.550235 2.959146,-2.774551 0.716133,-1.224312 2.921398,-0.104558 4.382051,-0.156924 1.460653,-0.05237 1.772811,2.538288 2.659172,3.807348 0.886359,1.269056 3.598302,-0.22228 5.397407,-0.333509 1.799103,-0.111238 1.685543,-2.416709 2.528267,-3.625154 0.842724,-1.208438 3.142384,0.481613 4.713529,0.722321 1.571141,0.240715 1.192928,1.365218 2.02096,2.777531 0.828039,1.412311 3.733785,1.711961 5.426918,1.445093"
           sodipodi:nodetypes="csscsssssc" />
        <path
           style="fill:none;stroke:#000000;stroke-width:0.818447;stroke-linecap:round;stroke-linejoin:miter;stroke-miterlimit:4;stroke-dasharray:none;stroke-opacity:0.300699"
           d="m 22.755309,68.993167 c 1.526474,0.223789 3.136615,-0.192596 4.363232,-1.12834 1.076794,-0.821449 1.846169,-2.002833 2.959145,-2.77455 0.642404,-0.445431 1.396411,-0.743297 2.176578,-0.792609 0.780167,-0.04931 1.584835,0.160395 2.205474,0.635684 0.618645,0.473763 1.02043,1.171034 1.384746,1.859834 0.364317,0.6888 0.71765,1.402378 1.274425,1.947514 0.72092,0.705849 1.756881,1.068243 2.763219,0.995901 1.006337,-0.07234 1.969666,-0.570227 2.634189,-1.32941 0.488491,-0.558076 0.813185,-1.236432 1.168418,-1.887494 0.355233,-0.651063 0.761463,-1.299473 1.359849,-1.737658 0.70088,-0.513239 1.623979,-0.686852 2.47873,-0.531772 0.85475,0.155079 1.638021,0.62282 2.234798,1.254092 0.787652,0.83318 1.254418,1.924891 2.020961,2.777531 0.662065,0.736428 1.541584,1.274918 2.498519,1.529733 0.956936,0.254815 1.987779,0.225021 2.928399,-0.08464"
           id="path28584"
           inkscape:path-effect="#path-effect28586"
           inkscape:original-d="m 22.755309,68.993167 c 1.724659,-0.07665 2.638635,-1.051564 4.363232,-1.12834 1.724595,-0.07677 2.24301,-1.550235 2.959145,-2.77455 0.716134,-1.224312 2.921399,-0.104558 4.382052,-0.156925 1.460652,-0.05237 1.772811,2.538289 2.659171,3.807348 0.886359,1.269057 3.598302,-0.222279 5.397408,-0.333509 1.799103,-0.111237 1.685543,-2.416708 2.528267,-3.625152 0.842723,-1.208439 3.142384,0.481611 4.713528,0.72232 1.571142,0.240715 1.192928,1.365218 2.020961,2.777531 0.828039,1.41231 3.733784,1.711961 5.426918,1.445093"
           sodipodi:nodetypes="csscsssssc" />
        <use
           x="0"
           y="0"
           xlink:href="#path28584"
           id="use28704"
           transform="translate(-0.30658403,5.4532583)"
           width="100%"
           height="100%"
           style="stroke-width:1.2;stroke-miterlimit:4;stroke-dasharray:none" />
        <path
           style="fill:none;stroke:#010101;stroke-width:0.818447;stroke-linecap:round;stroke-linejoin:miter;stroke-miterlimit:4;stroke-dasharray:none;stroke-opacity:0"
           d="m 22.564533,69.057177 c 1.526473,0.223789 3.136614,-0.192596 4.36323,-1.128339 1.076794,-0.821449 1.84617,-2.002834 2.959146,-2.774551 0.642404,-0.445431 1.396412,-0.743297 2.176579,-0.792609 0.780167,-0.04931 1.584835,0.160395 2.205474,0.635685 0.618645,0.473763 1.020429,1.171034 1.384746,1.859834 0.364316,0.6888 0.717649,1.402378 1.274424,1.947514 0.72092,0.705849 1.756881,1.068242 2.763219,0.9959 1.006338,-0.07234 1.969666,-0.570227 2.634189,-1.32941 0.488491,-0.558076 0.813185,-1.236432 1.168418,-1.887494 0.355233,-0.651063 0.761463,-1.299472 1.359849,-1.737658 0.70088,-0.51324 1.62398,-0.686852 2.47873,-0.531773 0.854751,0.15508 1.638022,0.62282 2.234799,1.254093 0.787651,0.83318 1.254417,1.924891 2.02096,2.777531 0.662065,0.736428 1.541584,1.274918 2.498519,1.529734 0.956936,0.254815 1.987779,0.22502 2.928399,-0.08464"
           id="path31110"
           inkscape:path-effect="#path-effect31114"
           inkscape:original-d="m 22.564533,69.057177 c 1.724658,-0.07665 2.638635,-1.051565 4.36323,-1.128339 1.724597,-0.07677 2.243012,-1.550235 2.959146,-2.774551 0.716135,-1.224312 2.921398,-0.104558 4.382053,-0.156924 1.460652,-0.05237 1.772811,2.538288 2.65917,3.807348 0.88636,1.269055 3.598303,-0.22228 5.397408,-0.33351 1.799103,-0.111237 1.685543,-2.416708 2.528267,-3.625152 0.842723,-1.20844 3.142384,0.481612 4.713529,0.72232 1.571142,0.240715 1.192927,1.365218 2.02096,2.777531 0.828039,1.412311 3.733785,1.711961 5.426918,1.445093"
           sodipodi:nodetypes="csscsssssc" />
        <path
           style="fill:none;stroke:#000000;stroke-width:0.818447;stroke-linecap:round;stroke-linejoin:miter;stroke-miterlimit:4;stroke-dasharray:none;stroke-opacity:0.202797"
           d="m 22.699432,75.031778 c 1.526474,0.223789 3.136615,-0.192597 4.363232,-1.12834 1.076794,-0.821449 1.84617,-2.002833 2.959146,-2.77455 0.642404,-0.445431 1.396411,-0.743297 2.176578,-0.792609 0.780166,-0.04931 1.584835,0.160395 2.205473,0.635684 0.618645,0.473762 1.02043,1.171034 1.384747,1.859834 0.364317,0.6888 0.717649,1.402378 1.274425,1.947514 0.72092,0.705849 1.756881,1.068242 2.763218,0.9959 1.006337,-0.07234 1.969665,-0.570227 2.634188,-1.329409 0.488492,-0.558076 0.813186,-1.236432 1.168419,-1.887494 0.355233,-0.651063 0.761462,-1.299473 1.359849,-1.737658 0.70088,-0.513239 1.623979,-0.686852 2.47873,-0.531772 0.85475,0.155079 1.638021,0.62282 2.234798,1.254092 0.787652,0.83318 1.254418,1.924891 2.020961,2.777531 0.662065,0.736428 1.541584,1.274918 2.498519,1.529733 0.956936,0.254815 1.987779,0.225021 2.928399,-0.08464"
           id="path31116"
           inkscape:path-effect="#path-effect31120"
           inkscape:original-d="m 22.699432,75.031778 c 1.724659,-0.07665 2.638635,-1.051565 4.363232,-1.12834 1.724595,-0.07677 2.243011,-1.550235 2.959146,-2.77455 0.716133,-1.224313 2.921398,-0.104558 4.382051,-0.156925 1.460653,-0.05237 1.772811,2.538289 2.659172,3.807348 0.886358,1.269057 3.598301,-0.22228 5.397406,-0.333509 1.799104,-0.111237 1.685544,-2.416709 2.528268,-3.625152 0.842723,-1.208439 3.142384,0.481611 4.713528,0.72232 1.571142,0.240715 1.192928,1.365218 2.020961,2.777531 0.828039,1.41231 3.733785,1.711961 5.426918,1.445093"
           sodipodi:nodetypes="csscsssssc" />
      </g>
    </g>
    <g
       id="g50385"
       transform="matrix(0.37243083,0,0,0.49759573,66.135771,19.272489)">
      <g
         id="g46080"
         transform="matrix(0.82700248,-0.12425878,0.11579312,0.78082656,-10.914999,8.0132795)">
        <path
           style="fill:none;stroke:#000000;stroke-width:1.051;stroke-linecap:butt;stroke-linejoin:miter;stroke-miterlimit:4;stroke-dasharray:none;stroke-opacity:0.296037"
           d="M 28.735652,50.54916 C 22.082514,40.899508 8.959354,42.593183 12.959453,36.783561 c 4.000099,-5.809622 8.774009,3.150906 9.965182,2.855509 -3.17713,-1.674358 -4.258673,-6.134986 -1.626969,-7.606485 2.631705,-1.4715 7.047632,-1.862504 7.263253,6.621827 0.07549,2.970569 0.597018,7.287975 2.818246,9.497699"
           id="path42988"
           sodipodi:nodetypes="czczsc" />
        <path
           style="fill:#000000;fill-opacity:0.13986;stroke:#000000;stroke-width:1.151;stroke-linecap:butt;stroke-linejoin:miter;stroke-miterlimit:4;stroke-dasharray:none;stroke-opacity:0.200466"
           d="M 27.987298,50.783021 C 21.33416,41.133369 8.2109993,42.827044 12.211099,37.017422 c 4.000099,-5.809622 8.774009,3.150906 9.965182,2.855509 -3.17713,-1.674358 -4.258673,-6.134986 -1.626969,-7.606485 2.631705,-1.4715 7.047632,-1.862504 7.263253,6.621827 0.07549,2.970569 0.597018,7.287975 2.818246,9.497699"
           id="path45392"
           sodipodi:nodetypes="czczsc" />
      </g>
      <g
         id="g46086"
         transform="matrix(-0.82535707,-0.13488841,-0.12569857,0.77927305,80.842404,9.6747957)">
        <path
           style="fill:none;stroke:#000000;stroke-width:1.051;stroke-linecap:butt;stroke-linejoin:miter;stroke-miterlimit:4;stroke-dasharray:none;stroke-opacity:0.296037"
           d="M 28.735652,50.54916 C 22.082514,40.899508 8.959354,42.593183 12.959453,36.783561 c 4.000099,-5.809622 8.774009,3.150906 9.965182,2.855509 -3.17713,-1.674358 -4.258673,-6.134986 -1.626969,-7.606485 2.631705,-1.4715 7.047632,-1.862504 7.263253,6.621827 0.07549,2.970569 0.597018,7.287975 2.818246,9.497699"
           id="path46082"
           sodipodi:nodetypes="czczsc" />
        <path
           style="fill:#000000;fill-opacity:0.13986;stroke:#000000;stroke-width:1.151;stroke-linecap:butt;stroke-linejoin:miter;stroke-miterlimit:4;stroke-dasharray:none;stroke-opacity:0.200466"
           d="M 27.987298,50.783021 C 21.33416,41.133369 8.2109993,42.827044 12.211099,37.017422 c 4.000099,-5.809622 8.774009,3.150906 9.965182,2.855509 -3.17713,-1.674358 -4.258673,-6.134986 -1.626969,-7.606485 2.631705,-1.4715 7.047632,-1.862504 7.263253,6.621827 0.07549,2.970569 0.597018,7.287975 2.818246,9.497699"
           id="path46084"
           sodipodi:nodetypes="czczsc" />
      </g>
      <g
         id="g46092"
         transform="matrix(-0.82369221,0.14520341,-0.13499499,-0.77763519,82.300106,109.54235)">
        <path
           style="fill:none;stroke:#000000;stroke-width:1.051;stroke-linecap:butt;stroke-linejoin:miter;stroke-miterlimit:4;stroke-dasharray:none;stroke-opacity:0.296037"
           d="M 28.735652,50.54916 C 22.082514,40.899508 8.959354,42.593183 12.959453,36.783561 c 4.000099,-5.809622 8.774009,3.150906 9.965182,2.855509 -3.17713,-1.674358 -4.258673,-6.134986 -1.626969,-7.606485 2.631705,-1.4715 7.047632,-1.862504 7.263253,6.621827 0.07549,2.970569 0.597018,7.287975 2.818246,9.497699"
           id="path46088"
           sodipodi:nodetypes="czczsc" />
        <path
           style="fill:#000000;fill-opacity:0.13986;stroke:#000000;stroke-width:1.151;stroke-linecap:butt;stroke-linejoin:miter;stroke-miterlimit:4;stroke-dasharray:none;stroke-opacity:0.200466"
           d="M 27.987298,50.783021 C 21.33416,41.133369 8.2109993,42.827044 12.211099,37.017422 c 4.000099,-5.809622 8.774009,3.150906 9.965182,2.855509 -3.17713,-1.674358 -4.258673,-6.134986 -1.626969,-7.606485 2.631705,-1.4715 7.047632,-1.862504 7.263253,6.621827 0.07549,2.970569 0.597018,7.287975 2.818246,9.497699"
           id="path46090"
           sodipodi:nodetypes="czczsc" />
      </g>
      <g
         id="g46098"
         transform="matrix(0.98378679,0.14186085,0.13774535,-0.89143579,-15.786042,123.08488)">
        <path
           style="fill:none;stroke:#000000;stroke-width:0.901857;stroke-linecap:butt;stroke-linejoin:miter;stroke-miterlimit:4;stroke-dasharray:none;stroke-opacity:0.296037"
           d="M 24.259872,58.129347 C 18.708554,49.720992 7.6585289,51.275303 11.052295,46.169033 c 3.393767,-5.106271 7.367231,2.70932 8.370913,2.444259 -2.665148,-1.447863 -3.5536,-5.345645 -1.33217,-6.647885 2.221431,-1.302242 5.938886,-1.668687 6.079304,5.755199 0.04916,2.599282 0.467107,6.374799 2.32537,8.296439"
           id="path46094"
           sodipodi:nodetypes="czczsc" />
        <path
           style="fill:#000000;fill-opacity:0.13986;stroke:#000000;stroke-width:0.987667;stroke-linecap:butt;stroke-linejoin:miter;stroke-miterlimit:4;stroke-dasharray:none;stroke-opacity:0.200466"
           d="M 23.629076,58.338122 C 18.077758,49.929767 7.0277322,51.484077 10.421499,46.377807 c 3.393766,-5.10627 7.367231,2.70932 8.370913,2.44426 -2.665148,-1.447863 -3.5536,-5.345645 -1.33217,-6.647885 2.221431,-1.302242 5.938886,-1.668687 6.079303,5.755199 0.04916,2.599282 0.467108,6.374799 2.325371,8.296439"
           id="path46096"
           sodipodi:nodetypes="czczsc" />
      </g>
      <g
         transform="matrix(0.00412023,0,0,-0.00412081,13.713584,92.045925)"
         fill="#000000"
         stroke="none"
         id="g44918"
         style="fill:#000000;fill-opacity:0.196078">
        <path
           d="M 4481,12790 C 3125,12709 1982,12266 1145,11494 843,11216 570,10865 357,10483 171,10147 78,9900 36,9625 -58,9005 51,8043 306,7250 l 56,-176 77,-60 c 42,-33 104,-95 138,-137 116,-144 174,-261 313,-632 80,-211 83,-224 88,-320 9,-195 -35,-391 -193,-870 -160,-484 -170,-534 -154,-765 28,-409 124,-569 359,-600 41,-5 136,-9 210,-9 219,0 349,33 406,103 46,55 117,70 339,70 244,1 439,-30 620,-99 204,-76 329,-206 350,-361 6,-44 3,-59 -19,-103 -36,-70 -58,-173 -50,-227 14,-96 87,-153 205,-162 l 69,-5 20,45 c 10,24 26,91 35,149 35,227 60,290 130,323 33,16 41,16 74,4 31,-12 38,-20 49,-63 7,-28 16,-114 19,-192 l 6,-142 -38,-78 c -28,-58 -39,-95 -42,-145 -8,-97 2,-108 124,-142 77,-21 118,-40 191,-87 138,-90 180,-105 278,-100 44,2 54,31 65,186 20,271 33,327 83,361 33,21 82,21 106,-1 36,-32 43,-79 36,-221 -7,-124 -6,-136 15,-176 73,-146 222,-186 381,-101 107,57 125,99 147,338 23,244 34,330 43,349 10,18 10,18 28,0 20,-21 53,-115 72,-204 7,-38 16,-56 24,-53 25,9 104,-224 119,-353 10,-81 24,-100 92,-120 111,-32 291,3 372,73 69,59 85,119 55,207 -9,27 -13,51 -8,56 5,5 33,0 64,-12 30,-11 63,-21 73,-21 12,-1 28,-20 44,-51 14,-28 51,-75 82,-106 68,-68 154,-105 243,-105 49,0 61,4 87,29 56,54 64,96 67,351 2,201 5,238 23,296 34,107 107,189 170,189 37,0 85,-59 105,-129 9,-34 21,-123 26,-199 15,-231 55,-310 175,-347 162,-50 406,131 431,319 5,32 -3,76 -30,173 -42,153 -44,200 -12,268 112,232 431,419 840,491 59,10 96,11 141,4 81,-13 103,-21 285,-102 85,-39 190,-79 234,-90 101,-26 143,-18 315,57 213,94 305,158 342,240 27,58 24,86 -26,230 -68,197 -150,473 -189,635 -64,269 -70,323 -71,580 0,206 3,247 22,335 33,150 85,308 136,415 25,52 75,185 111,294 37,110 82,228 101,262 53,94 124,165 249,248 260,173 414,410 511,789 119,464 125,1094 19,1787 -35,229 -76,400 -118,498 -339,788 -1036,1457 -2026,1946 -770,380 -1594,603 -2555,691 -201,19 -777,27 -984,15 z M 2920,7779 c 157,-14 269,-34 413,-74 165,-45 282,-97 462,-205 342,-206 520,-362 602,-528 33,-66 37,-81 36,-150 -1,-145 -67,-269 -263,-491 -216,-247 -510,-422 -853,-510 -146,-38 -283,-53 -472,-52 -387,1 -738,84 -942,222 -290,197 -453,560 -422,945 33,420 265,732 617,826 122,32 552,41 822,17 z m 4930,-1 c 100,-12 215,-51 297,-99 85,-50 219,-188 275,-285 57,-97 112,-257 129,-373 18,-126 7,-333 -24,-453 -92,-353 -333,-604 -674,-703 -435,-127 -908,-127 -1283,1 -120,41 -327,148 -429,221 -164,118 -357,322 -451,477 -174,287 -89,495 325,791 337,240 612,360 942,410 215,33 684,40 893,13 z M 5202,6099 c 21,-5 49,-20 63,-32 48,-43 593,-1001 621,-1092 25,-82 28,-164 7,-205 -51,-99 -205,-116 -360,-40 -66,32 -90,63 -158,200 -15,30 -39,70 -52,87 -58,75 -211,112 -327,79 -75,-22 -128,-75 -185,-185 -77,-148 -153,-208 -292,-230 -71,-12 -151,0 -189,27 -36,26 -60,80 -60,133 0,102 44,195 315,669 302,527 330,569 398,589 44,13 174,13 219,0 z"
           id="path44914"
           style="fill:#000000;fill-opacity:0.196078" />
        <path
           d="m 2199,3600 c -33,-19 -61,-109 -68,-220 -15,-242 25,-562 105,-840 54,-188 55,-202 64,-650 5,-234 13,-465 19,-515 42,-332 144,-479 379,-540 35,-9 121,-22 190,-29 l 127,-12 395,-151 c 217,-83 420,-156 450,-163 184,-43 386,-135 605,-276 172,-111 246,-147 354,-175 157,-40 479,-34 659,12 42,11 118,42 171,71 176,96 224,117 296,128 174,28 204,34 275,57 151,49 297,160 387,297 56,85 323,397 385,450 91,78 191,121 379,161 96,20 117,29 225,95 131,79 195,134 227,195 29,54 28,163 -2,265 -48,167 -54,247 -61,895 -7,637 -9,655 -52,740 -59,113 -159,103 -242,-24 -50,-76 -74,-159 -155,-544 -39,-186 -79,-353 -87,-370 -72,-141 -183,-183 -310,-116 -32,17 -75,39 -96,50 -84,43 -191,72 -275,73 -75,1 -85,-1 -125,-29 -29,-20 -52,-48 -71,-86 -29,-58 -56,-181 -57,-258 0,-40 -2,-43 -22,-38 -13,3 -57,9 -98,12 -103,9 -123,19 -172,84 -23,31 -51,64 -63,73 -29,25 -154,52 -198,44 -47,-9 -89,-52 -111,-113 -35,-98 -30,-93 -88,-93 -29,0 -83,-3 -119,-6 l -66,-7 -13,54 c -32,132 -47,147 -132,128 -69,-15 -98,-37 -98,-72 0,-46 -22,-61 -98,-65 l -69,-4 -80,81 c -182,185 -359,186 -468,3 -32,-54 -24,-51 -162,-68 l -51,-6 -20,38 c -26,51 -87,109 -134,129 -110,45 -199,-20 -230,-169 l -13,-59 -80,7 c -44,3 -94,6 -112,6 -28,0 -33,5 -46,43 -9,23 -18,80 -21,126 -3,50 -12,93 -21,107 -24,36 -88,64 -173,74 -42,5 -113,14 -157,19 l -80,10 -36,-39 c -46,-51 -78,-58 -123,-31 -34,21 -253,264 -289,321 -24,38 -52,157 -82,350 -37,244 -65,321 -162,458 -72,102 -149,144 -204,112 z"
           id="path44916"
           style="fill:#000000;fill-opacity:0.196078" />
      </g>
      <use
         x="0"
         y="0"
         xlink:href="#g44918"
         id="use49381"
         transform="translate(-0.40341971,-0.56626685)"
         width="100%"
         height="100%" />
    </g>
  </g>
</svg>
