<?xml version="1.0" encoding="UTF-8" standalone="no"?>
<!-- Created with Inkscape (http://www.inkscape.org/) -->

<svg
   width="300"
   height="277.80887"
   viewBox="0 0 79.374993 73.503606"
   version="1.1"
   id="svg28490"
   inkscape:version="1.1.1 (3bf5ae0d25, 2021-09-20)"
   sodipodi:docname="hint-ants.svg"
   xmlns:inkscape="http://www.inkscape.org/namespaces/inkscape"
   xmlns:sodipodi="http://sodipodi.sourceforge.net/DTD/sodipodi-0.dtd"
   xmlns:xlink="http://www.w3.org/1999/xlink"
   xmlns="http://www.w3.org/2000/svg"
   xmlns:svg="http://www.w3.org/2000/svg">
  <sodipodi:namedview
     id="namedview28492"
     pagecolor="#505050"
     bordercolor="#ffffff"
     borderopacity="1"
     inkscape:pageshadow="0"
     inkscape:pageopacity="0"
     inkscape:pagecheckerboard="1"
     inkscape:document-units="mm"
     showgrid="false"
     units="px"
     fit-margin-top="0"
     fit-margin-left="0"
     fit-margin-right="0"
     fit-margin-bottom="0"
     inkscape:zoom="1.4142136"
     inkscape:cx="-41.365744"
     inkscape:cy="162.281"
     inkscape:window-width="1920"
     inkscape:window-height="1017"
     inkscape:window-x="1272"
     inkscape:window-y="-8"
     inkscape:window-maximized="1"
     inkscape:current-layer="layer1"
     inkscape:snap-global="false" />
  <defs
     id="defs28487">
    <inkscape:path-effect
       effect="spiro"
       id="path-effect31120"
       is_visible="true"
       lpeversion="1" />
    <inkscape:path-effect
       effect="spiro"
       id="path-effect31114"
       is_visible="true"
       lpeversion="1" />
    <inkscape:path-effect
       effect="spiro"
       id="path-effect30170"
       is_visible="true"
       lpeversion="1" />
    <inkscape:path-effect
       effect="spiro"
       id="path-effect28586"
       is_visible="true"
       lpeversion="1" />
    <inkscape:path-effect
       effect="spiro"
       id="path-effect6152"
       is_visible="true"
       lpeversion="1" />
    <inkscape:path-effect
       effect="spiro"
       id="path-effect5936"
       is_visible="true"
       lpeversion="1" />
    <inkscape:path-effect
       effect="spiro"
       id="path-effect33631"
       is_visible="true"
       lpeversion="1" />
    <inkscape:path-effect
       effect="spiro"
       id="path-effect22900"
       is_visible="true"
       lpeversion="1" />
  </defs>
  <g
     inkscape:label="Layer 1"
     inkscape:groupmode="layer"
     id="layer1"
     transform="translate(345.12296,14.632235)">
    <g
       id="use39305"
       transform="matrix(-0.13866558,0.1475934,0.10500165,0.17945554,-365.44492,8.6396935)"
       style="fill:#000000;fill-opacity:0.319347">
      <g
         id="g21795"
         transform="matrix(1.0341038,-0.22870105,0.23802011,0.91438072,-17.946082,-4.5144958)">
        <path
           style="fill:#000000;fill-opacity:0.319347;stroke:none;stroke-width:0.0538732px;stroke-linecap:butt;stroke-linejoin:miter;stroke-opacity:1"
           d="m -88.993802,90.280274 c -0.588552,0.305955 -0.567504,2.669978 -0.20184,4.1129 0.256185,1.010909 0.146421,2.700313 0.704212,2.540292 0.714594,-0.205012 -0.272448,-2.398738 0.133164,-3.334255 0.266708,-0.615177 0.149756,-3.727184 -0.635536,-3.318937 z"
           id="path39519"
           sodipodi:nodetypes="sssss" />
        <path
           style="fill:#000000;fill-opacity:0.319347;stroke:none;stroke-width:0.0674857px;stroke-linecap:butt;stroke-linejoin:miter;stroke-opacity:1"
           d="m -88.438292,96.516665 c -0.144991,-0.880705 -2.287787,1.231436 -3.67465,3.209264 -0.971631,1.385651 -2.475005,2.651491 -2.455115,3.599971 0.02548,1.21515 2.230462,-2.63322 2.985795,-2.66115 0.496651,-0.0189 3.337437,-2.972978 3.14397,-4.148085 z"
           id="path39521"
           sodipodi:nodetypes="sssss" />
        <path
           style="fill:#000000;fill-opacity:0.319347;stroke:none;stroke-width:0.0954944px;stroke-linecap:butt;stroke-linejoin:miter;stroke-opacity:1"
           d="m -97.69246,92.189523 c 0.977693,-0.05736 -0.989588,4.550163 -2.9257,7.752527 -1.35643,2.24358 -2.50223,5.3983 -3.53452,5.70467 -1.32252,0.39249 2.51947,-4.9528 2.43528,-6.318511 -0.0554,-0.898045 2.720386,-7.062108 4.02494,-7.138686 z"
           id="path39523"
           sodipodi:nodetypes="sssss" />
        <g
           id="g39529"
           transform="matrix(-0.18278581,0.38920873,-0.39516513,-0.21823364,-4.3399341,69.927593)"
           style="fill:#000000;fill-opacity:0.319347">
          <path
             style="fill:#000000;fill-opacity:0.319347;stroke:none;stroke-width:0.264583px;stroke-linecap:butt;stroke-linejoin:miter;stroke-opacity:1"
             d="m 153.10455,172.35846 c -3.1146,1.53594 0.40129,10.6269 4.67731,15.96129 2.99578,3.73726 4.75499,10.3098 7.89294,9.35459 4.02024,-1.22379 -5.08335,-9.07187 -3.97571,-12.92103 0.72835,-2.53108 -4.43877,-14.44423 -8.59454,-12.39485 z"
             id="path39525"
             sodipodi:nodetypes="sssss" />
          <path
             style="fill:#000000;fill-opacity:0.319347;stroke:none;stroke-width:0.237506px;stroke-linecap:butt;stroke-linejoin:miter;stroke-opacity:1"
             d="m 152.48648,172.10632 c -2.72062,1.41689 0.35053,9.80318 4.08565,14.72409 2.61682,3.44757 4.1535,9.51065 6.89451,8.62948 3.5117,-1.12893 -4.44032,-8.36868 -3.47279,-11.91948 0.63621,-2.33489 -3.87729,-13.32461 -7.50737,-11.43409 z"
             id="path39527"
             sodipodi:nodetypes="sssss" />
        </g>
        <path
           style="fill:#000000;fill-opacity:0.319347;stroke:none;stroke-width:0.145867px;stroke-linecap:butt;stroke-linejoin:miter;stroke-opacity:1"
           d="m -110.89432,91.055769 c -1.05534,-1.515602 -5.00127,2.527509 -7.08473,6.211911 -1.45967,2.581285 -4.3945,5.04032 -3.61231,6.6949 1.00213,2.11977 3.77259,-4.968289 5.71542,-5.140926 1.27753,-0.113505 6.38976,-5.743628 4.98162,-7.765885 z"
           id="path39531"
           sodipodi:nodetypes="sssss" />
        <path
           style="fill:#000000;fill-opacity:0.319347;stroke:none;stroke-width:0.0986911;stroke-linecap:butt;stroke-linejoin:miter;stroke-miterlimit:4;stroke-dasharray:none;stroke-opacity:1"
           d="m -80.678459,93.786629 c 0.929949,3.199521 1.101122,5.067499 3.195923,4.958459 -2.646517,-3.243096 -1.175466,-6.398177 2.171739,-2.148408 0.326862,-2.414675 -3.484116,-5.68902 -4.632022,-3.90497 -0.636146,0.396706 -0.735661,1.09488 -0.735661,1.09488 z"
           id="path39533"
           sodipodi:nodetypes="ccccc" />
        <path
           id="path39535"
           style="fill:#000000;fill-opacity:0.319347;stroke-width:0.0333721;stroke-linejoin:bevel"
           d="m -92.577077,88.525982 c -0.224746,-3.415267 4.803621,-2.876036 6.480749,-2.687693 1.988215,0.223272 1.664336,5.412593 1.575415,6.662614 -0.228784,3.216107 -4.845217,2.572178 -5.560152,2.126975 -2.004723,-1.248376 -2.224036,-1.969056 -2.496012,-6.101896 z"
           sodipodi:nodetypes="sssss" />
        <path
           id="path39537"
           style="fill:#000000;fill-opacity:0.319347;stroke-width:0.0271995;stroke-linejoin:bevel"
           d="m -91.32005,87.947182 c -0.182087,-2.746502 3.970644,-2.318148 5.35569,-2.168448 1.641965,0.177462 1.368988,4.35134 1.294232,5.356771 -0.192349,2.586805 -4.004675,2.073812 -4.594722,1.716511 -1.654522,-1.001882 -1.834902,-1.581268 -2.0552,-4.904834 z"
           sodipodi:nodetypes="sssss" />
        <path
           id="path39539"
           style="fill:#000000;fill-opacity:0.319347;stroke-width:0.0400642;stroke-linejoin:bevel"
           d="m -101.82312,88.590914 c -0.26228,-3.847174 6.164791,-3.276748 8.308385,-3.076924 2.541201,0.236883 2.088781,6.087397 1.965856,7.496758 -0.316274,3.626092 -6.215761,2.934635 -7.126859,2.438211 -2.554772,-1.392 -2.829942,-2.20255 -3.147382,-6.858045 z"
           sodipodi:nodetypes="sssss" />
        <path
           id="path39541"
           style="fill:#000000;fill-opacity:0.319347;stroke-width:0.0326537;stroke-linejoin:bevel"
           d="m -100.21118,87.929321 c -0.2126,-3.093829 5.095341,-2.641864 6.865664,-2.483423 2.098694,0.187824 1.718861,4.893606 1.615846,6.027224 -0.265042,2.916632 -5.137076,2.366767 -5.889093,1.968481 -2.108687,-1.116826 -2.335118,-1.768416 -2.592417,-5.512282 z"
           sodipodi:nodetypes="sssss" />
        <path
           id="path39543"
           style="fill:#000000;fill-opacity:0.319347;stroke-width:0.0641335;stroke-linejoin:bevel"
           d="m -100.71412,88.718295 c 2.294664,3.612113 -3.60953,7.805981 -9.19748,9.538477 -5.58794,1.732485 -13.2131,0.234996 -15.50776,-3.377114 -2.29467,-3.6121 -0.919,-7.673443 4.66893,-9.405933 5.58794,-1.732492 17.74164,-0.36754 20.03631,3.24457 z"
           sodipodi:nodetypes="sssss" />
        <path
           id="path39545"
           style="fill:#000000;fill-opacity:0.319347;stroke-width:0.0594719;stroke-linejoin:bevel"
           d="m -100.65442,88.300484 c 2.269536,3.091685 -3.66103,6.739565 -9.25883,8.267907 -5.5978,1.528341 -13.21036,0.29198 -15.47989,-2.799712 -2.26953,-3.091689 -0.86689,-6.594776 4.73091,-8.123117 5.59779,-1.528346 17.73828,-0.436769 20.00781,2.654922 z"
           sodipodi:nodetypes="sssss" />
        <path
           id="path39547"
           style="fill:#000000;fill-opacity:0.319347;stroke-width:0.0184835;stroke-linejoin:bevel"
           d="m -116.76396,86.496044 c 0.98545,0.621399 -0.57932,2.243456 -2.22124,3.24449 -1.64194,1.001031 -4.16041,1.444859 -5.14586,0.823462 -0.98544,-0.621401 -0.84284,-1.735843 0.7991,-2.736878 1.64193,-1.001034 5.58256,-1.95248 6.568,-1.331074 z"
           sodipodi:nodetypes="sssss" />
        <path
           style="fill:#000000;fill-opacity:0.319347;stroke:none;stroke-width:0.0884351px;stroke-linecap:butt;stroke-linejoin:miter;stroke-opacity:1"
           d="m -94.638482,93.870744 c -0.652904,1.113667 -2.204754,-2.008323 -2.882197,-4.819523 -0.474623,-1.969524 -1.679019,-3.880293 -1.146456,-5.104334 0.6823,-1.568202 1.382663,3.812334 2.313262,3.98529 0.611915,0.113736 2.586542,4.452619 1.715391,5.938567 z"
           id="path39549"
           sodipodi:nodetypes="sssss"
           inkscape:transform-center-x="1.3244685"
           inkscape:transform-center-y="-3.7226961" />
        <path
           style="fill:#000000;fill-opacity:0.319347;stroke:none;stroke-width:0.133111px;stroke-linecap:butt;stroke-linejoin:miter;stroke-opacity:1"
           d="m -98.275748,83.797019 c 1.065475,0.154457 -1.731452,7.758109 -4.290382,12.89417 -1.79281,3.598311 -3.49031,8.857031 -4.65099,9.126961 -1.48702,0.34581 3.44417,-8.067601 3.55168,-10.49582 0.0708,-1.596719 3.96803,-11.731411 5.389692,-11.525311 z"
           id="path39551"
           sodipodi:nodetypes="sssss" />
        <path
           style="fill:#000000;fill-opacity:0.319347;stroke:none;stroke-width:0.0982176px;stroke-linecap:butt;stroke-linejoin:miter;stroke-opacity:1"
           d="m -101.54537,91.527491 c -0.002,-1.585998 -2.93572,-5.472612 -4.95193,-7.198647 -1.41256,-1.209252 -3.42946,-4.215313 -3.58823,-2.928018 -0.20341,1.649244 3.13742,3.483809 4.03391,5.780029 0.58951,1.509919 4.50871,6.462816 4.50625,4.346636 z"
           id="path39553"
           sodipodi:nodetypes="sssss" />
        <path
           style="fill:#000000;fill-opacity:0.319347;stroke:none;stroke-width:0.174904px;stroke-linecap:butt;stroke-linejoin:miter;stroke-opacity:1"
           d="m -109.07917,81.31866 c -0.56787,-1.783321 -6.63392,5.111644 -10.46604,10.91671 -2.68479,4.067033 -6.97394,8.4297 -6.76877,10.49349 0.26289,2.64406 6.24737,-8.132439 8.49585,-8.987832 1.47852,-0.56247 9.49668,-10.042897 8.73896,-12.422368 z"
           id="path39555"
           sodipodi:nodetypes="sssss"
           inkscape:transform-center-x="7.9329315"
           inkscape:transform-center-y="10.164559" />
        <path
           style="fill:#000000;fill-opacity:0.319347;stroke:none;stroke-width:0.0538732px;stroke-linecap:butt;stroke-linejoin:miter;stroke-opacity:1"
           d="m -88.2702,91.072131 c -0.435144,0.512577 0.434735,2.700201 1.292507,3.89854 0.600952,0.839558 1.106999,2.451329 1.566115,2.08626 0.588206,-0.467716 -1.115234,-2.122318 -1.076032,-3.148656 0.02584,-0.67489 -1.201991,-3.520055 -1.78259,-2.836144 z"
           id="path39557"
           sodipodi:nodetypes="sssss" />
        <path
           style="fill:#000000;fill-opacity:0.319347;stroke:none;stroke-width:0.0674857px;stroke-linecap:butt;stroke-linejoin:miter;stroke-opacity:1"
           d="m -85.512282,96.649166 c -0.451115,-0.761764 -1.6763,2.031562 -2.249545,4.406784 -0.40161,1.66408 -1.338908,3.42322 -0.979307,4.29648 0.460718,1.11879 1.118956,-3.31135 1.8086,-3.63038 0.453491,-0.20978 2.022174,-4.056467 1.420252,-5.072884 z"
           id="path39559"
           sodipodi:nodetypes="sssss" />
        <path
           id="path39561"
           style="fill:#000000;fill-opacity:0.319347;stroke:none;stroke-width:0.508755;stroke-linejoin:bevel;stroke-miterlimit:4;stroke-dasharray:none;stroke-opacity:1"
           d="m -76.356975,89.981685 c 0.145657,1.919101 -1.064135,4.333403 -2.507413,4.909457 -1.884085,0.752003 -3.526434,-0.646558 -5.408393,-3.416617 -2.844672,-4.1871 -5.652078,-4.835654 1.588318,-7.496471 4.847019,-1.781263 6.125009,3.336206 6.327488,6.003631 z"
           sodipodi:nodetypes="sssss" />
        <path
           id="path39563"
           style="fill:#000000;fill-opacity:0.319347;stroke:none;stroke-width:0.466229;stroke-linejoin:bevel;stroke-miterlimit:4;stroke-dasharray:none;stroke-opacity:1"
           d="m -76.475548,88.386945 c 0.454172,1.888323 -0.122509,4.434223 -1.211603,5.182854 -1.421738,0.977285 -2.871256,-0.304115 -5.051824,-2.732248 -4.286929,-4.77365 -5.926589,-4.466582 -0.0095,-7.279212 5.184193,-2.464234 5.641637,2.203966 6.272889,4.828606 z"
           sodipodi:nodetypes="sssss" />
        <path
           id="path39565"
           style="fill:#000000;fill-opacity:0.319347;stroke-width:0.0614314;stroke-linejoin:bevel"
           d="m -76.746823,87.910159 c 0.300261,1.179663 -0.247984,2.8023 -1.146261,3.304329 -1.172638,0.655355 -2.412551,-0.05152 -3.95713,-1.587957 -2.334697,-2.322425 -4.599746,-2.659042 0.238278,-4.594561 4.238761,-1.695771 4.447765,1.238534 4.865113,2.878189 z"
           sodipodi:nodetypes="sssss" />
        <path
           id="path39567"
           style="fill:#000000;fill-opacity:0.319347;stroke-width:0.0314032;stroke-linejoin:bevel"
           d="m -77.385193,85.454634 c 0.200639,0.856031 0.118892,1.984132 -0.177549,2.29573 -0.387012,0.40677 -0.901728,-0.160615 -1.592334,-1.334778 -1.04389,-1.774824 -1.912199,-2.131021 -0.257595,-3.261759 1.449666,-0.990676 1.748591,1.110987 2.027478,2.300807 z"
           sodipodi:nodetypes="sssss" />
        <path
           id="use39569"
           style="fill:#000000;fill-opacity:0.319347;stroke-width:0.0314032;stroke-linejoin:bevel"
           d="m -83.689691,88.076802 c 0.773603,0.561932 1.958731,1.039751 2.417139,0.963889 0.598434,-0.09905 0.268364,-0.761218 -0.593944,-1.847248 -1.303436,-1.641599 -1.249752,-2.471051 -3.190261,-1.756434 -1.700149,0.62611 0.291823,1.85874 1.367066,2.639793 z"
           sodipodi:nodetypes="sssss" />
        <path
           id="path39571"
           style="fill:#000000;fill-opacity:0.319347;stroke-width:0.311681;stroke-linejoin:bevel"
           d="m -81.222075,83.775998 0.643968,-0.275194 c 0,0 0.393533,-5.216014 -0.03863,-6.588043 -0.155043,-0.492241 -0.495444,-0.346779 -0.643959,0.275194 -0.413954,1.733605 0.03862,6.588043 0.03862,6.588043 z"
           sodipodi:nodetypes="ccaac" />
        <path
           id="use39573"
           style="fill:#000000;fill-opacity:0.319347;stroke-width:0.311681;stroke-linejoin:bevel"
           d="m -84.160225,85.046115 0.426055,-0.49795 c 0,0 -2.472568,-4.739835 -3.601304,-5.773544 -0.404952,-0.370864 -0.630168,-0.107653 -0.426048,0.497945 0.568934,1.687967 3.601296,5.773549 3.601297,5.773549 z"
           sodipodi:nodetypes="ccaac" />
      </g>
    </g>
    <g
       id="use39309"
       transform="matrix(0.25706647,0.08412649,-0.07171295,0.37179384,-286.98085,9.3136396)"
       style="fill:#000000;fill-opacity:0.319347">
      <g
         id="g23091"
         transform="matrix(0.92305347,0.20427295,-0.40031621,0.99477036,29.753847,21.289696)">
        <path
           style="fill:#000000;fill-opacity:0.319347;stroke:none;stroke-width:0.0538732px;stroke-linecap:butt;stroke-linejoin:miter;stroke-opacity:1"
           d="m -88.993802,90.280274 c -0.588552,0.305955 -0.567504,2.669978 -0.20184,4.1129 0.256185,1.010909 0.146421,2.700313 0.704212,2.540292 0.714594,-0.205012 -0.272448,-2.398738 0.133164,-3.334255 0.266708,-0.615177 0.149756,-3.727184 -0.635536,-3.318937 z"
           id="path39577"
           sodipodi:nodetypes="sssss" />
        <path
           style="fill:#000000;fill-opacity:0.319347;stroke:none;stroke-width:0.0674857px;stroke-linecap:butt;stroke-linejoin:miter;stroke-opacity:1"
           d="m -88.438292,96.516665 c -0.144991,-0.880705 -2.287787,1.231436 -3.67465,3.209264 -0.971631,1.385651 -2.475005,2.651491 -2.455115,3.599971 0.02548,1.21515 2.230462,-2.63322 2.985795,-2.66115 0.496651,-0.0189 3.337437,-2.972978 3.14397,-4.148085 z"
           id="path39579"
           sodipodi:nodetypes="sssss" />
        <path
           style="fill:#000000;fill-opacity:0.319347;stroke:none;stroke-width:0.0954944px;stroke-linecap:butt;stroke-linejoin:miter;stroke-opacity:1"
           d="m -97.69246,92.189523 c 0.977693,-0.05736 -0.989588,4.550163 -2.9257,7.752527 -1.35643,2.24358 -2.50223,5.3983 -3.53452,5.70467 -1.32252,0.39249 2.51947,-4.9528 2.43528,-6.318511 -0.0554,-0.898045 2.720386,-7.062108 4.02494,-7.138686 z"
           id="path39581"
           sodipodi:nodetypes="sssss" />
        <g
           id="g39587"
           transform="matrix(-0.18278581,0.38920873,-0.39516513,-0.21823364,-4.3399341,69.927593)"
           style="fill:#000000;fill-opacity:0.319347">
          <path
             style="fill:#000000;fill-opacity:0.319347;stroke:none;stroke-width:0.264583px;stroke-linecap:butt;stroke-linejoin:miter;stroke-opacity:1"
             d="m 153.10455,172.35846 c -3.1146,1.53594 0.40129,10.6269 4.67731,15.96129 2.99578,3.73726 4.75499,10.3098 7.89294,9.35459 4.02024,-1.22379 -5.08335,-9.07187 -3.97571,-12.92103 0.72835,-2.53108 -4.43877,-14.44423 -8.59454,-12.39485 z"
             id="path39583"
             sodipodi:nodetypes="sssss" />
          <path
             style="fill:#000000;fill-opacity:0.319347;stroke:none;stroke-width:0.237506px;stroke-linecap:butt;stroke-linejoin:miter;stroke-opacity:1"
             d="m 152.48648,172.10632 c -2.72062,1.41689 0.35053,9.80318 4.08565,14.72409 2.61682,3.44757 4.1535,9.51065 6.89451,8.62948 3.5117,-1.12893 -4.44032,-8.36868 -3.47279,-11.91948 0.63621,-2.33489 -3.87729,-13.32461 -7.50737,-11.43409 z"
             id="path39585"
             sodipodi:nodetypes="sssss" />
        </g>
        <path
           style="fill:#000000;fill-opacity:0.319347;stroke:none;stroke-width:0.145867px;stroke-linecap:butt;stroke-linejoin:miter;stroke-opacity:1"
           d="m -110.89432,91.055769 c -1.05534,-1.515602 -5.00127,2.527509 -7.08473,6.211911 -1.45967,2.581285 -4.3945,5.04032 -3.61231,6.6949 1.00213,2.11977 3.77259,-4.968289 5.71542,-5.140926 1.27753,-0.113505 6.38976,-5.743628 4.98162,-7.765885 z"
           id="path39589"
           sodipodi:nodetypes="sssss" />
        <path
           style="fill:#000000;fill-opacity:0.319347;stroke:none;stroke-width:0.0986911;stroke-linecap:butt;stroke-linejoin:miter;stroke-miterlimit:4;stroke-dasharray:none;stroke-opacity:1"
           d="m -80.678459,93.786629 c 0.929949,3.199521 1.101122,5.067499 3.195923,4.958459 -2.646517,-3.243096 -1.175466,-6.398177 2.171739,-2.148408 0.326862,-2.414675 -3.484116,-5.68902 -4.632022,-3.90497 -0.636146,0.396706 -0.735661,1.09488 -0.735661,1.09488 z"
           id="path39591"
           sodipodi:nodetypes="ccccc" />
        <path
           id="path39593"
           style="fill:#000000;fill-opacity:0.319347;stroke-width:0.0333721;stroke-linejoin:bevel"
           d="m -92.577077,88.525982 c -0.224746,-3.415267 4.803621,-2.876036 6.480749,-2.687693 1.988215,0.223272 1.664336,5.412593 1.575415,6.662614 -0.228784,3.216107 -4.845217,2.572178 -5.560152,2.126975 -2.004723,-1.248376 -2.224036,-1.969056 -2.496012,-6.101896 z"
           sodipodi:nodetypes="sssss" />
        <path
           id="path39595"
           style="fill:#000000;fill-opacity:0.319347;stroke-width:0.0271995;stroke-linejoin:bevel"
           d="m -91.32005,87.947182 c -0.182087,-2.746502 3.970644,-2.318148 5.35569,-2.168448 1.641965,0.177462 1.368988,4.35134 1.294232,5.356771 -0.192349,2.586805 -4.004675,2.073812 -4.594722,1.716511 -1.654522,-1.001882 -1.834902,-1.581268 -2.0552,-4.904834 z"
           sodipodi:nodetypes="sssss" />
        <path
           id="path39597"
           style="fill:#000000;fill-opacity:0.319347;stroke-width:0.0400642;stroke-linejoin:bevel"
           d="m -101.82312,88.590914 c -0.26228,-3.847174 6.164791,-3.276748 8.308385,-3.076924 2.541201,0.236883 2.088781,6.087397 1.965856,7.496758 -0.316274,3.626092 -6.215761,2.934635 -7.126859,2.438211 -2.554772,-1.392 -2.829942,-2.20255 -3.147382,-6.858045 z"
           sodipodi:nodetypes="sssss" />
        <path
           id="path39599"
           style="fill:#000000;fill-opacity:0.319347;stroke-width:0.0326537;stroke-linejoin:bevel"
           d="m -100.21118,87.929321 c -0.2126,-3.093829 5.095341,-2.641864 6.865664,-2.483423 2.098694,0.187824 1.718861,4.893606 1.615846,6.027224 -0.265042,2.916632 -5.137076,2.366767 -5.889093,1.968481 -2.108687,-1.116826 -2.335118,-1.768416 -2.592417,-5.512282 z"
           sodipodi:nodetypes="sssss" />
        <path
           id="path39601"
           style="fill:#000000;fill-opacity:0.319347;stroke-width:0.0641335;stroke-linejoin:bevel"
           d="m -100.71412,88.718295 c 2.294664,3.612113 -3.60953,7.805981 -9.19748,9.538477 -5.58794,1.732485 -13.2131,0.234996 -15.50776,-3.377114 -2.29467,-3.6121 -0.919,-7.673443 4.66893,-9.405933 5.58794,-1.732492 17.74164,-0.36754 20.03631,3.24457 z"
           sodipodi:nodetypes="sssss" />
        <path
           id="path39603"
           style="fill:#000000;fill-opacity:0.319347;stroke-width:0.0594719;stroke-linejoin:bevel"
           d="m -100.65442,88.300484 c 2.269536,3.091685 -3.66103,6.739565 -9.25883,8.267907 -5.5978,1.528341 -13.21036,0.29198 -15.47989,-2.799712 -2.26953,-3.091689 -0.86689,-6.594776 4.73091,-8.123117 5.59779,-1.528346 17.73828,-0.436769 20.00781,2.654922 z"
           sodipodi:nodetypes="sssss" />
        <path
           id="path39605"
           style="fill:#000000;fill-opacity:0.319347;stroke-width:0.0184835;stroke-linejoin:bevel"
           d="m -116.76396,86.496044 c 0.98545,0.621399 -0.57932,2.243456 -2.22124,3.24449 -1.64194,1.001031 -4.16041,1.444859 -5.14586,0.823462 -0.98544,-0.621401 -0.84284,-1.735843 0.7991,-2.736878 1.64193,-1.001034 5.58256,-1.95248 6.568,-1.331074 z"
           sodipodi:nodetypes="sssss" />
        <path
           style="fill:#000000;fill-opacity:0.319347;stroke:none;stroke-width:0.0884351px;stroke-linecap:butt;stroke-linejoin:miter;stroke-opacity:1"
           d="m -94.638482,93.870744 c -0.652904,1.113667 -2.204754,-2.008323 -2.882197,-4.819523 -0.474623,-1.969524 -1.679019,-3.880293 -1.146456,-5.104334 0.6823,-1.568202 1.382663,3.812334 2.313262,3.98529 0.611915,0.113736 2.586542,4.452619 1.715391,5.938567 z"
           id="path39607"
           sodipodi:nodetypes="sssss"
           inkscape:transform-center-x="1.3244685"
           inkscape:transform-center-y="-3.7226961" />
        <path
           style="fill:#000000;fill-opacity:0.319347;stroke:none;stroke-width:0.133111px;stroke-linecap:butt;stroke-linejoin:miter;stroke-opacity:1"
           d="m -98.275748,83.797019 c 1.065475,0.154457 -1.731452,7.758109 -4.290382,12.89417 -1.79281,3.598311 -3.49031,8.857031 -4.65099,9.126961 -1.48702,0.34581 3.44417,-8.067601 3.55168,-10.49582 0.0708,-1.596719 3.96803,-11.731411 5.389692,-11.525311 z"
           id="path39609"
           sodipodi:nodetypes="sssss" />
        <path
           style="fill:#000000;fill-opacity:0.319347;stroke:none;stroke-width:0.0982176px;stroke-linecap:butt;stroke-linejoin:miter;stroke-opacity:1"
           d="m -101.54537,91.527491 c -0.002,-1.585998 -2.93572,-5.472612 -4.95193,-7.198647 -1.41256,-1.209252 -3.42946,-4.215313 -3.58823,-2.928018 -0.20341,1.649244 3.13742,3.483809 4.03391,5.780029 0.58951,1.509919 4.50871,6.462816 4.50625,4.346636 z"
           id="path39611"
           sodipodi:nodetypes="sssss" />
        <path
           style="fill:#000000;fill-opacity:0.319347;stroke:none;stroke-width:0.174904px;stroke-linecap:butt;stroke-linejoin:miter;stroke-opacity:1"
           d="m -109.07917,81.31866 c -0.56787,-1.783321 -6.63392,5.111644 -10.46604,10.91671 -2.68479,4.067033 -6.97394,8.4297 -6.76877,10.49349 0.26289,2.64406 6.24737,-8.132439 8.49585,-8.987832 1.47852,-0.56247 9.49668,-10.042897 8.73896,-12.422368 z"
           id="path39613"
           sodipodi:nodetypes="sssss"
           inkscape:transform-center-x="7.9329315"
           inkscape:transform-center-y="10.164559" />
        <path
           style="fill:#000000;fill-opacity:0.319347;stroke:none;stroke-width:0.0538732px;stroke-linecap:butt;stroke-linejoin:miter;stroke-opacity:1"
           d="m -88.2702,91.072131 c -0.435144,0.512577 0.434735,2.700201 1.292507,3.89854 0.600952,0.839558 1.106999,2.451329 1.566115,2.08626 0.588206,-0.467716 -1.115234,-2.122318 -1.076032,-3.148656 0.02584,-0.67489 -1.201991,-3.520055 -1.78259,-2.836144 z"
           id="path39615"
           sodipodi:nodetypes="sssss" />
        <path
           style="fill:#000000;fill-opacity:0.319347;stroke:none;stroke-width:0.0674857px;stroke-linecap:butt;stroke-linejoin:miter;stroke-opacity:1"
           d="m -85.512282,96.649166 c -0.451115,-0.761764 -1.6763,2.031562 -2.249545,4.406784 -0.40161,1.66408 -1.338908,3.42322 -0.979307,4.29648 0.460718,1.11879 1.118956,-3.31135 1.8086,-3.63038 0.453491,-0.20978 2.022174,-4.056467 1.420252,-5.072884 z"
           id="path39617"
           sodipodi:nodetypes="sssss" />
        <path
           id="path39619"
           style="fill:#000000;fill-opacity:0.319347;stroke:none;stroke-width:0.508755;stroke-linejoin:bevel;stroke-miterlimit:4;stroke-dasharray:none;stroke-opacity:1"
           d="m -76.356975,89.981685 c 0.145657,1.919101 -1.064135,4.333403 -2.507413,4.909457 -1.884085,0.752003 -3.526434,-0.646558 -5.408393,-3.416617 -2.844672,-4.1871 -5.652078,-4.835654 1.588318,-7.496471 4.847019,-1.781263 6.125009,3.336206 6.327488,6.003631 z"
           sodipodi:nodetypes="sssss" />
        <path
           id="path39621"
           style="fill:#000000;fill-opacity:0.319347;stroke:none;stroke-width:0.466229;stroke-linejoin:bevel;stroke-miterlimit:4;stroke-dasharray:none;stroke-opacity:1"
           d="m -76.475548,88.386945 c 0.454172,1.888323 -0.122509,4.434223 -1.211603,5.182854 -1.421738,0.977285 -2.871256,-0.304115 -5.051824,-2.732248 -4.286929,-4.77365 -5.926589,-4.466582 -0.0095,-7.279212 5.184193,-2.464234 5.641637,2.203966 6.272889,4.828606 z"
           sodipodi:nodetypes="sssss" />
        <path
           id="path39623"
           style="fill:#000000;fill-opacity:0.319347;stroke-width:0.0614314;stroke-linejoin:bevel"
           d="m -76.746823,87.910159 c 0.300261,1.179663 -0.247984,2.8023 -1.146261,3.304329 -1.172638,0.655355 -2.412551,-0.05152 -3.95713,-1.587957 -2.334697,-2.322425 -4.599746,-2.659042 0.238278,-4.594561 4.238761,-1.695771 4.447765,1.238534 4.865113,2.878189 z"
           sodipodi:nodetypes="sssss" />
        <path
           id="path39625"
           style="fill:#000000;fill-opacity:0.319347;stroke-width:0.0314032;stroke-linejoin:bevel"
           d="m -77.385193,85.454634 c 0.200639,0.856031 0.118892,1.984132 -0.177549,2.29573 -0.387012,0.40677 -0.901728,-0.160615 -1.592334,-1.334778 -1.04389,-1.774824 -1.912199,-2.131021 -0.257595,-3.261759 1.449666,-0.990676 1.748591,1.110987 2.027478,2.300807 z"
           sodipodi:nodetypes="sssss" />
        <path
           id="use39627"
           style="fill:#000000;fill-opacity:0.319347;stroke-width:0.0314032;stroke-linejoin:bevel"
           d="m -83.689691,88.076802 c 0.773603,0.561932 1.958731,1.039751 2.417139,0.963889 0.598434,-0.09905 0.268364,-0.761218 -0.593944,-1.847248 -1.303436,-1.641599 -1.249752,-2.471051 -3.190261,-1.756434 -1.700149,0.62611 0.291823,1.85874 1.367066,2.639793 z"
           sodipodi:nodetypes="sssss" />
        <path
           id="path39629"
           style="fill:#000000;fill-opacity:0.319347;stroke-width:0.311681;stroke-linejoin:bevel"
           d="m -81.222075,83.775998 0.643968,-0.275194 c 0,0 0.393533,-5.216014 -0.03863,-6.588043 -0.155043,-0.492241 -0.495444,-0.346779 -0.643959,0.275194 -0.413954,1.733605 0.03862,6.588043 0.03862,6.588043 z"
           sodipodi:nodetypes="ccaac" />
        <path
           id="use39631"
           style="fill:#000000;fill-opacity:0.319347;stroke-width:0.311681;stroke-linejoin:bevel"
           d="m -84.160225,85.046115 0.426055,-0.49795 c 0,0 -2.472568,-4.739835 -3.601304,-5.773544 -0.404952,-0.370864 -0.630168,-0.107653 -0.426048,0.497945 0.568934,1.687967 3.601296,5.773549 3.601297,5.773549 z"
           sodipodi:nodetypes="ccaac" />
      </g>
    </g>
    <g
       id="use39311"
       transform="matrix(0.17080459,0.16470755,-0.14168949,0.26736323,-308.06611,17.734659)"
       style="fill:#000000;fill-opacity:0.319347">
      <path
         style="fill:#000000;fill-opacity:0.319347;stroke:none;stroke-width:0.0538732px;stroke-linecap:butt;stroke-linejoin:miter;stroke-opacity:1"
         d="m -88.993802,90.280274 c -0.588552,0.305955 -0.567504,2.669978 -0.20184,4.1129 0.256185,1.010909 0.146421,2.700313 0.704212,2.540292 0.714594,-0.205012 -0.272448,-2.398738 0.133164,-3.334255 0.266708,-0.615177 0.149756,-3.727184 -0.635536,-3.318937 z"
         id="path39635"
         sodipodi:nodetypes="sssss" />
      <path
         style="fill:#000000;fill-opacity:0.319347;stroke:none;stroke-width:0.0674857px;stroke-linecap:butt;stroke-linejoin:miter;stroke-opacity:1"
         d="m -88.438292,96.516665 c -0.144991,-0.880705 -2.287787,1.231436 -3.67465,3.209264 -0.971631,1.385651 -2.475005,2.651491 -2.455115,3.599971 0.02548,1.21515 2.230462,-2.63322 2.985795,-2.66115 0.496651,-0.0189 3.337437,-2.972978 3.14397,-4.148085 z"
         id="path39637"
         sodipodi:nodetypes="sssss" />
      <path
         style="fill:#000000;fill-opacity:0.319347;stroke:none;stroke-width:0.0954944px;stroke-linecap:butt;stroke-linejoin:miter;stroke-opacity:1"
         d="m -97.69246,92.189523 c 0.977693,-0.05736 -0.989588,4.550163 -2.9257,7.752527 -1.35643,2.24358 -2.50223,5.3983 -3.53452,5.70467 -1.32252,0.39249 2.51947,-4.9528 2.43528,-6.318511 -0.0554,-0.898045 2.720386,-7.062108 4.02494,-7.138686 z"
         id="path39639"
         sodipodi:nodetypes="sssss" />
      <g
         id="g39645"
         transform="matrix(-0.18278581,0.38920873,-0.39516513,-0.21823364,-4.3399341,69.927593)"
         style="fill:#000000;fill-opacity:0.319347">
        <path
           style="fill:#000000;fill-opacity:0.319347;stroke:none;stroke-width:0.264583px;stroke-linecap:butt;stroke-linejoin:miter;stroke-opacity:1"
           d="m 153.10455,172.35846 c -3.1146,1.53594 0.40129,10.6269 4.67731,15.96129 2.99578,3.73726 4.75499,10.3098 7.89294,9.35459 4.02024,-1.22379 -5.08335,-9.07187 -3.97571,-12.92103 0.72835,-2.53108 -4.43877,-14.44423 -8.59454,-12.39485 z"
           id="path39641"
           sodipodi:nodetypes="sssss" />
        <path
           style="fill:#000000;fill-opacity:0.319347;stroke:none;stroke-width:0.237506px;stroke-linecap:butt;stroke-linejoin:miter;stroke-opacity:1"
           d="m 152.48648,172.10632 c -2.72062,1.41689 0.35053,9.80318 4.08565,14.72409 2.61682,3.44757 4.1535,9.51065 6.89451,8.62948 3.5117,-1.12893 -4.44032,-8.36868 -3.47279,-11.91948 0.63621,-2.33489 -3.87729,-13.32461 -7.50737,-11.43409 z"
           id="path39643"
           sodipodi:nodetypes="sssss" />
      </g>
      <path
         style="fill:#000000;fill-opacity:0.319347;stroke:none;stroke-width:0.145867px;stroke-linecap:butt;stroke-linejoin:miter;stroke-opacity:1"
         d="m -110.89432,91.055769 c -1.05534,-1.515602 -5.00127,2.527509 -7.08473,6.211911 -1.45967,2.581285 -4.3945,5.04032 -3.61231,6.6949 1.00213,2.11977 3.77259,-4.968289 5.71542,-5.140926 1.27753,-0.113505 6.38976,-5.743628 4.98162,-7.765885 z"
         id="path39647"
         sodipodi:nodetypes="sssss" />
      <path
         style="fill:#000000;fill-opacity:0.319347;stroke:none;stroke-width:0.0986911;stroke-linecap:butt;stroke-linejoin:miter;stroke-miterlimit:4;stroke-dasharray:none;stroke-opacity:1"
         d="m -80.678459,93.786629 c 0.929949,3.199521 1.101122,5.067499 3.195923,4.958459 -2.646517,-3.243096 -1.175466,-6.398177 2.171739,-2.148408 0.326862,-2.414675 -3.484116,-5.68902 -4.632022,-3.90497 -0.636146,0.396706 -0.735661,1.09488 -0.735661,1.09488 z"
         id="path39649"
         sodipodi:nodetypes="ccccc" />
      <path
         id="path39651"
         style="fill:#000000;fill-opacity:0.319347;stroke-width:0.0333721;stroke-linejoin:bevel"
         d="m -92.577077,88.525982 c -0.224746,-3.415267 4.803621,-2.876036 6.480749,-2.687693 1.988215,0.223272 1.664336,5.412593 1.575415,6.662614 -0.228784,3.216107 -4.845217,2.572178 -5.560152,2.126975 -2.004723,-1.248376 -2.224036,-1.969056 -2.496012,-6.101896 z"
         sodipodi:nodetypes="sssss" />
      <path
         id="path39653"
         style="fill:#000000;fill-opacity:0.319347;stroke-width:0.0271995;stroke-linejoin:bevel"
         d="m -91.32005,87.947182 c -0.182087,-2.746502 3.970644,-2.318148 5.35569,-2.168448 1.641965,0.177462 1.368988,4.35134 1.294232,5.356771 -0.192349,2.586805 -4.004675,2.073812 -4.594722,1.716511 -1.654522,-1.001882 -1.834902,-1.581268 -2.0552,-4.904834 z"
         sodipodi:nodetypes="sssss" />
      <path
         id="path39655"
         style="fill:#000000;fill-opacity:0.319347;stroke-width:0.0400642;stroke-linejoin:bevel"
         d="m -101.82312,88.590914 c -0.26228,-3.847174 6.164791,-3.276748 8.308385,-3.076924 2.541201,0.236883 2.088781,6.087397 1.965856,7.496758 -0.316274,3.626092 -6.215761,2.934635 -7.126859,2.438211 -2.554772,-1.392 -2.829942,-2.20255 -3.147382,-6.858045 z"
         sodipodi:nodetypes="sssss" />
      <path
         id="path39657"
         style="fill:#000000;fill-opacity:0.319347;stroke-width:0.0326537;stroke-linejoin:bevel"
         d="m -100.21118,87.929321 c -0.2126,-3.093829 5.095341,-2.641864 6.865664,-2.483423 2.098694,0.187824 1.718861,4.893606 1.615846,6.027224 -0.265042,2.916632 -5.137076,2.366767 -5.889093,1.968481 -2.108687,-1.116826 -2.335118,-1.768416 -2.592417,-5.512282 z"
         sodipodi:nodetypes="sssss" />
      <path
         id="path39659"
         style="fill:#000000;fill-opacity:0.319347;stroke-width:0.0641335;stroke-linejoin:bevel"
         d="m -100.71412,88.718295 c 2.294664,3.612113 -3.60953,7.805981 -9.19748,9.538477 -5.58794,1.732485 -13.2131,0.234996 -15.50776,-3.377114 -2.29467,-3.6121 -0.919,-7.673443 4.66893,-9.405933 5.58794,-1.732492 17.74164,-0.36754 20.03631,3.24457 z"
         sodipodi:nodetypes="sssss" />
      <path
         id="path39661"
         style="fill:#000000;fill-opacity:0.319347;stroke-width:0.0594719;stroke-linejoin:bevel"
         d="m -100.65442,88.300484 c 2.269536,3.091685 -3.66103,6.739565 -9.25883,8.267907 -5.5978,1.528341 -13.21036,0.29198 -15.47989,-2.799712 -2.26953,-3.091689 -0.86689,-6.594776 4.73091,-8.123117 5.59779,-1.528346 17.73828,-0.436769 20.00781,2.654922 z"
         sodipodi:nodetypes="sssss" />
      <path
         id="path39663"
         style="fill:#000000;fill-opacity:0.319347;stroke-width:0.0184835;stroke-linejoin:bevel"
         d="m -116.76396,86.496044 c 0.98545,0.621399 -0.57932,2.243456 -2.22124,3.24449 -1.64194,1.001031 -4.16041,1.444859 -5.14586,0.823462 -0.98544,-0.621401 -0.84284,-1.735843 0.7991,-2.736878 1.64193,-1.001034 5.58256,-1.95248 6.568,-1.331074 z"
         sodipodi:nodetypes="sssss" />
      <path
         style="fill:#000000;fill-opacity:0.319347;stroke:none;stroke-width:0.0884351px;stroke-linecap:butt;stroke-linejoin:miter;stroke-opacity:1"
         d="m -94.638482,93.870744 c -0.652904,1.113667 -2.204754,-2.008323 -2.882197,-4.819523 -0.474623,-1.969524 -1.679019,-3.880293 -1.146456,-5.104334 0.6823,-1.568202 1.382663,3.812334 2.313262,3.98529 0.611915,0.113736 2.586542,4.452619 1.715391,5.938567 z"
         id="path39665"
         sodipodi:nodetypes="sssss"
         inkscape:transform-center-x="1.3244685"
         inkscape:transform-center-y="-3.7226961" />
      <path
         style="fill:#000000;fill-opacity:0.319347;stroke:none;stroke-width:0.133111px;stroke-linecap:butt;stroke-linejoin:miter;stroke-opacity:1"
         d="m -98.275748,83.797019 c 1.065475,0.154457 -1.731452,7.758109 -4.290382,12.89417 -1.79281,3.598311 -3.49031,8.857031 -4.65099,9.126961 -1.48702,0.34581 3.44417,-8.067601 3.55168,-10.49582 0.0708,-1.596719 3.96803,-11.731411 5.389692,-11.525311 z"
         id="path39667"
         sodipodi:nodetypes="sssss" />
      <path
         style="fill:#000000;fill-opacity:0.319347;stroke:none;stroke-width:0.0982176px;stroke-linecap:butt;stroke-linejoin:miter;stroke-opacity:1"
         d="m -101.54537,91.527491 c -0.002,-1.585998 -2.93572,-5.472612 -4.95193,-7.198647 -1.41256,-1.209252 -3.42946,-4.215313 -3.58823,-2.928018 -0.20341,1.649244 3.13742,3.483809 4.03391,5.780029 0.58951,1.509919 4.50871,6.462816 4.50625,4.346636 z"
         id="path39669"
         sodipodi:nodetypes="sssss" />
      <path
         style="fill:#000000;fill-opacity:0.319347;stroke:none;stroke-width:0.174904px;stroke-linecap:butt;stroke-linejoin:miter;stroke-opacity:1"
         d="m -109.07917,81.31866 c -0.56787,-1.783321 -6.63392,5.111644 -10.46604,10.91671 -2.68479,4.067033 -6.97394,8.4297 -6.76877,10.49349 0.26289,2.64406 6.24737,-8.132439 8.49585,-8.987832 1.47852,-0.56247 9.49668,-10.042897 8.73896,-12.422368 z"
         id="path39671"
         sodipodi:nodetypes="sssss"
         inkscape:transform-center-x="7.9329315"
         inkscape:transform-center-y="10.164559" />
      <path
         style="fill:#000000;fill-opacity:0.319347;stroke:none;stroke-width:0.0538732px;stroke-linecap:butt;stroke-linejoin:miter;stroke-opacity:1"
         d="m -88.2702,91.072131 c -0.435144,0.512577 0.434735,2.700201 1.292507,3.89854 0.600952,0.839558 1.106999,2.451329 1.566115,2.08626 0.588206,-0.467716 -1.115234,-2.122318 -1.076032,-3.148656 0.02584,-0.67489 -1.201991,-3.520055 -1.78259,-2.836144 z"
         id="path39673"
         sodipodi:nodetypes="sssss" />
      <path
         style="fill:#000000;fill-opacity:0.319347;stroke:none;stroke-width:0.0674857px;stroke-linecap:butt;stroke-linejoin:miter;stroke-opacity:1"
         d="m -85.512282,96.649166 c -0.451115,-0.761764 -1.6763,2.031562 -2.249545,4.406784 -0.40161,1.66408 -1.338908,3.42322 -0.979307,4.29648 0.460718,1.11879 1.118956,-3.31135 1.8086,-3.63038 0.453491,-0.20978 2.022174,-4.056467 1.420252,-5.072884 z"
         id="path39675"
         sodipodi:nodetypes="sssss" />
      <path
         id="path39677"
         style="fill:#000000;fill-opacity:0.319347;stroke:none;stroke-width:0.508755;stroke-linejoin:bevel;stroke-miterlimit:4;stroke-dasharray:none;stroke-opacity:1"
         d="m -76.356975,89.981685 c 0.145657,1.919101 -1.064135,4.333403 -2.507413,4.909457 -1.884085,0.752003 -3.526434,-0.646558 -5.408393,-3.416617 -2.844672,-4.1871 -5.652078,-4.835654 1.588318,-7.496471 4.847019,-1.781263 6.125009,3.336206 6.327488,6.003631 z"
         sodipodi:nodetypes="sssss" />
      <path
         id="path39679"
         style="fill:#000000;fill-opacity:0.319347;stroke:none;stroke-width:0.466229;stroke-linejoin:bevel;stroke-miterlimit:4;stroke-dasharray:none;stroke-opacity:1"
         d="m -76.475548,88.386945 c 0.454172,1.888323 -0.122509,4.434223 -1.211603,5.182854 -1.421738,0.977285 -2.871256,-0.304115 -5.051824,-2.732248 -4.286929,-4.77365 -5.926589,-4.466582 -0.0095,-7.279212 5.184193,-2.464234 5.641637,2.203966 6.272889,4.828606 z"
         sodipodi:nodetypes="sssss" />
      <path
         id="path39681"
         style="fill:#000000;fill-opacity:0.319347;stroke-width:0.0614314;stroke-linejoin:bevel"
         d="m -76.746823,87.910159 c 0.300261,1.179663 -0.247984,2.8023 -1.146261,3.304329 -1.172638,0.655355 -2.412551,-0.05152 -3.95713,-1.587957 -2.334697,-2.322425 -4.599746,-2.659042 0.238278,-4.594561 4.238761,-1.695771 4.447765,1.238534 4.865113,2.878189 z"
         sodipodi:nodetypes="sssss" />
      <path
         id="path39683"
         style="fill:#000000;fill-opacity:0.319347;stroke-width:0.0314032;stroke-linejoin:bevel"
         d="m -77.385193,85.454634 c 0.200639,0.856031 0.118892,1.984132 -0.177549,2.29573 -0.387012,0.40677 -0.901728,-0.160615 -1.592334,-1.334778 -1.04389,-1.774824 -1.912199,-2.131021 -0.257595,-3.261759 1.449666,-0.990676 1.748591,1.110987 2.027478,2.300807 z"
         sodipodi:nodetypes="sssss" />
      <path
         id="use39685"
         style="fill:#000000;fill-opacity:0.319347;stroke-width:0.0314032;stroke-linejoin:bevel"
         d="m -83.689691,88.076802 c 0.773603,0.561932 1.958731,1.039751 2.417139,0.963889 0.598434,-0.09905 0.268364,-0.761218 -0.593944,-1.847248 -1.303436,-1.641599 -1.249752,-2.471051 -3.190261,-1.756434 -1.700149,0.62611 0.291823,1.85874 1.367066,2.639793 z"
         sodipodi:nodetypes="sssss" />
      <path
         id="path39687"
         style="fill:#000000;fill-opacity:0.319347;stroke-width:0.311681;stroke-linejoin:bevel"
         d="m -81.222075,83.775998 0.643968,-0.275194 c 0,0 0.393533,-5.216014 -0.03863,-6.588043 -0.155043,-0.492241 -0.495444,-0.346779 -0.643959,0.275194 -0.413954,1.733605 0.03862,6.588043 0.03862,6.588043 z"
         sodipodi:nodetypes="ccaac" />
      <path
         id="use39689"
         style="fill:#000000;fill-opacity:0.319347;stroke-width:0.311681;stroke-linejoin:bevel"
         d="m -84.160225,85.046115 0.426055,-0.49795 c 0,0 -2.472568,-4.739835 -3.601304,-5.773544 -0.404952,-0.370864 -0.630168,-0.107653 -0.426048,0.497945 0.568934,1.687967 3.601296,5.773549 3.601297,5.773549 z"
         sodipodi:nodetypes="ccaac" />
    </g>
    <g
       id="use39515"
       transform="matrix(-0.1622011,0.04096139,0.0092428,0.17524481,-330.22853,-8.1699726)"
       style="fill:#000000;fill-opacity:0.319347">
      <g
         id="g17486">
        <g
           id="g17518"
           transform="matrix(0.91842338,0.27948829,-0.24809222,1.0133247,-3.6545351,28.777006)">
          <path
             style="fill:#000000;fill-opacity:0.319347;stroke:none;stroke-width:0.0538732px;stroke-linecap:butt;stroke-linejoin:miter;stroke-opacity:1"
             d="m -106.36993,49.090144 c -0.58855,0.305955 -0.5675,2.669978 -0.20184,4.1129 0.25619,1.010909 0.14642,2.700313 0.70422,2.540292 0.71459,-0.205012 -0.27245,-2.398738 0.13316,-3.334255 0.26671,-0.615177 0.14976,-3.727184 -0.63554,-3.318937 z"
             id="path39693"
             sodipodi:nodetypes="sssss" />
          <path
             style="fill:#000000;fill-opacity:0.319347;stroke:none;stroke-width:0.0674857px;stroke-linecap:butt;stroke-linejoin:miter;stroke-opacity:1"
             d="m -105.81442,55.326535 c -0.14499,-0.880705 -2.28778,1.231436 -3.67465,3.209264 -0.97163,1.385651 -2.475,2.651491 -2.45511,3.599971 0.0255,1.21515 2.23046,-2.63322 2.98579,-2.66115 0.49665,-0.0189 3.33744,-2.972978 3.14397,-4.148085 z"
             id="path39695"
             sodipodi:nodetypes="sssss" />
          <path
             style="fill:#000000;fill-opacity:0.319347;stroke:none;stroke-width:0.0954944px;stroke-linecap:butt;stroke-linejoin:miter;stroke-opacity:1"
             d="m -115.06858,50.999393 c 0.97769,-0.05736 -0.98959,4.550163 -2.9257,7.752527 -1.35643,2.24358 -2.50223,5.3983 -3.53452,5.70467 -1.32252,0.39249 2.51947,-4.9528 2.43528,-6.318511 -0.0554,-0.898045 2.72038,-7.062108 4.02494,-7.138686 z"
             id="path39697"
             sodipodi:nodetypes="sssss" />
          <g
             id="g39703"
             transform="matrix(-0.18278581,0.38920873,-0.39516513,-0.21823364,-21.716059,28.737463)"
             style="fill:#000000;fill-opacity:0.319347">
            <path
               style="fill:#000000;fill-opacity:0.319347;stroke:none;stroke-width:0.264583px;stroke-linecap:butt;stroke-linejoin:miter;stroke-opacity:1"
               d="m 153.10455,172.35846 c -3.1146,1.53594 0.40129,10.6269 4.67731,15.96129 2.99578,3.73726 4.75499,10.3098 7.89294,9.35459 4.02024,-1.22379 -5.08335,-9.07187 -3.97571,-12.92103 0.72835,-2.53108 -4.43877,-14.44423 -8.59454,-12.39485 z"
               id="path39699"
               sodipodi:nodetypes="sssss" />
            <path
               style="fill:#000000;fill-opacity:0.319347;stroke:none;stroke-width:0.237506px;stroke-linecap:butt;stroke-linejoin:miter;stroke-opacity:1"
               d="m 152.48648,172.10632 c -2.72062,1.41689 0.35053,9.80318 4.08565,14.72409 2.61682,3.44757 4.1535,9.51065 6.89451,8.62948 3.5117,-1.12893 -4.44032,-8.36868 -3.47279,-11.91948 0.63621,-2.33489 -3.87729,-13.32461 -7.50737,-11.43409 z"
               id="path39701"
               sodipodi:nodetypes="sssss" />
          </g>
          <path
             style="fill:#000000;fill-opacity:0.319347;stroke:none;stroke-width:0.145867px;stroke-linecap:butt;stroke-linejoin:miter;stroke-opacity:1"
             d="m -128.27044,49.865639 c -1.05534,-1.515602 -5.00127,2.527509 -7.08473,6.211911 -1.45967,2.581285 -4.3945,5.04032 -3.61231,6.6949 1.00213,2.11977 3.77259,-4.968289 5.71542,-5.140926 1.27753,-0.113505 6.38976,-5.743628 4.98162,-7.765885 z"
             id="path39705"
             sodipodi:nodetypes="sssss" />
          <path
             style="fill:#000000;fill-opacity:0.319347;stroke:none;stroke-width:0.0986911;stroke-linecap:butt;stroke-linejoin:miter;stroke-miterlimit:4;stroke-dasharray:none;stroke-opacity:1"
             d="m -98.054584,52.596499 c 0.929949,3.199521 1.101122,5.067499 3.195923,4.958459 -2.646517,-3.243096 -1.175466,-6.398177 2.171739,-2.148408 0.326862,-2.414675 -3.484116,-5.68902 -4.632022,-3.90497 -0.636146,0.396706 -0.735661,1.09488 -0.735661,1.09488 z"
             id="path39707"
             sodipodi:nodetypes="ccccc" />
          <path
             id="path39709"
             style="fill:#000000;fill-opacity:0.319347;stroke-width:0.0333721;stroke-linejoin:bevel"
             d="m -109.9532,47.335852 c -0.22475,-3.415267 4.80362,-2.876036 6.48075,-2.687693 1.98821,0.223272 1.66433,5.412593 1.57541,6.662614 -0.22878,3.216107 -4.84521,2.572178 -5.56015,2.126975 -2.00472,-1.248376 -2.22404,-1.969056 -2.49601,-6.101896 z"
             sodipodi:nodetypes="sssss" />
          <path
             id="path39711"
             style="fill:#000000;fill-opacity:0.319347;stroke-width:0.0271995;stroke-linejoin:bevel"
             d="m -108.69617,46.757052 c -0.18209,-2.746502 3.97064,-2.318148 5.35569,-2.168448 1.64196,0.177462 1.36898,4.35134 1.29423,5.356771 -0.19235,2.586805 -4.00468,2.073812 -4.59472,1.716511 -1.65453,-1.001882 -1.83491,-1.581268 -2.0552,-4.904834 z"
             sodipodi:nodetypes="sssss" />
          <path
             id="path39713"
             style="fill:#000000;fill-opacity:0.319347;stroke-width:0.0400642;stroke-linejoin:bevel"
             d="m -119.19924,47.400784 c -0.26228,-3.847174 6.16479,-3.276748 8.30838,-3.076924 2.5412,0.236883 2.08878,6.087397 1.96586,7.496758 -0.31628,3.626092 -6.21576,2.934635 -7.12686,2.438211 -2.55477,-1.392 -2.82994,-2.20255 -3.14738,-6.858045 z"
             sodipodi:nodetypes="sssss" />
          <path
             id="path39715"
             style="fill:#000000;fill-opacity:0.319347;stroke-width:0.0326537;stroke-linejoin:bevel"
             d="m -117.5873,46.739191 c -0.2126,-3.093829 5.09534,-2.641864 6.86566,-2.483423 2.09869,0.187824 1.71886,4.893606 1.61585,6.027224 -0.26505,2.916632 -5.13708,2.366767 -5.8891,1.968481 -2.10868,-1.116826 -2.33512,-1.768416 -2.59241,-5.512282 z"
             sodipodi:nodetypes="sssss" />
          <path
             id="path39717"
             style="fill:#000000;fill-opacity:0.319347;stroke-width:0.0641335;stroke-linejoin:bevel"
             d="m -118.09024,47.528165 c 2.29466,3.612113 -3.60953,7.805981 -9.19748,9.538477 -5.58794,1.732485 -13.2131,0.234996 -15.50776,-3.377114 -2.29467,-3.6121 -0.919,-7.673443 4.66893,-9.405933 5.58794,-1.732492 17.74164,-0.36754 20.03631,3.24457 z"
             sodipodi:nodetypes="sssss" />
          <path
             id="path39719"
             style="fill:#000000;fill-opacity:0.319347;stroke-width:0.0594719;stroke-linejoin:bevel"
             d="m -118.03054,47.110354 c 2.26953,3.091685 -3.66103,6.739565 -9.25883,8.267907 -5.5978,1.528341 -13.21036,0.29198 -15.47989,-2.799712 -2.26953,-3.091689 -0.86689,-6.594776 4.73091,-8.123117 5.59779,-1.528346 17.73828,-0.436769 20.00781,2.654922 z"
             sodipodi:nodetypes="sssss" />
          <path
             id="path39721"
             style="fill:#000000;fill-opacity:0.319347;stroke-width:0.0184835;stroke-linejoin:bevel"
             d="m -134.14008,45.305914 c 0.98545,0.621399 -0.57932,2.243456 -2.22124,3.24449 -1.64194,1.001031 -4.16041,1.444859 -5.14586,0.823462 -0.98544,-0.621401 -0.84284,-1.735843 0.7991,-2.736878 1.64193,-1.001034 5.58256,-1.95248 6.568,-1.331074 z"
             sodipodi:nodetypes="sssss" />
          <path
             style="fill:#000000;fill-opacity:0.319347;stroke:none;stroke-width:0.0884351px;stroke-linecap:butt;stroke-linejoin:miter;stroke-opacity:1"
             d="m -112.01461,52.680614 c -0.6529,1.113667 -2.20475,-2.008323 -2.88219,-4.819523 -0.47463,-1.969524 -1.67902,-3.880293 -1.14646,-5.104334 0.6823,-1.568202 1.38266,3.812334 2.31326,3.98529 0.61192,0.113736 2.58654,4.452619 1.71539,5.938567 z"
             id="path39723"
             sodipodi:nodetypes="sssss"
             inkscape:transform-center-x="1.3244685"
             inkscape:transform-center-y="-3.7226961" />
          <path
             style="fill:#000000;fill-opacity:0.319347;stroke:none;stroke-width:0.133111px;stroke-linecap:butt;stroke-linejoin:miter;stroke-opacity:1"
             d="m -115.65187,42.606889 c 1.06547,0.154457 -1.73145,7.758109 -4.29038,12.89417 -1.79281,3.598311 -3.49031,8.857031 -4.65099,9.126961 -1.48702,0.34581 3.44417,-8.067601 3.55168,-10.49582 0.0708,-1.596719 3.96803,-11.731411 5.38969,-11.525311 z"
             id="path39725"
             sodipodi:nodetypes="sssss" />
          <path
             style="fill:#000000;fill-opacity:0.319347;stroke:none;stroke-width:0.0982176px;stroke-linecap:butt;stroke-linejoin:miter;stroke-opacity:1"
             d="m -118.92149,50.337361 c -0.002,-1.585998 -2.93572,-5.472612 -4.95193,-7.198647 -1.41256,-1.209252 -3.42946,-4.215313 -3.58823,-2.928018 -0.20341,1.649244 3.13742,3.483809 4.03391,5.780029 0.58951,1.509919 4.50871,6.462816 4.50625,4.346636 z"
             id="path39727"
             sodipodi:nodetypes="sssss" />
          <path
             style="fill:#000000;fill-opacity:0.319347;stroke:none;stroke-width:0.174904px;stroke-linecap:butt;stroke-linejoin:miter;stroke-opacity:1"
             d="m -126.45529,40.12853 c -0.56787,-1.783321 -6.63392,5.111644 -10.46604,10.91671 -2.68479,4.067033 -6.97394,8.4297 -6.76877,10.49349 0.26289,2.64406 6.24737,-8.132439 8.49585,-8.987832 1.47852,-0.56247 9.49668,-10.042897 8.73896,-12.422368 z"
             id="path39729"
             sodipodi:nodetypes="sssss"
             inkscape:transform-center-x="7.9329315"
             inkscape:transform-center-y="10.164559" />
          <path
             style="fill:#000000;fill-opacity:0.319347;stroke:none;stroke-width:0.0538732px;stroke-linecap:butt;stroke-linejoin:miter;stroke-opacity:1"
             d="m -105.64632,49.882001 c -0.43515,0.512577 0.43473,2.700201 1.2925,3.89854 0.60095,0.839558 1.107,2.451329 1.56612,2.08626 0.5882,-0.467716 -1.11524,-2.122318 -1.07603,-3.148656 0.0258,-0.67489 -1.202,-3.520055 -1.78259,-2.836144 z"
             id="path39731"
             sodipodi:nodetypes="sssss" />
          <path
             style="fill:#000000;fill-opacity:0.319347;stroke:none;stroke-width:0.0674857px;stroke-linecap:butt;stroke-linejoin:miter;stroke-opacity:1"
             d="m -102.88841,55.459036 c -0.45111,-0.761764 -1.6763,2.031562 -2.24954,4.406784 -0.40161,1.66408 -1.33891,3.42322 -0.97931,4.29648 0.46072,1.11879 1.11896,-3.31135 1.8086,-3.63038 0.45349,-0.20978 2.02218,-4.056467 1.42025,-5.072884 z"
             id="path39733"
             sodipodi:nodetypes="sssss" />
          <path
             id="path39735"
             style="fill:#000000;fill-opacity:0.319347;stroke:none;stroke-width:0.508755;stroke-linejoin:bevel;stroke-miterlimit:4;stroke-dasharray:none;stroke-opacity:1"
             d="m -93.7331,48.791555 c 0.145657,1.919101 -1.064135,4.333403 -2.507413,4.909457 -1.884085,0.752003 -3.526434,-0.646558 -5.408397,-3.416617 -2.84467,-4.1871 -5.65207,-4.835654 1.58832,-7.496471 4.847021,-1.781263 6.125011,3.336206 6.32749,6.003631 z"
             sodipodi:nodetypes="sssss" />
          <path
             id="path39737"
             style="fill:#000000;fill-opacity:0.319347;stroke:none;stroke-width:0.466229;stroke-linejoin:bevel;stroke-miterlimit:4;stroke-dasharray:none;stroke-opacity:1"
             d="m -93.851673,47.196815 c 0.454172,1.888323 -0.122509,4.434223 -1.211603,5.182854 -1.421738,0.977285 -2.871256,-0.304115 -5.051824,-2.732248 -4.28693,-4.77365 -5.92659,-4.466582 -0.01,-7.279212 5.184193,-2.464234 5.641637,2.203966 6.272889,4.828606 z"
             sodipodi:nodetypes="sssss" />
          <path
             id="path39739"
             style="fill:#000000;fill-opacity:0.319347;stroke-width:0.0614314;stroke-linejoin:bevel"
             d="m -94.122948,46.720029 c 0.300261,1.179663 -0.247984,2.8023 -1.146261,3.304329 -1.172638,0.655355 -2.412551,-0.05152 -3.95713,-1.587957 -2.334701,-2.322425 -4.599741,-2.659042 0.238278,-4.594561 4.238761,-1.695771 4.447765,1.238534 4.865113,2.878189 z"
             sodipodi:nodetypes="sssss" />
          <path
             id="path39741"
             style="fill:#000000;fill-opacity:0.319347;stroke-width:0.0314032;stroke-linejoin:bevel"
             d="m -94.761318,44.264504 c 0.200639,0.856031 0.118892,1.984132 -0.177549,2.29573 -0.387012,0.40677 -0.901728,-0.160615 -1.592334,-1.334778 -1.04389,-1.774824 -1.912199,-2.131021 -0.257595,-3.261759 1.449666,-0.990676 1.748591,1.110987 2.027478,2.300807 z"
             sodipodi:nodetypes="sssss" />
          <path
             id="use39743"
             style="fill:#000000;fill-opacity:0.319347;stroke-width:0.0314032;stroke-linejoin:bevel"
             d="m -101.06582,46.886672 c 0.77361,0.561932 1.958735,1.039751 2.417143,0.963889 0.598434,-0.09905 0.268364,-0.761218 -0.593944,-1.847248 -1.303439,-1.641599 -1.249749,-2.471051 -3.190259,-1.756434 -1.70015,0.62611 0.29182,1.85874 1.36706,2.639793 z"
             sodipodi:nodetypes="sssss" />
          <path
             id="path39745"
             style="fill:#000000;fill-opacity:0.319347;stroke-width:0.311681;stroke-linejoin:bevel"
             d="m -98.5982,42.585868 0.643968,-0.275194 c 0,0 0.393533,-5.216014 -0.03863,-6.588043 -0.155043,-0.492241 -0.495444,-0.346779 -0.643959,0.275194 -0.413954,1.733605 0.03862,6.588043 0.03862,6.588043 z"
             sodipodi:nodetypes="ccaac" />
          <path
             id="use39747"
             style="fill:#000000;fill-opacity:0.319347;stroke-width:0.311681;stroke-linejoin:bevel"
             d="m -101.53635,43.855985 0.42606,-0.49795 c 0,0 -2.47257,-4.739835 -3.60131,-5.773544 -0.40495,-0.370864 -0.63017,-0.107653 -0.42605,0.497945 0.56894,1.687967 3.6013,5.773549 3.6013,5.773549 z"
             sodipodi:nodetypes="ccaac" />
        </g>
      </g>
    </g>
    <g
       id="use39517"
       transform="matrix(-0.15616901,0.10627172,0.07395896,0.1811216,-347.14454,-2.3323861)"
       style="fill:#000000;fill-opacity:0.319347">
      <path
         style="fill:#000000;fill-opacity:0.319347;stroke:none;stroke-width:0.0538732px;stroke-linecap:butt;stroke-linejoin:miter;stroke-opacity:1"
         d="m -88.993802,90.280274 c -0.588552,0.305955 -0.567504,2.669978 -0.20184,4.1129 0.256185,1.010909 0.146421,2.700313 0.704212,2.540292 0.714594,-0.205012 -0.272448,-2.398738 0.133164,-3.334255 0.266708,-0.615177 0.149756,-3.727184 -0.635536,-3.318937 z"
         id="path39751"
         sodipodi:nodetypes="sssss" />
      <path
         style="fill:#000000;fill-opacity:0.319347;stroke:none;stroke-width:0.0674857px;stroke-linecap:butt;stroke-linejoin:miter;stroke-opacity:1"
         d="m -88.438292,96.516665 c -0.144991,-0.880705 -2.287787,1.231436 -3.67465,3.209264 -0.971631,1.385651 -2.475005,2.651491 -2.455115,3.599971 0.02548,1.21515 2.230462,-2.63322 2.985795,-2.66115 0.496651,-0.0189 3.337437,-2.972978 3.14397,-4.148085 z"
         id="path39753"
         sodipodi:nodetypes="sssss" />
      <path
         style="fill:#000000;fill-opacity:0.319347;stroke:none;stroke-width:0.0954944px;stroke-linecap:butt;stroke-linejoin:miter;stroke-opacity:1"
         d="m -97.69246,92.189523 c 0.977693,-0.05736 -0.989588,4.550163 -2.9257,7.752527 -1.35643,2.24358 -2.50223,5.3983 -3.53452,5.70467 -1.32252,0.39249 2.51947,-4.9528 2.43528,-6.318511 -0.0554,-0.898045 2.720386,-7.062108 4.02494,-7.138686 z"
         id="path39755"
         sodipodi:nodetypes="sssss" />
      <g
         id="g39761"
         transform="matrix(-0.18278581,0.38920873,-0.39516513,-0.21823364,-4.3399341,69.927593)"
         style="fill:#000000;fill-opacity:0.319347">
        <path
           style="fill:#000000;fill-opacity:0.319347;stroke:none;stroke-width:0.264583px;stroke-linecap:butt;stroke-linejoin:miter;stroke-opacity:1"
           d="m 153.10455,172.35846 c -3.1146,1.53594 0.40129,10.6269 4.67731,15.96129 2.99578,3.73726 4.75499,10.3098 7.89294,9.35459 4.02024,-1.22379 -5.08335,-9.07187 -3.97571,-12.92103 0.72835,-2.53108 -4.43877,-14.44423 -8.59454,-12.39485 z"
           id="path39757"
           sodipodi:nodetypes="sssss" />
        <path
           style="fill:#000000;fill-opacity:0.319347;stroke:none;stroke-width:0.237506px;stroke-linecap:butt;stroke-linejoin:miter;stroke-opacity:1"
           d="m 152.48648,172.10632 c -2.72062,1.41689 0.35053,9.80318 4.08565,14.72409 2.61682,3.44757 4.1535,9.51065 6.89451,8.62948 3.5117,-1.12893 -4.44032,-8.36868 -3.47279,-11.91948 0.63621,-2.33489 -3.87729,-13.32461 -7.50737,-11.43409 z"
           id="path39759"
           sodipodi:nodetypes="sssss" />
      </g>
      <path
         style="fill:#000000;fill-opacity:0.319347;stroke:none;stroke-width:0.145867px;stroke-linecap:butt;stroke-linejoin:miter;stroke-opacity:1"
         d="m -110.89432,91.055769 c -1.05534,-1.515602 -5.00127,2.527509 -7.08473,6.211911 -1.45967,2.581285 -4.3945,5.04032 -3.61231,6.6949 1.00213,2.11977 3.77259,-4.968289 5.71542,-5.140926 1.27753,-0.113505 6.38976,-5.743628 4.98162,-7.765885 z"
         id="path39763"
         sodipodi:nodetypes="sssss" />
      <path
         style="fill:#000000;fill-opacity:0.319347;stroke:none;stroke-width:0.0986911;stroke-linecap:butt;stroke-linejoin:miter;stroke-miterlimit:4;stroke-dasharray:none;stroke-opacity:1"
         d="m -80.678459,93.786629 c 0.929949,3.199521 1.101122,5.067499 3.195923,4.958459 -2.646517,-3.243096 -1.175466,-6.398177 2.171739,-2.148408 0.326862,-2.414675 -3.484116,-5.68902 -4.632022,-3.90497 -0.636146,0.396706 -0.735661,1.09488 -0.735661,1.09488 z"
         id="path39765"
         sodipodi:nodetypes="ccccc" />
      <path
         id="path39767"
         style="fill:#000000;fill-opacity:0.319347;stroke-width:0.0333721;stroke-linejoin:bevel"
         d="m -92.577077,88.525982 c -0.224746,-3.415267 4.803621,-2.876036 6.480749,-2.687693 1.988215,0.223272 1.664336,5.412593 1.575415,6.662614 -0.228784,3.216107 -4.845217,2.572178 -5.560152,2.126975 -2.004723,-1.248376 -2.224036,-1.969056 -2.496012,-6.101896 z"
         sodipodi:nodetypes="sssss" />
      <path
         id="path39769"
         style="fill:#000000;fill-opacity:0.319347;stroke-width:0.0271995;stroke-linejoin:bevel"
         d="m -91.32005,87.947182 c -0.182087,-2.746502 3.970644,-2.318148 5.35569,-2.168448 1.641965,0.177462 1.368988,4.35134 1.294232,5.356771 -0.192349,2.586805 -4.004675,2.073812 -4.594722,1.716511 -1.654522,-1.001882 -1.834902,-1.581268 -2.0552,-4.904834 z"
         sodipodi:nodetypes="sssss" />
      <path
         id="path39771"
         style="fill:#000000;fill-opacity:0.319347;stroke-width:0.0400642;stroke-linejoin:bevel"
         d="m -101.82312,88.590914 c -0.26228,-3.847174 6.164791,-3.276748 8.308385,-3.076924 2.541201,0.236883 2.088781,6.087397 1.965856,7.496758 -0.316274,3.626092 -6.215761,2.934635 -7.126859,2.438211 -2.554772,-1.392 -2.829942,-2.20255 -3.147382,-6.858045 z"
         sodipodi:nodetypes="sssss" />
      <path
         id="path39773"
         style="fill:#000000;fill-opacity:0.319347;stroke-width:0.0326537;stroke-linejoin:bevel"
         d="m -100.21118,87.929321 c -0.2126,-3.093829 5.095341,-2.641864 6.865664,-2.483423 2.098694,0.187824 1.718861,4.893606 1.615846,6.027224 -0.265042,2.916632 -5.137076,2.366767 -5.889093,1.968481 -2.108687,-1.116826 -2.335118,-1.768416 -2.592417,-5.512282 z"
         sodipodi:nodetypes="sssss" />
      <path
         id="path39775"
         style="fill:#000000;fill-opacity:0.319347;stroke-width:0.0641335;stroke-linejoin:bevel"
         d="m -100.71412,88.718295 c 2.294664,3.612113 -3.60953,7.805981 -9.19748,9.538477 -5.58794,1.732485 -13.2131,0.234996 -15.50776,-3.377114 -2.29467,-3.6121 -0.919,-7.673443 4.66893,-9.405933 5.58794,-1.732492 17.74164,-0.36754 20.03631,3.24457 z"
         sodipodi:nodetypes="sssss" />
      <path
         id="path39777"
         style="fill:#000000;fill-opacity:0.319347;stroke-width:0.0594719;stroke-linejoin:bevel"
         d="m -100.65442,88.300484 c 2.269536,3.091685 -3.66103,6.739565 -9.25883,8.267907 -5.5978,1.528341 -13.21036,0.29198 -15.47989,-2.799712 -2.26953,-3.091689 -0.86689,-6.594776 4.73091,-8.123117 5.59779,-1.528346 17.73828,-0.436769 20.00781,2.654922 z"
         sodipodi:nodetypes="sssss" />
      <path
         id="path39779"
         style="fill:#000000;fill-opacity:0.319347;stroke-width:0.0184835;stroke-linejoin:bevel"
         d="m -116.76396,86.496044 c 0.98545,0.621399 -0.57932,2.243456 -2.22124,3.24449 -1.64194,1.001031 -4.16041,1.444859 -5.14586,0.823462 -0.98544,-0.621401 -0.84284,-1.735843 0.7991,-2.736878 1.64193,-1.001034 5.58256,-1.95248 6.568,-1.331074 z"
         sodipodi:nodetypes="sssss" />
      <path
         style="fill:#000000;fill-opacity:0.319347;stroke:none;stroke-width:0.0884351px;stroke-linecap:butt;stroke-linejoin:miter;stroke-opacity:1"
         d="m -94.638482,93.870744 c -0.652904,1.113667 -2.204754,-2.008323 -2.882197,-4.819523 -0.474623,-1.969524 -1.679019,-3.880293 -1.146456,-5.104334 0.6823,-1.568202 1.382663,3.812334 2.313262,3.98529 0.611915,0.113736 2.586542,4.452619 1.715391,5.938567 z"
         id="path39781"
         sodipodi:nodetypes="sssss"
         inkscape:transform-center-x="1.3244685"
         inkscape:transform-center-y="-3.7226961" />
      <path
         style="fill:#000000;fill-opacity:0.319347;stroke:none;stroke-width:0.133111px;stroke-linecap:butt;stroke-linejoin:miter;stroke-opacity:1"
         d="m -98.275748,83.797019 c 1.065475,0.154457 -1.731452,7.758109 -4.290382,12.89417 -1.79281,3.598311 -3.49031,8.857031 -4.65099,9.126961 -1.48702,0.34581 3.44417,-8.067601 3.55168,-10.49582 0.0708,-1.596719 3.96803,-11.731411 5.389692,-11.525311 z"
         id="path39783"
         sodipodi:nodetypes="sssss" />
      <path
         style="fill:#000000;fill-opacity:0.319347;stroke:none;stroke-width:0.0982176px;stroke-linecap:butt;stroke-linejoin:miter;stroke-opacity:1"
         d="m -101.54537,91.527491 c -0.002,-1.585998 -2.93572,-5.472612 -4.95193,-7.198647 -1.41256,-1.209252 -3.42946,-4.215313 -3.58823,-2.928018 -0.20341,1.649244 3.13742,3.483809 4.03391,5.780029 0.58951,1.509919 4.50871,6.462816 4.50625,4.346636 z"
         id="path39785"
         sodipodi:nodetypes="sssss" />
      <path
         style="fill:#000000;fill-opacity:0.319347;stroke:none;stroke-width:0.174904px;stroke-linecap:butt;stroke-linejoin:miter;stroke-opacity:1"
         d="m -109.07917,81.31866 c -0.56787,-1.783321 -6.63392,5.111644 -10.46604,10.91671 -2.68479,4.067033 -6.97394,8.4297 -6.76877,10.49349 0.26289,2.64406 6.24737,-8.132439 8.49585,-8.987832 1.47852,-0.56247 9.49668,-10.042897 8.73896,-12.422368 z"
         id="path39787"
         sodipodi:nodetypes="sssss"
         inkscape:transform-center-x="7.9329315"
         inkscape:transform-center-y="10.164559" />
      <path
         style="fill:#000000;fill-opacity:0.319347;stroke:none;stroke-width:0.0538732px;stroke-linecap:butt;stroke-linejoin:miter;stroke-opacity:1"
         d="m -88.2702,91.072131 c -0.435144,0.512577 0.434735,2.700201 1.292507,3.89854 0.600952,0.839558 1.106999,2.451329 1.566115,2.08626 0.588206,-0.467716 -1.115234,-2.122318 -1.076032,-3.148656 0.02584,-0.67489 -1.201991,-3.520055 -1.78259,-2.836144 z"
         id="path39789"
         sodipodi:nodetypes="sssss" />
      <path
         style="fill:#000000;fill-opacity:0.319347;stroke:none;stroke-width:0.0674857px;stroke-linecap:butt;stroke-linejoin:miter;stroke-opacity:1"
         d="m -85.512282,96.649166 c -0.451115,-0.761764 -1.6763,2.031562 -2.249545,4.406784 -0.40161,1.66408 -1.338908,3.42322 -0.979307,4.29648 0.460718,1.11879 1.118956,-3.31135 1.8086,-3.63038 0.453491,-0.20978 2.022174,-4.056467 1.420252,-5.072884 z"
         id="path39791"
         sodipodi:nodetypes="sssss" />
      <path
         id="path39793"
         style="fill:#000000;fill-opacity:0.319347;stroke:none;stroke-width:0.508755;stroke-linejoin:bevel;stroke-miterlimit:4;stroke-dasharray:none;stroke-opacity:1"
         d="m -76.356975,89.981685 c 0.145657,1.919101 -1.064135,4.333403 -2.507413,4.909457 -1.884085,0.752003 -3.526434,-0.646558 -5.408393,-3.416617 -2.844672,-4.1871 -5.652078,-4.835654 1.588318,-7.496471 4.847019,-1.781263 6.125009,3.336206 6.327488,6.003631 z"
         sodipodi:nodetypes="sssss" />
      <path
         id="path39795"
         style="fill:#000000;fill-opacity:0.319347;stroke:none;stroke-width:0.466229;stroke-linejoin:bevel;stroke-miterlimit:4;stroke-dasharray:none;stroke-opacity:1"
         d="m -76.475548,88.386945 c 0.454172,1.888323 -0.122509,4.434223 -1.211603,5.182854 -1.421738,0.977285 -2.871256,-0.304115 -5.051824,-2.732248 -4.286929,-4.77365 -5.926589,-4.466582 -0.0095,-7.279212 5.184193,-2.464234 5.641637,2.203966 6.272889,4.828606 z"
         sodipodi:nodetypes="sssss" />
      <path
         id="path39797"
         style="fill:#000000;fill-opacity:0.319347;stroke-width:0.0614314;stroke-linejoin:bevel"
         d="m -76.746823,87.910159 c 0.300261,1.179663 -0.247984,2.8023 -1.146261,3.304329 -1.172638,0.655355 -2.412551,-0.05152 -3.95713,-1.587957 -2.334697,-2.322425 -4.599746,-2.659042 0.238278,-4.594561 4.238761,-1.695771 4.447765,1.238534 4.865113,2.878189 z"
         sodipodi:nodetypes="sssss" />
      <path
         id="path39799"
         style="fill:#000000;fill-opacity:0.319347;stroke-width:0.0314032;stroke-linejoin:bevel"
         d="m -77.385193,85.454634 c 0.200639,0.856031 0.118892,1.984132 -0.177549,2.29573 -0.387012,0.40677 -0.901728,-0.160615 -1.592334,-1.334778 -1.04389,-1.774824 -1.912199,-2.131021 -0.257595,-3.261759 1.449666,-0.990676 1.748591,1.110987 2.027478,2.300807 z"
         sodipodi:nodetypes="sssss" />
      <path
         id="use39801"
         style="fill:#000000;fill-opacity:0.319347;stroke-width:0.0314032;stroke-linejoin:bevel"
         d="m -83.689691,88.076802 c 0.773603,0.561932 1.958731,1.039751 2.417139,0.963889 0.598434,-0.09905 0.268364,-0.761218 -0.593944,-1.847248 -1.303436,-1.641599 -1.249752,-2.471051 -3.190261,-1.756434 -1.700149,0.62611 0.291823,1.85874 1.367066,2.639793 z"
         sodipodi:nodetypes="sssss" />
      <path
         id="path39803"
         style="fill:#000000;fill-opacity:0.319347;stroke-width:0.311681;stroke-linejoin:bevel"
         d="m -81.222075,83.775998 0.643968,-0.275194 c 0,0 0.393533,-5.216014 -0.03863,-6.588043 -0.155043,-0.492241 -0.495444,-0.346779 -0.643959,0.275194 -0.413954,1.733605 0.03862,6.588043 0.03862,6.588043 z"
         sodipodi:nodetypes="ccaac" />
      <path
         id="use39805"
         style="fill:#000000;fill-opacity:0.319347;stroke-width:0.311681;stroke-linejoin:bevel"
         d="m -84.160225,85.046115 0.426055,-0.49795 c 0,0 -2.472568,-4.739835 -3.601304,-5.773544 -0.404952,-0.370864 -0.630168,-0.107653 -0.426048,0.497945 0.568934,1.687967 3.601296,5.773549 3.601297,5.773549 z"
         sodipodi:nodetypes="ccaac" />
    </g>
    <circle
       style="fill:none;fill-opacity:0.319347;stroke:#000000;stroke-width:2.15477;stroke-linecap:round;stroke-linejoin:round;stroke-miterlimit:4;stroke-dasharray:none;stroke-opacity:0.25641"
       id="path39937"
       cx="-84.032249"
       cy="-165.0312"
       r="0" />
    <use
       x="0"
       y="0"
       xlink:href="#path39937"
       id="use40292"
       transform="translate(1.362192,0.95394158)"
       width="100%"
       height="100%"
       style="stroke:#000000;stroke-opacity:0.25641" />
    <g
       inkscape:label="Layer 1"
       id="layer1-5"
       transform="matrix(0.16584822,-0.75490267,0.64527985,0.2014089,-375.78847,55.808508)">
      <path
         style="fill:#050505;fill-opacity:0.435897;stroke:none;stroke-width:0.0538732px;stroke-linecap:butt;stroke-linejoin:miter;stroke-opacity:1"
         d="m 47.532835,136.42446 c -0.279778,-0.60144 -2.642437,-0.6844 -4.100044,-0.38256 -1.021196,0.21147 -2.704142,0.0275 -2.568811,0.59179 0.173383,0.72292 2.4084,-0.16667 3.325175,0.2797 0.602841,0.29351 3.716984,0.31356 3.34368,-0.48893 z"
         id="path20858"
         sodipodi:nodetypes="sssss" />
      <path
         style="fill:#050505;fill-opacity:0.435897;stroke:none;stroke-width:0.0674857px;stroke-linecap:butt;stroke-linejoin:miter;stroke-opacity:1"
         d="m 41.278045,136.70511 c 0.88623,-0.10611 -1.129615,-2.33974 -3.04452,-3.81226 -1.341579,-1.03164 -2.540069,-2.58924 -3.488499,-2.61109 -1.215096,-0.028 2.532567,2.34413 2.527236,3.09996 -0.0035,0.497 2.823298,3.46498 4.005783,3.32339 z"
         id="path20864"
         sodipodi:nodetypes="sssss" />
      <path
         style="fill:#050505;fill-opacity:0.435897;stroke:none;stroke-width:0.0954944px;stroke-linecap:butt;stroke-linejoin:miter;stroke-opacity:1"
         d="m 46.008057,127.65024 c 0.01432,0.97927 -4.502223,-1.18878 -7.616326,-3.26388 -2.181737,-1.45381 -5.283015,-2.73727 -5.543671,-3.78203 -0.333944,-1.33851 4.837181,2.73489 6.205271,2.71085 0.899613,-0.0158 6.935611,3.0284 6.954726,4.33506 z"
         id="path20834"
         sodipodi:nodetypes="sssss" />
      <g
         id="g20802"
         transform="matrix(-0.38079176,-0.19972913,0.23540465,-0.38518314,64.142118,221.89165)"
         style="fill:#050505;fill-opacity:0.435897">
        <path
           style="fill:#050505;fill-opacity:0.435897;stroke:none;stroke-width:0.264583px;stroke-linecap:butt;stroke-linejoin:miter;stroke-opacity:1"
           d="m 153.10455,172.35846 c -3.1146,1.53594 0.40129,10.6269 4.67731,15.96129 2.99578,3.73726 4.75499,10.3098 7.89294,9.35459 4.02024,-1.22379 -5.08335,-9.07187 -3.97571,-12.92103 0.72835,-2.53108 -4.43877,-14.44423 -8.59454,-12.39485 z"
           id="path20798"
           sodipodi:nodetypes="sssss" />
        <path
           style="fill:#050505;fill-opacity:0.435897;stroke:none;stroke-width:0.237506px;stroke-linecap:butt;stroke-linejoin:miter;stroke-opacity:1"
           d="m 152.48648,172.10632 c -2.72062,1.41689 0.35053,9.80318 4.08565,14.72409 2.61682,3.44757 4.1535,9.51065 6.89451,8.62948 3.5117,-1.12893 -4.44032,-8.36868 -3.47279,-11.91948 0.63621,-2.33489 -3.87729,-13.32461 -7.50737,-11.43409 z"
           id="path20800"
           sodipodi:nodetypes="sssss" />
      </g>
      <path
         style="fill:#050505;fill-opacity:0.435897;stroke:none;stroke-width:0.145867px;stroke-linecap:butt;stroke-linejoin:miter;stroke-opacity:1"
         d="m 47.72143,114.51103 c 1.560557,-0.98765 -2.30507,-5.10761 -5.894258,-7.35112 -2.514581,-1.5718 -4.842144,-4.61196 -6.529518,-3.9033 -2.161806,0.90791 4.797531,3.98748 4.884538,5.93602 0.05721,1.28129 5.457001,6.63622 7.539238,5.3184 z"
         id="path20804"
         sodipodi:nodetypes="sssss" />
      <path
         style="fill:#050505;fill-opacity:1;stroke:none;stroke-width:0.0986911;stroke-linecap:butt;stroke-linejoin:miter;stroke-miterlimit:4;stroke-dasharray:none;stroke-opacity:1"
         d="m 43.664096,144.57752 c -3.237321,0.78831 -5.111028,0.87715 -5.094238,2.97472 3.356373,-2.5013 6.44369,-0.89289 2.050798,2.26414 2.39796,0.43276 5.836776,-3.2305 4.104944,-4.45577 -0.36834,-0.65298 -1.061464,-0.78311 -1.061464,-0.78311 z"
         id="path19349"
         sodipodi:nodetypes="ccccc" />
      <path
         id="path21291"
         style="fill:#000000;fill-opacity:1;stroke-width:0.0333721;stroke-linejoin:bevel"
         d="m 49.443043,132.92182 c 3.421847,-0.0743 2.661954,4.92548 2.400021,6.5927 -0.310512,1.97647 -5.480565,1.42464 -6.725461,1.28082 -3.202931,-0.37003 -2.356565,-4.95367 -1.880346,-5.64833 1.33535,-1.94787 2.064982,-2.13527 6.205786,-2.22519 z"
         sodipodi:nodetypes="sssss" />
      <path
         id="ellipse14331"
         style="fill:#241705;fill-opacity:1;stroke-width:0.0271995;stroke-linejoin:bevel"
         d="m 49.965989,134.20309 c 2.751854,-0.0611 2.141247,4.06877 1.930767,5.44589 -0.249516,1.63257 -4.407347,1.17626 -5.408511,1.05735 -2.575845,-0.30595 -1.895654,-4.09202 -1.512746,-4.66578 1.073696,-1.60885 1.660451,-1.76357 4.99049,-1.83746 z"
         sodipodi:nodetypes="sssss" />
      <path
         id="path21351"
         style="fill:#000000;fill-opacity:1;stroke-width:0.0400642;stroke-linejoin:bevel"
         d="m 49.784882,123.68187 c 3.854987,-0.0928 3.002404,6.30296 2.708482,8.43569 -0.348434,2.52832 -6.173383,1.81899 -7.575978,1.63419 -3.60867,-0.47547 -2.658375,-6.33883 -2.122355,-7.22721 1.503032,-2.49107 2.324901,-2.73032 6.989851,-2.84267 z"
         sodipodi:nodetypes="sssss" />
      <path
         id="path21353"
         style="fill:#241705;fill-opacity:1;stroke-width:0.0326537;stroke-linejoin:bevel"
         d="m 50.37493,125.32135 c 3.100186,-0.0763 2.415176,5.20662 2.179017,6.96826 -0.279958,2.0884 -4.964473,1.50194 -6.092464,1.34916 -2.902152,-0.39308 -2.138509,-5.23621 -1.707529,-5.96998 1.208492,-2.05752 1.86942,-2.25507 5.620976,-2.34744 z"
         sodipodi:nodetypes="sssss" />
      <path
         id="path22180"
         style="fill:#000000;fill-opacity:1;stroke-width:0.0641335;stroke-linejoin:bevel"
         d="m 49.608843,124.78419 c -3.709549,2.13356 -7.639657,-3.9494 -9.124668,-9.60814 -1.485017,-5.65874 0.346431,-13.21065 4.055981,-15.344209 3.709544,-2.13356 7.706444,-0.580573 9.191459,5.078159 1.485017,5.65874 -0.413222,17.74063 -4.122772,19.87419 z"
         sodipodi:nodetypes="sssss" />
      <path
         id="path21357"
         style="fill:#241705;fill-opacity:1;stroke-width:0.0594719;stroke-linejoin:bevel"
         d="m 50.023623,124.86222 c -3.188524,2.13134 -6.572005,-3.95395 -7.852633,-9.61356 -1.280634,-5.65961 0.289395,-13.21041 3.477924,-15.341747 3.188523,-2.13134 6.626521,-0.575973 7.907151,5.083637 1.280635,5.6596 -0.343913,17.74033 -3.532442,19.87167 z"
         sodipodi:nodetypes="sssss" />
      <path
         id="path11103"
         style="fill:#704d2d;fill-opacity:0.689977;stroke-width:0.0184835;stroke-linejoin:bevel"
         d="m 52.534931,108.84764 c -0.664144,0.95716 -2.215802,-0.67744 -3.143643,-2.36181 -0.927837,-1.68438 -1.260455,-4.21993 -0.596312,-5.1771 0.664146,-0.95715 1.771237,-0.76567 2.699078,0.91872 0.927841,1.68437 1.705029,5.66304 1.040877,6.62019 z"
         sodipodi:nodetypes="sssss" />
      <path
         style="fill:#050505;fill-opacity:1;stroke:none;stroke-width:0.0884351px;stroke-linecap:butt;stroke-linejoin:miter;stroke-opacity:1"
         d="m 44.194129,130.62731 c -1.083866,-0.70126 2.10336,-2.11428 4.941639,-2.66741 1.988495,-0.38753 3.950393,-1.50671 5.149823,-0.92082 1.536671,0.75062 -3.869464,1.21363 -4.083187,2.13572 -0.140542,0.60632 -4.562083,2.38818 -6.008275,1.45251 z"
         id="path25141"
         sodipodi:nodetypes="sssss"
         inkscape:transform-center-x="-3.7806162"
         inkscape:transform-center-y="-1.1532001" />
      <path
         style="fill:#050505;fill-opacity:1;stroke:none;stroke-width:0.133111px;stroke-linecap:butt;stroke-linejoin:miter;stroke-opacity:1"
         d="m 54.418098,127.43668 c -0.201175,1.05765 -7.674439,-2.07103 -12.692965,-4.85341 -3.515971,-1.94935 -8.694935,-3.87653 -8.913542,-5.04796 -0.28007,-1.50079 7.908294,3.79571 10.32943,4.00993 1.59206,0.14095 11.545512,4.48022 11.277077,5.89144 z"
         id="path25147"
         sodipodi:nodetypes="sssss" />
      <path
         style="fill:#050505;fill-opacity:1;stroke:none;stroke-width:0.0982176px;stroke-linecap:butt;stroke-linejoin:miter;stroke-opacity:1"
         d="m 46.838927,123.83018 c 1.584548,0.0679 5.596452,-2.69215 7.409504,-4.63049 1.270216,-1.358 4.362086,-3.24072 3.083021,-3.45596 -1.6387,-0.27576 -3.618444,2.98114 -5.951876,3.77576 -1.534388,0.52252 -6.654888,4.22006 -4.540649,4.31069 z"
         id="path25153"
         sodipodi:nodetypes="sssss" />
      <path
         style="fill:#050505;fill-opacity:1;stroke:none;stroke-width:0.174904px;stroke-linecap:butt;stroke-linejoin:miter;stroke-opacity:1"
         d="m 57.369271,116.75273 c 1.806574,-0.48888 -4.814888,-6.85235 -10.445775,-10.93611 -3.944996,-2.86108 -8.114773,-7.337984 -10.185589,-7.223795 -2.653063,0.146329 7.849765,6.599045 8.605421,8.882975 0.496895,1.50183 9.615445,9.92925 12.025943,9.27693 z"
         id="path25159"
         sodipodi:nodetypes="sssss"
         inkscape:transform-center-x="9.8025358"
         inkscape:transform-center-y="-8.3742301" />
      <path
         style="fill:#050505;fill-opacity:1;stroke:none;stroke-width:0.0538732px;stroke-linecap:butt;stroke-linejoin:miter;stroke-opacity:1"
         d="m 46.709909,137.11253 c -0.492934,-0.45727 -2.716704,0.31554 -3.951618,1.11977 -0.865178,0.56344 -2.497648,0.9981 -2.153129,1.47283 0.441389,0.60821 2.169322,-1.0208 3.192942,-0.93649 0.673098,0.0555 3.56952,-1.04599 2.911805,-1.65611 z"
         id="path22898"
         sodipodi:nodetypes="sssss" />
      <path
         style="fill:#050505;fill-opacity:1;stroke:none;stroke-width:0.0674857px;stroke-linecap:butt;stroke-linejoin:miter;stroke-opacity:1"
         d="m 41.016959,139.62246 c 0.780873,-0.41717 -1.955855,-1.76404 -4.30357,-2.44121 -1.644803,-0.47442 -3.361004,-1.48819 -4.249235,-1.16735 -1.137971,0.41106 3.258917,1.26353 3.547304,1.96654 0.189632,0.46228 3.963592,2.19865 5.005501,1.64202 z"
         id="path25126"
         sodipodi:nodetypes="sssss" />
      <path
         id="path18775"
         style="fill:#080705;fill-opacity:1;stroke:none;stroke-width:0.508755;stroke-linejoin:bevel;stroke-miterlimit:4;stroke-dasharray:none;stroke-opacity:1"
         d="m 47.275269,149.06219 c -1.923651,0.0611 -4.282395,-1.25372 -4.794408,-2.72094 -0.668398,-1.91534 0.801054,-3.49458 3.651208,-5.25287 4.308178,-2.65774 5.079594,-5.4339 7.419351,1.91653 1.566331,4.92068 -3.6024,5.97233 -6.276151,6.05728 z"
         sodipodi:nodetypes="sssss" />
      <path
         id="path15084"
         style="fill:#241705;fill-opacity:1;stroke:none;stroke-width:0.466229;stroke-linejoin:bevel;stroke-miterlimit:4;stroke-dasharray:none;stroke-opacity:1"
         d="m 48.873683,149.01388 c -1.90647,0.37067 -4.424542,-0.31744 -5.124539,-1.43841 -0.9138,-1.46335 0.430115,-2.8551 2.951813,-4.92675 4.957603,-4.0728 4.722956,-5.72438 7.272585,0.31074 2.233811,5.28757 -2.449993,5.53923 -5.099859,6.05442 z"
         sodipodi:nodetypes="sssss" />
      <path
         id="path14812"
         style="fill:#362610;fill-opacity:1;stroke-width:0.0614314;stroke-linejoin:bevel"
         d="m 49.36194,148.76384 c -1.191729,0.24808 -2.788683,-0.37101 -3.25071,-1.2905 -0.603141,-1.20033 0.157588,-2.40795 1.760483,-3.88345 2.422874,-2.23028 2.858799,-4.47833 4.579633,0.44015 1.507678,4.30925 -1.43298,4.38898 -3.089406,4.7338 z"
         sodipodi:nodetypes="sssss" />
      <path
         id="path19575"
         style="fill:#a32e26;fill-opacity:1;stroke-width:0.0314032;stroke-linejoin:bevel"
         d="m 51.843168,148.2341 c -0.864028,0.16279 -1.987441,0.0315 -2.285698,-0.27836 -0.389353,-0.40453 0.200124,-0.89379 1.403529,-1.53208 1.819024,-0.96481 2.21307,-1.81661 3.269933,-0.11387 0.92595,1.49184 -1.186828,1.69803 -2.387764,1.92431 z"
         sodipodi:nodetypes="sssss" />
      <use
         x="0"
         y="0"
         xlink:href="#path19575"
         id="use19775"
         transform="matrix(0.55469822,-0.97037956,-0.71344238,-0.55469821,126.50003,274.3531)"
         width="100%"
         height="100%" />
      <path
         id="rect25196"
         style="fill:#241705;fill-opacity:1;stroke-width:0.311681;stroke-linejoin:bevel"
         d="m 53.688953,144.47477 0.246602,0.65545 c 0,0 5.193655,0.62259 6.583365,0.2512 0.498585,-0.13324 0.368237,-0.47971 -0.246601,-0.65544 -1.713719,-0.48981 -6.583366,-0.25121 -6.583366,-0.25121 z"
         sodipodi:nodetypes="ccaac" />
      <use
         x="0"
         y="0"
         xlink:href="#rect25196"
         id="use26504"
         transform="matrix(0.8850401,-0.5417558,0.39739807,0.88663474,-52.381564,42.473546)"
         width="100%"
         height="100%"
         style="fill:#241705;fill-opacity:1" />
    </g>
    <use
       x="0"
       y="0"
       xlink:href="#use39515"
       id="use17488"
       transform="matrix(0.78280228,0.03554118,-0.02354212,0.64635671,-52.959271,4.350838)"
       width="100%"
       height="100%" />
    <use
       x="0"
       y="0"
       xlink:href="#use39515"
       id="use17520"
       transform="matrix(0.64532161,0.08325057,-0.022772,0.4692712,-82.779628,14.647327)"
       width="100%"
       height="100%" />
  </g>
</svg>
