<?xml version="1.0" encoding="UTF-8" standalone="no"?>
<!-- Created with Inkscape (http://www.inkscape.org/) -->

<svg
   width="322.45761"
   height="238.61806"
   viewBox="0 0 85.316909 63.134362"
   version="1.1"
   id="svg50527"
   inkscape:version="1.1.1 (3bf5ae0d25, 2021-09-20)"
   sodipodi:docname="hint-girl-trapped.svg"
   xmlns:inkscape="http://www.inkscape.org/namespaces/inkscape"
   xmlns:sodipodi="http://sodipodi.sourceforge.net/DTD/sodipodi-0.dtd"
   xmlns:xlink="http://www.w3.org/1999/xlink"
   xmlns="http://www.w3.org/2000/svg"
   xmlns:svg="http://www.w3.org/2000/svg">
  <sodipodi:namedview
     id="namedview50529"
     pagecolor="#505050"
     bordercolor="#ffffff"
     borderopacity="1"
     inkscape:pageshadow="0"
     inkscape:pageopacity="0"
     inkscape:pagecheckerboard="1"
     inkscape:document-units="mm"
     showgrid="false"
     inkscape:snap-global="false"
     fit-margin-top="0"
     fit-margin-left="0"
     fit-margin-right="0"
     fit-margin-bottom="0"
     inkscape:zoom="1.5287038"
     inkscape:cx="13.410054"
     inkscape:cy="55.929737"
     inkscape:window-width="1920"
     inkscape:window-height="1017"
     inkscape:window-x="1272"
     inkscape:window-y="-8"
     inkscape:window-maximized="1"
     inkscape:current-layer="layer1"
     units="px" />
  <defs
     id="defs50524" />
  <g
     inkscape:label="Layer 1"
     inkscape:groupmode="layer"
     id="layer1"
     transform="translate(-45.781882,-77.371041)">
    <g
       id="g18226"
       transform="matrix(2.0477439,0,0,2.9254144,-47.803483,-270.26897)">
      <path
         style="fill:none;stroke:#000000;stroke-width:0.904517;stroke-linecap:butt;stroke-linejoin:miter;stroke-miterlimit:4;stroke-dasharray:none;stroke-opacity:0.298039"
         d="m 45.959863,124.54204 c 11.080164,-2.74669 12.977112,0.40596 13.381577,7.44465 0.589804,10.26409 14.749822,8.31599 14.986255,-0.48787 0.270118,-10.05816 12.447997,-7.31777 12.447997,-7.31777"
         id="path50633"
         sodipodi:nodetypes="cssc" />
      <use
         x="0"
         y="0"
         xlink:href="#path50633"
         id="use53957"
         transform="translate(0.49057174,0.42503196)"
         width="100%"
         height="100%" />
      <use
         x="0"
         y="0"
         xlink:href="#path50633"
         id="use53959"
         transform="translate(-0.14935111,1.0412908)"
         width="100%"
         height="100%" />
    </g>
    <g
       id="use39309"
       transform="matrix(0.26974065,0.05439676,-0.05887626,0.27598528,92.036317,68.401664)"
       style="fill:#000000;fill-opacity:0.319347">
      <path
         style="fill:#000000;fill-opacity:0.319347;stroke:none;stroke-width:0.0538732px;stroke-linecap:butt;stroke-linejoin:miter;stroke-opacity:1"
         d="m -88.993802,90.280274 c -0.588552,0.305955 -0.567504,2.669978 -0.20184,4.1129 0.256185,1.010909 0.146421,2.700313 0.704212,2.540292 0.714594,-0.205012 -0.272448,-2.398738 0.133164,-3.334255 0.266708,-0.615177 0.149756,-3.727184 -0.635536,-3.318937 z"
         id="path39577"
         sodipodi:nodetypes="sssss" />
      <path
         style="fill:#000000;fill-opacity:0.319347;stroke:none;stroke-width:0.0674857px;stroke-linecap:butt;stroke-linejoin:miter;stroke-opacity:1"
         d="m -88.438292,96.516665 c -0.144991,-0.880705 -2.287787,1.231436 -3.67465,3.209264 -0.971631,1.385651 -2.475005,2.651491 -2.455115,3.599971 0.02548,1.21515 2.230462,-2.63322 2.985795,-2.66115 0.496651,-0.0189 3.337437,-2.972978 3.14397,-4.148085 z"
         id="path39579"
         sodipodi:nodetypes="sssss" />
      <path
         style="fill:#000000;fill-opacity:0.319347;stroke:none;stroke-width:0.0954944px;stroke-linecap:butt;stroke-linejoin:miter;stroke-opacity:1"
         d="m -97.69246,92.189523 c 0.977693,-0.05736 -0.989588,4.550163 -2.9257,7.752527 -1.35643,2.24358 -2.50223,5.3983 -3.53452,5.70467 -1.32252,0.39249 2.51947,-4.9528 2.43528,-6.318511 -0.0554,-0.898045 2.720386,-7.062108 4.02494,-7.138686 z"
         id="path39581"
         sodipodi:nodetypes="sssss" />
      <g
         id="g39587"
         transform="matrix(-0.18278581,0.38920873,-0.39516513,-0.21823364,-4.3399341,69.927593)"
         style="fill:#000000;fill-opacity:0.319347">
        <path
           style="fill:#000000;fill-opacity:0.319347;stroke:none;stroke-width:0.264583px;stroke-linecap:butt;stroke-linejoin:miter;stroke-opacity:1"
           d="m 153.10455,172.35846 c -3.1146,1.53594 0.40129,10.6269 4.67731,15.96129 2.99578,3.73726 4.75499,10.3098 7.89294,9.35459 4.02024,-1.22379 -5.08335,-9.07187 -3.97571,-12.92103 0.72835,-2.53108 -4.43877,-14.44423 -8.59454,-12.39485 z"
           id="path39583"
           sodipodi:nodetypes="sssss" />
        <path
           style="fill:#000000;fill-opacity:0.319347;stroke:none;stroke-width:0.237506px;stroke-linecap:butt;stroke-linejoin:miter;stroke-opacity:1"
           d="m 152.48648,172.10632 c -2.72062,1.41689 0.35053,9.80318 4.08565,14.72409 2.61682,3.44757 4.1535,9.51065 6.89451,8.62948 3.5117,-1.12893 -4.44032,-8.36868 -3.47279,-11.91948 0.63621,-2.33489 -3.87729,-13.32461 -7.50737,-11.43409 z"
           id="path39585"
           sodipodi:nodetypes="sssss" />
      </g>
      <path
         style="fill:#000000;fill-opacity:0.319347;stroke:none;stroke-width:0.145867px;stroke-linecap:butt;stroke-linejoin:miter;stroke-opacity:1"
         d="m -110.89432,91.055769 c -1.05534,-1.515602 -5.00127,2.527509 -7.08473,6.211911 -1.45967,2.581285 -4.3945,5.04032 -3.61231,6.6949 1.00213,2.11977 3.77259,-4.968289 5.71542,-5.140926 1.27753,-0.113505 6.38976,-5.743628 4.98162,-7.765885 z"
         id="path39589"
         sodipodi:nodetypes="sssss" />
      <path
         style="fill:#000000;fill-opacity:0.319347;stroke:none;stroke-width:0.0986911;stroke-linecap:butt;stroke-linejoin:miter;stroke-miterlimit:4;stroke-dasharray:none;stroke-opacity:1"
         d="m -80.678459,93.786629 c 0.929949,3.199521 1.101122,5.067499 3.195923,4.958459 -2.646517,-3.243096 -1.175466,-6.398177 2.171739,-2.148408 0.326862,-2.414675 -3.484116,-5.68902 -4.632022,-3.90497 -0.636146,0.396706 -0.735661,1.09488 -0.735661,1.09488 z"
         id="path39591"
         sodipodi:nodetypes="ccccc" />
      <path
         id="path39593"
         style="fill:#000000;fill-opacity:0.319347;stroke-width:0.0333721;stroke-linejoin:bevel"
         d="m -92.577077,88.525982 c -0.224746,-3.415267 4.803621,-2.876036 6.480749,-2.687693 1.988215,0.223272 1.664336,5.412593 1.575415,6.662614 -0.228784,3.216107 -4.845217,2.572178 -5.560152,2.126975 -2.004723,-1.248376 -2.224036,-1.969056 -2.496012,-6.101896 z"
         sodipodi:nodetypes="sssss" />
      <path
         id="path39595"
         style="fill:#000000;fill-opacity:0.319347;stroke-width:0.0271995;stroke-linejoin:bevel"
         d="m -91.32005,87.947182 c -0.182087,-2.746502 3.970644,-2.318148 5.35569,-2.168448 1.641965,0.177462 1.368988,4.35134 1.294232,5.356771 -0.192349,2.586805 -4.004675,2.073812 -4.594722,1.716511 -1.654522,-1.001882 -1.834902,-1.581268 -2.0552,-4.904834 z"
         sodipodi:nodetypes="sssss" />
      <path
         id="path39597"
         style="fill:#000000;fill-opacity:0.319347;stroke-width:0.0400642;stroke-linejoin:bevel"
         d="m -101.82312,88.590914 c -0.26228,-3.847174 6.164791,-3.276748 8.308385,-3.076924 2.541201,0.236883 2.088781,6.087397 1.965856,7.496758 -0.316274,3.626092 -6.215761,2.934635 -7.126859,2.438211 -2.554772,-1.392 -2.829942,-2.20255 -3.147382,-6.858045 z"
         sodipodi:nodetypes="sssss" />
      <path
         id="path39599"
         style="fill:#000000;fill-opacity:0.319347;stroke-width:0.0326537;stroke-linejoin:bevel"
         d="m -100.21118,87.929321 c -0.2126,-3.093829 5.095341,-2.641864 6.865664,-2.483423 2.098694,0.187824 1.718861,4.893606 1.615846,6.027224 -0.265042,2.916632 -5.137076,2.366767 -5.889093,1.968481 -2.108687,-1.116826 -2.335118,-1.768416 -2.592417,-5.512282 z"
         sodipodi:nodetypes="sssss" />
      <path
         id="path39601"
         style="fill:#000000;fill-opacity:0.319347;stroke-width:0.0641335;stroke-linejoin:bevel"
         d="m -100.71412,88.718295 c 2.294664,3.612113 -3.60953,7.805981 -9.19748,9.538477 -5.58794,1.732485 -13.2131,0.234996 -15.50776,-3.377114 -2.29467,-3.6121 -0.919,-7.673443 4.66893,-9.405933 5.58794,-1.732492 17.74164,-0.36754 20.03631,3.24457 z"
         sodipodi:nodetypes="sssss" />
      <path
         id="path39603"
         style="fill:#000000;fill-opacity:0.319347;stroke-width:0.0594719;stroke-linejoin:bevel"
         d="m -100.65442,88.300484 c 2.269536,3.091685 -3.66103,6.739565 -9.25883,8.267907 -5.5978,1.528341 -13.21036,0.29198 -15.47989,-2.799712 -2.26953,-3.091689 -0.86689,-6.594776 4.73091,-8.123117 5.59779,-1.528346 17.73828,-0.436769 20.00781,2.654922 z"
         sodipodi:nodetypes="sssss" />
      <path
         id="path39605"
         style="fill:#000000;fill-opacity:0.319347;stroke-width:0.0184835;stroke-linejoin:bevel"
         d="m -116.76396,86.496044 c 0.98545,0.621399 -0.57932,2.243456 -2.22124,3.24449 -1.64194,1.001031 -4.16041,1.444859 -5.14586,0.823462 -0.98544,-0.621401 -0.84284,-1.735843 0.7991,-2.736878 1.64193,-1.001034 5.58256,-1.95248 6.568,-1.331074 z"
         sodipodi:nodetypes="sssss" />
      <path
         style="fill:#000000;fill-opacity:0.319347;stroke:none;stroke-width:0.0884351px;stroke-linecap:butt;stroke-linejoin:miter;stroke-opacity:1"
         d="m -94.638482,93.870744 c -0.652904,1.113667 -2.204754,-2.008323 -2.882197,-4.819523 -0.474623,-1.969524 -1.679019,-3.880293 -1.146456,-5.104334 0.6823,-1.568202 1.382663,3.812334 2.313262,3.98529 0.611915,0.113736 2.586542,4.452619 1.715391,5.938567 z"
         id="path39607"
         sodipodi:nodetypes="sssss"
         inkscape:transform-center-x="1.3244685"
         inkscape:transform-center-y="-3.7226961" />
      <path
         style="fill:#000000;fill-opacity:0.319347;stroke:none;stroke-width:0.133111px;stroke-linecap:butt;stroke-linejoin:miter;stroke-opacity:1"
         d="m -98.275748,83.797019 c 1.065475,0.154457 -1.731452,7.758109 -4.290382,12.89417 -1.79281,3.598311 -3.49031,8.857031 -4.65099,9.126961 -1.48702,0.34581 3.44417,-8.067601 3.55168,-10.49582 0.0708,-1.596719 3.96803,-11.731411 5.389692,-11.525311 z"
         id="path39609"
         sodipodi:nodetypes="sssss" />
      <path
         style="fill:#000000;fill-opacity:0.319347;stroke:none;stroke-width:0.0982176px;stroke-linecap:butt;stroke-linejoin:miter;stroke-opacity:1"
         d="m -101.54537,91.527491 c -0.002,-1.585998 -2.93572,-5.472612 -4.95193,-7.198647 -1.41256,-1.209252 -3.42946,-4.215313 -3.58823,-2.928018 -0.20341,1.649244 3.13742,3.483809 4.03391,5.780029 0.58951,1.509919 4.50871,6.462816 4.50625,4.346636 z"
         id="path39611"
         sodipodi:nodetypes="sssss" />
      <path
         style="fill:#000000;fill-opacity:0.319347;stroke:none;stroke-width:0.174904px;stroke-linecap:butt;stroke-linejoin:miter;stroke-opacity:1"
         d="m -109.07917,81.31866 c -0.56787,-1.783321 -6.63392,5.111644 -10.46604,10.91671 -2.68479,4.067033 -6.97394,8.4297 -6.76877,10.49349 0.26289,2.64406 6.24737,-8.132439 8.49585,-8.987832 1.47852,-0.56247 9.49668,-10.042897 8.73896,-12.422368 z"
         id="path39613"
         sodipodi:nodetypes="sssss"
         inkscape:transform-center-x="7.9329315"
         inkscape:transform-center-y="10.164559" />
      <path
         style="fill:#000000;fill-opacity:0.319347;stroke:none;stroke-width:0.0538732px;stroke-linecap:butt;stroke-linejoin:miter;stroke-opacity:1"
         d="m -88.2702,91.072131 c -0.435144,0.512577 0.434735,2.700201 1.292507,3.89854 0.600952,0.839558 1.106999,2.451329 1.566115,2.08626 0.588206,-0.467716 -1.115234,-2.122318 -1.076032,-3.148656 0.02584,-0.67489 -1.201991,-3.520055 -1.78259,-2.836144 z"
         id="path39615"
         sodipodi:nodetypes="sssss" />
      <path
         style="fill:#000000;fill-opacity:0.319347;stroke:none;stroke-width:0.0674857px;stroke-linecap:butt;stroke-linejoin:miter;stroke-opacity:1"
         d="m -85.512282,96.649166 c -0.451115,-0.761764 -1.6763,2.031562 -2.249545,4.406784 -0.40161,1.66408 -1.338908,3.42322 -0.979307,4.29648 0.460718,1.11879 1.118956,-3.31135 1.8086,-3.63038 0.453491,-0.20978 2.022174,-4.056467 1.420252,-5.072884 z"
         id="path39617"
         sodipodi:nodetypes="sssss" />
      <path
         id="path39619"
         style="fill:#000000;fill-opacity:0.319347;stroke:none;stroke-width:0.508755;stroke-linejoin:bevel;stroke-miterlimit:4;stroke-dasharray:none;stroke-opacity:1"
         d="m -76.356975,89.981685 c 0.145657,1.919101 -1.064135,4.333403 -2.507413,4.909457 -1.884085,0.752003 -3.526434,-0.646558 -5.408393,-3.416617 -2.844672,-4.1871 -5.652078,-4.835654 1.588318,-7.496471 4.847019,-1.781263 6.125009,3.336206 6.327488,6.003631 z"
         sodipodi:nodetypes="sssss" />
      <path
         id="path39621"
         style="fill:#000000;fill-opacity:0.319347;stroke:none;stroke-width:0.466229;stroke-linejoin:bevel;stroke-miterlimit:4;stroke-dasharray:none;stroke-opacity:1"
         d="m -76.475548,88.386945 c 0.454172,1.888323 -0.122509,4.434223 -1.211603,5.182854 -1.421738,0.977285 -2.871256,-0.304115 -5.051824,-2.732248 -4.286929,-4.77365 -5.926589,-4.466582 -0.0095,-7.279212 5.184193,-2.464234 5.641637,2.203966 6.272889,4.828606 z"
         sodipodi:nodetypes="sssss" />
      <path
         id="path39623"
         style="fill:#000000;fill-opacity:0.319347;stroke-width:0.0614314;stroke-linejoin:bevel"
         d="m -76.746823,87.910159 c 0.300261,1.179663 -0.247984,2.8023 -1.146261,3.304329 -1.172638,0.655355 -2.412551,-0.05152 -3.95713,-1.587957 -2.334697,-2.322425 -4.599746,-2.659042 0.238278,-4.594561 4.238761,-1.695771 4.447765,1.238534 4.865113,2.878189 z"
         sodipodi:nodetypes="sssss" />
      <path
         id="path39625"
         style="fill:#000000;fill-opacity:0.319347;stroke-width:0.0314032;stroke-linejoin:bevel"
         d="m -77.385193,85.454634 c 0.200639,0.856031 0.118892,1.984132 -0.177549,2.29573 -0.387012,0.40677 -0.901728,-0.160615 -1.592334,-1.334778 -1.04389,-1.774824 -1.912199,-2.131021 -0.257595,-3.261759 1.449666,-0.990676 1.748591,1.110987 2.027478,2.300807 z"
         sodipodi:nodetypes="sssss" />
      <path
         id="use39627"
         style="fill:#000000;fill-opacity:0.319347;stroke-width:0.0314032;stroke-linejoin:bevel"
         d="m -83.689691,88.076802 c 0.773603,0.561932 1.958731,1.039751 2.417139,0.963889 0.598434,-0.09905 0.268364,-0.761218 -0.593944,-1.847248 -1.303436,-1.641599 -1.249752,-2.471051 -3.190261,-1.756434 -1.700149,0.62611 0.291823,1.85874 1.367066,2.639793 z"
         sodipodi:nodetypes="sssss" />
      <path
         id="path39629"
         style="fill:#000000;fill-opacity:0.319347;stroke-width:0.311681;stroke-linejoin:bevel"
         d="m -81.222075,83.775998 0.643968,-0.275194 c 0,0 0.393533,-5.216014 -0.03863,-6.588043 -0.155043,-0.492241 -0.495444,-0.346779 -0.643959,0.275194 -0.413954,1.733605 0.03862,6.588043 0.03862,6.588043 z"
         sodipodi:nodetypes="ccaac" />
      <path
         id="use39631"
         style="fill:#000000;fill-opacity:0.319347;stroke-width:0.311681;stroke-linejoin:bevel"
         d="m -84.160225,85.046115 0.426055,-0.49795 c 0,0 -2.472568,-4.739835 -3.601304,-5.773544 -0.404952,-0.370864 -0.630168,-0.107653 -0.426048,0.497945 0.568934,1.687967 3.601296,5.773549 3.601297,5.773549 z"
         sodipodi:nodetypes="ccaac" />
    </g>
    <use
       x="0"
       y="0"
       xlink:href="#use39309"
       id="use18860"
       transform="matrix(-0.84208645,-0.53934258,-0.53934258,0.84208645,212.06526,43.696631)"
       width="100%"
       height="100%" />
    <use
       x="0"
       y="0"
       xlink:href="#path15388"
       id="use18582"
       transform="matrix(0.99607546,0.08316615,-0.09419322,0.99607547,10.736746,-6.9941803)"
       width="100%"
       height="100%"
       inkscape:transform-center-x="-3.2512056"
       inkscape:transform-center-y="12.414482"
       style="fill:#000000;fill-opacity:0.48718;stroke:none" />
    <path
       id="path15388"
       style="fill:#000000;fill-opacity:0.48718;stroke:none;stroke-width:0.065873;stroke-linejoin:bevel"
       d="m 92.984694,122.2361 c -0.874472,0.23573 2.563456,5.01933 3.366466,7.65668 0.795124,2.61144 1.654648,3.33947 2.529121,3.10375 0.87447,-0.23573 1.122799,-2.87522 -0.374546,-5.06632 -1.535182,-2.24646 -4.646569,-5.92983 -5.521041,-5.69411 z"
       sodipodi:nodetypes="sssss" />
    <path
       id="path18132"
       style="fill:#000000;fill-opacity:0.48718;stroke:none;stroke-width:0.0250063;stroke-linejoin:bevel"
       d="m 90.682984,124.25352 c 0.137226,-0.0257 0.136616,-0.16502 -0.04448,-0.37096 -0.361943,-0.28706 -1.235706,-0.80415 -1.451224,-0.90668 -0.110321,0.0547 -0.149679,0.26562 -0.04325,0.52077 0.202903,0.18154 1.228408,0.70673 1.538941,0.7569 z"
       sodipodi:nodetypes="ccccc"
       inkscape:transform-center-x="0.42761813"
       inkscape:transform-center-y="-0.42866013" />
    <path
       id="path18134"
       style="fill:#000000;fill-opacity:0.48718;stroke:none;stroke-width:0.0197786;stroke-linejoin:bevel"
       d="m 87.744973,123.03478 c -0.126674,0.0634 -0.132626,0.16086 0.02318,0.24552 0.317288,0.0819 1.091677,0.15619 1.283824,0.15701 0.103416,-0.0748 0.149342,-0.23571 0.06409,-0.37954 -0.176934,-0.0603 -1.089589,-0.0903 -1.371089,-0.023 z"
       sodipodi:nodetypes="ccccc"
       inkscape:transform-center-x="1.9531626"
       inkscape:transform-center-y="-0.82650729" />
    <path
       id="path18136"
       style="fill:#000000;fill-opacity:0.48718;stroke:none;stroke-width:0.00846806;stroke-linejoin:bevel"
       d="m 87.28946,122.68078 c 0.007,-0.045 0.05632,-0.0485 0.132056,0.004 0.107188,0.10908 0.303694,0.37708 0.343287,0.44388 -0.01768,0.037 -0.09179,0.0554 -0.183787,0.0279 -0.06735,-0.0606 -0.269059,-0.37737 -0.291562,-0.47621 z"
       sodipodi:nodetypes="ccccc"
       inkscape:transform-center-x="2.8315893"
       inkscape:transform-center-y="-1.1353809" />
    <use
       x="0"
       y="0"
       xlink:href="#rect76516"
       id="use78163"
       transform="matrix(0.94152833,-0.3089972,0.34959287,0.94737117,-37.586396,34.950079)"
       width="100%"
       height="100%"
       style="fill:#000000;fill-opacity:0.48718;stroke:none" />
    <rect
       style="fill:#000000;fill-opacity:0.48718;stroke:none;stroke-width:0.667605;stroke-linecap:round;stroke-linejoin:round;stroke-miterlimit:4;stroke-dasharray:none;stroke-opacity:1;paint-order:stroke fill markers"
       id="rect76516"
       width="0.36441189"
       height="1.9580332"
       x="-136.9938"
       y="-65.729317"
       transform="matrix(-0.22614178,-0.9740944,-0.98110106,0.193496,0,0)" />
    <path
       id="path117403-5"
       style="fill:#000000;fill-opacity:0.48718;stroke:none;stroke-width:0.310252;stroke-linecap:round;stroke-linejoin:round"
       d="m 95.126312,119.87607 -0.33332,-0.15021 c 0,0 0.07225,-2.95753 0.541676,-3.6681 0.107911,-0.16335 0.284105,-0.0839 0.333313,0.1502 0.214071,1.0186 -0.541669,3.66811 -0.541669,3.66811 z"
       sodipodi:nodetypes="ccaac"
       inkscape:transform-center-x="-0.6842232"
       inkscape:transform-center-y="-4.7508883" />
    <path
       id="path22857-2"
       style="fill:#000000;fill-opacity:0.48718;stroke:none;stroke-width:0.310252;stroke-linecap:round;stroke-linejoin:round"
       d="m 95.463003,120.73086 -0.28648,-0.21643 c 0,0 0.864189,-2.82601 1.515029,-3.4072 0.14959,-0.13364 0.301055,-0.0192 0.286468,0.21643 -0.06336,1.02497 -1.51502,3.4072 -1.51502,3.4072 z"
       sodipodi:nodetypes="ccaac"
       inkscape:transform-center-x="-1.7375248"
       inkscape:transform-center-y="-4.504931" />
    <ellipse
       style="fill:#000000;fill-opacity:0.11888112;stroke:none;stroke-width:0.0793146;stroke-linejoin:bevel"
       id="path846"
       cx="-145.10568"
       cy="-62.856373"
       rx="4.6831388"
       ry="2.9486902"
       transform="matrix(-0.22208036,-0.97502837,-0.98160462,0.19092502,0,0)" />
    <ellipse
       style="fill:#000000;fill-opacity:0.11888112;stroke:none;stroke-width:0.0727023;stroke-linejoin:bevel"
       id="ellipse1398"
       cx="-144.67822"
       cy="-62.845261"
       rx="3.9598248"
       ry="2.9300776"
       transform="matrix(-0.2219076,-0.9750677,-0.98157261,0.19108951,0,0)" />
    <ellipse
       style="fill:#000000;fill-opacity:0.11888112;stroke:none;stroke-width:0.0686193;stroke-linejoin:bevel"
       id="ellipse1840"
       cx="-144.09111"
       cy="-62.702034"
       rx="3.3649991"
       ry="3.0716105"
       transform="matrix(-0.22322087,-0.97476789,-0.98180562,0.18988874,0,0)" />
    <ellipse
       style="fill:#000000;fill-opacity:0.11888112;stroke:none;stroke-width:0.0616221;stroke-linejoin:bevel"
       id="ellipse1842"
       cx="-143.55618"
       cy="-62.696045"
       rx="2.7423425"
       ry="3.0396194"
       transform="matrix(-0.2229241,-0.97483581,-0.98175497,0.1901504,0,0)" />
    <ellipse
       style="fill:#000000;fill-opacity:0.11888112;stroke:none;stroke-width:0.0508115;stroke-linejoin:bevel"
       id="ellipse1844"
       cx="-142.95155"
       cy="-62.445835"
       rx="1.8512498"
       ry="3.0613756"
       transform="matrix(-0.22486018,-0.97439104,-0.98206634,0.1885357,0,0)" />
    <g
       id="g4839"
       transform="matrix(-0.1231225,-0.29750922,-0.3152323,0.09186044,144.66352,145.54328)"
       style="fill:#000000;fill-opacity:0.19114217;stroke:none">
      <ellipse
         style="fill:#000000;fill-opacity:0.19114217;stroke:none;stroke-width:0.183264;stroke-linejoin:bevel"
         id="ellipse4835"
         cx="103.69713"
         cy="122.77692"
         rx="7.573081"
         ry="9.7352018" />
      <ellipse
         style="fill:#000000;fill-opacity:0.19114217;stroke:none;stroke-width:0.169785;stroke-linejoin:bevel"
         id="ellipse4833"
         cx="105.3187"
         cy="122.58856"
         rx="6.5634127"
         ry="9.6410179" />
    </g>
    <path
       id="path17998"
       style="fill:#000000;fill-opacity:0.48718;stroke:none;stroke-width:0.034493;stroke-linejoin:bevel"
       d="m 87.995827,125.62694 c -0.06753,-0.2243 0.05991,-0.34009 0.367791,-0.24525 0.501766,0.29385 1.552591,1.15109 1.789002,1.38337 0.02324,0.20879 -0.142988,0.44373 -0.446233,0.50042 -0.300078,-0.14752 -1.458925,-1.22194 -1.710561,-1.63854 z"
       sodipodi:nodetypes="ccccc"
       inkscape:transform-center-x="0.64931765"
       inkscape:transform-center-y="-0.71067517" />
    <path
       id="path18103"
       style="fill:#000000;fill-opacity:0.48718;stroke:none;stroke-width:0.0245309;stroke-linejoin:bevel"
       d="m 86.45997,124.67709 c -0.145656,0.027 -0.136138,0.15163 0.07128,0.33074 0.406604,0.24656 1.377183,0.68414 1.614943,0.76975 0.11492,-0.0521 0.143784,-0.24203 0.01337,-0.46733 -0.22927,-0.15665 -1.363156,-0.59719 -1.699591,-0.63316 z"
       sodipodi:nodetypes="ccccc"
       inkscape:transform-center-x="2.4122971"
       inkscape:transform-center-y="-1.7902751" />
    <path
       id="path18107"
       style="fill:#000000;fill-opacity:0.48718;stroke:none;stroke-width:0.0221912;stroke-linejoin:bevel"
       d="m 90.688293,127.98173 c -0.02754,0.10976 -0.166304,0.1158 -0.369078,-0.0177 -0.281243,-0.27272 -0.784662,-0.9395 -0.883967,-1.10511 0.056,-0.0898 0.266735,-0.13086 0.519557,-0.0587 0.178172,0.15194 0.687693,0.9383 0.733488,1.18154 z"
       sodipodi:nodetypes="ccccc"
       inkscape:transform-center-x="-2.6349061"
       inkscape:transform-center-y="1.1216943" />
    <path
       id="path18118"
       style="fill:#000000;fill-opacity:0.48718;stroke:none;stroke-width:0.0089748;stroke-linejoin:bevel"
       d="m 86.105475,124.23859 c -0.04134,0.002 -0.05196,0.0617 -0.01612,0.16293 0.08133,0.14874 0.291478,0.43186 0.345159,0.49099 0.03583,-0.016 0.06353,-0.10411 0.05288,-0.22143 -0.044,-0.0923 -0.296906,-0.38941 -0.381957,-0.43248 z"
       sodipodi:nodetypes="ccccc"
       inkscape:transform-center-x="3.4371498"
       inkscape:transform-center-y="-2.4520601" />
    <g
       id="g14903"
       transform="matrix(-0.01431191,-0.23038689,-0.33294048,0.03473405,135.09083,144.1682)"
       style="fill:#000000;fill-opacity:0.31235433;stroke:none">
      <g
         id="g122893"
         transform="matrix(0.9642438,0.00951845,0.00927586,0.86206217,2.1228653,16.512728)"
         style="fill:#000000;fill-opacity:0.31235433;stroke:none">
        <ellipse
           style="fill:#000000;fill-opacity:0.31235433;stroke:none;stroke-width:0.331515;stroke-linejoin:bevel"
           id="path9417"
           cx="103.17281"
           cy="121.09525"
           rx="7.8620129"
           ry="7.5394435"
           transform="matrix(0.99992124,0.01255032,0.01413471,0.9999001,0,0)" />
        <ellipse
           style="fill:#000000;fill-opacity:0.31235433;stroke:none;stroke-width:0.307943;stroke-linejoin:bevel"
           id="ellipse11237"
           cx="106.13943"
           cy="122.45192"
           rx="6.7932696"
           ry="7.5288458" />
      </g>
    </g>
    <path
       id="path18535"
       style="fill:#000000;fill-opacity:0.340326;stroke:none;stroke-width:0.0470814;stroke-linejoin:bevel"
       d="m 98.609196,124.53113 c 0.038,-0.2844 -0.181713,-0.42412 -0.609901,-0.29177 -0.659709,0.39047 -1.974964,1.51163 -2.260039,1.81336 0.02291,0.26297 0.332665,0.55056 0.795608,0.60852 0.4023,-0.19807 1.817333,-1.59648 2.074332,-2.13011 z"
       sodipodi:nodetypes="ccccc"
       inkscape:transform-center-x="-0.88416902"
       inkscape:transform-center-y="-0.70580407" />
    <path
       id="path18537"
       style="fill:#000000;fill-opacity:0.340326;stroke:none;stroke-width:0.0334836;stroke-linejoin:bevel"
       d="m 100.26805,123.9399 c 0.1854,0.10218 0.1756,0.28189 -0.0843,0.45703 -0.511455,0.18925 -1.735135,0.4184 -2.035307,0.4427 -0.146806,-0.12614 -0.186986,-0.41845 -0.02571,-0.6947 0.288062,-0.13268 1.718952,-0.2962 2.145287,-0.20504 z"
       sodipodi:nodetypes="ccccc"
       inkscape:transform-center-x="-0.28078845"
       inkscape:transform-center-y="-2.5564258" />
    <path
       id="path18539"
       style="fill:#000000;fill-opacity:0.11888112;stroke:none;stroke-width:0.0277324;stroke-linejoin:bevel"
       d="m 96.18345,126.99965 c 0.123168,0.0966 0.245906,0.002 0.295686,-0.28803 -0.01062,-0.49496 -0.19219,-1.57073 -0.259023,-1.81916 -0.129065,-0.0546 -0.344467,0.0555 -0.492392,0.31655 -0.01224,0.29143 0.273024,1.49874 0.455729,1.79064 z"
       sodipodi:nodetypes="ccccc" />
    <path
       id="path18543"
       style="fill:#000000;fill-opacity:0.340326;stroke:none;stroke-width:0.0122503;stroke-linejoin:bevel"
       d="m 100.66346,123.56038 c 0.0525,0.0201 0.0671,0.11316 0.0234,0.24711 -0.10043,0.18441 -0.36185,0.51181 -0.42894,0.5759 -0.0459,-0.0387 -0.0826,-0.18073 -0.0712,-0.3491 0.0542,-0.11713 0.3696,-0.44683 0.47674,-0.47387 z"
       sodipodi:nodetypes="ccccc"
       inkscape:transform-center-x="-1.5226593"
       inkscape:transform-center-y="-2.9610906" />
    <g
       id="g110884"
       transform="matrix(0.25609979,0.07570895,0.12484284,0.32544927,60.500939,81.38493)"
       style="fill:#000000;fill-opacity:0.48718;stroke:none;stroke-opacity:1">
      <path
         style="fill:#000000;fill-opacity:0.48718;stroke:none;stroke-width:0.846742;stroke-linecap:butt;stroke-linejoin:miter;stroke-miterlimit:4;stroke-dasharray:none;stroke-opacity:1"
         d="m 88.705772,89.661839 c -1.385915,-2.361116 -11.46588,6.275545 -10.831262,7.847072 1.590906,3.939609 4.73026,-3.151898 7.247533,1.583213 1.565629,2.945026 -4.178889,2.607696 -2.73333,6.020076 1.397515,3.29895 12.452657,-0.92092 11.531809,-4.5319 -1.168247,-4.581118 -5.517182,-1.102325 -6.260328,-2.952544 -1.558239,-3.879569 2.518533,-5.456517 1.045578,-7.965917 z"
         id="path107854"
         sodipodi:nodetypes="sssssss" />
      <ellipse
         style="fill:#000000;fill-opacity:0.48718;stroke:none;stroke-width:1.33501;stroke-linecap:round;stroke-linejoin:round;stroke-miterlimit:4;stroke-dasharray:none;stroke-opacity:1;paint-order:stroke fill markers"
         id="path110776"
         cx="152.56638"
         cy="76.317787"
         rx="1.0273234"
         ry="1.7318852"
         transform="matrix(0.94737851,0.32011554,-0.76839511,0.63997574,0,0)" />
    </g>
    <path
       id="ellipse4848"
       style="fill:#000000;fill-opacity:0.48718;stroke:none;stroke-width:0.299977;stroke-linejoin:bevel;stroke-miterlimit:4;stroke-dasharray:none;stroke-opacity:1"
       d="m 94.536537,122.49263 c -0.170956,-0.71873 -1.984477,-2.40739 -3.627343,-2.37287 -1.329311,0.0279 -3.944818,1.80068 -2.906217,2.44376 1.313517,0.77659 6.81227,1.21006 6.53356,-0.0709 z"
       sodipodi:nodetypes="cscc" />
    <ellipse
       style="fill:#000000;fill-opacity:0.48718;stroke:none;stroke-width:0.336909;stroke-linejoin:bevel;stroke-miterlimit:4;stroke-dasharray:none;stroke-opacity:1"
       id="ellipse8628"
       cx="37.621376"
       cy="153.13049"
       rx="1.1821611"
       ry="1.2808485"
       transform="matrix(-0.7445624,0.66755287,0.7823742,0.62280865,0,0)" />
    <ellipse
       style="fill:#000000;fill-opacity:0.48718;stroke:none;stroke-width:0.357901;stroke-linejoin:bevel;stroke-miterlimit:4;stroke-dasharray:none;stroke-opacity:1"
       id="ellipse18455"
       cx="34.122627"
       cy="153.36438"
       rx="1.237226"
       ry="1.3604701"
       transform="matrix(-0.72881466,0.68471103,0.76724951,0.64134872,0,0)" />
    <ellipse
       style="fill:#000000;fill-opacity:0.48718;stroke:none;stroke-width:0.778672;stroke-linecap:round;stroke-linejoin:round;stroke-opacity:1;paint-order:stroke fill markers"
       id="path66792"
       cx="66.985466"
       cy="135.24152"
       rx="0.43040934"
       ry="0.42009777"
       transform="matrix(0.98629785,-0.16497442,0.19459024,0.98088462,0,0)" />
    <use
       x="0"
       y="0"
       xlink:href="#path66792"
       id="use66962"
       transform="matrix(0.86916233,-0.00528633,-0.00626973,0.83860676,11.72009,18.872912)"
       width="100%"
       height="100%"
       style="fill:#000000;fill-opacity:0.48718;stroke:none" />
    <path
       id="path18000"
       style="fill:#000000;fill-opacity:0.48718;stroke:none;stroke-width:0.0277324;stroke-linejoin:bevel"
       d="m 95.187651,124.18385 c -0.155437,7.7e-4 -0.17833,-0.15047 -0.0139,-0.41186 0.349685,-0.38734 1.223877,-1.13132 1.443683,-1.28774 0.130693,0.0362 0.209763,0.2569 0.135859,0.55606 -0.192574,0.23948 -1.232342,1.02409 -1.565642,1.14354 z"
       sodipodi:nodetypes="ccccc" />
    <path
       id="path18120"
       style="fill:#000000;fill-opacity:0.48718;stroke:none;stroke-width:0.0219347;stroke-linejoin:bevel"
       d="m 98.214977,122.24624 c 0.150169,0.0422 0.173266,0.14676 0.01608,0.27128 -0.335342,0.15535 -1.175135,0.39803 -1.386485,0.43915 -0.126504,-0.0595 -0.204326,-0.22451 -0.134859,-0.39844 0.184509,-0.10255 1.184007,-0.32608 1.505254,-0.31198 z"
       sodipodi:nodetypes="ccccc" />
    <path
       id="path18122"
       style="fill:#000000;fill-opacity:0.48718;stroke:none;stroke-width:0.0093912;stroke-linejoin:bevel"
       d="m 98.656365,121.76672 c -0.01537,-0.0473 -0.07026,-0.0408 -0.144616,0.0324 -0.09953,0.14079 -0.270336,0.4728 -0.302628,0.55355 0.02576,0.0365 0.110424,0.0409 0.207021,-0.008 0.06391,-0.0799 0.232202,-0.46584 0.240223,-0.5778 z"
       sodipodi:nodetypes="ccccc" />
    <path
       id="path18002"
       style="fill:#000000;fill-opacity:0.28904429;stroke:none;stroke-width:0.0489865;stroke-linejoin:bevel"
       d="m 92.666101,133.1031 c 0.284156,0.097 0.421377,-0.1145 0.284945,-0.60581 -0.39633,-0.7934 -1.528481,-2.44221 -1.832448,-2.81107 -0.262181,-0.0265 -0.545995,0.25388 -0.599141,0.7457 0.201774,0.47597 1.611539,2.28749 2.146655,2.67117 z"
       sodipodi:nodetypes="ccccc" />
    <path
       id="rect15412"
       style="fill:#000000;fill-opacity:0.25174826;stroke:none;stroke-width:0.0633918;stroke-linejoin:bevel"
       d="m 91.181234,130.36673 c 0.03767,-0.44015 -0.222927,-0.65852 -0.720965,-0.45721 -0.762779,0.59907 -2.275215,2.32427 -2.601607,2.78914 0.03322,0.40752 0.40272,0.85564 0.946021,0.94944 0.466087,-0.30336 2.088646,-2.45705 2.376551,-3.28137 z"
       sodipodi:nodetypes="ccccc" />
    <g
       id="g113404"
       transform="matrix(0.42561648,-0.11299989,0.12753077,0.32292345,49.168345,95.402096)"
       style="fill:#000000;fill-opacity:0.48718;stroke:none">
      <path
         id="path113394"
         style="fill:#000000;fill-opacity:0.48718;stroke:none;stroke-width:0.159287;stroke-linejoin:bevel"
         d="m 68.722224,139.35098 c 0.855151,0.55302 1.363597,-0.0258 1.117391,-1.74752 -0.949481,-2.92621 -3.890042,-9.26295 -4.706827,-10.72254 -0.812303,-0.30399 -1.805866,0.37892 -2.154294,1.94527 0.456756,1.72566 4.207669,8.82513 5.743766,10.52478 z"
         sodipodi:nodetypes="ccccc" />
      <g
         id="g113402"
         transform="matrix(-0.10153156,-0.71272585,-0.49475807,0.1845528,135.65717,155.42495)"
         style="fill:#000000;fill-opacity:0.48718;stroke:none">
        <path
           id="path113396"
           style="fill:#000000;fill-opacity:0.48718;stroke:none;stroke-width:0.238437;stroke-linejoin:bevel"
           d="m 71.550795,127.11776 c 1.656744,-0.10914 2.609229,0.87783 2.07625,2.72011 -1.922366,2.80092 -7.778193,8.31638 -9.393998,9.50007 -1.565756,-0.15279 -3.443139,-1.56207 -4.053932,-3.59406 0.936165,-1.71592 8.370467,-7.61145 11.37168,-8.62612 z"
           sodipodi:nodetypes="ccccc" />
        <path
           id="path113398"
           style="fill:#000000;fill-opacity:0.48718;stroke:none;stroke-width:0.195403;stroke-linejoin:bevel"
           d="m 54.178057,145.93056 c -1.428091,0.075 -2.30686,-0.69679 -1.946849,-2.12372 1.509947,-2.16291 6.275401,-6.40982 7.608942,-7.31914 1.363753,0.12781 3.066348,1.23282 3.706838,2.81377 -0.715951,1.32647 -6.826861,5.85913 -9.368931,6.62909 z"
           sodipodi:nodetypes="ccccc" />
        <path
           id="path113400"
           style="fill:#000000;fill-opacity:0.48718;stroke:none;stroke-width:0.080127;stroke-linejoin:bevel"
           d="m 51.945343,150.40743 c -0.332099,0.38409 -0.644835,0.15437 -0.747665,-0.74478 0.07506,-1.59342 0.653721,-5.15254 0.85263,-5.98948 0.34357,-0.25312 0.897759,-0.0305 1.260629,0.71732 0.0043,0.92701 -0.85877,4.97055 -1.365596,6.01694 z"
           sodipodi:nodetypes="ccccc" />
      </g>
    </g>
    <path
       id="path4471"
       style="fill:#000000;fill-opacity:0.48718;stroke:none;stroke-width:0.489994;stroke-linecap:round;stroke-linejoin:round"
       d="m 90.699124,131.31461 c 0.160963,0.48339 -3.919369,5.02826 -4.698878,5.39078 -0.389755,0.18126 -1.538759,-1.14045 -1.231848,-1.48626 0.306914,-0.34579 0.349509,-0.94056 1.598943,-0.18617 -0.717499,-0.88503 2.544309,-4.31001 3.122233,-4.36521 0.778232,-0.068 1.004213,0.20071 1.20955,0.64686 z"
       sodipodi:nodetypes="cssccc" />
  </g>
</svg>
