<?xml version="1.0" encoding="UTF-8" standalone="no"?>
<!-- Created with Inkscape (http://www.inkscape.org/) -->

<svg
   width="94.100891mm"
   height="24.697523mm"
   viewBox="0 0 94.100891 24.697523"
   version="1.1"
   id="svg86504"
   inkscape:version="1.1.1 (3bf5ae0d25, 2021-09-20)"
   sodipodi:docname="hint-tonight.svg"
   xmlns:inkscape="http://www.inkscape.org/namespaces/inkscape"
   xmlns:sodipodi="http://sodipodi.sourceforge.net/DTD/sodipodi-0.dtd"
   xmlns="http://www.w3.org/2000/svg"
   xmlns:svg="http://www.w3.org/2000/svg">
  <sodipodi:namedview
     id="namedview86506"
     pagecolor="#505050"
     bordercolor="#ffffff"
     borderopacity="1"
     inkscape:pageshadow="0"
     inkscape:pageopacity="0"
     inkscape:pagecheckerboard="1"
     inkscape:document-units="mm"
     showgrid="false"
     fit-margin-top="0"
     fit-margin-left="0"
     fit-margin-right="0"
     fit-margin-bottom="0"
     inkscape:zoom="0.76435185"
     inkscape:cx="206.05694"
     inkscape:cy="106.62629"
     inkscape:window-width="1920"
     inkscape:window-height="1017"
     inkscape:window-x="1272"
     inkscape:window-y="-8"
     inkscape:window-maximized="1"
     inkscape:current-layer="layer1" />
  <defs
     id="defs86501">
    <rect
       x="191.01151"
       y="448.74622"
       width="380.71472"
       height="184.47002"
       id="rect89323" />
    <rect
       x="-53.640217"
       y="416.03876"
       width="682.93158"
       height="278.66748"
       id="rect87645" />
  </defs>
  <g
     inkscape:label="Layer 1"
     inkscape:groupmode="layer"
     id="layer1"
     transform="translate(-50.538516,-120.56377)">
    <text
       xml:space="preserve"
       transform="scale(0.26458333)"
       id="text87643"
       style="font-style:normal;font-weight:normal;font-size:40px;line-height:1.25;font-family:sans-serif;white-space:pre;shape-inside:url(#rect87645);fill:#000000;fill-opacity:1;stroke:none" />
    <g
       aria-label="TONIGHT:"
       transform="matrix(0.48980353,0,0,0.80851779,-43.019698,-247.85683)"
       id="text89321"
       style="font-size:40px;line-height:1.25;font-family:Calvin;-inkscape-font-specification:'Calvin, Normal';white-space:pre;shape-inside:url(#rect89323);fill-opacity:0.60373">
      <path
         d="m 191.01172,458.70075 q 0.12,-0.56 0.32,-0.96 0.24,-0.44 0.6,-0.8 0.44,-0.32 0.96,-0.36 l 2.08,0.44 q 8.04,1.6 13.24,1.6 4.72,0 9.16,-1.28 l 0.16,0.08 0.16,0.04 0.16,0.08 0.16,0.08 0.12,0.28 0.08,0.28 0.12,0.44 0.12,0.4 -0.32,0.44 -0.52,0.2 -0.48,0.24 -1.88,0.64 h -1.96 l -1,0.16 -0.88,0.12 q -2.16,0.28 -2.96,0.36 -0.76,0.08 -1.84,0.08 l -0.76,0.04 -0.6,0.04 q -0.92,4.28 -1.28,6.84 -0.36,2.52 -0.72,5.16 -0.32,2.64 -0.32,3.72 0,0.72 0.04,1.08 0,0.76 0.12,1.44 0.12,0.64 0.36,1.36 l 0.08,0.24 0.12,0.28 0.32,0.28 0.32,0.28 0.28,0.24 0.28,0.24 0.12,0.6 v 0.24 0.24 l -0.32,0.44 -0.32,0.48 -0.32,0.44 -0.32,0.48 q -0.96,0 -1.68,-0.2 l -0.56,-0.76 q -1.8,-2.68 -1.8,-4.72 0,-1.04 0.24,-2.8 l 0.44,-3.52 0.08,-0.48 q 0.44,-3.12 0.96,-5.88 0.56,-2.8 1.32,-5.64 l -0.92,-0.08 -0.8,-0.08 -1.92,-0.24 q -2.64,-0.36 -4.24,-0.64 -1.56,-0.32 -2.52,-0.6 l -0.32,-0.08 -0.48,-0.2 -0.16,-0.2 -0.12,-0.2 -0.08,-0.2 z"
         id="path99260" />
      <path
         d="m 232.89168,464.34075 -0.08,1.08 -1.16,0.84 q -2.96,2.12 -4.8,4.12 -1.8,1.96 -3,4.32 -0.72,1.4 -0.72,2.84 0,2.28 1.76,3.96 1.92,1.84 5.32,2.32 0.92,0.12 1.8,0.12 0.88,0 1.96,-0.2 3,-0.52 5,-2.24 2.04,-1.76 3,-4.56 0.68,-2.12 0.68,-3.88 0,-3.08 -2.08,-5.6 -2.08,-2.52 -6.56,-4.76 -0.64,-0.32 -1.68,-0.76 -1,-0.48 -1.76,-0.72 l -0.44,-0.64 v -1.44 l 0.36,-0.36 q 0.6,-0.48 1.36,-0.8 l 2.56,1 0.56,0.72 1.16,0.6 q 4.88,2.6 7.2,5.64 2.36,3.04 2.36,6.8 0,2.32 -0.92,5.2 -1.28,3.84 -4.64,6.08 -3.36,2.2 -8.32,2.2 -1.88,0 -4,-0.36 -3.72,-0.72 -5.84,-2.96 -2.12,-2.24 -2.12,-5.28 0,-2.44 1.36,-4.88 1.72,-3.16 5.4,-6.28 l 1.88,-1.52 0.48,-0.32 1.36,-0.92 q 0.68,-0.48 1.08,-0.48 0.2,0 0.56,0.12 l 0.28,0.12 z"
         id="path99262" />
      <path
         d="m 249.09161,483.66075 1.32,-5.96 q 0.92,-4.24 1.32,-5.32 0.44,-1.08 1.24,-1.08 0.36,0 0.56,0.16 l 0.12,0.28 0.16,0.32 0.4,0.72 -0.32,2.28 q -0.44,2.76 -0.84,4.76 -0.36,1.96 -0.52,2.88 l -0.2,1.92 -1.52,0.8 -0.24,-0.04 q -0.92,-0.24 -1.24,-0.52 -0.28,-0.24 -0.28,-0.84 v -0.2 z m 1.6,-21.24 0.2,-0.16 q 0.88,-0.72 1.56,-0.72 0.48,0 0.96,0.36 l 0.2,0.2 0.28,0.64 0.16,0.44 0.24,0.64 0.92,2.6 1.32,3.12 q 0.76,1.8 1.28,2.96 0.56,1.16 0.92,1.84 1.44,2.76 2.28,4.2 0.72,1.28 1.16,1.84 1,1.28 1.6,1.8 1.04,0.92 2.16,0.92 1.96,0 3.16,-2.56 1,-2.08 1.92,-5.56 0.32,-1.16 0.56,-2.4 0.28,-1.24 0.44,-2.52 0.32,-2 0.44,-3.4 0.12,-1.4 0.12,-2.88 0,-2.12 -0.36,-3.4 -0.36,-1.32 -1.2,-2.64 l -0.12,-0.24 -0.16,-0.2 0.52,-1.04 1.04,-0.56 q 0.68,-0.08 1.12,0.08 l 1.36,1.12 0.24,0.76 q 0.44,1.48 0.68,3 0.24,1.48 0.24,3.2 0,1.48 -0.2,3.28 -0.2,1.76 -0.6,4.28 -0.24,1.28 -0.56,2.52 -0.32,1.24 -0.72,2.48 -1.16,3.32 -2.2,5.04 -1.2,2.04 -2.8,3.16 -1.56,1.08 -3.24,1.08 -1.56,0 -3.04,-0.84 -1.44,-0.84 -2.76,-2.6 -1.16,-1.56 -2.04,-3.04 -0.88,-1.48 -2.12,-4.2 l -1.08,-2.32 -0.6,-1.32 -1.28,-2.96 q -1.04,-2.48 -1.24,-3.04 -0.52,-1.4 -0.76,-2.96 z"
         id="path99264" />
      <path
         d="m 281.4516,461.82075 0.08,-0.28 0.52,-0.28 0.48,-0.28 0.52,-0.28 0.48,-0.24 0.6,0.04 0.64,1.36 -0.04,1.36 -0.12,2.64 -0.12,2.16 -0.32,5.12 -0.28,4.64 -0.08,2.52 -0.04,0.2 -0.04,0.28 0.44,0.48 0.4,0.52 0.36,0.48 0.36,0.48 0.16,0.64 q -0.24,0.28 -0.64,0.72 -0.4,0.4 -0.76,0.64 l -0.6,0.36 h -1.2 l -0.16,-0.32 -0.32,-0.6 q -0.56,-1.04 -0.8,-1.8 -0.24,-0.76 -0.24,-1.48 0,-0.52 0.04,-0.84 l 0.2,-1.72 0.08,-0.6 q 0.16,-1.28 0.28,-2.52 0.16,-1.24 0.16,-2.16 0,-2.24 0.08,-5.08 0.12,-2.84 0.12,-2.92 0,-0.48 0,-0.96 -0.08,-0.64 -0.08,-0.92 l -0.08,-0.56 z"
         id="path99266" />
      <path
         d="m 318.17157,458.42075 -0.08,1.64 -1.08,1.52 -0.4,0.44 -0.24,0.16 -0.28,0.2 -0.2,0.08 -0.2,0.12 -1.44,-0.8 -0.04,-0.32 0.08,-0.24 q 0.16,-0.76 -0.36,-1.12 -0.48,-0.4 -2.04,-0.68 -0.8,-0.12 -1.64,-0.12 -2.76,0 -5.64,1.44 -2.84,1.4 -5.8,4.44 -1.64,1.72 -2.96,3.68 -1.48,2.16 -2.32,4.12 -0.8,1.96 -1.12,3.76 -0.28,1.76 -0.28,2.64 0,0.56 0.12,1 0.56,2.88 3,2.88 1.36,0 3.36,-1.16 1.12,-0.64 2.08,-1.36 0.96,-0.72 2.88,-2.4 l 2.28,-2 0.52,-0.44 1.56,-1.28 q 1.88,-1.56 3.24,-1.84 0.56,-0.12 1,-0.12 0.24,0 0.52,0.04 0.08,0 0.56,0.12 l 0.24,0.08 0.24,0.08 0.12,0.16 0.16,0.2 0.16,0.16 0.2,0.16 0.04,0.8 0.12,1.24 q 0.32,2.92 0.88,4.68 0.6,1.72 1.64,3.04 l -0.32,0.84 -0.48,0.48 -0.68,0.4 h -1.24 q -1.04,-0.72 -1.64,-1.68 -0.56,-1 -0.96,-2.96 l -0.68,-3.36 -0.12,-0.68 q -0.6,0.2 -1.04,0.4 -0.44,0.2 -1.2,0.72 l -1.68,1.32 -0.72,0.56 -1.76,1.28 q -2.4,1.76 -3.72,2.56 -1.32,0.76 -2.68,1.28 -1.92,0.72 -3.52,0.72 -2.48,0 -3.92,-1.52 -1.44,-1.52 -1.44,-4.16 0,-2.72 0.92,-5.84 1.08,-3.68 3.28,-7.12 3.2,-5.08 8.08,-8.04 4.64,-2.8 9.24,-2.8 0.52,0 0.88,0 0.4,0 1.24,0.16 2.64,0.4 3.72,0.92 1.08,0.52 1.56,1.52 z"
         id="path99268" />
      <path
         d="m 319.6115,475.86075 0.12,-0.48 0.12,-0.48 0.12,-0.4 0.12,-0.4 0.6,-0.52 0.24,-0.16 0.28,-0.16 0.44,-0.08 0.48,-0.08 0.48,-0.08 0.44,-0.08 0.08,-3.56 v -2.6 -3.84 -1.36 -0.4 l 0.04,-0.72 q 0,-0.44 -0.2,-1.4 l -0.08,-0.36 -0.04,-0.28 0.16,-0.32 0.64,-0.72 0.6,-0.2 0.6,-0.24 0.44,-0.16 0.44,-0.2 1.12,1.92 q -0.48,1.96 -0.8,3.68 -0.28,1.72 -0.28,3.48 v 0.24 l -0.04,5.24 v 0.2 l -0.04,1.2 0.76,-0.12 1.36,-0.16 q 2.64,-0.32 4.84,-0.4 2.24,-0.12 5.04,-0.12 0.84,0 1.28,0 l 0.84,0.04 0.84,0.04 v -2.16 -1.32 l 0.12,-6.12 q 0,-0.6 0,-0.88 0,-0.44 0,-0.6 0,-1.12 -0.08,-1.64 -0.08,-0.52 -0.16,-0.88 l -0.04,-0.16 -0.04,-0.16 0.24,-0.2 0.2,-0.16 0.8,-0.56 1.2,-0.08 h 0.28 0.32 l 0.44,1.04 -0.08,2.88 -0.08,2.36 -0.08,1.6 -0.28,4.8 -0.28,8.76 -0.08,1.44 -0.08,1.76 q -0.04,0.32 0,1.08 0.08,0.76 0.08,1.32 l 0.04,0.48 v 0.32 l -0.12,0.12 -0.16,0.12 q -0.24,0.24 -0.6,0.36 -0.56,0 -1.16,-0.24 l -0.2,-0.08 -0.4,-0.6 0.04,-3.04 0.04,-3 0.04,-2.68 0.04,-2.64 -0.44,0.4 -0.64,0.04 -0.56,0.04 -2.28,0.16 q -3.8,0 -6.64,0.56 -1.12,0.24 -4.32,1.16 v 4 l 0.04,4.6 -0.12,0.4 -0.64,0.32 -0.28,0.16 -0.28,0.2 q -0.44,0 -0.72,-0.32 l -0.16,-0.28 -0.08,-0.16 -0.04,-0.36 -0.12,-0.56 -0.04,-0.12 q -0.04,-0.28 -0.16,-1.44 -0.12,-1.16 -0.12,-2.24 0,-0.84 0,-1.72 0,-0.92 0.04,-1.84 -1,0.28 -1.84,0.84 z"
         id="path99270" />
      <path
         d="m 346.53143,458.70075 q 0.12,-0.56 0.32,-0.96 0.24,-0.44 0.6,-0.8 0.44,-0.32 0.96,-0.36 l 2.08,0.44 q 8.04,1.6 13.24,1.6 4.72,0 9.16,-1.28 l 0.16,0.08 0.16,0.04 0.16,0.08 0.16,0.08 0.12,0.28 0.08,0.28 0.12,0.44 0.12,0.4 -0.32,0.44 -0.52,0.2 -0.48,0.24 -1.88,0.64 h -1.96 l -1,0.16 -0.88,0.12 q -2.16,0.28 -2.96,0.36 -0.76,0.08 -1.84,0.08 l -0.76,0.04 -0.6,0.04 q -0.92,4.28 -1.28,6.84 -0.36,2.52 -0.72,5.16 -0.32,2.64 -0.32,3.72 0,0.72 0.04,1.08 0,0.76 0.12,1.44 0.12,0.64 0.36,1.36 l 0.08,0.24 0.12,0.28 0.32,0.28 0.32,0.28 0.28,0.24 0.28,0.24 0.12,0.6 v 0.24 0.24 l -0.32,0.44 -0.32,0.48 -0.32,0.44 -0.32,0.48 q -0.96,0 -1.68,-0.2 l -0.56,-0.76 q -1.8,-2.68 -1.8,-4.72 0,-1.04 0.24,-2.8 l 0.44,-3.52 0.08,-0.48 q 0.44,-3.12 0.96,-5.88 0.56,-2.8 1.32,-5.64 l -0.92,-0.08 -0.8,-0.08 -1.92,-0.24 q -2.64,-0.36 -4.24,-0.64 -1.56,-0.32 -2.52,-0.6 l -0.32,-0.08 -0.48,-0.2 -0.16,-0.2 -0.12,-0.2 -0.08,-0.2 z"
         id="path99272" />
      <path
         d="m 376.57139,482.30075 q 0,-1.44 0.92,-2.44 0.92,-1 2.36,-1 1.36,0 2.32,0.96 0.96,0.92 0.96,2.28 0,1.28 -0.92,2.2 -0.92,1.04 -2.24,1.04 -1.4,0 -2.4,-0.84 -1,-0.88 -1,-2.2 z m 0,-9.8 q 0,-1.44 0.92,-2.44 0.92,-1 2.36,-1 1.36,0 2.32,0.96 0.96,0.92 0.96,2.28 0,1.24 -0.92,2.24 -0.92,1 -2.24,1 -1.4,0 -2.4,-0.84 -1,-0.88 -1,-2.2 z"
         id="path99274" />
    </g>
  </g>
</svg>
