<?xml version="1.0" encoding="UTF-8" standalone="no"?>
<!-- Created with Inkscape (http://www.inkscape.org/) -->

<svg
   width="279.92703"
   height="253.60638"
   viewBox="0 0 74.064025 67.100024"
   version="1.1"
   id="svg28490"
   inkscape:version="1.1 (c68e22c387, 2021-05-23)"
   sodipodi:docname="hint-water.svg"
   xmlns:inkscape="http://www.inkscape.org/namespaces/inkscape"
   xmlns:sodipodi="http://sodipodi.sourceforge.net/DTD/sodipodi-0.dtd"
   xmlns:xlink="http://www.w3.org/1999/xlink"
   xmlns="http://www.w3.org/2000/svg"
   xmlns:svg="http://www.w3.org/2000/svg">
  <sodipodi:namedview
     id="namedview28492"
     pagecolor="#505050"
     bordercolor="#ffffff"
     borderopacity="1"
     inkscape:pageshadow="0"
     inkscape:pageopacity="0"
     inkscape:pagecheckerboard="1"
     inkscape:document-units="mm"
     showgrid="false"
     units="px"
     fit-margin-top="0"
     fit-margin-left="0"
     fit-margin-right="0"
     fit-margin-bottom="0"
     inkscape:zoom="1.4142136"
     inkscape:cx="65.407377"
     inkscape:cy="97.227182"
     inkscape:window-width="1920"
     inkscape:window-height="1017"
     inkscape:window-x="1272"
     inkscape:window-y="-8"
     inkscape:window-maximized="1"
     inkscape:current-layer="layer1"
     inkscape:snap-global="false" />
  <defs
     id="defs28487">
    <inkscape:path-effect
       effect="spiro"
       id="path-effect31120"
       is_visible="true"
       lpeversion="1" />
    <inkscape:path-effect
       effect="spiro"
       id="path-effect31114"
       is_visible="true"
       lpeversion="1" />
    <inkscape:path-effect
       effect="spiro"
       id="path-effect30170"
       is_visible="true"
       lpeversion="1" />
    <inkscape:path-effect
       effect="spiro"
       id="path-effect28586"
       is_visible="true"
       lpeversion="1" />
  </defs>
  <g
     inkscape:label="Layer 1"
     inkscape:groupmode="layer"
     id="layer1"
     transform="translate(-3.5044816,-28.922278)">
    <path
       style="fill:none;stroke:#000000;stroke-width:0.818447;stroke-linecap:round;stroke-linejoin:miter;stroke-miterlimit:4;stroke-dasharray:none;stroke-opacity:0.202797"
       d="m 22.969231,69.78137 c 1.526474,0.22379 3.136615,-0.192596 4.363231,-1.128339 1.076794,-0.821449 1.846169,-2.002834 2.959146,-2.774551 0.642404,-0.445431 1.396411,-0.743297 2.176578,-0.792608 0.780167,-0.04931 1.584835,0.160395 2.205473,0.635684 0.618645,0.473763 1.02043,1.171034 1.384747,1.859834 0.364317,0.6888 0.71765,1.402378 1.274425,1.947514 0.72092,0.705849 1.756881,1.068242 2.763218,0.9959 1.006338,-0.07234 1.969667,-0.570226 2.634189,-1.329409 0.488492,-0.558076 0.813186,-1.236433 1.168418,-1.887495 0.355233,-0.651063 0.761462,-1.299473 1.359849,-1.737659 0.70088,-0.51324 1.62398,-0.686852 2.47873,-0.531772 0.854751,0.155079 1.638022,0.62282 2.234799,1.254093 0.787651,0.83318 1.254417,1.924891 2.02096,2.777531 0.662065,0.736428 1.541584,1.274918 2.498519,1.529733 0.956936,0.254816 1.987779,0.225021 2.928399,-0.08464"
       id="path30166"
       inkscape:path-effect="#path-effect30170"
       inkscape:original-d="m 22.969231,69.78137 c 1.724658,-0.07665 2.638635,-1.051565 4.363231,-1.128339 1.724596,-0.07677 2.243011,-1.550235 2.959146,-2.774551 0.716133,-1.224312 2.921398,-0.104558 4.382051,-0.156924 1.460653,-0.05237 1.772811,2.538288 2.659172,3.807348 0.886359,1.269056 3.598302,-0.22228 5.397407,-0.333509 1.799103,-0.111238 1.685543,-2.416709 2.528267,-3.625154 0.842724,-1.208438 3.142384,0.481613 4.713529,0.722321 1.571141,0.240715 1.192928,1.365218 2.02096,2.777531 0.828039,1.412311 3.733785,1.711961 5.426918,1.445093"
       sodipodi:nodetypes="csscsssssc" />
    <path
       style="fill:none;stroke:#000000;stroke-width:0.818447;stroke-linecap:round;stroke-linejoin:miter;stroke-miterlimit:4;stroke-dasharray:none;stroke-opacity:0.300699"
       d="m 22.755309,68.993167 c 1.526474,0.223789 3.136615,-0.192596 4.363232,-1.12834 1.076794,-0.821449 1.846169,-2.002833 2.959145,-2.77455 0.642404,-0.445431 1.396411,-0.743297 2.176578,-0.792609 0.780167,-0.04931 1.584835,0.160395 2.205474,0.635684 0.618645,0.473763 1.02043,1.171034 1.384746,1.859834 0.364317,0.6888 0.71765,1.402378 1.274425,1.947514 0.72092,0.705849 1.756881,1.068243 2.763219,0.995901 1.006337,-0.07234 1.969666,-0.570227 2.634189,-1.32941 0.488491,-0.558076 0.813185,-1.236432 1.168418,-1.887494 0.355233,-0.651063 0.761463,-1.299473 1.359849,-1.737658 0.70088,-0.513239 1.623979,-0.686852 2.47873,-0.531772 0.85475,0.155079 1.638021,0.62282 2.234798,1.254092 0.787652,0.83318 1.254418,1.924891 2.020961,2.777531 0.662065,0.736428 1.541584,1.274918 2.498519,1.529733 0.956936,0.254815 1.987779,0.225021 2.928399,-0.08464"
       id="path28584"
       inkscape:path-effect="#path-effect28586"
       inkscape:original-d="m 22.755309,68.993167 c 1.724659,-0.07665 2.638635,-1.051564 4.363232,-1.12834 1.724595,-0.07677 2.24301,-1.550235 2.959145,-2.77455 0.716134,-1.224312 2.921399,-0.104558 4.382052,-0.156925 1.460652,-0.05237 1.772811,2.538289 2.659171,3.807348 0.886359,1.269057 3.598302,-0.222279 5.397408,-0.333509 1.799103,-0.111237 1.685543,-2.416708 2.528267,-3.625152 0.842723,-1.208439 3.142384,0.481611 4.713528,0.72232 1.571142,0.240715 1.192928,1.365218 2.020961,2.777531 0.828039,1.41231 3.733784,1.711961 5.426918,1.445093"
       sodipodi:nodetypes="csscsssssc" />
    <use
       x="0"
       y="0"
       xlink:href="#path28584"
       id="use28704"
       transform="translate(-0.30658403,5.4532583)"
       width="100%"
       height="100%"
       style="stroke-width:1.2;stroke-miterlimit:4;stroke-dasharray:none" />
    <path
       id="path28728"
       style="fill:#000000;fill-opacity:0.198135;stroke:#000000;stroke-width:0.920075;stroke-linecap:round;stroke-linejoin:round;stroke-miterlimit:4;stroke-dasharray:none;stroke-opacity:0.296037;paint-order:stroke fill markers"
       d="m 44.90886,53.340905 c 0.132197,2.450296 -2.275139,4.443418 -5.081667,4.443418 -2.806527,0 -5.034034,-1.989872 -5.081666,-4.443418 -0.07419,-3.821237 1.403558,-2.754996 5.155851,-11.3554 2.824643,8.714068 4.784927,7.230339 5.007482,11.3554 z"
       sodipodi:nodetypes="ssscs" />
    <path
       style="fill:none;stroke:#010101;stroke-width:0.818447;stroke-linecap:round;stroke-linejoin:miter;stroke-miterlimit:4;stroke-dasharray:none;stroke-opacity:0"
       d="m 22.564533,69.057177 c 1.526473,0.223789 3.136614,-0.192596 4.36323,-1.128339 1.076794,-0.821449 1.84617,-2.002834 2.959146,-2.774551 0.642404,-0.445431 1.396412,-0.743297 2.176579,-0.792609 0.780167,-0.04931 1.584835,0.160395 2.205474,0.635685 0.618645,0.473763 1.020429,1.171034 1.384746,1.859834 0.364316,0.6888 0.717649,1.402378 1.274424,1.947514 0.72092,0.705849 1.756881,1.068242 2.763219,0.9959 1.006338,-0.07234 1.969666,-0.570227 2.634189,-1.32941 0.488491,-0.558076 0.813185,-1.236432 1.168418,-1.887494 0.355233,-0.651063 0.761463,-1.299472 1.359849,-1.737658 0.70088,-0.51324 1.62398,-0.686852 2.47873,-0.531773 0.854751,0.15508 1.638022,0.62282 2.234799,1.254093 0.787651,0.83318 1.254417,1.924891 2.02096,2.777531 0.662065,0.736428 1.541584,1.274918 2.498519,1.529734 0.956936,0.254815 1.987779,0.22502 2.928399,-0.08464"
       id="path31110"
       inkscape:path-effect="#path-effect31114"
       inkscape:original-d="m 22.564533,69.057177 c 1.724658,-0.07665 2.638635,-1.051565 4.36323,-1.128339 1.724597,-0.07677 2.243012,-1.550235 2.959146,-2.774551 0.716135,-1.224312 2.921398,-0.104558 4.382053,-0.156924 1.460652,-0.05237 1.772811,2.538288 2.65917,3.807348 0.88636,1.269055 3.598303,-0.22228 5.397408,-0.33351 1.799103,-0.111237 1.685543,-2.416708 2.528267,-3.625152 0.842723,-1.20844 3.142384,0.481612 4.713529,0.72232 1.571142,0.240715 1.192927,1.365218 2.02096,2.777531 0.828039,1.412311 3.733785,1.711961 5.426918,1.445093"
       sodipodi:nodetypes="csscsssssc" />
    <path
       style="fill:none;stroke:#000000;stroke-width:0.818447;stroke-linecap:round;stroke-linejoin:miter;stroke-miterlimit:4;stroke-dasharray:none;stroke-opacity:0.202797"
       d="m 22.699432,75.031778 c 1.526474,0.223789 3.136615,-0.192597 4.363232,-1.12834 1.076794,-0.821449 1.84617,-2.002833 2.959146,-2.77455 0.642404,-0.445431 1.396411,-0.743297 2.176578,-0.792609 0.780166,-0.04931 1.584835,0.160395 2.205473,0.635684 0.618645,0.473762 1.02043,1.171034 1.384747,1.859834 0.364317,0.6888 0.717649,1.402378 1.274425,1.947514 0.72092,0.705849 1.756881,1.068242 2.763218,0.9959 1.006337,-0.07234 1.969665,-0.570227 2.634188,-1.329409 0.488492,-0.558076 0.813186,-1.236432 1.168419,-1.887494 0.355233,-0.651063 0.761462,-1.299473 1.359849,-1.737658 0.70088,-0.513239 1.623979,-0.686852 2.47873,-0.531772 0.85475,0.155079 1.638021,0.62282 2.234798,1.254092 0.787652,0.83318 1.254418,1.924891 2.020961,2.777531 0.662065,0.736428 1.541584,1.274918 2.498519,1.529733 0.956936,0.254815 1.987779,0.225021 2.928399,-0.08464"
       id="path31116"
       inkscape:path-effect="#path-effect31120"
       inkscape:original-d="m 22.699432,75.031778 c 1.724659,-0.07665 2.638635,-1.051565 4.363232,-1.12834 1.724595,-0.07677 2.243011,-1.550235 2.959146,-2.77455 0.716133,-1.224313 2.921398,-0.104558 4.382051,-0.156925 1.460653,-0.05237 1.772811,2.538289 2.659172,3.807348 0.886358,1.269057 3.598301,-0.22228 5.397406,-0.333509 1.799104,-0.111237 1.685544,-2.416709 2.528268,-3.625152 0.842723,-1.208439 3.142384,0.481611 4.713528,0.72232 1.571142,0.240715 1.192928,1.365218 2.020961,2.777531 0.828039,1.41231 3.733785,1.711961 5.426918,1.445093"
       sodipodi:nodetypes="csscsssssc" />
    <ellipse
       style="fill:none;fill-opacity:0.198135;stroke:#000000;stroke-width:1.29284;stroke-linecap:round;stroke-linejoin:round;stroke-miterlimit:4;stroke-dasharray:none;stroke-opacity:0.30303;paint-order:stroke fill markers"
       id="path40931"
       cx="39.802608"
       cy="61.665691"
       rx="26.659218"
       ry="26.65345" />
    <ellipse
       style="fill:none;fill-opacity:0.198135;stroke:#000000;stroke-width:1.29284;stroke-linecap:round;stroke-linejoin:round;stroke-miterlimit:4;stroke-dasharray:none;stroke-opacity:0.202797;paint-order:stroke fill markers"
       id="ellipse41553"
       cx="40.342205"
       cy="62.661453"
       rx="26.659218"
       ry="26.65345" />
    <g
       id="g46080"
       transform="matrix(0.82700248,-0.12425878,0.11579312,0.78082656,-9.988957,8.0132795)">
      <path
         style="fill:none;stroke:#000000;stroke-width:1.051;stroke-linecap:butt;stroke-linejoin:miter;stroke-miterlimit:4;stroke-dasharray:none;stroke-opacity:0.296037"
         d="M 28.735652,50.54916 C 22.082514,40.899508 8.959354,42.593183 12.959453,36.783561 c 4.000099,-5.809622 8.774009,3.150906 9.965182,2.855509 -3.17713,-1.674358 -4.258673,-6.134986 -1.626969,-7.606485 2.631705,-1.4715 7.047632,-1.862504 7.263253,6.621827 0.07549,2.970569 0.597018,7.287975 2.818246,9.497699"
         id="path42988"
         sodipodi:nodetypes="czczsc" />
      <path
         style="fill:#000000;fill-opacity:0.13986;stroke:#000000;stroke-width:1.151;stroke-linecap:butt;stroke-linejoin:miter;stroke-miterlimit:4;stroke-dasharray:none;stroke-opacity:0.200466"
         d="M 27.987298,50.783021 C 21.33416,41.133369 8.2109993,42.827044 12.211099,37.017422 c 4.000099,-5.809622 8.774009,3.150906 9.965182,2.855509 -3.17713,-1.674358 -4.258673,-6.134986 -1.626969,-7.606485 2.631705,-1.4715 7.047632,-1.862504 7.263253,6.621827 0.07549,2.970569 0.597018,7.287975 2.818246,9.497699"
         id="path45392"
         sodipodi:nodetypes="czczsc" />
    </g>
    <g
       id="g46086"
       transform="matrix(-0.82535707,-0.13488841,-0.12569857,0.77927305,91.425737,10.733129)">
      <path
         style="fill:none;stroke:#000000;stroke-width:1.051;stroke-linecap:butt;stroke-linejoin:miter;stroke-miterlimit:4;stroke-dasharray:none;stroke-opacity:0.296037"
         d="M 28.735652,50.54916 C 22.082514,40.899508 8.959354,42.593183 12.959453,36.783561 c 4.000099,-5.809622 8.774009,3.150906 9.965182,2.855509 -3.17713,-1.674358 -4.258673,-6.134986 -1.626969,-7.606485 2.631705,-1.4715 7.047632,-1.862504 7.263253,6.621827 0.07549,2.970569 0.597018,7.287975 2.818246,9.497699"
         id="path46082"
         sodipodi:nodetypes="czczsc" />
      <path
         style="fill:#000000;fill-opacity:0.13986;stroke:#000000;stroke-width:1.151;stroke-linecap:butt;stroke-linejoin:miter;stroke-miterlimit:4;stroke-dasharray:none;stroke-opacity:0.200466"
         d="M 27.987298,50.783021 C 21.33416,41.133369 8.2109993,42.827044 12.211099,37.017422 c 4.000099,-5.809622 8.774009,3.150906 9.965182,2.855509 -3.17713,-1.674358 -4.258673,-6.134986 -1.626969,-7.606485 2.631705,-1.4715 7.047632,-1.862504 7.263253,6.621827 0.07549,2.970569 0.597018,7.287975 2.818246,9.497699"
         id="path46084"
         sodipodi:nodetypes="czczsc" />
    </g>
    <g
       id="g46092"
       transform="matrix(-0.82369221,0.14520341,-0.13499499,-0.77763519,90.49554,114.77257)">
      <path
         style="fill:none;stroke:#000000;stroke-width:1.051;stroke-linecap:butt;stroke-linejoin:miter;stroke-miterlimit:4;stroke-dasharray:none;stroke-opacity:0.296037"
         d="M 28.735652,50.54916 C 22.082514,40.899508 8.959354,42.593183 12.959453,36.783561 c 4.000099,-5.809622 8.774009,3.150906 9.965182,2.855509 -3.17713,-1.674358 -4.258673,-6.134986 -1.626969,-7.606485 2.631705,-1.4715 7.047632,-1.862504 7.263253,6.621827 0.07549,2.970569 0.597018,7.287975 2.818246,9.497699"
         id="path46088"
         sodipodi:nodetypes="czczsc" />
      <path
         style="fill:#000000;fill-opacity:0.13986;stroke:#000000;stroke-width:1.151;stroke-linecap:butt;stroke-linejoin:miter;stroke-miterlimit:4;stroke-dasharray:none;stroke-opacity:0.200466"
         d="M 27.987298,50.783021 C 21.33416,41.133369 8.2109993,42.827044 12.211099,37.017422 c 4.000099,-5.809622 8.774009,3.150906 9.965182,2.855509 -3.17713,-1.674358 -4.258673,-6.134986 -1.626969,-7.606485 2.631705,-1.4715 7.047632,-1.862504 7.263253,6.621827 0.07549,2.970569 0.597018,7.287975 2.818246,9.497699"
         id="path46090"
         sodipodi:nodetypes="czczsc" />
    </g>
    <g
       id="g46098"
       transform="matrix(0.98378679,0.14186085,0.13774535,-0.89143579,-10.602593,129.41745)">
      <path
         style="fill:none;stroke:#000000;stroke-width:0.901857;stroke-linecap:butt;stroke-linejoin:miter;stroke-miterlimit:4;stroke-dasharray:none;stroke-opacity:0.296037"
         d="M 24.259872,58.129347 C 18.708554,49.720992 7.6585289,51.275303 11.052295,46.169033 c 3.393767,-5.106271 7.367231,2.70932 8.370913,2.444259 -2.665148,-1.447863 -3.5536,-5.345645 -1.33217,-6.647885 2.221431,-1.302242 5.938886,-1.668687 6.079304,5.755199 0.04916,2.599282 0.467107,6.374799 2.32537,8.296439"
         id="path46094"
         sodipodi:nodetypes="czczsc" />
      <path
         style="fill:#000000;fill-opacity:0.13986;stroke:#000000;stroke-width:0.987667;stroke-linecap:butt;stroke-linejoin:miter;stroke-miterlimit:4;stroke-dasharray:none;stroke-opacity:0.200466"
         d="M 23.629076,58.338122 C 18.077758,49.929767 7.0277322,51.484077 10.421499,46.377807 c 3.393766,-5.10627 7.367231,2.70932 8.370913,2.44426 -2.665148,-1.447863 -3.5536,-5.345645 -1.33217,-6.647885 2.221431,-1.302242 5.938886,-1.668687 6.079303,5.755199 0.04916,2.599282 0.467108,6.374799 2.325371,8.296439"
         id="path46096"
         sodipodi:nodetypes="czczsc" />
    </g>
  </g>
</svg>
