<?xml version="1.0" encoding="UTF-8" standalone="no"?>
<!-- Created with Inkscape (http://www.inkscape.org/) -->

<svg
   width="41.556599mm"
   height="66mm"
   viewBox="0 0 41.556599 66"
   version="1.1"
   id="svg50527"
   inkscape:version="1.1 (c68e22c387, 2021-05-23)"
   sodipodi:docname="hint-keyhole-2.svg"
   xmlns:inkscape="http://www.inkscape.org/namespaces/inkscape"
   xmlns:sodipodi="http://sodipodi.sourceforge.net/DTD/sodipodi-0.dtd"
   xmlns:xlink="http://www.w3.org/1999/xlink"
   xmlns="http://www.w3.org/2000/svg"
   xmlns:svg="http://www.w3.org/2000/svg">
  <sodipodi:namedview
     id="namedview50529"
     pagecolor="#505050"
     bordercolor="#ffffff"
     borderopacity="1"
     inkscape:pageshadow="0"
     inkscape:pageopacity="0"
     inkscape:pagecheckerboard="1"
     inkscape:document-units="mm"
     showgrid="false"
     inkscape:snap-global="false"
     fit-margin-top="0"
     fit-margin-left="0"
     fit-margin-right="0"
     fit-margin-bottom="0"
     inkscape:zoom="2.1619135"
     inkscape:cx="-16.883192"
     inkscape:cy="111.24404"
     inkscape:window-width="1920"
     inkscape:window-height="1017"
     inkscape:window-x="1272"
     inkscape:window-y="-8"
     inkscape:window-maximized="1"
     inkscape:current-layer="layer1" />
  <defs
     id="defs50524" />
  <g
     inkscape:label="Layer 1"
     inkscape:groupmode="layer"
     id="layer1"
     transform="translate(-40.603841,-69.355349)">
    <path
       style="fill:none;stroke:#000000;stroke-width:0.906015;stroke-linecap:butt;stroke-linejoin:miter;stroke-miterlimit:4;stroke-dasharray:none;stroke-opacity:0.298039"
       d="m 40.869939,119.25538 c 11.041713,-2.76536 12.932077,0.40874 13.335138,7.49532 0.587758,10.33392 14.698635,8.37257 14.934249,-0.4912 0.269181,-10.12659 12.4048,-7.36756 12.4048,-7.36756"
       id="path50633"
       sodipodi:nodetypes="cssc" />
    <path
       id="path51607"
       style="fill:#000000;fill-opacity:0.298039;stroke-width:0.354622;stroke-linecap:round;stroke-linejoin:round"
       d="m 64.400237,116.11812 0.16215,-0.38506 c 0,0 -2.435902,-2.24569 -3.40463,-2.4217 -0.222697,-0.0405 -0.308404,0.16309 -0.162148,0.38506 0.636232,0.9656 3.404628,2.4217 3.404628,2.4217 z"
       sodipodi:nodetypes="ccaac" />
    <path
       id="path51609"
       style="fill:#000000;fill-opacity:0.298039;stroke-width:0.354622;stroke-linecap:round;stroke-linejoin:round"
       d="m 64.849715,115.71852 0.332851,-0.26491 c 0,0 -0.782443,-3.28928 -1.470255,-3.9483 -0.158085,-0.15155 -0.334066,-0.0115 -0.332824,0.2649 0.0053,1.20222 1.470243,3.94832 1.470243,3.94832 z"
       sodipodi:nodetypes="ccaac" />
    <path
       id="path51611"
       style="fill:#000000;fill-opacity:0.298039;stroke-width:0.0955104;stroke-linejoin:bevel"
       d="m 63.402326,118.03212 c 0.903566,0.83794 -6.478288,5.61019 -9.221882,8.87208 -2.716632,3.22986 -4.248387,3.76197 -5.151948,2.92403 -0.903565,-0.83796 0.565088,-4.70998 3.852369,-6.94055 3.370336,-2.28693 9.617904,-5.69351 10.521467,-4.85556 z"
       sodipodi:nodetypes="sssss"
       inkscape:transform-center-x="20.058482"
       inkscape:transform-center-y="-9.062828" />
    <g
       id="g51619"
       transform="matrix(-0.08507876,-0.31918274,0.38236104,-0.06399925,16.515049,160.77143)"
       inkscape:transform-center-x="-7.2284789"
       inkscape:transform-center-y="7.4527504"
       style="fill:#000000;fill-opacity:0.298039">
      <path
         id="path51613"
         style="fill:#000000;fill-opacity:0.298039;stroke-width:0.183859;stroke-linejoin:bevel"
         d="m 76.012201,134.47984 c -1.031201,-0.72282 -1.999098,-0.39848 -2.313027,1.10784 0.24106,2.72368 2.053139,8.89418 2.673981,10.35843 1.06601,0.50272 2.782239,0.2413 3.902782,-0.95284 0.0083,-1.57444 -2.687583,-8.62821 -4.263736,-10.51343 z"
         sodipodi:nodetypes="ccccc" />
      <path
         id="path51615"
         style="fill:#000000;fill-opacity:0.298039;stroke-width:0.134814;stroke-linejoin:bevel"
         d="m 76.116231,152.67315 c 0.383679,0.87819 1.121128,1.11705 1.887526,0.37656 0.871586,-1.69669 2.041243,-6.10062 2.197463,-7.23009 -0.488626,-0.7651 -1.678207,-1.37176 -2.839994,-1.17039 -0.597727,0.91544 -1.537776,6.22604 -1.244995,8.02392 z"
         sodipodi:nodetypes="ccccc" />
      <path
         id="path51617"
         style="fill:#000000;fill-opacity:0.298039;stroke-width:0.061786;stroke-linejoin:bevel"
         d="m 77.954442,158.0264 c 0.293437,0.21911 0.524822,-0.006 0.538324,-0.68112 -0.180804,-1.14886 -0.911685,-3.63933 -1.133553,-4.2134 -0.292611,-0.12143 -0.716658,0.1431 -0.948574,0.75554 0.06703,0.67721 1.06101,3.46878 1.543803,4.13898 z"
         sodipodi:nodetypes="ccccc" />
    </g>
    <g
       id="g51631"
       transform="matrix(0.09489337,0.24818751,0.2755108,-0.08205726,20.804459,114.37739)"
       inkscape:transform-center-x="-2.3288859"
       inkscape:transform-center-y="3.3020355"
       style="fill:#000000;fill-opacity:0.298039">
      <g
         id="g51627"
         transform="translate(2.9423077,-12.115385)"
         style="fill:#000000;fill-opacity:0.298039">
        <path
           id="path51621"
           style="fill:#000000;fill-opacity:0.298039;stroke-width:0.167231;stroke-linejoin:bevel"
           d="m 81.839819,151.40775 c -0.728592,0.76184 -1.59969,0.49853 -2.143846,-0.95394 -0.30669,-2.67065 0.05865,-8.79051 0.305151,-10.25322 0.798839,-0.549 2.28487,-0.38814 3.44621,0.71544 0.300959,1.53568 -0.639609,8.56584 -1.607515,10.49172 z"
           sodipodi:nodetypes="ccccc" />
        <path
           id="path51623"
           style="fill:#000000;fill-opacity:0.298039;stroke-width:0.118932;stroke-linejoin:bevel"
           d="m 82.56848,159.69211 c 0.556927,0.53055 1.04703,0.22053 1.160404,-1.00902 -0.213317,-2.18252 -1.351462,-7.06336 -1.720241,-8.21199 -0.567808,-0.35142 -1.447016,-0.0545 -1.987791,0.96406 0.04693,1.26905 1.670985,6.81715 2.547628,8.25695 z"
           sodipodi:nodetypes="ccccc" />
        <path
           id="path51625"
           style="fill:#000000;fill-opacity:0.298039;stroke-width:0.107589;stroke-linejoin:bevel"
           d="m 87.035628,144.09077 c 0.102154,0.62736 -0.424793,0.85756 -1.465919,0.43114 -1.61058,-1.06032 -4.833622,-3.91527 -5.534282,-4.66102 0.04626,-0.56109 0.78579,-1.08146 1.904287,-1.0552 0.980671,0.5601 4.455074,4.04708 5.095914,5.28508 z"
           sodipodi:nodetypes="ccccc" />
      </g>
      <path
         id="path51629"
         style="fill:#000000;fill-opacity:0.298039;stroke-width:0.0435123;stroke-linejoin:bevel"
         d="m 84.765478,149.96654 c 0.132811,0.16366 0.415499,0.0759 0.727924,-0.28983 0.371454,-0.65319 0.910112,-2.12029 0.992277,-2.46653 -0.17584,-0.11032 -0.627619,-0.0302 -1.08385,0.26846 -0.250051,0.37906 -0.716417,2.04991 -0.636351,2.4879 z"
         sodipodi:nodetypes="ccccc"
         inkscape:transform-center-x="-1.9038462"
         inkscape:transform-center-y="-1.125" />
    </g>
    <g
       id="g51641"
       transform="matrix(0.26024008,-0.18410087,0.15800363,0.25110631,20.188105,101.21995)"
       style="fill:#000000;fill-opacity:0.298039"
       inkscape:transform-center-x="2.4162207"
       inkscape:transform-center-y="3.5514452">
      <path
         id="path51633"
         style="fill:#000000;fill-opacity:0.298039;stroke-width:0.0677414;stroke-linejoin:bevel"
         d="m 90.072785,143.47158 c -0.1172,0.4565 0.142525,0.64258 0.743364,0.36426 0.96932,-0.72424 2.98202,-2.71093 3.432004,-3.23452 0.03101,-0.41282 -0.31387,-0.81859 -0.916391,-0.83615 -0.581707,0.3783 -2.792103,2.82001 -3.258977,3.70641 z"
         sodipodi:nodetypes="ccccc" />
      <path
         id="path51635"
         style="fill:#000000;fill-opacity:0.298039;stroke-width:0.107589;stroke-linejoin:bevel"
         d="m 93.069103,140.07664 c 0.317408,-0.5507 0.871242,-0.39598 1.408429,0.59256 0.57775,1.83968 1.270522,6.08925 1.342046,7.11001 -0.390521,0.40553 -1.292501,0.34128 -2.142591,-0.38609 -0.405849,-1.0539 -0.893874,-5.95211 -0.607884,-7.31648 z"
         sodipodi:nodetypes="ccccc" />
      <path
         id="path51637"
         style="fill:#000000;fill-opacity:0.298039;stroke-width:0.0850969;stroke-linejoin:bevel"
         d="m 93.328073,153.7976 c -0.450687,0.46505 -0.848362,0.38387 -0.941918,-0.36581 0.169926,-1.42753 1.085755,-4.77445 1.383106,-5.58567 0.459721,-0.35453 1.17279,-0.37253 1.612492,0.14405 -0.0363,0.81204 -1.34508,4.6937 -2.053668,5.80739 z"
         sodipodi:nodetypes="ccccc" />
      <path
         id="path51639"
         style="fill:#000000;fill-opacity:0.298039;stroke-width:0.0364336;stroke-linejoin:bevel"
         d="m 94.025861,156.10509 c 0.190183,0.0194 0.281417,-0.18475 0.189069,-0.56177 -0.266784,-0.57121 -1.027428,-1.69233 -1.231484,-1.9323 -0.175323,0.0342 -0.364393,0.32662 -0.398775,0.7446 0.135986,0.35038 1.082585,1.54666 1.441186,1.74947 z"
         sodipodi:nodetypes="ccccc" />
    </g>
    <path
       id="path51643"
       style="fill:#000000;fill-opacity:0.137255;stroke-width:0.0617752;stroke-linejoin:bevel"
       d="m 59.521384,128.39625 c 0.258929,-0.0102 0.617712,0.0115 0.589426,0.37414 -0.03001,0.38482 -0.990199,0.9159 -1.294128,3.8028 -0.924445,-0.76575 -0.421402,-3.3678 -0.205365,-3.72257 0.215994,-0.3548 0.663532,-0.44466 0.910068,-0.45437 z"
       sodipodi:nodetypes="scccs" />
    <g
       id="g51655"
       transform="matrix(0.17902204,-0.30576715,0.29273503,0.14880922,11.725421,129.97024)"
       style="fill:#000000;fill-opacity:0.137255">
      <ellipse
         style="fill:#000000;fill-opacity:0.137255;stroke-width:0.276598;stroke-linejoin:bevel"
         id="ellipse51645"
         cx="76.772659"
         cy="123.92308"
         rx="15.650415"
         ry="10.730769" />
      <ellipse
         style="fill:#000000;fill-opacity:0.137255;stroke-width:0.254343;stroke-linejoin:bevel"
         id="ellipse51647"
         cx="78.944977"
         cy="123.98428"
         rx="13.233335"
         ry="10.730769" />
      <ellipse
         style="fill:#000000;fill-opacity:0.137255;stroke-width:0.234454;stroke-linejoin:bevel"
         id="ellipse51649"
         cx="81.178482"
         cy="123.92308"
         rx="11.244596"
         ry="10.730769" />
      <ellipse
         style="fill:#000000;fill-opacity:0.137255;stroke-width:0.211655;stroke-linejoin:bevel"
         id="ellipse51651"
         cx="83.014244"
         cy="123.98428"
         rx="9.1640711"
         ry="10.730769" />
      <ellipse
         style="fill:#000000;fill-opacity:0.137255;stroke-width:0.179123;stroke-linejoin:bevel"
         id="ellipse51653"
         cx="85.859665"
         cy="123.92308"
         rx="6.5634127"
         ry="10.730769" />
    </g>
    <g
       id="g51661"
       transform="matrix(0.17902204,-0.30576715,0.29273503,0.14880922,9.848922,133.9693)"
       style="fill:#000000;fill-opacity:0.137255">
      <ellipse
         style="fill:#000000;fill-opacity:0.137255;stroke-width:0.183264;stroke-linejoin:bevel"
         id="ellipse51657"
         cx="103.69713"
         cy="122.77692"
         rx="7.573081"
         ry="9.7352018" />
      <ellipse
         style="fill:#000000;fill-opacity:0.137255;stroke-width:0.169785;stroke-linejoin:bevel"
         id="ellipse51659"
         cx="105.3187"
         cy="122.58856"
         rx="6.5634127"
         ry="9.6410179" />
    </g>
    <g
       id="g51667"
       transform="matrix(0.17902204,-0.30576715,0.29273503,0.14880922,10.539389,131.99597)"
       style="fill:#000000;fill-opacity:0.298039">
      <ellipse
         style="fill:#000000;fill-opacity:0.298039;stroke-width:0.307943;stroke-linejoin:bevel"
         id="ellipse51663"
         cx="103.8029"
         cy="122.27885"
         rx="6.7932696"
         ry="7.5288458" />
      <ellipse
         style="fill:#000000;fill-opacity:0.298039;stroke-width:0.307943;stroke-linejoin:bevel"
         id="ellipse51665"
         cx="106.13943"
         cy="122.45192"
         rx="6.7932696"
         ry="7.5288458" />
    </g>
    <path
       id="path51669"
       style="fill:#000000;fill-opacity:0.298039;stroke-width:0.0955104;stroke-linejoin:bevel"
       d="m 63.694156,117.17913 c 1.106982,0.56965 -5.025892,6.89673 -6.932432,10.65492 -1.887801,3.72128 -3.275156,4.60112 -4.382112,4.03142 -1.106988,-0.56966 -0.618988,-4.5909 2.085676,-7.50807 2.773004,-2.99087 8.121908,-7.74797 9.228868,-7.17827 z"
       sodipodi:nodetypes="sssss"
       inkscape:transform-center-x="22.433446"
       inkscape:transform-center-y="-5.0898739" />
    <ellipse
       style="fill:#000000;fill-opacity:0.298039;stroke-width:0.0262353;stroke-linejoin:bevel"
       id="ellipse51671"
       cx="-120.27136"
       cy="-64.080551"
       rx="1.513418"
       ry="0.9983083"
       transform="matrix(-0.85254831,-0.52264842,0.57531633,-0.817931,0,0)" />
    <ellipse
       style="fill:#000000;fill-opacity:0.298039;stroke-width:0.0251484;stroke-linejoin:bevel"
       id="ellipse51673"
       cx="-123.19289"
       cy="-61.689636"
       rx="1.3707246"
       ry="1.0128028"
       transform="matrix(-0.84227829,-0.53904293,0.61050323,-0.79201377,0,0)" />
    <path
       id="path51675"
       style="fill:#000000;fill-opacity:0.298039;stroke-width:0.04647;stroke-linejoin:bevel"
       d="m 63.691341,117.03312 c 0.129911,-0.92576 1.57575,-2.77962 2.903376,-2.35955 1.074246,0.33989 3.207464,3.3142 2.375736,3.94104 -1.052292,0.74349 -5.489663,0.0743 -5.279112,-1.58149 z"
       sodipodi:nodetypes="cscc" />
    <ellipse
       style="fill:#000000;fill-opacity:0.137255;stroke-width:0.0324086;stroke-linejoin:bevel"
       id="ellipse51677"
       cx="-123.67524"
       cy="-64.778717"
       rx="1.7500923"
       ry="1.3173953"
       transform="matrix(-0.84628823,-0.53272528,0.61475005,-0.78872199,0,0)" />
    <ellipse
       style="fill:#000000;fill-opacity:0.137255;stroke-width:0.0263817;stroke-linejoin:bevel"
       id="ellipse51679"
       cx="-121.54802"
       cy="-59.872131"
       rx="1.4978356"
       ry="1.0199803"
       transform="matrix(-0.8250921,-0.56499825,0.59074845,-0.80685579,0,0)" />
    <path
       id="path51681"
       style="fill:#000000;fill-opacity:0.137255;stroke-width:0.062795;stroke-linejoin:bevel"
       d="m 65.498127,125.25733 c 0.347262,0.18681 0.254448,0.48421 -0.360798,0.75126 -1.148078,0.26738 -3.804804,0.53576 -4.443644,0.54861 -0.256894,-0.22287 -0.223297,-0.71204 0.226045,-1.15603 0.657155,-0.19391 3.721673,-0.33432 4.578394,-0.14384 z"
       sodipodi:nodetypes="ccccc"
       inkscape:transform-center-x="3.0218108"
       inkscape:transform-center-y="-4.7623961" />
    <g
       id="g51689"
       transform="matrix(-0.01675419,-0.33649753,0.34272727,-0.04906271,17.420585,156.29324)"
       inkscape:transform-center-x="5.030381"
       inkscape:transform-center-y="11.822894"
       style="fill:#000000;fill-opacity:0.298039">
      <path
         id="path51683"
         style="fill:#000000;fill-opacity:0.298039;stroke-width:0.238437;stroke-linejoin:bevel"
         d="m 71.866923,127.24052 c 1.58303,0.50072 2.111456,1.76647 0.945098,3.28886 -2.809211,1.91023 -10.269668,4.91898 -12.205271,5.43414 -1.403032,-0.71165 -2.639496,-2.70709 -2.469645,-4.82209 1.496002,-1.25808 10.565089,-4.04694 13.729818,-3.90091 z"
         sodipodi:nodetypes="ccccc" />
      <path
         id="path51685"
         style="fill:#000000;fill-opacity:0.298039;stroke-width:0.195403;stroke-linejoin:bevel"
         d="m 52.587066,140.91283 c -1.428091,0.075 -2.30686,-0.69679 -1.946849,-2.12372 1.509947,-2.16291 6.275401,-6.40982 7.608942,-7.31914 1.363753,0.12781 3.066348,1.23282 3.706838,2.81377 -0.715951,1.32647 -6.826861,5.85913 -9.368931,6.62909 z"
         sodipodi:nodetypes="ccccc" />
      <path
         id="path51687"
         style="fill:#000000;fill-opacity:0.298039;stroke-width:0.080127;stroke-linejoin:bevel"
         d="m 48.047939,144.29152 c -0.464879,0.12609 -0.668889,-0.24107 -0.410426,-1.03847 0.700572,-1.2663 2.652844,-3.86028 3.17116,-4.43441 0.423925,-0.0119 0.858333,0.48719 0.90484,1.30857 -0.362374,0.76406 -2.774208,3.59378 -3.665577,4.16431 z"
         sodipodi:nodetypes="ccccc" />
    </g>
    <g
       id="g51701"
       transform="matrix(0.30144048,-0.19033678,0.16393999,0.28179717,17.025329,104.07925)"
       inkscape:transform-center-x="3.8129553"
       inkscape:transform-center-y="8.6499269"
       style="fill:#000000;fill-opacity:0.298039">
      <g
         id="g51697"
         transform="translate(2.9423077,-12.115385)"
         style="fill:#000000;fill-opacity:0.298039">
        <path
           id="path51691"
           style="fill:#000000;fill-opacity:0.298039;stroke-width:0.167231;stroke-linejoin:bevel"
           d="m 81.839819,151.40775 c -0.728592,0.76184 -1.59969,0.49853 -2.143846,-0.95394 -0.30669,-2.67065 0.05865,-8.79051 0.305151,-10.25322 0.798839,-0.549 2.28487,-0.38814 3.44621,0.71544 0.300959,1.53568 -0.639609,8.56584 -1.607515,10.49172 z"
           sodipodi:nodetypes="ccccc" />
        <path
           id="path51693"
           style="fill:#000000;fill-opacity:0.298039;stroke-width:0.118932;stroke-linejoin:bevel"
           d="m 82.56848,159.69211 c 0.556927,0.53055 1.04703,0.22053 1.160404,-1.00902 -0.213317,-2.18252 -1.351462,-7.06336 -1.720241,-8.21199 -0.567808,-0.35142 -1.447016,-0.0545 -1.987791,0.96406 0.04693,1.26905 1.670985,6.81715 2.547628,8.25695 z"
           sodipodi:nodetypes="ccccc" />
        <path
           id="path51695"
           style="fill:#000000;fill-opacity:0.298039;stroke-width:0.107589;stroke-linejoin:bevel"
           d="m 87.035628,144.09077 c 0.102154,0.62736 -0.424793,0.85756 -1.465919,0.43114 -1.61058,-1.06032 -4.833622,-3.91527 -5.534282,-4.66102 0.04626,-0.56109 0.78579,-1.08146 1.904287,-1.0552 0.980671,0.5601 4.455074,4.04708 5.095914,5.28508 z"
           sodipodi:nodetypes="ccccc" />
      </g>
      <path
         id="path51699"
         style="fill:#000000;fill-opacity:0.298039;stroke-width:0.0435123;stroke-linejoin:bevel"
         d="m 84.765478,149.96654 c 0.132811,0.16366 0.415499,0.0759 0.727924,-0.28983 0.371454,-0.65319 0.910112,-2.12029 0.992277,-2.46653 -0.17584,-0.11032 -0.627619,-0.0302 -1.08385,0.26846 -0.250051,0.37906 -0.716417,2.04991 -0.636351,2.4879 z"
         sodipodi:nodetypes="ccccc"
         inkscape:transform-center-x="-1.9038462"
         inkscape:transform-center-y="-1.125" />
    </g>
    <g
       id="g51711"
       transform="matrix(0.06928435,-0.3746278,0.35911808,-0.0107657,8.9968621,156.86215)"
       style="fill:#000000;fill-opacity:0.298039">
      <path
         id="path51703"
         style="fill:#000000;fill-opacity:0.298039;stroke-width:0.0677414;stroke-linejoin:bevel"
         d="m 90.072785,143.47158 c -0.1172,0.4565 0.142525,0.64258 0.743364,0.36426 0.96932,-0.72424 2.98202,-2.71093 3.432004,-3.23452 0.03101,-0.41282 -0.31387,-0.81859 -0.916391,-0.83615 -0.581707,0.3783 -2.792103,2.82001 -3.258977,3.70641 z"
         sodipodi:nodetypes="ccccc" />
      <path
         id="path51705"
         style="fill:#000000;fill-opacity:0.298039;stroke-width:0.107589;stroke-linejoin:bevel"
         d="m 93.069103,140.07664 c 0.317408,-0.5507 0.871242,-0.39598 1.408429,0.59256 0.57775,1.83968 1.270522,6.08925 1.342046,7.11001 -0.390521,0.40553 -1.292501,0.34128 -2.142591,-0.38609 -0.405849,-1.0539 -0.893874,-5.95211 -0.607884,-7.31648 z"
         sodipodi:nodetypes="ccccc" />
      <path
         id="path51707"
         style="fill:#000000;fill-opacity:0.298039;stroke-width:0.0850969;stroke-linejoin:bevel"
         d="m 93.328073,153.7976 c -0.450687,0.46505 -0.848362,0.38387 -0.941918,-0.36581 0.169926,-1.42753 1.085755,-4.77445 1.383106,-5.58567 0.459721,-0.35453 1.17279,-0.37253 1.612492,0.14405 -0.0363,0.81204 -1.34508,4.6937 -2.053668,5.80739 z"
         sodipodi:nodetypes="ccccc" />
      <path
         id="path51709"
         style="fill:#000000;fill-opacity:0.298039;stroke-width:0.0364336;stroke-linejoin:bevel"
         d="m 94.025861,156.10509 c 0.190183,0.0194 0.281417,-0.18475 0.189069,-0.56177 -0.266784,-0.57121 -1.027428,-1.69233 -1.231484,-1.9323 -0.175323,0.0342 -0.364393,0.32662 -0.398775,0.7446 0.135986,0.35038 1.082585,1.54666 1.441186,1.74947 z"
         sodipodi:nodetypes="ccccc" />
    </g>
    <use
       x="0"
       y="0"
       xlink:href="#path50633"
       id="use53957"
       transform="translate(0.48886928,0.42792365)"
       width="100%"
       height="100%" />
    <use
       x="0"
       y="0"
       xlink:href="#path50633"
       id="use53959"
       transform="translate(-0.14883284,1.0483753)"
       width="100%"
       height="100%" />
    <ellipse
       style="fill:#000000;fill-opacity:0.298039;stroke:none;stroke-width:0.794757;stroke-linecap:round;stroke-linejoin:round;stroke-miterlimit:4;stroke-dasharray:none;stroke-opacity:0.298039;paint-order:stroke fill markers"
       id="path55940"
       cx="67.210846"
       cy="104.63659"
       rx="2.4102485"
       ry="2.1726799" />
    <use
       x="0"
       y="0"
       xlink:href="#path55940"
       id="use57567"
       transform="matrix(1.6888889,0,0,1.7750001,-48.053061,-91.348242)"
       width="100%"
       height="100%" />
    <use
       x="0"
       y="0"
       xlink:href="#path55940"
       id="use57569"
       transform="matrix(4.8444446,0,0,5.3000001,-272.52101,-473.70338)"
       width="100%"
       height="100%" />
    <path
       style="fill:none;stroke:#000000;stroke-width:1.25716;stroke-linecap:round;stroke-linejoin:round;stroke-miterlimit:4;stroke-dasharray:none;stroke-opacity:0.358974"
       d="m 50.010526,76.653332 c 1.771858,-3.239974 8.396574,-2.417594 4.971375,1.611605 -3.425201,4.029198 -1.957915,5.370547 -1.957915,5.370547"
       id="path57604" />
    <use
       x="0"
       y="0"
       xlink:href="#path57604"
       id="use63354"
       transform="translate(0.48204974,0.43453582)"
       width="100%"
       height="100%" />
    <use
       x="0"
       y="0"
       xlink:href="#path55940"
       id="use63356"
       transform="matrix(0.29999997,0,0,0.34999998,33.534155,50.413015)"
       width="100%"
       height="100%" />
    <use
       x="0"
       y="0"
       xlink:href="#path55940"
       id="use63358"
       transform="matrix(0.29999997,0,0,0.34999998,33.855521,50.793233)"
       width="100%"
       height="100%" />
  </g>
</svg>
