<?xml version="1.0" encoding="UTF-8" standalone="no"?>
<!-- Created with Inkscape (http://www.inkscape.org/) -->

<svg
   width="350"
   height="150"
   viewBox="0 0 92.604167 39.687502"
   version="1.1"
   id="svg4791"
   inkscape:version="1.1.1 (3bf5ae0d25, 2021-09-20)"
   sodipodi:docname="hint-bugs-and-beetles-6.svg"
   xmlns:inkscape="http://www.inkscape.org/namespaces/inkscape"
   xmlns:sodipodi="http://sodipodi.sourceforge.net/DTD/sodipodi-0.dtd"
   xmlns:xlink="http://www.w3.org/1999/xlink"
   xmlns="http://www.w3.org/2000/svg"
   xmlns:svg="http://www.w3.org/2000/svg">
  <sodipodi:namedview
     id="namedview4793"
     pagecolor="#505050"
     bordercolor="#ffffff"
     borderopacity="1"
     inkscape:pageshadow="0"
     inkscape:pageopacity="0"
     inkscape:pagecheckerboard="1"
     inkscape:document-units="mm"
     showgrid="false"
     inkscape:snap-global="false"
     fit-margin-top="0"
     fit-margin-left="0"
     fit-margin-right="0"
     fit-margin-bottom="0"
     units="px"
     inkscape:zoom="2.8284271"
     inkscape:cx="303.52559"
     inkscape:cy="123.92046"
     inkscape:window-width="1920"
     inkscape:window-height="1017"
     inkscape:window-x="1272"
     inkscape:window-y="-8"
     inkscape:window-maximized="1"
     inkscape:current-layer="layer1" />
  <defs
     id="defs4788" />
  <g
     inkscape:label="Layer 1"
     inkscape:groupmode="layer"
     id="layer1"
     transform="translate(-163.6041,-347.65353)">
    <path
       style="fill:none;fill-opacity:0.501166;stroke:#000000;stroke-width:0.634057;stroke-linecap:round;stroke-linejoin:round;stroke-miterlimit:4;stroke-dasharray:none;stroke-opacity:0.501166"
       d="m 233.46477,377.78623 c 0,0 -0.64607,-0.4689 -0.23191,-1.83084 -1.72386,-0.8861 -3.04572,-2.40378 -3.04572,-2.40378"
       id="path28866"
       sodipodi:nodetypes="ccc" />
    <path
       style="fill:none;fill-opacity:0.501166;stroke:#000000;stroke-width:0.634057;stroke-linecap:round;stroke-linejoin:round;stroke-miterlimit:4;stroke-dasharray:none;stroke-opacity:0.501166"
       d="m 228.25591,375.85729 c 0,0 0.20904,0.0715 -0.0696,-1.33716 -2.03913,-0.56577 -3.78983,-1.57163 -3.78983,-1.57163"
       id="path28537"
       sodipodi:nodetypes="ccc"
       inkscape:transform-center-x="8.4895729"
       inkscape:transform-center-y="-6.531673" />
    <path
       style="fill:none;fill-opacity:0.501166;stroke:#000000;stroke-width:0.634057;stroke-linecap:round;stroke-linejoin:round;stroke-miterlimit:4;stroke-dasharray:none;stroke-opacity:0.501166"
       d="m 226.9169,376.41692 c 0,0 -1.33125,-0.041 -2.48451,-1.32202 -3.72488,1.25129 -6.44963,0.34483 -6.44963,0.34483"
       id="path28535"
       sodipodi:nodetypes="ccc" />
    <ellipse
       style="fill:#000401;fill-opacity:0.501166;stroke:#000000;stroke-width:0.602715;stroke-linecap:round;stroke-linejoin:round;stroke-miterlimit:4;stroke-dasharray:none;stroke-opacity:0.501166;paint-order:fill markers stroke"
       id="path18617"
       cx="-58.244442"
       cy="415.3894"
       rx="6.8352156"
       ry="2.0118077"
       transform="matrix(-0.99957911,-0.02901033,0.41703328,0.90889122,0,0)" />
    <path
       style="fill:#000401;fill-opacity:0.501166;stroke:#000000;stroke-width:0.462859;stroke-linecap:butt;stroke-linejoin:miter;stroke-miterlimit:4;stroke-dasharray:none;stroke-opacity:0.501166"
       d="m 234.2334,376.78098 c -1.1885,-1.43291 -4.5039,-1.38957 -6.39161,-1.42123 -5.8893,-0.0988 -4.45594,1.48424 -4.51366,2.14234 -0.0624,0.71114 0.82929,2.24983 5.07297,2.61018 2.46568,0.20935 5.2804,0.40206 6.00173,-0.57104 0.87034,-1.17411 0.84574,-1.53627 -0.16943,-2.76022 z"
       id="path16339"
       sodipodi:nodetypes="ssssss" />
    <path
       style="fill:#000401;fill-opacity:0.501166;stroke:#000000;stroke-width:0.462859;stroke-linecap:butt;stroke-linejoin:miter;stroke-miterlimit:4;stroke-dasharray:none;stroke-opacity:0.501166"
       d="m 233.53419,379.22591 c 1.19627,1.32858 2.80623,1.05105 3.747,0.94859 2.93502,-0.31965 1.55428,-1.77895 1.30132,-2.43188 -0.27333,-0.70555 -1.36901,-2.15945 -3.6075,-2.21417 -1.30063,-0.0318 -2.76553,-0.0224 -2.70389,0.98808 0.0744,1.21923 0.24125,1.57456 1.26307,2.70938 z"
       id="path15592"
       sodipodi:nodetypes="ssssss" />
    <path
       style="fill:#000401;fill-opacity:0.501166;stroke:#000000;stroke-width:0.563087;stroke-linecap:butt;stroke-linejoin:miter;stroke-miterlimit:4;stroke-dasharray:none;stroke-opacity:0.501166"
       d="m 238.78105,380.55281 c 6.27329,1.75381 5.53264,2.98667 9.40774,3.63647 5.15598,0.86462 6.73708,-0.66694 7.73338,-1.70873 -3.98508,1.24762 -3.51373,0.8597 -2.35842,-0.90734 -3.24657,2.55392 -5.94388,2.04306 -5.90036,0.19475 -1.23592,0.96588 -4.76623,8e-4 -7.43798,-4.93095 -0.34569,0.64523 -1.0104,1.96626 -1.44436,3.7158 z"
       id="path8634"
       sodipodi:nodetypes="csccccc"
       inkscape:transform-center-x="-6.6280885"
       inkscape:transform-center-y="0.6460147" />
    <path
       style="fill:#000401;fill-opacity:0.501166;stroke:#000000;stroke-width:0.903619;stroke-linecap:round;stroke-linejoin:round;stroke-miterlimit:4;stroke-dasharray:none;stroke-opacity:0.501166"
       d="m 237.54659,374.4518 c 5.8801,-3.4589 5.38806,-4.87425 8.9594,-6.46174 4.75181,-2.11224 5.95667,-0.4843 6.70514,0.63867 -3.40369,-0.79407 -3.03483,-0.39573 -2.24542,1.61449 -2.55702,-2.59433 -5.05111,-1.41517 -5.27159,0.91728 -0.97428,-0.97958 -4.28026,0.9392 -7.37218,7.71274 -0.21985,-0.74904 -0.6313,-2.29112 -0.77532,-4.42147 z"
       id="path4885"
       sodipodi:nodetypes="csccccc"
       inkscape:transform-center-x="-6.2196152"
       inkscape:transform-center-y="-2.0434505" />
    <ellipse
       style="fill:#000401;fill-opacity:0.501166;stroke:#000000;stroke-width:0.59215;stroke-linecap:round;stroke-linejoin:round;stroke-miterlimit:4;stroke-dasharray:none;stroke-opacity:0.501166;paint-order:fill markers stroke"
       id="path18721"
       cx="-420.45407"
       cy="158.3644"
       rx="1.4550525"
       ry="1.3021822"
       transform="matrix(-0.79821322,-0.60237501,-0.605282,0.79601112,0,0)" />
    <path
       style="fill:#000401;fill-opacity:0.501166;stroke:#000000;stroke-width:0.536977;stroke-linecap:butt;stroke-linejoin:miter;stroke-miterlimit:4;stroke-dasharray:none;stroke-opacity:0.501166"
       d="m 238.37278,379.21332 c 0.86822,2.00337 3.13624,0.66954 3.33039,-0.17987 0.41389,-1.81072 -1.5039,-1.4977 -1.85905,-2.41741 -0.38378,-0.99383 0.94479,-2.32046 -1.05955,-2.72756 -1.14772,-0.23309 -2.43057,0.0566 -2.18216,1.9867 0.2484,1.93005 1.41021,2.50713 1.77037,3.33814 z"
       id="path8749"
       sodipodi:nodetypes="ssssss" />
    <ellipse
       style="fill:#000401;fill-opacity:0.501166;stroke:#000000;stroke-width:0.537086;stroke-linecap:round;stroke-linejoin:round;stroke-miterlimit:4;stroke-dasharray:none;stroke-opacity:0.501166;paint-order:fill markers stroke"
       id="path13230"
       cx="-446.90167"
       cy="-39.243973"
       rx="0.31817156"
       ry="0.34998238"
       transform="matrix(-0.45958805,-0.88813221,-0.90086636,0.43409653,0,0)" />
    <path
       style="fill:#000401;fill-opacity:0.501166;stroke:#000000;stroke-width:0.510416;stroke-linecap:butt;stroke-linejoin:miter;stroke-miterlimit:4;stroke-dasharray:none;stroke-opacity:0.501166"
       d="m 232.49136,377.66879 c -3.26425,-0.58695 -5.63488,-0.79487 -9.13348,-0.38006"
       id="path16374"
       sodipodi:nodetypes="cc" />
    <path
       style="fill:none;fill-opacity:0.501166;stroke:#000000;stroke-width:0.634057;stroke-linecap:round;stroke-linejoin:round;stroke-miterlimit:4;stroke-dasharray:none;stroke-opacity:0.501166"
       d="m 234.81189,380.92712 c 0,0 -0.0135,0.58246 1.80779,1.55955 -0.43419,1.25761 0.14679,2.90284 0.14679,2.90284"
       id="path23051"
       sodipodi:nodetypes="ccc" />
    <path
       style="fill:none;fill-opacity:0.501166;stroke:#000000;stroke-width:0.634057;stroke-linecap:round;stroke-linejoin:round;stroke-miterlimit:4;stroke-dasharray:none;stroke-opacity:0.501166"
       d="m 231.70888,380.89193 c 0,0 0.0293,0.77997 1.13276,2.07485 -1.2302,1.01663 -2.09925,3.34319 -2.09925,3.34319"
       id="path26293"
       sodipodi:nodetypes="ccc" />
    <path
       style="fill:none;fill-opacity:0.501166;stroke:#000000;stroke-width:0.634057;stroke-linecap:round;stroke-linejoin:round;stroke-miterlimit:4;stroke-dasharray:none;stroke-opacity:0.501166"
       d="m 227.78292,380.45684 c 0,0 -0.90175,0.54152 -0.10678,1.90287 -4.25173,0.53671 -5.05648,2.23433 -5.05648,2.23433"
       id="path26295"
       sodipodi:nodetypes="ccc" />
    <ellipse
       style="fill:#000401;fill-opacity:0.501166;stroke:#000000;stroke-width:0.655835;stroke-linecap:round;stroke-linejoin:round;stroke-miterlimit:4;stroke-dasharray:none;stroke-opacity:0.501166;paint-order:fill markers stroke"
       id="path38284"
       cx="1081.3595"
       cy="-808.10437"
       rx="0.82104969"
       ry="1.4260894"
       transform="matrix(0.96086644,0.27701205,0.99547335,-0.09504107,0,0)" />
    <ellipse
       style="fill:#000401;fill-opacity:0.501166;stroke:#000000;stroke-width:1.35899;stroke-linecap:round;stroke-linejoin:round;stroke-miterlimit:4;stroke-dasharray:none;stroke-opacity:0.501166;paint-order:fill markers stroke"
       id="ellipse38564"
       cx="-1904.9797"
       cy="1673.8612"
       rx="2.3928232"
       ry="2.1011107"
       transform="matrix(-0.9940032,-0.10935098,-0.99496209,0.10025185,0,0)" />
    <ellipse
       style="fill:#000401;fill-opacity:0.501166;stroke:#000000;stroke-width:1.36524;stroke-linecap:round;stroke-linejoin:round;stroke-miterlimit:4;stroke-dasharray:none;stroke-opacity:0.501166;paint-order:fill markers stroke"
       id="ellipse38668"
       cx="-1860.6511"
       cy="1602.7073"
       rx="2.3726056"
       ry="2.1385553"
       transform="matrix(-0.98384446,-0.17902533,-0.99960668,0.02804422,0,0)" />
    <ellipse
       style="fill:#000401;fill-opacity:0.501166;stroke:#000000;stroke-width:0.408231;stroke-linecap:round;stroke-linejoin:round;stroke-miterlimit:4;stroke-dasharray:none;stroke-opacity:0.501166;paint-order:fill markers stroke"
       id="ellipse38670"
       cx="661.95581"
       cy="-359.89346"
       rx="0.61196679"
       ry="0.74133766"
       transform="matrix(0.89161167,0.45280087,0.97794748,-0.20885098,0,0)" />
    <g
       inkscape:label="Layer 1"
       id="layer1-5"
       transform="matrix(0.02344596,-0.19045977,0.1966867,0.02270369,238.18566,384.18743)"
       style="fill:#000401;fill-opacity:0.501166;stroke-width:2.40075">
      <g
         id="g24156"
         transform="matrix(0.35618069,0.73408962,-0.73408962,0.35618069,94.162087,-89.390232)"
         style="fill:#000401;fill-opacity:0.501166;stroke-width:2.94233">
        <path
           id="path22482"
           style="fill:#000401;fill-opacity:0.501166;stroke-width:7.16209;stroke-linecap:round;stroke-linejoin:round;paint-order:fill markers stroke"
           d="m 144.62988,151.46099 c -0.37785,-0.84266 -2.03556,-0.59589 -3.6349,-0.196 -1.62926,0.40737 -2.5882,0.91156 -2.21168,1.805 0.39255,0.93155 1.44924,0.58716 3.0977,0.32221 1.70907,-0.27468 3.04129,-1.27909 2.74888,-1.93121 z"
           sodipodi:nodetypes="sssss"
           inkscape:transform-center-x="-0.51424519"
           inkscape:transform-center-y="0.16191344" />
        <path
           id="path22488"
           style="fill:#000401;fill-opacity:0.501166;stroke-width:7.16209;stroke-linecap:round;stroke-linejoin:round;paint-order:fill markers stroke"
           d="m 150.80705,153.76772 c 0.1649,-0.68952 -1.52744,-1.41645 -3.25937,-2.02342 -1.76429,-0.61836 -2.96467,-0.82821 -3.16193,-0.10979 -0.20566,0.74904 0.98773,1.10335 2.68263,1.8148 1.75721,0.73759 3.61107,0.85201 3.73867,0.31841 z"
           sodipodi:nodetypes="sssss"
           inkscape:transform-center-x="-6.4186829"
           inkscape:transform-center-y="0.51361632" />
        <path
           id="path22490"
           style="fill:#000401;fill-opacity:0.501166;stroke-width:7.16217;stroke-linecap:round;stroke-linejoin:round;paint-order:fill markers stroke"
           d="m 150.42228,153.60286 c -0.58196,-0.17591 -0.96195,1.04438 -1.23933,2.30351 -0.2826,1.28265 -0.30321,2.17116 0.30634,2.37362 0.63553,0.21109 0.77463,-0.66129 1.14168,-1.88469 0.38055,-1.26837 0.2417,-2.6563 -0.20869,-2.79244 z"
           sodipodi:nodetypes="sssss"
           inkscape:transform-center-x="-8.7504379"
           inkscape:transform-center-y="3.8222974" />
        <path
           id="path22492"
           style="fill:#000401;fill-opacity:0.501166;stroke-width:7.16217;stroke-linecap:round;stroke-linejoin:round;paint-order:fill markers stroke"
           d="m 149.40434,157.77781 c -0.38372,-0.12996 -0.60684,0.72089 -0.76216,1.60011 -0.15824,0.89565 -0.15346,1.51809 0.24881,1.66697 0.41943,0.15522 0.49235,-0.45458 0.70698,-1.30773 0.22251,-0.88452 0.10332,-1.85878 -0.19363,-1.95935 z"
           sodipodi:nodetypes="sssss"
           inkscape:transform-center-x="-7.9574132"
           inkscape:transform-center-y="7.2904274" />
      </g>
      <g
         id="g24162"
         transform="matrix(-0.81563048,0.02234194,0.02234194,0.81563048,72.354381,-48.044884)"
         style="fill:#000401;fill-opacity:0.501166;stroke-width:2.94233">
        <path
           id="path22494"
           style="fill:#000401;fill-opacity:0.501166;stroke-width:7.16209;stroke-linecap:round;stroke-linejoin:round;paint-order:fill markers stroke"
           d="m 47.439605,137.15669 c 0.0439,-1.20698 2.57293,-1.83497 5.10879,-2.24935 2.58327,-0.42214 4.26038,-0.35765 4.2485,0.9087 -0.0124,1.32034 -1.73532,1.49921 -4.26183,2.10056 -2.61939,0.62345 -5.12943,0.17415 -5.09546,-0.75991 z"
           sodipodi:nodetypes="sssss" />
        <path
           id="path22500"
           style="fill:#000401;fill-opacity:0.501166;stroke-width:7.16209;stroke-linecap:round;stroke-linejoin:round;paint-order:fill markers stroke"
           d="m 39.926985,143.31499 c -0.64553,-0.72452 1.35648,-2.52405 3.48635,-4.20364 2.16968,-1.711 3.77083,-2.62558 4.47999,-1.88482 0.7394,0.77234 -0.76609,1.85399 -2.7809,3.63665 -2.08887,1.84819 -4.68588,3.0125 -5.18544,2.45181 z"
           sodipodi:nodetypes="sssss" />
        <path
           id="path22504"
           style="fill:#000401;fill-opacity:0.501166;stroke-width:7.16217;stroke-linecap:round;stroke-linejoin:round;paint-order:fill markers stroke"
           d="m 40.382395,142.90636 c 0.73231,-0.53119 2.00146,0.70217 3.14617,2.03833 1.16611,1.36114 1.72213,2.40124 0.96591,2.97915 -0.78847,0.60255 -1.50525,-0.35272 -2.75768,-1.59686 -1.29846,-1.28989 -1.92112,-3.00954 -1.3544,-3.42062 z"
           sodipodi:nodetypes="sssss" />
        <path
           id="path22506"
           style="fill:#000401;fill-opacity:0.501166;stroke-width:7.16217;stroke-linecap:round;stroke-linejoin:round;paint-order:fill markers stroke"
           d="m 44.319075,147.28235 c 0.47457,-0.36677 1.29937,0.51638 2.04354,1.4707 0.75808,0.97216 1.11997,1.71146 0.62994,2.11091 -0.51093,0.41649 -0.97703,-0.2647 -1.79099,-1.15529 -0.84388,-0.92332 -1.24975,-2.14249 -0.88249,-2.42632 z"
           sodipodi:nodetypes="sssss" />
      </g>
      <g
         id="g24168"
         transform="matrix(-0.75704323,-0.30436461,-0.30436461,0.75704323,109.18237,-32.883918)"
         inkscape:transform-center-x="-3.8311325"
         inkscape:transform-center-y="8.4121192"
         style="fill:#000401;fill-opacity:0.501166;stroke-width:2.94233">
        <path
           id="path22508"
           style="fill:#000401;fill-opacity:0.501166;stroke-width:7.16209;stroke-linecap:round;stroke-linejoin:round;paint-order:fill markers stroke"
           d="m 35.657475,132.21907 c 0.0679,-1.73963 2.64065,-1.96028 5.21618,-1.86906 2.62368,0.0929 4.32045,0.64456 4.28383,2.4791 -0.0382,1.91275 -1.78609,1.70178 -4.35578,1.88444 -2.66416,0.18938 -5.19677,-1.14821 -5.14423,-2.49448 z"
           sodipodi:nodetypes="sssss" />
        <path
           id="path22514"
           style="fill:#000401;fill-opacity:0.501166;stroke-width:7.16209;stroke-linecap:round;stroke-linejoin:round;paint-order:fill markers stroke"
           d="m 27.931565,139.10446 c -0.6395,-1.22776 1.42242,-3.29254 3.61147,-5.14834 2.22998,-1.89049 3.86886,-2.78047 4.57247,-1.51176 0.73361,1.3228 -0.81166,2.48137 -2.88622,4.51816 -2.15082,2.11166 -4.80282,3.09208 -5.29772,2.14194 z"
           sodipodi:nodetypes="sssss" />
        <path
           id="path22518"
           style="fill:#000401;fill-opacity:0.501166;stroke-width:7.16217;stroke-linecap:round;stroke-linejoin:round;paint-order:fill markers stroke"
           d="m 28.400585,138.63581 c 0.75176,-0.57089 2.01277,1.56565 3.1458,3.81739 1.15421,2.29384 1.69696,3.95513 0.92008,4.58728 -0.81,0.65911 -1.51716,-0.92298 -2.76103,-3.07061 -1.2896,-2.22658 -1.88663,-4.89226 -1.30485,-5.33406 z"
           sodipodi:nodetypes="sssss" />
        <path
           id="path22520"
           style="fill:#000401;fill-opacity:0.501166;stroke-width:7.16217;stroke-linecap:round;stroke-linejoin:round;paint-order:fill markers stroke"
           d="m 32.301345,146.06162 c 0.48761,-0.40266 1.30554,1.10428 2.04045,2.69248 0.74865,1.61789 1.10069,2.78963 0.59679,3.2355 -0.52539,0.46488 -0.98407,-0.651 -1.79088,-2.16576 -0.83647,-1.57045 -1.22371,-3.45061 -0.84636,-3.76222 z"
           sodipodi:nodetypes="sssss" />
      </g>
      <g
         id="g28303"
         style="fill:#000401;fill-opacity:0.501166;stroke-width:2.40075">
        <path
           id="path1011"
           style="fill:#000401;fill-opacity:0.501166;stroke-width:5.84383;stroke-linecap:round;stroke-linejoin:round;paint-order:fill markers stroke"
           d="M 50.092308,64.197301 C 28.454972,61.151982 31.515778,75.503451 21.661363,71.585524 17.05725,69.755029 18.899933,61.88228 24.457008,43.452048 29.228083,27.628637 32.598146,13.319151 50.242139,16.195358 83.427882,21.60508 72.638136,67.370485 50.092308,64.197301 Z"
           sodipodi:nodetypes="sssss" />
        <path
           style="fill:#000401;fill-opacity:0.501166;stroke:none;stroke-width:0.197712px;stroke-linecap:butt;stroke-linejoin:miter;stroke-opacity:1"
           d="M 31.531377,67.592383 C 13.050153,62.474558 25.696279,28.412362 34.967122,19.893222 25.246807,41.42277 32.722646,69.289539 58.720225,62.894845 52.585511,66.51567 38.991806,62.875116 31.531377,67.592383 Z"
           id="path129460"
           sodipodi:nodetypes="cccc"
           inkscape:transform-center-x="19.603178"
           inkscape:transform-center-y="3.7037948" />
        <path
           id="path7742"
           style="fill:#000401;fill-opacity:0.501166;stroke-width:3.27586;stroke-linecap:round;stroke-linejoin:bevel"
           d="M 67.723137,37.49714 C 66.817105,31.77983 63.84013,26.610148 59.718016,24.78936 c -2.706023,-1.195283 0.566246,6.174228 2.163737,10.827181 1.336897,3.893976 0.3103,12.050781 3.039326,13.148945 2.729022,1.098187 3.406907,-7.451467 2.802058,-11.268346 z"
           sodipodi:nodetypes="sssss"
           inkscape:transform-center-x="3.0086309"
           inkscape:transform-center-y="12.948618" />
      </g>
      <g
         id="g28307"
         style="fill:#000401;fill-opacity:0.501166;stroke-width:2.40075">
        <path
           id="path1013"
           style="fill:#000401;fill-opacity:0.501166;stroke-width:5.84384;stroke-linecap:round;stroke-linejoin:round;paint-order:fill markers stroke"
           d="m 34.429139,65.584599 c -3.249316,6.257326 -7.837255,8.713837 -12.298115,6.70531 -4.460866,-2.008524 -3.894533,-8.540706 -2.801256,-15.539948 1.166848,-7.470026 2.248334,-8.12892 10.280038,-2.394105 3.9718,2.835955 5.436034,10.041147 4.819333,11.228743 z"
           sodipodi:nodetypes="sssss" />
        <path
           id="path18942"
           style="fill:#000401;fill-opacity:0.501166;stroke-width:3.27586;stroke-linecap:round;stroke-linejoin:bevel"
           d="m 31.598495,60.951133 c -0.630572,-2.123379 -1.829395,-3.927991 -3.147118,-4.39922 -0.865026,-0.309336 0.560885,2.315128 1.324661,3.997223 0.639193,1.407699 0.863124,4.561127 1.728633,4.832356 0.865513,0.271227 0.514794,-3.012788 0.09385,-4.430358 z"
           sodipodi:nodetypes="sssss"
           inkscape:transform-center-x="0.20027184"
           inkscape:transform-center-y="5.1339829" />
      </g>
      <g
         id="g28316"
         style="fill:#000401;fill-opacity:0.501166;stroke-width:2.40075">
        <ellipse
           style="fill:#000401;fill-opacity:0.501166;stroke-width:5.84383;stroke-linecap:round;stroke-linejoin:round;paint-order:fill markers stroke"
           id="path13611"
           cx="52.408508"
           cy="59.92844"
           rx="1.298147"
           ry="1.2482182"
           transform="rotate(24.456709)" />
        <ellipse
           style="fill:#000401;fill-opacity:0.501166;stroke-width:5.84383;stroke-linecap:round;stroke-linejoin:round;paint-order:fill markers stroke"
           id="path1015"
           cx="49.442806"
           cy="59.851017"
           rx="3.0972292"
           ry="3.1638601"
           transform="rotate(24.456709)" />
        <use
           x="0"
           y="0"
           xlink:href="#path13611"
           id="use14924"
           transform="translate(-3.5740349,-1.1867148)"
           width="100%"
           height="100%"
           style="fill:#000401;fill-opacity:0.501166;stroke-width:2.94233" />
      </g>
      <g
         id="g28311"
         style="fill:#000401;fill-opacity:0.501166;stroke-width:2.40075">
        <ellipse
           style="fill:#000401;fill-opacity:0.501166;stroke-width:5.84383;stroke-linecap:round;stroke-linejoin:round;paint-order:fill markers stroke"
           id="ellipse1475"
           cx="49.386829"
           cy="54.604969"
           rx="5.1846304"
           ry="4.6132631"
           transform="rotate(24.456709)" />
        <path
           id="path18944"
           style="fill:#000401;fill-opacity:0.501166;stroke-width:3.27586;stroke-linecap:round;stroke-linejoin:bevel"
           d="m 26.322506,69.590085 c -0.397211,-1.227797 -1.148653,-2.272391 -1.972116,-2.546827 -0.540561,-0.180151 0.354021,1.338469 0.83365,2.311547 0.4014,0.814344 0.54645,2.636566 1.087248,2.794706 0.540805,0.158133 0.316384,-1.739741 0.05122,-2.559426 z"
           sodipodi:nodetypes="sssss"
           inkscape:transform-center-x="0.11742265"
           inkscape:transform-center-y="2.9655163" />
      </g>
      <path
         id="ellipse21289"
         style="fill:#000401;fill-opacity:0.501166;stroke-width:5.84383;stroke-linecap:round;stroke-linejoin:round;paint-order:fill markers stroke"
         d="m 18.722433,52.837828 c 0.713867,-0.241201 1.485538,0.887761 2.133201,2.066714 0.659773,1.200997 0.889847,2.054522 0.146324,2.324692 -0.775223,0.281688 -1.155137,-0.541715 -1.910801,-1.675221 -0.783443,-1.175177 -0.921171,-2.529526 -0.368724,-2.716185 z"
         sodipodi:nodetypes="sssss" />
      <path
         id="path21758"
         style="fill:#000401;fill-opacity:0.501166;stroke-width:5.84383;stroke-linecap:round;stroke-linejoin:round;paint-order:fill markers stroke"
         d="m 13.916083,50.420206 c 0.321218,-0.481096 1.694826,0.128591 3.018603,0.828496 1.348541,0.712952 2.139863,1.314973 1.819296,1.831457 -0.334227,0.538495 -1.208121,0.02077 -2.573884,-0.599017 -1.415976,-0.642594 -2.512594,-1.68864 -2.264015,-2.060936 z"
         sodipodi:nodetypes="sssss" />
      <path
         id="path21764"
         style="fill:#000401;fill-opacity:0.501166;stroke-width:5.84384;stroke-linecap:round;stroke-linejoin:round;paint-order:fill markers stroke"
         d="m 14.228139,50.559055 c 0.428042,0.250731 -0.09153,1.154918 -0.691275,2.019227 -0.610913,0.88048 -1.131236,1.385573 -1.590456,1.13306 -0.478798,-0.263285 -0.03384,-0.830346 0.494778,-1.728511 0.548046,-0.931186 1.455693,-1.617816 1.786953,-1.423776 z"
         sodipodi:nodetypes="sssss" />
      <path
         id="path21770"
         style="fill:#000401;fill-opacity:0.501166;stroke-width:5.84384;stroke-linecap:round;stroke-linejoin:round;paint-order:fill markers stroke"
         d="m 12.294062,53.483672 c 0.290597,0.157578 -0.09488,0.762986 -0.53494,1.343553 -0.448268,0.591422 -0.823435,0.933761 -1.135635,0.77558 -0.325511,-0.164935 -0.001,-0.546767 0.390558,-1.148375 0.405972,-0.623717 1.055145,-1.092701 1.280017,-0.970758 z"
         sodipodi:nodetypes="sssss" />
      <path
         id="path21776"
         style="fill:#000401;fill-opacity:0.501166;stroke-width:5.84379;stroke-linecap:round;stroke-linejoin:round;paint-order:fill markers stroke"
         d="m 21.962006,43.202234 c 0.982918,0.07088 1.421481,2.151354 1.685664,4.231187 0.269124,2.11872 0.167792,3.484393 -0.864467,3.437896 -1.07627,-0.04848 -1.172044,-1.458597 -1.588954,-3.536239 -0.432236,-2.154021 0.0071,-4.187695 0.767757,-4.132844 z"
         sodipodi:nodetypes="sssss" />
      <path
         id="path21782"
         style="fill:#000401;fill-opacity:0.501166;stroke-width:5.84383;stroke-linecap:round;stroke-linejoin:round;paint-order:fill markers stroke"
         d="m 17.218678,37.136819 c 0.609546,-0.505317 2.018722,1.179468 3.326382,2.965025 1.332114,1.818933 2.031337,3.151126 1.406694,3.707855 -0.651272,0.580471 -1.489513,-0.678575 -2.884558,-2.373307 -1.446325,-1.757026 -2.320241,-3.90852 -1.848518,-4.299573 z"
         sodipodi:nodetypes="sssss" />
      <path
         id="path21788"
         style="fill:#000401;fill-opacity:0.501166;stroke-width:5.84384;stroke-linecap:round;stroke-linejoin:round;paint-order:fill markers stroke"
         d="m 17.718281,37.041005 c 0.411858,0.612579 -0.630737,1.611616 -1.753543,2.506195 -1.143794,0.911302 -2.008074,1.334458 -2.45733,0.701023 -0.468408,-0.660448 0.331369,-1.217156 1.382268,-2.202246 1.089546,-1.021293 2.509881,-1.479036 2.828605,-1.004972 z"
         sodipodi:nodetypes="sssss" />
      <path
         id="path21794"
         style="fill:#000401;fill-opacity:0.501166;stroke-width:5.84384;stroke-linecap:round;stroke-linejoin:round;paint-order:fill markers stroke"
         d="m 14.035589,40.123846 c 0.285277,0.397633 -0.458833,1.044521 -1.258639,1.623589 -0.814751,0.589893 -1.42811,0.863496 -1.739581,0.452306 -0.324764,-0.42873 0.244242,-0.788995 0.994103,-1.426825 0.77742,-0.661277 1.78335,-0.956792 2.004117,-0.64907 z"
         sodipodi:nodetypes="sssss" />
      <path
         id="path21800"
         style="fill:#000401;fill-opacity:0.501166;stroke-width:5.84384;stroke-linecap:round;stroke-linejoin:round;paint-order:fill markers stroke"
         d="m 26.570236,33.498877 c 1.416558,0.105924 1.52169,2.21022 1.372442,4.307701 -0.152036,2.136699 -0.65117,3.50424 -2.146022,3.421048 -1.558585,-0.08674 -1.335742,-1.505875 -1.409996,-3.606558 -0.07698,-2.17791 1.087332,-4.204165 2.183576,-4.122191 z"
         sodipodi:nodetypes="sssss" />
      <path
         id="path21806"
         style="fill:#000401;fill-opacity:0.501166;stroke-width:5.84383;stroke-linecap:round;stroke-linejoin:round;paint-order:fill markers stroke"
         d="m 21.180342,26.998884 c 1.019725,-0.485775 2.643451,1.255577 4.093078,3.094509 1.476716,1.87332 2.154783,3.235563 1.099801,3.772421 -1.099957,0.559747 -1.999757,-0.733971 -3.600291,-2.484812 -1.659372,-1.815198 -2.381733,-4.006187 -1.592588,-4.382118 z"
         sodipodi:nodetypes="sssss" />
      <path
         id="path21812"
         style="fill:#000401;fill-opacity:0.501166;stroke-width:5.84384;stroke-linecap:round;stroke-linejoin:round;paint-order:fill markers stroke"
         d="m 21.548858,27.394953 c 0.443661,0.629598 -1.335168,1.595739 -3.204214,2.454179 -1.903992,0.874487 -3.274416,1.268765 -3.767302,0.616906 -0.513905,-0.679646 0.796722,-1.210289 2.584093,-2.162138 1.853081,-0.986842 4.044081,-1.396178 4.387423,-0.908947 z"
         sodipodi:nodetypes="sssss" />
      <path
         id="path21818"
         style="fill:#000401;fill-opacity:0.501166;stroke-width:5.84384;stroke-linecap:round;stroke-linejoin:round;paint-order:fill markers stroke"
         d="m 15.380325,30.359851 c 0.314165,0.40931 -0.938399,1.032463 -2.254805,1.585556 -1.341024,0.563433 -2.306714,0.816433 -2.655636,0.392583 -0.363804,-0.441925 0.559443,-0.783505 1.818059,-1.397362 1.304885,-0.636422 2.849261,-0.897533 3.092382,-0.580777 z"
         sodipodi:nodetypes="sssss" />
    </g>
  </g>
</svg>
