<?xml version="1.0" encoding="UTF-8" standalone="no"?>
<!-- Created with Inkscape (http://www.inkscape.org/) -->

<svg
   width="75.557594mm"
   height="49.594818mm"
   viewBox="0 0 75.557594 49.594818"
   version="1.1"
   id="svg5"
   inkscape:version="1.1 (c68e22c387, 2021-05-23)"
   sodipodi:docname="hint-wasd.svg"
   xmlns:inkscape="http://www.inkscape.org/namespaces/inkscape"
   xmlns:sodipodi="http://sodipodi.sourceforge.net/DTD/sodipodi-0.dtd"
   xmlns="http://www.w3.org/2000/svg"
   xmlns:svg="http://www.w3.org/2000/svg">
  <sodipodi:namedview
     id="namedview7"
     pagecolor="#716f6f"
     bordercolor="#ffffff"
     borderopacity="1"
     inkscape:pageshadow="0"
     inkscape:pageopacity="0.36862745"
     inkscape:pagecheckerboard="true"
     inkscape:document-units="mm"
     showgrid="false"
     inkscape:zoom="2.9754489"
     inkscape:cx="77.467302"
     inkscape:cy="76.795135"
     inkscape:window-width="1920"
     inkscape:window-height="1017"
     inkscape:window-x="1272"
     inkscape:window-y="-8"
     inkscape:window-maximized="1"
     inkscape:current-layer="layer1"
     fit-margin-top="0"
     fit-margin-left="0"
     fit-margin-right="0"
     fit-margin-bottom="0" />
  <defs
     id="defs2">
    <rect
       x="588.90656"
       y="224.40199"
       width="75.881271"
       height="69.339775"
       id="rect34779" />
    <rect
       x="235.16656"
       y="314.3186"
       width="64.270142"
       height="47.752876"
       id="rect7450" />
    <rect
       x="235.16656"
       y="314.3186"
       width="64.270142"
       height="47.752876"
       id="rect18461" />
    <rect
       x="235.16656"
       y="314.3186"
       width="64.270142"
       height="47.752876"
       id="rect18469" />
    <rect
       x="235.16656"
       y="314.3186"
       width="64.270142"
       height="47.752876"
       id="rect18477" />
    <rect
       x="235.16656"
       y="314.3186"
       width="64.270142"
       height="47.752876"
       id="rect25833" />
    <rect
       x="235.16656"
       y="314.3186"
       width="64.270142"
       height="47.752876"
       id="rect25835" />
    <rect
       x="235.16656"
       y="314.3186"
       width="64.270142"
       height="47.752876"
       id="rect25837" />
    <rect
       x="235.16656"
       y="314.3186"
       width="64.270142"
       height="47.752876"
       id="rect25839" />
  </defs>
  <g
     inkscape:label="Layer 1"
     inkscape:groupmode="layer"
     id="layer1"
     transform="translate(-32.612816,-54.770268)">
    <rect
       style="fill:#000000;fill-opacity:0.221445;stroke:#000000;stroke-width:1.387;stroke-linecap:round;stroke-linejoin:round;stroke-miterlimit:4;stroke-dasharray:none;stroke-opacity:1;paint-order:normal"
       id="rect846"
       width="20.076923"
       height="18.346153"
       x="60.230766"
       y="80.307693" />
    <g
       aria-label="S"
       transform="matrix(0.2572602,0,0,0.30049141,2.3736794,-14.309848)"
       id="text7448"
       style="font-weight:bold;font-size:40px;line-height:1.25;font-family:Lato;-inkscape-font-specification:'Lato, Bold';white-space:pre;shape-inside:url(#rect7450)">
      <path
         d="m 253.78602,327.85836 q -0.24,0.42 -0.52,0.62 -0.26,0.18 -0.66,0.18 -0.42,0 -0.92,-0.3 -0.48,-0.32 -1.16,-0.7 -0.68,-0.38 -1.6,-0.68 -0.9,-0.32 -2.14,-0.32 -1.12,0 -1.96,0.28 -0.84,0.26 -1.42,0.74 -0.56,0.48 -0.84,1.16 -0.28,0.66 -0.28,1.46 0,1.02 0.56,1.7 0.58,0.68 1.52,1.16 0.94,0.48 2.14,0.86 1.2,0.38 2.46,0.82 1.26,0.42 2.46,1 1.2,0.56 2.14,1.44 0.94,0.86 1.5,2.12 0.58,1.26 0.58,3.06 0,1.96 -0.68,3.68 -0.66,1.7 -1.96,2.98 -1.28,1.26 -3.14,2 -1.86,0.72 -4.26,0.72 -1.38,0 -2.72,-0.28 -1.34,-0.26 -2.58,-0.76 -1.22,-0.5 -2.3,-1.2 -1.08,-0.7 -1.92,-1.56 l 1.58,-2.58 q 0.2,-0.28 0.52,-0.46 0.32,-0.2 0.68,-0.2 0.5,0 1.08,0.42 0.58,0.4 1.38,0.9 0.8,0.5 1.86,0.92 1.08,0.4 2.58,0.4 2.3,0 3.56,-1.08 1.26,-1.1 1.26,-3.14 0,-1.14 -0.58,-1.86 -0.56,-0.72 -1.5,-1.2 -0.94,-0.5 -2.14,-0.84 -1.2,-0.34 -2.44,-0.74 -1.24,-0.4 -2.44,-0.96 -1.2,-0.56 -2.14,-1.46 -0.94,-0.9 -1.52,-2.24 -0.56,-1.36 -0.56,-3.34 0,-1.58 0.62,-3.08 0.64,-1.5 1.84,-2.66 1.2,-1.16 2.96,-1.86 1.76,-0.7 4.04,-0.7 2.56,0 4.72,0.8 2.16,0.8 3.68,2.24 z"
         id="path111646" />
    </g>
    <rect
       style="fill:#000000;fill-opacity:0.221445;stroke:#000000;stroke-width:1.387;stroke-linecap:round;stroke-linejoin:round;stroke-miterlimit:4;stroke-dasharray:none;stroke-opacity:1;paint-order:normal"
       id="rect18455"
       width="20.076923"
       height="18.346153"
       x="33.306316"
       y="76.146645" />
    <g
       aria-label="A"
       transform="matrix(0.2572602,0,0,0.30049141,-24.550771,-18.470899)"
       id="text18459"
       style="font-weight:bold;font-size:40px;line-height:1.25;font-family:Lato;-inkscape-font-specification:'Lato, Bold';white-space:pre;shape-inside:url(#rect18461)">
      <path
         d="m 253.66602,340.59836 -3.52,-9.62 q -0.26,-0.64 -0.54,-1.52 -0.28,-0.88 -0.56,-1.9 -0.26,1.02 -0.54,1.92 -0.28,0.88 -0.54,1.54 l -3.5,9.58 z m 9.5,10.92 h -4.16 q -0.7,0 -1.14,-0.34 -0.44,-0.36 -0.66,-0.88 l -2.16,-5.9 h -11.98 l -2.16,5.9 q -0.16,0.46 -0.62,0.84 -0.46,0.38 -1.14,0.38 h -4.2 l 11.38,-28.92 h 5.48 z"
         id="path111640" />
    </g>
    <rect
       style="fill:#000000;fill-opacity:0.221445;stroke:#000000;stroke-width:1.387;stroke-linecap:round;stroke-linejoin:round;stroke-miterlimit:4;stroke-dasharray:none;stroke-opacity:1;paint-order:normal"
       id="rect18463"
       width="20.076923"
       height="18.346153"
       x="87.399986"
       y="85.325432" />
    <g
       aria-label="D"
       transform="matrix(0.2572602,0,0,0.30049141,29.542898,-9.292109)"
       id="text18467"
       style="font-weight:bold;font-size:40px;line-height:1.25;font-family:Lato;-inkscape-font-specification:'Lato, Bold';white-space:pre;shape-inside:url(#rect18469)">
      <path
         d="m 264.06602,337.05836 q 0,3.18 -1.06,5.84 -1.06,2.66 -2.98,4.58 -1.92,1.92 -4.62,2.98 -2.7,1.06 -6,1.06 h -11.02 v -28.92 h 11.02 q 3.3,0 6,1.08 2.7,1.06 4.62,2.98 1.92,1.9 2.98,4.56 1.06,2.66 1.06,5.84 z m -5.52,0 q 0,-2.38 -0.64,-4.26 -0.62,-1.9 -1.82,-3.2 -1.18,-1.32 -2.88,-2.02 -1.68,-0.7 -3.8,-0.7 h -5.62 v 20.36 h 5.62 q 2.12,0 3.8,-0.7 1.7,-0.7 2.88,-2 1.2,-1.32 1.82,-3.2 0.64,-1.9 0.64,-4.28 z"
         id="path111649" />
    </g>
    <rect
       style="fill:#000000;fill-opacity:0.221445;stroke:#000000;stroke-width:1.387;stroke-linecap:round;stroke-linejoin:round;stroke-miterlimit:4;stroke-dasharray:none;stroke-opacity:1;paint-order:normal"
       id="rect18471"
       width="20.076923"
       height="18.346153"
       x="66.472343"
       y="55.463768" />
    <g
       aria-label="W"
       transform="matrix(0.2572602,0,0,0.30049141,8.6152569,-39.153772)"
       id="text18475"
       style="font-weight:bold;font-size:40px;line-height:1.25;font-family:Lato;-inkscape-font-specification:'Lato, Bold';white-space:pre;shape-inside:url(#rect18477)">
      <path
         d="m 276.86602,322.59836 -8.98,28.92 h -4.86 l -6.32,-19.76 q -0.26,-0.72 -0.48,-1.76 -0.12,0.5 -0.24,0.94 -0.12,0.44 -0.26,0.82 l -6.38,19.76 h -4.88 l -8.96,-28.92 h 4.5 q 0.7,0 1.16,0.34 0.48,0.32 0.64,0.88 l 4.92,17.3 q 0.16,0.64 0.3,1.4 0.16,0.74 0.32,1.56 0.16,-0.84 0.34,-1.58 0.2,-0.74 0.42,-1.38 l 5.68,-17.3 q 0.16,-0.46 0.62,-0.84 0.48,-0.38 1.16,-0.38 h 1.58 q 0.7,0 1.14,0.34 0.44,0.34 0.66,0.88 l 5.66,17.3 q 0.42,1.24 0.76,2.86 0.26,-1.58 0.58,-2.86 l 4.92,-17.3 q 0.12,-0.5 0.6,-0.86 0.5,-0.36 1.18,-0.36 z"
         id="path111643" />
    </g>
    <text
       xml:space="preserve"
       transform="scale(0.26458333)"
       id="text34777"
       style="font-style:normal;font-weight:normal;font-size:40px;line-height:1.25;font-family:sans-serif;white-space:pre;shape-inside:url(#rect34779);fill:#000000;fill-opacity:1;stroke:none" />
  </g>
</svg>
