<?xml version="1.0" encoding="UTF-8" standalone="no"?>
<!-- Created with Inkscape (http://www.inkscape.org/) -->

<svg
   width="696.80042"
   height="346.06113"
   viewBox="0 0 184.36177 91.562022"
   version="1.1"
   id="svg28490"
   inkscape:version="1.1 (c68e22c387, 2021-05-23)"
   sodipodi:docname="hint-water.svg"
   xmlns:inkscape="http://www.inkscape.org/namespaces/inkscape"
   xmlns:sodipodi="http://sodipodi.sourceforge.net/DTD/sodipodi-0.dtd"
   xmlns:xlink="http://www.w3.org/1999/xlink"
   xmlns="http://www.w3.org/2000/svg"
   xmlns:svg="http://www.w3.org/2000/svg">
  <sodipodi:namedview
     id="namedview28492"
     pagecolor="#505050"
     bordercolor="#ffffff"
     borderopacity="1"
     inkscape:pageshadow="0"
     inkscape:pageopacity="0"
     inkscape:pagecheckerboard="1"
     inkscape:document-units="mm"
     showgrid="false"
     units="px"
     fit-margin-top="0"
     fit-margin-left="0"
     fit-margin-right="0"
     fit-margin-bottom="0"
     inkscape:zoom="1.0000001"
     inkscape:cx="417.49998"
     inkscape:cy="250.49999"
     inkscape:window-width="1920"
     inkscape:window-height="1017"
     inkscape:window-x="1272"
     inkscape:window-y="-8"
     inkscape:window-maximized="1"
     inkscape:current-layer="layer1"
     inkscape:snap-global="false" />
  <defs
     id="defs28487">
    <inkscape:path-effect
       effect="spiro"
       id="path-effect31120"
       is_visible="true"
       lpeversion="1" />
    <inkscape:path-effect
       effect="spiro"
       id="path-effect31114"
       is_visible="true"
       lpeversion="1" />
    <inkscape:path-effect
       effect="spiro"
       id="path-effect30170"
       is_visible="true"
       lpeversion="1" />
    <inkscape:path-effect
       effect="spiro"
       id="path-effect28586"
       is_visible="true"
       lpeversion="1" />
    <inkscape:path-effect
       effect="spiro"
       id="path-effect6152"
       is_visible="true"
       lpeversion="1" />
    <inkscape:path-effect
       effect="spiro"
       id="path-effect5936"
       is_visible="true"
       lpeversion="1" />
    <inkscape:path-effect
       effect="spiro"
       id="path-effect33631"
       is_visible="true"
       lpeversion="1" />
  </defs>
  <g
     inkscape:label="Layer 1"
     inkscape:groupmode="layer"
     id="layer1"
     transform="translate(163.8483,20.64972)">
    <path
       id="path28728"
       style="fill:#000000;fill-opacity:0.198135;stroke:#000000;stroke-width:1.30335;stroke-linecap:round;stroke-linejoin:round;stroke-miterlimit:4;stroke-dasharray:none;stroke-opacity:0.296037;paint-order:stroke fill markers"
       d="m -127.39668,5.6982035 c 0.19256,3.3757024 -3.3139,6.1215685 -7.40181,6.1215685 -4.0879,0 -7.33243,-2.7413888 -7.40181,-6.1215685 -0.10807,-5.26440836 2.04439,-3.7954787 7.50987,-15.6440075 4.11429,12.0051204 6.9696,9.96102959 7.29375,15.6440075 z"
       sodipodi:nodetypes="ssscs" />
    <g
       id="g50287"
       transform="matrix(1.4557943,0,0,1.5018273,-123.83218,-48.342248)">
      <g
         id="g50456"
         transform="matrix(0.72898046,0,0,0.8362074,7.1849597,9.7634647)">
        <path
           style="fill:none;stroke:#000000;stroke-width:0.818447;stroke-linecap:round;stroke-linejoin:miter;stroke-miterlimit:4;stroke-dasharray:none;stroke-opacity:0.202797"
           d="m 22.969231,69.78137 c 1.526474,0.22379 3.136615,-0.192596 4.363231,-1.128339 1.076794,-0.821449 1.846169,-2.002834 2.959146,-2.774551 0.642404,-0.445431 1.396411,-0.743297 2.176578,-0.792608 0.780167,-0.04931 1.584835,0.160395 2.205473,0.635684 0.618645,0.473763 1.02043,1.171034 1.384747,1.859834 0.364317,0.6888 0.71765,1.402378 1.274425,1.947514 0.72092,0.705849 1.756881,1.068242 2.763218,0.9959 1.006338,-0.07234 1.969667,-0.570226 2.634189,-1.329409 0.488492,-0.558076 0.813186,-1.236433 1.168418,-1.887495 0.355233,-0.651063 0.761462,-1.299473 1.359849,-1.737659 0.70088,-0.51324 1.62398,-0.686852 2.47873,-0.531772 0.854751,0.155079 1.638022,0.62282 2.234799,1.254093 0.787651,0.83318 1.254417,1.924891 2.02096,2.777531 0.662065,0.736428 1.541584,1.274918 2.498519,1.529733 0.956936,0.254816 1.987779,0.225021 2.928399,-0.08464"
           id="path30166"
           inkscape:path-effect="#path-effect30170"
           inkscape:original-d="m 22.969231,69.78137 c 1.724658,-0.07665 2.638635,-1.051565 4.363231,-1.128339 1.724596,-0.07677 2.243011,-1.550235 2.959146,-2.774551 0.716133,-1.224312 2.921398,-0.104558 4.382051,-0.156924 1.460653,-0.05237 1.772811,2.538288 2.659172,3.807348 0.886359,1.269056 3.598302,-0.22228 5.397407,-0.333509 1.799103,-0.111238 1.685543,-2.416709 2.528267,-3.625154 0.842724,-1.208438 3.142384,0.481613 4.713529,0.722321 1.571141,0.240715 1.192928,1.365218 2.02096,2.777531 0.828039,1.412311 3.733785,1.711961 5.426918,1.445093"
           sodipodi:nodetypes="csscsssssc" />
        <path
           style="fill:none;stroke:#000000;stroke-width:0.818447;stroke-linecap:round;stroke-linejoin:miter;stroke-miterlimit:4;stroke-dasharray:none;stroke-opacity:0.300699"
           d="m 22.755309,68.993167 c 1.526474,0.223789 3.136615,-0.192596 4.363232,-1.12834 1.076794,-0.821449 1.846169,-2.002833 2.959145,-2.77455 0.642404,-0.445431 1.396411,-0.743297 2.176578,-0.792609 0.780167,-0.04931 1.584835,0.160395 2.205474,0.635684 0.618645,0.473763 1.02043,1.171034 1.384746,1.859834 0.364317,0.6888 0.71765,1.402378 1.274425,1.947514 0.72092,0.705849 1.756881,1.068243 2.763219,0.995901 1.006337,-0.07234 1.969666,-0.570227 2.634189,-1.32941 0.488491,-0.558076 0.813185,-1.236432 1.168418,-1.887494 0.355233,-0.651063 0.761463,-1.299473 1.359849,-1.737658 0.70088,-0.513239 1.623979,-0.686852 2.47873,-0.531772 0.85475,0.155079 1.638021,0.62282 2.234798,1.254092 0.787652,0.83318 1.254418,1.924891 2.020961,2.777531 0.662065,0.736428 1.541584,1.274918 2.498519,1.529733 0.956936,0.254815 1.987779,0.225021 2.928399,-0.08464"
           id="path28584"
           inkscape:path-effect="#path-effect28586"
           inkscape:original-d="m 22.755309,68.993167 c 1.724659,-0.07665 2.638635,-1.051564 4.363232,-1.12834 1.724595,-0.07677 2.24301,-1.550235 2.959145,-2.77455 0.716134,-1.224312 2.921399,-0.104558 4.382052,-0.156925 1.460652,-0.05237 1.772811,2.538289 2.659171,3.807348 0.886359,1.269057 3.598302,-0.222279 5.397408,-0.333509 1.799103,-0.111237 1.685543,-2.416708 2.528267,-3.625152 0.842723,-1.208439 3.142384,0.481611 4.713528,0.72232 1.571142,0.240715 1.192928,1.365218 2.020961,2.777531 0.828039,1.41231 3.733784,1.711961 5.426918,1.445093"
           sodipodi:nodetypes="csscsssssc" />
        <use
           x="0"
           y="0"
           xlink:href="#path28584"
           id="use28704"
           transform="translate(-0.30658403,5.4532583)"
           width="100%"
           height="100%"
           style="stroke-width:1.2;stroke-miterlimit:4;stroke-dasharray:none" />
        <path
           style="fill:none;stroke:#010101;stroke-width:0.818447;stroke-linecap:round;stroke-linejoin:miter;stroke-miterlimit:4;stroke-dasharray:none;stroke-opacity:0"
           d="m 22.564533,69.057177 c 1.526473,0.223789 3.136614,-0.192596 4.36323,-1.128339 1.076794,-0.821449 1.84617,-2.002834 2.959146,-2.774551 0.642404,-0.445431 1.396412,-0.743297 2.176579,-0.792609 0.780167,-0.04931 1.584835,0.160395 2.205474,0.635685 0.618645,0.473763 1.020429,1.171034 1.384746,1.859834 0.364316,0.6888 0.717649,1.402378 1.274424,1.947514 0.72092,0.705849 1.756881,1.068242 2.763219,0.9959 1.006338,-0.07234 1.969666,-0.570227 2.634189,-1.32941 0.488491,-0.558076 0.813185,-1.236432 1.168418,-1.887494 0.355233,-0.651063 0.761463,-1.299472 1.359849,-1.737658 0.70088,-0.51324 1.62398,-0.686852 2.47873,-0.531773 0.854751,0.15508 1.638022,0.62282 2.234799,1.254093 0.787651,0.83318 1.254417,1.924891 2.02096,2.777531 0.662065,0.736428 1.541584,1.274918 2.498519,1.529734 0.956936,0.254815 1.987779,0.22502 2.928399,-0.08464"
           id="path31110"
           inkscape:path-effect="#path-effect31114"
           inkscape:original-d="m 22.564533,69.057177 c 1.724658,-0.07665 2.638635,-1.051565 4.36323,-1.128339 1.724597,-0.07677 2.243012,-1.550235 2.959146,-2.774551 0.716135,-1.224312 2.921398,-0.104558 4.382053,-0.156924 1.460652,-0.05237 1.772811,2.538288 2.65917,3.807348 0.88636,1.269055 3.598303,-0.22228 5.397408,-0.33351 1.799103,-0.111237 1.685543,-2.416708 2.528267,-3.625152 0.842723,-1.20844 3.142384,0.481612 4.713529,0.72232 1.571142,0.240715 1.192927,1.365218 2.02096,2.777531 0.828039,1.412311 3.733785,1.711961 5.426918,1.445093"
           sodipodi:nodetypes="csscsssssc" />
        <path
           style="fill:none;stroke:#000000;stroke-width:0.818447;stroke-linecap:round;stroke-linejoin:miter;stroke-miterlimit:4;stroke-dasharray:none;stroke-opacity:0.202797"
           d="m 22.699432,75.031778 c 1.526474,0.223789 3.136615,-0.192597 4.363232,-1.12834 1.076794,-0.821449 1.84617,-2.002833 2.959146,-2.77455 0.642404,-0.445431 1.396411,-0.743297 2.176578,-0.792609 0.780166,-0.04931 1.584835,0.160395 2.205473,0.635684 0.618645,0.473762 1.02043,1.171034 1.384747,1.859834 0.364317,0.6888 0.717649,1.402378 1.274425,1.947514 0.72092,0.705849 1.756881,1.068242 2.763218,0.9959 1.006337,-0.07234 1.969665,-0.570227 2.634188,-1.329409 0.488492,-0.558076 0.813186,-1.236432 1.168419,-1.887494 0.355233,-0.651063 0.761462,-1.299473 1.359849,-1.737658 0.70088,-0.513239 1.623979,-0.686852 2.47873,-0.531772 0.85475,0.155079 1.638021,0.62282 2.234798,1.254092 0.787652,0.83318 1.254418,1.924891 2.020961,2.777531 0.662065,0.736428 1.541584,1.274918 2.498519,1.529733 0.956936,0.254815 1.987779,0.225021 2.928399,-0.08464"
           id="path31116"
           inkscape:path-effect="#path-effect31120"
           inkscape:original-d="m 22.699432,75.031778 c 1.724659,-0.07665 2.638635,-1.051565 4.363232,-1.12834 1.724595,-0.07677 2.243011,-1.550235 2.959146,-2.77455 0.716133,-1.224313 2.921398,-0.104558 4.382051,-0.156925 1.460653,-0.05237 1.772811,2.538289 2.659172,3.807348 0.886358,1.269057 3.598301,-0.22228 5.397406,-0.333509 1.799104,-0.111237 1.685544,-2.416709 2.528268,-3.625152 0.842723,-1.208439 3.142384,0.481611 4.713528,0.72232 1.571142,0.240715 1.192928,1.365218 2.020961,2.777531 0.828039,1.41231 3.733785,1.711961 5.426918,1.445093"
           sodipodi:nodetypes="csscsssssc" />
      </g>
    </g>
    <g
       id="g50385"
       transform="matrix(0.37243083,0,0,0.49759573,-20.118392,-7.979593)">
      <g
         id="g46080"
         transform="matrix(0.82700248,-0.12425878,0.11579312,0.78082656,-10.914999,8.0132795)">
        <path
           style="fill:none;stroke:#000000;stroke-width:1.051;stroke-linecap:butt;stroke-linejoin:miter;stroke-miterlimit:4;stroke-dasharray:none;stroke-opacity:0.296037"
           d="M 28.735652,50.54916 C 22.082514,40.899508 8.959354,42.593183 12.959453,36.783561 c 4.000099,-5.809622 8.774009,3.150906 9.965182,2.855509 -3.17713,-1.674358 -4.258673,-6.134986 -1.626969,-7.606485 2.631705,-1.4715 7.047632,-1.862504 7.263253,6.621827 0.07549,2.970569 0.597018,7.287975 2.818246,9.497699"
           id="path42988"
           sodipodi:nodetypes="czczsc" />
        <path
           style="fill:#000000;fill-opacity:0.13986;stroke:#000000;stroke-width:1.151;stroke-linecap:butt;stroke-linejoin:miter;stroke-miterlimit:4;stroke-dasharray:none;stroke-opacity:0.200466"
           d="M 27.987298,50.783021 C 21.33416,41.133369 8.2109993,42.827044 12.211099,37.017422 c 4.000099,-5.809622 8.774009,3.150906 9.965182,2.855509 -3.17713,-1.674358 -4.258673,-6.134986 -1.626969,-7.606485 2.631705,-1.4715 7.047632,-1.862504 7.263253,6.621827 0.07549,2.970569 0.597018,7.287975 2.818246,9.497699"
           id="path45392"
           sodipodi:nodetypes="czczsc" />
      </g>
      <g
         id="g46086"
         transform="matrix(-0.82535707,-0.13488841,-0.12569857,0.77927305,80.842404,9.6747957)">
        <path
           style="fill:none;stroke:#000000;stroke-width:1.051;stroke-linecap:butt;stroke-linejoin:miter;stroke-miterlimit:4;stroke-dasharray:none;stroke-opacity:0.296037"
           d="M 28.735652,50.54916 C 22.082514,40.899508 8.959354,42.593183 12.959453,36.783561 c 4.000099,-5.809622 8.774009,3.150906 9.965182,2.855509 -3.17713,-1.674358 -4.258673,-6.134986 -1.626969,-7.606485 2.631705,-1.4715 7.047632,-1.862504 7.263253,6.621827 0.07549,2.970569 0.597018,7.287975 2.818246,9.497699"
           id="path46082"
           sodipodi:nodetypes="czczsc" />
        <path
           style="fill:#000000;fill-opacity:0.13986;stroke:#000000;stroke-width:1.151;stroke-linecap:butt;stroke-linejoin:miter;stroke-miterlimit:4;stroke-dasharray:none;stroke-opacity:0.200466"
           d="M 27.987298,50.783021 C 21.33416,41.133369 8.2109993,42.827044 12.211099,37.017422 c 4.000099,-5.809622 8.774009,3.150906 9.965182,2.855509 -3.17713,-1.674358 -4.258673,-6.134986 -1.626969,-7.606485 2.631705,-1.4715 7.047632,-1.862504 7.263253,6.621827 0.07549,2.970569 0.597018,7.287975 2.818246,9.497699"
           id="path46084"
           sodipodi:nodetypes="czczsc" />
      </g>
      <g
         id="g46092"
         transform="matrix(-0.82369221,0.14520341,-0.13499499,-0.77763519,82.300106,109.54235)">
        <path
           style="fill:none;stroke:#000000;stroke-width:1.051;stroke-linecap:butt;stroke-linejoin:miter;stroke-miterlimit:4;stroke-dasharray:none;stroke-opacity:0.296037"
           d="M 28.735652,50.54916 C 22.082514,40.899508 8.959354,42.593183 12.959453,36.783561 c 4.000099,-5.809622 8.774009,3.150906 9.965182,2.855509 -3.17713,-1.674358 -4.258673,-6.134986 -1.626969,-7.606485 2.631705,-1.4715 7.047632,-1.862504 7.263253,6.621827 0.07549,2.970569 0.597018,7.287975 2.818246,9.497699"
           id="path46088"
           sodipodi:nodetypes="czczsc" />
        <path
           style="fill:#000000;fill-opacity:0.13986;stroke:#000000;stroke-width:1.151;stroke-linecap:butt;stroke-linejoin:miter;stroke-miterlimit:4;stroke-dasharray:none;stroke-opacity:0.200466"
           d="M 27.987298,50.783021 C 21.33416,41.133369 8.2109993,42.827044 12.211099,37.017422 c 4.000099,-5.809622 8.774009,3.150906 9.965182,2.855509 -3.17713,-1.674358 -4.258673,-6.134986 -1.626969,-7.606485 2.631705,-1.4715 7.047632,-1.862504 7.263253,6.621827 0.07549,2.970569 0.597018,7.287975 2.818246,9.497699"
           id="path46090"
           sodipodi:nodetypes="czczsc" />
      </g>
      <g
         id="g46098"
         transform="matrix(0.98378679,0.14186085,0.13774535,-0.89143579,-15.786042,123.08488)">
        <path
           style="fill:none;stroke:#000000;stroke-width:0.901857;stroke-linecap:butt;stroke-linejoin:miter;stroke-miterlimit:4;stroke-dasharray:none;stroke-opacity:0.296037"
           d="M 24.259872,58.129347 C 18.708554,49.720992 7.6585289,51.275303 11.052295,46.169033 c 3.393767,-5.106271 7.367231,2.70932 8.370913,2.444259 -2.665148,-1.447863 -3.5536,-5.345645 -1.33217,-6.647885 2.221431,-1.302242 5.938886,-1.668687 6.079304,5.755199 0.04916,2.599282 0.467107,6.374799 2.32537,8.296439"
           id="path46094"
           sodipodi:nodetypes="czczsc" />
        <path
           style="fill:#000000;fill-opacity:0.13986;stroke:#000000;stroke-width:0.987667;stroke-linecap:butt;stroke-linejoin:miter;stroke-miterlimit:4;stroke-dasharray:none;stroke-opacity:0.200466"
           d="M 23.629076,58.338122 C 18.077758,49.929767 7.0277322,51.484077 10.421499,46.377807 c 3.393766,-5.10627 7.367231,2.70932 8.370913,2.44426 -2.665148,-1.447863 -3.5536,-5.345645 -1.33217,-6.647885 2.221431,-1.302242 5.938886,-1.668687 6.079303,5.755199 0.04916,2.599282 0.467108,6.374799 2.325371,8.296439"
           id="path46096"
           sodipodi:nodetypes="czczsc" />
      </g>
      <g
         transform="matrix(0.00412023,0,0,-0.00412081,13.713584,92.045925)"
         fill="#000000"
         stroke="none"
         id="g44918"
         style="fill:#000000;fill-opacity:0.196078">
        <path
           d="M 4481,12790 C 3125,12709 1982,12266 1145,11494 843,11216 570,10865 357,10483 171,10147 78,9900 36,9625 -58,9005 51,8043 306,7250 l 56,-176 77,-60 c 42,-33 104,-95 138,-137 116,-144 174,-261 313,-632 80,-211 83,-224 88,-320 9,-195 -35,-391 -193,-870 -160,-484 -170,-534 -154,-765 28,-409 124,-569 359,-600 41,-5 136,-9 210,-9 219,0 349,33 406,103 46,55 117,70 339,70 244,1 439,-30 620,-99 204,-76 329,-206 350,-361 6,-44 3,-59 -19,-103 -36,-70 -58,-173 -50,-227 14,-96 87,-153 205,-162 l 69,-5 20,45 c 10,24 26,91 35,149 35,227 60,290 130,323 33,16 41,16 74,4 31,-12 38,-20 49,-63 7,-28 16,-114 19,-192 l 6,-142 -38,-78 c -28,-58 -39,-95 -42,-145 -8,-97 2,-108 124,-142 77,-21 118,-40 191,-87 138,-90 180,-105 278,-100 44,2 54,31 65,186 20,271 33,327 83,361 33,21 82,21 106,-1 36,-32 43,-79 36,-221 -7,-124 -6,-136 15,-176 73,-146 222,-186 381,-101 107,57 125,99 147,338 23,244 34,330 43,349 10,18 10,18 28,0 20,-21 53,-115 72,-204 7,-38 16,-56 24,-53 25,9 104,-224 119,-353 10,-81 24,-100 92,-120 111,-32 291,3 372,73 69,59 85,119 55,207 -9,27 -13,51 -8,56 5,5 33,0 64,-12 30,-11 63,-21 73,-21 12,-1 28,-20 44,-51 14,-28 51,-75 82,-106 68,-68 154,-105 243,-105 49,0 61,4 87,29 56,54 64,96 67,351 2,201 5,238 23,296 34,107 107,189 170,189 37,0 85,-59 105,-129 9,-34 21,-123 26,-199 15,-231 55,-310 175,-347 162,-50 406,131 431,319 5,32 -3,76 -30,173 -42,153 -44,200 -12,268 112,232 431,419 840,491 59,10 96,11 141,4 81,-13 103,-21 285,-102 85,-39 190,-79 234,-90 101,-26 143,-18 315,57 213,94 305,158 342,240 27,58 24,86 -26,230 -68,197 -150,473 -189,635 -64,269 -70,323 -71,580 0,206 3,247 22,335 33,150 85,308 136,415 25,52 75,185 111,294 37,110 82,228 101,262 53,94 124,165 249,248 260,173 414,410 511,789 119,464 125,1094 19,1787 -35,229 -76,400 -118,498 -339,788 -1036,1457 -2026,1946 -770,380 -1594,603 -2555,691 -201,19 -777,27 -984,15 z M 2920,7779 c 157,-14 269,-34 413,-74 165,-45 282,-97 462,-205 342,-206 520,-362 602,-528 33,-66 37,-81 36,-150 -1,-145 -67,-269 -263,-491 -216,-247 -510,-422 -853,-510 -146,-38 -283,-53 -472,-52 -387,1 -738,84 -942,222 -290,197 -453,560 -422,945 33,420 265,732 617,826 122,32 552,41 822,17 z m 4930,-1 c 100,-12 215,-51 297,-99 85,-50 219,-188 275,-285 57,-97 112,-257 129,-373 18,-126 7,-333 -24,-453 -92,-353 -333,-604 -674,-703 -435,-127 -908,-127 -1283,1 -120,41 -327,148 -429,221 -164,118 -357,322 -451,477 -174,287 -89,495 325,791 337,240 612,360 942,410 215,33 684,40 893,13 z M 5202,6099 c 21,-5 49,-20 63,-32 48,-43 593,-1001 621,-1092 25,-82 28,-164 7,-205 -51,-99 -205,-116 -360,-40 -66,32 -90,63 -158,200 -15,30 -39,70 -52,87 -58,75 -211,112 -327,79 -75,-22 -128,-75 -185,-185 -77,-148 -153,-208 -292,-230 -71,-12 -151,0 -189,27 -36,26 -60,80 -60,133 0,102 44,195 315,669 302,527 330,569 398,589 44,13 174,13 219,0 z"
           id="path44914"
           style="fill:#000000;fill-opacity:0.196078" />
        <path
           d="m 2199,3600 c -33,-19 -61,-109 -68,-220 -15,-242 25,-562 105,-840 54,-188 55,-202 64,-650 5,-234 13,-465 19,-515 42,-332 144,-479 379,-540 35,-9 121,-22 190,-29 l 127,-12 395,-151 c 217,-83 420,-156 450,-163 184,-43 386,-135 605,-276 172,-111 246,-147 354,-175 157,-40 479,-34 659,12 42,11 118,42 171,71 176,96 224,117 296,128 174,28 204,34 275,57 151,49 297,160 387,297 56,85 323,397 385,450 91,78 191,121 379,161 96,20 117,29 225,95 131,79 195,134 227,195 29,54 28,163 -2,265 -48,167 -54,247 -61,895 -7,637 -9,655 -52,740 -59,113 -159,103 -242,-24 -50,-76 -74,-159 -155,-544 -39,-186 -79,-353 -87,-370 -72,-141 -183,-183 -310,-116 -32,17 -75,39 -96,50 -84,43 -191,72 -275,73 -75,1 -85,-1 -125,-29 -29,-20 -52,-48 -71,-86 -29,-58 -56,-181 -57,-258 0,-40 -2,-43 -22,-38 -13,3 -57,9 -98,12 -103,9 -123,19 -172,84 -23,31 -51,64 -63,73 -29,25 -154,52 -198,44 -47,-9 -89,-52 -111,-113 -35,-98 -30,-93 -88,-93 -29,0 -83,-3 -119,-6 l -66,-7 -13,54 c -32,132 -47,147 -132,128 -69,-15 -98,-37 -98,-72 0,-46 -22,-61 -98,-65 l -69,-4 -80,81 c -182,185 -359,186 -468,3 -32,-54 -24,-51 -162,-68 l -51,-6 -20,38 c -26,51 -87,109 -134,129 -110,45 -199,-20 -230,-169 l -13,-59 -80,7 c -44,3 -94,6 -112,6 -28,0 -33,5 -46,43 -9,23 -18,80 -21,126 -3,50 -12,93 -21,107 -24,36 -88,64 -173,74 -42,5 -113,14 -157,19 l -80,10 -36,-39 c -46,-51 -78,-58 -123,-31 -34,21 -253,264 -289,321 -24,38 -52,157 -82,350 -37,244 -65,321 -162,458 -72,102 -149,144 -204,112 z"
           id="path44916"
           style="fill:#000000;fill-opacity:0.196078" />
      </g>
      <use
         x="0"
         y="0"
         xlink:href="#g44918"
         id="use49381"
         transform="translate(-0.40341971,-0.56626685)"
         width="100%"
         height="100%" />
    </g>
    <rect
       style="fill:none;fill-opacity:0.249804;stroke:#000000;stroke-width:1.04347;stroke-linecap:round;stroke-linejoin:round;stroke-miterlimit:4;stroke-dasharray:none;stroke-opacity:0.298039;paint-order:stroke fill markers"
       id="rect38048"
       width="54.798912"
       height="89.701622"
       x="-163.32657"
       y="-20.127985" />
    <use
       x="0"
       y="0"
       xlink:href="#rect38048"
       id="use38212"
       transform="matrix(0.96700651,0,0,1.0002121,60.463533,0.19052245)"
       width="100%"
       height="100%" />
    <use
       x="0"
       y="0"
       xlink:href="#use38212"
       id="use38214"
       transform="translate(63.66789,-0.08109155)"
       width="100%"
       height="100%" />
    <g
       id="g184854"
       transform="matrix(0.60657246,0,0,-0.46413266,-17.32645,32.170072)">
      <g
         id="g38022"
         transform="matrix(2.4364915,0,0,3.4591033,-249.34948,-169.20096)">
        <path
           style="fill:none;fill-opacity:0.249804;stroke:#000000;stroke-width:0.712381;stroke-linecap:round;stroke-linejoin:round;stroke-miterlimit:4;stroke-dasharray:none;stroke-opacity:0.298039"
           d="m 19.197098,49.230522 c 1.897242,-0.829976 2.15775,-1.16143 3.591002,-3.815101 -1.034868,3.82504 -0.464107,10.779586 -0.464107,10.779586"
           id="path33992"
           sodipodi:nodetypes="ccc" />
        <path
           style="fill:none;stroke:#000000;stroke-width:0.638;stroke-linecap:round;stroke-linejoin:round;stroke-miterlimit:4;stroke-dasharray:none;stroke-opacity:0.298039"
           d="m 23.367775,46.610834 c 0.654733,4.459876 2.248846,4.070176 2.248846,4.070176"
           id="path34586" />
      </g>
      <use
         x="0"
         y="0"
         xlink:href="#g38022"
         id="use67078"
         transform="translate(0.51282412,0.64715809)"
         width="100%"
         height="100%" />
    </g>
    <g
       id="g185188"
       transform="matrix(-0.91440425,0,0,-0.64750425,-348.44464,28.759235)">
      <g
         id="g185194"
         transform="matrix(0.62725182,0,0,0.7177912,-181.35262,39.102929)">
        <g
           id="g185184"
           transform="matrix(2.4364915,0,0,3.4591033,-249.34948,-169.20096)">
          <path
             style="fill:none;fill-opacity:0.249804;stroke:#000000;stroke-width:0.712381;stroke-linecap:round;stroke-linejoin:round;stroke-miterlimit:4;stroke-dasharray:none;stroke-opacity:0.298039"
             d="m 19.197098,49.230522 c 1.897242,-0.829976 2.15775,-1.16143 3.591002,-3.815101 -1.034868,3.82504 -0.464107,10.779586 -0.464107,10.779586"
             id="path185180"
             sodipodi:nodetypes="ccc" />
          <path
             style="fill:none;stroke:#000000;stroke-width:0.638;stroke-linecap:round;stroke-linejoin:round;stroke-miterlimit:4;stroke-dasharray:none;stroke-opacity:0.298039"
             d="m 23.367775,46.610834 c 0.654733,4.459876 2.248846,4.070176 2.248846,4.070176"
             id="path185182" />
        </g>
        <use
           x="0"
           y="0"
           xlink:href="#g38022"
           id="use185186"
           transform="translate(0.51282412,0.64715809)"
           width="100%"
           height="100%" />
      </g>
    </g>
    <use
       x="0"
       y="0"
       xlink:href="#rect38048"
       id="use185328"
       transform="translate(0.68706416,0.73383345)"
       width="100%"
       height="100%" />
    <use
       x="0"
       y="0"
       xlink:href="#use38212"
       id="use185330"
       transform="translate(0.68706416,0.61152745)"
       width="100%"
       height="100%" />
    <use
       x="0"
       y="0"
       xlink:href="#use38214"
       id="use185332"
       transform="translate(0.82447216,0.61152745)"
       width="100%"
       height="100%" />
    <g
       id="use33534"
       transform="matrix(2.0509771,0,0,1.9728291,-186.85781,-65.757618)">
      <path
         id="path51607"
         style="fill:#000000;fill-opacity:0.298039;stroke-width:0.175828;stroke-linecap:round;stroke-linejoin:round"
         d="m 28.935304,59.991489 0.209175,-0.0268 c 0,0 0.450767,-1.588077 0.309178,-2.041873 -0.03255,-0.104321 -0.143122,-0.09015 -0.209172,0.0268 -0.287339,0.508754 -0.309181,2.041873 -0.309181,2.041873 z"
         sodipodi:nodetypes="ccaac" />
      <path
         id="path51609"
         style="fill:#000000;fill-opacity:0.298039;stroke-width:0.175828;stroke-linecap:round;stroke-linejoin:round"
         d="m 29.216337,60.082742 0.194241,0.07526 c 0,0 1.293802,-1.146696 1.432233,-1.60129 0.03185,-0.104501 -0.07085,-0.14429 -0.194233,-0.07525 -0.536729,0.300259 -1.432241,1.601288 -1.432241,1.601288 z"
         sodipodi:nodetypes="ccaac" />
      <path
         id="path51611"
         style="fill:#000000;fill-opacity:0.298039;stroke-width:0.0473558;stroke-linejoin:bevel"
         d="m 27.851918,60.043443 c -0.169415,0.5903 -3.983769,-1.352189 -6.067327,-1.705227 -2.06309,-0.349565 -2.649587,-0.866208 -2.480171,-1.456506 0.169417,-0.590301 2.235983,-0.928329 3.981748,-0.08943 1.789872,0.860095 4.735166,2.660867 4.56575,3.251166 z"
         sodipodi:nodetypes="sssss"
         inkscape:transform-center-x="20.058482"
         inkscape:transform-center-y="-9.062828" />
      <g
         id="g51619"
         transform="matrix(0.12346506,-0.11514745,0.11560584,0.14602855,-1.9362781,50.786079)"
         inkscape:transform-center-x="-7.2284789"
         inkscape:transform-center-y="7.4527504"
         style="fill:#000000;fill-opacity:0.298039">
        <path
           id="path51613"
           style="fill:#000000;fill-opacity:0.298039;stroke-width:0.183859;stroke-linejoin:bevel"
           d="m 76.012201,134.47984 c -1.031201,-0.72282 -1.999098,-0.39848 -2.313027,1.10784 0.24106,2.72368 2.053139,8.89418 2.673981,10.35843 1.06601,0.50272 2.782239,0.2413 3.902782,-0.95284 0.0083,-1.57444 -2.687583,-8.62821 -4.263736,-10.51343 z"
           sodipodi:nodetypes="ccccc" />
        <path
           id="path51615"
           style="fill:#000000;fill-opacity:0.298039;stroke-width:0.134814;stroke-linejoin:bevel"
           d="m 76.116231,152.67315 c 0.383679,0.87819 1.121128,1.11705 1.887526,0.37656 0.871586,-1.69669 2.041243,-6.10062 2.197463,-7.23009 -0.488626,-0.7651 -1.678207,-1.37176 -2.839994,-1.17039 -0.597727,0.91544 -1.537776,6.22604 -1.244995,8.02392 z"
           sodipodi:nodetypes="ccccc" />
        <path
           id="path51617"
           style="fill:#000000;fill-opacity:0.298039;stroke-width:0.061786;stroke-linejoin:bevel"
           d="m 77.954442,158.0264 c 0.293437,0.21911 0.524822,-0.006 0.538324,-0.68112 -0.180804,-1.14886 -0.911685,-3.63933 -1.133553,-4.2134 -0.292611,-0.12143 -0.716658,0.1431 -0.948574,0.75554 0.06703,0.67721 1.06101,3.46878 1.543803,4.13898 z"
           sodipodi:nodetypes="ccccc" />
      </g>
      <g
         id="g51631"
         transform="matrix(-0.08946625,0.10170347,0.09938224,0.09631102,19.798132,41.101269)"
         inkscape:transform-center-x="-2.3288859"
         inkscape:transform-center-y="3.3020355"
         style="fill:#000000;fill-opacity:0.298039">
        <g
           id="g51627"
           transform="translate(2.9423077,-12.115385)"
           style="fill:#000000;fill-opacity:0.298039">
          <path
             id="path51621"
             style="fill:#000000;fill-opacity:0.298039;stroke-width:0.167231;stroke-linejoin:bevel"
             d="m 81.839819,151.40775 c -0.728592,0.76184 -1.59969,0.49853 -2.143846,-0.95394 -0.30669,-2.67065 0.05865,-8.79051 0.305151,-10.25322 0.798839,-0.549 2.28487,-0.38814 3.44621,0.71544 0.300959,1.53568 -0.639609,8.56584 -1.607515,10.49172 z"
             sodipodi:nodetypes="ccccc" />
          <path
             id="path51623"
             style="fill:#000000;fill-opacity:0.298039;stroke-width:0.118932;stroke-linejoin:bevel"
             d="m 82.56848,159.69211 c 0.556927,0.53055 1.04703,0.22053 1.160404,-1.00902 -0.213317,-2.18252 -1.351462,-7.06336 -1.720241,-8.21199 -0.567808,-0.35142 -1.447016,-0.0545 -1.987791,0.96406 0.04693,1.26905 1.670985,6.81715 2.547628,8.25695 z"
             sodipodi:nodetypes="ccccc" />
          <path
             id="path51625"
             style="fill:#000000;fill-opacity:0.298039;stroke-width:0.107589;stroke-linejoin:bevel"
             d="m 87.035628,144.09077 c 0.102154,0.62736 -0.424793,0.85756 -1.465919,0.43114 -1.61058,-1.06032 -4.833622,-3.91527 -5.534282,-4.66102 0.04626,-0.56109 0.78579,-1.08146 1.904287,-1.0552 0.980671,0.5601 4.455074,4.04708 5.095914,5.28508 z"
             sodipodi:nodetypes="ccccc" />
        </g>
        <path
           id="path51629"
           style="fill:#000000;fill-opacity:0.298039;stroke-width:0.0435123;stroke-linejoin:bevel"
           d="m 84.765478,149.96654 c 0.132811,0.16366 0.415499,0.0759 0.727924,-0.28983 0.371454,-0.65319 0.910112,-2.12029 0.992277,-2.46653 -0.17584,-0.11032 -0.627619,-0.0302 -1.08385,0.26846 -0.250051,0.37906 -0.716417,2.04991 -0.636351,2.4879 z"
           sodipodi:nodetypes="ccccc"
           inkscape:transform-center-x="-1.9038462"
           inkscape:transform-center-y="-1.125" />
      </g>
      <g
         id="g51641"
         transform="matrix(0.14156771,0.06454895,-0.07641754,0.12914827,25.545166,37.578603)"
         style="fill:#000000;fill-opacity:0.298039"
         inkscape:transform-center-x="2.4162207"
         inkscape:transform-center-y="3.5514452">
        <path
           id="path51633"
           style="fill:#000000;fill-opacity:0.298039;stroke-width:0.0677414;stroke-linejoin:bevel"
           d="m 90.072785,143.47158 c -0.1172,0.4565 0.142525,0.64258 0.743364,0.36426 0.96932,-0.72424 2.98202,-2.71093 3.432004,-3.23452 0.03101,-0.41282 -0.31387,-0.81859 -0.916391,-0.83615 -0.581707,0.3783 -2.792103,2.82001 -3.258977,3.70641 z"
           sodipodi:nodetypes="ccccc" />
        <path
           id="path51635"
           style="fill:#000000;fill-opacity:0.298039;stroke-width:0.107589;stroke-linejoin:bevel"
           d="m 93.069103,140.07664 c 0.317408,-0.5507 0.871242,-0.39598 1.408429,0.59256 0.57775,1.83968 1.270522,6.08925 1.342046,7.11001 -0.390521,0.40553 -1.292501,0.34128 -2.142591,-0.38609 -0.405849,-1.0539 -0.893874,-5.95211 -0.607884,-7.31648 z"
           sodipodi:nodetypes="ccccc" />
        <path
           id="path51637"
           style="fill:#000000;fill-opacity:0.298039;stroke-width:0.0850969;stroke-linejoin:bevel"
           d="m 93.328073,153.7976 c -0.450687,0.46505 -0.848362,0.38387 -0.941918,-0.36581 0.169926,-1.42753 1.085755,-4.77445 1.383106,-5.58567 0.459721,-0.35453 1.17279,-0.37253 1.612492,0.14405 -0.0363,0.81204 -1.34508,4.6937 -2.053668,5.80739 z"
           sodipodi:nodetypes="ccccc" />
        <path
           id="path51639"
           style="fill:#000000;fill-opacity:0.298039;stroke-width:0.0364336;stroke-linejoin:bevel"
           d="m 94.025861,156.10509 c 0.190183,0.0194 0.281417,-0.18475 0.189069,-0.56177 -0.266784,-0.57121 -1.027428,-1.69233 -1.231484,-1.9323 -0.175323,0.0342 -0.364393,0.32662 -0.398775,0.7446 0.135986,0.35038 1.082585,1.54666 1.441186,1.74947 z"
           sodipodi:nodetypes="ccccc" />
      </g>
      <path
         id="path51643"
         style="fill:#000000;fill-opacity:0.137255;stroke-width:0.0306293;stroke-linejoin:bevel"
         d="m 22.331804,60.969474 c 0.06346,0.107103 0.135366,0.264388 -0.03334,0.342315 -0.179013,0.08269 -0.63504,-0.192206 -1.995896,0.394763 0.13236,-0.581242 1.411052,-1.013292 1.618932,-1.009768 0.20788,0.0035 0.349882,0.170714 0.410305,0.27269 z"
         sodipodi:nodetypes="scccs" />
      <g
         id="g51655"
         transform="matrix(0.17753323,0,0,0.1608351,10.756124,41.122585)"
         style="fill:#000000;fill-opacity:0.137255">
        <ellipse
           style="fill:#000000;fill-opacity:0.137255;stroke-width:0.276598;stroke-linejoin:bevel"
           id="ellipse51645"
           cx="76.772659"
           cy="123.92308"
           rx="15.650415"
           ry="10.730769" />
        <ellipse
           style="fill:#000000;fill-opacity:0.137255;stroke-width:0.254343;stroke-linejoin:bevel"
           id="ellipse51647"
           cx="78.944977"
           cy="123.98428"
           rx="13.233335"
           ry="10.730769" />
        <ellipse
           style="fill:#000000;fill-opacity:0.137255;stroke-width:0.234454;stroke-linejoin:bevel"
           id="ellipse51649"
           cx="81.178482"
           cy="123.92308"
           rx="11.244596"
           ry="10.730769" />
        <ellipse
           style="fill:#000000;fill-opacity:0.137255;stroke-width:0.211655;stroke-linejoin:bevel"
           id="ellipse51651"
           cx="83.014244"
           cy="123.98428"
           rx="9.1640711"
           ry="10.730769" />
        <ellipse
           style="fill:#000000;fill-opacity:0.137255;stroke-width:0.179123;stroke-linejoin:bevel"
           id="ellipse51653"
           cx="85.859665"
           cy="123.92308"
           rx="6.5634127"
           ry="10.730769" />
      </g>
      <g
         id="g51661"
         transform="matrix(0.17753323,0,0,0.1608351,8.5399496,41.319421)"
         style="fill:#000000;fill-opacity:0.137255">
        <ellipse
           style="fill:#000000;fill-opacity:0.137255;stroke-width:0.183264;stroke-linejoin:bevel"
           id="ellipse51657"
           cx="103.69713"
           cy="122.77692"
           rx="7.573081"
           ry="9.7352018" />
        <ellipse
           style="fill:#000000;fill-opacity:0.137255;stroke-width:0.169785;stroke-linejoin:bevel"
           id="ellipse51659"
           cx="105.3187"
           cy="122.58856"
           rx="6.5634127"
           ry="9.6410179" />
      </g>
      <g
         id="g51667"
         transform="matrix(0.17753323,0,0,0.1608351,9.5799546,41.122585)"
         style="fill:#000000;fill-opacity:0.298039">
        <ellipse
           style="fill:#000000;fill-opacity:0.298039;stroke-width:0.307943;stroke-linejoin:bevel"
           id="ellipse51663"
           cx="103.8029"
           cy="122.27885"
           rx="6.7932696"
           ry="7.5288458" />
        <ellipse
           style="fill:#000000;fill-opacity:0.298039;stroke-width:0.307943;stroke-linejoin:bevel"
           id="ellipse51665"
           cx="106.13943"
           cy="122.45192"
           rx="6.7932696"
           ry="7.5288458" />
      </g>
      <path
         id="path51669"
         style="fill:#000000;fill-opacity:0.298039;stroke-width:0.0473558;stroke-linejoin:bevel"
         d="m 28.29996,59.955552 c -0.0031,0.609918 -4.229066,-0.418308 -6.3443,-0.293901 -2.094454,0.12319 -2.803695,-0.246113 -2.800566,-0.856033 0.0031,-0.609921 1.913379,-1.400154 3.833838,-0.978143 1.968982,0.432675 5.314156,1.518156 5.311028,2.128077 z"
         sodipodi:nodetypes="sssss"
         inkscape:transform-center-x="22.433446"
         inkscape:transform-center-y="-5.0898739" />
      <ellipse
         style="fill:#000000;fill-opacity:0.298039;stroke-width:0.012995;stroke-linejoin:bevel"
         id="ellipse51671"
         cx="-57.692753"
         cy="34.399857"
         rx="0.74484426"
         ry="0.49766856"
         transform="matrix(0.08115307,-0.99670165,0.9966404,0.08190185,0,0)" />
      <ellipse
         style="fill:#000000;fill-opacity:0.298039;stroke-width:0.0124471;stroke-linejoin:bevel"
         id="ellipse51673"
         cx="-56.328903"
         cy="35.654797"
         rx="0.6754337"
         ry="0.50350922"
         transform="matrix(0.10068237,-0.99491862,0.99215442,0.12501839,0,0)" />
      <path
         id="path51675"
         style="fill:#000000;fill-opacity:0.298039;stroke-width:0.0230407;stroke-linejoin:bevel"
         d="m 28.364652,59.918164 c 0.443774,-0.174488 1.602138,-0.02188 1.716154,0.644379 0.09226,0.5391 -0.753372,2.179642 -1.223029,1.982876 -0.572015,-0.261239 -1.281899,-2.305932 -0.493125,-2.627255 z"
         sodipodi:nodetypes="cscc" />
      <ellipse
         style="fill:#000000;fill-opacity:0.137255;stroke-width:0.016034;stroke-linejoin:bevel"
         id="ellipse51677"
         cx="-56.182026"
         cy="34.175541"
         rx="0.86196488"
         ry="0.65471298"
         transform="matrix(0.09313842,-0.99565317,0.99147184,0.13032107,0,0)" />
      <ellipse
         style="fill:#000000;fill-opacity:0.137255;stroke-width:0.0130805;stroke-linejoin:bevel"
         id="ellipse51679"
         cx="-57.262184"
         cy="36.405594"
         rx="0.73951977"
         ry="0.50786805"
         transform="matrix(0.13192461,-0.99125975,0.99492331,0.10063597,0,0)" />
      <path
         id="path51681"
         style="fill:#000000;fill-opacity:0.137255;stroke-width:0.0311349;stroke-linejoin:bevel"
         d="m 25.095732,62.721931 c -0.0046,0.193342 -0.158778,0.227767 -0.41821,0.03347 -0.380772,-0.41982 -1.105145,-1.47816 -1.256198,-1.745465 0.04129,-0.164019 0.267806,-0.271057 0.568674,-0.190868 0.236237,0.230173 0.996099,1.492901 1.105734,1.902861 z"
         sodipodi:nodetypes="ccccc"
         inkscape:transform-center-x="3.0218108"
         inkscape:transform-center-y="-4.7623961" />
      <g
         id="g51689"
         transform="matrix(0.1467532,-0.09051074,0.09990769,0.13295012,0.27343323,50.059355)"
         inkscape:transform-center-x="5.030381"
         inkscape:transform-center-y="11.822894"
         style="fill:#000000;fill-opacity:0.298039">
        <path
           id="path51683"
           style="fill:#000000;fill-opacity:0.298039;stroke-width:0.238437;stroke-linejoin:bevel"
           d="m 71.866923,127.24052 c 1.58303,0.50072 2.111456,1.76647 0.945098,3.28886 -2.809211,1.91023 -10.269668,4.91898 -12.205271,5.43414 -1.403032,-0.71165 -2.639496,-2.70709 -2.469645,-4.82209 1.496002,-1.25808 10.565089,-4.04694 13.729818,-3.90091 z"
           sodipodi:nodetypes="ccccc" />
        <path
           id="path51685"
           style="fill:#000000;fill-opacity:0.298039;stroke-width:0.195403;stroke-linejoin:bevel"
           d="m 52.587066,140.91283 c -1.428091,0.075 -2.30686,-0.69679 -1.946849,-2.12372 1.509947,-2.16291 6.275401,-6.40982 7.608942,-7.31914 1.363753,0.12781 3.066348,1.23282 3.706838,2.81377 -0.715951,1.32647 -6.826861,5.85913 -9.368931,6.62909 z"
           sodipodi:nodetypes="ccccc" />
        <path
           id="path51687"
           style="fill:#000000;fill-opacity:0.298039;stroke-width:0.080127;stroke-linejoin:bevel"
           d="m 48.047939,144.29152 c -0.464879,0.12609 -0.668889,-0.24107 -0.410426,-1.03847 0.700572,-1.2663 2.652844,-3.86028 3.17116,-4.43441 0.423925,-0.0119 0.858333,0.48719 0.90484,1.30857 -0.362374,0.76406 -2.774208,3.59378 -3.665577,4.16431 z"
           sodipodi:nodetypes="ccccc" />
      </g>
      <g
         id="g51701"
         transform="matrix(0.15372915,0.08044756,-0.08879975,0.13926995,23.546398,36.948281)"
         inkscape:transform-center-x="3.8129553"
         inkscape:transform-center-y="8.6499269"
         style="fill:#000000;fill-opacity:0.298039">
        <g
           id="g51697"
           transform="translate(2.9423077,-12.115385)"
           style="fill:#000000;fill-opacity:0.298039">
          <path
             id="path51691"
             style="fill:#000000;fill-opacity:0.298039;stroke-width:0.167231;stroke-linejoin:bevel"
             d="m 81.839819,151.40775 c -0.728592,0.76184 -1.59969,0.49853 -2.143846,-0.95394 -0.30669,-2.67065 0.05865,-8.79051 0.305151,-10.25322 0.798839,-0.549 2.28487,-0.38814 3.44621,0.71544 0.300959,1.53568 -0.639609,8.56584 -1.607515,10.49172 z"
             sodipodi:nodetypes="ccccc" />
          <path
             id="path51693"
             style="fill:#000000;fill-opacity:0.298039;stroke-width:0.118932;stroke-linejoin:bevel"
             d="m 82.56848,159.69211 c 0.556927,0.53055 1.04703,0.22053 1.160404,-1.00902 -0.213317,-2.18252 -1.351462,-7.06336 -1.720241,-8.21199 -0.567808,-0.35142 -1.447016,-0.0545 -1.987791,0.96406 0.04693,1.26905 1.670985,6.81715 2.547628,8.25695 z"
             sodipodi:nodetypes="ccccc" />
          <path
             id="path51695"
             style="fill:#000000;fill-opacity:0.298039;stroke-width:0.107589;stroke-linejoin:bevel"
             d="m 87.035628,144.09077 c 0.102154,0.62736 -0.424793,0.85756 -1.465919,0.43114 -1.61058,-1.06032 -4.833622,-3.91527 -5.534282,-4.66102 0.04626,-0.56109 0.78579,-1.08146 1.904287,-1.0552 0.980671,0.5601 4.455074,4.04708 5.095914,5.28508 z"
             sodipodi:nodetypes="ccccc" />
        </g>
        <path
           id="path51699"
           style="fill:#000000;fill-opacity:0.298039;stroke-width:0.0435123;stroke-linejoin:bevel"
           d="m 84.765478,149.96654 c 0.132811,0.16366 0.415499,0.0759 0.727924,-0.28983 0.371454,-0.65319 0.910112,-2.12029 0.992277,-2.46653 -0.17584,-0.11032 -0.627619,-0.0302 -1.08385,0.26846 -0.250051,0.37906 -0.716417,2.04991 -0.636351,2.4879 z"
           sodipodi:nodetypes="ccccc"
           inkscape:transform-center-x="-1.9038462"
           inkscape:transform-center-y="-1.125" />
      </g>
      <g
         id="g51711"
         transform="matrix(0.18338423,-0.06353394,0.08650006,0.14938382,-1.8971359,46.633735)"
         style="fill:#000000;fill-opacity:0.298039">
        <path
           id="path51703"
           style="fill:#000000;fill-opacity:0.298039;stroke-width:0.0677414;stroke-linejoin:bevel"
           d="m 90.072785,143.47158 c -0.1172,0.4565 0.142525,0.64258 0.743364,0.36426 0.96932,-0.72424 2.98202,-2.71093 3.432004,-3.23452 0.03101,-0.41282 -0.31387,-0.81859 -0.916391,-0.83615 -0.581707,0.3783 -2.792103,2.82001 -3.258977,3.70641 z"
           sodipodi:nodetypes="ccccc" />
        <path
           id="path51705"
           style="fill:#000000;fill-opacity:0.298039;stroke-width:0.107589;stroke-linejoin:bevel"
           d="m 93.069103,140.07664 c 0.317408,-0.5507 0.871242,-0.39598 1.408429,0.59256 0.57775,1.83968 1.270522,6.08925 1.342046,7.11001 -0.390521,0.40553 -1.292501,0.34128 -2.142591,-0.38609 -0.405849,-1.0539 -0.893874,-5.95211 -0.607884,-7.31648 z"
           sodipodi:nodetypes="ccccc" />
        <path
           id="path51707"
           style="fill:#000000;fill-opacity:0.298039;stroke-width:0.0850969;stroke-linejoin:bevel"
           d="m 93.328073,153.7976 c -0.450687,0.46505 -0.848362,0.38387 -0.941918,-0.36581 0.169926,-1.42753 1.085755,-4.77445 1.383106,-5.58567 0.459721,-0.35453 1.17279,-0.37253 1.612492,0.14405 -0.0363,0.81204 -1.34508,4.6937 -2.053668,5.80739 z"
           sodipodi:nodetypes="ccccc" />
        <path
           id="path51709"
           style="fill:#000000;fill-opacity:0.298039;stroke-width:0.0364336;stroke-linejoin:bevel"
           d="m 94.025861,156.10509 c 0.190183,0.0194 0.281417,-0.18475 0.189069,-0.56177 -0.266784,-0.57121 -1.027428,-1.69233 -1.231484,-1.9323 -0.175323,0.0342 -0.364393,0.32662 -0.398775,0.7446 0.135986,0.35038 1.082585,1.54666 1.441186,1.74947 z"
           sodipodi:nodetypes="ccccc" />
      </g>
    </g>
    <use
       x="0"
       y="0"
       xlink:href="#use33534"
       id="use4655"
       transform="rotate(8.468378,67.844484,467.11272)"
       width="100%"
       height="100%" />
  </g>
</svg>
