<?xml version="1.0" encoding="UTF-8" standalone="no"?>
<!-- Created with Inkscape (http://www.inkscape.org/) -->

<svg
   width="179.61028"
   height="225.32814"
   viewBox="0 0 47.521885 59.618072"
   version="1.1"
   id="svg5"
   inkscape:version="1.1 (c68e22c387, 2021-05-23)"
   sodipodi:docname="honey-maker.svg"
   xmlns:inkscape="http://www.inkscape.org/namespaces/inkscape"
   xmlns:sodipodi="http://sodipodi.sourceforge.net/DTD/sodipodi-0.dtd"
   xmlns="http://www.w3.org/2000/svg"
   xmlns:svg="http://www.w3.org/2000/svg">
  <sodipodi:namedview
     id="namedview7"
     pagecolor="#505050"
     bordercolor="#ffffff"
     borderopacity="1"
     inkscape:pageshadow="0"
     inkscape:pageopacity="0"
     inkscape:pagecheckerboard="1"
     inkscape:document-units="mm"
     showgrid="false"
     inkscape:snap-global="false"
     inkscape:zoom="2.1619135"
     inkscape:cx="23.358936"
     inkscape:cy="107.54362"
     inkscape:window-width="1920"
     inkscape:window-height="1017"
     inkscape:window-x="1272"
     inkscape:window-y="-8"
     inkscape:window-maximized="1"
     inkscape:current-layer="layer1"
     fit-margin-top="0"
     fit-margin-left="0"
     fit-margin-right="0"
     fit-margin-bottom="0"
     units="px" />
  <defs
     id="defs2" />
  <g
     inkscape:label="Layer 1"
     inkscape:groupmode="layer"
     id="layer1"
     transform="translate(-54.634925,-86.969041)">
    <path
       id="path117403"
       style="fill:#050505;stroke-width:1.04054;stroke-linecap:round;stroke-linejoin:round"
       d="m 80.528936,98.059266 0.715838,0.950546 c 0,0 9.869934,-2.554666 11.953432,-4.61766 0.478964,-0.47425 0.100575,-0.976705 -0.715838,-0.950546 -3.551403,0.113793 -11.953432,4.61766 -11.953432,4.61766 z"
       sodipodi:nodetypes="ccaac" />
    <path
       id="rect115545"
       style="fill:#050505;stroke-width:1.01735;stroke-linecap:round;stroke-linejoin:round"
       d="m 80.025732,95.231143 0.950133,0.74263 c 0,0 8.562496,-4.586239 9.928487,-6.996829 0.314019,-0.554158 -0.188216,-0.946708 -0.950134,-0.742629 -3.314341,0.887746 -9.928486,6.996828 -9.928486,6.996828 z"
       sodipodi:nodetypes="ccaac" />
    <g
       id="g18128"
       transform="matrix(0.26175288,-0.84511798,0.83530173,0.15825825,-57.062623,162.58021)">
      <path
         id="path18105"
         style="fill:#050505;stroke-width:0.0677414;stroke-linejoin:bevel"
         d="m 90.072785,143.47158 c -0.1172,0.4565 0.142525,0.64258 0.743364,0.36426 0.96932,-0.72424 2.98202,-2.71093 3.432004,-3.23452 0.03101,-0.41282 -0.31387,-0.81859 -0.916391,-0.83615 -0.581707,0.3783 -2.792103,2.82001 -3.258977,3.70641 z"
         sodipodi:nodetypes="ccccc" />
      <path
         id="path18000"
         style="fill:#050505;stroke-width:0.107589;stroke-linejoin:bevel"
         d="m 93.069103,140.07664 c 0.317408,-0.5507 0.871242,-0.39598 1.408429,0.59256 0.57775,1.83968 1.270522,6.08925 1.342046,7.11001 -0.390521,0.40553 -1.292501,0.34128 -2.142591,-0.38609 -0.405849,-1.0539 -0.893874,-5.95211 -0.607884,-7.31648 z"
         sodipodi:nodetypes="ccccc" />
      <path
         id="path18120"
         style="fill:#050505;stroke-width:0.0850969;stroke-linejoin:bevel"
         d="m 93.328073,153.7976 c -0.450687,0.46505 -0.848362,0.38387 -0.941918,-0.36581 0.169926,-1.42753 1.085755,-4.77445 1.383106,-5.58567 0.459721,-0.35453 1.17279,-0.37253 1.612492,0.14405 -0.0363,0.81204 -1.34508,4.6937 -2.053668,5.80739 z"
         sodipodi:nodetypes="ccccc" />
      <path
         id="path18122"
         style="fill:#050505;stroke-width:0.0364336;stroke-linejoin:bevel"
         d="m 94.025861,156.10509 c 0.190183,0.0194 0.281417,-0.18475 0.189069,-0.56177 -0.266784,-0.57121 -1.027428,-1.69233 -1.231484,-1.9323 -0.175323,0.0342 -0.364393,0.32662 -0.398775,0.7446 0.135986,0.35038 1.082585,1.54666 1.441186,1.74947 z"
         sodipodi:nodetypes="ccccc" />
    </g>
    <g
       id="g18138"
       transform="matrix(-0.39127144,-0.69921378,-0.68764122,0.32416883,201.50528,126.51744)">
      <path
         id="path18130"
         style="fill:#050505;stroke-width:0.0677414;stroke-linejoin:bevel"
         d="m 90.072785,143.47158 c -0.1172,0.4565 0.142525,0.64258 0.743364,0.36426 0.96932,-0.72424 2.98202,-2.71093 3.432004,-3.23452 0.03101,-0.41282 -0.31387,-0.81859 -0.916391,-0.83615 -0.581707,0.3783 -2.792103,2.82001 -3.258977,3.70641 z"
         sodipodi:nodetypes="ccccc" />
      <path
         id="path18132"
         style="fill:#050505;stroke-width:0.107589;stroke-linejoin:bevel"
         d="m 93.069103,140.07664 c 0.317408,-0.5507 0.871242,-0.39598 1.408429,0.59256 0.57775,1.83968 1.270522,6.08925 1.342046,7.11001 -0.390521,0.40553 -1.292501,0.34128 -2.142591,-0.38609 -0.405849,-1.0539 -0.893874,-5.95211 -0.607884,-7.31648 z"
         sodipodi:nodetypes="ccccc" />
      <path
         id="path18134"
         style="fill:#050505;stroke-width:0.0850969;stroke-linejoin:bevel"
         d="m 93.328073,153.7976 c -0.450687,0.46505 -0.848362,0.38387 -0.941918,-0.36581 0.169926,-1.42753 1.085755,-4.77445 1.383106,-5.58567 0.459721,-0.35453 1.17279,-0.37253 1.612492,0.14405 -0.0363,0.81204 -1.34508,4.6937 -2.053668,5.80739 z"
         sodipodi:nodetypes="ccccc" />
      <path
         id="path18136"
         style="fill:#050505;stroke-width:0.0364336;stroke-linejoin:bevel"
         d="m 94.025861,156.10509 c 0.190183,0.0194 0.281417,-0.18475 0.189069,-0.56177 -0.266784,-0.57121 -1.027428,-1.69233 -1.231484,-1.9323 -0.175323,0.0342 -0.364393,0.32662 -0.398775,0.7446 0.135986,0.35038 1.082585,1.54666 1.441186,1.74947 z"
         sodipodi:nodetypes="ccccc" />
    </g>
    <g
       id="g4846"
       transform="matrix(0.01459006,-1.0534621,-1.3436951,-0.00899471,244.26493,205.85096)">
      <ellipse
         style="fill:#050505;fill-opacity:1;stroke-width:0.276598;stroke-linejoin:bevel"
         id="path846"
         cx="76.772659"
         cy="123.92308"
         rx="15.650415"
         ry="10.730769" />
      <ellipse
         style="fill:#f8ff25;fill-opacity:1;stroke-width:0.254343;stroke-linejoin:bevel"
         id="ellipse1398"
         cx="78.944977"
         cy="123.98428"
         rx="13.233335"
         ry="10.730769" />
      <ellipse
         style="fill:#050505;fill-opacity:1;stroke-width:0.234454;stroke-linejoin:bevel"
         id="ellipse1840"
         cx="81.178482"
         cy="123.92308"
         rx="11.244596"
         ry="10.730769" />
      <ellipse
         style="fill:#f8ff25;fill-opacity:1;stroke-width:0.211655;stroke-linejoin:bevel"
         id="ellipse1842"
         cx="83.014244"
         cy="123.98428"
         rx="9.1640711"
         ry="10.730769" />
      <ellipse
         style="fill:#050505;fill-opacity:1;stroke-width:0.179123;stroke-linejoin:bevel"
         id="ellipse1844"
         cx="85.859665"
         cy="123.92308"
         rx="6.5634127"
         ry="10.730769" />
    </g>
    <g
       id="g4839"
       transform="matrix(-0.2319883,-0.90301318,-1.1231028,0.14667368,240.40898,185.93667)">
      <ellipse
         style="fill:#f8ff25;fill-opacity:1;stroke-width:0.183264;stroke-linejoin:bevel"
         id="ellipse4835"
         cx="103.69713"
         cy="122.77692"
         rx="7.573081"
         ry="9.7352018" />
      <ellipse
         style="fill:#050505;fill-opacity:1;stroke-width:0.169785;stroke-linejoin:bevel"
         id="ellipse4833"
         cx="105.3187"
         cy="122.58856"
         rx="6.5634127"
         ry="9.6410179" />
    </g>
    <g
       id="g18533"
       transform="matrix(0.4854251,0.6041665,-0.5407942,0.45068007,94.590754,2.8678583)">
      <g
         id="g18112"
         transform="translate(2.9423077,-12.115385)">
        <path
           id="path17998"
           style="fill:#050505;stroke-width:0.167231;stroke-linejoin:bevel"
           d="m 81.839819,151.40775 c -0.728592,0.76184 -1.59969,0.49853 -2.143846,-0.95394 -0.30669,-2.67065 0.05865,-8.79051 0.305151,-10.25322 0.798839,-0.549 2.28487,-0.38814 3.44621,0.71544 0.300959,1.53568 -0.639609,8.56584 -1.607515,10.49172 z"
           sodipodi:nodetypes="ccccc" />
        <path
           id="path18103"
           style="fill:#050505;stroke-width:0.118932;stroke-linejoin:bevel"
           d="m 82.56848,159.69211 c 0.556927,0.53055 1.04703,0.22053 1.160404,-1.00902 -0.213317,-2.18252 -1.351462,-7.06336 -1.720241,-8.21199 -0.567808,-0.35142 -1.447016,-0.0545 -1.987791,0.96406 0.04693,1.26905 1.670985,6.81715 2.547628,8.25695 z"
           sodipodi:nodetypes="ccccc" />
        <path
           id="path18107"
           style="fill:#050505;stroke-width:0.107589;stroke-linejoin:bevel"
           d="m 87.035628,144.09077 c 0.102154,0.62736 -0.424793,0.85756 -1.465919,0.43114 -1.61058,-1.06032 -4.833622,-3.91527 -5.534282,-4.66102 0.04626,-0.56109 0.78579,-1.08146 1.904287,-1.0552 0.980671,0.5601 4.455074,4.04708 5.095914,5.28508 z"
           sodipodi:nodetypes="ccccc" />
      </g>
      <path
         id="path18118"
         style="fill:#050505;stroke-width:0.0435123;stroke-linejoin:bevel"
         d="m 84.765478,149.96654 c 0.132811,0.16366 0.415499,0.0759 0.727924,-0.28983 0.371454,-0.65319 0.910112,-2.12029 0.992277,-2.46653 -0.17584,-0.11032 -0.627619,-0.0302 -1.08385,0.26846 -0.250051,0.37906 -0.716417,2.04991 -0.636351,2.4879 z"
         sodipodi:nodetypes="ccccc"
         inkscape:transform-center-x="-1.9038462"
         inkscape:transform-center-y="-1.125" />
    </g>
    <g
       id="g14903"
       transform="matrix(0.0956905,-0.68514186,-1.0212126,-0.05048294,192.76496,181.57816)">
      <ellipse
         style="fill:#f0ff00;fill-opacity:1;stroke-width:0.307943;stroke-linejoin:bevel"
         id="path9417"
         cx="103.8029"
         cy="122.27885"
         rx="6.7932696"
         ry="7.5288458" />
      <ellipse
         style="fill:#050505;fill-opacity:1;stroke-width:0.307943;stroke-linejoin:bevel"
         id="ellipse11237"
         cx="106.13943"
         cy="122.45192"
         rx="6.7932696"
         ry="7.5288458" />
    </g>
    <g
       id="g113312"
       transform="translate(0.87153472,-7.3158842)">
      <path
         id="path18002"
         style="fill:#050505;stroke-width:0.159287;stroke-linejoin:bevel"
         d="m 68.722224,139.35098 c 0.855151,0.55302 1.363597,-0.0258 1.117391,-1.74752 -0.949481,-2.92621 -3.890042,-9.26295 -4.706827,-10.72254 -0.812303,-0.30399 -1.805866,0.37892 -2.154294,1.94527 0.456756,1.72566 4.207669,8.82513 5.743766,10.52478 z"
         sodipodi:nodetypes="ccccc" />
      <g
         id="g887"
         transform="matrix(-0.21631179,-0.8921807,-0.79075325,0.19350898,181.42905,167.38203)">
        <path
           id="rect15412"
           style="fill:#050505;stroke-width:0.238437;stroke-linejoin:bevel"
           d="m 71.550795,127.11776 c 1.656744,-0.10914 2.609229,0.87783 2.07625,2.72011 -1.922366,2.80092 -7.778193,8.31638 -9.393998,9.50007 -1.565756,-0.15279 -3.443139,-1.56207 -4.053932,-3.59406 0.936165,-1.71592 8.370467,-7.61145 11.37168,-8.62612 z"
           sodipodi:nodetypes="ccccc" />
        <path
           id="path18114"
           style="fill:#050505;stroke-width:0.195403;stroke-linejoin:bevel"
           d="m 54.178057,145.93056 c -1.428091,0.075 -2.30686,-0.69679 -1.946849,-2.12372 1.509947,-2.16291 6.275401,-6.40982 7.608942,-7.31914 1.363753,0.12781 3.066348,1.23282 3.706838,2.81377 -0.715951,1.32647 -6.826861,5.85913 -9.368931,6.62909 z"
           sodipodi:nodetypes="ccccc" />
        <path
           id="path18116"
           style="fill:#050505;stroke-width:0.080127;stroke-linejoin:bevel"
           d="m 47.742761,147.71992 c -0.45692,-0.15243 -0.423485,-0.57113 0.233285,-1.09199 1.284563,-0.6665 4.34659,-1.74542 5.096106,-1.93648 0.359611,0.2248 0.444949,0.88097 0.02884,1.59068 -0.724835,0.43556 -4.300073,1.4563 -5.358235,1.43779 z"
           sodipodi:nodetypes="ccccc" />
      </g>
    </g>
    <g
       id="g18545"
       transform="matrix(-0.6754915,0.62169332,0.55129233,0.59899837,76.449248,-18.630979)">
      <g
         id="g18541"
         transform="translate(2.9423077,-12.115385)">
        <path
           id="path18535"
           style="fill:#050505;stroke-width:0.167231;stroke-linejoin:bevel"
           d="m 81.839819,151.40775 c -0.728592,0.76184 -1.59969,0.49853 -2.143846,-0.95394 -0.30669,-2.67065 0.05865,-8.79051 0.305151,-10.25322 0.798839,-0.549 2.28487,-0.38814 3.44621,0.71544 0.300959,1.53568 -0.639609,8.56584 -1.607515,10.49172 z"
           sodipodi:nodetypes="ccccc" />
        <path
           id="path18537"
           style="fill:#050505;stroke-width:0.118932;stroke-linejoin:bevel"
           d="m 82.56848,159.69211 c 0.556927,0.53055 1.04703,0.22053 1.160404,-1.00902 -0.213317,-2.18252 -1.351462,-7.06336 -1.720241,-8.21199 -0.567808,-0.35142 -1.447016,-0.0545 -1.987791,0.96406 0.04693,1.26905 1.670985,6.81715 2.547628,8.25695 z"
           sodipodi:nodetypes="ccccc" />
        <path
           id="path18539"
           style="fill:#050505;stroke-width:0.107589;stroke-linejoin:bevel"
           d="m 87.035628,144.09077 c 0.102154,0.62736 -0.424793,0.85756 -1.465919,0.43114 -1.61058,-1.06032 -4.833622,-3.91527 -5.534282,-4.66102 0.04626,-0.56109 0.78579,-1.08146 1.904287,-1.0552 0.980671,0.5601 4.455074,4.04708 5.095914,5.28508 z"
           sodipodi:nodetypes="ccccc" />
      </g>
      <path
         id="path18543"
         style="fill:#050505;stroke-width:0.0435123;stroke-linejoin:bevel"
         d="m 84.765478,149.96654 c 0.132811,0.16366 0.415499,0.0759 0.727924,-0.28983 0.371454,-0.65319 0.910112,-2.12029 0.992277,-2.46653 -0.17584,-0.11032 -0.627619,-0.0302 -1.08385,0.26846 -0.250051,0.37906 -0.716417,2.04991 -0.636351,2.4879 z"
         sodipodi:nodetypes="ccccc"
         inkscape:transform-center-x="-1.9038462"
         inkscape:transform-center-y="-1.125" />
    </g>
    <path
       id="ellipse4848"
       style="fill:#f0ff00;stroke-width:0.157437;stroke-linejoin:bevel"
       d="m 83.313635,101.41173 c -0.08186,-3.112731 -4.347601,-11.409688 -9.107259,-12.41049 -3.851238,-0.809786 -12.412001,4.751772 -9.783567,8.153898 3.345192,4.149722 18.96178,9.786072 18.890826,4.256592 z"
       sodipodi:nodetypes="cscc" />
    <ellipse
       style="fill:#d18136;fill-opacity:1;stroke:#ba610f;stroke-width:0.482552;stroke-linejoin:bevel;stroke-miterlimit:4;stroke-dasharray:none;stroke-opacity:1"
       id="ellipse8628"
       cx="0.99739128"
       cy="117.91521"
       rx="3.4382136"
       ry="3.6492658"
       transform="matrix(-0.84248838,0.53871452,0.64607496,0.76327397,0,0)" />
    <g
       id="g113404"
       transform="matrix(-1,0,0,1,156.27576,-6.9994257)">
      <path
         id="path113394"
         style="fill:#050505;stroke-width:0.159287;stroke-linejoin:bevel"
         d="m 68.722224,139.35098 c 0.855151,0.55302 1.363597,-0.0258 1.117391,-1.74752 -0.949481,-2.92621 -3.890042,-9.26295 -4.706827,-10.72254 -0.812303,-0.30399 -1.805866,0.37892 -2.154294,1.94527 0.456756,1.72566 4.207669,8.82513 5.743766,10.52478 z"
         sodipodi:nodetypes="ccccc" />
      <g
         id="g113402"
         transform="matrix(-0.21631179,-0.8921807,-0.79075325,0.19350898,181.42905,167.38203)">
        <path
           id="path113396"
           style="fill:#050505;stroke-width:0.238437;stroke-linejoin:bevel"
           d="m 71.550795,127.11776 c 1.656744,-0.10914 2.609229,0.87783 2.07625,2.72011 -1.922366,2.80092 -7.778193,8.31638 -9.393998,9.50007 -1.565756,-0.15279 -3.443139,-1.56207 -4.053932,-3.59406 0.936165,-1.71592 8.370467,-7.61145 11.37168,-8.62612 z"
           sodipodi:nodetypes="ccccc" />
        <path
           id="path113398"
           style="fill:#050505;stroke-width:0.195403;stroke-linejoin:bevel"
           d="m 54.178057,145.93056 c -1.428091,0.075 -2.30686,-0.69679 -1.946849,-2.12372 1.509947,-2.16291 6.275401,-6.40982 7.608942,-7.31914 1.363753,0.12781 3.066348,1.23282 3.706838,2.81377 -0.715951,1.32647 -6.826861,5.85913 -9.368931,6.62909 z"
           sodipodi:nodetypes="ccccc" />
        <path
           id="path113400"
           style="fill:#050505;stroke-width:0.080127;stroke-linejoin:bevel"
           d="m 47.742761,147.71992 c -0.45692,-0.15243 -0.423485,-0.57113 0.233285,-1.09199 1.284563,-0.6665 4.34659,-1.74542 5.096106,-1.93648 0.359611,0.2248 0.444949,0.88097 0.02884,1.59068 -0.724835,0.43556 -4.300073,1.4563 -5.358235,1.43779 z"
           sodipodi:nodetypes="ccccc" />
      </g>
    </g>
    <ellipse
       style="fill:#d18136;fill-opacity:1;stroke:#ba610f;stroke-width:0.525653;stroke-linejoin:bevel;stroke-miterlimit:4;stroke-dasharray:none;stroke-opacity:1"
       id="ellipse18455"
       cx="2.429646"
       cy="123.80016"
       rx="3.7489624"
       ry="3.9713466"
       transform="matrix(-0.84411254,0.53616604,0.64858256,0.76114431,0,0)" />
  </g>
</svg>
