<?xml version="1.0" encoding="UTF-8" standalone="no"?>
<!-- Created with Inkscape (http://www.inkscape.org/) -->

<svg
   width="550.73761"
   height="409.21381"
   viewBox="0 0 145.71599 108.27115"
   version="1.1"
   id="svg5"
   inkscape:version="1.1.1 (3bf5ae0d25, 2021-09-20)"
   sodipodi:docname="hornet.svg"
   xmlns:inkscape="http://www.inkscape.org/namespaces/inkscape"
   xmlns:sodipodi="http://sodipodi.sourceforge.net/DTD/sodipodi-0.dtd"
   xmlns="http://www.w3.org/2000/svg"
   xmlns:svg="http://www.w3.org/2000/svg">
  <sodipodi:namedview
     id="namedview7"
     pagecolor="#505050"
     bordercolor="#ffffff"
     borderopacity="1"
     inkscape:pageshadow="0"
     inkscape:pageopacity="0"
     inkscape:pagecheckerboard="1"
     inkscape:document-units="mm"
     showgrid="false"
     inkscape:snap-global="false"
     inkscape:zoom="0.54047838"
     inkscape:cx="182.24596"
     inkscape:cy="-202.5983"
     inkscape:window-width="1920"
     inkscape:window-height="1017"
     inkscape:window-x="1272"
     inkscape:window-y="-8"
     inkscape:window-maximized="1"
     inkscape:current-layer="layer1"
     fit-margin-top="0"
     fit-margin-left="0"
     fit-margin-right="0"
     fit-margin-bottom="0"
     units="px" />
  <defs
     id="defs2" />
  <g
     inkscape:label="Layer 1"
     inkscape:groupmode="layer"
     id="layer1"
     transform="translate(-30.89907,-109.28728)">
    <path
       id="ellipse41414"
       style="fill:#9e0e15;fill-opacity:1;stroke:none;stroke-width:2.157;stroke-linejoin:bevel;stroke-miterlimit:4;stroke-dasharray:none;stroke-opacity:1"
       d="m 109.65553,160.34671 c 2.65378,6.33866 -5.19282,17.15562 -30.673755,32.08717 -16.061717,9.412 -24.453872,7.85301 -31.803636,5.10926 -0.41489,-8.20515 0.568669,-20.92657 18.995492,-29.74342 22.415845,-10.72552 39.359879,-17.2986 43.481899,-7.45301 z"
       sodipodi:nodetypes="sscss" />
    <path
       id="path67612"
       style="fill:#ff833b;fill-opacity:1;stroke:none;stroke-width:2.157;stroke-linejoin:bevel;stroke-miterlimit:4;stroke-dasharray:none;stroke-opacity:1"
       d="m 92.131729,168.34185 c 1.90314,5.93584 6.782672,15.21779 -14.169115,24.67357 -4.163262,1.87893 -10.57442,0.79083 -18.048153,-2.39049 0.192001,-8.29569 -0.83963,-19.4515 8.264239,-24.33508 11.271369,-6.04629 20.996953,-7.16795 23.953029,2.052 z"
       sodipodi:nodetypes="sscss" />
    <path
       id="path60929"
       style="fill:#9e0e15;fill-opacity:1;stroke:none;stroke-width:2.157;stroke-linejoin:bevel;stroke-miterlimit:4;stroke-dasharray:none;stroke-opacity:1"
       d="m 98.463644,163.21702 c 1.51476,5.77102 3.299026,10.48223 -11.27757,23.9884 -6.722955,6.22923 -12.418132,0.31466 -16.613321,-2.1834 -0.236816,-7.47039 -2.561642,-18.56282 8.826039,-23.80001 9.404168,-4.32497 16.712032,-6.9689 19.064852,1.99501 z"
       sodipodi:nodetypes="sscss" />
    <g
       id="g65461"
       transform="translate(3.5048077,0.82211539)">
      <path
         id="path17998"
         style="fill:#212121;fill-opacity:1;stroke-width:0.142874;stroke-linejoin:bevel"
         d="m 116.44692,172.45795 c 1.27455,0.18491 1.91621,-0.64451 1.34935,-2.31497 -1.71097,-2.59845 -6.66107,-7.8247 -7.99761,-8.96531 -1.18234,0.0534 -2.4936,1.21037 -2.78366,2.98943 0.86376,1.57911 7.05216,7.22765 9.43192,8.29085 z"
         sodipodi:nodetypes="ccccc" />
      <path
         id="path18103"
         style="fill:#212121;fill-opacity:1;stroke-width:0.101609;stroke-linejoin:bevel"
         d="m 121.96896,180.36654 c -0.13811,0.85434 -0.84336,0.91108 -1.87642,-0.11168 -1.43421,-2.09808 -4.00446,-7.24076 -4.51205,-8.51982 0.28317,-0.70149 1.35357,-1.03522 2.64,-0.49259 0.90825,1.16739 3.51155,7.23831 3.74847,9.12409 z"
         sodipodi:nodetypes="ccccc" />
      <path
         id="path18118"
         style="fill:#212121;fill-opacity:1;stroke-width:0.0371747;stroke-linejoin:bevel"
         d="m 124.48276,181.99657 c -0.005,0.23696 -0.3434,0.35116 -0.91927,0.23693 -0.84874,-0.33117 -2.47013,-1.27654 -2.80945,-1.5303 0.0866,-0.21857 0.58216,-0.45488 1.24623,-0.49869 0.52578,0.16867 2.23058,1.34561 2.48249,1.79206 z"
         sodipodi:nodetypes="ccccc"
         inkscape:transform-center-x="-1.9038462"
         inkscape:transform-center-y="-1.125" />
    </g>
    <g
       id="g65456"
       transform="matrix(1.1611431,0.33472155,-0.39262002,1.3619918,55.832068,-112.17036)"
       style="stroke-width:0.764075">
      <path
         id="path18132"
         style="fill:#212121;fill-opacity:1;stroke-width:0.0741253;stroke-linejoin:bevel"
         d="m 121.377,170.71886 c -0.27642,-0.51278 0.0978,-0.86023 1.10439,-0.7859 1.67879,0.46086 5.26075,2.01602 6.0774,2.4621 0.13126,0.49746 -0.334,1.15541 -1.28442,1.44839 -0.99625,-0.20678 -4.98178,-2.23666 -5.89737,-3.12459 z"
         sodipodi:nodetypes="ccccc" />
      <path
         id="path18134"
         style="fill:#212121;fill-opacity:1;stroke-width:0.058629;stroke-linejoin:bevel"
         d="m 132.03037,177.25202 c 0.14921,0.57264 -0.0965,0.8368 -0.71518,0.54054 -1.0176,-0.8302 -3.16481,-3.17216 -3.65049,-3.79741 -0.0602,-0.52533 0.2548,-1.07923 0.85416,-1.16192 0.60668,0.42611 2.98322,3.33077 3.51149,4.41876 z"
         sodipodi:nodetypes="ccccc" />
      <path
         id="path18136"
         style="fill:#212121;fill-opacity:1;stroke-width:0.0251015;stroke-linejoin:bevel"
         d="m 134.12366,177.85062 c 0.10259,-0.13586 -0.0121,-0.30575 -0.3441,-0.42012 -0.56155,-0.0763 -1.77302,-0.0448 -2.05135,-0.007 -0.0546,0.15079 0.0827,0.43877 0.38777,0.6701 0.3317,0.0679 1.68662,-0.0688 2.00768,-0.2434 z"
         sodipodi:nodetypes="ccccc" />
    </g>
    <path
       id="path57758"
       style="fill:#ff833b;fill-opacity:1;stroke:none;stroke-width:2.157;stroke-linejoin:bevel;stroke-miterlimit:4;stroke-dasharray:none;stroke-opacity:1"
       d="m 104.99005,160.54146 c 1.55701,5.17946 5.03288,11.78059 -11.592138,21.5295 -2.229288,1.30725 -8.473301,-0.68024 -12.785503,-2.92223 -0.243421,-6.70464 -3.146358,-17.76109 4.910827,-20.48433 9.922289,-3.35363 17.048364,-6.16802 19.466814,1.87706 z"
       sodipodi:nodetypes="sscss" />
    <ellipse
       style="fill:#050505;fill-opacity:1;stroke-width:0.257896;stroke-linejoin:bevel"
       id="ellipse71560"
       cx="71.552078"
       cy="178.38033"
       rx="12.775974"
       ry="10.084175"
       transform="matrix(0.97326215,-0.22969716,0.31431534,0.94931863,0,0)" />
    <path
       id="path58505"
       style="fill:#9e0e15;fill-opacity:1;stroke:none;stroke-width:2.157;stroke-linejoin:bevel;stroke-miterlimit:4;stroke-dasharray:none;stroke-opacity:1"
       d="m 109.06372,158.45644 c 1.40913,4.54071 3.06898,9.47795 -10.491177,20.10479 -6.254154,4.90123 -6.560949,-2.68505 -10.463604,-4.65056 -0.220303,-5.8778 -3.769737,-14.9394 3.522224,-17.3268 8.979927,-2.94006 15.243797,-5.18035 17.432557,1.87257 z"
       sodipodi:nodetypes="sscss" />
    <path
       id="path69216"
       style="fill:#ff833b;fill-opacity:1;stroke:none;stroke-width:2.157;stroke-linejoin:bevel;stroke-miterlimit:4;stroke-dasharray:none;stroke-opacity:1"
       d="m 113.06883,156.60415 c 1.2344,4.18452 3.99006,9.51761 -9.19022,17.39381 -1.76738,1.05613 -5.747358,-1.34057 -9.166068,-3.15188 -0.19298,-5.41672 -3.005094,-14.00761 3.38263,-16.20773 7.866368,-2.70941 13.056318,-4.53386 14.973658,1.9658 z"
       sodipodi:nodetypes="sscss" />
    <ellipse
       style="fill:#050505;fill-opacity:1;stroke-width:0.241751;stroke-linejoin:bevel"
       id="ellipse41418"
       cx="-45.432762"
       cy="-191.11064"
       rx="12.415559"
       ry="9.4824352"
       transform="matrix(-0.91765848,0.39737001,-0.37921814,-0.9253073,0,0)" />
    <path
       id="ellipse4848"
       style="fill:#ff833b;fill-opacity:1;stroke:#4d1c03;stroke-width:0.948104;stroke-linejoin:bevel;stroke-miterlimit:4;stroke-dasharray:none;stroke-opacity:1"
       d="m 121.10638,144.45806 c 0.35837,-5.77683 15.3543,-12.13321 21.01562,-6.80714 4.30127,4.04656 5.41542,23.9441 0.72412,25.93902 -3.98646,1.69521 -22.07119,-13.78886 -21.73974,-19.13188 z"
       sodipodi:nodetypes="ssss" />
    <path
       id="ellipse4850"
       style="fill:#4d1c03;stroke:#000000;stroke-width:1.08479;stroke-linejoin:bevel"
       d="m 129.21536,141.49353 c 2.81278,3.05346 6.53808,10.02257 5.93204,12.8389 -0.60607,2.81633 -9.21259,-3.58868 -12.76735,-6.03821 -3.10619,-2.14042 -3.71391,-5.73201 -1.35565,-8.33269 2.61381,-2.88251 6.62278,-0.17036 8.19096,1.532 z"
       sodipodi:nodetypes="sssss" />
    <path
       id="path26441"
       style="fill:#4d1c03;stroke:#000000;stroke-width:1.085;stroke-linecap:round;stroke-linejoin:round;stroke-miterlimit:4;stroke-dasharray:none"
       d="m 142.31489,137.38768 c 2.64888,2.78998 3.65922,10.1868 3.41651,13.10846 -0.21342,2.56907 -3.21452,-5.80494 -4.10571,-7.53553 -1.21776,-2.36475 -3.04036,-5.5771 -6.5706,-7.27575 3.86917,-1.94261 5.99025,0.36565 7.2598,1.70282 z"
       sodipodi:nodetypes="ssscs" />
    <path
       id="path28678"
       style="fill:#9b9b9b;fill-opacity:0.596737;stroke-width:1.11185;stroke-linecap:round;stroke-linejoin:round;paint-order:fill markers stroke"
       transform="matrix(-0.72713346,-0.68649613,0.65196133,-0.75825221,0,0)"
       d="m -185.49142,-17.650473 c 0,0.866187 -1.18423,1.568371 -2.64505,1.568373 -1.46083,2e-6 -4.0394,-0.0047 -4.0394,-0.87089 0,-0.866189 1.96259,-0.981848 3.42341,-0.981847 1.46082,2e-6 3.26104,-0.581823 3.26104,0.284364 z"
       sodipodi:nodetypes="sssss" />
    <path
       id="path30489"
       style="fill:#000000;fill-opacity:1;stroke-width:0.41;stroke-linecap:round;stroke-linejoin:round;stroke-miterlimit:4;stroke-dasharray:none;paint-order:fill markers stroke"
       d="m 176.61507,130.85857 c -15.54356,-23.14879 -42.26615,-22.92952 -42.55869,7.11765 -0.7544,0.27313 -1.11928,0.10939 -1.41721,-0.24556 -1.75824,-31.64554 29.69852,-32.36194 43.97589,-6.87205 z"
       sodipodi:nodetypes="ccccc"
       inkscape:transform-center-x="-26.401124"
       inkscape:transform-center-y="14.711539" />
    <path
       id="path51024"
       style="fill:#000000;fill-opacity:1;stroke-width:0.4223;stroke-linecap:round;stroke-linejoin:round;paint-order:fill markers stroke"
       d="m 172.10155,120.62825 c -21.08605,-18.39744 -48.20967,-10.83743 -41.65351,18.66859 -0.2744,0.37446 -0.79362,0.54923 -1.49713,0.14907 -9.00615,-30.50763 22.81816,-39.855778 43.15064,-18.81762 z"
       sodipodi:nodetypes="ccccc"
       inkscape:transform-center-x="-20.119314"
       inkscape:transform-center-y="-13.830675" />
    <path
       style="fill:#9e0e15;fill-opacity:1;stroke:none;stroke-width:0.865002;stroke-linecap:round;stroke-linejoin:round;stroke-miterlimit:4;stroke-dasharray:none;stroke-opacity:1"
       d="m 142.8272,162.83864 c 1.7858,3.69475 3.18462,4.45486 -0.16064,4.22103 -3.34529,-0.23382 -5.09575,-2.59534 -5.53151,-5.51659 4.92742,0.56323 3.90637,-2.39918 5.69215,1.29556 z"
       id="path36328"
       sodipodi:nodetypes="sscs" />
    <path
       style="fill:#9e0e15;fill-opacity:1;stroke:none;stroke-width:0.865002;stroke-linecap:round;stroke-linejoin:round;stroke-miterlimit:4;stroke-dasharray:none;stroke-opacity:1"
       d="m 144.00757,162.57141 c 2.09128,3.43891 2.05313,5.19848 3.38852,1.68386 1.33541,-3.51464 0.27533,-6.3339 -1.8214,-8.05714 -1.7951,5.27266 -3.65839,2.93439 -1.56712,6.37328 z"
       id="path37894"
       sodipodi:nodetypes="sscs" />
    <g
       id="g71969"
       transform="matrix(1.6911457,-0.9693657,0.84737534,1.0239971,-136.19676,106.45052)"
       style="stroke-width:0.625839">
      <path
         id="path18002"
         style="fill:#050505;stroke-width:0.115313;stroke-linejoin:bevel"
         d="m 84.733197,132.64902 c 0.662257,1.00357 0.0695,1.67348 -1.81949,1.51061 -3.248518,-0.92773 -10.346476,-4.02082 -11.991386,-4.90422 -0.38853,-0.97114 0.282653,-2.24408 1.96025,-2.79753 1.908346,0.42064 9.893312,4.44546 11.850626,6.19114 z"
         sodipodi:nodetypes="ccccc" />
      <path
         id="rect15412"
         style="fill:#050505;stroke-width:0.149224;stroke-linejoin:bevel"
         d="m 71.550795,127.11776 c 1.656744,-0.10914 2.609229,0.87783 2.07625,2.72011 -1.922366,2.80092 -7.778193,8.31638 -9.393998,9.50007 -1.565756,-0.15279 -3.443139,-1.56207 -4.053932,-3.59406 0.936165,-1.71592 8.370467,-7.61145 11.37168,-8.62612 z"
         sodipodi:nodetypes="ccccc" />
      <path
         id="path18114"
         style="fill:#050505;stroke-width:0.122291;stroke-linejoin:bevel"
         d="m 54.178057,145.93056 c -1.428091,0.075 -2.30686,-0.69679 -1.946849,-2.12372 1.509947,-2.16291 6.275401,-6.40982 7.608942,-7.31914 1.363753,0.12781 3.066348,1.23282 3.706838,2.81377 -0.715951,1.32647 -6.826861,5.85913 -9.368931,6.62909 z"
         sodipodi:nodetypes="ccccc" />
      <path
         id="path18116"
         style="fill:#050505;stroke-width:0.0501465;stroke-linejoin:bevel"
         d="m 47.742761,147.71992 c -0.45692,-0.15243 -0.423485,-0.57113 0.233285,-1.09199 1.284563,-0.6665 4.34659,-1.74542 5.096106,-1.93648 0.359611,0.2248 0.444949,0.88097 0.02884,1.59068 -0.724835,0.43556 -4.300073,1.4563 -5.358235,1.43779 z"
         sodipodi:nodetypes="ccccc" />
    </g>
    <g
       id="g18128"
       transform="matrix(1.7682584,-0.48877671,0.78937277,1.4449055,-151.00868,2.0298024)"
       style="stroke-width:0.583133">
      <path
         id="path18105"
         style="fill:#050505;stroke-width:0.0395023;stroke-linejoin:bevel"
         d="m 90.072785,143.47158 c -0.1172,0.4565 0.142525,0.64258 0.743364,0.36426 0.96932,-0.72424 2.98202,-2.71093 3.432004,-3.23452 0.03101,-0.41282 -0.31387,-0.81859 -0.916391,-0.83615 -0.581707,0.3783 -2.792103,2.82001 -3.258977,3.70641 z"
         sodipodi:nodetypes="ccccc" />
      <path
         id="path18000"
         style="fill:#050505;stroke-width:0.0627387;stroke-linejoin:bevel"
         d="m 93.069103,140.07664 c 0.317408,-0.5507 0.871242,-0.39598 1.408429,0.59256 0.57775,1.83968 1.270522,6.08925 1.342046,7.11001 -0.390521,0.40553 -1.292501,0.34128 -2.142591,-0.38609 -0.405849,-1.0539 -0.893874,-5.95211 -0.607884,-7.31648 z"
         sodipodi:nodetypes="ccccc" />
      <path
         id="path18120"
         style="fill:#050505;stroke-width:0.0496228;stroke-linejoin:bevel"
         d="m 93.328073,153.7976 c -0.450687,0.46505 -0.848362,0.38387 -0.941918,-0.36581 0.169926,-1.42753 1.085755,-4.77445 1.383106,-5.58567 0.459721,-0.35453 1.17279,-0.37253 1.612492,0.14405 -0.0363,0.81204 -1.34508,4.6937 -2.053668,5.80739 z"
         sodipodi:nodetypes="ccccc" />
      <path
         id="path18122"
         style="fill:#050505;stroke-width:0.0212456;stroke-linejoin:bevel"
         d="m 94.025861,156.10509 c 0.190183,0.0194 0.281417,-0.18475 0.189069,-0.56177 -0.266784,-0.57121 -1.027428,-1.69233 -1.231484,-1.9323 -0.175323,0.0342 -0.364393,0.32662 -0.398775,0.7446 0.135986,0.35038 1.082585,1.54666 1.441186,1.74947 z"
         sodipodi:nodetypes="ccccc" />
    </g>
    <path
       id="path18535"
       style="fill:#050505;stroke-width:0.167231;stroke-linejoin:bevel"
       d="m 109.83453,187.95606 c -1.27802,1.00231 -2.7985,0.28513 -3.7401,-2.26414 -0.51887,-4.45822 0.15859,-14.32169 0.59866,-16.6266 1.39941,-0.63189 3.99508,0.1212 6.01739,2.30505 0.51609,2.60471 -1.17233,13.76333 -2.87595,16.58569 z"
       sodipodi:nodetypes="ccccc" />
    <path
       id="path18537"
       style="fill:#050505;stroke-width:0.118932;stroke-linejoin:bevel"
       d="m 110.36263,201.49559 c 0.9698,1.04944 1.82818,0.70549 2.03414,-1.26299 -0.35882,-3.63106 -2.31648,-11.96956 -2.95356,-13.96523 -0.98996,-0.7608 -2.52819,-0.56669 -3.47965,0.91647 0.0739,2.08585 2.8764,11.67339 4.39907,14.31175 z"
       sodipodi:nodetypes="ccccc" />
    <path
       id="path18539"
       style="fill:#050505;stroke-width:0.107589;stroke-linejoin:bevel"
       d="m 121.40238,164.57266 c 1.03732,0.26854 0.84818,1.19343 -0.83775,2.43352 -3.20476,1.65134 -10.70966,4.46739 -12.52745,4.9962 -0.78883,-0.44166 -0.81718,-1.87116 0.35101,-3.4912 1.824,-1.06248 10.52379,-3.82534 13.01422,-3.9385 z"
       sodipodi:nodetypes="ccccc"
       inkscape:transform-center-x="-4.8845185"
       inkscape:transform-center-y="-1.6529443" />
    <path
       id="path18543"
       style="fill:#050505;stroke-width:0.0435122;stroke-linejoin:bevel"
       d="m 109.04502,205.14832 c 0.23102,0.31085 0.72556,0.26101 1.27383,-0.2325 0.65326,-0.94298 1.60387,-3.15858 1.74965,-3.69633 -0.30656,-0.23803 -1.09651,-0.25649 -1.89564,0.0801 -0.43936,0.53585 -1.26497,3.10773 -1.12784,3.84872 z"
       sodipodi:nodetypes="ccccc"
       inkscape:transform-center-x="-1.8425527"
       inkscape:transform-center-y="-1.2085434" />
    <path
       id="path51643"
       style="fill:#9e0e15;fill-opacity:1;stroke-width:0.159524;stroke-linejoin:bevel"
       d="m 50.997942,192.75424 c 1.211012,0.83955 2.779586,2.23672 1.543284,4.50511 -1.311938,2.40746 -7.309392,2.51474 -17.511234,20.29908 -1.873896,-8.23401 8.365287,-23.46177 10.433221,-25.02209 2.067861,-1.56062 4.381619,-0.58136 5.534729,0.21798 z"
       sodipodi:nodetypes="scccs" />
    <path
       id="path15388"
       style="fill:#050505;fill-opacity:0.461538;stroke-width:0.239577;stroke-linejoin:bevel"
       d="m 115.03663,145.83388 c 5.35587,5.85219 -35.778252,16.85942 -50.730593,28.48473 -14.80545,11.51109 -23.444239,11.47574 -28.80011,5.6235 -5.355866,-5.85221 2.168448,-22.83803 20.462417,-28.27338 18.756238,-5.57266 53.712426,-11.68707 59.068286,-5.83485 z"
       sodipodi:nodetypes="sssss" />
    <path
       id="path69790"
       style="fill:#050505;fill-opacity:0.461538;stroke-width:0.239577;stroke-linejoin:bevel"
       d="m 117.78127,147.41697 c 2.79895,7.42289 -39.48083,2.36371 -57.681548,7.60338 -18.02191,5.18819 -26.029519,1.94657 -28.828447,-5.47637 -2.798935,-7.42292 10.496299,-20.39867 29.500365,-18.65002 19.484266,1.79288 54.21071,9.10009 57.00963,16.52301 z"
       sodipodi:nodetypes="sssss" />
  </g>
</svg>
