<?xml version="1.0" encoding="UTF-8" standalone="no"?>
<!-- Created with Inkscape (http://www.inkscape.org/) -->

<svg
   width="440.52011"
   height="543.8858"
   viewBox="0 0 116.55428 143.90311"
   version="1.1"
   id="svg5"
   inkscape:version="1.1.1 (3bf5ae0d25, 2021-09-20)"
   sodipodi:docname="hornet-attack-1.svg"
   xmlns:inkscape="http://www.inkscape.org/namespaces/inkscape"
   xmlns:sodipodi="http://sodipodi.sourceforge.net/DTD/sodipodi-0.dtd"
   xmlns="http://www.w3.org/2000/svg"
   xmlns:svg="http://www.w3.org/2000/svg">
  <sodipodi:namedview
     id="namedview7"
     pagecolor="#505050"
     bordercolor="#ffffff"
     borderopacity="1"
     inkscape:pageshadow="0"
     inkscape:pageopacity="0"
     inkscape:pagecheckerboard="1"
     inkscape:document-units="mm"
     showgrid="false"
     inkscape:snap-global="false"
     inkscape:zoom="0.76435185"
     inkscape:cx="79.152029"
     inkscape:cy="283.24652"
     inkscape:window-width="1920"
     inkscape:window-height="1017"
     inkscape:window-x="1272"
     inkscape:window-y="-8"
     inkscape:window-maximized="1"
     inkscape:current-layer="layer1"
     fit-margin-top="0"
     fit-margin-left="0"
     fit-margin-right="0"
     fit-margin-bottom="0"
     units="px" />
  <defs
     id="defs2" />
  <g
     inkscape:label="Layer 1"
     inkscape:groupmode="layer"
     id="layer1"
     transform="translate(-60.498641,-76.983719)">
    <path
       id="ellipse41414"
       style="fill:#9e0e15;fill-opacity:1;stroke:none;stroke-width:2.157;stroke-linejoin:bevel;stroke-miterlimit:4;stroke-dasharray:none;stroke-opacity:1"
       d="m 72.952284,162.32543 c 6.857777,0.43817 14.025313,-6.51275 15.306409,3.31497 2.406387,18.46005 -3.827139,25.39713 -9.550203,30.76312 -7.53545,-3.27317 -18.266211,-9.8035 -18.209626,-30.23094 0.03026,-10.91416 1.801476,-4.52771 12.453403,-3.84714 z"
       sodipodi:nodetypes="sscss"
       inkscape:transform-center-x="32.797115"
       inkscape:transform-center-y="18.334294" />
    <path
       id="path67612"
       style="fill:#ff833b;fill-opacity:1;stroke:none;stroke-width:2.157;stroke-linejoin:bevel;stroke-miterlimit:4;stroke-dasharray:none;stroke-opacity:1"
       d="m 88.388445,148.37063 c 3.496516,5.16048 10.789816,12.69512 -6.655698,27.66317 -3.466546,2.97425 -9.924893,3.7337 -17.991757,2.78337 -2.149504,-8.01467 -6.277825,-18.42973 1.084524,-25.67718 9.115214,-8.97298 18.132469,-12.78534 23.562931,-4.76936 z"
       sodipodi:nodetypes="sscss"
       inkscape:transform-center-x="30.667788"
       inkscape:transform-center-y="1.8033137" />
    <path
       id="path60929"
       style="fill:#9e0e15;fill-opacity:1;stroke:none;stroke-width:2.157;stroke-linejoin:bevel;stroke-miterlimit:4;stroke-dasharray:none;stroke-opacity:1"
       d="m 97.148592,152.95283 c -0.751379,5.919 -0.856766,10.95567 -19.424263,18.03676 -8.563606,3.26588 -11.63619,-4.34834 -14.594066,-8.23304 2.571754,-7.01776 4.560169,-18.1754 17.079926,-18.77807 10.339046,-0.49768 18.105501,-0.21941 16.938403,8.97435 z"
       sodipodi:nodetypes="sscss"
       inkscape:transform-center-x="27.243561"
       inkscape:transform-center-y="-1.9857243" />
    <g
       id="g65461"
       transform="rotate(55.815793,104.91259,162.69108)"
       inkscape:transform-center-x="3.5687498"
       inkscape:transform-center-y="17.524019">
      <path
         id="path17998"
         style="fill:#212121;fill-opacity:1;stroke-width:0.142874;stroke-linejoin:bevel"
         d="m 116.44692,172.45795 c 1.27455,0.18491 1.91621,-0.64451 1.34935,-2.31497 -1.71097,-2.59845 -6.66107,-7.8247 -7.99761,-8.96531 -1.18234,0.0534 -2.4936,1.21037 -2.78366,2.98943 0.86376,1.57911 7.05216,7.22765 9.43192,8.29085 z"
         sodipodi:nodetypes="ccccc" />
      <path
         id="path18103"
         style="fill:#212121;fill-opacity:1;stroke-width:0.101609;stroke-linejoin:bevel"
         d="m 121.96896,180.36654 c -0.13811,0.85434 -0.84336,0.91108 -1.87642,-0.11168 -1.43421,-2.09808 -4.00446,-7.24076 -4.51205,-8.51982 0.28317,-0.70149 1.35357,-1.03522 2.64,-0.49259 0.90825,1.16739 3.51155,7.23831 3.74847,9.12409 z"
         sodipodi:nodetypes="ccccc" />
      <path
         id="path18118"
         style="fill:#212121;fill-opacity:1;stroke-width:0.0371747;stroke-linejoin:bevel"
         d="m 124.48276,181.99657 c -0.005,0.23696 -0.3434,0.35116 -0.91927,0.23693 -0.84874,-0.33117 -2.47013,-1.27654 -2.80945,-1.5303 0.0866,-0.21857 0.58216,-0.45488 1.24623,-0.49869 0.52578,0.16867 2.23058,1.34561 2.48249,1.79206 z"
         sodipodi:nodetypes="ccccc"
         inkscape:transform-center-x="-1.9038462"
         inkscape:transform-center-y="-1.125" />
    </g>
    <g
       id="g65456"
       transform="matrix(0.37550096,1.1486039,-1.3472836,0.44045322,303.42245,-35.703658)"
       style="stroke-width:0.764075"
       inkscape:transform-center-x="-9.3369491"
       inkscape:transform-center-y="27.873049">
      <path
         id="path18132"
         style="fill:#212121;fill-opacity:1;stroke-width:0.0741253;stroke-linejoin:bevel"
         d="m 121.377,170.71886 c -0.27642,-0.51278 0.0978,-0.86023 1.10439,-0.7859 1.67879,0.46086 5.26075,2.01602 6.0774,2.4621 0.13126,0.49746 -0.334,1.15541 -1.28442,1.44839 -0.99625,-0.20678 -4.98178,-2.23666 -5.89737,-3.12459 z"
         sodipodi:nodetypes="ccccc" />
      <path
         id="path18134"
         style="fill:#212121;fill-opacity:1;stroke-width:0.058629;stroke-linejoin:bevel"
         d="m 132.03037,177.25202 c 0.14921,0.57264 -0.0965,0.8368 -0.71518,0.54054 -1.0176,-0.8302 -3.16481,-3.17216 -3.65049,-3.79741 -0.0602,-0.52533 0.2548,-1.07923 0.85416,-1.16192 0.60668,0.42611 2.98322,3.33077 3.51149,4.41876 z"
         sodipodi:nodetypes="ccccc" />
      <path
         id="path18136"
         style="fill:#212121;fill-opacity:1;stroke-width:0.0251015;stroke-linejoin:bevel"
         d="m 134.12366,177.85062 c 0.10259,-0.13586 -0.0121,-0.30575 -0.3441,-0.42012 -0.56155,-0.0763 -1.77302,-0.0448 -2.05135,-0.007 -0.0546,0.15079 0.0827,0.43877 0.38777,0.6701 0.3317,0.0679 1.68662,-0.0688 2.00768,-0.2434 z"
         sodipodi:nodetypes="ccccc" />
    </g>
    <path
       id="path57758"
       style="fill:#ff833b;fill-opacity:1;stroke:none;stroke-width:2.157;stroke-linejoin:bevel;stroke-miterlimit:4;stroke-dasharray:none;stroke-opacity:1"
       d="m 102.09323,153.80353 c -1.05701,5.30413 -1.08727,12.76441 -20.343161,13.56662 -2.582063,0.10756 -7.161988,-4.57882 -9.916761,-8.58292 2.932896,-6.03403 5.560784,-17.15906 13.953303,-15.78067 10.335239,1.69748 17.948439,2.55824 16.306619,10.79697 z"
       sodipodi:nodetypes="sscss"
       inkscape:transform-center-x="20.366201"
       inkscape:transform-center-y="-4.6628099" />
    <ellipse
       style="fill:#050505;fill-opacity:1;stroke-width:0.257896;stroke-linejoin:bevel"
       id="ellipse71560"
       cx="202.80023"
       cy="42.762615"
       rx="12.775974"
       ry="10.084175"
       transform="matrix(0.73684622,0.67606039,-0.60871028,0.79339259,0,0)"
       inkscape:transform-center-x="-15.961456"
       inkscape:transform-center-y="11.239222" />
    <path
       id="path58505"
       style="fill:#9e0e15;fill-opacity:1;stroke:none;stroke-width:2.157;stroke-linejoin:bevel;stroke-miterlimit:4;stroke-dasharray:none;stroke-opacity:1"
       d="m 107.4051,158.9494 c -2.26083,4.1824 -4.62981,8.82129 -21.708591,6.55782 -7.876971,-1.04397 -2.668091,-6.56786 -3.991811,-10.7322 4.047963,-4.26744 8.044191,-13.14107 14.849698,-9.59743 8.380874,4.36393 14.362344,7.27546 10.850704,13.77181 z"
       sodipodi:nodetypes="sscss"
       inkscape:transform-center-x="12.614462"
       inkscape:transform-center-y="-4.5624744" />
    <path
       id="path69216"
       style="fill:#ff833b;fill-opacity:1;stroke:none;stroke-width:2.157;stroke-linejoin:bevel;stroke-miterlimit:4;stroke-dasharray:none;stroke-opacity:1"
       d="m 113.83235,160.01706 c -1.87666,3.93854 -3.38851,9.748 -18.458063,6.80475 -2.02071,-0.39468 -3.381495,-4.83682 -4.715585,-8.46844 3.474754,-4.15982 7.120802,-12.43133 13.343978,-9.80158 7.66373,3.23849 12.74462,5.34769 9.82967,11.46527 z"
       sodipodi:nodetypes="sscss"
       inkscape:transform-center-x="4.7789302"
       inkscape:transform-center-y="-1.9584707" />
    <ellipse
       style="fill:#050505;fill-opacity:1;stroke-width:0.241751;stroke-linejoin:bevel"
       id="ellipse41418"
       cx="-184.46925"
       cy="-79.101562"
       rx="12.415559"
       ry="9.4824352"
       transform="matrix(-0.84430992,-0.53585516,0.55238127,-0.83359159,0,0)"
       inkscape:transform-center-x="-4.6139139"
       inkscape:transform-center-y="4.9936743" />
    <path
       id="ellipse4848"
       style="fill:#ff833b;fill-opacity:1;stroke:#4d1c03;stroke-width:0.948104;stroke-linejoin:bevel;stroke-miterlimit:4;stroke-dasharray:none;stroke-opacity:1"
       d="m 127.80504,162.48163 c 4.98016,-2.94929 18.66392,5.88451 17.43885,13.56024 -0.93076,5.83174 -16.76472,17.93294 -21.05083,15.17299 -3.64215,-2.34528 -0.99418,-26.00541 3.61198,-28.73323 z"
       sodipodi:nodetypes="ssss"
       inkscape:transform-center-x="-26.46268"
       inkscape:transform-center-y="16.965329" />
    <path
       id="ellipse4850"
       style="fill:#4d1c03;stroke:#000000;stroke-width:1.08479;stroke-linejoin:bevel"
       d="m 134.81348,167.52403 c -0.94555,4.04243 -4.61757,11.03976 -7.28784,12.1208 -2.67029,1.081 -2.20746,-9.6373 -2.17838,-13.95421 0.0254,-3.77216 2.65504,-6.29284 6.13141,-5.80321 3.8531,0.54268 3.86198,5.38288 3.33481,7.63662 z"
       sodipodi:nodetypes="sssss"
       inkscape:transform-center-x="-22.737505"
       inkscape:transform-center-y="9.9803038" />
    <path
       id="path26441"
       style="fill:#4d1c03;stroke:#000000;stroke-width:1.085;stroke-linecap:round;stroke-linejoin:round;stroke-miterlimit:4;stroke-dasharray:none"
       d="m 145.57003,176.05353 c -0.81968,3.75881 -6.37093,8.75054 -8.9242,10.19132 -2.24514,1.26689 2.99596,-5.92071 3.92684,-7.63027 1.272,-2.33602 2.90534,-5.64862 2.32703,-9.52335 3.78091,2.10924 3.06318,5.16079 2.67033,6.9623 z"
       sodipodi:nodetypes="ssscs"
       inkscape:transform-center-x="-33.552543"
       inkscape:transform-center-y="17.948946" />
    <path
       id="path28678"
       style="fill:#9b9b9b;fill-opacity:0.596737;stroke-width:1.11125;stroke-linecap:round;stroke-linejoin:round;paint-order:fill markers stroke"
       d="m 132.1667,162.25508 c 0.86061,0.0981 1.36957,1.34679 1.13679,2.78894 -0.23278,1.44217 -0.64835,3.98726 -1.50896,3.88912 -0.86061,-0.0981 -0.66279,-2.04875 -0.43001,-3.49091 0.23279,-1.44215 -0.0584,-3.28529 0.80218,-3.18715 z"
       sodipodi:nodetypes="sssss"
       inkscape:transform-center-x="-24.821216"
       inkscape:transform-center-y="5.8000847" />
    <path
       id="path30489"
       style="fill:#000000;fill-opacity:1;stroke-width:0.41;stroke-linecap:round;stroke-linejoin:round;stroke-miterlimit:4;stroke-dasharray:none;paint-order:fill markers stroke"
       d="m 170.24288,200.75944 c 10.41627,-25.86446 -4.77935,-47.84713 -29.7998,-31.20697 -0.64981,-0.47061 -0.71936,-0.86445 -0.59313,-1.31034 25.19044,-19.23469 43.45722,6.38494 30.39289,32.51732 z"
       sodipodi:nodetypes="ccccc"
       inkscape:transform-center-x="-49.748907"
       inkscape:transform-center-y="21.350966" />
    <path
       id="path51024"
       style="fill:#000000;fill-opacity:1;stroke-width:0.4223;stroke-linecap:round;stroke-linejoin:round;paint-order:fill markers stroke"
       d="m 176.16982,191.27773 c 3.3717,-27.77983 -18.12176,-45.96981 -38.84657,-23.96821 -0.46394,-0.0166 -0.90024,-0.34792 -0.96449,-1.15472 20.17684,-24.59109 45.79062,-3.51719 39.81103,25.12296 z"
       sodipodi:nodetypes="ccccc"
       inkscape:transform-center-x="-49.264755"
       inkscape:transform-center-y="13.502968" />
    <path
       style="fill:#9e0e15;fill-opacity:1;stroke:none;stroke-width:0.865002;stroke-linecap:round;stroke-linejoin:round;stroke-miterlimit:4;stroke-dasharray:none;stroke-opacity:1"
       d="m 122.93448,191.20263 c -4.20292,2.84095 -4.8608,4.60402 -5.24285,0.73063 -0.38204,-3.87342 2.18218,-6.3852 5.70094,-7.51586 0.29262,5.75273 3.74485,3.94435 -0.45809,6.78523 z"
       id="path36328"
       sodipodi:nodetypes="sscs"
       inkscape:transform-center-x="-13.887691"
       inkscape:transform-center-y="29.499829" />
    <path
       style="fill:#9e0e15;fill-opacity:1;stroke:none;stroke-width:0.865002;stroke-linecap:round;stroke-linejoin:round;stroke-miterlimit:4;stroke-dasharray:none;stroke-opacity:1"
       d="m 125.10973,192.80848 c -0.29138,4.66208 -1.55415,6.14928 2.23358,4.19934 3.78775,-1.94994 4.68425,-5.24157 3.77629,-8.42783 -5.47308,3.09411 -5.71848,-0.43357 -6.00987,4.22849 z"
       id="path37894"
       sodipodi:nodetypes="sscs"
       inkscape:transform-center-x="-20.619102"
       inkscape:transform-center-y="33.418259" />
    <path
       id="path18002"
       style="fill:#050505;stroke-width:0.184254;stroke-linejoin:bevel"
       d="m 109.24986,173.43254 c 0.1644,2.00102 -1.16689,1.92527 -3.67442,-0.82942 -3.82319,-5.4457 -11.371837,-18.51044 -12.995395,-21.72033 0.192275,-1.59219 2.088142,-2.06906 4.842194,-0.38623 2.339845,3.06305 10.420141,18.3568 11.827621,22.93598 z"
       sodipodi:nodetypes="ccccc"
       inkscape:transform-center-x="6.5193294"
       inkscape:transform-center-y="2.3354487" />
    <path
       id="path18105"
       style="fill:#050505;stroke-width:0.0677415;stroke-linejoin:bevel"
       d="m 112.1933,172.00953 c -0.59883,-0.42279 -1.14043,-0.11583 -1.28752,0.96708 0.19217,1.89185 1.34455,6.07406 1.7261,7.05087 0.61409,0.26542 1.58082,-0.0587 2.19114,-0.98861 -0.0274,-1.1057 -1.69847,-5.8354 -2.62974,-7.02937 z"
       sodipodi:nodetypes="ccccc"
       inkscape:transform-center-x="-5.4233146"
       inkscape:transform-center-y="16.178397" />
    <g
       id="g73258"
       inkscape:transform-center-x="0.5831612"
       inkscape:transform-center-y="29.025217"
       transform="rotate(30.172605,94.770801,147.81644)">
      <path
         id="path18000"
         style="fill:#050505;stroke-width:0.107589;stroke-linejoin:bevel"
         d="m 125.68676,164.40154 c 0.5134,-0.81028 1.53322,-0.39148 2.61558,1.39211 1.25039,3.19383 2.97687,10.38061 3.21981,12.07869 -0.66189,0.55007 -2.30191,0.17637 -3.92169,-1.27121 -0.85186,-1.85191 -2.27978,-10.04335 -1.9137,-12.19959 z"
         sodipodi:nodetypes="ccccc" />
      <path
         id="path18120"
         style="fill:#050505;stroke-width:0.0850969;stroke-linejoin:bevel"
         d="m 127.68068,187.01813 c -0.7642,0.62996 -1.49314,0.37838 -1.74584,-0.88094 0.14895,-2.29451 1.43488,-7.52027 1.88302,-8.76448 0.79283,-0.44572 2.08172,-0.2633 2.93514,0.71601 0.0245,1.32316 -1.91332,7.31053 -3.07231,8.92935 z"
         sodipodi:nodetypes="ccccc" />
      <path
         id="path18122"
         style="fill:#050505;stroke-width:0.0364335;stroke-linejoin:bevel"
         d="m 124.48726,190.46702 c 0.0496,0.3541 0.3888,0.36905 0.90801,-0.0697 0.73443,-0.89153 2.0784,-3.06511 2.34909,-3.60409 -0.12261,-0.28866 -0.6326,-0.41443 -1.26447,-0.17256 -0.46188,0.49743 -1.84043,3.05801 -1.99263,3.84633 z"
         sodipodi:nodetypes="ccccc"
         inkscape:transform-center-x="1.1372207"
         inkscape:transform-center-y="1.3822335" />
    </g>
    <path
       id="path18539"
       style="fill:#050505;stroke-width:0.107589;stroke-linejoin:bevel"
       d="m 111.33184,174.02799 c 0.36068,1.00898 -0.51069,1.37218 -2.48379,0.67427 -3.16665,-1.72328 -9.712859,-6.34939 -11.171644,-7.55601 -0.07785,-0.9007 1.088753,-1.72733 3.085264,-1.67119 1.90374,0.91192 9.0773,6.55637 10.57017,8.55296 z"
       sodipodi:nodetypes="ccccc"
       inkscape:transform-center-x="2.8989923"
       inkscape:transform-center-y="10.474126" />
    <path
       id="path18535"
       style="fill:#050505;stroke-width:0.167231;stroke-linejoin:bevel"
       d="m 91.280758,182.71725 c -1.602633,0.26367 -2.590413,-1.09665 -2.189161,-3.78448 1.690396,-4.15782 7.030455,-12.47833 8.525319,-14.2871 1.530806,0.11946 3.443844,2.02863 4.165784,4.91615 -0.80094,2.53167 -7.65043,11.50106 -10.501942,13.15543 z"
       sodipodi:nodetypes="ccccc"
       inkscape:transform-center-x="12.048646"
       inkscape:transform-center-y="13.904069" />
    <path
       id="path18537"
       style="fill:#050505;stroke-width:0.118932;stroke-linejoin:bevel"
       d="m 85.228643,194.84035 c 0.345161,1.38662 1.263137,1.49814 2.390897,-0.12836 1.432675,-3.3557 3.728949,-11.60738 4.130757,-13.66337 -0.501725,-1.14329 -1.943568,-1.7133 -3.491319,-0.87098 -0.938897,1.86406 -3.095587,11.61719 -3.030335,14.66271 z"
       sodipodi:nodetypes="ccccc"
       inkscape:transform-center-x="18.952339"
       inkscape:transform-center-y="28.047023" />
    <path
       id="path18543"
       style="fill:#050505;stroke-width:0.0435122;stroke-linejoin:bevel"
       d="m 86.734668,199.69209 c 0.374892,0.0972 0.728829,-0.25172 0.84637,-0.97997 -0.08258,-1.14419 -0.731555,-3.46611 -0.955431,-3.97634 -0.388068,0.007 -1.014925,0.48792 -1.426257,1.25126 -0.0061,0.69293 0.963805,3.21391 1.535335,3.70507 z"
       sodipodi:nodetypes="ccccc"
       inkscape:transform-center-x="21.050905"
       inkscape:transform-center-y="37.428395" />
    <path
       id="path51643"
       style="fill:#9e0e15;fill-opacity:1;stroke-width:0.159524;stroke-linejoin:bevel"
       d="m 77.7727,191.46633 c 1.472444,-0.0575 3.565902,0.1156 3.942223,2.67146 0.399498,2.71246 -4.327866,6.40474 -1.784371,26.74905 -6.448738,-5.45198 -7.425011,-23.77607 -6.71105,-26.2663 0.713704,-2.49042 3.151245,-3.09939 4.553221,-3.15418 z"
       sodipodi:nodetypes="scccs"
       inkscape:transform-center-x="30.061445"
       inkscape:transform-center-y="46.378882" />
    <path
       id="path15388"
       style="fill:#050505;fill-opacity:0.461538;stroke-width:0.239577;stroke-linejoin:bevel"
       d="M 122.86313,161.64053 C 117.74009,167.69758 101.58784,128.29858 88.154283,114.94718 74.852709,101.72694 73.788455,93.153879 78.911567,87.096821 84.03464,81.03978 101.83988,86.341396 109.55902,103.79497 c 7.91416,17.89461 18.4272,51.78852 13.30411,57.84556 z"
       sodipodi:nodetypes="sssss"
       inkscape:transform-center-x="7.3001519"
       inkscape:transform-center-y="-36.31449" />
    <path
       id="path69790"
       style="fill:#050505;fill-opacity:0.461538;stroke-width:0.239577;stroke-linejoin:bevel"
       d="m 121.97295,161.52676 c -6.53145,4.50263 -11.79254,-37.75259 -21.25703,-54.15819 -9.371541,-16.244407 -8.151561,-24.796713 -1.619987,-29.299243 6.531557,-4.502495 22.324737,5.280526 25.199417,24.147123 2.9473,19.34333 4.20916,54.80781 -2.3224,59.31031 z"
       sodipodi:nodetypes="sssss"
       inkscape:transform-center-x="-2.8795642"
       inkscape:transform-center-y="-40.37139" />
    <path
       id="rect15412"
       style="fill:#050505;stroke-width:0.238439;stroke-linejoin:bevel"
       d="m 91.49772,149.43991 c 2.812392,-1.54319 5.249121,-1.30145 5.75577,1.13857 -1.174675,4.66673 -7.108873,15.63807 -9.010432,18.30168 -2.857832,1.18321 -7.242018,1.28326 -9.897296,-0.37642 0.297204,-2.65111 8.695308,-15.38968 13.151958,-19.06383 z"
       sodipodi:nodetypes="ccccc"
       inkscape:transform-center-x="19.641459"
       inkscape:transform-center-y="-0.67805479" />
    <path
       id="path18114"
       style="fill:#050505;stroke-width:0.195403;stroke-linejoin:bevel"
       d="m 78.07869,185.61307 c -2.091577,1.81385 -4.195184,2.21227 -5.073575,0.51951 0.131356,-3.74616 3.120907,-13.30584 4.236136,-15.73606 2.196462,-1.5571 5.882483,-2.67154 8.432414,-2.06828 0.238121,2.04031 -4.50725,13.49762 -7.594975,17.28483 z"
       sodipodi:nodetypes="ccccc"
       inkscape:transform-center-x="28.097382"
       inkscape:transform-center-y="17.892377" />
    <path
       id="path18116"
       style="fill:#050505;stroke-width:0.0801269;stroke-linejoin:bevel"
       d="m 79.013325,195.86828 c -0.123215,0.93834 -0.667383,1.01257 -1.442509,-0.0902 -1.062767,-2.27399 -2.940007,-7.86398 -3.305527,-9.25655 0.231896,-0.77336 1.062672,-1.15731 2.042439,-0.58483 0.676228,1.26335 2.5605,7.8697 2.705602,9.93158 z"
       sodipodi:nodetypes="ccccc"
       inkscape:transform-center-x="30.801775"
       inkscape:transform-center-y="31.331792" />
  </g>
</svg>
