<?xml version="1.0" encoding="UTF-8" standalone="no"?>
<!-- Created with Inkscape (http://www.inkscape.org/) -->

<svg
   width="178.51225"
   height="247.64822"
   viewBox="0 0 47.231367 65.523594"
   version="1.1"
   id="svg5"
   inkscape:version="1.1 (c68e22c387, 2021-05-23)"
   sodipodi:docname="jellymaker.svg"
   xmlns:inkscape="http://www.inkscape.org/namespaces/inkscape"
   xmlns:sodipodi="http://sodipodi.sourceforge.net/DTD/sodipodi-0.dtd"
   xmlns="http://www.w3.org/2000/svg"
   xmlns:svg="http://www.w3.org/2000/svg">
  <sodipodi:namedview
     id="namedview7"
     pagecolor="#505050"
     bordercolor="#ffffff"
     borderopacity="1"
     inkscape:pageshadow="0"
     inkscape:pageopacity="0"
     inkscape:pagecheckerboard="1"
     inkscape:document-units="mm"
     showgrid="false"
     inkscape:snap-global="false"
     inkscape:zoom="3.0574074"
     inkscape:cx="102.21078"
     inkscape:cy="126.4143"
     inkscape:window-width="1920"
     inkscape:window-height="1017"
     inkscape:window-x="1272"
     inkscape:window-y="-8"
     inkscape:window-maximized="1"
     inkscape:current-layer="layer1"
     fit-margin-top="0"
     fit-margin-left="0"
     fit-margin-right="0"
     fit-margin-bottom="0"
     units="px" />
  <defs
     id="defs2" />
  <g
     inkscape:label="Layer 1"
     inkscape:groupmode="layer"
     id="layer1"
     transform="translate(-54.634925,-82.188518)">
    <path
       id="path117403"
       style="fill:#050505;stroke-width:1.04054;stroke-linecap:round;stroke-linejoin:round"
       d="m 83.557816,95.620176 1.164937,-0.242658 c 0,0 1.893704,-10.017775 0.91494,-12.781636 -0.225003,-0.635369 -0.840784,-0.5071 -1.164938,0.242659 C 83.062686,86.1 83.557816,95.620176 83.557816,95.620176 Z"
       sodipodi:nodetypes="ccaac" />
    <path
       id="rect115545"
       style="fill:#050505;stroke-width:1.01735;stroke-linecap:round;stroke-linejoin:round"
       d="m 79.534061,95.228485 1.076651,-0.543206 c 0,0 -0.501288,-9.700445 -2.100207,-11.96326 -0.367568,-0.520186 -0.93668,-0.23305 -1.076651,0.543207 -0.608872,3.376718 2.100207,11.963259 2.100207,11.963259 z"
       sodipodi:nodetypes="ccaac" />
    <g
       id="g18128"
       transform="matrix(0.26175288,-0.84511798,0.83530173,0.15825825,-57.062623,162.58021)">
      <path
         id="path18105"
         style="fill:#050505;stroke-width:0.0677414;stroke-linejoin:bevel"
         d="m 90.072785,143.47158 c -0.1172,0.4565 0.142525,0.64258 0.743364,0.36426 0.96932,-0.72424 2.98202,-2.71093 3.432004,-3.23452 0.03101,-0.41282 -0.31387,-0.81859 -0.916391,-0.83615 -0.581707,0.3783 -2.792103,2.82001 -3.258977,3.70641 z"
         sodipodi:nodetypes="ccccc" />
      <path
         id="path18000"
         style="fill:#050505;stroke-width:0.107589;stroke-linejoin:bevel"
         d="m 93.069103,140.07664 c 0.317408,-0.5507 0.871242,-0.39598 1.408429,0.59256 0.57775,1.83968 1.270522,6.08925 1.342046,7.11001 -0.390521,0.40553 -1.292501,0.34128 -2.142591,-0.38609 -0.405849,-1.0539 -0.893874,-5.95211 -0.607884,-7.31648 z"
         sodipodi:nodetypes="ccccc" />
      <path
         id="path18120"
         style="fill:#050505;stroke-width:0.0850969;stroke-linejoin:bevel"
         d="m 93.328073,153.7976 c -0.450687,0.46505 -0.848362,0.38387 -0.941918,-0.36581 0.169926,-1.42753 1.085755,-4.77445 1.383106,-5.58567 0.459721,-0.35453 1.17279,-0.37253 1.612492,0.14405 -0.0363,0.81204 -1.34508,4.6937 -2.053668,5.80739 z"
         sodipodi:nodetypes="ccccc" />
      <path
         id="path18122"
         style="fill:#050505;stroke-width:0.0364336;stroke-linejoin:bevel"
         d="m 94.025861,156.10509 c 0.190183,0.0194 0.281417,-0.18475 0.189069,-0.56177 -0.266784,-0.57121 -1.027428,-1.69233 -1.231484,-1.9323 -0.175323,0.0342 -0.364393,0.32662 -0.398775,0.7446 0.135986,0.35038 1.082585,1.54666 1.441186,1.74947 z"
         sodipodi:nodetypes="ccccc" />
    </g>
    <g
       id="g18138"
       transform="matrix(-0.39127144,-0.69921378,-0.68764122,0.32416883,203.49566,125.56551)">
      <path
         id="path18130"
         style="fill:#050505;stroke-width:0.0677414;stroke-linejoin:bevel"
         d="m 90.072785,143.47158 c -0.1172,0.4565 0.142525,0.64258 0.743364,0.36426 0.96932,-0.72424 2.98202,-2.71093 3.432004,-3.23452 0.03101,-0.41282 -0.31387,-0.81859 -0.916391,-0.83615 -0.581707,0.3783 -2.792103,2.82001 -3.258977,3.70641 z"
         sodipodi:nodetypes="ccccc" />
      <path
         id="path18132"
         style="fill:#050505;stroke-width:0.107589;stroke-linejoin:bevel"
         d="m 93.069103,140.07664 c 0.317408,-0.5507 0.871242,-0.39598 1.408429,0.59256 0.57775,1.83968 1.270522,6.08925 1.342046,7.11001 -0.390521,0.40553 -1.292501,0.34128 -2.142591,-0.38609 -0.405849,-1.0539 -0.893874,-5.95211 -0.607884,-7.31648 z"
         sodipodi:nodetypes="ccccc" />
      <path
         id="path18134"
         style="fill:#050505;stroke-width:0.0850969;stroke-linejoin:bevel"
         d="m 93.328073,153.7976 c -0.450687,0.46505 -0.848362,0.38387 -0.941918,-0.36581 0.169926,-1.42753 1.085755,-4.77445 1.383106,-5.58567 0.459721,-0.35453 1.17279,-0.37253 1.612492,0.14405 -0.0363,0.81204 -1.34508,4.6937 -2.053668,5.80739 z"
         sodipodi:nodetypes="ccccc" />
      <path
         id="path18136"
         style="fill:#050505;stroke-width:0.0364336;stroke-linejoin:bevel"
         d="m 94.025861,156.10509 c 0.190183,0.0194 0.281417,-0.18475 0.189069,-0.56177 -0.266784,-0.57121 -1.027428,-1.69233 -1.231484,-1.9323 -0.175323,0.0342 -0.364393,0.32662 -0.398775,0.7446 0.135986,0.35038 1.082585,1.54666 1.441186,1.74947 z"
         sodipodi:nodetypes="ccccc" />
    </g>
    <path
       id="path1868"
       style="fill:#050505;stroke-width:0.1567;stroke-linejoin:bevel"
       d="m 77.20642,135.07881 c -0.595675,-0.21621 -1.448998,-0.42573 -1.665816,0.50681 -0.230069,0.98951 1.594251,3.03124 0.05183,10.51243 2.752172,-1.24474 3.608303,-8.15636 3.381285,-9.20724 -0.226978,-1.05087 -1.20015,-1.60614 -1.7673,-1.812 z"
       sodipodi:nodetypes="scccs" />
    <g
       id="g4846"
       transform="matrix(0.01228434,-0.91799413,-1.1313457,-0.00783805,217.31124,193.96602)">
      <ellipse
         style="fill:#050505;fill-opacity:1;stroke-width:0.276598;stroke-linejoin:bevel"
         id="path846"
         cx="76.772659"
         cy="123.92308"
         rx="15.650415"
         ry="10.730769" />
      <ellipse
         style="fill:#f8ff25;fill-opacity:1;stroke-width:0.254343;stroke-linejoin:bevel"
         id="ellipse1398"
         cx="78.944977"
         cy="123.98428"
         rx="13.233335"
         ry="10.730769" />
      <ellipse
         style="fill:#050505;fill-opacity:1;stroke-width:0.234454;stroke-linejoin:bevel"
         id="ellipse1840"
         cx="81.178482"
         cy="123.92308"
         rx="11.244596"
         ry="10.730769" />
      <ellipse
         style="fill:#f8ff25;fill-opacity:1;stroke-width:0.211655;stroke-linejoin:bevel"
         id="ellipse1842"
         cx="83.014244"
         cy="123.98428"
         rx="9.1640711"
         ry="10.730769" />
      <ellipse
         style="fill:#050505;fill-opacity:1;stroke-width:0.179123;stroke-linejoin:bevel"
         id="ellipse1844"
         cx="85.859665"
         cy="123.92308"
         rx="6.5634127"
         ry="10.730769" />
    </g>
    <g
       id="g4839"
       transform="matrix(-0.2319883,-0.90301318,-1.1231028,0.14667368,240.14936,186.88859)">
      <ellipse
         style="fill:#f8ff25;fill-opacity:1;stroke-width:0.183264;stroke-linejoin:bevel"
         id="ellipse4835"
         cx="103.69713"
         cy="122.77692"
         rx="7.573081"
         ry="9.7352018" />
      <ellipse
         style="fill:#050505;fill-opacity:1;stroke-width:0.169785;stroke-linejoin:bevel"
         id="ellipse4833"
         cx="105.3187"
         cy="122.58856"
         rx="6.5634127"
         ry="9.6410179" />
    </g>
    <g
       id="g18533"
       transform="matrix(0.4854251,0.6041665,-0.5407942,0.45068007,94.590754,2.8678583)">
      <g
         id="g18112"
         transform="translate(2.9423077,-12.115385)">
        <path
           id="path17998"
           style="fill:#050505;stroke-width:0.167231;stroke-linejoin:bevel"
           d="m 81.839819,151.40775 c -0.728592,0.76184 -1.59969,0.49853 -2.143846,-0.95394 -0.30669,-2.67065 0.05865,-8.79051 0.305151,-10.25322 0.798839,-0.549 2.28487,-0.38814 3.44621,0.71544 0.300959,1.53568 -0.639609,8.56584 -1.607515,10.49172 z"
           sodipodi:nodetypes="ccccc" />
        <path
           id="path18103"
           style="fill:#050505;stroke-width:0.118932;stroke-linejoin:bevel"
           d="m 82.56848,159.69211 c 0.556927,0.53055 1.04703,0.22053 1.160404,-1.00902 -0.213317,-2.18252 -1.351462,-7.06336 -1.720241,-8.21199 -0.567808,-0.35142 -1.447016,-0.0545 -1.987791,0.96406 0.04693,1.26905 1.670985,6.81715 2.547628,8.25695 z"
           sodipodi:nodetypes="ccccc" />
        <path
           id="path18107"
           style="fill:#050505;stroke-width:0.107589;stroke-linejoin:bevel"
           d="m 87.035628,144.09077 c 0.102154,0.62736 -0.424793,0.85756 -1.465919,0.43114 -1.61058,-1.06032 -4.833622,-3.91527 -5.534282,-4.66102 0.04626,-0.56109 0.78579,-1.08146 1.904287,-1.0552 0.980671,0.5601 4.455074,4.04708 5.095914,5.28508 z"
           sodipodi:nodetypes="ccccc" />
      </g>
      <path
         id="path18118"
         style="fill:#050505;stroke-width:0.0435123;stroke-linejoin:bevel"
         d="m 84.765478,149.96654 c 0.132811,0.16366 0.415499,0.0759 0.727924,-0.28983 0.371454,-0.65319 0.910112,-2.12029 0.992277,-2.46653 -0.17584,-0.11032 -0.627619,-0.0302 -1.08385,0.26846 -0.250051,0.37906 -0.716417,2.04991 -0.636351,2.4879 z"
         sodipodi:nodetypes="ccccc"
         inkscape:transform-center-x="-1.9038462"
         inkscape:transform-center-y="-1.125" />
    </g>
    <g
       id="g14903"
       transform="matrix(0.0956905,-0.68514186,-1.0212126,-0.05048294,192.96264,186.983)">
      <ellipse
         style="fill:#f0ff00;fill-opacity:1;stroke-width:0.307943;stroke-linejoin:bevel"
         id="path9417"
         cx="103.8029"
         cy="122.27885"
         rx="6.7932696"
         ry="7.5288458" />
      <ellipse
         style="fill:#050505;fill-opacity:1;stroke-width:0.307943;stroke-linejoin:bevel"
         id="ellipse11237"
         cx="106.13943"
         cy="122.45192"
         rx="6.7932696"
         ry="7.5288458" />
    </g>
    <g
       id="g113312"
       transform="translate(0.61191933,-6.3639611)">
      <path
         id="path18002"
         style="fill:#050505;stroke-width:0.159287;stroke-linejoin:bevel"
         d="m 68.722224,139.35098 c 0.855151,0.55302 1.363597,-0.0258 1.117391,-1.74752 -0.949481,-2.92621 -3.890042,-9.26295 -4.706827,-10.72254 -0.812303,-0.30399 -1.805866,0.37892 -2.154294,1.94527 0.456756,1.72566 4.207669,8.82513 5.743766,10.52478 z"
         sodipodi:nodetypes="ccccc" />
      <g
         id="g887"
         transform="matrix(-0.21631179,-0.8921807,-0.79075325,0.19350898,181.42905,167.38203)">
        <path
           id="rect15412"
           style="fill:#050505;stroke-width:0.238437;stroke-linejoin:bevel"
           d="m 71.550795,127.11776 c 1.656744,-0.10914 2.609229,0.87783 2.07625,2.72011 -1.922366,2.80092 -7.778193,8.31638 -9.393998,9.50007 -1.565756,-0.15279 -3.443139,-1.56207 -4.053932,-3.59406 0.936165,-1.71592 8.370467,-7.61145 11.37168,-8.62612 z"
           sodipodi:nodetypes="ccccc" />
        <path
           id="path18114"
           style="fill:#050505;stroke-width:0.195403;stroke-linejoin:bevel"
           d="m 54.178057,145.93056 c -1.428091,0.075 -2.30686,-0.69679 -1.946849,-2.12372 1.509947,-2.16291 6.275401,-6.40982 7.608942,-7.31914 1.363753,0.12781 3.066348,1.23282 3.706838,2.81377 -0.715951,1.32647 -6.826861,5.85913 -9.368931,6.62909 z"
           sodipodi:nodetypes="ccccc" />
        <path
           id="path18116"
           style="fill:#050505;stroke-width:0.080127;stroke-linejoin:bevel"
           d="m 47.742761,147.71992 c -0.45692,-0.15243 -0.423485,-0.57113 0.233285,-1.09199 1.284563,-0.6665 4.34659,-1.74542 5.096106,-1.93648 0.359611,0.2248 0.444949,0.88097 0.02884,1.59068 -0.724835,0.43556 -4.300073,1.4563 -5.358235,1.43779 z"
           sodipodi:nodetypes="ccccc" />
      </g>
    </g>
    <g
       id="g18545"
       transform="matrix(-0.6754915,0.62169332,0.55129233,0.59899837,76.449248,-18.630979)">
      <g
         id="g18541"
         transform="translate(2.9423077,-12.115385)">
        <path
           id="path18535"
           style="fill:#050505;stroke-width:0.167231;stroke-linejoin:bevel"
           d="m 81.839819,151.40775 c -0.728592,0.76184 -1.59969,0.49853 -2.143846,-0.95394 -0.30669,-2.67065 0.05865,-8.79051 0.305151,-10.25322 0.798839,-0.549 2.28487,-0.38814 3.44621,0.71544 0.300959,1.53568 -0.639609,8.56584 -1.607515,10.49172 z"
           sodipodi:nodetypes="ccccc" />
        <path
           id="path18537"
           style="fill:#050505;stroke-width:0.118932;stroke-linejoin:bevel"
           d="m 82.56848,159.69211 c 0.556927,0.53055 1.04703,0.22053 1.160404,-1.00902 -0.213317,-2.18252 -1.351462,-7.06336 -1.720241,-8.21199 -0.567808,-0.35142 -1.447016,-0.0545 -1.987791,0.96406 0.04693,1.26905 1.670985,6.81715 2.547628,8.25695 z"
           sodipodi:nodetypes="ccccc" />
        <path
           id="path18539"
           style="fill:#050505;stroke-width:0.107589;stroke-linejoin:bevel"
           d="m 87.035628,144.09077 c 0.102154,0.62736 -0.424793,0.85756 -1.465919,0.43114 -1.61058,-1.06032 -4.833622,-3.91527 -5.534282,-4.66102 0.04626,-0.56109 0.78579,-1.08146 1.904287,-1.0552 0.980671,0.5601 4.455074,4.04708 5.095914,5.28508 z"
           sodipodi:nodetypes="ccccc" />
      </g>
      <path
         id="path18543"
         style="fill:#050505;stroke-width:0.0435123;stroke-linejoin:bevel"
         d="m 84.765478,149.96654 c 0.132811,0.16366 0.415499,0.0759 0.727924,-0.28983 0.371454,-0.65319 0.910112,-2.12029 0.992277,-2.46653 -0.17584,-0.11032 -0.627619,-0.0302 -1.08385,0.26846 -0.250051,0.37906 -0.716417,2.04991 -0.636351,2.4879 z"
         sodipodi:nodetypes="ccccc"
         inkscape:transform-center-x="-1.9038462"
         inkscape:transform-center-y="-1.125" />
    </g>
    <path
       id="ellipse4848"
       style="fill:#f0ff00;stroke-width:0.161082;stroke-linejoin:bevel"
       d="M 86.37372,94.052569 C 83.662993,92.451188 75.014987,92.207867 72.479825,96.400103 70.428522,99.792219 72.211589,111.31217 76.0667,110.53753 80.817865,109.45427 91.162906,96.971304 86.37372,94.052569 Z"
       sodipodi:nodetypes="cscc" />
    <ellipse
       style="fill:#000000;fill-opacity:1;stroke-width:0.0813732;stroke-linejoin:bevel"
       id="ellipse8524"
       cx="3.7539961"
       cy="-122.66324"
       rx="5.041923"
       ry="2.8828456"
       transform="matrix(0.56680175,-0.82385422,-0.59571395,-0.80319667,0,0)" />
    <g
       id="g1908"
       transform="matrix(-1.4325154,0.32803179,0.13408782,1.3423577,216.05401,-87.755508)"
       style="fill:#d26895;fill-opacity:1">
      <ellipse
         style="fill:#d26895;fill-opacity:1;stroke-width:0.0596514;stroke-linejoin:bevel"
         id="ellipse9386"
         cx="-135.41614"
         cy="70.235893"
         rx="3.4313874"
         ry="2.2762835"
         transform="matrix(-0.30935394,-0.95094697,0.96059613,-0.27794798,0,0)" />
    </g>
    <ellipse
       style="fill:#000000;fill-opacity:1;stroke-width:0.0910133;stroke-linejoin:bevel"
       id="ellipse4850"
       cx="68.857307"
       cy="115.23106"
       rx="5.3856759"
       ry="3.376163"
       transform="matrix(-0.39837399,0.91722307,0.95487458,0.29700933,0,0)" />
    <ellipse
       style="fill:#d26895;fill-opacity:1;stroke-width:0.0862462;stroke-linejoin:bevel"
       id="ellipse8628"
       cx="65.253876"
       cy="112.78923"
       rx="5.2531953"
       ry="3.1082089"
       transform="matrix(-0.38252623,0.92394463,0.94720748,0.32062126,0,0)" />
    <g
       id="g113404"
       transform="matrix(-1,0,0,1,154.37191,-5.8744257)">
      <path
         id="path113394"
         style="fill:#050505;stroke-width:0.159287;stroke-linejoin:bevel"
         d="m 68.722224,139.35098 c 0.855151,0.55302 1.363597,-0.0258 1.117391,-1.74752 -0.949481,-2.92621 -3.890042,-9.26295 -4.706827,-10.72254 -0.812303,-0.30399 -1.805866,0.37892 -2.154294,1.94527 0.456756,1.72566 4.207669,8.82513 5.743766,10.52478 z"
         sodipodi:nodetypes="ccccc" />
      <g
         id="g113402"
         transform="matrix(-0.21631179,-0.8921807,-0.79075325,0.19350898,181.42905,167.38203)">
        <path
           id="path113396"
           style="fill:#050505;stroke-width:0.238437;stroke-linejoin:bevel"
           d="m 71.550795,127.11776 c 1.656744,-0.10914 2.609229,0.87783 2.07625,2.72011 -1.922366,2.80092 -7.778193,8.31638 -9.393998,9.50007 -1.565756,-0.15279 -3.443139,-1.56207 -4.053932,-3.59406 0.936165,-1.71592 8.370467,-7.61145 11.37168,-8.62612 z"
           sodipodi:nodetypes="ccccc" />
        <path
           id="path113398"
           style="fill:#050505;stroke-width:0.195403;stroke-linejoin:bevel"
           d="m 54.178057,145.93056 c -1.428091,0.075 -2.30686,-0.69679 -1.946849,-2.12372 1.509947,-2.16291 6.275401,-6.40982 7.608942,-7.31914 1.363753,0.12781 3.066348,1.23282 3.706838,2.81377 -0.715951,1.32647 -6.826861,5.85913 -9.368931,6.62909 z"
           sodipodi:nodetypes="ccccc" />
        <path
           id="path113400"
           style="fill:#050505;stroke-width:0.080127;stroke-linejoin:bevel"
           d="m 47.742761,147.71992 c -0.45692,-0.15243 -0.423485,-0.57113 0.233285,-1.09199 1.284563,-0.6665 4.34659,-1.74542 5.096106,-1.93648 0.359611,0.2248 0.444949,0.88097 0.02884,1.59068 -0.724835,0.43556 -4.300073,1.4563 -5.358235,1.43779 z"
           sodipodi:nodetypes="ccccc" />
      </g>
    </g>
  </g>
</svg>
