<?xml version="1.0" encoding="UTF-8" standalone="no"?>
<!-- Created with Inkscape (http://www.inkscape.org/) -->

<svg
   id="svg2544"
   sodipodi:docname="ladybug.svg"
   viewBox="0 0 140 151.98897"
   sodipodi:version="0.32"
   version="1.0"
   inkscape:version="1.1 (c68e22c387, 2021-05-23)"
   width="140"
   height="151.98897"
   xmlns:inkscape="http://www.inkscape.org/namespaces/inkscape"
   xmlns:sodipodi="http://sodipodi.sourceforge.net/DTD/sodipodi-0.dtd"
   xmlns="http://www.w3.org/2000/svg"
   xmlns:svg="http://www.w3.org/2000/svg"
   xmlns:rdf="http://www.w3.org/1999/02/22-rdf-syntax-ns#">
  <defs
     id="defs2547" />
  <sodipodi:namedview
     id="base"
     bordercolor="#666666"
     inkscape:pageshadow="2"
     guidetolerance="10.0"
     pagecolor="#ffffff"
     gridtolerance="10.0"
     inkscape:zoom="4.5882353"
     objecttolerance="10.0"
     borderopacity="1.0"
     inkscape:current-layer="svg2544"
     inkscape:cx="38.685897"
     inkscape:cy="75.301282"
     inkscape:window-y="-8"
     inkscape:window-x="1272"
     inkscape:window-height="1017"
     inkscape:pageopacity="0.0"
     inkscape:window-width="1920"
     inkscape:pagecheckerboard="1"
     showgrid="false"
     inkscape:window-maximized="1"
     fit-margin-top="0"
     fit-margin-left="0"
     fit-margin-right="0"
     fit-margin-bottom="0" />
  <g
     id="g7896"
     transform="matrix(-0.39571586,-1.1594153,1.1830763,-0.38780174,47.558718,171.10923)">
    <path
       id="path2553"
       style="fill:none;stroke:#000000;stroke-width:0.668489px"
       d="m 26.792323,6.0462085 -6.540222,2.8565597 -4.161756,4.9982718 -5.351362,6.283582 -3.2701106,7.854124 -0.4454502,9.711312 3.8645408,10.282482 2.675681,5.140534 -0.89239,1.714219 L 10.738983,53.887214 7.6178524,51.887764 4.9421716,50.317222 2.2664908,50.031283 H 0.9286504 l -0.5944302,1.28531 1.7840355,0.85711 5.3506167,2.142419 2.6756806,2.141713 3.716306,2.85939 2.526701,2.427651 4.310736,3.708715 4.458972,0.573294 4.161756,0.997956 7.283632,3.574238 6.986417,2.427651 6.688458,2.27902 0.891645,2.85939 -4.309992,3.567161 c 0,0 -5.351361,1.719881 -6.094771,2.286097 -0.742666,0.573294 -2.526701,4.43064 -2.526701,4.43064 l 0.59443,2.286098 1.784036,-0.148632 2.5267,-2.427651 2.526701,-3.425607 4.756931,-3.425607 6.837438,-3.857346 8.176022,-1.995912 7.732062,-2.144543 2.078271,1.13951 2.227251,1.861435 5.497362,5.853258 4.312971,6.851213 2.08572,1.288142 1.184391,-0.997956 -0.44694,-2.569205 c 0,0 -1.929291,-2.576283 -2.525211,-3.000945 -0.59592,-0.431739 -2.972151,-2.710759 -2.972151,-2.710759 l -0.7449,-1.146587 -1.184391,-1.995912 -1.04286,-2.144543 -0.14898,-1.139509 2.674191,0.424662 6.689202,1.288141 6.540222,-0.290186 7.13614,-0.141554 3.27011,0.997956 3.56807,-0.141554 2.67419,-2.710759 2.6742,-3.998901 1.34082,-3.715792 v -4.140455 l -0.89388,-3.708714 h 1.78031 l 3.12858,1.854357 2.37623,0.997956 1.48235,0.856401 -1.03541,-3.000944 -3.12113,-1.854358 c 0,0 -2.08572,-1.998742 -2.83062,-2.283974 -0.73745,-0.285939 -3.56063,-3.42773 -3.56063,-3.42773 L 111.07254,43.3195 107.50447,32.465847 103.48946,23.040474 97.39618,14.900411 85.358596,6.7603484 65.73793,1.3338758 49.980315,0.33379681 39.129357,1.6191071 Z" />
    <path
       id="path2555"
       style="fill:#ffffff;fill-rule:evenodd;stroke:#000000;stroke-width:0.668489px"
       d="m 84.315736,64.172527 -0.29796,7.566062 2.972151,0.997956 h 4.610931 l 2.823171,-1.13951 -0.44694,-1.712804 -2.525211,-2.569205 -1.78776,-1.719881 -2.376231,-1.854357 z" />
    <path
       id="path2557"
       style="fill:#ff0000;fill-rule:evenodd;stroke:#000000;stroke-width:0.668489px"
       d="m 94.424029,42.74833 -1.34082,2.855852 -9.065433,11.5685 -4.163991,7.282954 -7.724613,6.284997 L 61.871899,73.168284 48.49424,72.021697 37.048851,68.737644 27.832949,64.172527 17.13097,54.316122 11.185179,45.747151 8.5094977,36.321778 l 0.4461951,-5.712412 3.2701112,-7.997093 4.607951,-6.854752 6.985672,-5.569442 5.499597,-2.9995297 7.432612,-0.4282009 7.431868,0.5711704 5.648576,0.7141399 11.593624,2.5706203 7.582337,3.569992 9.959313,6.141321 4.901442,4.855302 -0.29796,1.28531 -3.866031,3.141791 -0.737451,5.997643 1.184391,5.284211 5.206851,1.142341 5.795322,0.71414 z" />
    <path
       id="path2559"
       style="fill:#ff0000;fill-rule:evenodd;stroke:#000000;stroke-width:0.668489px"
       d="m 98.14108,41.605989 5.34838,0.142969 3.56807,-1.28531 0.14898,-2.71359 -0.59592,-2.85656 -0.59592,-3.284053 c 0,0 -0.88643,-3.28476 -1.33337,-3.855931 -0.44694,-0.57117 -2.08572,-2.998821 -2.08572,-2.998821 L 99.474451,21.041024 96.94924,17.471032 c 0,0 -3.568071,-2.71359 -3.866031,-3.427023 C 92.785249,13.32987 90.111058,11.18745 90.111058,11.18745 L 87.883807,9.6169081 84.911656,10.045109 c 0,0 -0.29796,0.285231 -1.4898,1.28531 -1.184391,0.999372 -7.128693,0.14297 -7.128693,0.14297 L 71.235292,8.7597987 67.965181,6.0462085 66.48283,2.4762166 66.18487,2.0480157 c 0,0 -7.434847,-1.42827981 -8.475472,-1.28531027 C 56.669517,0.9049672 48.048045,1.3338758 48.048045,1.3338758 l -7.878063,1.4275721 -3.270111,1.5712494 -1.93227,0.7141399 4.310736,0.2852313 5.796812,0.1429696 6.243007,1.8564807 6.391242,1.4282799 6.538732,1.9994503 6.689202,3.141791 7.732062,4.427101 5.795322,5.283503 1.19184,1.143049 2.972151,0.142262 5.795322,1.143048 3.866031,0.571171 2.67419,2.427651 0.29796,3.141791 -1.19184,4.284132 -1.78031,3.28476 z" />
    <path
       id="path3247"
       style="opacity:0.63551;fill:#b01e1e;fill-opacity:1;fill-rule:evenodd;stroke:#000000;stroke-width:0.668489px"
       d="m 94.424029,42.74833 -1.34082,2.855852 -9.065433,11.5685 -4.163991,7.282954 -7.724613,6.284997 L 61.871899,73.168284 48.49424,72.021697 37.048851,68.737644 27.832949,64.172527 17.13097,54.316122 11.185179,45.747151 8.5094977,36.321778 l 0.4461951,-5.712412 3.2701112,-7.997093 4.607951,-6.854752 6.985672,-5.569442 5.499597,-2.9995297 7.432612,-0.4282009 7.431868,0.5711704 5.648576,0.7141399 11.593624,2.5706203 7.582337,3.569992 9.959313,6.141321 4.901442,4.855302 -0.29796,1.28531 -3.866031,3.141791 -0.737451,5.997643 1.184391,5.284211 5.206851,1.142341 5.795322,0.71414 z" />
    <ellipse
       id="path2561"
       style="fill:#000000;stroke-width:0.668486"
       cx="53.027725"
       cy="25.611084"
       rx="11.073767"
       ry="8.5685139" />
    <ellipse
       id="path2563"
       style="fill:#000000;stroke-width:0.668486"
       cx="23.150846"
       cy="29.038435"
       rx="8.8441496"
       ry="9.1397486" />
    <ellipse
       id="path2565"
       style="fill:#000000;stroke-width:0.668486"
       cx="54.216854"
       cy="60.527775"
       rx="10.627843"
       ry="8.2114925" />
    <path
       id="rect2572"
       sodipodi:nodetypes="ccccccccccccccccccccccccccccccccc"
       style="fill:#000000;stroke-width:0.726098"
       d="M 83.757061,26.646562 84.13696,25.182894 79.108885,20.35661 74.021218,17.145458 67.570384,13.160713 64.240681,11.622021 61.176162,10.261687 55.990169,9.2226802 49.704702,7.7222078 35.708776,6.6683383 l -6.36964,0.2540894 5.707424,-2.0666884 2.140098,0.6108055 7.825174,0.1472162 11.161582,2.6590919 10.517988,3.6202431 3.076437,1.673876 7.210632,3.548759 8.469513,7.745835 3.538275,0.214454 9.117576,1.784996 2.748685,2.346966 0.48418,3.311656 -1.527044,4.204153 -1.668576,2.989621 -0.268164,2.213904 -3.024294,0.535075 -3.35205,0.0361 -6.063486,-0.71414 -5.206851,-0.990878 -1.147146,-4.882198 0.811941,-6.381962 z" />
    <path
       id="rect2575"
       sodipodi:nodetypes="cccccccccccccccccccccccccccccccccccccccccccccccc"
       style="fill:#000000;stroke-width:0.726098"
       d="m 94.744336,42.288279 3.389295,-0.757314 5.340929,0.251966 3.80644,-1.363165 2.13042,-1.867805 5.67614,13.076759 2.36133,2.574867 3.87348,2.919551 3.82133,2.477195 0.35011,0.920101 0.25326,0.870557 -0.49163,0.61576 -5.84746,-3.652093 -2.42838,-0.162787 0.99817,3.836113 -0.0298,4.593428 -2.28684,5.053478 -4.23103,4.996856 -3.59787,0.04954 -3.13603,-1.0475 -14.235039,0.516672 -9.214413,-1.797736 3.337152,7.113089 3.895827,3.227431 1.757964,2.498428 0.0298,2.094999 -0.655512,0.835169 -2.070822,-1.089966 -1.988883,-3.234509 -2.413476,-3.935201 -1.236534,-1.273986 -3.910725,-4.048444 -4.886544,-3.411452 -1.04286,-2.250708 8.097063,-6.490251 3.679806,-6.546873 0.268164,6.079745 -0.312858,7.948257 3.366948,1.033344 4.551339,-0.18402 3.076437,-0.948412 -0.618267,-2.257786 -6.875427,-5.966502 -3.188172,0.537906 -0.357552,-6.36993 2.540109,-3.044119 7.039305,-8.987264 z" />
    <path
       id="rect2578"
       sodipodi:nodetypes="cccccccccccccccccccccccccccccc"
       style="fill:#000000;stroke-width:0.726098"
       d="m 69.268756,2.6368804 3.582969,0.9462885 4.998279,1.4098778 7.486245,2.070935 4.178889,2.766673 7.799103,5.3167683 6.845629,9.118201 0.26072,0.91727 0.25326,0.916562 3.50848,8.717603 1.1546,4.129838 -2.10807,1.699356 0.16388,-2.906812 -1.13225,-6.331002 -1.07266,-3.243002 -4.49174,-5.900679 L 98.751898,19.505871 95.898931,16.764677 91.712593,12.174081 87.93595,9.321768 84.926554,9.8441023 82.550323,11.75862 76.494286,11.24124 74.021218,9.9198337 71.458762,8.5814406 69.022939,6.7249599 68.173753,5.7560228 67.317118,3.6093564 66.40834,1.8024196 Z" />
    <path
       id="rect2581"
       sodipodi:nodetypes="ccccccccccccccccccccccccccccccccccccccccccccccccccccccccccccccccccccccccccc"
       style="fill:#000000;stroke-width:0.726098"
       d="M 13.888421,53.210586 12.120773,49.711371 10.57734,47.106777 8.954203,41.959874 7.3310659,37.771999 7.4025763,35.641611 7.8025876,27.944612 10.924464,20.24549 20.474082,9.1533188 31.073264,4.4933611 38.958775,1.9397269 49.655539,0.3458289 52.276842,0.82428142 48.881588,1.0755398 47.771687,1.1003117 47.108726,1.3260903 35.287163,4.7814235 29.2788,6.9627706 l -5.507791,2.9386611 -7.056438,5.6458813 -4.692125,7.185281 -0.832798,1.692278 -2.5669255,6.097439 -0.4275726,5.872367 1.6484637,5.708165 1.0957484,3.815588 2.632476,3.759675 2.323343,3.182841 0.297215,0.624961 0.668921,0.927887 0.826839,0.803319 4.514838,4.121344 1.802658,1.634949 1.263351,1.153665 1.040625,1.061655 1.337841,1.153665 4.570706,2.257787 4.849299,2.356874 8.906769,2.590438 2.57065,0.679459 13.237618,1.217364 10.480743,-2.441806 0.789594,1.196131 0.08194,0.877635 -16.530821,4.58635 -7.592765,4.628815 -3.43101,2.12331 -2.697283,4.069678 -2.42018,1.769425 -1.45479,0.311419 -0.711379,-1.974679 0.849186,-1.578327 1.724443,-2.894779 5.99868,-2.250709 4.632533,-3.694559 -1.12629,-2.979712 L 44.36228,72.984264 36.528166,70.273505 29.579739,66.897442 28.279144,66.486935 27.070916,66.331226 24.58146,65.757932 20.772786,65.205872 18.914261,63.740788 14.216922,59.317225 7.7534242,54.156166 5.5194691,53.201385 0.6455884,51.296068 0.8951299,50.704372 1.0001608,50.22592 l 3.836235,0.404844 3.0742023,1.771548 3.3244889,2.061734 1.576208,0.837292 z" />
    <path
       id="path3249"
       style="opacity:0.63551;fill:#cd1313;fill-opacity:1;fill-rule:evenodd;stroke:#000000;stroke-width:0.668489px"
       d="m 98.14108,41.605989 5.34838,0.142969 3.56807,-1.28531 0.14898,-2.71359 -0.59592,-2.85656 -0.59592,-3.284053 c 0,0 -0.88643,-3.28476 -1.33337,-3.855931 -0.44694,-0.57117 -2.08572,-2.998821 -2.08572,-2.998821 L 99.474451,21.041024 96.94924,17.471032 c 0,0 -3.568071,-2.71359 -3.866031,-3.427023 C 92.785249,13.32987 90.111058,11.18745 90.111058,11.18745 L 87.883807,9.6169081 84.911656,10.045109 c 0,0 -0.29796,0.285231 -1.4898,1.28531 -1.184391,0.999372 -7.128693,0.14297 -7.128693,0.14297 L 71.235292,8.7597987 67.965181,6.0462085 66.48283,2.4762166 66.18487,2.0480157 c 0,0 -7.434847,-1.42827981 -8.475472,-1.28531027 C 56.669517,0.9049672 48.048045,1.3338758 48.048045,1.3338758 l -7.878063,1.4275721 -3.270111,1.5712494 -1.93227,0.7141399 4.310736,0.2852313 5.796812,0.1429696 6.243007,1.8564807 6.391242,1.4282799 6.538732,1.9994503 6.689202,3.141791 7.732062,4.427101 5.795322,5.283503 1.19184,1.143049 2.972151,0.142262 5.795322,1.143048 3.866031,0.571171 2.67419,2.427651 0.29796,3.141791 -1.19184,4.284132 -1.78031,3.28476 z" />
    <path
       id="path3269"
       sodipodi:nodetypes="cccccccccccccccccccccccccccccccccccccccccccccccc"
       style="opacity:0.3785;fill:#000000;fill-opacity:1;stroke-width:0.726098"
       d="m 94.744336,42.288279 3.389295,-0.757314 5.340929,0.251966 3.80644,-1.363165 2.13042,-1.867805 5.67614,13.076759 2.36133,2.574867 3.87348,2.919551 3.82133,2.477195 0.35011,0.920101 0.25326,0.870557 -0.49163,0.61576 -5.84746,-3.652093 -2.42838,-0.162787 0.99817,3.836113 -0.0298,4.593428 -2.28684,5.053478 -4.23103,4.996856 -3.59787,0.04954 -3.13603,-1.0475 -14.235039,0.516672 -9.214413,-1.797736 3.337152,7.113089 3.895827,3.227431 1.757964,2.498428 0.0298,2.094999 -0.655512,0.835169 -2.070822,-1.089966 -1.988883,-3.234509 -2.413476,-3.935201 -1.236534,-1.273986 -3.910725,-4.048444 -4.886544,-3.411452 -1.04286,-2.250708 8.097063,-6.490251 3.679806,-6.546873 0.268164,6.079745 -0.312858,7.948257 3.366948,1.033344 4.551339,-0.18402 3.076437,-0.948412 -0.618267,-2.257786 -6.875427,-5.966502 -3.188172,0.537906 -0.357552,-6.36993 2.540109,-3.044119 7.039305,-8.987264 z" />
  </g>
  <metadata
     id="metadata2722">
    <rdf:RDF />
  </metadata>
</svg>
