<?xml version="1.0" encoding="UTF-8" standalone="no"?>
<!-- Created with Inkscape (http://www.inkscape.org/) -->

<svg
   width="947.74042"
   height="649.47247"
   viewBox="0 0 250.75631 171.8396"
   version="1.1"
   id="svg5"
   inkscape:version="1.1.1 (3bf5ae0d25, 2021-09-20)"
   sodipodi:docname="menu-background.svg"
   xmlns:inkscape="http://www.inkscape.org/namespaces/inkscape"
   xmlns:sodipodi="http://sodipodi.sourceforge.net/DTD/sodipodi-0.dtd"
   xmlns:xlink="http://www.w3.org/1999/xlink"
   xmlns="http://www.w3.org/2000/svg"
   xmlns:svg="http://www.w3.org/2000/svg">
  <sodipodi:namedview
     id="namedview7"
     pagecolor="#000000"
     bordercolor="#ffffff"
     borderopacity="1"
     inkscape:pageshadow="0"
     inkscape:pageopacity="0"
     inkscape:pagecheckerboard="1"
     inkscape:document-units="mm"
     showgrid="false"
     inkscape:snap-global="false"
     inkscape:zoom="0.76435188"
     inkscape:cx="343.42821"
     inkscape:cy="249.23076"
     inkscape:window-width="1920"
     inkscape:window-height="1017"
     inkscape:window-x="1272"
     inkscape:window-y="-8"
     inkscape:window-maximized="1"
     inkscape:current-layer="layer1"
     fit-margin-top="0"
     fit-margin-left="0"
     fit-margin-right="0"
     fit-margin-bottom="0"
     units="px" />
  <defs
     id="defs2">
    <rect
       x="-358.47363"
       y="-300.90854"
       width="1034.8636"
       height="298.29193"
       id="rect2052" />
    <rect
       x="-697.53021"
       y="-251.62894"
       width="1032.4187"
       height="501.40765"
       id="rect17435" />
    <rect
       x="-125.5966"
       y="-204.09448"
       width="1076.7292"
       height="248.57661"
       id="rect2308" />
    <rect
       x="-396.87064"
       y="-6.4757447"
       width="470.87915"
       height="440.35065"
       id="rect32972" />
  </defs>
  <g
     inkscape:label="Layer 1"
     inkscape:groupmode="layer"
     id="layer1"
     transform="translate(-44.831613,4.1652009)">
    <ellipse
       style="fill:#6a5243;fill-opacity:1;stroke:none;stroke-width:2.59971;stroke-linecap:round;stroke-linejoin:round;stroke-miterlimit:4;stroke-dasharray:none;stroke-opacity:1"
       id="path29224"
       cx="176.93376"
       cy="125.74316"
       rx="40.013256"
       ry="39.712551" />
    <path
       id="path31493"
       style="fill:#000000;fill-opacity:1;stroke-width:0.107589;stroke-linejoin:bevel"
       d="m 165.67315,161.14516 c -0.61929,0.14315 -0.88361,-0.36755 -0.52649,-1.43443 0.95224,-1.67674 3.58935,-5.08034 4.28746,-5.82846 0.56291,0.009 1.13073,0.71306 1.178,1.83086 -0.49447,1.01534 -3.74575,4.71127 -4.93897,5.43203 z"
       sodipodi:nodetypes="ccccc" />
    <g
       id="g31453"
       transform="matrix(0.06874011,-0.99794061,1.0694346,0.06414469,38.294251,256.19398)">
      <ellipse
         style="fill:#f0ff00;fill-opacity:1;stroke-width:0.307943;stroke-linejoin:bevel"
         id="ellipse31449"
         cx="103.8029"
         cy="122.27885"
         rx="6.7932696"
         ry="7.5288458" />
      <ellipse
         style="fill:#050505;fill-opacity:1;stroke-width:0.307943;stroke-linejoin:bevel"
         id="ellipse31451"
         cx="106.13943"
         cy="122.45192"
         rx="6.7932696"
         ry="7.5288458" />
    </g>
    <g
       id="g14903"
       transform="rotate(-86.322255,157.71283,100.21655)">
      <ellipse
         style="fill:#f0ff00;fill-opacity:1;stroke-width:0.307943;stroke-linejoin:bevel"
         id="path9417"
         cx="103.8029"
         cy="122.27885"
         rx="6.7932696"
         ry="7.5288458" />
      <ellipse
         style="fill:#050505;fill-opacity:1;stroke-width:0.307943;stroke-linejoin:bevel"
         id="ellipse11237"
         cx="106.13943"
         cy="122.45192"
         rx="6.7932696"
         ry="7.5288458" />
    </g>
    <g
       id="g4839"
       transform="matrix(0.0595055,-0.92576566,0.86182462,0.05539556,63.219331,239.47519)">
      <ellipse
         style="fill:#f8ff25;fill-opacity:1;stroke-width:0.183264;stroke-linejoin:bevel"
         id="ellipse4835"
         cx="103.69713"
         cy="122.77692"
         rx="7.573081"
         ry="9.7352018" />
      <ellipse
         style="fill:#050505;fill-opacity:1;stroke-width:0.169785;stroke-linejoin:bevel"
         id="ellipse4833"
         cx="105.3187"
         cy="122.58856"
         rx="6.5634127"
         ry="9.6410179" />
    </g>
    <path
       id="path27368"
       style="fill:#ffffff;fill-opacity:1;stroke:#000000;stroke-width:1.66073;stroke-linejoin:bevel;stroke-miterlimit:4;stroke-dasharray:none;stroke-opacity:1"
       d="m 186.4037,129.35681 c -4.48059,-2.89505 -17.96176,-3.76532 -21.20108,3.31042 -2.62109,5.72528 2.07573,25.62598 7.93778,24.49547 7.203,-1.61427 21.19442,-22.53713 13.2633,-27.80589 z"
       sodipodi:nodetypes="cscc" />
    <use
       x="0"
       y="0"
       xlink:href="#rect76516"
       id="use78163"
       transform="matrix(0.94444974,-0.30109763,0.35873642,0.94444974,-39.705871,62.805424)"
       width="100%"
       height="100%" />
    <rect
       style="fill:#050505;fill-opacity:1;stroke:none;stroke-width:3.92799;stroke-linecap:round;stroke-linejoin:round;stroke-miterlimit:4;stroke-dasharray:none;stroke-opacity:1;paint-order:stroke fill markers"
       id="rect76516"
       width="2.2245388"
       height="11.103827"
       x="-220.90773"
       y="-14.618131"
       transform="matrix(-0.81277975,-0.58257109,-0.64940074,0.76044637,0,0)" />
    <path
       id="path117403"
       style="fill:#050505;stroke-width:1.82265;stroke-linecap:round;stroke-linejoin:round"
       d="m 181.02646,116.90095 -1.92998,0.92406 c 0,0 -14.3058,-10.97273 -16.12854,-15.59626 -0.41902,-1.06287 0.60119,-1.55131 1.92995,-0.92405 5.78032,2.72865 16.12857,15.59625 16.12857,15.59625 z"
       sodipodi:nodetypes="ccaac"
       inkscape:transform-center-x="7.2303784"
       inkscape:transform-center-y="-7.0305544" />
    <path
       id="path22857"
       style="fill:#050505;stroke-width:1.82265;stroke-linecap:round;stroke-linejoin:round"
       d="m 189.0411,117.61199 -2.17725,0.0401 c 0,0 -7.47736,-15.66036 -6.86256,-20.543843 0.1411,-1.122677 1.29221,-1.143886 2.17716,-0.04007 3.84984,4.800993 6.86265,20.543853 6.86265,20.543853 z"
       sodipodi:nodetypes="ccaac"
       inkscape:transform-center-x="3.2948965"
       inkscape:transform-center-y="-9.752964" />
    <ellipse
       style="fill:#ffffff;fill-opacity:1;stroke:#000000;stroke-width:1.80452;stroke-linejoin:bevel;stroke-miterlimit:4;stroke-dasharray:none;stroke-opacity:1"
       id="ellipse8524"
       cx="-79.72982"
       cy="-208.69411"
       rx="8.3229952"
       ry="5.8529735"
       transform="matrix(0.39286473,-0.91959627,-0.9637793,-0.26670107,0,0)" />
    <path
       id="ellipse4848"
       style="fill:#f0ff00;stroke:#000000;stroke-width:1.66073;stroke-linejoin:bevel;stroke-miterlimit:4;stroke-dasharray:none;stroke-opacity:1"
       d="m 188.97048,128.83613 c -3.80948,-3.61263 -16.87419,-6.78066 -21.50269,-0.38597 -3.74514,5.17425 -3.19975,25.5287 2.78968,25.42405 7.40556,-0.34979 25.42667,-18.50169 18.71301,-25.03808 z"
       sodipodi:nodetypes="cscc" />
    <ellipse
       style="fill:#ffffff;fill-opacity:1;stroke:#000000;stroke-width:1.91077;stroke-linejoin:bevel;stroke-miterlimit:4;stroke-dasharray:none;stroke-opacity:1"
       id="ellipse4850"
       cx="-87.094681"
       cy="-222.20206"
       rx="9.0241728"
       ry="7.0872955"
       transform="matrix(0.37111455,-0.92858709,-0.97336708,-0.22925212,0,0)" />
    <ellipse
       style="fill:#0d0d0d;fill-opacity:1;stroke:none;stroke-width:1.22877;stroke-linejoin:bevel;stroke-miterlimit:4;stroke-dasharray:none;stroke-opacity:1"
       id="ellipse8628"
       cx="17.67742"
       cy="-227.30913"
       rx="3.2380495"
       ry="1.780616"
       transform="matrix(0.56274683,-0.82662931,-0.7676501,-0.64086919,0,0)" />
    <g
       id="g31447"
       transform="translate(44.289111,24.160571)">
      <path
         id="path18000"
         style="fill:#050505;stroke-width:0.107589;stroke-linejoin:bevel"
         d="m 139.28035,127.60649 c -0.11932,-0.62432 0.40112,-0.86889 1.45354,-0.47117 1.63905,1.01575 4.93916,3.78127 5.66,4.50752 -0.0308,0.56215 -0.75584,1.1026 -1.87463,1.10702 -0.99566,-0.53299 -4.56437,-3.92342 -5.23891,-5.14337 z"
         sodipodi:nodetypes="ccccc" />
      <g
         id="g28124"
         transform="rotate(0.61416294,263.26727,32.565019)">
        <path
           id="path18120"
           style="fill:#050505;stroke-width:0.0850969;stroke-linejoin:bevel"
           d="m 147.01278,127.97098 c 0.3832,-0.52206 0.78824,-0.49575 0.98294,0.23424 0.0259,1.43737 -0.42597,4.87778 -0.61016,5.72191 -0.4072,0.4138 -1.11119,0.52866 -1.61709,0.0767 -0.0745,-0.80943 0.69386,-4.83308 1.24431,-6.03283 z"
           sodipodi:nodetypes="ccccc"
           inkscape:transform-center-x="-0.40689585"
           inkscape:transform-center-y="-2.2619774" />
        <path
           id="path18122"
           style="fill:#050505;stroke-width:0.0364336;stroke-linejoin:bevel"
           d="m 146.00748,125.77991 c -0.19104,0.007 -0.25368,0.2213 -0.11085,0.58227 0.34202,0.52959 1.24815,1.53678 1.48296,1.74675 0.16904,-0.0577 0.31655,-0.37317 0.29375,-0.79194 -0.1824,-0.32862 -1.28298,-1.38496 -1.66584,-1.53709 z"
           sodipodi:nodetypes="ccccc"
           inkscape:transform-center-x="-0.27390372"
           inkscape:transform-center-y="-6.2713351" />
      </g>
    </g>
    <ellipse
       style="fill:#000000;fill-opacity:1;stroke-width:0.165026;stroke-linecap:round;stroke-linejoin:round"
       id="path28870"
       cx="171.2747"
       cy="150.9566"
       rx="0.69665647"
       ry="0.48773414" />
    <use
       x="0"
       y="0"
       xlink:href="#path28870"
       id="use28952"
       transform="translate(-1.896948,0.030596)"
       width="100%"
       height="100%" />
    <ellipse
       style="fill:none;fill-opacity:1;stroke:#000000;stroke-width:3.90349;stroke-linecap:round;stroke-linejoin:round;stroke-miterlimit:4;stroke-dasharray:none;stroke-opacity:1"
       id="ellipse31455"
       cx="176.93376"
       cy="125.87692"
       rx="40.01265"
       ry="39.845718" />
    <path
       id="path31495"
       style="fill:#000000;fill-opacity:1;stroke-width:0.071053;stroke-linejoin:bevel"
       d="m 163.84434,164.42473 c -0.47077,0.30267 -0.82758,0.20399 -0.82444,-0.36284 0.32675,-1.04581 1.56968,-3.44797 1.94043,-4.02294 0.46593,-0.21956 1.12521,-0.16432 1.46883,0.26236 -0.13027,0.60071 -1.79902,3.36297 -2.58478,4.12342 z"
       sodipodi:nodetypes="ccccc"
       inkscape:transform-center-x="0.81230251"
       inkscape:transform-center-y="1.5548632" />
    <text
       xml:space="preserve"
       transform="matrix(0.26458333,0,0,0.26458333,1.7003262,-29.857496)"
       id="text2306"
       style="font-style:normal;font-weight:normal;font-size:40px;line-height:1.25;font-family:sans-serif;white-space:pre;shape-inside:url(#rect2308);fill:#000000;fill-opacity:1;stroke:none" />
    <text
       xml:space="preserve"
       transform="matrix(0.26458333,0,0,0.26458333,4.5407672,-81.960051)"
       id="text17433"
       style="font-style:normal;font-weight:normal;font-size:40px;line-height:1.25;font-family:sans-serif;white-space:pre;shape-inside:url(#rect17435);fill:#000000;fill-opacity:1;stroke:none" />
    <text
       xml:space="preserve"
       transform="matrix(0.26458333,0,0,0.26458333,134.96937,84.079456)"
       id="text2050"
       style="font-style:normal;font-weight:normal;font-size:40px;line-height:1.25;font-family:sans-serif;white-space:pre;shape-inside:url(#rect2052);fill:#000000;fill-opacity:1;stroke:none" />
    <g
       aria-label="Beehive  Adventures"
       id="text2322"
       style="font-size:35.2778px;line-height:1.25;font-family:Lobster;-inkscape-font-specification:'Lobster, Normal';fill:#f0ff00;stroke-width:0.264583">
      <path
         d="m 74.5136,80.472936 q -0.395659,1.354508 -1.268068,2.202234 -0.828656,0.823755 -2.217026,0.418205 -0.88043,-0.257178 -1.835448,-1.01392 0.8553,-0.411699 1.274574,-0.840508 0.429165,-0.462672 0.607211,-1.0722 0.494573,-1.693135 -1.164343,-3.059761 -1.649025,-1.40049 -3.951688,-2.073109 -4.300563,-1.256215 -5.240252,1.960741 -0.267069,0.914293 -0.353419,1.587359 l 12.158314,6.56517 -1.42437,4.876228 -20.191437,-10.896294 0.786681,-5.209509 7.052621,3.787451 0.05935,-0.203176 q 0.375875,-1.286783 -0.110412,-2.641647 -0.520149,-1.364755 -1.57524,-2.407993 -1.088953,-1.05313 -2.375736,-1.429005 -1.557684,-0.455007 -2.933845,0.355827 -1.366271,0.776971 -2.028998,3.045772 -0.603379,2.065624 -0.228928,4.306622 0.340588,2.231105 1.837052,4.028056 1.506356,1.763087 4.147647,2.534621 1.25292,0.365984 1.8301,0.277317 0.543318,-0.09856 0.611044,-0.07878 -0.524248,1.794723 -1.502434,2.501295 -1.012048,0.696681 -2.671321,0.212 -2.302663,-0.67262 -3.863823,-3.002996 -1.561161,-2.330377 -1.983198,-5.540827 -0.4559,-3.220342 0.464006,-6.369573 0.692402,-2.370389 1.912171,-3.778187 1.219769,-1.407797 2.66633,-1.830547 1.456452,-0.456612 2.912548,-0.03128 1.557684,0.455007 2.756602,1.76077 1.198919,1.305763 1.638421,3.198241 0.965978,-1.922955 2.776651,-2.459858 1.776811,-0.546794 3.842436,0.05658 1.930174,0.563813 3.981362,1.97152 2.061081,1.373844 3.22578,3.551661 1.140728,2.134062 0.379086,4.74149 z"
         id="path10270" />
      <path
         d="m 79.842182,67.652877 q -1.36151,2.227397 -3.259659,2.762342 -1.928249,0.516545 -4.396446,-0.992155 -2.076898,-1.269517 -4.078427,-3.609315 -2.00153,-2.339799 -2.685202,-5.279824 -0.713772,-2.958424 1.015714,-5.78782 2.023867,-3.310996 4.913464,-1.544713 1.685598,1.030332 2.511535,2.858274 0.825937,1.827942 0.7237,3.956805 -0.132337,2.110464 -1.115864,3.990057 0.866201,0.612164 1.167201,0.796152 1.474898,0.901541 2.329477,0.721019 0.824479,-0.19892 1.523633,-1.342718 0.993534,-1.625398 0.940189,-3.229167 -0.03495,-1.633868 -0.7237,-3.956805 l 0.625559,-1.023398 q 3.526227,6.744871 0.508826,11.681266 z m -7.668793,-4.77029 q 0.620555,-1.150496 0.505316,-2.585366 -0.09684,-1.46497 -0.842563,-2.747724 -0.727324,-1.312855 -1.961423,-2.067205 -1.234099,-0.75435 -1.694068,-0.0019 -0.662357,1.083599 0.589984,3.296221 1.270738,2.182522 3.402754,4.105925 z"
         id="path10272" />
      <path
         d="m 87.69224,56.682595 q -1.755819,1.931867 -3.720677,2.100589 -1.990965,0.144995 -4.131682,-1.800643 -1.801335,-1.637182 -3.327522,-4.311417 -1.526187,-2.674235 -1.645201,-5.690357 -0.145121,-3.039849 2.085244,-5.493842 2.610001,-2.871693 5.116207,-0.593874 1.461953,1.328728 1.929676,3.279312 0.467724,1.950584 -0.03274,4.022309 -0.52657,2.047999 -1.845781,3.709286 0.735734,0.764031 0.996797,1.001304 1.279209,1.162637 2.152487,1.145921 0.847171,-0.04044 1.748808,-1.032483 1.281273,-1.409741 1.530252,-2.994963 0.272706,-1.611328 0.03274,-4.022309 l 0.806727,-0.887615 q 2.195939,7.287348 -1.695336,11.568782 z m -6.63576,-6.126397 q 0.825697,-1.013388 0.982146,-2.444351 0.180176,-1.457069 -0.311212,-2.857105 -0.46766,-1.426141 -1.538019,-2.39896 -1.070358,-0.972819 -1.66354,-0.320161 -0.854183,0.939827 -0.03994,3.348367 0.83797,2.382433 2.570565,4.67221 z"
         id="path10274" />
      <path
         d="m 103.52815,42.666029 q -1.7251,1.286421 -3.22008,0.993023 -1.487783,-0.342766 -2.500048,-1.700227 -0.442866,-0.593889 -0.849774,-1.434625 -0.427997,-0.869016 -0.813816,-1.681472 -0.357539,-0.833544 -0.4486,-1.073685 -0.511867,-1.158526 -1.030925,-2.267683 -0.519058,-1.109157 -0.961924,-1.703046 -1.075532,-1.442303 -2.093628,-0.683104 -0.735291,0.548311 -0.75259,1.705379 -0.03839,1.128788 0.486891,2.541353 l 4.846454,10.512064 -4.072384,3.036795 -10.23976,-22.288584 3.763728,-3.68676 3.787249,8.26547 q 0.233046,-2.638148 2.127835,-4.051102 1.442303,-1.075531 2.881204,-0.916345 1.438901,0.159187 2.640966,1.771172 0.611577,0.820133 1.172813,1.985851 0.540147,1.137437 1.248033,2.853895 0.427511,1.045404 0.862216,2.041439 0.44189,0.946666 0.8004,1.427434 0.42178,0.565609 0.90828,0.686894 0.4865,0.121285 1.10867,-0.34267 0.84842,-0.632666 0.9146,-1.606154 0.0451,-1.00177 -0.39486,-2.653989 l 1.18778,-0.885732 q 1.2734,3.891136 0.68903,5.999147 -0.57717,2.058642 -2.04776,3.155262 z"
         id="path10276" />
      <path
         d="m 103.54861,19.743534 q -1.02362,0.554521 -2.12353,0.227574 -1.09992,-0.326946 -1.654439,-1.350564 -0.55452,-1.023617 -0.227573,-2.123532 0.310142,-1.130933 1.333762,-1.685453 1.02362,-0.554521 2.14033,-0.196555 1.13094,0.310142 1.68546,1.33376 0.55452,1.023618 0.19655,2.140336 -0.32694,1.099914 -1.35056,1.654434 z m 7.30077,18.513129 q -1.4889,0.806575 -2.92357,0.380123 -1.40365,-0.443256 -2.41187,-2.304379 -0.42009,-0.775467 -0.84409,-2.150645 l -3.2847,-11.099656 4.4667,-2.419725 3.47989,11.756226 q 0.12798,0.532495 0.41364,1.059813 0.33608,0.620374 0.76648,0.74831 0.44461,0.08011 1.12702,-0.289567 0.89955,-0.487306 1.27173,-1.651846 0.35537,-1.195559 0.0412,-2.590129 l 1.30278,-0.705754 q 0.66711,3.971757 -0.47664,6.156098 -1.16054,2.153323 -2.92861,3.111131 z"
         id="path10278" />
      <path
         d="m 119.72277,33.810802 q -1.89483,0.772145 -3.35899,0.264056 -1.44481,-0.554072 -2.23026,-2.481568 -0.31951,-0.784066 -0.47567,-1.634697 l -2.17417,-12.06613 4.7044,-1.917049 2.17416,12.06613 q 0.16948,0.883299 0.31592,1.242663 0.43932,1.078091 1.55008,0.625455 1.5028,-0.612391 2.00476,-3.026419 0.53463,-2.42734 0.25367,-5.360403 -0.28096,-2.933062 -1.05311,-4.827889 0.001,0.189973 -0.3182,0.434422 -0.33273,0.21178 -0.59409,0.318283 -0.55538,0.226319 -1.09508,-0.163264 -0.50703,-0.402895 -0.75997,-1.023614 -0.31951,-0.784066 -0.0292,-1.4738 0.32302,-0.703047 1.33577,-1.115746 1.07809,-0.439323 1.90095,0.17772 0.80955,0.584373 1.31544,1.825811 1.19815,2.940249 1.55663,6.717898 0.34515,3.74498 -0.78717,6.9492 -1.13231,3.204221 -4.23591,4.468941 z"
         id="path10280" />
      <path
         d="m 134.32449,28.53465 q -2.47839,0.699753 -4.23462,-0.197354 -1.76581,-0.931058 -2.55183,-3.715002 -0.66142,-2.342586 -0.54036,-5.419293 0.12105,-3.076706 1.61689,-5.698464 1.48626,-2.655708 4.67761,-3.5567603 3.73456,-1.0544234 4.65478,2.2048273 0.5368,1.901229 -0.0991,3.803645 -0.63589,1.902417 -2.15729,3.395022 -1.53097,1.458655 -3.52966,2.169597 0.14298,0.766083 0.21967,1.037688 0.79561,2.817893 2.90054,2.223582 0.95061,-0.268399 1.89325,-1.084398 0.94263,-0.815999 1.60487,-1.846089 0.50202,5.283491 -4.45476,6.682999 z m -2.38603,-8.710506 q 1.28053,-0.398206 2.17084,-1.529346 0.92427,-1.140725 1.24861,-2.588608 0.3487,-1.491419 -0.0443,-2.883391 -0.39301,-1.391971 -1.24178,-1.15233 -1.18826,0.335499 -1.76305,2.843831 -0.55042,2.464796 -0.37031,5.309844 z"
         id="path10282" />
      <path
         d="m 164.83921,26.959993 q -1.30423,0.05227 -2.29969,-0.119671 -0.99546,-0.171941 -1.76819,-0.953013 -0.73749,-0.782485 -0.8053,-2.474461 -0.0947,-2.361717 1.1557,-6.401419 1.28559,-4.041115 3.45101,-8.1527967 -1.75824,0.1763837 -2.76352,0.6403462 -1.00528,0.4639625 -1.28721,1.3579145 0.141,-0.0057 0.29612,0.341193 0.19038,0.345432 0.20592,0.733176 0.0254,0.634492 -0.52303,1.044839 -0.54986,0.375099 -1.39585,0.409004 -0.98699,0.03956 -1.60742,-0.465171 -0.62043,-0.504727 -0.65999,-1.491713 -0.048,-1.198483 0.8289,-2.2221995 0.91218,-1.0251291 2.54631,-1.6555184 1.63271,-0.6656387 3.64193,-0.7461629 0.74024,-0.029667 1.83721,0.032288 2.70681,-4.6982773 5.79867,-7.71729287 3.1257,-3.05567773 6.05141,-3.17293233 1.69198,-0.06781 2.80449,0.3818894 l -4.49442,26.1654298 -5.07593,0.20343 2.2014,-12.9043488 q -1.32825,-0.5469714 -2.43228,-0.7851736 -1.10404,-0.2382022 -2.34201,-0.294506 -1.83546,4.4162134 -2.95745,9.0156694 -1.08816,4.562794 -0.97938,7.277006 0.0537,1.339481 0.5726,1.954194 z m 10.05382,-28.4006843 q -1.48323,0.87148489 -3.05096,3.1586008 -1.53389,2.2504537 -2.95914,5.4498186 2.55774,0.3917783 4.34989,1.0613826 z"
         id="path10284" />
      <path
         d="m 184.76091,23.111581 q -2.0007,-0.201554 -3.1966,-1.704829 -1.1959,-1.503274 -0.90241,-4.416586 0.26167,-2.59741 1.56599,-5.337976 1.34296,-2.7721305 3.57678,-4.5326481 2.27247,-1.7920816 5.11558,-1.5056625 1.4391,0.1449776 2.0916,0.7071003 0.6525,0.5621227 0.57117,1.3694259 l -0.0141,0.1404005 2.53319,-7.89976593 5.26554,-0.17866911 -5.94597,18.54742994 q -0.19344,0.512358 -0.25356,1.109061 -0.0707,0.702002 0.21336,1.049728 0.32271,0.316162 1.09492,0.393954 0.9828,0.09901 1.76967,-0.672673 0.82196,-0.768147 1.38461,-2.12972 l 1.4742,0.148514 q -2.77406,6.067226 -7.68808,5.572181 -1.4391,-0.144978 -2.27391,-1.009118 -0.79971,-0.860604 -0.8618,-2.356026 -1.05404,1.312069 -2.44469,2.093839 -1.35554,0.785306 -3.07545,0.61204 z m 2.62451,-3.174871 q 0.8424,0.08486 1.7626,-0.602473 0.95529,-0.683802 1.4091,-2.020883 l 0.0177,-0.175501 2.52966,-7.8646654 q -0.19214,-1.2603292 -1.31534,-1.3734824 -1.40401,-0.1414416 -2.69341,1.3951117 -1.28586,1.5014531 -2.15104,3.7544141 -0.86164,2.21786 -1.03845,3.972867 -0.1768,1.755007 0.2651,2.295913 0.477,0.544443 1.2141,0.618699 z"
         id="path10286" />
      <path
         d="m 202.88328,25.501952 q -1.9982,-0.44021 -2.915,-1.689773 -0.87476,-1.276424 -0.42696,-3.309073 0.18216,-0.82684 0.53657,-1.615731 l 5.06106,-11.1671029 4.96104,1.0929339 -5.06106,11.167103 q -0.362,0.823342 -0.44549,1.202311 -0.25046,1.136905 0.92089,1.394959 1.58478,0.349132 3.36861,-1.353063 1.81827,-1.694604 3.2523,-4.268582 1.43402,-2.573979 1.87423,-4.572176 -0.10685,0.157079 -0.50859,0.176946 -0.39415,-0.01459 -0.66976,-0.0753 -0.58568,-0.129027 -0.80876,-0.756152 -0.18862,-0.619536 -0.0444,-1.274117 0.18216,-0.8268405 0.81278,-1.2297684 0.66507,-0.395338 1.73308,-0.1600537 1.1369,0.250464 1.46393,1.2256031 0.33462,0.940688 0.0462,2.249851 -0.68309,3.100651 -2.53284,6.413889 -1.84216,3.278787 -4.59354,5.273559 -2.75137,1.994772 -6.02428,1.27374 z"
         id="path10288" />
      <path
         d="m 217.98736,29.398701 q -2.47329,-0.835382 -3.41464,-2.568295 -0.93007,-1.766335 -0.004,-4.507004 0.77893,-2.306173 2.61833,-4.775463 1.8394,-2.46929 4.55553,-3.786032 2.72741,-1.350164 5.86916,-0.289003 3.6765,1.241784 2.59276,4.450372 -0.63218,1.871676 -2.23229,3.081301 -1.60011,1.209625 -3.69889,1.580572 -2.0875,0.337524 -4.13803,-0.206122 -0.40551,0.980106 -0.5184,1.314334 -0.55316,1.637717 -0.18817,2.431239 0.37627,0.7601 1.64634,1.18908 1.80483,0.609603 3.35712,0.203013 1.58571,-0.395301 3.6989,-1.580572 l 1.13637,0.383825 q -5.79838,4.930143 -11.27972,3.078755 z m 2.95682,-8.533656 q 1.25922,0.350845 2.6331,-0.07877 1.40731,-0.418323 2.49346,-1.429188 1.11957,-0.999575 1.58242,-2.369909 0.46284,-1.370335 -0.37273,-1.652558 -1.20322,-0.406403 -3.08422,1.30412 -1.84758,1.721812 -3.25203,4.226301 z"
         id="path10290" />
      <path
         d="m 237.4957,37.650691 q -1.9235,-0.964882 -2.33179,-2.432649 -0.36093,-1.483482 0.39832,-2.99706 0.33217,-0.66219 0.9011,-1.402956 0.58474,-0.772299 1.13785,-1.481532 0.58464,-0.693415 0.75843,-0.88251 0.80589,-0.977108 1.56442,-1.938502 0.75854,-0.961393 1.09071,-1.623583 0.8067,-1.608177 -0.32848,-2.177616 -0.81985,-0.411261 -1.86177,0.09224 -1.0261,0.471967 -2.05303,1.575002 l -7.22173,9.046444 -4.54073,-2.277756 11.25136,-14.089754 4.54073,2.277756 -1.16938,1.465714 q 2.46243,-0.974953 4.57514,0.08484 1.60817,0.806705 2.11126,2.164158 0.50309,1.357453 -0.39852,3.154827 -0.45872,0.914453 -1.24889,1.938912 -0.77435,0.992926 -1.99098,2.395472 -0.74261,0.850977 -1.43788,1.686239 -0.64791,0.819547 -0.91681,1.355605 -0.31636,0.630658 -0.20655,1.119879 0.1098,0.489221 0.80352,0.837212 0.94599,0.474533 1.84575,0.09706 0.91558,-0.409004 2.19497,-1.543263 l 1.32438,0.664345 q -2.90667,2.883359 -5.05285,3.306538 -2.09884,0.407465 -3.73855,-0.415059 z"
         id="path10292" />
      <path
         d="m 244.7726,42.130472 q -1.39297,-0.962822 -1.66181,-2.435189 -0.23982,-1.452309 0.96371,-3.193518 0.50147,-0.725503 1.53598,-1.725838 l 7.37773,-6.951133 -0.95767,-0.661939 1.03452,-1.000336 0.95766,0.66194 3.63872,-3.403016 4.69615,2.388297 -4.15597,3.903184 1.74121,1.203527 -1.03451,1.000335 -1.74121,-1.203527 -7.87493,7.42228 q -0.41696,0.355067 -0.75796,0.848409 -0.40117,0.580403 -0.32052,1.022113 0.12973,0.432749 0.76817,0.874042 0.84159,0.581705 2.0485,0.386691 1.22697,-0.224033 2.32849,-1.135172 l 1.21884,0.842469 q -3.24009,2.392 -5.70555,2.360376 -2.4454,-0.06064 -4.09955,-1.203995 z"
         id="path10294" />
      <path
         d="m 252.39938,47.628488 q -1.21502,-1.179452 -1.23725,-2.675997 0.003,-1.471973 1.4774,-2.990749 0.6143,-0.632823 1.79968,-1.448764 l 9.60886,-6.454559 3.64506,3.538356 -10.17698,6.837216 q -0.44452,0.305979 -0.76395,0.635047 -1.00745,1.03783 -0.24806,1.774987 0.70876,0.688014 1.78017,0.597255 1.09598,-0.116072 2.40719,-0.859039 l 9.60886,-6.454559 3.64506,3.538357 -10.17698,6.837216 q -0.46983,0.281406 -0.88755,0.711726 -0.49144,0.506258 -0.48477,0.955222 0.0566,0.448223 0.61344,0.988805 0.70876,0.688013 1.80474,0.571942 1.1213,-0.0915 2.40793,-0.809154 l 1.06315,1.03202 q -3.59035,1.824635 -5.94087,1.460384 -2.30063,-0.364993 -3.69284,-1.716448 -1.08845,-1.056592 -1.15686,-2.302973 -0.0431,-1.221808 0.98522,-2.534375 -2.2121,0.556766 -3.66543,0.129292 -1.42802,-0.402903 -2.41522,-1.361208 z"
         id="path10296" />
      <path
         d="m 278.7477,49.885322 2.80386,4.236128 -2.07701,0.824791 q 1.54455,0.416058 2.54095,0.898792 1.01588,0.512151 1.63896,1.453513 0.62308,0.941361 0.32638,1.899246 -0.27723,0.987301 -1.18918,1.590911 -0.85311,0.564667 -1.87025,0.434102 -1.01714,-0.130566 -1.67916,-1.130763 -0.42837,-0.647186 -0.28996,-1.077239 0.18729,-0.420107 0.69776,-0.927203 0.32401,-0.341379 0.4421,-0.54646 0.11809,-0.20508 -0.0377,-0.44042 -0.40889,-0.617769 -0.96572,-0.883791 -0.50794,-0.256075 -1.57355,-0.523782 l -12.73637,5.045681 -2.80386,-4.236128 z"
         id="path10298" />
      <path
         d="m 271.76761,73.468311 q -0.9758,-2.42133 -0.27305,-4.26396 0.73546,-1.855817 3.41856,-2.937101 2.25772,-0.909861 5.32957,-1.120874 3.07185,-0.211012 5.83946,0.993765 2.80033,1.191591 4.03985,4.267334 1.45051,3.599274 -1.69068,4.865168 -1.83236,0.738438 -3.79219,0.311137 -1.95984,-0.427301 -3.60762,-1.779092 -1.61505,-1.364976 -2.53712,-3.275471 -1.00799,0.330151 -1.3352,0.462014 -1.60331,0.646134 -1.96812,1.43974 -0.33208,0.78042 0.169,2.023806 0.71207,1.766916 2.03117,2.680642 1.33228,0.946446 3.60761,1.779091 l 0.44834,1.112503 q -7.51701,-1.192512 -9.67958,-6.558702 z m 8.40286,-3.310275 q 0.55334,1.184292 1.77379,1.9476 1.23363,0.79603 2.70802,0.962547 1.48758,0.199237 2.82913,-0.341405 1.34155,-0.540642 1.01189,-1.358659 -0.47471,-1.177944 -2.99764,-1.492425 -2.50974,-0.28176 -5.32519,0.282342 z"
         id="path10300" />
      <path
         d="m 275.62301,85.32713 q -0.33465,-1.659937 0.0577,-2.926637 0.42699,-1.273673 1.31832,-2.02917 0.92591,-0.762469 2.03253,-0.98557 1.14121,-0.230073 2.08273,0.155914 0.96913,0.344433 1.50291,1.028546 2.69264,0.860666 5.35015,1.36854 2.69209,0.500902 5.74367,0.821366 l 1.72348,4.978701 q -4.39164,1.065313 -9.4607,2.51911 -2.04006,0.591224 -2.97377,0.779465 -2.1095,0.425286 -3.67433,-0.374852 -1.56483,-0.800139 -2.47343,-2.272389 -0.90163,-1.437669 -1.22931,-3.063024 z m 2.50888,-1.657404 q 0.25796,1.279534 1.19306,1.990703 0.9351,0.711169 2.62962,0.369546 1.03746,-0.209157 2.86306,-0.793132 3.87263,-1.140616 5.20041,-1.516266 -2.8993,-0.279189 -7.10072,-1.483455 -0.25463,0.879049 -1.05002,1.039403 -0.65706,0.132466 -1.26642,-0.212522 -0.6024,-0.310406 -0.73486,-0.967464 -0.14641,-0.726222 0.26132,-1.024349 -1.24495,0.250988 -1.73524,0.853659 -0.48331,0.637252 -0.26021,1.743877 z"
         id="path10302" />
    </g>
  </g>
</svg>
