<?xml version="1.0" encoding="UTF-8" standalone="no"?>
<!-- Created with Inkscape (http://www.inkscape.org/) -->

<svg
   width="259.6301"
   height="323.43768"
   viewBox="0 0 68.693796 85.576224"
   version="1.1"
   id="svg5"
   inkscape:version="1.1 (c68e22c387, 2021-05-23)"
   sodipodi:docname="pink-jelly-maker.svg"
   xmlns:inkscape="http://www.inkscape.org/namespaces/inkscape"
   xmlns:sodipodi="http://sodipodi.sourceforge.net/DTD/sodipodi-0.dtd"
   xmlns:xlink="http://www.w3.org/1999/xlink"
   xmlns="http://www.w3.org/2000/svg"
   xmlns:svg="http://www.w3.org/2000/svg">
  <sodipodi:namedview
     id="namedview7"
     pagecolor="#505050"
     bordercolor="#ffffff"
     borderopacity="1"
     inkscape:pageshadow="0"
     inkscape:pageopacity="0"
     inkscape:pagecheckerboard="1"
     inkscape:document-units="mm"
     showgrid="false"
     inkscape:snap-global="false"
     inkscape:zoom="1.5287037"
     inkscape:cx="-41.538462"
     inkscape:cy="120.03634"
     inkscape:window-width="1920"
     inkscape:window-height="1017"
     inkscape:window-x="1272"
     inkscape:window-y="-8"
     inkscape:window-maximized="1"
     inkscape:current-layer="layer1"
     fit-margin-top="0"
     fit-margin-left="0"
     fit-margin-right="0"
     fit-margin-bottom="0"
     units="px" />
  <defs
     id="defs2" />
  <g
     inkscape:label="Layer 1"
     inkscape:groupmode="layer"
     id="layer1"
     transform="translate(-48.321691,-77.466247)">
    <use
       x="0"
       y="0"
       xlink:href="#rect76516"
       id="use78163"
       transform="matrix(0.94444974,-0.33745518,0.32008602,0.94444974,-29.063865,34.698755)"
       width="100%"
       height="100%" />
    <rect
       style="fill:#050505;fill-opacity:1;stroke:none;stroke-width:2.73471;stroke-linecap:round;stroke-linejoin:round;stroke-miterlimit:4;stroke-dasharray:none;stroke-opacity:1;paint-order:stroke fill markers"
       id="rect76516"
       width="1.5528941"
       height="7.7099414"
       x="-101.7588"
       y="-96.867142"
       transform="matrix(-0.02980321,-0.99955579,-0.9995063,0.0314189,0,0)" />
    <path
       id="path117403-5"
       style="fill:#050505;stroke-width:1.27123;stroke-linecap:round;stroke-linejoin:round"
       d="m 96.846377,94.183629 -1.324371,-0.566477 c 0,0 0.03101,-12.621111 1.817214,-15.753432 0.410615,-0.720073 1.110676,-0.42061 1.324346,0.566466 0.929539,4.293929 -1.817189,15.753443 -1.817189,15.753443 z"
       sodipodi:nodetypes="ccaac"
       inkscape:transform-center-x="-0.87541551"
       inkscape:transform-center-y="-7.1888411" />
    <path
       id="path22857-2"
       style="fill:#050505;stroke-width:1.27123;stroke-linecap:round;stroke-linejoin:round"
       d="m 99.83284,98.685446 -0.940177,-1.112748 c 0,0 5.500397,-11.287037 8.458017,-13.275229 0.67983,-0.457188 1.17691,0.131109 0.94014,1.1127 -1.02954,4.269811 -8.45799,13.275284 -8.45799,13.275284 z"
       sodipodi:nodetypes="ccaac"
       inkscape:transform-center-x="-3.8120816"
       inkscape:transform-center-y="-6.1983681" />
    <ellipse
       style="fill:#050505;fill-opacity:1;stroke-width:0.409037;stroke-linejoin:bevel"
       id="path846"
       cx="-137.76665"
       cy="-79.515274"
       rx="21.252007"
       ry="17.281563"
       transform="matrix(-0.03628895,-0.99934134,-0.9997911,0.02043892,0,0)" />
    <ellipse
       style="fill:#f8ff25;fill-opacity:1;stroke-width:0.376126;stroke-linejoin:bevel"
       id="ellipse1398"
       cx="-134.81682"
       cy="-79.416718"
       rx="17.969807"
       ry="17.281563"
       transform="matrix(-0.03628895,-0.99934134,-0.9997911,0.02043892,0,0)" />
    <ellipse
       style="fill:#050505;fill-opacity:1;stroke-width:0.346713;stroke-linejoin:bevel"
       id="ellipse1840"
       cx="-131.78387"
       cy="-79.515274"
       rx="15.269258"
       ry="17.281563"
       transform="matrix(-0.03628895,-0.99934134,-0.9997911,0.02043892,0,0)" />
    <ellipse
       style="fill:#f8ff25;fill-opacity:1;stroke-width:0.312998;stroke-linejoin:bevel"
       id="ellipse1842"
       cx="-129.29106"
       cy="-79.416718"
       rx="12.444074"
       ry="17.281563"
       transform="matrix(-0.03628895,-0.99934134,-0.9997911,0.02043892,0,0)" />
    <ellipse
       style="fill:#050505;fill-opacity:1;stroke-width:0.264891;stroke-linejoin:bevel"
       id="ellipse1844"
       cx="-125.42722"
       cy="-79.515274"
       rx="8.9125891"
       ry="17.281563"
       transform="matrix(-0.03628895,-0.99934134,-0.9997911,0.02043892,0,0)" />
    <g
       id="g4839"
       transform="matrix(-0.28737184,-1.1778339,-1.4948976,0.14489563,297.27972,221.23495)">
      <ellipse
         style="fill:#f8ff25;fill-opacity:1;stroke-width:0.183264;stroke-linejoin:bevel"
         id="ellipse4835"
         cx="103.69713"
         cy="122.77692"
         rx="7.573081"
         ry="9.7352018" />
      <ellipse
         style="fill:#050505;fill-opacity:1;stroke-width:0.169785;stroke-linejoin:bevel"
         id="ellipse4833"
         cx="105.3187"
         cy="122.58856"
         rx="6.5634127"
         ry="9.6410179" />
    </g>
    <g
       id="g85882"
       transform="matrix(-0.10137042,-0.76116789,-0.91292403,0.08451952,182.80551,143.79766)">
      <path
         id="path17998"
         style="fill:#050505;stroke-width:0.168509;stroke-linejoin:bevel"
         d="m 42.560233,127.44198 c 0.649251,0.82908 1.600929,0.70637 2.387734,-0.59215 0.72,-2.48879 1.251239,-8.34779 1.211501,-9.77139 -0.754704,-0.63733 -2.335021,-0.70162 -3.716098,0.17585 -0.544518,1.41292 -0.609247,8.21942 0.116863,10.18769 z"
         sodipodi:nodetypes="ccccc"
         inkscape:transform-center-x="-5.9216015"
         inkscape:transform-center-y="6.3596616" />
      <path
         id="path18103"
         style="fill:#050505;stroke-width:0.119841;stroke-linejoin:bevel"
         d="m 40.560008,135.19473 c -0.662508,0.42205 -1.129501,0.0564 -1.064633,-1.12654 0.54932,-2.03935 2.470167,-6.50356 3.027911,-7.53941 0.647148,-0.25054 1.523621,0.15943 1.937873,1.20463 -0.238647,1.19706 -2.768027,6.22336 -3.901151,7.46132 z"
         sodipodi:nodetypes="ccccc"
         inkscape:transform-center-x="-3.8035261"
         inkscape:transform-center-y="14.988236" />
      <path
         id="path18107"
         style="fill:#050505;stroke-width:0.108411;stroke-linejoin:bevel"
         d="m 36.962387,115.30553 c -0.551575,0.26976 -0.392826,0.844 0.603694,1.47878 1.852133,0.75483 6.126687,1.84961 7.152897,2.01666 0.405232,-0.35713 0.335363,-1.27494 -0.400506,-2.20178 -1.061457,-0.5081 -5.986655,-1.45612 -7.356085,-1.29366 z"
         sodipodi:nodetypes="ccccc"
         inkscape:transform-center-x="-2.6349061"
         inkscape:transform-center-y="1.1216943" />
      <path
         id="path18118"
         style="fill:#050505;stroke-width:0.0438447;stroke-linejoin:bevel"
         d="m 40.983711,137.57063 c -0.163533,0.13588 -0.446482,0.0114 -0.719133,-0.38109 -0.291454,-0.67388 -0.63657,-2.14423 -0.670899,-2.48469 0.200618,-0.079 0.661804,0.0629 1.095028,0.41283 0.205234,0.39612 0.444214,2.04922 0.294953,2.45303 z"
         sodipodi:nodetypes="ccccc"
         inkscape:transform-center-x="-2.1402528"
         inkscape:transform-center-y="20.23132" />
    </g>
    <g
       id="g14903"
       transform="matrix(0.12626488,-0.96225892,-1.3668338,-0.08662569,239.00413,223.58878)">
      <ellipse
         style="fill:#f0ff00;fill-opacity:1;stroke-width:0.307943;stroke-linejoin:bevel"
         id="path9417"
         cx="103.8029"
         cy="122.27885"
         rx="6.7932696"
         ry="7.5288458" />
      <ellipse
         style="fill:#050505;fill-opacity:1;stroke-width:0.307943;stroke-linejoin:bevel"
         id="ellipse11237"
         cx="106.13943"
         cy="122.45192"
         rx="6.7932696"
         ry="7.5288458" />
    </g>
    <g
       id="g18545"
       transform="matrix(-0.71988732,0.56572974,0.76070431,0.42098747,61.952164,16.485384)">
      <g
         id="g18541"
         transform="translate(2.9423077,-12.115385)">
        <path
           id="path18535"
           style="fill:#050505;stroke-width:0.167231;stroke-linejoin:bevel"
           d="m 81.839819,151.40775 c -0.728592,0.76184 -1.59969,0.49853 -2.143846,-0.95394 -0.30669,-2.67065 0.05865,-8.79051 0.305151,-10.25322 0.798839,-0.549 2.28487,-0.38814 3.44621,0.71544 0.300959,1.53568 -0.639609,8.56584 -1.607515,10.49172 z"
           sodipodi:nodetypes="ccccc" />
        <path
           id="path18537"
           style="fill:#050505;stroke-width:0.118932;stroke-linejoin:bevel"
           d="m 82.56848,159.69211 c 0.556927,0.53055 1.04703,0.22053 1.160404,-1.00902 -0.213317,-2.18252 -1.351462,-7.06336 -1.720241,-8.21199 -0.567808,-0.35142 -1.447016,-0.0545 -1.987791,0.96406 0.04693,1.26905 1.670985,6.81715 2.547628,8.25695 z"
           sodipodi:nodetypes="ccccc" />
        <path
           id="path18539"
           style="fill:#050505;stroke-width:0.107589;stroke-linejoin:bevel"
           d="m 87.035628,144.09077 c 0.102154,0.62736 -0.424793,0.85756 -1.465919,0.43114 -1.61058,-1.06032 -4.833622,-3.91527 -5.534282,-4.66102 0.04626,-0.56109 0.78579,-1.08146 1.904287,-1.0552 0.980671,0.5601 4.455074,4.04708 5.095914,5.28508 z"
           sodipodi:nodetypes="ccccc" />
      </g>
      <path
         id="path18543"
         style="fill:#050505;stroke-width:0.0435123;stroke-linejoin:bevel"
         d="m 84.765478,149.96654 c 0.132811,0.16366 0.415499,0.0759 0.727924,-0.28983 0.371454,-0.65319 0.910112,-2.12029 0.992277,-2.46653 -0.17584,-0.11032 -0.627619,-0.0302 -1.08385,0.26846 -0.250051,0.37906 -0.716417,2.04991 -0.636351,2.4879 z"
         sodipodi:nodetypes="ccccc"
         inkscape:transform-center-x="-1.9038462"
         inkscape:transform-center-y="-1.125" />
    </g>
    <g
       id="g18128"
       transform="matrix(0.50695883,-0.96364738,0.95107607,0.39248281,-88.512836,144.35297)">
      <path
         id="path18105"
         style="fill:#050505;stroke-width:0.0677414;stroke-linejoin:bevel"
         d="m 90.072785,143.47158 c -0.1172,0.4565 0.142525,0.64258 0.743364,0.36426 0.96932,-0.72424 2.98202,-2.71093 3.432004,-3.23452 0.03101,-0.41282 -0.31387,-0.81859 -0.916391,-0.83615 -0.581707,0.3783 -2.792103,2.82001 -3.258977,3.70641 z"
         sodipodi:nodetypes="ccccc" />
      <path
         id="path18000"
         style="fill:#050505;stroke-width:0.107589;stroke-linejoin:bevel"
         d="m 93.069103,140.07664 c 0.317408,-0.5507 0.871242,-0.39598 1.408429,0.59256 0.57775,1.83968 1.270522,6.08925 1.342046,7.11001 -0.390521,0.40553 -1.292501,0.34128 -2.142591,-0.38609 -0.405849,-1.0539 -0.893874,-5.95211 -0.607884,-7.31648 z"
         sodipodi:nodetypes="ccccc" />
      <path
         id="path18120"
         style="fill:#050505;stroke-width:0.0850969;stroke-linejoin:bevel"
         d="m 93.328073,153.7976 c -0.450687,0.46505 -0.848362,0.38387 -0.941918,-0.36581 0.169926,-1.42753 1.085755,-4.77445 1.383106,-5.58567 0.459721,-0.35453 1.17279,-0.37253 1.612492,0.14405 -0.0363,0.81204 -1.34508,4.6937 -2.053668,5.80739 z"
         sodipodi:nodetypes="ccccc" />
      <path
         id="path18122"
         style="fill:#050505;stroke-width:0.0364336;stroke-linejoin:bevel"
         d="m 94.025861,156.10509 c 0.190183,0.0194 0.281417,-0.18475 0.189069,-0.56177 -0.266784,-0.57121 -1.027428,-1.69233 -1.231484,-1.9323 -0.175323,0.0342 -0.364393,0.32662 -0.398775,0.7446 0.135986,0.35038 1.082585,1.54666 1.441186,1.74947 z"
         sodipodi:nodetypes="ccccc" />
    </g>
    <path
       id="ellipse4848"
       style="fill:#f0ff00;stroke:#000000;stroke-width:2.0442;stroke-linejoin:bevel;stroke-miterlimit:4;stroke-dasharray:none;stroke-opacity:1"
       d="m 94.30744,108.78712 c -0.11885,-4.16428 -6.311876,-15.264114 -13.221979,-16.603008 -5.591252,-1.083349 -18.019824,6.35702 -14.203846,10.908458 4.856571,5.55158 27.528836,13.09201 27.425825,5.69455 z"
       sodipodi:nodetypes="cscc" />
    <ellipse
       style="fill:#f68a8a;fill-opacity:1;stroke:#8b4e4e;stroke-width:1.50887;stroke-linejoin:bevel;stroke-miterlimit:4;stroke-dasharray:none;stroke-opacity:1"
       id="ellipse8628"
       cx="-6.796474"
       cy="126.50848"
       rx="5.3142762"
       ry="5.7148476"
       transform="matrix(-0.83131722,0.55579823,0.62921329,0.77723268,0,0)" />
    <ellipse
       style="fill:#f68a8a;fill-opacity:1;stroke:#8b4e4e;stroke-width:1.83217;stroke-linejoin:bevel;stroke-miterlimit:4;stroke-dasharray:none;stroke-opacity:1"
       id="ellipse18455"
       cx="-7.3195062"
       cy="135.64441"
       rx="6.3838887"
       ry="6.9096627"
       transform="matrix(-0.82562996,0.56421199,0.62087689,0.78390809,0,0)" />
    <ellipse
       style="fill:#8b4e4e;fill-opacity:1;stroke:none;stroke-width:3.03129;stroke-linecap:round;stroke-linejoin:round;stroke-opacity:1;paint-order:stroke fill markers"
       id="path66792"
       cx="87.191422"
       cy="100.11263"
       rx="1.6066357"
       ry="1.7055335" />
    <use
       x="0"
       y="0"
       xlink:href="#path66792"
       id="use66962"
       transform="matrix(0.87021104,0,0,0.78681823,7.225316,14.555079)"
       width="100%"
       height="100%" />
    <path
       id="path18130"
       style="fill:#050505;stroke-width:0.0672254;stroke-linejoin:bevel"
       d="m 74.377436,115.35661 c -0.07643,0.43118 -0.408913,0.49808 -0.881061,0.0478 -0.646381,-0.96136 -1.786204,-3.36974 -2.007753,-3.97598 0.142588,-0.36337 0.650568,-0.58769 1.248456,-0.38907 0.411509,0.52884 1.554393,3.3956 1.640475,4.31756 z"
       sodipodi:nodetypes="ccccc"
       inkscape:transform-center-x="0.77135839"
       inkscape:transform-center-y="-1.4943868" />
    <path
       id="path18132"
       style="fill:#050505;stroke-width:0.102461;stroke-linejoin:bevel"
       d="m 74.613796,111.74973 c 0.342414,-0.47052 -0.01531,-0.91684 -1.080209,-1.06814 -1.810162,0.0981 -5.730505,0.90209 -6.633593,1.18058 -0.18839,0.48755 0.233484,1.27749 1.202032,1.79801 1.067442,0.0111 5.459885,-1.19488 6.51177,-1.91045 z"
       sodipodi:nodetypes="ccccc"
       inkscape:transform-center-x="4.2622371"
       inkscape:transform-center-y="-2.6622943" />
    <path
       id="path18134"
       style="fill:#050505;stroke-width:0.0810413;stroke-linejoin:bevel"
       d="m 62.760281,116.12516 c -0.214882,0.56167 0.01637,0.89219 0.696322,0.72457 1.153169,-0.63233 3.646378,-2.58043 4.220023,-3.12042 0.116577,-0.53268 -0.15804,-1.18028 -0.779182,-1.40239 -0.680524,0.3054 -3.471768,2.78664 -4.137135,3.79821 z"
       sodipodi:nodetypes="ccccc"
       inkscape:transform-center-x="9.8671907"
       inkscape:transform-center-y="-0.22305809" />
    <path
       id="path18136"
       style="fill:#050505;stroke-width:0.0346972;stroke-linejoin:bevel"
       d="m 60.500748,116.27236 c -0.09398,-0.16455 0.04373,-0.31524 0.404103,-0.35879 0.597591,0.0481 1.866894,0.35598 2.155356,0.45898 0.04202,0.16923 -0.131451,0.43754 -0.475351,0.60886 -0.35531,-0.005 -1.7646,-0.45452 -2.084105,-0.70905 z"
       sodipodi:nodetypes="ccccc"
       inkscape:transform-center-x="13.290714"
       inkscape:transform-center-y="1.6142729" />
    <g
       id="g113312"
       transform="matrix(1.255507,-0.1117927,-0.09216704,1.272928,-1.1066211,-22.777508)"
       inkscape:transform-center-x="11.33433"
       inkscape:transform-center-y="1.9584945">
      <path
         id="path18002"
         style="fill:#050505;stroke-width:0.159287;stroke-linejoin:bevel"
         d="m 68.477456,139.71813 c 0.855151,0.55302 1.363597,-0.0258 1.117391,-1.74752 -0.949481,-2.92621 -3.890042,-9.26295 -4.706827,-10.72254 -0.812303,-0.30399 -1.805866,0.37892 -2.154294,1.94527 0.456756,1.72566 4.207669,8.82513 5.743766,10.52478 z"
         sodipodi:nodetypes="ccccc" />
      <g
         id="g887"
         transform="matrix(-0.21631179,-0.8921807,-0.79075325,0.19350898,181.42905,167.38203)">
        <path
           id="rect15412"
           style="fill:#050505;stroke-width:0.238437;stroke-linejoin:bevel"
           d="m 71.550795,127.11776 c 1.656744,-0.10914 2.609229,0.87783 2.07625,2.72011 -1.922366,2.80092 -7.778193,8.31638 -9.393998,9.50007 -1.565756,-0.15279 -3.443139,-1.56207 -4.053932,-3.59406 0.936165,-1.71592 8.370467,-7.61145 11.37168,-8.62612 z"
           sodipodi:nodetypes="ccccc" />
        <path
           id="path18114"
           style="fill:#050505;stroke-width:0.195403;stroke-linejoin:bevel"
           d="m 54.178057,145.93056 c -1.428091,0.075 -2.30686,-0.69679 -1.946849,-2.12372 1.509947,-2.16291 6.275401,-6.40982 7.608942,-7.31914 1.363753,0.12781 3.066348,1.23282 3.706838,2.81377 -0.715951,1.32647 -6.826861,5.85913 -9.368931,6.62909 z"
           sodipodi:nodetypes="ccccc" />
        <path
           id="path18116"
           style="fill:#050505;stroke-width:0.080127;stroke-linejoin:bevel"
           d="m 52.414138,151.25255 c -0.314363,0.40263 -0.636994,0.19107 -0.780115,-0.70114 0.0033,-1.59583 0.421094,-5.18386 0.582087,-6.03118 0.331707,-0.27248 0.895138,-0.0818 1.29113,0.64438 0.04596,0.92567 -0.634042,5.0138 -1.093104,6.08794 z"
           sodipodi:nodetypes="ccccc" />
      </g>
    </g>
    <g
       id="g113404"
       transform="matrix(-1.7304747,0.16666099,0.02921932,1.4704432,209.48456,-65.947912)">
      <path
         id="path113394"
         style="fill:#050505;stroke-width:0.159287;stroke-linejoin:bevel"
         d="m 68.722224,139.35098 c 0.855151,0.55302 1.363597,-0.0258 1.117391,-1.74752 -0.949481,-2.92621 -3.890042,-9.26295 -4.706827,-10.72254 -0.812303,-0.30399 -1.805866,0.37892 -2.154294,1.94527 0.456756,1.72566 4.207669,8.82513 5.743766,10.52478 z"
         sodipodi:nodetypes="ccccc" />
      <g
         id="g113402"
         transform="matrix(-0.10153156,-0.71272585,-0.49475807,0.1845528,135.65717,155.42495)">
        <path
           id="path113396"
           style="fill:#050505;stroke-width:0.238437;stroke-linejoin:bevel"
           d="m 71.550795,127.11776 c 1.656744,-0.10914 2.609229,0.87783 2.07625,2.72011 -1.922366,2.80092 -7.778193,8.31638 -9.393998,9.50007 -1.565756,-0.15279 -3.443139,-1.56207 -4.053932,-3.59406 0.936165,-1.71592 8.370467,-7.61145 11.37168,-8.62612 z"
           sodipodi:nodetypes="ccccc" />
        <path
           id="path113398"
           style="fill:#050505;stroke-width:0.195403;stroke-linejoin:bevel"
           d="m 54.178057,145.93056 c -1.428091,0.075 -2.30686,-0.69679 -1.946849,-2.12372 1.509947,-2.16291 6.275401,-6.40982 7.608942,-7.31914 1.363753,0.12781 3.066348,1.23282 3.706838,2.81377 -0.715951,1.32647 -6.826861,5.85913 -9.368931,6.62909 z"
           sodipodi:nodetypes="ccccc" />
        <path
           id="path113400"
           style="fill:#050505;stroke-width:0.080127;stroke-linejoin:bevel"
           d="m 51.945343,150.40743 c -0.332099,0.38409 -0.644835,0.15437 -0.747665,-0.74478 0.07506,-1.59342 0.653721,-5.15254 0.85263,-5.98948 0.34357,-0.25312 0.897759,-0.0305 1.260629,0.71732 0.0043,0.92701 -0.85877,4.97055 -1.365596,6.01694 z"
           sodipodi:nodetypes="ccccc" />
      </g>
    </g>
  </g>
</svg>
