<svg id="e3RVByhodjz1" xmlns="http://www.w3.org/2000/svg" xmlns:xlink="http://www.w3.org/1999/xlink" viewBox="0 0 640 480" shape-rendering="geometricPrecision" text-rendering="geometricPrecision"><path id="e3RVByhodjz2" d="M5522.536363,5698.694587Q5522.536363,5698.694587,5511.593552,5660.824129Q5500.650741,5622.953671,5472.558749,5644.930310Q5444.466757,5666.906949,5474.518656,5642.575670Q5504.570554,5618.244391,5513.880110,5658.077049Q5523.189665,5697.909707,5522.536363,5651.601790Q5521.883061,5605.293872,5522.536363,5620.206591Q5523.189665,5635.119310,5522.536363,5588.811393Q5521.883061,5542.503476,5511.103576,5567.227194Q5500.324090,5591.950913,5472.068773,5551.333375Q5443.813455,5510.715837,5433.033970,5535.439556Q5422.254485,5560.163275,5393.999167,5519.545737Q5365.743849,5478.928199,5354.964364,5503.651918Q5344.184879,5528.375636,5356.924271,5501.297278Q5369.663662,5474.218919,5396.285725,5516.798657Q5422.907787,5559.378395,5435.647178,5532.300036Q5448.386570,5505.221678,5475.008632,5547.801415Q5501.630695,5590.381153,5514.370086,5563.302794Q5527.109478,5536.224436,5524.822921,5557.416195Q5522.536363,5578.607954,5525.149572,5526.020997Q5527.762780,5473.434040,5525.476223,5494.625798Q5523.189665,5515.817557,5525.802874,5463.230600Q5528.416082,5410.643643,5510.940250,5441.842621Q5493.464418,5473.041600,5471.905447,5425.948802Q5450.346477,5378.856005,5432.870644,5410.054983Q5415.394812,5441.253961,5393.835841,5394.161164Q5372.276871,5347.068367,5354.801039,5378.267345Q5337.325206,5409.466323,5315.766236,5362.373526Q5294.207265,5315.280728,5317.726142,5360.018886Q5341.245019,5404.757043,5357.087596,5375.520265Q5372.930173,5346.283487,5396.449050,5391.021644Q5419.967927,5435.759802,5435.810504,5406.523023Q5451.653081,5377.286245,5475.171958,5422.024402Q5498.690835,5466.762560,5514.533412,5437.525782Q5530.375989,5408.289003,5530.049338,5431.835402Q5529.722687,5455.381801,5530.375989,5400.440204Q5531.029291,5345.498607,5534.295802,5400.440204Q5537.562312,5455.381801,5534.622453,5431.835402Q5531.682593,5408.289003,5550.138378,5437.525782Q5568.594164,5466.762560,5589.499832,5422.024402Q5610.405501,5377.286245,5628.861286,5406.523023Q5647.317072,5435.759802,5668.222740,5391.021644Q5689.128409,5346.283487,5707.584194,5375.520265Q5726.039980,5404.757043,5746.945648,5360.018886Q5767.851317,5315.280728,5748.905555,5362.373526Q5729.959792,5409.466323,5709.870752,5378.267345Q5689.781711,5347.068367,5670.835949,5394.161164Q5651.890187,5441.253961,5631.801146,5410.054983Q5611.712105,5378.856005,5592.766343,5425.948802Q5573.820581,5473.041600,5553.731540,5441.842621Q5533.642499,5410.643643,5538.868917,5463.230600Q5544.095334,5515.817557,5539.195568,5494.625798Q5534.295802,5473.434040,5539.522219,5526.020997Q5544.748636,5578.607954,5539.848870,5557.416195Q5534.949104,5536.224436,5550.138378,5563.106574Q5565.327653,5589.988713,5589.499832,5547.605195Q5613.672012,5505.221678,5628.861286,5532.103816Q5644.050561,5558.985955,5668.222740,5516.602437Q5692.394919,5474.218919,5707.584194,5501.101058Q5722.773469,5527.983196,5746.945648,5485.599679Q5771.117827,5443.216161,5748.905555,5487.954319Q5726.693282,5532.692476,5709.870752,5503.848138Q5693.048222,5475.003799,5670.835949,5519.741957Q5648.623676,5564.480114,5631.801146,5535.635776Q5614.978616,5506.791438,5592.766343,5551.529595Q5570.554070,5596.267753,5553.731540,5567.423414Q5536.909010,5538.579076,5542.135427,5588.811393Q5547.361844,5639.043710,5542.135427,5620.206591Q5536.909010,5601.369472,5542.135427,5651.601790Q5547.361844,5701.834107,5550.791681,5658.077049Q5554.221517,5614.319992,5590.153135,5642.575670Q5626.084752,5670.831348,5592.113041,5644.930310Q5558.141330,5619.029271,5553.078238,5660.824129Q5548.015147,5702.618987,5542.135427,5698.694587" transform="matrix(1.00618379940593 0 0 0.97145399578304 -5030.71681906999675 -5179.22432616999231)" fill="rgb(50,101,34)" stroke="rgb(35,120,35)" stroke-width="0.500000" stroke-miterlimit="1"/><path id="e3RVByhodjz3" d="M5545.211837,5989.659762Q5545.211837,5989.659762,5533.124500,5921.209005Q5521.037164,5852.758249,5490.006988,5892.480968Q5458.976812,5932.203686,5492.171884,5888.224962Q5525.366956,5844.246238,5535.650212,5916.243665Q5545.933469,5988.241093,5545.211837,5904.539650Q5544.490205,5820.838207,5545.211837,5847.792909Q5545.933469,5874.747611,5545.211837,5791.046168Q5544.490205,5707.344725,5532.583276,5752.032783Q5520.676348,5796.720842,5489.465764,5723.304745Q5458.255180,5649.888649,5446.348251,5694.576708Q5434.441323,5739.264766,5403.230739,5665.848670Q5372.020155,5592.432574,5360.113226,5637.120632Q5348.206298,5681.808691,5362.278122,5632.864627Q5376.349947,5583.920562,5405.756451,5660.883330Q5435.162955,5737.846098,5449.234779,5688.902034Q5463.306604,5639.957969,5492.713108,5716.920737Q5522.119612,5793.883505,5536.191436,5744.939441Q5550.263261,5695.995376,5547.737549,5734.299427Q5545.211837,5772.603477,5548.098365,5677.552685Q5550.984893,5582.501894,5548.459181,5620.805944Q5545.933469,5659.109995,5548.819997,5564.059203Q5551.706525,5469.008412,5532.402868,5525.400486Q5513.099212,5581.792560,5489.285356,5496.672448Q5465.471500,5411.552336,5446.167843,5467.944410Q5426.864187,5524.336484,5403.050331,5439.216372Q5379.236475,5354.096261,5359.932818,5410.488335Q5340.629162,5466.880409,5316.815306,5381.760297Q5293.001450,5296.640185,5318.980202,5377.504291Q5344.958954,5458.368398,5362.458530,5405.522995Q5379.958107,5352.677592,5405.936859,5433.541698Q5431.915611,5514.405804,5449.415187,5461.560402Q5466.914764,5408.714999,5492.893516,5489.579105Q5518.872268,5570.443211,5536.371844,5517.597809Q5553.871421,5464.752406,5553.510605,5507.312462Q5553.149789,5549.872518,5553.871421,5450.565721Q5554.593053,5351.258924,5558.201213,5450.565721Q5561.809373,5549.872518,5558.562029,5507.312462Q5555.314685,5464.752406,5575.700789,5517.597809Q5596.086893,5570.443211,5619.179117,5489.579105Q5642.271342,5408.714999,5662.657446,5461.560402Q5683.043550,5514.405804,5706.135774,5433.541698Q5729.227999,5352.677592,5749.614103,5405.522995Q5770.000207,5458.368398,5793.092431,5377.504291Q5816.184656,5296.640185,5795.257327,5381.760297Q5774.329999,5466.880409,5752.139815,5410.488335Q5729.949631,5354.096261,5709.022302,5439.216372Q5688.094974,5524.336484,5665.904790,5467.944410Q5643.714606,5411.552336,5622.787277,5496.672448Q5601.859949,5581.792560,5579.669765,5525.400486Q5557.479581,5469.008412,5563.252637,5564.059203Q5569.025693,5659.109995,5563.613453,5620.805944Q5558.201213,5582.501894,5563.974269,5677.552685Q5569.747325,5772.603477,5564.335085,5734.299427Q5558.922845,5695.995376,5575.700789,5744.584773Q5592.478733,5793.174171,5619.179117,5716.566070Q5645.879502,5639.957969,5662.657446,5688.547366Q5679.435390,5737.136764,5706.135774,5660.528663Q5732.836159,5583.920562,5749.614103,5632.509960Q5766.392047,5681.099357,5793.092431,5604.491256Q5819.792816,5527.883156,5795.257327,5608.747262Q5770.721839,5689.611368,5752.139815,5637.475299Q5733.557791,5585.339231,5709.022302,5666.203337Q5684.486814,5747.067443,5665.904790,5694.931375Q5647.322766,5642.795306,5622.787277,5723.659413Q5598.251789,5804.523519,5579.669765,5752.387450Q5561.087741,5700.251382,5566.860797,5791.046168Q5572.633853,5881.840954,5566.860797,5847.792909Q5561.087741,5813.744864,5566.860797,5904.539650Q5572.633853,5995.334436,5576.422421,5916.243665Q5580.210989,5837.152895,5619.900749,5888.224962Q5659.590510,5939.297029,5622.065645,5892.480968Q5584.540781,5845.664906,5578.948133,5921.209005Q5573.355485,5996.753105,5566.860797,5989.659762" transform="matrix(0.99912658574352 0 0 0.99788913432616 -5014.04988589999175 -5184.17202271501628)" fill="rgb(50,101,34)" stroke="rgb(35,120,35)" stroke-width="0.500000" stroke-miterlimit="1"/></svg>