<?xml version="1.0" encoding="UTF-8" standalone="no"?>
<svg
   id="ekRaC8T0tym1"
   viewBox="0 0 640 480"
   shape-rendering="geometricPrecision"
   text-rendering="geometricPrecision"
   version="1.1"
   xmlns="http://www.w3.org/2000/svg"
   xmlns:svg="http://www.w3.org/2000/svg">
  <defs
     id="defs7" />
  <path
     id="ekRaC8T0tym2"
     d="m 303.13055,480.03004 -13.16827,-49.02712 c -8.73476,-32.52061 -24.09188,-39.37182 -46.31336,-20.48893 -22.22148,18.88289 -21.4463,17.87128 2.32555,-3.03483 23.77186,-20.90611 39.33885,-14.24507 46.70096,19.98312 7.36211,34.22819 8.37502,-4.36238 10.27095,-8.34553 5.79725,-12.17943 0.001,-26.97752 0.002,-40.46628 6.7e-4,-13.48876 3.03486,-27.32291 0.002,-40.46629 -2.31975,-10.05302 -5.03598,-49.06568 -13.56351,-27.82141 -8.52754,21.24427 -23.96533,14.41463 -46.31336,-20.48892 -22.34804,-34.90355 -37.78582,-41.7332 -46.31335,-20.48893 -8.52754,21.24427 -23.96533,14.41463 -46.31337,-20.48892 -22.34803,-34.90355 -37.78582,-41.7332 -46.31336,-20.48893 -8.527523,21.24427 -7.752333,20.23267 2.32557,-3.03482 10.0779,-23.26749 25.64488,-16.60645 46.70095,19.98312 21.05605,36.58957 36.62303,43.25061 46.70094,19.98312 10.07791,-23.26749 25.64489,-16.60645 46.70095,19.98312 21.05607,36.58957 27.85178,43.55306 37.92968,20.28558 10.07791,-23.26749 19.99234,-27.84333 19.35908,-9.09895 -0.61787,18.28897 1.77371,-26.15742 2.20429,-39.25643 0.44317,-13.4821 0.2597,-26.97751 0.38955,-40.46626 0.12985,-13.48875 4.11354,-27.5011 0.38954,-40.46625 -3.0115,-10.48457 -3.80842,-54.3768 -17.63299,-27.56875 -13.82507,26.80805 -29.2631,19.97841 -46.3141,-20.48893 C 225.83636,87.794283 210.39882,80.964643 196.57425,107.7727 182.74968,134.58075 167.31189,127.75111 150.26088,87.283771 133.20988,46.816432 117.7721,39.98679 103.94753,66.794845 90.122967,93.602902 74.685182,86.77326 57.634175,46.305919 40.583173,5.8385797 41.358356,4.8269707 59.959725,43.271092 c 18.60138,38.444119 28.607752,42.538722 41.140345,17.416684 12.53259,-25.12204 33.66018,-15.894563 52.26156,22.549558 18.60137,38.444126 29.03549,42.538726 41.56808,17.416686 12.53259,-25.12204 33.23245,-15.894563 51.83382,22.54956 18.60138,38.44412 30.27422,44.36792 42.8068,19.24588 12.53259,-25.12204 22.56335,-26.82926 22.30398,-6.59613 -0.25937,20.23312 -0.12952,6.74437 0.38955,-40.466262 0.51907,-47.210631 2.06934,-47.210535 4.65081,2.88e-4 2.58147,47.210824 1.84843,60.725244 1.98962,40.359374 0.13508,-19.48475 2.20793,-17.68114 16.80508,7.44259 14.59716,25.12372 30.1648,18.46461 46.70291,-19.97734 16.53811,-38.441941 37.88023,-45.52879 52.47739,-20.40507 14.59716,25.12372 30.16479,18.46461 46.7029,-19.97733 16.53811,-38.441943 28.68383,-45.956533 43.281,-20.832811 14.59716,25.123722 30.1648,18.464611 46.70291,-19.977333 16.53811,-38.4419437 16.67158,-36.14702 1.68365,4.318334 -14.98794,40.465353 -32.13736,47.293082 -48.02633,20.483185 -15.88897,-26.809897 -26.83617,-16.132513 -41.82411,24.33284 -14.98793,40.465355 -34.91764,43.443425 -50.80661,16.633525 -15.88897,-26.809893 -31.32743,-19.982163 -46.31537,20.48319 -14.98794,40.46535 -35.3454,49.64565 -51.23437,22.83575 -15.88896,-26.80989 -10.58173,16.0462 -12.71668,25.214 -3.05947,13.13785 0.25706,26.97753 0.38559,40.4663 0.12853,13.48877 0.25705,26.97754 0.38558,40.46631 0.12853,13.48877 0.52061,59.08357 0.38559,40.46631 -0.13207,-18.21007 6.24371,-16.67235 18.25718,6.4279 12.01347,23.10025 21.53196,17.3485 40.65376,-19.06997 19.12179,-36.41847 34.68943,-43.07758 46.70291,-19.97733 12.01347,23.10025 27.5811,16.44114 46.70289,-19.97733 19.12181,-36.41847 35.97266,-44.78854 47.98613,-21.68829 12.01348,23.10025 27.58112,16.44113 46.70291,-19.97734 19.1218,-36.41847 18.61367,-33.6958 1.04204,4.74608 -17.57162,38.44188 -33.01008,45.26961 -46.31537,20.48318 -13.30528,-24.78642 -28.74373,-17.95869 -46.31535,20.48319 -17.57163,38.44188 -33.01009,45.26961 -46.31537,20.48318 -13.30529,-24.78642 -28.74374,-17.95869 -46.31536,20.48319 -17.57163,38.44188 -33.01008,45.26961 -46.31537,20.48318 -13.30528,-24.78642 -11.40357,17.57074 -13.76,27.56681 -3.09495,13.1289 -0.001,26.97752 -0.002,40.46628 -6.7e-4,13.48876 -5.79796,28.28623 -0.002,40.46628 1.89553,3.98341 7.55533,45.94656 10.27015,8.34681 2.71481,-37.59975 18.28244,-44.25886 46.70289,-19.97733 28.42046,24.28153 29.19555,25.29323 2.32526,3.03511 -26.87028,-22.25812 -42.30873,-15.43039 -46.31535,20.48319 -4.00663,35.91357 -10.1799,46.27597 -12.66512,48.97204"
     fill="#326522"
     stroke="#237823"
     stroke-width="0.542954"
     stroke-miterlimit="1"
     style="fill:#324522;fill-opacity:1;stroke:none" />
</svg>
