<svg id="e6Vf9KswXcD1" xmlns="http://www.w3.org/2000/svg" xmlns:xlink="http://www.w3.org/1999/xlink" viewBox="0 0 640 480" shape-rendering="geometricPrecision" text-rendering="geometricPrecision"><path id="e6Vf9KswXcD2" d="M5475.018071,5619.761359Q5475.018071,5619.761359,5466.471318,5590.183512Q5457.924565,5560.605666,5435.983646,5577.770012Q5414.042728,5594.934358,5437.514408,5575.930975Q5460.986088,5556.927592,5468.257207,5588.037969Q5475.528325,5619.148346,5475.018071,5582.980617Q5474.507817,5546.812888,5475.018071,5558.460123Q5475.528325,5570.107358,5475.018071,5533.939628Q5474.507817,5497.771899,5466.088628,5517.081788Q5457.669438,5536.391678,5435.600956,5504.668288Q5413.532474,5472.944899,5405.113284,5492.254788Q5396.694095,5511.564677,5374.625613,5479.841288Q5352.557131,5448.117898,5344.137941,5467.427787Q5335.718751,5486.737677,5345.668703,5465.588750Q5355.618654,5444.439824,5376.411501,5477.695744Q5397.204348,5510.951665,5407.154300,5489.802738Q5417.104251,5468.653812,5437.897099,5501.909733Q5458.689946,5535.165653,5468.639897,5514.016727Q5478.589849,5492.867800,5476.803960,5509.419134Q5475.018071,5525.970468,5477.059087,5484.898640Q5479.100102,5443.826812,5477.314214,5460.378145Q5475.528325,5476.929479,5477.569341,5435.857651Q5479.610356,5394.785823,5465.961064,5419.153064Q5452.311772,5443.520305,5435.473392,5406.739564Q5418.635013,5369.958822,5404.985721,5394.326064Q5391.336428,5418.693305,5374.498049,5381.912563Q5357.659670,5345.131822,5344.010377,5369.499063Q5330.361085,5393.866304,5313.522706,5357.085563Q5296.684326,5320.304821,5315.053467,5355.246526Q5333.422609,5390.188230,5345.796266,5367.353520Q5358.169924,5344.518809,5376.539065,5379.460514Q5394.908206,5414.402218,5407.281863,5391.567508Q5419.655521,5368.732798,5438.024662,5403.674502Q5456.393803,5438.616206,5468.767461,5415.781496Q5481.141118,5392.946786,5480.885991,5411.337156Q5480.630864,5429.727527,5481.141118,5386.816662Q5481.651372,5343.905797,5484.202642,5386.816662Q5486.753911,5429.727527,5484.457769,5411.337156Q5482.161626,5392.946786,5496.576299,5415.781496Q5510.990972,5438.616206,5527.319098,5403.674502Q5543.647223,5368.732798,5558.061897,5391.567508Q5572.476570,5414.402218,5588.804695,5379.460514Q5605.132821,5344.518809,5619.547494,5367.353520Q5633.962167,5390.188230,5650.290292,5355.246526Q5666.618418,5320.304821,5651.821054,5357.085563Q5637.023691,5393.866304,5621.333383,5369.499063Q5605.643074,5345.131822,5590.845711,5381.912563Q5576.048347,5418.693305,5560.358039,5394.326064Q5544.667731,5369.958822,5529.870367,5406.739564Q5515.073004,5443.520305,5499.382696,5419.153064Q5483.692388,5394.785823,5487.774419,5435.857651Q5491.856450,5476.929479,5488.029546,5460.378145Q5484.202642,5443.826812,5488.284673,5484.898640Q5492.366704,5525.970468,5488.539800,5509.419134Q5484.712896,5492.867800,5496.576299,5513.863474Q5508.439703,5534.859147,5527.319098,5501.756479Q5546.198493,5468.653812,5558.061897,5489.649485Q5569.925300,5510.645159,5588.804695,5477.542491Q5607.684090,5444.439824,5619.547494,5465.435497Q5631.410897,5486.431170,5650.290292,5453.328503Q5669.169687,5420.225836,5651.821054,5455.167540Q5634.472421,5490.109245,5621.333383,5467.581040Q5608.194344,5445.052836,5590.845711,5479.994541Q5573.497078,5514.936245,5560.358039,5492.408041Q5547.219001,5469.879837,5529.870367,5504.821541Q5512.521734,5539.763246,5499.382696,5517.235042Q5486.243657,5494.706837,5490.325689,5533.939628Q5494.407720,5573.172419,5490.325689,5558.460123Q5486.243657,5543.747826,5490.325689,5582.980617Q5494.407720,5622.213408,5497.086553,5588.037969Q5499.765386,5553.862530,5527.829352,5575.930975Q5555.893317,5597.999420,5529.360114,5577.770012Q5502.826910,5557.540604,5498.872442,5590.183512Q5494.917974,5622.826420,5490.325689,5619.761359" transform="matrix(1.00618379940593 0 0 0.97145399578304 -4989.74892007002200 -5009.51350716999150)" fill="rgb(50,101,34)" stroke="rgb(35,120,35)" stroke-width="0.500000" stroke-miterlimit="1"/><path id="e6Vf9KswXcD3" d="M5475.018071,5619.761359Q5475.018071,5619.761359,5466.471318,5590.183512Q5457.924565,5560.605666,5435.983646,5577.770012Q5414.042728,5594.934358,5437.514408,5575.930975Q5460.986088,5556.927592,5468.257207,5588.037969Q5475.528325,5619.148346,5475.018071,5582.980617Q5474.507817,5546.812888,5475.018071,5558.460123Q5475.528325,5570.107358,5475.018071,5533.939628Q5474.507817,5497.771899,5466.088628,5517.081788Q5457.669438,5536.391678,5435.600956,5504.668288Q5413.532474,5472.944899,5405.113284,5492.254788Q5396.694095,5511.564677,5374.625613,5479.841288Q5352.557131,5448.117898,5344.137941,5467.427787Q5335.718751,5486.737677,5345.668703,5465.588750Q5355.618654,5444.439824,5376.411501,5477.695744Q5397.204348,5510.951665,5407.154300,5489.802738Q5417.104251,5468.653812,5437.897099,5501.909733Q5458.689946,5535.165653,5468.639897,5514.016727Q5478.589849,5492.867800,5476.803960,5509.419134Q5475.018071,5525.970468,5477.059087,5484.898640Q5479.100102,5443.826812,5477.314214,5460.378145Q5475.528325,5476.929479,5477.569341,5435.857651Q5479.610356,5394.785823,5465.961064,5419.153064Q5452.311772,5443.520305,5435.473392,5406.739564Q5418.635013,5369.958822,5404.985721,5394.326064Q5391.336428,5418.693305,5374.498049,5381.912563Q5357.659670,5345.131822,5344.010377,5369.499063Q5330.361085,5393.866304,5313.522706,5357.085563Q5296.684326,5320.304821,5315.053467,5355.246526Q5333.422609,5390.188230,5345.796266,5367.353520Q5358.169924,5344.518809,5376.539065,5379.460514Q5394.908206,5414.402218,5407.281863,5391.567508Q5419.655521,5368.732798,5438.024662,5403.674502Q5456.393803,5438.616206,5468.767461,5415.781496Q5481.141118,5392.946786,5480.885991,5411.337156Q5480.630864,5429.727527,5481.141118,5386.816662Q5481.651372,5343.905797,5484.202642,5386.816662Q5486.753911,5429.727527,5484.457769,5411.337156Q5482.161626,5392.946786,5496.576299,5415.781496Q5510.990972,5438.616206,5527.319098,5403.674502Q5543.647223,5368.732798,5558.061897,5391.567508Q5572.476570,5414.402218,5588.804695,5379.460514Q5605.132821,5344.518809,5619.547494,5367.353520Q5633.962167,5390.188230,5650.290292,5355.246526Q5666.618418,5320.304821,5651.821054,5357.085563Q5637.023691,5393.866304,5621.333383,5369.499063Q5605.643074,5345.131822,5590.845711,5381.912563Q5576.048347,5418.693305,5560.358039,5394.326064Q5544.667731,5369.958822,5529.870367,5406.739564Q5515.073004,5443.520305,5499.382696,5419.153064Q5483.692388,5394.785823,5487.774419,5435.857651Q5491.856450,5476.929479,5488.029546,5460.378145Q5484.202642,5443.826812,5488.284673,5484.898640Q5492.366704,5525.970468,5488.539800,5509.419134Q5484.712896,5492.867800,5496.576299,5513.863474Q5508.439703,5534.859147,5527.319098,5501.756479Q5546.198493,5468.653812,5558.061897,5489.649485Q5569.925300,5510.645159,5588.804695,5477.542491Q5607.684090,5444.439824,5619.547494,5465.435497Q5631.410897,5486.431170,5650.290292,5453.328503Q5669.169687,5420.225836,5651.821054,5455.167540Q5634.472421,5490.109245,5621.333383,5467.581040Q5608.194344,5445.052836,5590.845711,5479.994541Q5573.497078,5514.936245,5560.358039,5492.408041Q5547.219001,5469.879837,5529.870367,5504.821541Q5512.521734,5539.763246,5499.382696,5517.235042Q5486.243657,5494.706837,5490.325689,5533.939628Q5494.407720,5573.172419,5490.325689,5558.460123Q5486.243657,5543.747826,5490.325689,5582.980617Q5494.407720,5622.213408,5497.086553,5588.037969Q5499.765386,5553.862530,5527.829352,5575.930975Q5555.893317,5597.999420,5529.360114,5577.770012Q5502.826910,5557.540604,5498.872442,5590.183512Q5494.917974,5622.826420,5490.325689,5619.761359" transform="matrix(1.00618379940593 0 0 0.97145399578304 -5434.35353807002684 -5089.02309317000163)" fill="rgb(50,101,34)" stroke="rgb(35,120,35)" stroke-width="0.500000" stroke-miterlimit="1"/><path id="e6Vf9KswXcD4" d="M5496.887116,5843.603707Q5496.887116,5843.603707,5487.236045,5790.511440Q5477.584974,5737.419174,5452.809092,5768.229194Q5428.033209,5799.039213,5454.537642,5764.928120Q5481.042074,5730.817026,5489.252687,5786.660188Q5497.463299,5842.503349,5496.887116,5777.582235Q5496.310932,5712.661122,5496.887116,5733.567921Q5497.463299,5754.474720,5496.887116,5689.553607Q5496.310932,5624.632493,5486.803908,5659.293766Q5477.296883,5693.955038,5452.376954,5637.011519Q5427.457026,5580.068000,5417.950001,5614.729273Q5408.442977,5649.390545,5383.523048,5592.447026Q5358.603120,5535.503507,5349.096095,5570.164779Q5339.589070,5604.826052,5350.824645,5566.863706Q5362.060220,5528.901360,5385.539690,5588.595774Q5409.019160,5648.290187,5420.254735,5610.327841Q5431.490309,5572.365495,5454.969779,5632.059909Q5478.449249,5691.754323,5489.684824,5653.791976Q5500.920399,5615.829630,5498.903757,5645.539293Q5496.887116,5675.248955,5499.191849,5601.524978Q5501.496582,5527.801002,5499.479940,5557.510664Q5497.463299,5587.220326,5499.768032,5513.496350Q5502.072765,5439.772374,5486.659862,5483.511598Q5471.246958,5527.250823,5452.232909,5461.229352Q5433.218859,5395.207880,5417.805955,5438.947105Q5402.393052,5482.686330,5383.379002,5416.664859Q5364.364953,5350.643387,5348.952049,5394.382612Q5333.539146,5438.121837,5314.525096,5372.100365Q5295.511047,5306.078894,5316.253646,5368.799292Q5336.996245,5431.519690,5350.968691,5390.531359Q5364.941136,5349.543029,5385.683736,5412.263427Q5406.426335,5474.983825,5420.398780,5433.995495Q5434.371226,5393.007165,5455.113825,5455.727562Q5475.856425,5518.447960,5489.828870,5477.459630Q5503.801315,5436.471300,5503.513224,5469.482036Q5503.225132,5502.492771,5503.801315,5425.467721Q5504.377499,5348.442671,5507.258415,5425.467721Q5510.139332,5502.492771,5507.546507,5469.482036Q5504.953682,5436.471300,5521.230861,5477.459630Q5537.508039,5518.447960,5555.945905,5455.727562Q5574.383772,5393.007165,5590.660950,5433.995495Q5606.938129,5474.983825,5625.375995,5412.263427Q5643.813861,5349.543029,5660.091040,5390.531359Q5676.368218,5431.519690,5694.806085,5368.799292Q5713.243951,5306.078894,5696.534634,5372.100365Q5679.825318,5438.121837,5662.107681,5394.382612Q5644.390044,5350.643387,5627.680728,5416.664859Q5610.971412,5482.686330,5593.253775,5438.947105Q5575.536138,5395.207880,5558.826822,5461.229352Q5542.117506,5527.250823,5524.399869,5483.511598Q5506.682232,5439.772374,5511.291698,5513.496350Q5515.901165,5587.220326,5511.579790,5557.510664Q5507.258415,5527.801002,5511.867882,5601.524978Q5516.477348,5675.248955,5512.155973,5645.539293Q5507.834599,5615.829630,5521.230861,5653.516887Q5534.627123,5691.204144,5555.945905,5631.784819Q5577.264688,5572.365495,5590.660950,5610.052752Q5604.057212,5647.740008,5625.375995,5588.320684Q5646.694778,5528.901360,5660.091040,5566.588616Q5673.487302,5604.275873,5694.806085,5544.856549Q5716.124867,5485.437225,5696.534634,5548.157622Q5676.944402,5610.878020,5662.107681,5570.439869Q5647.270961,5530.001718,5627.680728,5592.722115Q5608.090495,5655.442513,5593.253775,5615.004362Q5578.417055,5574.566211,5558.826822,5637.286609Q5539.236589,5700.007006,5524.399869,5659.568855Q5509.563149,5619.130704,5514.172615,5689.553607Q5518.782082,5759.976510,5514.172615,5733.567921Q5509.563149,5707.159332,5514.172615,5777.582235Q5518.782082,5848.005138,5521.807044,5786.660188Q5524.832006,5725.315237,5556.522089,5764.928120Q5588.212171,5804.541003,5558.250639,5768.229194Q5528.289106,5731.917384,5523.823686,5790.511440Q5519.358265,5849.105496,5514.172615,5843.603707" transform="matrix(0.99912658574352 0 0 0.99788913432616 -4973.11316890001763 -5311.18312871504349)" fill="rgb(50,101,34)" stroke="rgb(35,120,35)" stroke-width="0.500000" stroke-miterlimit="1"/><path id="e6Vf9KswXcD5" d="M5496.887116,5843.603707Q5496.887116,5843.603707,5487.236045,5790.511440Q5477.584974,5737.419174,5452.809092,5768.229194Q5428.033209,5799.039213,5454.537642,5764.928120Q5481.042074,5730.817026,5489.252687,5786.660188Q5497.463299,5842.503349,5496.887116,5777.582235Q5496.310932,5712.661122,5496.887116,5733.567921Q5497.463299,5754.474720,5496.887116,5689.553607Q5496.310932,5624.632493,5486.803908,5659.293766Q5477.296883,5693.955038,5452.376954,5637.011519Q5427.457026,5580.068000,5417.950001,5614.729273Q5408.442977,5649.390545,5383.523048,5592.447026Q5358.603120,5535.503507,5349.096095,5570.164779Q5339.589070,5604.826052,5350.824645,5566.863706Q5362.060220,5528.901360,5385.539690,5588.595774Q5409.019160,5648.290187,5420.254735,5610.327841Q5431.490309,5572.365495,5454.969779,5632.059909Q5478.449249,5691.754323,5489.684824,5653.791976Q5500.920399,5615.829630,5498.903757,5645.539293Q5496.887116,5675.248955,5499.191849,5601.524978Q5501.496582,5527.801002,5499.479940,5557.510664Q5497.463299,5587.220326,5499.768032,5513.496350Q5502.072765,5439.772374,5486.659862,5483.511598Q5471.246958,5527.250823,5452.232909,5461.229352Q5433.218859,5395.207880,5417.805955,5438.947105Q5402.393052,5482.686330,5383.379002,5416.664859Q5364.364953,5350.643387,5348.952049,5394.382612Q5333.539146,5438.121837,5314.525096,5372.100365Q5295.511047,5306.078894,5316.253646,5368.799292Q5336.996245,5431.519690,5350.968691,5390.531359Q5364.941136,5349.543029,5385.683736,5412.263427Q5406.426335,5474.983825,5420.398780,5433.995495Q5434.371226,5393.007165,5455.113825,5455.727562Q5475.856425,5518.447960,5489.828870,5477.459630Q5503.801315,5436.471300,5503.513224,5469.482036Q5503.225132,5502.492771,5503.801315,5425.467721Q5504.377499,5348.442671,5507.258415,5425.467721Q5510.139332,5502.492771,5507.546507,5469.482036Q5504.953682,5436.471300,5521.230861,5477.459630Q5537.508039,5518.447960,5555.945905,5455.727562Q5574.383772,5393.007165,5590.660950,5433.995495Q5606.938129,5474.983825,5625.375995,5412.263427Q5643.813861,5349.543029,5660.091040,5390.531359Q5676.368218,5431.519690,5694.806085,5368.799292Q5713.243951,5306.078894,5696.534634,5372.100365Q5679.825318,5438.121837,5662.107681,5394.382612Q5644.390044,5350.643387,5627.680728,5416.664859Q5610.971412,5482.686330,5593.253775,5438.947105Q5575.536138,5395.207880,5558.826822,5461.229352Q5542.117506,5527.250823,5524.399869,5483.511598Q5506.682232,5439.772374,5511.291698,5513.496350Q5515.901165,5587.220326,5511.579790,5557.510664Q5507.258415,5527.801002,5511.867882,5601.524978Q5516.477348,5675.248955,5512.155973,5645.539293Q5507.834599,5615.829630,5521.230861,5653.516887Q5534.627123,5691.204144,5555.945905,5631.784819Q5577.264688,5572.365495,5590.660950,5610.052752Q5604.057212,5647.740008,5625.375995,5588.320684Q5646.694778,5528.901360,5660.091040,5566.588616Q5673.487302,5604.275873,5694.806085,5544.856549Q5716.124867,5485.437225,5696.534634,5548.157622Q5676.944402,5610.878020,5662.107681,5570.439869Q5647.270961,5530.001718,5627.680728,5592.722115Q5608.090495,5655.442513,5593.253775,5615.004362Q5578.417055,5574.566211,5558.826822,5637.286609Q5539.236589,5700.007006,5524.399869,5659.568855Q5509.563149,5619.130704,5514.172615,5689.553607Q5518.782082,5759.976510,5514.172615,5733.567921Q5509.563149,5707.159332,5514.172615,5777.582235Q5518.782082,5848.005138,5521.807044,5786.660188Q5524.832006,5725.315237,5556.522089,5764.928120Q5588.212171,5804.541003,5558.250639,5768.229194Q5528.289106,5731.917384,5523.823686,5790.511440Q5519.358265,5849.105496,5514.172615,5843.603707" transform="matrix(0.99912658574352 0 0 0.99788913432616 -5419.34043090002160 -5340.39073271504731)" fill="rgb(50,101,34)" stroke="rgb(35,120,35)" stroke-width="0.500000" stroke-miterlimit="1"/></svg>