<?xml version="1.0" encoding="UTF-8" standalone="no"?>
<svg
   id="ekRaC8T0tym1"
   viewBox="0 0 640 480"
   shape-rendering="geometricPrecision"
   text-rendering="geometricPrecision"
   version="1.1"
   sodipodi:docname="plants.svg"
   inkscape:version="1.1 (c68e22c387, 2021-05-23)"
   xmlns:inkscape="http://www.inkscape.org/namespaces/inkscape"
   xmlns:sodipodi="http://sodipodi.sourceforge.net/DTD/sodipodi-0.dtd"
   xmlns="http://www.w3.org/2000/svg"
   xmlns:svg="http://www.w3.org/2000/svg">
  <defs
     id="defs7" />
  <sodipodi:namedview
     id="namedview5"
     pagecolor="#505050"
     bordercolor="#ffffff"
     borderopacity="1"
     inkscape:pageshadow="0"
     inkscape:pageopacity="0"
     inkscape:pagecheckerboard="1"
     showgrid="false"
     inkscape:zoom="1.653125"
     inkscape:cx="319.69754"
     inkscape:cy="239.84877"
     inkscape:window-width="1920"
     inkscape:window-height="1017"
     inkscape:window-x="1272"
     inkscape:window-y="-8"
     inkscape:window-maximized="1"
     inkscape:current-layer="ekRaC8T0tym1" />
  <path
     id="ekRaC8T0tym2"
     d="M5522.536363,5698.694587Q5522.536363,5698.694587,5511.593552,5660.824129Q5500.650741,5622.953671,5472.558749,5644.930310Q5444.466757,5666.906949,5474.518656,5642.575670Q5504.570554,5618.244391,5513.880110,5658.077049Q5523.189665,5697.909707,5522.536363,5651.601790Q5521.883061,5605.293872,5522.536363,5620.206591Q5523.189665,5635.119310,5522.536363,5588.811393Q5521.883061,5542.503476,5511.103576,5567.227194Q5500.324090,5591.950913,5472.068773,5551.333375Q5443.813455,5510.715837,5433.033970,5535.439556Q5422.254485,5560.163275,5393.999167,5519.545737Q5365.743849,5478.928199,5354.964364,5503.651918Q5344.184879,5528.375636,5356.924271,5501.297278Q5369.663662,5474.218919,5396.285725,5516.798657Q5422.907787,5559.378395,5435.647178,5532.300036Q5448.386570,5505.221678,5475.008632,5547.801415Q5501.630695,5590.381153,5514.370086,5563.302794Q5527.109478,5536.224436,5524.822921,5557.416195Q5522.536363,5578.607954,5525.149572,5526.020997Q5527.762780,5473.434040,5525.476223,5494.625798Q5523.189665,5515.817557,5525.802874,5463.230600Q5528.416082,5410.643643,5510.940250,5441.842621Q5493.464418,5473.041600,5471.905447,5425.948802Q5450.346477,5378.856005,5432.870644,5410.054983Q5415.394812,5441.253961,5393.835841,5394.161164Q5372.276871,5347.068367,5354.801039,5378.267345Q5337.325206,5409.466323,5315.766236,5362.373526Q5294.207265,5315.280728,5317.726142,5360.018886Q5341.245019,5404.757043,5357.087596,5375.520265Q5372.930173,5346.283487,5396.449050,5391.021644Q5419.967927,5435.759802,5435.810504,5406.523023Q5451.653081,5377.286245,5475.171958,5422.024402Q5498.690835,5466.762560,5514.533412,5437.525782Q5530.375989,5408.289003,5530.049338,5431.835402Q5529.722687,5455.381801,5530.375989,5400.440204Q5531.029291,5345.498607,5534.295802,5400.440204Q5537.562312,5455.381801,5534.622453,5431.835402Q5531.682593,5408.289003,5550.138378,5437.525782Q5568.594164,5466.762560,5589.499832,5422.024402Q5610.405501,5377.286245,5628.861286,5406.523023Q5647.317072,5435.759802,5668.222740,5391.021644Q5689.128409,5346.283487,5707.584194,5375.520265Q5726.039980,5404.757043,5746.945648,5360.018886Q5767.851317,5315.280728,5748.905555,5362.373526Q5729.959792,5409.466323,5709.870752,5378.267345Q5689.781711,5347.068367,5670.835949,5394.161164Q5651.890187,5441.253961,5631.801146,5410.054983Q5611.712105,5378.856005,5592.766343,5425.948802Q5573.820581,5473.041600,5553.731540,5441.842621Q5533.642499,5410.643643,5538.868917,5463.230600Q5544.095334,5515.817557,5539.195568,5494.625798Q5534.295802,5473.434040,5539.522219,5526.020997Q5544.748636,5578.607954,5539.848870,5557.416195Q5534.949104,5536.224436,5550.138378,5563.106574Q5565.327653,5589.988713,5589.499832,5547.605195Q5613.672012,5505.221678,5628.861286,5532.103816Q5644.050561,5558.985955,5668.222740,5516.602437Q5692.394919,5474.218919,5707.584194,5501.101058Q5722.773469,5527.983196,5746.945648,5485.599679Q5771.117827,5443.216161,5748.905555,5487.954319Q5726.693282,5532.692476,5709.870752,5503.848138Q5693.048222,5475.003799,5670.835949,5519.741957Q5648.623676,5564.480114,5631.801146,5535.635776Q5614.978616,5506.791438,5592.766343,5551.529595Q5570.554070,5596.267753,5553.731540,5567.423414Q5536.909010,5538.579076,5542.135427,5588.811393Q5547.361844,5639.043710,5542.135427,5620.206591Q5536.909010,5601.369472,5542.135427,5651.601790Q5547.361844,5701.834107,5550.791681,5658.077049Q5554.221517,5614.319992,5590.153135,5642.575670Q5626.084752,5670.831348,5592.113041,5644.930310Q5558.141330,5619.029271,5553.078238,5660.824129Q5548.015147,5702.618987,5542.135427,5698.694587"
     transform="matrix(1.00618379787961 0.00005542128165 -0.00005350834067 0.97145399430940 -5249.02173506999679 -5170.95520116999705)"
     fill="rgb(50,101,34)"
     stroke="rgb(35,120,35)"
     stroke-width="0.500000"
     stroke-miterlimit="1" />
</svg>
