<svg id="esypNFD6hkl1" xmlns="http://www.w3.org/2000/svg" xmlns:xlink="http://www.w3.org/1999/xlink" viewBox="0 0 50 60" shape-rendering="geometricPrecision" text-rendering="geometricPrecision"><path id="esypNFD6hkl2" d="M5329.389404,5395.593422Q5329.389404,5395.593422,5328.184392,5389.581356Q5326.979380,5383.569291,5323.885916,5387.058158Q5320.792452,5390.547025,5324.101739,5386.684350Q5327.411026,5382.821676,5328.436185,5389.145248Q5329.461345,5395.468819,5329.389404,5388.117278Q5329.317463,5380.765737,5329.389404,5383.133182Q5329.461345,5385.500628,5329.389404,5378.149086Q5329.317463,5370.797545,5328.130436,5374.722520Q5326.943409,5378.647496,5323.831960,5372.199322Q5320.720511,5365.751148,5319.533484,5369.676123Q5318.346457,5373.601099,5315.235008,5367.152925Q5312.123559,5360.704751,5310.936532,5364.629726Q5309.749506,5368.554702,5311.152355,5364.255919Q5312.555205,5359.957137,5315.486802,5366.716817Q5318.418398,5373.476497,5319.821248,5369.177714Q5321.224098,5364.878931,5324.155695,5371.638611Q5327.087291,5378.398291,5328.490141,5374.099509Q5329.892991,5369.800726,5329.641197,5373.164991Q5329.389404,5376.529255,5329.677168,5368.180895Q5329.964932,5359.832534,5329.713138,5363.196799Q5329.461345,5366.561064,5329.749109,5358.212703Q5330.036873,5349.864343,5328.112451,5354.817288Q5326.188028,5359.770233,5323.813975,5352.294089Q5321.439921,5344.817946,5319.515499,5349.770891Q5317.591077,5354.723836,5315.217023,5347.247692Q5312.842969,5339.771549,5310.918547,5344.724494Q5308.994125,5349.677439,5306.620071,5342.201295Q5304.246018,5334.725152,5306.835894,5341.827488Q5309.425771,5348.929825,5311.170341,5344.288385Q5312.914910,5339.646946,5315.504787,5346.749283Q5318.094664,5353.851619,5319.839234,5349.210180Q5321.583803,5344.568741,5324.173680,5351.671077Q5326.763557,5358.773414,5328.508126,5354.131975Q5330.252696,5349.490535,5330.216726,5353.228607Q5330.180755,5356.966679,5330.252696,5348.244511Q5330.324637,5339.522344,5330.684342,5348.244511Q5331.044047,5356.966679,5330.720313,5353.228607Q5330.396578,5349.490535,5332.428912,5354.131975Q5334.461246,5358.773414,5336.763358,5351.671077Q5339.065471,5344.568741,5341.097805,5349.210180Q5343.130138,5353.851619,5345.432251,5346.749283Q5347.734364,5339.646946,5349.766697,5344.288385Q5351.799031,5348.929825,5354.101144,5341.827488Q5356.403256,5334.725152,5354.316967,5342.201295Q5352.230677,5349.677439,5350.018491,5344.724494Q5347.806305,5339.771549,5345.720015,5347.247692Q5343.633726,5354.723836,5341.421539,5349.770891Q5339.209353,5344.817946,5337.123063,5352.294089Q5335.036774,5359.770233,5332.824587,5354.817288Q5330.612401,5349.864343,5331.187929,5358.212703Q5331.763457,5366.561064,5331.223900,5363.196799Q5330.684342,5359.832534,5331.259870,5368.180895Q5331.835398,5376.529255,5331.295841,5373.164991Q5330.756283,5369.800726,5332.428912,5374.068358Q5334.101541,5378.335990,5336.763358,5371.607461Q5339.425176,5364.878931,5341.097805,5369.146563Q5342.770433,5373.414195,5345.432251,5366.685666Q5348.094069,5359.957137,5349.766697,5364.224769Q5351.439326,5368.492401,5354.101144,5361.763871Q5356.762962,5355.035342,5354.316967,5362.137679Q5351.870972,5369.240015,5350.018491,5364.660877Q5348.166010,5360.081739,5345.720015,5367.184076Q5343.274020,5374.286412,5341.421539,5369.707274Q5339.569058,5365.128136,5337.123063,5372.230473Q5334.677069,5379.332809,5332.824587,5374.753671Q5330.972106,5370.174533,5331.547634,5378.149086Q5332.123163,5386.123640,5331.547634,5383.133182Q5330.972106,5380.142725,5331.547634,5388.117278Q5332.123163,5396.091831,5332.500853,5389.145248Q5332.878543,5382.198664,5336.835299,5386.684350Q5340.792055,5391.170037,5337.051122,5387.058158Q5333.310189,5382.946279,5332.752646,5389.581356Q5332.195104,5396.216434,5331.547634,5395.593422" transform="matrix(1 0 0 1.00323984549034 -5305.48681640999985 -5355.70431072999963)" fill="rgb(50,101,34)" stroke="rgb(35,120,35)" stroke-width="0.500000"/></svg>