<?xml version="1.0" encoding="UTF-8" standalone="no"?>
<!-- Created with Inkscape (http://www.inkscape.org/) -->

<svg
   width="97.417557mm"
   height="130.21643mm"
   viewBox="0 0 97.417557 130.21643"
   version="1.1"
   id="svg71257"
   inkscape:version="1.1.1 (3bf5ae0d25, 2021-09-20)"
   sodipodi:docname="poster-no-ants.svg"
   xmlns:inkscape="http://www.inkscape.org/namespaces/inkscape"
   xmlns:sodipodi="http://sodipodi.sourceforge.net/DTD/sodipodi-0.dtd"
   xmlns:xlink="http://www.w3.org/1999/xlink"
   xmlns="http://www.w3.org/2000/svg"
   xmlns:svg="http://www.w3.org/2000/svg">
  <sodipodi:namedview
     id="namedview71259"
     pagecolor="#505050"
     bordercolor="#ffffff"
     borderopacity="1"
     inkscape:pageshadow="0"
     inkscape:pageopacity="0"
     inkscape:pagecheckerboard="1"
     inkscape:document-units="mm"
     showgrid="false"
     inkscape:snap-global="false"
     fit-margin-top="0"
     fit-margin-left="0"
     fit-margin-right="0"
     fit-margin-bottom="0"
     inkscape:zoom="1.5287037"
     inkscape:cx="96.486978"
     inkscape:cy="137.04422"
     inkscape:window-width="1920"
     inkscape:window-height="1017"
     inkscape:window-x="1272"
     inkscape:window-y="-8"
     inkscape:window-maximized="1"
     inkscape:current-layer="layer1" />
  <defs
     id="defs71254">
    <inkscape:path-effect
       effect="spiro"
       id="path-effect22900"
       is_visible="true"
       lpeversion="1" />
  </defs>
  <g
     inkscape:label="Layer 1"
     inkscape:groupmode="layer"
     id="layer1"
     transform="translate(-94.480339,-120.42572)">
    <path
       style="fill:#151515;fill-opacity:0.5221445;stroke:none;stroke-width:0.0538732px;stroke-linecap:butt;stroke-linejoin:miter;stroke-opacity:1"
       d="m 154.16145,182.44273 c -0.61557,0.24713 -0.82506,2.60195 -0.60179,4.07364 0.15642,1.03106 -0.1175,2.70173 0.45323,2.59684 0.73118,-0.13438 -0.0373,-2.41387 0.45755,-3.3054 0.3254,-0.58624 0.51236,-3.69483 -0.30899,-3.36508 z"
       id="path20858"
       sodipodi:nodetypes="sssss" />
    <path
       style="fill:#151515;fill-opacity:0.5221445;stroke:none;stroke-width:0.0674857px;stroke-linecap:butt;stroke-linejoin:miter;stroke-opacity:1"
       d="m 154.10641,188.70357 c -0.0585,-0.89065 -2.39693,1.00257 -3.96999,2.83578 -1.10207,1.28435 -2.72168,2.39762 -2.79434,3.34351 -0.0931,1.21185 2.47652,-2.40326 3.23098,-2.35742 0.4961,0.0301 3.61134,-2.6335 3.53335,-3.82187 z"
       id="path20864"
       sodipodi:nodetypes="sssss" />
    <path
       style="fill:#151515;fill-opacity:0.5221445;stroke:none;stroke-width:0.0954944px;stroke-linecap:butt;stroke-linejoin:miter;stroke-opacity:1"
       d="m 145.31811,183.49496 c 0.97863,0.0382 -1.42841,4.43203 -3.66746,7.43041 -1.56868,2.10067 -3.01654,5.12869 -4.07377,5.33297 -1.35449,0.26171 2.99026,-4.68362 3.03959,-6.05104 0.0325,-0.89916 3.39584,-6.76329 4.70164,-6.71234 z"
       id="path20834"
       sodipodi:nodetypes="sssss" />
    <g
       id="g20802"
       transform="matrix(-0.21985464,0.36953759,-0.37201023,-0.25571427,240.39611,170.43887)"
       style="fill:#151515;fill-opacity:0.5221445">
      <path
         style="fill:#151515;fill-opacity:0.5221445;stroke:none;stroke-width:0.264583px;stroke-linecap:butt;stroke-linejoin:miter;stroke-opacity:1"
         d="m 153.10455,172.35846 c -3.1146,1.53594 0.40129,10.6269 4.67731,15.96129 2.99578,3.73726 4.75499,10.3098 7.89294,9.35459 4.02024,-1.22379 -5.08335,-9.07187 -3.97571,-12.92103 0.72835,-2.53108 -4.43877,-14.44423 -8.59454,-12.39485 z"
         id="path20798"
         sodipodi:nodetypes="sssss" />
      <path
         style="fill:#151515;fill-opacity:0.5221445;stroke:none;stroke-width:0.237506px;stroke-linecap:butt;stroke-linejoin:miter;stroke-opacity:1"
         d="m 152.48648,172.10632 c -2.72062,1.41689 0.35053,9.80318 4.08565,14.72409 2.61682,3.44757 4.1535,9.51065 6.89451,8.62948 3.5117,-1.12893 -4.44032,-8.36868 -3.47279,-11.91948 0.63621,-2.33489 -3.87729,-13.32461 -7.50737,-11.43409 z"
         id="path20800"
         sodipodi:nodetypes="sssss" />
    </g>
    <path
       style="fill:#151515;fill-opacity:0.5221445;stroke:none;stroke-width:0.145867px;stroke-linecap:butt;stroke-linejoin:miter;stroke-opacity:1"
       d="m 132.28964,181.07971 c -0.90257,-1.61125 -5.22383,2.02796 -7.65652,5.49172 -1.70433,2.42671 -4.86489,4.58796 -4.2477,6.31089 0.79071,2.20737 4.23892,-4.57688 6.18932,-4.55931 1.28251,0.0116 6.91921,-5.09341 5.7149,-7.2433 z"
       id="path20804"
       sodipodi:nodetypes="sssss" />
    <path
       style="fill:#151515;fill-opacity:0.5221445;stroke:none;stroke-width:0.0986911;stroke-linecap:butt;stroke-linejoin:miter;stroke-miterlimit:4;stroke-dasharray:none;stroke-opacity:1"
       d="m 162.0954,186.74296 c 0.61364,3.27492 0.60191,5.1507 2.69737,5.24637 -2.31779,-3.48563 -0.54619,-6.48229 2.37081,-1.92648 0.56069,-2.37131 -2.91296,-6.00155 -4.22931,-4.33789 -0.67179,0.3328 -0.83888,1.01795 -0.83888,1.01795 z"
       id="path19349"
       sodipodi:nodetypes="ccccc" />
    <path
       id="path21291"
       style="fill:#151515;fill-opacity:0.5221445;stroke-width:0.0333721;stroke-linejoin:bevel"
       d="m 150.76625,180.3475 c 0.10924,-3.42091 5.06109,-2.39409 6.71187,-2.04316 1.95699,0.41602 1.12881,5.54905 0.91846,6.78445 -0.5412,3.17849 -5.07288,2.08763 -5.74101,1.57486 -1.87348,-1.43785 -2.0215,-2.17648 -1.88932,-6.31615 z"
       sodipodi:nodetypes="sssss" />
    <path
       id="ellipse14331"
       style="fill:#151515;fill-opacity:0.5221445;stroke-width:0.0271995;stroke-linejoin:bevel"
       d="m 152.07371,179.89399 c 0.0865,-2.75117 4.1777,-1.92006 5.54156,-1.63606 1.61685,0.33668 0.93831,4.46407 0.7659,5.45742 -0.44359,2.55574 -4.18775,1.67357 -4.74016,1.26046 -1.54898,-1.1584 -1.67203,-1.75261 -1.5673,-5.08182 z"
       sodipodi:nodetypes="sssss" />
    <path
       id="path21351"
       style="fill:#151515;fill-opacity:0.5221445;stroke-width:0.0400642;stroke-linejoin:bevel"
       d="m 141.55791,179.51084 c 0.11398,-3.85442 6.45484,-2.66021 8.56875,-2.25238 2.50601,0.48346 1.48544,6.26201 1.22572,7.65268 -0.66823,3.578 -6.47222,2.31476 -7.33059,1.73188 -2.40691,-1.6344 -2.60176,-2.46791 -2.46388,-7.13218 z"
       sodipodi:nodetypes="sssss" />
    <path
       id="path21353"
       style="fill:#151515;fill-opacity:0.5221445;stroke-width:0.0326537;stroke-linejoin:bevel"
       d="m 143.22666,179.00953 c 0.09,-3.09982 5.3286,-2.1326 7.07505,-1.80235 2.07039,0.39151 1.23366,5.03785 1.02063,6.15603 -0.54809,2.87691 -5.34332,1.85474 -6.05293,1.38505 -1.98978,-1.31705 -2.15162,-1.98762 -2.04275,-5.73873 z"
       sodipodi:nodetypes="sssss" />
    <path
       id="path22180"
       style="fill:#151515;fill-opacity:0.5221445;stroke-width:0.0641335;stroke-linejoin:bevel"
       d="m 142.64921,179.74572 c 1.93164,3.81858 -4.35326,7.41696 -10.08346,8.59649 -5.73021,1.17954 -13.17309,-1.0541 -15.10473,-4.87269 -1.93164,-3.81858 -0.16662,-7.72648 5.56358,-8.90602 5.73021,-1.17954 17.69297,1.36363 19.62461,5.18222 z"
       sodipodi:nodetypes="sssss" />
    <path
       id="path21357"
       style="fill:#151515;fill-opacity:0.5221445;stroke-width:0.0594719;stroke-linejoin:bevel"
       d="m 142.74936,179.33572 c 1.95735,3.29819 -4.30056,6.3506 -10.02069,7.32599 -5.72012,0.97541 -13.1759,-0.99713 -15.13325,-4.29533 -1.95735,-3.29819 -0.21992,-6.64787 5.5002,-7.62327 5.72011,-0.9754 17.69639,1.29441 19.65374,4.59261 z"
       sodipodi:nodetypes="sssss" />
    <path
       id="path11103"
       style="fill:#151515;fill-opacity:0.5221445;stroke-width:0.0184835;stroke-linejoin:bevel"
       d="m 126.89243,175.96954 c 0.92018,0.7145 -0.79525,2.1763 -2.52694,3.01252 -1.73169,0.83621 -4.28143,1.03243 -5.20162,0.31793 -0.92017,-0.7145 -0.66962,-1.80973 1.06209,-2.64595 1.73168,-0.83621 5.74629,-1.399 6.66647,-0.6845 z"
       sodipodi:nodetypes="sssss" />
    <path
       style="fill:#151515;fill-opacity:0.5221445;stroke:none;stroke-width:0.0884351px;stroke-linecap:butt;stroke-linejoin:miter;stroke-opacity:1"
       d="m 148.19366,185.46587 c -0.75835,1.04472 -1.99848,-2.21367 -2.39867,-5.07752 -0.28038,-2.00641 -1.29278,-4.02548 -0.64343,-5.19178 0.83191,-1.49423 1.00445,3.92896 1.91376,4.1918 0.59792,0.17284 2.14019,4.68355 1.12834,6.0775 z"
       id="path25141"
       sodipodi:nodetypes="sssss"
       inkscape:transform-center-x="-3.7806162"
       inkscape:transform-center-y="-1.1532001" />
    <path
       style="fill:#151515;fill-opacity:0.5221445;stroke:none;stroke-width:0.0538732px;stroke-linecap:butt;stroke-linejoin:miter;stroke-opacity:1"
       d="m 154.80442,183.30135 c -0.48304,0.46772 0.16946,2.72972 0.90633,4.00597 0.51625,0.89413 0.86278,2.54756 1.35529,2.22898 0.631,-0.40815 -0.90304,-2.22092 -0.76398,-3.23855 0.0915,-0.66916 -0.85314,-3.62046 -1.49764,-2.9964 z"
       id="path22898"
       sodipodi:nodetypes="sssss" />
    <path
       style="fill:#151515;fill-opacity:0.5221445;stroke:none;stroke-width:0.0674857px;stroke-linecap:butt;stroke-linejoin:miter;stroke-opacity:1"
       d="m 157.00557,189.12067 c -0.37471,-0.80212 -1.86635,1.85848 -2.6684,4.16651 -0.56191,1.61701 -1.66622,3.2764 -1.39346,4.18055 0.34947,1.15837 1.43641,-3.1865 2.15387,-3.43678 0.47178,-0.16458 2.40796,-3.84003 1.90799,-4.91028 z"
       id="path25126"
       sodipodi:nodetypes="sssss" />
    <path
       id="path18775"
       style="fill:#151515;fill-opacity:0.5221445;stroke:none;stroke-width:0.508755;stroke-linejoin:bevel;stroke-miterlimit:4;stroke-dasharray:none;stroke-opacity:1"
       d="m 166.76721,183.37738 c -0.0421,1.92416 -1.48148,4.20903 -2.97404,4.64166 -1.94842,0.56476 -3.44662,-0.98724 -5.04959,-3.92755 -2.42298,-4.44445 -5.15379,-5.36358 2.31149,-7.30594 4.99757,-1.3003 5.77064,3.91737 5.71214,6.59183 z"
       sodipodi:nodetypes="sssss" />
    <path
       id="path15084"
       style="fill:#151515;fill-opacity:0.5221445;stroke:none;stroke-width:0.466229;stroke-linejoin:bevel;stroke-miterlimit:4;stroke-dasharray:none;stroke-opacity:1"
       d="m 166.80465,181.77867 c 0.26794,1.9236 -0.55417,4.40117 -1.71105,5.04007 -1.51023,0.83404 -2.82794,-0.58255 -4.76143,-3.21167 -3.80119,-5.1688 -5.46297,-5.02303 0.70015,-7.24547 5.39971,-1.94716 5.39993,2.7434 5.77233,5.41707 z"
       sodipodi:nodetypes="sssss" />
    <path
       id="path14812"
       style="fill:#151515;fill-opacity:0.5221445;stroke-width:0.0614314;stroke-linejoin:bevel"
       d="m 166.58114,181.27772 c 0.18384,1.20331 -0.51996,2.76478 -1.4629,3.17685 -1.23094,0.53793 -2.39604,-0.28644 -3.78349,-1.96612 -2.0972,-2.53895 -4.31865,-3.09476 0.68501,-4.54946 4.38387,-1.27451 4.30585,1.6662 4.56138,3.33873 z"
       sodipodi:nodetypes="sssss" />
    <path
       id="path19575"
       style="fill:#8e8e8e;fill-opacity:0.27505827;stroke-width:0.0314032;stroke-linejoin:bevel"
       d="m 166.18517,178.77166 c 0.11624,0.87151 -0.0751,1.98627 -0.40048,2.26749 -0.42482,0.36711 -0.88178,-0.24775 -1.45464,-1.48364 -0.86592,-1.86813 -1.69537,-2.30727 0.0616,-3.27134 1.53933,-0.84464 1.63197,1.27615 1.79354,2.48749 z"
       sodipodi:nodetypes="sssss" />
    <use
       x="0"
       y="0"
       xlink:href="#path19575"
       id="use19775"
       transform="matrix(-0.64164327,0.64921907,0.90615625,0.64164328,104.29163,-41.831423)"
       width="100%"
       height="100%"
       style="fill:#151515;fill-opacity:0.5221445" />
    <path
       id="rect25196"
       style="fill:#151515;fill-opacity:0.5221445;stroke-width:0.311681;stroke-linejoin:bevel"
       d="m 162.53019,176.727 0.66773,-0.21111 c 0,0 0.90011,-5.15281 0.60375,-6.56043 -0.10633,-0.50501 -0.45928,-0.39342 -0.66772,0.21111 -0.58097,1.685 -0.60376,6.56043 -0.60376,6.56043 z"
       sodipodi:nodetypes="ccaac" />
    <use
       x="0"
       y="0"
       xlink:href="#rect25196"
       id="use26504"
       transform="matrix(0.87890286,-0.39772753,0.54142633,0.89277198,-79.050676,84.570481)"
       width="100%"
       height="100%"
       style="fill:#151515;fill-opacity:0.5221445" />
    <path
       style="fill:#151515;fill-opacity:0.5221445;stroke:none;stroke-width:0.133111px;stroke-linecap:butt;stroke-linejoin:miter;stroke-opacity:1"
       d="m 145.55569,175.08557 c 1.04534,0.25758 -2.47945,7.55238 -5.52685,12.41454 -2.13503,3.40642 -4.33706,8.47463 -5.51852,8.63012 -1.51365,0.19922 4.21418,-7.69345 4.55788,-10.09962 0.22609,-1.58221 5.09269,-11.28874 6.48749,-10.94504 z"
       id="path25147"
       sodipodi:nodetypes="sssss" />
    <g
       id="g74288"
       style="fill:#151515;fill-opacity:0.5221445">
      <path
         style="fill:#151515;fill-opacity:0.5221445;stroke:none;stroke-width:0.0982176px;stroke-linecap:butt;stroke-linejoin:miter;stroke-opacity:1"
         d="m 141.54808,182.46051 c 0.15275,-1.57863 -2.38827,-5.73272 -4.22663,-7.64707 -1.28796,-1.34119 -3.00223,-4.52954 -3.28573,-3.26385 -0.3632,1.62156 2.78289,3.77305 3.45128,6.14572 0.43951,1.56019 3.85725,6.87154 4.06108,4.7652 z"
         id="path25153"
         sodipodi:nodetypes="sssss" />
      <path
         style="fill:#151515;fill-opacity:0.5221445;stroke:none;stroke-width:0.174904px;stroke-linecap:butt;stroke-linejoin:miter;stroke-opacity:1"
         d="m 135.0453,171.56591 c -0.39133,-1.83018 -7.1006,4.44064 -11.48034,9.84452 -3.06844,3.78595 -7.76243,7.70974 -7.75942,9.7837 0.004,2.6571 7.01035,-7.48473 9.33151,-8.11686 1.5263,-0.41568 10.43041,-9.06936 9.90825,-11.51136 z"
         id="path25159"
         sodipodi:nodetypes="sssss"
         inkscape:transform-center-x="9.8025358"
         inkscape:transform-center-y="-8.3742301" />
    </g>
    <ellipse
       style="fill:none;stroke:#151515;stroke-width:8.88201;stroke-linecap:round;stroke-linejoin:round;stroke-dasharray:2.2205, 2.2205;stroke-opacity:0.52156866;paint-order:stroke markers fill;fill-opacity:0.5221445"
       id="path71442"
       cx="141.92308"
       cy="181.90384"
       rx="35.307693"
       ry="33.057693" />
    <rect
       style="fill:#151515;fill-opacity:0.5221445;stroke:none;stroke-width:6.10513;stroke-linecap:round;stroke-linejoin:round;stroke-dasharray:1.52627, 1.52627;stroke-opacity:1;paint-order:stroke markers fill"
       id="rect72118"
       width="8.6559906"
       height="58.390491"
       x="41.252197"
       y="193.45264"
       transform="matrix(0.92694662,-0.37519324,0.44980184,0.89312838,0,0)" />
  </g>
</svg>
