<svg id="e1tjoLFsYg71" xmlns="http://www.w3.org/2000/svg" xmlns:xlink="http://www.w3.org/1999/xlink" viewBox="0 0 640 480" shape-rendering="geometricPrecision" text-rendering="geometricPrecision"><polygon id="e1tjoLFsYg72" points="53.443466,-187.053298 101.344875,-74.019081 143.536187,51.777088 -146.515646,51.777088 -37.618256,-119.525419 53.443466,-187.053298" transform="matrix(1 0 0 1 496.46381300000002 427.05329773000005)" fill="rgb(195,195,195)" stroke="none" stroke-width="2" stroke-miterlimit="1"/><polygon id="e1tjoLFsYg73" points="54.783595,-362.837282 188.421869,-148.743312 461.619947,35.878139 -178.380053,35.878139 -85.672959,-180.107397 54.783595,-362.837282" transform="matrix(1 0 0 1 179.47398699999999 441.98173363999996)" fill="rgb(195,194,194)" stroke="none" stroke-width="2" stroke-miterlimit="1"/><polygon id="e1tjoLFsYg74" points="265.978139,59.702638 366.966243,137.040129 341.132077,139.180257 193.172762,3.337185 221.355488,12.214474 265.978139,59.702638" transform="matrix(1 0 0 1 250.95282599999999 340.81974300000002)" fill="rgb(87,86,86)" stroke="none" stroke-width="0"/><polygon id="e1tjoLFsYg75" points="-139.796497,30.127339 -78.467346,137.040129 -111.585087,137.040129 -157.151798,30.127339 -125.077501,-62.317581 -139.796497,30.127339" transform="matrix(1 0 0 1 250.95282599999999 340.81974300000002)" fill="rgb(87,86,86)" stroke="none" stroke-width="0"/><polygon id="e1tjoLFsYg76" points="50.323870,-2.990402 106.746688,137.040129 38.058040,137.040129 23.339044,3.337185 -61.295184,-107.249958 50.323870,-2.990402" transform="matrix(1 0 0 1 250.95282599999999 340.81974300000002)" fill="rgb(87,86,86)" stroke="none" stroke-width="0"/></svg>