<?xml version="1.0" encoding="UTF-8" standalone="no"?>
<svg
   width="150"
   height="100"
   viewBox="0 0 39.687499 26.458333"
   version="1.1"
   id="svg8376"
   inkscape:version="1.1 (c68e22c387, 2021-05-23)"
   sodipodi:docname="ant.svg"
   xmlns:inkscape="http://www.inkscape.org/namespaces/inkscape"
   xmlns:sodipodi="http://sodipodi.sourceforge.net/DTD/sodipodi-0.dtd"
   xmlns:xlink="http://www.w3.org/1999/xlink"
   xmlns="http://www.w3.org/2000/svg"
   xmlns:svg="http://www.w3.org/2000/svg">
  <sodipodi:namedview
     id="namedview8378"
     pagecolor="#505050"
     bordercolor="#ffffff"
     borderopacity="1"
     inkscape:pageshadow="0"
     inkscape:pageopacity="0"
     inkscape:pagecheckerboard="1"
     inkscape:document-units="mm"
     showgrid="false"
     inkscape:snap-global="false"
     inkscape:zoom="2.8284271"
     inkscape:cx="9.7227183"
     inkscape:cy="59.9273"
     inkscape:window-width="1920"
     inkscape:window-height="1017"
     inkscape:window-x="1272"
     inkscape:window-y="-8"
     inkscape:window-maximized="1"
     inkscape:current-layer="layer1"
     fit-margin-top="0"
     fit-margin-left="0"
     fit-margin-right="0"
     fit-margin-bottom="0"
     units="px" />
<path d="M10293.75 3150.167406265896 S 10312.5 3182.643358907812, 10350 3182.6433589078124S 10387.5 3182.6433589078124, 10406.25 3215.119311549729S 10425 3247.595264191645, 10462.5 3247.595264191645S 10500 3247.595264191645, 10518.75 3215.119311549729S 10537.5 3182.6433589078124, 10575 3182.6433589078124S 10612.5 3182.6433589078124, 10631.25 3150.167406265896S 10650 3117.691453623979, 10631.25 3085.2155009820626S 10612.5 3052.739548340146, 10631.25 3020.2635956982294S 10650 2987.7876430563133, 10631.25 2955.3116904143967S 10612.5 2922.83573777248, 10575 2922.83573777248S 10537.5 2922.83573777248, 10518.75 2890.359785130564S 10500 2857.8838324886474, 10518.75 2825.407879846731S 10537.5 2792.9319272048147, 10575 2792.9319272048147S 10612.5 2792.9319272048147, 10631.25 2825.407879846731S 10650 2857.8838324886474, 10687.5 2857.8838324886474S 10725 2857.8838324886474, 10743.75 2890.359785130564S 10762.5 2922.83573777248, 10743.75 2955.3116904143963S 10725 2987.787643056313, 10743.75 3020.2635956982294S 10762.5 3052.739548340146, 10743.75 3085.2155009820626S 10725 3117.6914536239788, 10743.75 3150.1674062658954S 10762.5 3182.643358907812, 10743.75 3215.119311549728S 10725 3247.5952641916447, 10687.5 3247.5952641916447S 10650 3247.5952641916447, 10631.25 3280.0712168335613S 10612.5 3312.547169475478, 10575 3312.547169475478S 10537.5 3312.547169475478, 10518.75 3345.0231221173945S 10500 3377.4990747593106, 10462.5 3377.4990747593106S 10425 3377.4990747593106, 10406.25 3345.0231221173945S 10387.5 3312.547169475478, 10350 3312.547169475478S 10312.5 3312.547169475478, 10293.75 3280.0712168335613S 10275 3247.595264191645, 10237.5 3247.5952641916447S 10200 3247.5952641916447, 10181.25 3215.119311549728S 10162.5 3182.643358907812, 10181.25 3150.167406265896S 10200 3117.691453623979, 10181.25 3085.2155009820626S 10162.5 3052.739548340146, 10181.25 3020.2635956982294S 10200 2987.7876430563133, 10181.25 2955.3116904143967S 10162.5 2922.83573777248, 10181.25 2890.359785130564S 10200 2857.8838324886474, 10237.5 2857.8838324886474S 10275 2857.8838324886474, 10293.75 2825.407879846731S 10312.5 2792.9319272048147, 10350 2792.9319272048147S 10387.5 2792.9319272048147, 10406.25 2825.407879846731S 10425 2857.8838324886474, 10406.25 2890.359785130564S 10387.5 2922.83573777248, 10350 2922.83573777248S 10312.5 2922.83573777248, 10293.75 2955.3116904143963S 10275 2987.787643056313, 10293.75 3020.2635956982294S 10312.5 3052.739548340146, 10293.75 3085.2155009820626S 10275 3117.6914536239788, 10293.75 3150.1674062658954" stroke-width="10" stroke="#943c00" fill="darkOrange"></path>
</svg>