<?xml version="1.0" encoding="UTF-8" standalone="no"?>
<!-- Created with Inkscape (http://www.inkscape.org/) -->

<svg
   width="600"
   height="600"
   viewBox="0 0 158.75 158.75"
   version="1.1"
   id="svg113358"
   inkscape:version="1.1.1 (3bf5ae0d25, 2021-09-20)"
   sodipodi:docname="snail-walk-2.svg"
   xmlns:inkscape="http://www.inkscape.org/namespaces/inkscape"
   xmlns:sodipodi="http://sodipodi.sourceforge.net/DTD/sodipodi-0.dtd"
   xmlns="http://www.w3.org/2000/svg"
   xmlns:svg="http://www.w3.org/2000/svg">
  <sodipodi:namedview
     id="namedview113360"
     pagecolor="#505050"
     bordercolor="#ffffff"
     borderopacity="1"
     inkscape:pageshadow="0"
     inkscape:pageopacity="0"
     inkscape:pagecheckerboard="1"
     inkscape:document-units="mm"
     showgrid="false"
     inkscape:zoom="1.0809568"
     inkscape:cx="257.64213"
     inkscape:cy="360.32894"
     inkscape:window-width="1920"
     inkscape:window-height="1017"
     inkscape:window-x="1272"
     inkscape:window-y="-8"
     inkscape:window-maximized="1"
     inkscape:current-layer="layer1"
     inkscape:snap-global="false"
     fit-margin-top="0"
     fit-margin-left="0"
     fit-margin-right="0"
     fit-margin-bottom="0"
     units="px" />
  <defs
     id="defs113355" />
  <g
     inkscape:label="Layer 1"
     inkscape:groupmode="layer"
     id="layer1"
     transform="translate(134.62225,48.921463)">
    <path
       id="path136421"
       style="fill:#665545;fill-opacity:1;stroke-width:0.823542;stroke-linecap:round;stroke-linejoin:round;paint-order:fill markers stroke"
       d="m -10.03835,99.628763 c -9.811651,1.052167 -19.632407,-1.3409 -25.000227,-2.007864 0.463411,-3.050525 0.507466,-0.979605 1.189168,-4.641001 5.107941,2.54368 14.963322,4.818614 23.805615,5.150299 0.2855337,-7.704583 10.41983636,-5.403737 10.29978186,1.024193 -0.1329056,7.11588 -10.39965386,8.52813 -10.29433786,0.474373 z"
       sodipodi:nodetypes="ccccsc"
       inkscape:transform-center-x="-40.099402"
       inkscape:transform-center-y="64.479374" />
    <path
       id="path139271"
       style="fill:#665545;fill-opacity:1;stroke-width:0.823542;stroke-linecap:round;stroke-linejoin:round;paint-order:fill markers stroke"
       d="m -11.091231,90.842468 c -9.7342,1.618911 -19.677116,-0.201096 -25.074563,-0.555917 0.285877,-3.072252 0.449853,-1.007364 0.91826,-4.702109 5.246746,2.24344 15.217385,3.943513 24.06404,3.762296 -0.161367,-7.708184 10.0892255,-5.998407 10.34182042,0.425681 0.27962837,7.111612 -9.88804342,9.116377 -10.24955742,1.070049 z"
       sodipodi:nodetypes="ccccsc"
       inkscape:transform-center-x="-38.989265"
       inkscape:transform-center-y="55.578135" />
    <path
       id="path133769"
       style="fill:#b4a291;fill-opacity:1;stroke-width:0.823542;stroke-linecap:round;stroke-linejoin:round;paint-order:fill markers stroke"
       d="m -8.965161,98.339036 c -9.81165,1.052172 -19.632406,-1.340896 -25.000226,-2.00786 0.463411,-3.050525 0.507466,-0.979605 1.189169,-4.641002 5.107939,2.54368 14.963322,4.818615 23.8056145,5.150299 C -8.68507,89.135891 1.4492337,91.436736 1.3291772,97.864667 1.1962715,104.98054 -9.0704767,106.3928 -8.965161,98.339036 Z"
       sodipodi:nodetypes="ccccsc"
       inkscape:transform-center-x="-41.172592"
       inkscape:transform-center-y="63.189649" />
    <path
       style="fill:#665545;fill-opacity:1;stroke:none;stroke-width:1.16119;stroke-linecap:round;stroke-linejoin:round;stroke-miterlimit:4;stroke-dasharray:none;stroke-opacity:1"
       d="m -58.669161,-3.9954306 c -2.025407,-29.0098604 2.967421,-27.5144954 -5.593722,-44.9498524 -0.683028,15.660206 -3.850124,12.986409 -4.455252,32.202678 -0.206696,26.820739 -11.654167,25.7608423 -6.383576,73.155822 5.547265,49.882923 20.979133,27.669198 22.145283,35.147464 2.042703,13.099419 3.842827,9.883749 6.028034,10.387669 3.535104,-1.89896 11.285565,18.78951 11.597247,-0.21703 0.326143,-19.888332 17.910497,-17.216758 -0.473443,-25.750105 -18.383956,-8.533337 -35.521508,-4.081782 -19.018034,-36.136171 3.082318,-19.722659 -1.82113,-14.830605 -3.846537,-43.8404746 z"
       id="path132432"
       sodipodi:nodetypes="sccsscsscs"
       inkscape:transform-center-x="-5.529168"
       inkscape:transform-center-y="-4.1221656" />
    <path
       style="fill:#b4a291;fill-opacity:1;stroke:none;stroke-width:1.16119;stroke-linecap:round;stroke-linejoin:round;stroke-miterlimit:4;stroke-dasharray:none;stroke-opacity:1"
       d="m -57.414939,-4.1229455 c -2.595301,-28.9644435 2.425961,-27.5675145 -6.476277,-44.8311955 -0.375044,15.670594 -3.594092,13.059583 -3.821345,32.284036 0.320595,26.819612 -10.035978,25.8526429 -4.944224,73.267167 5.091752,47.414528 20.830235,24.35208 22.831945,34.705334 2.516656,13.016674 3.79423,7.977974 5.988923,8.438837 3.49709,-1.968077 7.411711,22.824787 10.060508,-1.931245 1.589151,-14.852437 19.340964,-14.250923 0.792826,-22.42122 C -51.530739,67.218474 -68.577467,72.006065 -52.707317,39.633439 -50.013305,19.854 -54.819639,24.841502 -57.414939,-4.1229455 Z"
       id="path121599"
       sodipodi:nodetypes="sccsscsscs"
       inkscape:transform-center-x="-8.1615268"
       inkscape:transform-center-y="-4.6000374" />
    <path
       id="path119992"
       style="fill:#41312b;fill-opacity:1;fill-rule:evenodd;stroke:none;stroke-width:0.930603;stroke-linecap:round;stroke-linejoin:round;stroke-miterlimit:4;stroke-dasharray:none;stroke-opacity:1"
       d="m -65.089709,7.7310383 c -0.105765,-7.61022808 6.565916,-22.5267723 28.201341,-17.4822956 17.352059,4.045777 26.75004,22.5822823 25.1962,39.9296023 -0.712971,7.959719 -6.793189,35.476886 -46.120775,33.177122 -11.921179,-0.69712 -13.926955,-42.398486 2.28301,-39.634364 -2.094953,-2.554154 -9.263914,-7.00599 -9.559776,-15.9900647 z"
       sodipodi:nodetypes="cssscc"
       inkscape:transform-center-x="-19.704362"
       inkscape:transform-center-y="-8.2013993" />
    <ellipse
       style="fill:#ffffff;fill-opacity:0.286713;stroke:none;stroke-width:0.824684;stroke-linecap:round;stroke-linejoin:round;stroke-miterlimit:4;stroke-dasharray:none;stroke-opacity:1;paint-order:fill markers stroke"
       id="path129144"
       cx="-10.588845"
       cy="18.944353"
       rx="11.864745"
       ry="2.5737066"
       transform="matrix(0.64463065,0.76449416,-0.81036803,0.5859212,0,0)"
       inkscape:transform-center-x="-36.899873"
       inkscape:transform-center-y="-31.55682" />
    <ellipse
       style="fill:#ffffff;fill-opacity:0.286713;stroke:none;stroke-width:0.862381;stroke-linecap:round;stroke-linejoin:round;stroke-miterlimit:4;stroke-dasharray:none;stroke-opacity:1;paint-order:fill markers stroke"
       id="ellipse129406"
       cx="0.85540605"
       cy="30.539564"
       rx="1.8660591"
       ry="0.76170731"
       transform="matrix(0.48463066,0.87471888,-0.99654351,0.08307244,0,0)"
       inkscape:transform-center-x="-29.058225"
       inkscape:transform-center-y="-31.276375" />
    <ellipse
       style="fill:#ffffff;fill-opacity:0.286713;stroke:none;stroke-width:0.834255;stroke-linecap:round;stroke-linejoin:round;stroke-miterlimit:4;stroke-dasharray:none;stroke-opacity:1;paint-order:fill markers stroke"
       id="ellipse129404"
       cx="-8.6683645"
       cy="25.451519"
       rx="2.4851127"
       ry="0.73063755"
       transform="matrix(0.55423992,0.83235696,-0.93552914,0.35324953,0,0)"
       inkscape:transform-center-x="-30.462666"
       inkscape:transform-center-y="-32.786043" />
    <ellipse
       style="fill:#2e231f;fill-opacity:1;stroke:none;stroke-width:0.921399;stroke-linecap:round;stroke-linejoin:round;stroke-miterlimit:4;stroke-dasharray:none;stroke-opacity:1;paint-order:fill markers stroke"
       id="ellipse131671"
       cx="6.1790509"
       cy="37.728359"
       rx="2.9467916"
       ry="1.5880053"
       transform="matrix(0.64320863,0.76569097,-0.99857983,0.05327596,0,0)"
       inkscape:transform-center-x="-25.377293"
       inkscape:transform-center-y="-27.820349" />
    <ellipse
       style="fill:#2e231f;fill-opacity:1;stroke:none;stroke-width:0.862381;stroke-linecap:round;stroke-linejoin:round;stroke-miterlimit:4;stroke-dasharray:none;stroke-opacity:1;paint-order:fill markers stroke"
       id="ellipse130911"
       cx="2.0145705"
       cy="32.514843"
       rx="1.8660591"
       ry="0.76170731"
       transform="matrix(0.48463066,0.87471888,-0.99654351,0.08307244,0,0)"
       inkscape:transform-center-x="-27.651538"
       inkscape:transform-center-y="-30.09834" />
    <path
       id="path113442"
       style="fill:none;fill-opacity:1;fill-rule:evenodd;stroke:#000000;stroke-width:0.823542;stroke-linecap:round;stroke-linejoin:round;stroke-miterlimit:4;stroke-dasharray:none;stroke-opacity:1"
       d="m -32.811499,3.9438922 c 0,0 -0.787824,-3.34143277 2.588507,-2.1935314 2.631367,0.8946248 2.165335,6.5909303 -1.82268,7.0822423 -1.359398,0.167475 -4.502405,-0.5942556 -4.401182,-5.5256192 0.07329,-3.57009026 3.654711,-4.6109021 6.422019,-3.70873726 4.000527,1.30420489 4.368163,7.21754206 3.061532,9.40525286 -3.01343,5.0454315 -8.082774,5.3058645 -10.125158,5.1529565 -3.348253,-0.250677 -11.228996,-1.997488 -11.48777,-10.9339628 -0.324886,-11.2193703 14.648905,-8.0067213 18.94551,-6.2548853 6.197451,2.52685837 7.993438,9.4377305 7.638787,15.1885591 -0.667654,10.826363 -12.696859,15.88376 -21.127391,15.568776 -11.323458,-0.423074 -21.851558,-11.443584 -21.970387,-19.9939037 -0.105762,-7.61023008 6.565919,-22.5267733 28.201344,-17.4822946 17.352059,4.045776 26.75004,22.5822793 25.1962,39.9296003 -0.712971,7.959719 -6.793188,35.476883 -46.120775,33.177119 -11.921179,-0.697117 -13.838977,-41.891447 2.28301,-39.634361"
       sodipodi:nodetypes="cssssssssssssssc"
       inkscape:transform-center-x="-19.720764"
       inkscape:transform-center-y="-8.2014002" />
    <path
       style="fill:#000000;fill-opacity:0.286713;stroke:none;stroke-width:0.0823542px;stroke-linecap:butt;stroke-linejoin:miter;stroke-opacity:1"
       d="m -59.62659,63.130805 c 11.950107,1.892506 24.674701,-0.197626 37.113902,-9.723639 14.1660647,-17.987645 -2.626368,11.765991 -42.987088,-0.649812 0.862448,4.170569 0.919394,6.930516 5.873186,10.373451 z"
       id="path129460"
       sodipodi:nodetypes="cccc"
       inkscape:transform-center-x="-17.548412"
       inkscape:transform-center-y="21.05136" />
    <path
       style="fill:#000000;fill-opacity:0.286713;stroke:none;stroke-width:0.0823542px;stroke-linecap:butt;stroke-linejoin:miter;stroke-opacity:1"
       d="m -62.499875,15.456087 c 3.92074,4.425329 11.677762,18.581123 32.775791,8.751037 16.133596,-11.576036 -16.488033,12.677824 -35.333428,-15.9965536 0.372056,2.9150016 0.393315,4.8447386 2.557637,7.2455166 z"
       id="path130367"
       sodipodi:nodetypes="cccc"
       inkscape:transform-center-x="-13.85949"
       inkscape:transform-center-y="-16.651674" />
    <path
       style="fill:#000000;fill-opacity:0.286713;stroke:none;stroke-width:0.0823542px;stroke-linecap:butt;stroke-linejoin:miter;stroke-opacity:1"
       d="m -47.300404,8.2607391 c 2.164898,2.8413599 6.138262,8.8063389 17.20324,3.9326449 7.072023,-3.8446064 -10.93276,4.749473 -18.235015,-8.853956 0.09518,2.1414453 -0.163304,3.3798665 1.031775,4.9213111 z"
       id="path130506"
       sodipodi:nodetypes="cccc"
       inkscape:transform-center-x="-20.670636"
       inkscape:transform-center-y="-25.869078" />
    <circle
       style="fill:#ffffff;fill-opacity:1;stroke:none;stroke-width:0.823542;stroke-linecap:round;stroke-linejoin:round;stroke-miterlimit:4;stroke-dasharray:none;stroke-opacity:1;paint-order:fill markers stroke"
       id="path135912"
       cx="98.030685"
       cy="3.4735773"
       r="3.7331371"
       inkscape:transform-center-x="-53.5176"
       inkscape:transform-center-y="63.45013"
       transform="rotate(90.29167)" />
    <circle
       style="fill:#000000;fill-opacity:1;stroke:none;stroke-width:0.823542;stroke-linecap:round;stroke-linejoin:round;stroke-miterlimit:4;stroke-dasharray:none;stroke-opacity:1;paint-order:fill markers stroke"
       id="path139101"
       cx="99.411919"
       cy="3.4678934"
       r="1.1313114"
       inkscape:transform-center-x="-53.516252"
       inkscape:transform-center-y="64.831375"
       transform="rotate(90.29167)" />
    <path
       id="path139273"
       style="fill:#b4a291;fill-opacity:1;stroke-width:0.823542;stroke-linecap:round;stroke-linejoin:round;paint-order:fill markers stroke"
       d="m -10.094573,89.49273 c -9.7342,1.61891 -19.677117,-0.2011 -25.074563,-0.555921 0.285878,-3.072249 0.449853,-1.007361 0.91826,-4.702106 5.246746,2.243441 15.217384,3.94351 24.064039,3.762296 -0.161366,-7.708183 10.08922639,-5.998407 10.34182126,0.425682 0.2796284,7.111612 -9.88804386,9.116376 -10.24955726,1.070049 z"
       sodipodi:nodetypes="ccccsc"
       inkscape:transform-center-x="-39.985923"
       inkscape:transform-center-y="54.228396" />
    <circle
       style="fill:#ffffff;fill-opacity:1;stroke:none;stroke-width:0.823542;stroke-linecap:round;stroke-linejoin:round;stroke-miterlimit:4;stroke-dasharray:none;stroke-opacity:1;paint-order:fill markers stroke"
       id="circle139275"
       cx="88.481339"
       cy="9.8201427"
       r="3.7331371"
       inkscape:transform-center-x="-52.360825"
       inkscape:transform-center-y="54.31509"
       transform="rotate(86.969964)" />
    <circle
       style="fill:#000000;fill-opacity:1;stroke:none;stroke-width:0.823542;stroke-linecap:round;stroke-linejoin:round;stroke-miterlimit:4;stroke-dasharray:none;stroke-opacity:1;paint-order:fill markers stroke"
       id="circle139277"
       cx="89.862579"
       cy="9.814455"
       r="1.1313114"
       inkscape:transform-center-x="-52.439516"
       inkscape:transform-center-y="55.694099"
       transform="rotate(86.969964)" />
  </g>
</svg>
