<?xml version="1.0" encoding="UTF-8" standalone="no"?>
<!-- Created with Inkscape (http://www.inkscape.org/) -->

<svg
   width="600"
   height="600"
   viewBox="0 0 158.75 158.75"
   version="1.1"
   id="svg113358"
   inkscape:version="1.1.1 (3bf5ae0d25, 2021-09-20)"
   sodipodi:docname="snail-hiding-4.svg"
   xmlns:inkscape="http://www.inkscape.org/namespaces/inkscape"
   xmlns:sodipodi="http://sodipodi.sourceforge.net/DTD/sodipodi-0.dtd"
   xmlns="http://www.w3.org/2000/svg"
   xmlns:svg="http://www.w3.org/2000/svg">
  <sodipodi:namedview
     id="namedview113360"
     pagecolor="#505050"
     bordercolor="#ffffff"
     borderopacity="1"
     inkscape:pageshadow="0"
     inkscape:pageopacity="0"
     inkscape:pagecheckerboard="1"
     inkscape:document-units="mm"
     showgrid="false"
     inkscape:zoom="0.76435185"
     inkscape:cx="55.602665"
     inkscape:cy="119.70927"
     inkscape:window-width="1920"
     inkscape:window-height="1017"
     inkscape:window-x="1272"
     inkscape:window-y="-8"
     inkscape:window-maximized="1"
     inkscape:current-layer="layer1"
     inkscape:snap-global="false"
     fit-margin-top="0"
     fit-margin-left="0"
     fit-margin-right="0"
     fit-margin-bottom="0"
     units="px" />
  <defs
     id="defs113355" />
  <g
     inkscape:label="Layer 1"
     inkscape:groupmode="layer"
     id="layer1"
     transform="translate(134.62225,48.921463)">
    <path
       id="path136421"
       style="fill:#665545;fill-opacity:1;stroke-width:0.823542;stroke-linecap:round;stroke-linejoin:round;paint-order:fill markers stroke"
       d="m -36.999847,55.130234 c -3.382509,-9.270069 -9.86117,-17.028997 -12.826931,-21.552555 -2.533523,1.761168 -0.65542,0.887453 -3.640944,3.113926 4.535536,3.462701 10.92344,11.304802 15.120494,19.094597 -6.789037,3.653915 -0.254876,11.734921 5.461326,8.792518 6.327987,-3.257321 3.06796,-13.094634 -4.113945,-9.448486 z"
       sodipodi:nodetypes="ccccsc"
       inkscape:transform-center-x="-15.641532"
       inkscape:transform-center-y="13.545208" />
    <path
       id="path139271"
       style="fill:#665545;fill-opacity:1;stroke-width:0.823542;stroke-linecap:round;stroke-linejoin:round;paint-order:fill markers stroke"
       d="m -48.822108,58.861437 c -1.33219,-9.777565 -6.011205,-18.737522 -7.946341,-23.78862 -2.850292,1.181647 -0.829274,0.727637 -4.220233,2.267747 3.694714,4.348615 8.267358,13.370522 10.710463,21.875072 -7.411129,2.125391 -2.746426,11.411859 3.465023,9.753362 6.876217,-1.835992 5.784431,-12.14175 -2.008909,-10.107557 z"
       sodipodi:nodetypes="ccccsc"
       inkscape:transform-center-x="-5.5097071"
       inkscape:transform-center-y="16.270435" />
    <path
       id="path133769"
       style="fill:#b4a291;fill-opacity:1;stroke-width:0.823542;stroke-linecap:round;stroke-linejoin:round;paint-order:fill markers stroke"
       d="m -37.684125,56.662191 c -3.382501,-9.27007 -9.861166,-17.028997 -12.826927,-21.552556 -2.533526,1.761166 -0.655422,0.887453 -3.640946,3.113928 4.535534,3.462701 10.923441,11.3048 15.120492,19.094595 -6.789035,3.653914 -0.254873,11.734922 5.461327,8.792517 6.327975,-3.257315 3.06797,-13.09464 -4.113946,-9.448484 z"
       sodipodi:nodetypes="ccccsc"
       inkscape:transform-center-x="-14.957252"
       inkscape:transform-center-y="15.077164" />
    <circle
       style="fill:#ffffff;fill-opacity:1;stroke:none;stroke-width:0.823542;stroke-linecap:round;stroke-linejoin:round;stroke-miterlimit:4;stroke-dasharray:none;stroke-opacity:1;paint-order:fill markers stroke"
       id="path135912"
       cx="-59.33564"
       cy="-38.927738"
       r="3.7331371"
       inkscape:transform-center-x="-21.355516"
       inkscape:transform-center-y="25.438369"
       transform="matrix(0.89525553,-0.44555306,-0.44555306,-0.89525553,0,0)" />
    <circle
       style="fill:#000000;fill-opacity:1;stroke:none;stroke-width:0.823542;stroke-linecap:round;stroke-linejoin:round;stroke-miterlimit:4;stroke-dasharray:none;stroke-opacity:1;paint-order:fill markers stroke"
       id="path139101"
       cx="-57.954407"
       cy="-38.933422"
       r="1.1313114"
       inkscape:transform-center-x="-22.594606"
       inkscape:transform-center-y="24.828044"
       transform="matrix(0.89525553,-0.44555306,-0.44555306,-0.89525553,0,0)" />
    <path
       id="path139273"
       style="fill:#b4a291;fill-opacity:1;stroke-width:0.823542;stroke-linecap:round;stroke-linejoin:round;paint-order:fill markers stroke"
       d="m -49.816732,60.212673 c -1.332193,-9.777564 -6.011211,-18.73752 -7.946344,-23.788617 -2.850292,1.181645 -0.829273,0.727635 -4.220236,2.267738 3.694714,4.348615 8.267354,13.370523 10.710464,21.875073 -7.41113,2.12539 -2.746426,11.411861 3.465023,9.753363 6.876217,-1.835993 5.78443,-12.141752 -2.008908,-10.107559 z"
       sodipodi:nodetypes="ccccsc"
       inkscape:transform-center-x="-4.5150771"
       inkscape:transform-center-y="17.62167" />
    <circle
       style="fill:#ffffff;fill-opacity:1;stroke:none;stroke-width:0.823542;stroke-linecap:round;stroke-linejoin:round;stroke-miterlimit:4;stroke-dasharray:none;stroke-opacity:1;paint-order:fill markers stroke"
       id="circle139275"
       cx="-63.39473"
       cy="-51.174984"
       r="3.7331371"
       inkscape:transform-center-x="-8.1948902"
       inkscape:transform-center-y="29.288917"
       transform="matrix(0.96956832,-0.24482089,-0.24482089,-0.96956832,0,0)" />
    <circle
       style="fill:#000000;fill-opacity:1;stroke:none;stroke-width:0.823542;stroke-linecap:round;stroke-linejoin:round;stroke-miterlimit:4;stroke-dasharray:none;stroke-opacity:1;paint-order:fill markers stroke"
       id="circle139277"
       cx="-62.013493"
       cy="-51.180676"
       r="1.1313114"
       inkscape:transform-center-x="-9.5354871"
       inkscape:transform-center-y="28.956281"
       transform="matrix(0.96956832,-0.24482089,-0.24482089,-0.96956832,0,0)" />
    <path
       id="path119992"
       style="fill:#41312b;fill-opacity:1;fill-rule:evenodd;stroke:none;stroke-width:0.930603;stroke-linecap:round;stroke-linejoin:round;stroke-miterlimit:4;stroke-dasharray:none;stroke-opacity:1"
       d="m -66.67721,7.7310383 c -0.105765,-7.61022808 6.565916,-22.5267723 28.201341,-17.4822956 17.352059,4.045777 26.75004,22.5822823 25.1962,39.9296023 -0.712971,7.959719 -6.793189,35.476886 -46.120775,33.177122 -11.921179,-0.69712 -13.926955,-42.398486 2.28301,-39.634364 -2.094953,-2.554154 -9.263914,-7.00599 -9.559776,-15.9900647 z"
       sodipodi:nodetypes="cssscc"
       inkscape:transform-center-x="-19.704362"
       inkscape:transform-center-y="-8.2013993" />
    <ellipse
       style="fill:#ffffff;fill-opacity:0.286713;stroke:none;stroke-width:0.824684;stroke-linecap:round;stroke-linejoin:round;stroke-miterlimit:4;stroke-dasharray:none;stroke-opacity:1;paint-order:fill markers stroke"
       id="path129144"
       cx="-11.521585"
       cy="20.161364"
       rx="11.864745"
       ry="2.5737066"
       transform="matrix(0.64463065,0.76449416,-0.81036803,0.5859212,0,0)"
       inkscape:transform-center-x="-36.899873"
       inkscape:transform-center-y="-31.55682" />
    <ellipse
       style="fill:#ffffff;fill-opacity:0.286713;stroke:none;stroke-width:0.862381;stroke-linecap:round;stroke-linejoin:round;stroke-miterlimit:4;stroke-dasharray:none;stroke-opacity:1;paint-order:fill markers stroke"
       id="ellipse129406"
       cx="0.71079636"
       cy="32.062244"
       rx="1.8660591"
       ry="0.76170731"
       transform="matrix(0.48463066,0.87471888,-0.99654351,0.08307244,0,0)"
       inkscape:transform-center-x="-29.058225"
       inkscape:transform-center-y="-31.276375" />
    <ellipse
       style="fill:#ffffff;fill-opacity:0.286713;stroke:none;stroke-width:0.834255;stroke-linecap:round;stroke-linejoin:round;stroke-miterlimit:4;stroke-dasharray:none;stroke-opacity:1;paint-order:fill markers stroke"
       id="ellipse129404"
       cx="-9.2438335"
       cy="26.807489"
       rx="2.4851127"
       ry="0.73063755"
       transform="matrix(0.55423992,0.83235696,-0.93552914,0.35324953,0,0)"
       inkscape:transform-center-x="-30.462666"
       inkscape:transform-center-y="-32.786043" />
    <ellipse
       style="fill:#2e231f;fill-opacity:1;stroke:none;stroke-width:0.921399;stroke-linecap:round;stroke-linejoin:round;stroke-miterlimit:4;stroke-dasharray:none;stroke-opacity:1;paint-order:fill markers stroke"
       id="ellipse131671"
       cx="6.0731816"
       cy="39.24992"
       rx="2.9467916"
       ry="1.5880053"
       transform="matrix(0.64320863,0.76569097,-0.99857983,0.05327596,0,0)"
       inkscape:transform-center-x="-25.377293"
       inkscape:transform-center-y="-27.820349" />
    <ellipse
       style="fill:#2e231f;fill-opacity:1;stroke:none;stroke-width:0.862381;stroke-linecap:round;stroke-linejoin:round;stroke-miterlimit:4;stroke-dasharray:none;stroke-opacity:1;paint-order:fill markers stroke"
       id="ellipse130911"
       cx="1.8699608"
       cy="34.037525"
       rx="1.8660591"
       ry="0.76170731"
       transform="matrix(0.48463066,0.87471888,-0.99654351,0.08307244,0,0)"
       inkscape:transform-center-x="-27.651538"
       inkscape:transform-center-y="-30.09834" />
    <path
       id="path113442"
       style="fill:none;fill-opacity:1;fill-rule:evenodd;stroke:#000000;stroke-width:0.823542;stroke-linecap:round;stroke-linejoin:round;stroke-miterlimit:4;stroke-dasharray:none;stroke-opacity:1"
       d="m -34.399,3.9438922 c 0,0 -0.787824,-3.34143277 2.588507,-2.1935314 2.631367,0.8946248 2.165335,6.5909303 -1.82268,7.0822423 -1.359398,0.167475 -4.502405,-0.5942556 -4.401182,-5.5256192 0.07329,-3.57009026 3.654711,-4.6109021 6.422019,-3.70873726 4.000527,1.30420489 4.368163,7.21754206 3.061532,9.40525286 -3.01343,5.0454315 -8.082774,5.3058645 -10.125158,5.1529565 -3.348253,-0.250677 -11.228996,-1.997488 -11.48777,-10.9339628 -0.324886,-11.2193703 14.648905,-8.0067213 18.94551,-6.2548853 6.197451,2.52685837 7.993438,9.4377305 7.638787,15.1885591 -0.667654,10.826363 -12.696859,15.88376 -21.127391,15.568776 -11.323458,-0.423074 -21.851558,-11.443584 -21.970387,-19.9939037 -0.105762,-7.61023008 6.565919,-22.5267733 28.201344,-17.4822946 17.352059,4.045776 26.75004,22.5822793 25.1962,39.9296003 -0.712971,7.959719 -6.793188,35.476883 -46.120775,33.177119 -11.921179,-0.697117 -13.838977,-41.891447 2.28301,-39.634361"
       sodipodi:nodetypes="cssssssssssssssc"
       inkscape:transform-center-x="-19.720764"
       inkscape:transform-center-y="-8.2014002" />
    <path
       style="fill:#000000;fill-opacity:0.286713;stroke:none;stroke-width:0.0823542px;stroke-linecap:butt;stroke-linejoin:miter;stroke-opacity:1"
       d="m -61.214091,63.130805 c 11.950107,1.892506 24.674701,-0.197626 37.113902,-9.723639 14.1660656,-17.987645 -2.626368,11.765991 -42.987088,-0.649812 0.862448,4.170569 0.919394,6.930516 5.873186,10.373451 z"
       id="path129460"
       sodipodi:nodetypes="cccc"
       inkscape:transform-center-x="-17.548412"
       inkscape:transform-center-y="21.05136" />
    <path
       style="fill:#000000;fill-opacity:0.286713;stroke:none;stroke-width:0.0823542px;stroke-linecap:butt;stroke-linejoin:miter;stroke-opacity:1"
       d="m -64.087376,15.456087 c 3.92074,4.425329 11.677762,18.581123 32.775791,8.751037 16.133596,-11.576036 -16.488033,12.677824 -35.333428,-15.9965536 0.372056,2.9150016 0.393315,4.8447386 2.557637,7.2455166 z"
       id="path130367"
       sodipodi:nodetypes="cccc"
       inkscape:transform-center-x="-13.85949"
       inkscape:transform-center-y="-16.651674" />
    <path
       style="fill:#000000;fill-opacity:0.286713;stroke:none;stroke-width:0.0823542px;stroke-linecap:butt;stroke-linejoin:miter;stroke-opacity:1"
       d="m -48.887905,8.2607391 c 2.164898,2.8413599 6.138262,8.8063389 17.20324,3.9326449 7.072023,-3.8446064 -10.93276,4.749473 -18.235015,-8.853956 0.09518,2.1414453 -0.163304,3.3798665 1.031775,4.9213111 z"
       id="path130506"
       sodipodi:nodetypes="cccc"
       inkscape:transform-center-x="-20.670636"
       inkscape:transform-center-y="-25.869078" />
  </g>
</svg>
