<?xml version="1.0" encoding="UTF-8" standalone="no"?>
<!-- Created with Inkscape (http://www.inkscape.org/) -->

<svg
   width="600"
   height="600"
   viewBox="0 0 158.75 158.75"
   version="1.1"
   id="svg113358"
   inkscape:version="1.1.1 (3bf5ae0d25, 2021-09-20)"
   sodipodi:docname="snail-standing-3.svg"
   xmlns:inkscape="http://www.inkscape.org/namespaces/inkscape"
   xmlns:sodipodi="http://sodipodi.sourceforge.net/DTD/sodipodi-0.dtd"
   xmlns="http://www.w3.org/2000/svg"
   xmlns:svg="http://www.w3.org/2000/svg">
  <sodipodi:namedview
     id="namedview113360"
     pagecolor="#505050"
     bordercolor="#ffffff"
     borderopacity="1"
     inkscape:pageshadow="0"
     inkscape:pageopacity="0"
     inkscape:pagecheckerboard="1"
     inkscape:document-units="mm"
     showgrid="false"
     inkscape:zoom="0.76435188"
     inkscape:cx="67.377344"
     inkscape:cy="308.10417"
     inkscape:window-width="1920"
     inkscape:window-height="1017"
     inkscape:window-x="1272"
     inkscape:window-y="-8"
     inkscape:window-maximized="1"
     inkscape:current-layer="layer1"
     inkscape:snap-global="false"
     fit-margin-top="0"
     fit-margin-left="0"
     fit-margin-right="0"
     fit-margin-bottom="0"
     units="px" />
  <defs
     id="defs113355" />
  <g
     inkscape:label="Layer 1"
     inkscape:groupmode="layer"
     id="layer1"
     transform="translate(134.62225,48.921463)">
    <path
       id="path136421"
       style="fill:#665545;fill-opacity:1;stroke-width:0.823542;stroke-linecap:round;stroke-linejoin:round;paint-order:fill markers stroke"
       d="m -4.8848663,92.011703 c -9.8303527,0.860073 -19.6024277,-1.724601 -24.9561777,-2.496418 0.522983,-3.040878 0.526527,-0.969492 1.279706,-4.616856 5.057217,2.643092 14.866222,5.110335 23.7003367,5.614887 0.43616,-7.697524 10.5235259,-5.198919 10.2777818,1.225435 -0.272048,7.111925 -10.564454,8.323109 -10.3016468,0.272952 z"
       sodipodi:nodetypes="ccccsc"
       inkscape:transform-center-x="-16.152882"
       inkscape:transform-center-y="5.028906" />
    <path
       id="path139271"
       style="fill:#665545;fill-opacity:1;stroke-width:0.823542;stroke-linecap:round;stroke-linejoin:round;paint-order:fill markers stroke"
       d="m -5.4932396,76.930262 c -8.9432984,4.170485 -19.0100464,5.084042 -24.3048904,6.189918 -0.548633,-3.036356 0.163176,-1.091112 -0.37658,-4.776109 5.656227,0.753961 15.717514,-0.282571 24.1914056,-2.829985 -2.2229327,-7.38246 8.1106524,-8.484732 10.0770518,-2.363785 2.1768488,6.776026 -7.0805446,11.434492 -9.586987,3.779961 z"
       sodipodi:nodetypes="ccccsc"
       inkscape:transform-center-x="-14.140408"
       inkscape:transform-center-y="-2.4671039" />
    <path
       id="path133769"
       style="fill:#b4a291;fill-opacity:1;stroke-width:0.823542;stroke-linecap:round;stroke-linejoin:round;paint-order:fill markers stroke"
       d="m -3.7866591,90.74321 c -9.8303499,0.860084 -19.6024259,-1.724596 -24.9561759,-2.496412 0.522981,-3.040878 0.526527,-0.969493 1.279706,-4.616858 5.057215,2.64309 14.866222,5.110335 23.7003365,5.614889 0.4361598,-7.697525 10.5235269,-5.19892 10.2777812,1.225436 C 6.2429386,97.58217 -4.0494648,98.79338 -3.7866591,90.74321 Z"
       sodipodi:nodetypes="ccccsc"
       inkscape:transform-center-x="-17.251091"
       inkscape:transform-center-y="3.7604155" />
    <path
       style="fill:#665545;fill-opacity:1;stroke:none;stroke-width:1.16119;stroke-linecap:round;stroke-linejoin:round;stroke-miterlimit:4;stroke-dasharray:none;stroke-opacity:1"
       d="m -58.669161,-3.9954306 c 1.646109,-14.5685644 -6.029594,-11.2963944 -2.352351,-27.0183774 -7.169372,4.645657 -6.60196,10.842453 -9.287613,19.900861 -0.206696,26.820739 -10.063177,20.1311843 -4.792586,67.526164 5.547265,49.882923 28.199781,22.896227 29.365931,30.374493 2.042703,13.099421 3.842827,9.883749 6.028034,10.387669 3.535104,-1.89896 11.285565,18.789511 11.597247,-0.21703 0.326143,-19.888332 17.910497,-17.216758 -0.473443,-25.750105 -18.383956,-8.533337 -42.742156,0.691189 -26.238682,-31.3632 3.082318,-19.722659 -7.111579,-14.94386 -3.846537,-43.8404746 z"
       id="path132432"
       sodipodi:nodetypes="sccsscsscs"
       inkscape:transform-center-x="-5.529168"
       inkscape:transform-center-y="-4.1221656" />
    <path
       style="fill:#b4a291;fill-opacity:1;stroke:none;stroke-width:1.16119;stroke-linecap:round;stroke-linejoin:round;stroke-miterlimit:4;stroke-dasharray:none;stroke-opacity:1"
       d="m -57.414939,-4.1229455 c 1.320983,-20.7647245 -7.442589,-13.5103275 -2.393066,-28.0815645 -7.718076,7.470876 -7.065384,9.282642 -8.271708,25.9370336 0.320595,26.8196124 -9.668826,15.4500143 -4.577072,62.8645384 5.091752,47.414528 28.173267,17.743351 30.174977,28.096605 2.516656,13.016672 3.79423,7.977974 5.988923,8.438837 3.49709,-1.968077 7.411711,22.824786 10.060508,-1.931245 1.589151,-14.852437 19.3409644,-14.250923 0.792826,-22.42122 -18.548156,-8.170294 -42.937916,3.226031 -27.067766,-29.1466 2.694012,-19.779439 -6.553894,-14.734564 -4.707622,-43.7563845 z"
       id="path121599"
       sodipodi:nodetypes="sccsscsscs"
       inkscape:transform-center-x="-8.1615268"
       inkscape:transform-center-y="-4.6000374" />
    <path
       id="path119992"
       style="fill:#41312b;fill-opacity:1;fill-rule:evenodd;stroke:none;stroke-width:0.930603;stroke-linecap:round;stroke-linejoin:round;stroke-miterlimit:4;stroke-dasharray:none;stroke-opacity:1"
       d="m -62.443874,7.7310383 c -0.105765,-7.61022808 6.565916,-22.5267723 28.201341,-17.4822956 17.352059,4.045777 26.7500385,22.5822823 25.1961994,39.9296023 -0.7129707,7.959719 -6.7931884,35.476886 -46.1207744,33.177122 -11.921179,-0.69712 -13.926955,-42.398486 2.28301,-39.634364 -2.094953,-2.554154 -9.263914,-7.00599 -9.559776,-15.9900647 z"
       sodipodi:nodetypes="cssscc"
       inkscape:transform-center-x="-19.704362"
       inkscape:transform-center-y="-8.2013993" />
    <ellipse
       style="fill:#ffffff;fill-opacity:0.286713;stroke:none;stroke-width:0.824684;stroke-linecap:round;stroke-linejoin:round;stroke-miterlimit:4;stroke-dasharray:none;stroke-opacity:1;paint-order:fill markers stroke"
       id="path129144"
       cx="-9.0342798"
       cy="16.916002"
       rx="11.864745"
       ry="2.5737066"
       transform="matrix(0.64463065,0.76449416,-0.81036803,0.5859212,0,0)"
       inkscape:transform-center-x="-36.899873"
       inkscape:transform-center-y="-31.55682" />
    <ellipse
       style="fill:#ffffff;fill-opacity:0.286713;stroke:none;stroke-width:0.862381;stroke-linecap:round;stroke-linejoin:round;stroke-miterlimit:4;stroke-dasharray:none;stroke-opacity:1;paint-order:fill markers stroke"
       id="ellipse129406"
       cx="1.0964222"
       cy="28.00176"
       rx="1.8660591"
       ry="0.76170731"
       transform="matrix(0.48463066,0.87471888,-0.99654351,0.08307244,0,0)"
       inkscape:transform-center-x="-29.058225"
       inkscape:transform-center-y="-31.276375" />
    <ellipse
       style="fill:#ffffff;fill-opacity:0.286713;stroke:none;stroke-width:0.834255;stroke-linecap:round;stroke-linejoin:round;stroke-miterlimit:4;stroke-dasharray:none;stroke-opacity:1;paint-order:fill markers stroke"
       id="ellipse129404"
       cx="-7.7092485"
       cy="23.191568"
       rx="2.4851127"
       ry="0.73063755"
       transform="matrix(0.55423992,0.83235696,-0.93552914,0.35324953,0,0)"
       inkscape:transform-center-x="-30.462666"
       inkscape:transform-center-y="-32.786043" />
    <ellipse
       style="fill:#2e231f;fill-opacity:1;stroke:none;stroke-width:0.921399;stroke-linecap:round;stroke-linejoin:round;stroke-miterlimit:4;stroke-dasharray:none;stroke-opacity:1;paint-order:fill markers stroke"
       id="ellipse131671"
       cx="6.3554997"
       cy="35.192425"
       rx="2.9467916"
       ry="1.5880053"
       transform="matrix(0.64320863,0.76569097,-0.99857983,0.05327596,0,0)"
       inkscape:transform-center-x="-25.377293"
       inkscape:transform-center-y="-27.820349" />
    <ellipse
       style="fill:#2e231f;fill-opacity:1;stroke:none;stroke-width:0.862381;stroke-linecap:round;stroke-linejoin:round;stroke-miterlimit:4;stroke-dasharray:none;stroke-opacity:1;paint-order:fill markers stroke"
       id="ellipse130911"
       cx="2.2555866"
       cy="29.977039"
       rx="1.8660591"
       ry="0.76170731"
       transform="matrix(0.48463066,0.87471888,-0.99654351,0.08307244,0,0)"
       inkscape:transform-center-x="-27.651538"
       inkscape:transform-center-y="-30.09834" />
    <path
       id="path113442"
       style="fill:none;fill-opacity:1;fill-rule:evenodd;stroke:#000000;stroke-width:0.823542;stroke-linecap:round;stroke-linejoin:round;stroke-miterlimit:4;stroke-dasharray:none;stroke-opacity:1"
       d="m -30.165664,3.9438922 c 0,0 -0.787824,-3.34143277 2.588507,-2.1935314 2.631367,0.8946248 2.165335,6.5909303 -1.82268,7.0822423 -1.359398,0.167475 -4.502405,-0.5942556 -4.401182,-5.5256192 0.07329,-3.57009026 3.654711,-4.6109021 6.422019,-3.70873726 4.000527,1.30420489 4.368163,7.21754206 3.061532,9.40525286 -3.01343,5.0454315 -8.082774,5.3058645 -10.125158,5.1529565 -3.348253,-0.250677 -11.228996,-1.997488 -11.48777,-10.9339628 -0.324886,-11.2193703 14.648905,-8.0067213 18.94551,-6.2548853 6.197451,2.52685837 7.993438,9.4377305 7.638787,15.1885591 -0.667654,10.826363 -12.696859,15.88376 -21.127391,15.568776 -11.323458,-0.423074 -21.851558,-11.443584 -21.970387,-19.9939037 -0.105762,-7.61023008 6.565919,-22.5267733 28.201344,-17.4822946 17.352059,4.045776 26.7500385,22.5822793 25.1961994,39.9296003 -0.7129707,7.959719 -6.7931874,35.476883 -46.1207744,33.177119 -11.921179,-0.697117 -13.838977,-41.891447 2.28301,-39.634361"
       sodipodi:nodetypes="cssssssssssssssc"
       inkscape:transform-center-x="-19.720764"
       inkscape:transform-center-y="-8.2014002" />
    <path
       style="fill:#000000;fill-opacity:0.286713;stroke:none;stroke-width:0.0823542px;stroke-linecap:butt;stroke-linejoin:miter;stroke-opacity:1"
       d="m -56.980755,63.130805 c 11.950107,1.892506 24.674701,-0.197626 37.113902,-9.723639 14.1660632,-17.987645 -2.626368,11.765991 -42.987088,-0.649812 0.862448,4.170569 0.919394,6.930516 5.873186,10.373451 z"
       id="path129460"
       sodipodi:nodetypes="cccc"
       inkscape:transform-center-x="-17.548412"
       inkscape:transform-center-y="21.05136" />
    <path
       style="fill:#000000;fill-opacity:0.286713;stroke:none;stroke-width:0.0823542px;stroke-linecap:butt;stroke-linejoin:miter;stroke-opacity:1"
       d="m -59.85404,15.456087 c 3.92074,4.425329 11.677762,18.581123 32.775791,8.751037 16.133596,-11.576036 -16.488033,12.677824 -35.333428,-15.9965536 0.372056,2.9150016 0.393315,4.8447386 2.557637,7.2455166 z"
       id="path130367"
       sodipodi:nodetypes="cccc"
       inkscape:transform-center-x="-13.85949"
       inkscape:transform-center-y="-16.651674" />
    <path
       style="fill:#000000;fill-opacity:0.286713;stroke:none;stroke-width:0.0823542px;stroke-linecap:butt;stroke-linejoin:miter;stroke-opacity:1"
       d="m -44.654569,8.2607391 c 2.164898,2.8413599 6.138262,8.8063389 17.20324,3.9326449 7.072023,-3.8446064 -10.93276,4.749473 -18.235015,-8.853956 0.09518,2.1414453 -0.163304,3.3798665 1.031775,4.9213111 z"
       id="path130506"
       sodipodi:nodetypes="cccc"
       inkscape:transform-center-x="-20.670636"
       inkscape:transform-center-y="-25.869078" />
    <circle
       style="fill:#ffffff;fill-opacity:1;stroke:none;stroke-width:0.823542;stroke-linecap:round;stroke-linejoin:round;stroke-miterlimit:4;stroke-dasharray:none;stroke-opacity:1;paint-order:fill markers stroke"
       id="path135912"
       cx="90.456276"
       cy="-3.4418747"
       r="3.7331371"
       inkscape:transform-center-x="-29.574188"
       inkscape:transform-center-y="4.3060295"
       transform="rotate(91.412294)" />
    <circle
       style="fill:#000000;fill-opacity:1;stroke:none;stroke-width:0.823542;stroke-linecap:round;stroke-linejoin:round;stroke-miterlimit:4;stroke-dasharray:none;stroke-opacity:1;paint-order:fill markers stroke"
       id="path139101"
       cx="88.89183"
       cy="-3.548063"
       r="1.1313114"
       inkscape:transform-center-x="-29.545825"
       inkscape:transform-center-y="5.6869832"
       transform="rotate(91.412294)" />
    <path
       id="path139273"
       style="fill:#b4a291;fill-opacity:1;stroke-width:0.823542;stroke-linecap:round;stroke-linejoin:round;paint-order:fill markers stroke"
       d="m -4.8951259,75.362659 c -8.9432981,4.170484 -19.0100481,5.084038 -24.3048911,6.189913 -0.548632,-3.036353 0.163177,-1.091107 -0.376579,-4.776106 5.656227,0.753962 15.717512,-0.282573 24.191404,-2.829985 -2.2229313,-7.382458 8.1106534,-8.484731 10.0770529,-2.363784 2.176849,6.776028 -7.0805453,11.434492 -9.5869868,3.779962 z"
       sodipodi:nodetypes="ccccsc"
       inkscape:transform-center-x="-14.738522"
       inkscape:transform-center-y="-4.0347097" />
    <circle
       style="fill:#ffffff;fill-opacity:1;stroke:none;stroke-width:0.823542;stroke-linecap:round;stroke-linejoin:round;stroke-miterlimit:4;stroke-dasharray:none;stroke-opacity:1;paint-order:fill markers stroke"
       id="circle139275"
       cx="69.518158"
       cy="23.671978"
       r="3.7331371"
       inkscape:transform-center-x="-26.739531"
       inkscape:transform-center-y="-5.1823656"
       transform="rotate(71.411673)" />
    <circle
       style="fill:#000000;fill-opacity:1;stroke:none;stroke-width:0.823542;stroke-linecap:round;stroke-linejoin:round;stroke-miterlimit:4;stroke-dasharray:none;stroke-opacity:1;paint-order:fill markers stroke"
       id="circle139277"
       cx="68.11058"
       cy="22.72838"
       r="1.1313114"
       inkscape:transform-center-x="-27.185215"
       inkscape:transform-center-y="-3.8749925"
       transform="rotate(71.411673)" />
  </g>
</svg>
