<?xml version="1.0" encoding="UTF-8" standalone="no"?>
<!-- Created with Inkscape (http://www.inkscape.org/) -->

<svg
   width="600"
   height="600"
   viewBox="0 0 158.75 158.75"
   version="1.1"
   id="svg113358"
   inkscape:version="1.1.1 (3bf5ae0d25, 2021-09-20)"
   sodipodi:docname="snail-hiding-3.svg"
   xmlns:inkscape="http://www.inkscape.org/namespaces/inkscape"
   xmlns:sodipodi="http://sodipodi.sourceforge.net/DTD/sodipodi-0.dtd"
   xmlns="http://www.w3.org/2000/svg"
   xmlns:svg="http://www.w3.org/2000/svg">
  <sodipodi:namedview
     id="namedview113360"
     pagecolor="#505050"
     bordercolor="#ffffff"
     borderopacity="1"
     inkscape:pageshadow="0"
     inkscape:pageopacity="0"
     inkscape:pagecheckerboard="1"
     inkscape:document-units="mm"
     showgrid="false"
     inkscape:zoom="0.76435185"
     inkscape:cx="50.369473"
     inkscape:cy="175.96608"
     inkscape:window-width="1920"
     inkscape:window-height="1017"
     inkscape:window-x="1272"
     inkscape:window-y="-8"
     inkscape:window-maximized="1"
     inkscape:current-layer="layer1"
     inkscape:snap-global="false"
     fit-margin-top="0"
     fit-margin-left="0"
     fit-margin-right="0"
     fit-margin-bottom="0"
     units="px" />
  <defs
     id="defs113355" />
  <g
     inkscape:label="Layer 1"
     inkscape:groupmode="layer"
     id="layer1"
     transform="translate(134.62225,48.921463)">
    <path
       id="path136421"
       style="fill:#665545;fill-opacity:1;stroke-width:0.823542;stroke-linecap:round;stroke-linejoin:round;paint-order:fill markers stroke"
       d="m -43.50618,73.786662 c -7.925447,-5.879018 -13.52168,-14.29663 -17.015093,-18.426325 2.408923,-1.928094 1.037197,-0.375992 4.020751,-2.605105 2.029954,5.332979 7.731733,13.687234 14.006386,19.926216 5.433677,-5.469668 11.322909,3.092746 6.876452,7.736205 -4.922347,5.140433 -13.42645,-0.782468 -7.888496,-6.630991 z"
       sodipodi:nodetypes="ccccsc"
       inkscape:transform-center-x="-8.9797135"
       inkscape:transform-center-y="18.565245" />
    <path
       id="path139271"
       style="fill:#665545;fill-opacity:1;stroke-width:0.823542;stroke-linecap:round;stroke-linejoin:round;paint-order:fill markers stroke"
       d="m -36.56709,63.513553 c -8.995046,-4.057668 -16.254492,-11.091475 -20.546748,-14.383113 1.943408,-2.396586 0.933421,-0.588113 3.374237,-3.401112 3.1184,4.778802 10.467488,11.728248 17.926162,16.488953 4.145168,-6.500747 11.721714,0.612191 8.365321,6.095559 -3.715603,6.070216 -13.285399,2.092824 -9.118972,-4.800287 z"
       sodipodi:nodetypes="ccccsc"
       inkscape:transform-center-x="-14.402703"
       inkscape:transform-center-y="9.5125548" />
    <path
       id="path133769"
       style="fill:#b4a291;fill-opacity:1;stroke-width:0.823542;stroke-linecap:round;stroke-linejoin:round;paint-order:fill markers stroke"
       d="m -41.842882,73.566282 c -7.92545,-5.87901 -13.52168,-14.296625 -17.015094,-18.426321 2.40892,-1.928096 1.037197,-0.375994 4.020753,-2.605106 2.029953,5.332977 7.731731,13.687234 14.006384,19.926215 5.433678,-5.469666 11.32291,3.092748 6.876451,7.736205 -4.922337,5.140424 -13.426458,-0.782461 -7.888494,-6.630993 z"
       sodipodi:nodetypes="ccccsc"
       inkscape:transform-center-x="-10.643011"
       inkscape:transform-center-y="18.344865" />
    <circle
       style="fill:#ffffff;fill-opacity:1;stroke:none;stroke-width:0.823542;stroke-linecap:round;stroke-linejoin:round;stroke-miterlimit:4;stroke-dasharray:none;stroke-opacity:1;paint-order:fill markers stroke"
       id="path135912"
       cx="81.993828"
       cy="-24.53244"
       r="3.7331371"
       inkscape:transform-center-x="-18.315172"
       inkscape:transform-center-y="27.707819"
       transform="rotate(132.98012)" />
    <path
       style="fill:#665545;fill-opacity:1;stroke:none;stroke-width:1.16119;stroke-linecap:round;stroke-linejoin:round;stroke-miterlimit:4;stroke-dasharray:none;stroke-opacity:1"
       d="m -63.639204,22.542617 c -5.285627,8.279583 -9.320385,-0.248165 -6.567153,28.791669 0.351571,3.708209 -1.036921,3.11258 2.074329,5.836528 3.361274,2.942848 3.230908,13.432881 5.416115,13.936801 3.535104,-1.89896 10.061726,16.953752 10.373408,-2.052788 0.326143,-19.888332 1.518478,-9.631436 3.442841,-13.634102 3.147583,-6.546958 2.907026,-2.980327 -2.863363,-11.169862 12.197961,-20.30385 -13.956724,-29.039889 -11.876177,-21.708246 z"
       id="path132432"
       sodipodi:nodetypes="csscsscc"
       inkscape:transform-center-x="-5.529168"
       inkscape:transform-center-y="-4.1221656" />
    <circle
       style="fill:#000000;fill-opacity:1;stroke:none;stroke-width:0.823542;stroke-linecap:round;stroke-linejoin:round;stroke-miterlimit:4;stroke-dasharray:none;stroke-opacity:1;paint-order:fill markers stroke"
       id="path139101"
       cx="83.375061"
       cy="-24.538122"
       r="1.1313114"
       inkscape:transform-center-x="-17.37768"
       inkscape:transform-center-y="28.72219"
       transform="rotate(132.98012)" />
    <path
       style="fill:#b4a291;fill-opacity:1;stroke:none;stroke-width:1.16119;stroke-linecap:round;stroke-linejoin:round;stroke-miterlimit:4;stroke-dasharray:none;stroke-opacity:1"
       d="m -49.337604,16.070392 c -0.08324,7.712252 -13.334269,3.406204 -12.990068,6.238764 -1.331587,6.932235 -10.859862,0.753276 -5.984486,31.105925 0.539875,3.361102 0.416979,1.188633 2.944567,5.577975 2.907096,5.048381 1.346552,10.792803 3.541245,11.253666 3.49709,-1.968077 8.146014,10.219243 9.81574,0.0269 2.414849,-14.740719 14.812761,-16.209065 0.792826,-22.42122 -16.591199,-17.056318 5.570824,-22.426 1.880176,-31.78201 z"
       id="path121599"
       sodipodi:nodetypes="ccsscscc"
       inkscape:transform-center-x="-8.1615268"
       inkscape:transform-center-y="-4.6000374" />
    <path
       id="path139273"
       style="fill:#b4a291;fill-opacity:1;stroke-width:0.823542;stroke-linecap:round;stroke-linejoin:round;paint-order:fill markers stroke"
       d="m -34.988797,62.944248 c -8.995045,-4.057669 -16.254489,-11.091479 -20.546744,-14.383116 1.943406,-2.396584 0.933418,-0.588111 3.374234,-3.401111 3.1184,4.778803 10.467488,11.728245 17.926162,16.488953 4.145168,-6.500747 11.721716,0.612193 8.365322,6.095562 -3.715604,6.070215 -13.2854,2.092822 -9.118974,-4.800288 z"
       sodipodi:nodetypes="ccccsc"
       inkscape:transform-center-x="-15.980999"
       inkscape:transform-center-y="8.9432487" />
    <path
       id="path119992"
       style="fill:#41312b;fill-opacity:1;fill-rule:evenodd;stroke:none;stroke-width:0.930603;stroke-linecap:round;stroke-linejoin:round;stroke-miterlimit:4;stroke-dasharray:none;stroke-opacity:1"
       d="m -65.618876,7.7310383 c -0.105765,-7.61022808 6.565916,-22.5267723 28.201341,-17.4822956 17.352059,4.045777 26.75004,22.5822823 25.1962,39.9296023 -0.712971,7.959719 -6.793189,35.476886 -46.120775,33.177122 -11.921179,-0.69712 -13.926955,-42.398486 2.28301,-39.634364 -2.094953,-2.554154 -9.263914,-7.00599 -9.559776,-15.9900647 z"
       sodipodi:nodetypes="cssscc"
       inkscape:transform-center-x="-19.704362"
       inkscape:transform-center-y="-8.2013993" />
    <ellipse
       style="fill:#ffffff;fill-opacity:0.286713;stroke:none;stroke-width:0.824684;stroke-linecap:round;stroke-linejoin:round;stroke-miterlimit:4;stroke-dasharray:none;stroke-opacity:1;paint-order:fill markers stroke"
       id="path129144"
       cx="-10.899758"
       cy="19.350023"
       rx="11.864745"
       ry="2.5737066"
       transform="matrix(0.64463065,0.76449416,-0.81036803,0.5859212,0,0)"
       inkscape:transform-center-x="-36.899873"
       inkscape:transform-center-y="-31.55682" />
    <ellipse
       style="fill:#ffffff;fill-opacity:0.286713;stroke:none;stroke-width:0.862381;stroke-linecap:round;stroke-linejoin:round;stroke-miterlimit:4;stroke-dasharray:none;stroke-opacity:1;paint-order:fill markers stroke"
       id="ellipse129406"
       cx="0.80720282"
       cy="31.047125"
       rx="1.8660591"
       ry="0.76170731"
       transform="matrix(0.48463066,0.87471888,-0.99654351,0.08307244,0,0)"
       inkscape:transform-center-x="-29.058225"
       inkscape:transform-center-y="-31.276375" />
    <ellipse
       style="fill:#ffffff;fill-opacity:0.286713;stroke:none;stroke-width:0.834255;stroke-linecap:round;stroke-linejoin:round;stroke-miterlimit:4;stroke-dasharray:none;stroke-opacity:1;paint-order:fill markers stroke"
       id="ellipse129404"
       cx="-8.8601875"
       cy="25.903509"
       rx="2.4851127"
       ry="0.73063755"
       transform="matrix(0.55423992,0.83235696,-0.93552914,0.35324953,0,0)"
       inkscape:transform-center-x="-30.462666"
       inkscape:transform-center-y="-32.786043" />
    <ellipse
       style="fill:#2e231f;fill-opacity:1;stroke:none;stroke-width:0.921399;stroke-linecap:round;stroke-linejoin:round;stroke-miterlimit:4;stroke-dasharray:none;stroke-opacity:1;paint-order:fill markers stroke"
       id="ellipse131671"
       cx="6.1437612"
       cy="38.235546"
       rx="2.9467916"
       ry="1.5880053"
       transform="matrix(0.64320863,0.76569097,-0.99857983,0.05327596,0,0)"
       inkscape:transform-center-x="-25.377293"
       inkscape:transform-center-y="-27.820349" />
    <ellipse
       style="fill:#2e231f;fill-opacity:1;stroke:none;stroke-width:0.862381;stroke-linecap:round;stroke-linejoin:round;stroke-miterlimit:4;stroke-dasharray:none;stroke-opacity:1;paint-order:fill markers stroke"
       id="ellipse130911"
       cx="1.9663672"
       cy="33.022404"
       rx="1.8660591"
       ry="0.76170731"
       transform="matrix(0.48463066,0.87471888,-0.99654351,0.08307244,0,0)"
       inkscape:transform-center-x="-27.651538"
       inkscape:transform-center-y="-30.09834" />
    <circle
       style="fill:#ffffff;fill-opacity:1;stroke:none;stroke-width:0.823542;stroke-linecap:round;stroke-linejoin:round;stroke-miterlimit:4;stroke-dasharray:none;stroke-opacity:1;paint-order:fill markers stroke"
       id="circle139275"
       cx="71.633614"
       cy="-7.032156"
       r="3.7331371"
       inkscape:transform-center-x="-25.749276"
       inkscape:transform-center-y="16.18554"
       transform="rotate(120.69264)" />
    <path
       id="path113442"
       style="fill:none;fill-opacity:1;fill-rule:evenodd;stroke:#000000;stroke-width:0.823542;stroke-linecap:round;stroke-linejoin:round;stroke-miterlimit:4;stroke-dasharray:none;stroke-opacity:1"
       d="m -33.340666,3.9438922 c 0,0 -0.787824,-3.34143277 2.588507,-2.1935314 2.631367,0.8946248 2.165335,6.5909303 -1.82268,7.0822423 -1.359398,0.167475 -4.502405,-0.5942556 -4.401182,-5.5256192 0.07329,-3.57009026 3.654711,-4.6109021 6.422019,-3.70873726 4.000527,1.30420489 4.368163,7.21754206 3.061532,9.40525286 -3.01343,5.0454315 -8.082774,5.3058645 -10.125158,5.1529565 -3.348253,-0.250677 -11.228996,-1.997488 -11.48777,-10.9339628 -0.324886,-11.2193703 14.648905,-8.0067213 18.94551,-6.2548853 6.197451,2.52685837 7.993438,9.4377305 7.638787,15.1885591 C -23.188755,22.98253 -35.21796,28.039927 -43.648492,27.724943 -54.97195,27.301869 -65.50005,16.281359 -65.618879,7.7310393 c -0.105762,-7.61023008 6.565919,-22.5267733 28.201344,-17.4822946 17.352059,4.045776 26.75004,22.5822793 25.1962,39.9296003 -0.712971,7.959719 -6.793188,35.476883 -46.120775,33.177119 -11.921179,-0.697117 -13.838977,-41.891447 2.28301,-39.634361"
       sodipodi:nodetypes="cssssssssssssssc"
       inkscape:transform-center-x="-19.720764"
       inkscape:transform-center-y="-8.2014002" />
    <circle
       style="fill:#000000;fill-opacity:1;stroke:none;stroke-width:0.823542;stroke-linecap:round;stroke-linejoin:round;stroke-miterlimit:4;stroke-dasharray:none;stroke-opacity:1;paint-order:fill markers stroke"
       id="circle139277"
       cx="73.014854"
       cy="-7.0378428"
       r="1.1313114"
       inkscape:transform-center-x="-25.049136"
       inkscape:transform-center-y="17.376196"
       transform="rotate(120.69264)" />
    <path
       style="fill:#000000;fill-opacity:0.286713;stroke:none;stroke-width:0.0823542px;stroke-linecap:butt;stroke-linejoin:miter;stroke-opacity:1"
       d="m -60.155757,63.130805 c 11.950107,1.892506 24.674701,-0.197626 37.113902,-9.723639 14.166065,-17.987645 -2.626368,11.765991 -42.987088,-0.649812 0.862448,4.170569 0.919394,6.930516 5.873186,10.373451 z"
       id="path129460"
       sodipodi:nodetypes="cccc"
       inkscape:transform-center-x="-17.548412"
       inkscape:transform-center-y="21.05136" />
    <path
       style="fill:#000000;fill-opacity:0.286713;stroke:none;stroke-width:0.0823542px;stroke-linecap:butt;stroke-linejoin:miter;stroke-opacity:1"
       d="m -63.029042,15.456087 c 3.92074,4.425329 11.677762,18.581123 32.775791,8.751037 16.133596,-11.576036 -16.488033,12.677824 -35.333428,-15.9965536 0.372056,2.9150016 0.393315,4.8447386 2.557637,7.2455166 z"
       id="path130367"
       sodipodi:nodetypes="cccc"
       inkscape:transform-center-x="-13.85949"
       inkscape:transform-center-y="-16.651674" />
    <path
       style="fill:#000000;fill-opacity:0.286713;stroke:none;stroke-width:0.0823542px;stroke-linecap:butt;stroke-linejoin:miter;stroke-opacity:1"
       d="m -47.829571,8.2607391 c 2.164898,2.8413599 6.138262,8.8063389 17.20324,3.9326449 7.072023,-3.8446064 -10.93276,4.749473 -18.235015,-8.853956 0.09518,2.1414453 -0.163304,3.3798665 1.031775,4.9213111 z"
       id="path130506"
       sodipodi:nodetypes="cccc"
       inkscape:transform-center-x="-20.670636"
       inkscape:transform-center-y="-25.869078" />
  </g>
</svg>
