<?xml version="1.0" encoding="UTF-8" standalone="no"?>
<!-- Created with Inkscape (http://www.inkscape.org/) -->

<svg
   width="600"
   height="600"
   viewBox="0 0 158.75 158.75"
   version="1.1"
   id="svg113358"
   inkscape:version="1.1.1 (3bf5ae0d25, 2021-09-20)"
   sodipodi:docname="snail-hidden-1.svg"
   xmlns:inkscape="http://www.inkscape.org/namespaces/inkscape"
   xmlns:sodipodi="http://sodipodi.sourceforge.net/DTD/sodipodi-0.dtd"
   xmlns="http://www.w3.org/2000/svg"
   xmlns:svg="http://www.w3.org/2000/svg">
  <sodipodi:namedview
     id="namedview113360"
     pagecolor="#505050"
     bordercolor="#ffffff"
     borderopacity="1"
     inkscape:pageshadow="0"
     inkscape:pageopacity="0"
     inkscape:pagecheckerboard="1"
     inkscape:document-units="mm"
     showgrid="false"
     inkscape:zoom="0.76435185"
     inkscape:cx="-67.377347"
     inkscape:cy="190.35736"
     inkscape:window-width="1920"
     inkscape:window-height="1017"
     inkscape:window-x="1272"
     inkscape:window-y="-8"
     inkscape:window-maximized="1"
     inkscape:current-layer="layer1"
     inkscape:snap-global="false"
     fit-margin-top="0"
     fit-margin-left="0"
     fit-margin-right="0"
     fit-margin-bottom="0"
     units="px" />
  <defs
     id="defs113355" />
  <g
     inkscape:label="Layer 1"
     inkscape:groupmode="layer"
     id="layer1"
     transform="translate(134.62225,48.921463)">
    <path
       id="path119992"
       style="fill:#41312b;fill-opacity:1;fill-rule:evenodd;stroke:none;stroke-width:0.930603;stroke-linecap:round;stroke-linejoin:round;stroke-miterlimit:4;stroke-dasharray:none;stroke-opacity:1"
       d="m -67.735544,7.7310383 c -0.105765,-7.61022808 6.565916,-22.5267723 28.201341,-17.4822956 17.352059,4.045777 26.75004,22.5822823 25.1962,39.9296023 -0.712971,7.959719 -6.793189,35.476886 -46.120775,33.177122 -11.921179,-0.69712 -13.926955,-42.398486 2.28301,-39.634364 -2.094953,-2.554154 -9.263914,-7.00599 -9.559776,-15.9900647 z"
       sodipodi:nodetypes="cssscc"
       inkscape:transform-center-x="-19.704362"
       inkscape:transform-center-y="-8.2013993" />
    <ellipse
       style="fill:#ffffff;fill-opacity:0.286713;stroke:none;stroke-width:0.824684;stroke-linecap:round;stroke-linejoin:round;stroke-miterlimit:4;stroke-dasharray:none;stroke-opacity:1;paint-order:fill markers stroke"
       id="path129144"
       cx="-12.143412"
       cy="20.972704"
       rx="11.864745"
       ry="2.5737066"
       transform="matrix(0.64463065,0.76449416,-0.81036803,0.5859212,0,0)"
       inkscape:transform-center-x="-36.899873"
       inkscape:transform-center-y="-31.55682" />
    <ellipse
       style="fill:#ffffff;fill-opacity:0.286713;stroke:none;stroke-width:0.862381;stroke-linecap:round;stroke-linejoin:round;stroke-miterlimit:4;stroke-dasharray:none;stroke-opacity:1;paint-order:fill markers stroke"
       id="ellipse129406"
       cx="0.6143899"
       cy="33.077366"
       rx="1.8660591"
       ry="0.76170731"
       transform="matrix(0.48463066,0.87471888,-0.99654351,0.08307244,0,0)"
       inkscape:transform-center-x="-29.058225"
       inkscape:transform-center-y="-31.276375" />
    <ellipse
       style="fill:#ffffff;fill-opacity:0.286713;stroke:none;stroke-width:0.834255;stroke-linecap:round;stroke-linejoin:round;stroke-miterlimit:4;stroke-dasharray:none;stroke-opacity:1;paint-order:fill markers stroke"
       id="ellipse129404"
       cx="-9.6274796"
       cy="27.71147"
       rx="2.4851127"
       ry="0.73063755"
       transform="matrix(0.55423992,0.83235696,-0.93552914,0.35324953,0,0)"
       inkscape:transform-center-x="-30.462666"
       inkscape:transform-center-y="-32.786043" />
    <ellipse
       style="fill:#2e231f;fill-opacity:1;stroke:none;stroke-width:0.921399;stroke-linecap:round;stroke-linejoin:round;stroke-miterlimit:4;stroke-dasharray:none;stroke-opacity:1;paint-order:fill markers stroke"
       id="ellipse131671"
       cx="6.0026021"
       cy="40.264294"
       rx="2.9467916"
       ry="1.5880053"
       transform="matrix(0.64320863,0.76569097,-0.99857983,0.05327596,0,0)"
       inkscape:transform-center-x="-25.377293"
       inkscape:transform-center-y="-27.820349" />
    <ellipse
       style="fill:#2e231f;fill-opacity:1;stroke:none;stroke-width:0.862381;stroke-linecap:round;stroke-linejoin:round;stroke-miterlimit:4;stroke-dasharray:none;stroke-opacity:1;paint-order:fill markers stroke"
       id="ellipse130911"
       cx="1.7735543"
       cy="35.052647"
       rx="1.8660591"
       ry="0.76170731"
       transform="matrix(0.48463066,0.87471888,-0.99654351,0.08307244,0,0)"
       inkscape:transform-center-x="-27.651538"
       inkscape:transform-center-y="-30.09834" />
    <path
       id="path113442"
       style="fill:none;fill-opacity:1;fill-rule:evenodd;stroke:#000000;stroke-width:0.823542;stroke-linecap:round;stroke-linejoin:round;stroke-miterlimit:4;stroke-dasharray:none;stroke-opacity:1"
       d="m -35.457334,3.9438922 c 0,0 -0.787824,-3.34143277 2.588507,-2.1935314 2.631367,0.8946248 2.165335,6.5909303 -1.82268,7.0822423 -1.359398,0.167475 -4.502405,-0.5942556 -4.401182,-5.5256192 0.07329,-3.57009026 3.654711,-4.6109021 6.422019,-3.70873726 4.000527,1.30420489 4.368163,7.21754206 3.061532,9.40525286 -3.01343,5.0454315 -8.082774,5.3058645 -10.125158,5.1529565 -3.348253,-0.250677 -11.228996,-1.997488 -11.48777,-10.9339628 -0.324886,-11.2193703 14.648905,-8.0067213 18.94551,-6.2548853 6.197451,2.52685837 7.993438,9.4377305 7.638787,15.1885591 -0.667654,10.826363 -12.696859,15.88376 -21.127391,15.568776 -11.323458,-0.423074 -21.851558,-11.443584 -21.970387,-19.9939037 -0.105762,-7.61023008 6.565919,-22.5267733 28.201344,-17.4822946 17.352059,4.045776 26.75004,22.5822793 25.1962,39.9296003 -0.712971,7.959719 -6.793188,35.476883 -46.120775,33.177119 -11.921179,-0.697117 -13.838977,-41.891447 2.28301,-39.634361"
       sodipodi:nodetypes="cssssssssssssssc"
       inkscape:transform-center-x="-19.720764"
       inkscape:transform-center-y="-8.2014002" />
    <path
       style="fill:#000000;fill-opacity:0.286713;stroke:none;stroke-width:0.0823542px;stroke-linecap:butt;stroke-linejoin:miter;stroke-opacity:1"
       d="m -62.272425,63.130805 c 11.950107,1.892506 24.674701,-0.197626 37.113902,-9.723639 14.166066,-17.987645 -2.626368,11.765991 -42.987088,-0.649812 0.862448,4.170569 0.919394,6.930516 5.873186,10.373451 z"
       id="path129460"
       sodipodi:nodetypes="cccc"
       inkscape:transform-center-x="-17.548412"
       inkscape:transform-center-y="21.05136" />
    <path
       style="fill:#000000;fill-opacity:0.286713;stroke:none;stroke-width:0.0823542px;stroke-linecap:butt;stroke-linejoin:miter;stroke-opacity:1"
       d="m -65.14571,15.456087 c 3.92074,4.425329 11.677762,18.581123 32.775791,8.751037 16.133596,-11.576036 -16.488033,12.677824 -35.333428,-15.9965536 0.372056,2.9150016 0.393315,4.8447386 2.557637,7.2455166 z"
       id="path130367"
       sodipodi:nodetypes="cccc"
       inkscape:transform-center-x="-13.85949"
       inkscape:transform-center-y="-16.651674" />
    <path
       style="fill:#000000;fill-opacity:0.286713;stroke:none;stroke-width:0.0823542px;stroke-linecap:butt;stroke-linejoin:miter;stroke-opacity:1"
       d="m -49.946239,8.2607391 c 2.164898,2.8413599 6.138262,8.8063389 17.20324,3.9326449 7.072023,-3.8446064 -10.93276,4.749473 -18.235015,-8.853956 0.09518,2.1414453 -0.163304,3.3798665 1.031775,4.9213111 z"
       id="path130506"
       sodipodi:nodetypes="cccc"
       inkscape:transform-center-x="-20.670636"
       inkscape:transform-center-y="-25.869078" />
  </g>
</svg>
