<?xml version="1.0" encoding="UTF-8" standalone="no"?>
<!-- Created with Inkscape (http://www.inkscape.org/) -->

<svg
   width="500"
   height="550"
   viewBox="0 0 132.29167 145.52084"
   version="1.1"
   id="svg4791"
   inkscape:version="1.1.1 (3bf5ae0d25, 2021-09-20)"
   sodipodi:docname="stag-beetle-walk-1.svg"
   xmlns:inkscape="http://www.inkscape.org/namespaces/inkscape"
   xmlns:sodipodi="http://sodipodi.sourceforge.net/DTD/sodipodi-0.dtd"
   xmlns="http://www.w3.org/2000/svg"
   xmlns:svg="http://www.w3.org/2000/svg">
  <sodipodi:namedview
     id="namedview4793"
     pagecolor="#505050"
     bordercolor="#ffffff"
     borderopacity="1"
     inkscape:pageshadow="0"
     inkscape:pageopacity="0"
     inkscape:pagecheckerboard="1"
     inkscape:document-units="mm"
     showgrid="false"
     inkscape:snap-global="false"
     fit-margin-top="0"
     fit-margin-left="0"
     fit-margin-right="0"
     fit-margin-bottom="0"
     units="px"
     inkscape:zoom="2.1619135"
     inkscape:cx="175.53894"
     inkscape:cy="392.01383"
     inkscape:window-width="1920"
     inkscape:window-height="1017"
     inkscape:window-x="1272"
     inkscape:window-y="-8"
     inkscape:window-maximized="1"
     inkscape:current-layer="layer1" />
  <defs
     id="defs4788" />
  <g
     inkscape:label="Layer 1"
     inkscape:groupmode="layer"
     id="layer1"
     transform="translate(-223.08331,-312.20864)">
    <path
       style="fill:none;stroke:#1d1311;stroke-width:1.35497;stroke-linecap:round;stroke-linejoin:round;stroke-miterlimit:4;stroke-dasharray:none;stroke-opacity:1"
       d="m 286.54259,385.36143 c 0,0 0.63262,-2.69078 5.55592,-3.2034 0.51793,-6.68831 5.85183,-6.1951 5.85183,-6.1951"
       id="path28866"
       sodipodi:nodetypes="ccc" />
    <path
       style="fill:none;stroke:#1d1311;stroke-width:1.35497;stroke-linecap:round;stroke-linejoin:round;stroke-miterlimit:4;stroke-dasharray:none;stroke-opacity:1"
       d="m 287.88703,368.61874 c 0,0 0.16458,0.74656 3.84774,-2.61837 -1.99588,-7.04482 -2.16397,-14.03177 -2.16397,-14.03177"
       id="path28537"
       sodipodi:nodetypes="ccc"
       inkscape:transform-center-x="0.087450556"
       inkscape:transform-center-y="-6.9926264" />
    <path
       style="fill:none;stroke:#1d1311;stroke-width:1.35497;stroke-linecap:round;stroke-linejoin:round;stroke-miterlimit:4;stroke-dasharray:none;stroke-opacity:1"
       d="m 282.11096,362.6434 c 0,0 0.93421,-3.43391 5.21742,-7.70968 -9.02847,-10.19119 -5.89933,-16.98246 -5.89933,-16.98246"
       id="path28535"
       sodipodi:nodetypes="ccc" />
    <path
       style="fill:#9b1e10;fill-opacity:1;stroke:none;stroke-width:1.20331;stroke-linecap:butt;stroke-linejoin:miter;stroke-miterlimit:4;stroke-dasharray:none;stroke-opacity:1"
       d="m 287.31255,405.34018 c 13.78125,17.85706 9.14938,19.74129 18.56698,29.5697 12.53052,13.07715 20.1225,12.10544 25.06652,11.28047 -13.68306,-4.79507 -11.56308,-4.89433 -4.66344,-7.40096 -14.35596,0.35675 -20.78898,-6.64676 -16.81088,-11.68167 -5.45171,0.11826 -13.25288,-9.87017 -10.38913,-29.07894 -2.30757,1.07304 -6.91242,3.35912 -11.77005,7.3114 z"
       id="path8634"
       sodipodi:nodetypes="csccccc"
       inkscape:transform-center-x="-13.69301"
       inkscape:transform-center-y="22.218745" />
    <path
       style="fill:#9b1e10;fill-opacity:1;stroke:none;stroke-width:1.93102;stroke-linecap:round;stroke-linejoin:round;stroke-miterlimit:4;stroke-dasharray:none;stroke-opacity:1"
       d="m 303.17341,393.25449 c 17.73447,15.6353 21.88888,12.49714 30.96239,22.54434 12.07268,13.36821 7.97823,19.08006 5.06536,22.74813 -1.01728,-12.0518 -1.9399,-10.4106 -7.74342,-5.65546 5.84319,-11.1982 -0.72661,-18.13912 -8.67702,-16.36102 2.19688,-4.25719 -7.68825,-13.07566 -33.40079,-15.97904 2.24203,-1.52734 6.90179,-4.53636 13.79348,-7.29695 z"
       id="path4885"
       sodipodi:nodetypes="csccccc"
       inkscape:transform-center-x="-20.400693"
       inkscape:transform-center-y="15.797675" />
    <path
       style="fill:none;stroke:#1d1311;stroke-width:1.35497;stroke-linecap:round;stroke-linejoin:round;stroke-miterlimit:4;stroke-dasharray:none;stroke-opacity:1"
       d="m 277.9825,393.73484 c 0,0 -1.35816,1.50263 1.20556,8.18131 -3.99571,2.33136 -6.206,7.97208 -6.206,7.97208"
       id="path23051"
       sodipodi:nodetypes="ccc"
       inkscape:transform-center-x="1.7351947"
       inkscape:transform-center-y="7.3481869" />
    <path
       style="fill:none;stroke:#1d1311;stroke-width:1.35497;stroke-linecap:round;stroke-linejoin:round;stroke-miterlimit:4;stroke-dasharray:none;stroke-opacity:1"
       d="m 274.22265,383.94328 c 0,0 -2.20091,2.18159 -2.78795,7.52876 -6.55998,2.0328 -13.02447,7.93183 -13.02447,7.93183"
       id="path26293"
       sodipodi:nodetypes="ccc" />
    <path
       style="fill:none;stroke:#1d1311;stroke-width:1.35497;stroke-linecap:round;stroke-linejoin:round;stroke-miterlimit:4;stroke-dasharray:none;stroke-opacity:1"
       d="m 270.01922,371.11449 c 0,0 -1.19151,-3.44838 -6.39046,-1.75168 1.23582,-14.78568 -3.95468,-18.75027 -3.95468,-18.75027"
       id="path26295"
       sodipodi:nodetypes="ccc"
       inkscape:transform-center-x="4.893051"
       inkscape:transform-center-y="-9.6224825" />
    <g
       id="g41473"
       transform="rotate(2.5670726,294.15733,380.65121)">
      <ellipse
         style="fill:#1d1311;fill-opacity:1;stroke:#130f0e;stroke-width:1.28691;stroke-linecap:round;stroke-linejoin:round;stroke-miterlimit:4;stroke-dasharray:none;stroke-opacity:1;paint-order:fill markers stroke"
         id="path18617"
         cx="-516.08929"
         cy="-136.16965"
         rx="23.655241"
         ry="6.982419"
         transform="matrix(-0.36221437,-0.93209482,-0.67750994,0.73551361,0,0)" />
      <path
         style="fill:#863628;fill-opacity:1;stroke:#1d1311;stroke-width:0.989118;stroke-linecap:butt;stroke-linejoin:miter;stroke-miterlimit:4;stroke-dasharray:none;stroke-opacity:1"
         d="m 290.80009,386.45897 c 2.99184,-5.71749 -1.61324,-16.22894 -4.0546,-22.28975 -7.61665,-18.90861 -10.75996,-12.20834 -12.94712,-11.50667 -2.36341,0.75824 -6.09418,5.67176 -1.53254,19.68592 2.65053,8.14257 5.82454,17.37548 9.91529,18.3655 4.93575,1.19453 6.06344,0.6287 8.61897,-4.255 z"
         id="path16339"
         sodipodi:nodetypes="ssssss" />
      <path
         style="fill:#863628;fill-opacity:1;stroke:#1d1311;stroke-width:0.989118;stroke-linecap:butt;stroke-linejoin:miter;stroke-miterlimit:4;stroke-dasharray:none;stroke-opacity:1"
         d="m 282.02155,387.52033 c -2.64695,5.60186 0.41141,10.36105 2.00712,13.2224 4.97833,8.92689 7.79576,2.56097 9.54782,0.87578 1.89326,-1.82098 5.07738,-7.27083 2.23731,-14.48094 -1.65013,-4.18928 -3.65364,-8.8469 -6.80946,-7.29043 -3.80777,1.87798 -4.72186,2.88824 -6.98279,7.67319 z"
         id="path15592"
         sodipodi:nodetypes="ssssss" />
      <path
         style="fill:none;stroke:#1d1311;stroke-width:1.09075;stroke-linecap:butt;stroke-linejoin:miter;stroke-miterlimit:4;stroke-dasharray:none;stroke-opacity:1"
         d="m 285.60772,382.10003 c -2.51595,-11.19661 -5.04296,-19.03422 -11.08549,-29.6298"
         id="path16374"
         sodipodi:nodetypes="cc" />
      <ellipse
         style="fill:#ffffff;fill-opacity:0.428904;stroke:none;stroke-width:1.39841;stroke-linecap:round;stroke-linejoin:round;stroke-miterlimit:4;stroke-dasharray:none;stroke-opacity:1;paint-order:fill markers stroke"
         id="path38284"
         cx="-199.34291"
         cy="664.92957"
         rx="2.8409104"
         ry="4.9369569"
         transform="matrix(0.11747877,0.99307539,0.47535773,0.87979261,0,0)" />
      <ellipse
         style="fill:#ffffff;fill-opacity:0.428904;stroke:none;stroke-width:2.89783;stroke-linecap:round;stroke-linejoin:round;stroke-miterlimit:4;stroke-dasharray:none;stroke-opacity:1;paint-order:fill markers stroke"
         id="ellipse38564"
         cx="353.64722"
         cy="-803.63232"
         rx="8.2799702"
         ry="7.2739201"
         transform="matrix(-0.28567279,-0.95832722,-0.47997552,-0.87728188,0,0)" />
      <ellipse
         style="fill:#ffffff;fill-opacity:0.428904;stroke:none;stroke-width:2.91077;stroke-linecap:round;stroke-linejoin:round;stroke-miterlimit:4;stroke-dasharray:none;stroke-opacity:1;paint-order:fill markers stroke"
         id="ellipse38668"
         cx="483.54306"
         cy="-925.39124"
         rx="8.2094879"
         ry="7.4020438"
         transform="matrix(-0.21719347,-0.97612858,-0.41501343,-0.90981528,0,0)" />
    </g>
    <g
       id="g41440"
       inkscape:transform-center-x="-0.77296922"
       inkscape:transform-center-y="2.1575536"
       transform="rotate(-4.452969,295.43629,400.10305)">
      <ellipse
         style="fill:#1d1311;fill-opacity:1;stroke:#1d1311;stroke-width:1.26541;stroke-linecap:round;stroke-linejoin:round;stroke-miterlimit:4;stroke-dasharray:none;stroke-opacity:1;paint-order:fill markers stroke"
         id="path18721"
         cx="-323.20645"
         cy="-381.75012"
         rx="5.0385718"
         ry="4.5244317"
         transform="matrix(0.24705221,-0.96900217,-0.96900217,-0.24705221,0,0)" />
      <path
         style="fill:#863628;fill-opacity:1;stroke:#1d1311;stroke-width:1.14751;stroke-linecap:butt;stroke-linejoin:miter;stroke-miterlimit:4;stroke-dasharray:none;stroke-opacity:1"
         d="m 288.57997,402.92918 c -5.25174,5.4642 2.07875,10.89973 5.0629,10.37549 6.36135,-1.11752 2.77462,-6.8102 5.2441,-9.18026 2.6685,-2.56106 8.71043,-0.1109 7.31523,-7.0488 -0.7989,-3.97273 -3.45582,-7.67259 -9.30749,-4.28312 -5.85169,3.38949 -6.13629,7.87009 -8.31474,10.13669 z"
         id="path8749"
         sodipodi:nodetypes="ssssss" />
      <ellipse
         style="fill:#665d22;fill-opacity:1;stroke:#1d1311;stroke-width:1.14767;stroke-linecap:round;stroke-linejoin:round;stroke-miterlimit:4;stroke-dasharray:none;stroke-opacity:1;paint-order:fill markers stroke"
         id="path13230"
         cx="-117.98052"
         cy="-486.31992"
         rx="1.1040295"
         ry="1.2133762"
         transform="matrix(0.64196976,-0.76672996,-0.7513633,-0.65988877,0,0)" />
      <ellipse
         style="fill:#ffffff;fill-opacity:0.428904;stroke:none;stroke-width:0.870743;stroke-linecap:round;stroke-linejoin:round;stroke-miterlimit:4;stroke-dasharray:none;stroke-opacity:1;paint-order:fill markers stroke"
         id="ellipse38670"
         cx="-31.621437"
         cy="522.86884"
         rx="2.1180108"
         ry="2.5674567"
         transform="matrix(-0.0723071,0.99738242,0.57368078,0.81907897,0,0)" />
    </g>
  </g>
</svg>
