<?xml version="1.0" encoding="UTF-8" standalone="no"?>
<!-- Created with Inkscape (http://www.inkscape.org/) -->

<svg
   width="500"
   height="550"
   viewBox="0 0 132.29167 145.52084"
   version="1.1"
   id="svg4791"
   inkscape:version="1.1.1 (3bf5ae0d25, 2021-09-20)"
   sodipodi:docname="stag-beetle-attack-2.svg"
   xmlns:inkscape="http://www.inkscape.org/namespaces/inkscape"
   xmlns:sodipodi="http://sodipodi.sourceforge.net/DTD/sodipodi-0.dtd"
   xmlns="http://www.w3.org/2000/svg"
   xmlns:svg="http://www.w3.org/2000/svg">
  <sodipodi:namedview
     id="namedview4793"
     pagecolor="#505050"
     bordercolor="#ffffff"
     borderopacity="1"
     inkscape:pageshadow="0"
     inkscape:pageopacity="0"
     inkscape:pagecheckerboard="1"
     inkscape:document-units="mm"
     showgrid="false"
     inkscape:snap-global="false"
     fit-margin-top="0"
     fit-margin-left="0"
     fit-margin-right="0"
     fit-margin-bottom="0"
     units="px"
     inkscape:zoom="0.76435185"
     inkscape:cx="-37.286493"
     inkscape:cy="136.71714"
     inkscape:window-width="1920"
     inkscape:window-height="1017"
     inkscape:window-x="1272"
     inkscape:window-y="-8"
     inkscape:window-maximized="1"
     inkscape:current-layer="layer1" />
  <defs
     id="defs4788" />
  <g
     inkscape:label="Layer 1"
     inkscape:groupmode="layer"
     id="layer1"
     transform="translate(-223.08331,-312.20864)">
    <path
       style="fill:none;stroke:#1d1311;stroke-width:1.35497;stroke-linecap:round;stroke-linejoin:round;stroke-miterlimit:4;stroke-dasharray:none;stroke-opacity:1"
       d="m 286.62147,384.13066 c 0,0 -0.18655,-2.75784 4.36837,-4.69546 -1.47161,-6.54492 -0.3638,-13.43191 -0.3638,-13.43191"
       id="path28866"
       sodipodi:nodetypes="ccc"
       inkscape:transform-center-x="0.35819824"
       inkscape:transform-center-y="-6.7484041" />
    <path
       style="fill:none;stroke:#1d1311;stroke-width:1.35497;stroke-linecap:round;stroke-linejoin:round;stroke-miterlimit:4;stroke-dasharray:none;stroke-opacity:1"
       d="m 285.30524,365.29036 c 0,0 0.3204,0.6941 3.19885,-3.38055 -3.45609,-6.45512 -5.11429,-13.24455 -5.11429,-13.24455"
       id="path28537"
       sodipodi:nodetypes="ccc"
       inkscape:transform-center-x="0.55223465"
       inkscape:transform-center-y="-7.4840275" />
    <path
       style="fill:none;stroke:#1d1311;stroke-width:1.35497;stroke-linecap:round;stroke-linejoin:round;stroke-miterlimit:4;stroke-dasharray:none;stroke-opacity:1"
       d="m 282.67275,360.24003 c 0,0 -2.14127,-3.54317 -1.03317,-8.92245 -9.24102,-7.38071 -11.66681,-16.15818 -11.66681,-16.15818"
       id="path28535"
       sodipodi:nodetypes="ccc"
       inkscape:transform-center-x="4.4696144"
       inkscape:transform-center-y="-6.2003093" />
    <ellipse
       style="fill:#1d1311;fill-opacity:1;stroke:#130f0e;stroke-width:1.28691;stroke-linecap:round;stroke-linejoin:round;stroke-miterlimit:4;stroke-dasharray:none;stroke-opacity:1;paint-order:fill markers stroke"
       id="path18617"
       cx="-520.56378"
       cy="-136.8483"
       rx="23.655241"
       ry="6.982419"
       transform="matrix(-0.36221437,-0.93209482,-0.67750994,0.73551361,0,0)" />
    <path
       style="fill:#863628;fill-opacity:1;stroke:#1d1311;stroke-width:0.989118;stroke-linecap:butt;stroke-linejoin:miter;stroke-miterlimit:4;stroke-dasharray:none;stroke-opacity:1"
       d="m 292.88061,390.13049 c 2.99184,-5.71749 -1.61324,-16.22894 -4.0546,-22.28975 -7.61665,-18.90861 -10.75996,-12.20834 -12.94712,-11.50667 -2.36341,0.75824 -6.09418,5.67176 -1.53254,19.68592 2.65053,8.14257 5.82454,17.37548 9.91529,18.3655 4.93575,1.19453 6.06344,0.6287 8.61897,-4.255 z"
       id="path16339"
       sodipodi:nodetypes="ssssss" />
    <path
       style="fill:#863628;fill-opacity:1;stroke:#1d1311;stroke-width:0.989118;stroke-linecap:butt;stroke-linejoin:miter;stroke-miterlimit:4;stroke-dasharray:none;stroke-opacity:1"
       d="m 284.10207,391.19185 c -2.64695,5.60186 0.41141,10.36105 2.00712,13.2224 4.97833,8.92689 7.79576,2.56097 9.54782,0.87578 1.89326,-1.82098 5.07738,-7.27083 2.23731,-14.48094 -1.65013,-4.18928 -3.65364,-8.8469 -6.80946,-7.29043 -3.80777,1.87798 -4.72186,2.88824 -6.98279,7.67319 z"
       id="path15592"
       sodipodi:nodetypes="ssssss" />
    <path
       style="fill:#9b1e10;fill-opacity:1;stroke:none;stroke-width:1.20331;stroke-linecap:butt;stroke-linejoin:miter;stroke-miterlimit:4;stroke-dasharray:none;stroke-opacity:1"
       d="m 289.64822,407.23695 c 8.83078,20.75608 3.87339,21.4109 10.50703,33.29718 8.82631,15.81524 16.41789,16.79017 21.41012,17.2391 -12.03089,-8.09177 -9.95443,-7.65303 -2.6456,-8.33804 -13.98165,-3.27632 -18.43987,-11.67616 -13.32028,-15.54467 -5.30523,-1.26087 -10.33434,-12.89422 -2.71746,-30.75931 -2.50363,0.45622 -7.53626,1.50671 -13.23381,4.10574 z"
       id="path8634"
       sodipodi:nodetypes="csccccc"
       inkscape:transform-center-x="-9.930741"
       inkscape:transform-center-y="19.066511" />
    <path
       style="fill:#9b1e10;fill-opacity:1;stroke:none;stroke-width:1.93102;stroke-linecap:round;stroke-linejoin:round;stroke-miterlimit:4;stroke-dasharray:none;stroke-opacity:1"
       d="m 303.72944,396.31371 c 22.28506,7.89621 24.96996,3.43544 37.13513,9.37545 16.18624,7.90342 14.51651,14.72997 13.18118,19.21957 -5.43712,-10.80363 -5.68135,-8.93679 -9.29362,-2.36079 1.24696,-12.56931 -7.43691,-16.56043 -14.15119,-11.94644 0.4513,-4.7693 -12.00886,-9.26658 -36.95004,-2.37441 1.51095,-2.2531 4.71294,-6.78245 10.07854,-11.91338 z"
       id="path4885"
       sodipodi:nodetypes="csccccc"
       inkscape:transform-center-x="-22.139543"
       inkscape:transform-center-y="9.3373357" />
    <ellipse
       style="fill:#1d1311;fill-opacity:1;stroke:#1d1311;stroke-width:1.26541;stroke-linecap:round;stroke-linejoin:round;stroke-miterlimit:4;stroke-dasharray:none;stroke-opacity:1;paint-order:fill markers stroke"
       id="path18721"
       cx="-372.64804"
       cy="-341.35242"
       rx="5.0385718"
       ry="4.5244317"
       transform="matrix(0.12321567,-0.99237992,-0.99237992,-0.12321567,0,0)" />
    <path
       style="fill:#863628;fill-opacity:1;stroke:#1d1311;stroke-width:1.14751;stroke-linecap:butt;stroke-linejoin:miter;stroke-miterlimit:4;stroke-dasharray:none;stroke-opacity:1"
       d="m 290.78425,407.52107 c -4.52278,6.08134 3.43314,10.55172 6.32766,9.65632 6.17028,-1.90874 1.89604,-7.1051 4.04782,-9.76693 2.3252,-2.87635 8.62731,-1.20556 6.37059,-7.91289 -1.29222,-3.8407 -4.39339,-7.17701 -9.77228,-3.07847 -5.37892,4.09856 -5.09772,8.57938 -6.97379,11.10197 z"
       id="path8749"
       sodipodi:nodetypes="ssssss" />
    <ellipse
       style="fill:#665d22;fill-opacity:1;stroke:#1d1311;stroke-width:1.14767;stroke-linecap:round;stroke-linejoin:round;stroke-miterlimit:4;stroke-dasharray:none;stroke-opacity:1;paint-order:fill markers stroke"
       id="path13230"
       cx="-179.65466"
       cy="-469.35571"
       rx="1.1040295"
       ry="1.2133762"
       transform="matrix(0.54043764,-0.84138407,-0.82839317,-0.56014708,0,0)" />
    <path
       style="fill:none;stroke:#1d1311;stroke-width:1.09075;stroke-linecap:butt;stroke-linejoin:miter;stroke-miterlimit:4;stroke-dasharray:none;stroke-opacity:1"
       d="m 287.68824,385.77155 c -2.51595,-11.19661 -5.04296,-19.03422 -11.08549,-29.6298"
       id="path16374"
       sodipodi:nodetypes="cc" />
    <path
       style="fill:none;stroke:#1d1311;stroke-width:1.35497;stroke-linecap:round;stroke-linejoin:round;stroke-miterlimit:4;stroke-dasharray:none;stroke-opacity:1"
       d="m 278.45568,394.83479 c 0,0 -1.51805,-1.34092 -8.16702,1.29887 -2.37683,-3.96882 -8.04241,-6.11456 -8.04241,-6.11456"
       id="path23051"
       sodipodi:nodetypes="ccc"
       inkscape:transform-center-x="7.2440277"
       inkscape:transform-center-y="-1.4181561" />
    <path
       style="fill:none;stroke:#1d1311;stroke-width:1.35497;stroke-linecap:round;stroke-linejoin:round;stroke-miterlimit:4;stroke-dasharray:none;stroke-opacity:1"
       d="m 274.65174,384.49412 c 0,0 -2.49079,-1.07561 -8.19007,0.43736 -1.36571,-5.36852 -7.37717,-11.56803 -7.37717,-11.56803"
       id="path26293"
       sodipodi:nodetypes="ccc"
       inkscape:transform-center-x="6.9544575"
       inkscape:transform-center-y="-5.550006" />
    <path
       style="fill:none;stroke:#1d1311;stroke-width:1.35497;stroke-linecap:round;stroke-linejoin:round;stroke-miterlimit:4;stroke-dasharray:none;stroke-opacity:1"
       d="m 271.59088,372.48329 c 0,0 -0.91764,-2.57349 -6.65509,-3.08555 -1.27773,-14.78213 -7.06296,-17.81366 -7.06296,-17.81366"
       id="path26295"
       sodipodi:nodetypes="ccc"
       inkscape:transform-center-x="6.503163"
       inkscape:transform-center-y="-8.0906107" />
    <ellipse
       style="fill:#ffffff;fill-opacity:0.428904;stroke:none;stroke-width:1.39841;stroke-linecap:round;stroke-linejoin:round;stroke-miterlimit:4;stroke-dasharray:none;stroke-opacity:1;paint-order:fill markers stroke"
       id="path38284"
       cx="-199.57384"
       cy="669.3634"
       rx="2.8409104"
       ry="4.9369569"
       transform="matrix(0.11747877,0.99307539,0.47535773,0.87979261,0,0)" />
    <ellipse
       style="fill:#ffffff;fill-opacity:0.428904;stroke:none;stroke-width:2.89783;stroke-linecap:round;stroke-linejoin:round;stroke-miterlimit:4;stroke-dasharray:none;stroke-opacity:1;paint-order:fill markers stroke"
       id="ellipse38564"
       cx="353.948"
       cy="-808.146"
       rx="8.2799702"
       ry="7.2739201"
       transform="matrix(-0.28567279,-0.95832722,-0.47997552,-0.87728188,0,0)" />
    <ellipse
       style="fill:#ffffff;fill-opacity:0.428904;stroke:none;stroke-width:2.91077;stroke-linecap:round;stroke-linejoin:round;stroke-miterlimit:4;stroke-dasharray:none;stroke-opacity:1;paint-order:fill markers stroke"
       id="ellipse38668"
       cx="485.32217"
       cy="-931.33545"
       rx="8.2094879"
       ry="7.4020438"
       transform="matrix(-0.21719347,-0.97612858,-0.41501343,-0.90981528,0,0)" />
    <ellipse
       style="fill:#ffffff;fill-opacity:0.428904;stroke:none;stroke-width:0.870743;stroke-linecap:round;stroke-linejoin:round;stroke-miterlimit:4;stroke-dasharray:none;stroke-opacity:1;paint-order:fill markers stroke"
       id="ellipse38670"
       cx="68.642151"
       cy="446.53482"
       rx="2.1180108"
       ry="2.5674567"
       transform="matrix(0.05371127,0.99855651,0.67214352,0.74042088,0,0)" />
  </g>
</svg>
