<?xml version="1.0" encoding="UTF-8" standalone="no"?>
<!-- Created with Inkscape (http://www.inkscape.org/) -->

<svg
   width="500"
   height="550"
   viewBox="0 0 132.29167 145.52084"
   version="1.1"
   id="svg4791"
   inkscape:version="1.1.1 (3bf5ae0d25, 2021-09-20)"
   sodipodi:docname="stag-beetle-attack-1.svg"
   xmlns:inkscape="http://www.inkscape.org/namespaces/inkscape"
   xmlns:sodipodi="http://sodipodi.sourceforge.net/DTD/sodipodi-0.dtd"
   xmlns="http://www.w3.org/2000/svg"
   xmlns:svg="http://www.w3.org/2000/svg">
  <sodipodi:namedview
     id="namedview4793"
     pagecolor="#505050"
     bordercolor="#ffffff"
     borderopacity="1"
     inkscape:pageshadow="0"
     inkscape:pageopacity="0"
     inkscape:pagecheckerboard="1"
     inkscape:document-units="mm"
     showgrid="false"
     inkscape:snap-global="false"
     fit-margin-top="0"
     fit-margin-left="0"
     fit-margin-right="0"
     fit-margin-bottom="0"
     units="px"
     inkscape:zoom="1.5287037"
     inkscape:cx="200.49667"
     inkscape:cy="380.38764"
     inkscape:window-width="1920"
     inkscape:window-height="1017"
     inkscape:window-x="1272"
     inkscape:window-y="-8"
     inkscape:window-maximized="1"
     inkscape:current-layer="layer1" />
  <defs
     id="defs4788" />
  <g
     inkscape:label="Layer 1"
     inkscape:groupmode="layer"
     id="layer1"
     transform="translate(-223.08331,-312.20864)">
    <path
       style="fill:none;stroke:#1d1311;stroke-width:1.35497;stroke-linecap:round;stroke-linejoin:round;stroke-miterlimit:4;stroke-dasharray:none;stroke-opacity:1"
       d="m 286.82269,385.84826 c 0,0 0.18609,-2.75787 4.96024,-4.06522 -0.5779,-6.68339 1.44618,-13.35879 1.44618,-13.35879"
       id="path28866"
       sodipodi:nodetypes="ccc"
       inkscape:transform-center-x="-0.37304145"
       inkscape:transform-center-y="-6.7596541" />
    <path
       style="fill:none;stroke:#1d1311;stroke-width:1.35497;stroke-linecap:round;stroke-linejoin:round;stroke-miterlimit:4;stroke-dasharray:none;stroke-opacity:1"
       d="m 285.8171,366.46362 c 0,0 0.22128,0.73176 3.63585,-2.90541 -2.52965,-6.87124 -3.23245,-13.8248 -3.23245,-13.8248"
       id="path28537"
       sodipodi:nodetypes="ccc"
       inkscape:transform-center-x="-0.5239254"
       inkscape:transform-center-y="-7.7018317" />
    <path
       style="fill:none;stroke:#1d1311;stroke-width:1.35497;stroke-linecap:round;stroke-linejoin:round;stroke-miterlimit:4;stroke-dasharray:none;stroke-opacity:1"
       d="m 281.93845,360.4848 c 0,0 -2.55396,-3.83709 -1.23229,-9.66259 -11.02205,-7.99298 -13.91537,-17.49856 -13.91537,-17.49856"
       id="path28535"
       sodipodi:nodetypes="ccc"
       inkscape:transform-center-x="5.3310483"
       inkscape:transform-center-y="-6.7146439" />
    <ellipse
       style="fill:#1d1311;fill-opacity:1;stroke:#130f0e;stroke-width:1.28691;stroke-linecap:round;stroke-linejoin:round;stroke-miterlimit:4;stroke-dasharray:none;stroke-opacity:1;paint-order:fill markers stroke"
       id="path18617"
       cx="-518.27643"
       cy="-136.44545"
       rx="23.655241"
       ry="6.982419"
       transform="matrix(-0.36221437,-0.93209482,-0.67750994,0.73551361,0,0)" />
    <path
       style="fill:#863628;fill-opacity:1;stroke:#1d1311;stroke-width:0.989118;stroke-linecap:butt;stroke-linejoin:miter;stroke-miterlimit:4;stroke-dasharray:none;stroke-opacity:1"
       d="m 291.77916,388.29473 c 2.99184,-5.71749 -1.61324,-16.22894 -4.0546,-22.28975 -7.61665,-18.90861 -10.75996,-12.20834 -12.94712,-11.50667 -2.36341,0.75824 -6.09418,5.67176 -1.53254,19.68592 2.65053,8.14257 5.82454,17.37548 9.91529,18.3655 4.93575,1.19453 6.06344,0.6287 8.61897,-4.255 z"
       id="path16339"
       sodipodi:nodetypes="ssssss" />
    <path
       style="fill:#863628;fill-opacity:1;stroke:#1d1311;stroke-width:0.989118;stroke-linecap:butt;stroke-linejoin:miter;stroke-miterlimit:4;stroke-dasharray:none;stroke-opacity:1"
       d="m 283.00062,389.35609 c -2.64695,5.60186 0.41141,10.36105 2.00712,13.2224 4.97833,8.92689 7.79576,2.56097 9.54782,0.87578 1.89326,-1.82098 5.07738,-7.27083 2.23731,-14.48094 -1.65013,-4.18928 -3.65364,-8.8469 -6.80946,-7.29043 -3.80777,1.87798 -4.72186,2.88824 -6.98279,7.67319 z"
       id="path15592"
       sodipodi:nodetypes="ssssss" />
    <path
       style="fill:#9b1e10;fill-opacity:1;stroke:none;stroke-width:1.20331;stroke-linecap:butt;stroke-linejoin:miter;stroke-miterlimit:4;stroke-dasharray:none;stroke-opacity:1"
       d="m 288.48078,405.49874 c 9.16368,20.61127 4.21747,21.34579 11.04154,33.12377 9.07969,15.67115 16.68597,16.52377 21.68478,16.8923 -12.15955,-7.8971 -10.0763,-7.49183 -2.77944,-8.29438 -14.03257,-3.05088 -18.62539,-11.37789 -13.56873,-15.32829 -5.32483,-1.17532 -10.54051,-12.72623 -3.21213,-30.71159 -2.49596,0.49645 -7.51103,1.6278 -13.16602,4.31819 z"
       id="path8634"
       sodipodi:nodetypes="csccccc"
       inkscape:transform-center-x="-10.269336"
       inkscape:transform-center-y="18.797731" />
    <path
       style="fill:#9b1e10;fill-opacity:1;stroke:none;stroke-width:1.93102;stroke-linecap:round;stroke-linejoin:round;stroke-miterlimit:4;stroke-dasharray:none;stroke-opacity:1"
       d="m 303.72288,394.98185 c 19.87876,12.79879 23.51554,9.07307 33.99324,17.64587 13.941,11.40645 10.74948,17.66776 8.41966,21.73119 -2.81321,-11.76293 -3.47927,-10.00193 -8.50401,-4.4302 4.09768,-11.94786 -3.43876,-17.82499 -11.03258,-14.87467 1.53357,-4.53851 -9.56229,-11.77475 -35.41945,-10.78913 1.98761,-1.84631 6.14341,-5.52013 12.54314,-9.28306 z"
       id="path4885"
       sodipodi:nodetypes="csccccc"
       inkscape:transform-center-x="-18.679232"
       inkscape:transform-center-y="15.232256" />
    <ellipse
       style="fill:#1d1311;fill-opacity:1;stroke:#1d1311;stroke-width:1.26541;stroke-linecap:round;stroke-linejoin:round;stroke-miterlimit:4;stroke-dasharray:none;stroke-opacity:1;paint-order:fill markers stroke"
       id="path18721"
       cx="-324.74341"
       cy="-383.15237"
       rx="5.0385718"
       ry="4.5244317"
       transform="matrix(0.24705221,-0.96900217,-0.96900217,-0.24705221,0,0)" />
    <path
       style="fill:#863628;fill-opacity:1;stroke:#1d1311;stroke-width:1.14751;stroke-linecap:butt;stroke-linejoin:miter;stroke-miterlimit:4;stroke-dasharray:none;stroke-opacity:1"
       d="m 289.55904,404.76494 c -5.25174,5.4642 2.07875,10.89973 5.0629,10.37549 6.36135,-1.11752 2.77462,-6.8102 5.2441,-9.18026 2.6685,-2.56106 8.71043,-0.1109 7.31523,-7.0488 -0.7989,-3.97273 -3.45582,-7.67259 -9.30749,-4.28312 -5.85169,3.38949 -6.13629,7.87009 -8.31474,10.13669 z"
       id="path8749"
       sodipodi:nodetypes="ssssss" />
    <ellipse
       style="fill:#665d22;fill-opacity:1;stroke:#1d1311;stroke-width:1.14767;stroke-linecap:round;stroke-linejoin:round;stroke-miterlimit:4;stroke-dasharray:none;stroke-opacity:1;paint-order:fill markers stroke"
       id="path13230"
       cx="-117.98052"
       cy="-486.31992"
       rx="1.1040295"
       ry="1.2133762"
       transform="matrix(0.64196976,-0.76672996,-0.7513633,-0.65988877,0,0)" />
    <path
       style="fill:none;stroke:#1d1311;stroke-width:1.09075;stroke-linecap:butt;stroke-linejoin:miter;stroke-miterlimit:4;stroke-dasharray:none;stroke-opacity:1"
       d="m 286.58679,383.93579 c -2.51595,-11.19661 -5.04296,-19.03422 -11.08549,-29.6298"
       id="path16374"
       sodipodi:nodetypes="cc" />
    <path
       style="fill:none;stroke:#1d1311;stroke-width:1.35497;stroke-linecap:round;stroke-linejoin:round;stroke-miterlimit:4;stroke-dasharray:none;stroke-opacity:1"
       d="m 278.4826,394.23242 c 0,0 -2.02184,-0.12126 -5.63366,6.05385 -4.31707,-1.66246 -10.10196,0.13701 -10.10196,0.13701"
       id="path23051"
       sodipodi:nodetypes="ccc"
       inkscape:transform-center-x="6.9802027"
       inkscape:transform-center-y="2.8332275" />
    <path
       style="fill:none;stroke:#1d1311;stroke-width:1.35497;stroke-linecap:round;stroke-linejoin:round;stroke-miterlimit:4;stroke-dasharray:none;stroke-opacity:1"
       d="m 274.42842,384.09596 c 0,0 -2.68891,0.36155 -6.79384,4.59481 -3.93662,-3.89734 -12.28299,-6.11311 -12.28299,-6.11311"
       id="path26293"
       sodipodi:nodetypes="ccc"
       inkscape:transform-center-x="8.9325726"
       inkscape:transform-center-y="0.93674433" />
    <path
       style="fill:none;stroke:#1d1311;stroke-width:1.35497;stroke-linecap:round;stroke-linejoin:round;stroke-miterlimit:4;stroke-dasharray:none;stroke-opacity:1"
       d="m 271.00728,373.27115 c 0,0 -1.59533,-2.21807 -7.24975,-1.11894 -5.32699,-13.848 -11.72602,-15.15627 -11.72602,-15.15627"
       id="path26295"
       sodipodi:nodetypes="ccc"
       inkscape:transform-center-x="8.4917831"
       inkscape:transform-center-y="-5.9698206" />
    <ellipse
       style="fill:#ffffff;fill-opacity:0.428904;stroke:none;stroke-width:1.39841;stroke-linecap:round;stroke-linejoin:round;stroke-miterlimit:4;stroke-dasharray:none;stroke-opacity:1;paint-order:fill markers stroke"
       id="path38284"
       cx="-199.31236"
       cy="666.98169"
       rx="2.8409104"
       ry="4.9369569"
       transform="matrix(0.11747877,0.99307539,0.47535773,0.87979261,0,0)" />
    <ellipse
       style="fill:#ffffff;fill-opacity:0.428904;stroke:none;stroke-width:2.89783;stroke-linecap:round;stroke-linejoin:round;stroke-miterlimit:4;stroke-dasharray:none;stroke-opacity:1;paint-order:fill markers stroke"
       id="ellipse38564"
       cx="353.5412"
       cy="-805.60907"
       rx="8.2799702"
       ry="7.2739201"
       transform="matrix(-0.28567279,-0.95832722,-0.47997552,-0.87728188,0,0)" />
    <ellipse
       style="fill:#ffffff;fill-opacity:0.428904;stroke:none;stroke-width:2.91077;stroke-linecap:round;stroke-linejoin:round;stroke-miterlimit:4;stroke-dasharray:none;stroke-opacity:1;paint-order:fill markers stroke"
       id="ellipse38668"
       cx="484.16431"
       cy="-928.0755"
       rx="8.2094879"
       ry="7.4020438"
       transform="matrix(-0.21719347,-0.97612858,-0.41501343,-0.90981528,0,0)" />
    <ellipse
       style="fill:#ffffff;fill-opacity:0.428904;stroke:none;stroke-width:0.870743;stroke-linecap:round;stroke-linejoin:round;stroke-miterlimit:4;stroke-dasharray:none;stroke-opacity:1;paint-order:fill markers stroke"
       id="ellipse38670"
       cx="-32.047314"
       cy="525.07788"
       rx="2.1180108"
       ry="2.5674567"
       transform="matrix(-0.0723071,0.99738242,0.57368078,0.81907897,0,0)" />
  </g>
</svg>
