<?xml version="1.0" encoding="UTF-8" standalone="no"?>
<!-- Created with Inkscape (http://www.inkscape.org/) -->

<svg
   width="500"
   height="550"
   viewBox="0 0 132.29167 145.52084"
   version="1.1"
   id="svg4791"
   inkscape:version="1.1.1 (3bf5ae0d25, 2021-09-20)"
   sodipodi:docname="stag-beetle-walk-2.svg"
   xmlns:inkscape="http://www.inkscape.org/namespaces/inkscape"
   xmlns:sodipodi="http://sodipodi.sourceforge.net/DTD/sodipodi-0.dtd"
   xmlns="http://www.w3.org/2000/svg"
   xmlns:svg="http://www.w3.org/2000/svg">
  <sodipodi:namedview
     id="namedview4793"
     pagecolor="#505050"
     bordercolor="#ffffff"
     borderopacity="1"
     inkscape:pageshadow="0"
     inkscape:pageopacity="0"
     inkscape:pagecheckerboard="1"
     inkscape:document-units="mm"
     showgrid="false"
     inkscape:snap-global="false"
     fit-margin-top="0"
     fit-margin-left="0"
     fit-margin-right="0"
     fit-margin-bottom="0"
     units="px"
     inkscape:zoom="2.1619135"
     inkscape:cx="221.3317"
     inkscape:cy="334.65724"
     inkscape:window-width="1920"
     inkscape:window-height="1017"
     inkscape:window-x="3192"
     inkscape:window-y="-8"
     inkscape:window-maximized="1"
     inkscape:current-layer="layer1" />
  <defs
     id="defs4788" />
  <g
     inkscape:label="Layer 1"
     inkscape:groupmode="layer"
     id="layer1"
     transform="translate(-223.08331,-312.20864)">
    <path
       style="fill:none;stroke:#1d1311;stroke-width:1.35497;stroke-linecap:round;stroke-linejoin:round;stroke-miterlimit:4;stroke-dasharray:none;stroke-opacity:1"
       d="m 285.22537,378.34412 c 0,0 2.61325,-0.90082 5.67393,2.98941 5.93286,-3.13095 8.36199,1.64325 8.36199,1.64325"
       id="path28866"
       sodipodi:nodetypes="ccc" />
    <path
       style="fill:none;stroke:#1d1311;stroke-width:1.35497;stroke-linecap:round;stroke-linejoin:round;stroke-miterlimit:4;stroke-dasharray:none;stroke-opacity:1"
       d="m 289.24034,373.50712 c 0,0 -0.12911,0.75352 4.5511,-0.97379 0.80852,-7.27731 3.28804,-13.81168 3.28804,-13.81168"
       id="path28537"
       sodipodi:nodetypes="ccc"
       inkscape:transform-center-x="-3.8183595"
       inkscape:transform-center-y="-7.0678792" />
    <path
       style="fill:none;stroke:#1d1311;stroke-width:1.35497;stroke-linecap:round;stroke-linejoin:round;stroke-miterlimit:4;stroke-dasharray:none;stroke-opacity:1"
       d="m 281.66243,367.34572 c 0,0 5.2692,1.41272 8.11256,-4.56586 -3.5232,-13.15146 -7.29501,-17.95862 -7.29501,-17.95862"
       id="path28535"
       sodipodi:nodetypes="ccc" />
    <path
       style="fill:#9b1e10;fill-opacity:1;stroke:none;stroke-width:1.20331;stroke-linecap:butt;stroke-linejoin:miter;stroke-miterlimit:4;stroke-dasharray:none;stroke-opacity:1"
       d="m 287.6233,406.00826 c 14.89507,16.93913 10.39318,19.11573 20.42007,28.32173 13.3412,12.24901 20.8555,10.79375 25.73664,9.65428 -13.96172,-3.91017 -11.85242,-4.14481 -5.12722,-7.08757 -14.30375,1.27414 -21.17151,-5.30362 -17.52355,-10.58263 -5.43299,0.46667 -13.85699,-9.00239 -12.22758,-28.35499 -2.23421,1.21842 -6.68344,3.79433 -11.27836,8.04918 z"
       id="path8634"
       sodipodi:nodetypes="csccccc"
       inkscape:transform-center-x="-14.16391"
       inkscape:transform-center-y="20.868026" />
    <path
       style="fill:#9b1e10;fill-opacity:1;stroke:none;stroke-width:1.93102;stroke-linecap:round;stroke-linejoin:round;stroke-miterlimit:4;stroke-dasharray:none;stroke-opacity:1"
       d="m 302.67876,392.93295 c 18.69811,14.4691 22.64331,11.07166 32.34081,20.51801 12.90292,12.56875 9.18215,18.53076 6.50983,22.37761 -1.78596,-11.96206 -2.60174,-10.26522 -8.08926,-5.14865 5.11505,-11.54898 -1.8852,-18.05552 -9.70561,-15.77261 1.92011,-4.38897 -8.50876,-12.55719 -34.35434,-13.8102 2.13976,-1.66761 6.59754,-4.96848 13.29857,-8.16416 z"
       id="path4885"
       sodipodi:nodetypes="csccccc"
       inkscape:transform-center-x="-20.234222"
       inkscape:transform-center-y="13.910558" />
    <path
       style="fill:none;stroke:#1d1311;stroke-width:1.35497;stroke-linecap:round;stroke-linejoin:round;stroke-miterlimit:4;stroke-dasharray:none;stroke-opacity:1"
       d="m 278.63607,394.05637 c 0,0 -1.79864,3.25031 -1.8712,10.19883 -1.32737,8.52944 -1.9239,12.07667 -1.9239,12.07667"
       id="path23051"
       sodipodi:nodetypes="ccc" />
    <path
       style="fill:none;stroke:#1d1311;stroke-width:1.35497;stroke-linecap:round;stroke-linejoin:round;stroke-miterlimit:4;stroke-dasharray:none;stroke-opacity:1"
       d="m 273.74565,382.77183 c 0,0 -1.08036,2.90451 0.63402,8.00331 -5.09838,4.60132 -8.48538,12.6708 -8.48538,12.6708"
       id="path26293"
       sodipodi:nodetypes="ccc" />
    <path
       style="fill:none;stroke:#1d1311;stroke-width:1.35497;stroke-linecap:round;stroke-linejoin:round;stroke-miterlimit:4;stroke-dasharray:none;stroke-opacity:1"
       d="m 271.15632,368.98975 c 0,0 -1.48842,-0.0218 -5.82435,-3.35476 3.82673,-8.71089 3.64558,-14.89204 3.64558,-14.89204"
       id="path26295"
       sodipodi:nodetypes="ccc"
       inkscape:transform-center-x="2.4103582"
       inkscape:transform-center-y="-8.8327358" />
    <g
       id="g41482"
       inkscape:transform-center-x="6.2164743"
       inkscape:transform-center-y="-16.039873"
       transform="rotate(3.2730442,290.27004,393.83002)">
      <ellipse
         style="fill:#1d1311;fill-opacity:1;stroke:#130f0e;stroke-width:1.28691;stroke-linecap:round;stroke-linejoin:round;stroke-miterlimit:4;stroke-dasharray:none;stroke-opacity:1;paint-order:fill markers stroke"
         id="path18617"
         cx="-516.08929"
         cy="-136.16965"
         rx="23.655241"
         ry="6.982419"
         transform="matrix(-0.36221437,-0.93209482,-0.67750994,0.73551361,0,0)" />
      <path
         style="fill:#863628;fill-opacity:1;stroke:#1d1311;stroke-width:0.989118;stroke-linecap:butt;stroke-linejoin:miter;stroke-miterlimit:4;stroke-dasharray:none;stroke-opacity:1"
         d="m 290.80009,386.45897 c 2.99184,-5.71749 -1.61324,-16.22894 -4.0546,-22.28975 -7.61665,-18.90861 -10.75996,-12.20834 -12.94712,-11.50667 -2.36341,0.75824 -6.09418,5.67176 -1.53254,19.68592 2.65053,8.14257 5.82454,17.37548 9.91529,18.3655 4.93575,1.19453 6.06344,0.6287 8.61897,-4.255 z"
         id="path16339"
         sodipodi:nodetypes="ssssss" />
      <path
         style="fill:#863628;fill-opacity:1;stroke:#1d1311;stroke-width:0.989118;stroke-linecap:butt;stroke-linejoin:miter;stroke-miterlimit:4;stroke-dasharray:none;stroke-opacity:1"
         d="m 282.02155,387.52033 c -2.64695,5.60186 0.41141,10.36105 2.00712,13.2224 4.97833,8.92689 7.79576,2.56097 9.54782,0.87578 1.89326,-1.82098 5.07738,-7.27083 2.23731,-14.48094 -1.65013,-4.18928 -3.65364,-8.8469 -6.80946,-7.29043 -3.80777,1.87798 -4.72186,2.88824 -6.98279,7.67319 z"
         id="path15592"
         sodipodi:nodetypes="ssssss" />
      <path
         style="fill:none;stroke:#1d1311;stroke-width:1.09075;stroke-linecap:butt;stroke-linejoin:miter;stroke-miterlimit:4;stroke-dasharray:none;stroke-opacity:1"
         d="m 285.60772,382.10003 c -2.51595,-11.19661 -5.04296,-19.03422 -11.08549,-29.6298"
         id="path16374"
         sodipodi:nodetypes="cc" />
      <ellipse
         style="fill:#ffffff;fill-opacity:0.428904;stroke:none;stroke-width:1.39841;stroke-linecap:round;stroke-linejoin:round;stroke-miterlimit:4;stroke-dasharray:none;stroke-opacity:1;paint-order:fill markers stroke"
         id="path38284"
         cx="-199.34291"
         cy="664.92957"
         rx="2.8409104"
         ry="4.9369569"
         transform="matrix(0.11747877,0.99307539,0.47535773,0.87979261,0,0)" />
      <ellipse
         style="fill:#ffffff;fill-opacity:0.428904;stroke:none;stroke-width:2.89783;stroke-linecap:round;stroke-linejoin:round;stroke-miterlimit:4;stroke-dasharray:none;stroke-opacity:1;paint-order:fill markers stroke"
         id="ellipse38564"
         cx="353.64722"
         cy="-803.63232"
         rx="8.2799702"
         ry="7.2739201"
         transform="matrix(-0.28567279,-0.95832722,-0.47997552,-0.87728188,0,0)" />
      <ellipse
         style="fill:#ffffff;fill-opacity:0.428904;stroke:none;stroke-width:2.91077;stroke-linecap:round;stroke-linejoin:round;stroke-miterlimit:4;stroke-dasharray:none;stroke-opacity:1;paint-order:fill markers stroke"
         id="ellipse38668"
         cx="483.54306"
         cy="-925.39124"
         rx="8.2094879"
         ry="7.4020438"
         transform="matrix(-0.21719347,-0.97612858,-0.41501343,-0.90981528,0,0)" />
    </g>
    <g
       id="g41339"
       inkscape:transform-center-x="0.1677853"
       inkscape:transform-center-y="1.8211921"
       transform="rotate(-8.1197653,296.53775,400.4702)">
      <ellipse
         style="fill:#1d1311;fill-opacity:1;stroke:#1d1311;stroke-width:1.26541;stroke-linecap:round;stroke-linejoin:round;stroke-miterlimit:4;stroke-dasharray:none;stroke-opacity:1;paint-order:fill markers stroke"
         id="path18721"
         cx="-323.20645"
         cy="-381.75012"
         rx="5.0385718"
         ry="4.5244317"
         transform="matrix(0.24705221,-0.96900217,-0.96900217,-0.24705221,0,0)" />
      <path
         style="fill:#863628;fill-opacity:1;stroke:#1d1311;stroke-width:1.14751;stroke-linecap:butt;stroke-linejoin:miter;stroke-miterlimit:4;stroke-dasharray:none;stroke-opacity:1"
         d="m 288.57997,402.92918 c -5.25174,5.4642 2.07875,10.89973 5.0629,10.37549 6.36135,-1.11752 2.77462,-6.8102 5.2441,-9.18026 2.6685,-2.56106 8.71043,-0.1109 7.31523,-7.0488 -0.7989,-3.97273 -3.45582,-7.67259 -9.30749,-4.28312 -5.85169,3.38949 -6.13629,7.87009 -8.31474,10.13669 z"
         id="path8749"
         sodipodi:nodetypes="ssssss" />
      <ellipse
         style="fill:#665d22;fill-opacity:1;stroke:#1d1311;stroke-width:1.14767;stroke-linecap:round;stroke-linejoin:round;stroke-miterlimit:4;stroke-dasharray:none;stroke-opacity:1;paint-order:fill markers stroke"
         id="path13230"
         cx="-117.98052"
         cy="-486.31992"
         rx="1.1040295"
         ry="1.2133762"
         transform="matrix(0.64196976,-0.76672996,-0.7513633,-0.65988877,0,0)" />
      <ellipse
         style="fill:#ffffff;fill-opacity:0.428904;stroke:none;stroke-width:0.870743;stroke-linecap:round;stroke-linejoin:round;stroke-miterlimit:4;stroke-dasharray:none;stroke-opacity:1;paint-order:fill markers stroke"
         id="ellipse38670"
         cx="-31.621437"
         cy="522.86884"
         rx="2.1180108"
         ry="2.5674567"
         transform="matrix(-0.0723071,0.99738242,0.57368078,0.81907897,0,0)" />
    </g>
  </g>
</svg>
