<svg id="eQSfiZcXOJw1" xmlns="http://www.w3.org/2000/svg" xmlns:xlink="http://www.w3.org/1999/xlink" viewBox="0 0 640 480" shape-rendering="geometricPrecision" text-rendering="geometricPrecision"><path id="eQSfiZcXOJw2" d="M-22.115569,-240L18.429641,-240C20.182809,-229.475073,18.378087,-208.777475,27.606066,-205.042341C55.602483,-193.710458,99.018638,-240,89.598131,-240C81.599155,-240,119.594292,-251.036454,116.261385,-240C104.351576,-200.562338,36.271624,-182.378576,33.563415,-130.370986C31.610792,-92.873447,27.606066,-60.394190,27.606066,-41.881359C25.300437,-15.812420,10.697973,23.347860,1.842964,84.361682Q-4.872685,130.634633,10.136303,240L-149.280092,240Q-106.320791,179.723214,-92.477186,151.325481C-81.398693,128.599890,-38.489249,90.022519,-50.624193,32.044452C-69.458040,-57.939482,-161.534624,-240,-161.534624,-240C-161.534624,-240,-153.865176,-248.835455,-149.280092,-240C-112.357357,-168.849913,-43.305401,-12.657669,-39.114620,-16.086490C-4.585901,-44.337260,-15.183887,-148.374014,-15.615601,-156.380109C-16.959108,-181.295313,-19.125764,-209.168610,-22.115569,-240Z" transform="matrix(1 0 0 1 310.98367900000000 240)" fill="rgb(35,143,57)" stroke="none" stroke-width="0"/></svg>