<svg id="e8N0Xocyj5w1" xmlns="http://www.w3.org/2000/svg" xmlns:xlink="http://www.w3.org/1999/xlink" viewBox="0 0 640 480" shape-rendering="geometricPrecision" text-rendering="geometricPrecision"><path id="e8N0Xocyj5w2" d="M-22.115569,-240L18.429641,-240C20.182809,-229.475073,18.378087,-208.777475,27.606066,-205.042341C55.602483,-193.710458,99.018638,-240,89.598131,-240C81.599155,-240,119.594292,-251.036454,116.261385,-240C104.351576,-200.562338,36.271624,-182.378576,33.563415,-130.370986C31.610792,-92.873447,27.606066,-60.394190,27.606066,-41.881359C25.300437,-15.812420,10.697973,23.347860,1.842964,84.361682Q-4.872685,130.634633,10.136303,240L-149.280092,240L-62.382415,84.361682Q-23.491900,-2.381226,-17.508158,-41.881359Q-8.603617,-100.662388,-22.115569,-240Z" transform="matrix(1 0 0 1 189.61028999999999 240)" fill="rgb(35,143,57)" stroke="none" stroke-width="0"/></svg>