<?xml version="1.0" encoding="UTF-8" standalone="no"?>
<svg
   id="eQSfiZcXOJw1"
   viewBox="0 0 17550 8833"
   shape-rendering="geometricPrecision"
   text-rendering="geometricPrecision"
   version="1.1"
   sodipodi:docname="stalk.svg"
   width="17550"
   height="8833"
   inkscape:version="1.1 (c68e22c387, 2021-05-23)"
   xmlns:inkscape="http://www.inkscape.org/namespaces/inkscape"
   xmlns:sodipodi="http://sodipodi.sourceforge.net/DTD/sodipodi-0.dtd"
   xmlns="http://www.w3.org/2000/svg"
   xmlns:svg="http://www.w3.org/2000/svg">
  <sodipodi:namedview
     id="namedview1027"
     pagecolor="#505050"
     bordercolor="#ffffff"
     borderopacity="1"
     inkscape:pageshadow="0"
     inkscape:pageopacity="0"
     inkscape:pagecheckerboard="1"
     showgrid="false"
     inkscape:zoom="0.052539063"
     inkscape:cx="7756.1338"
     inkscape:cy="5700.5204"
     inkscape:window-width="1920"
     inkscape:window-height="1017"
     inkscape:window-x="1272"
     inkscape:window-y="-8"
     inkscape:window-maximized="1"
     inkscape:current-layer="eQSfiZcXOJw1" />
  <defs
     id="defs6" />
  <path
     id="eQSfiZcXOJw2"
     d="m 9340.2468,-158.45681 h 1031.5482 c 44.604,200.148667 -1.312,593.74728 233.466,664.77696 712.283,215.49425 1816.873,-664.77696 1577.197,-664.77696 -203.509,0 763.16,-209.8762 678.365,0 -303.009,749.97153 -2035.093,1095.76546 -2103.995,2084.77471 -49.679,713.0769 -151.567,1330.7229 -151.567,1682.7747 -58.659,495.7433 -430.174,1240.44 -655.4632,2400.7176 q -170.858,879.9557 210.9992,2959.7166 H 6104.938 Q 7197.905,7823.2654 7550.1128,7283.2362 c 281.858,-432.1644 1373.557,-1165.7761 1064.82,-2268.3236 -479.169,-1711.1915 -2821.7736,-5173.36941 -2821.7736,-5173.36941 0,0 195.1253,-168.02061 311.7788,0 939.385,1353.03501 2696.1998,4323.28561 2802.8208,4258.08081 878.477,-537.2345 608.844,-2515.6631 597.86,-2667.9121 -34.181,-473.80325 -89.305,-1003.8595 -165.372,-1590.16871 z"
     fill="#238f39"
     stroke="none"
     stroke-width="0" />
</svg>
