<?xml version="1.0" encoding="UTF-8" standalone="no"?>
<!-- Created with Inkscape (http://www.inkscape.org/) -->

<svg
   width="26.286007mm"
   height="25.039122mm"
   viewBox="0 0 26.286007 25.039122"
   version="1.1"
   id="svg42079"
   inkscape:version="1.1 (c68e22c387, 2021-05-23)"
   sodipodi:docname="starfish.svg"
   xmlns:inkscape="http://www.inkscape.org/namespaces/inkscape"
   xmlns:sodipodi="http://sodipodi.sourceforge.net/DTD/sodipodi-0.dtd"
   xmlns="http://www.w3.org/2000/svg"
   xmlns:svg="http://www.w3.org/2000/svg">
  <sodipodi:namedview
     id="namedview42081"
     pagecolor="#505050"
     bordercolor="#ffffff"
     borderopacity="1"
     inkscape:pageshadow="0"
     inkscape:pageopacity="0"
     inkscape:pagecheckerboard="1"
     inkscape:document-units="mm"
     showgrid="false"
     fit-margin-top="0"
     fit-margin-left="0"
     fit-margin-right="0"
     fit-margin-bottom="0"
     inkscape:zoom="6.3998878"
     inkscape:cx="33.203707"
     inkscape:cy="56.17286"
     inkscape:window-width="1920"
     inkscape:window-height="1017"
     inkscape:window-x="1272"
     inkscape:window-y="-8"
     inkscape:window-maximized="1"
     inkscape:current-layer="g104863"
     inkscape:snap-global="false" />
  <defs
     id="defs42076" />
  <g
     inkscape:label="Layer 1"
     inkscape:groupmode="layer"
     id="layer1"
     transform="translate(-38.120917,-74.298351)">
    <g
       id="g104863"
       transform="matrix(1.262553,0,0,1.0940594,0.31404777,-244.7241)">
      <path
         id="path98596"
         style="opacity:1;fill:#b2eff3;fill-opacity:1;stroke:none;stroke-width:2;stroke-linecap:round;stroke-linejoin:round;stroke-opacity:1;paint-order:stroke fill markers"
         inkscape:transform-center-x="0.086848032"
         inkscape:transform-center-y="-1.0113401"
         d="m 44.85571,310.44578 c -2.588879,-4.99292 -4.339067,-3.75649 -4.678431,-0.67151 -0.362624,3.29643 -3.384147,4.8583 -3.222315,0.72214 0.155078,-3.96351 -3.08666,-5.96558 -4.629383,-6.5546 -3.292116,-1.25696 -2.191774,-1.88952 0.616595,-2.47144 3.78623,-0.78454 4.997583,-4.02054 5.587798,-7.21255 0.355808,-1.92428 2.57947,-0.83274 3.500412,1.50052 0.67536,1.71106 1.113251,2.35758 5.703962,2.75155 3.386263,0.2906 3.360187,1.03179 1.388658,3.76868 -1.183603,1.64309 -2.24821,4.46582 -2.063275,8.11565 0.105457,2.08127 -1.0487,2.27972 -2.204021,0.0516 z"
         sodipodi:nodetypes="sssssssssss" />
      <path
         id="rect103642"
         style="fill:#0e839f;stroke-width:1.34953;stroke-linecap:round;stroke-linejoin:round;stroke-dasharray:1.34953, 1.34953;paint-order:stroke fill markers;fill-opacity:1"
         d="m 47.953645,301.88462 c -1.262332,1.44304 -1.296418,2.00737 -1.609337,2.77416 -0.311962,0.7644 -0.246229,3.11199 -0.276679,3.90053 -0.04301,1.11383 -0.156439,1.99867 -0.711919,0.7058 -0.998835,-3.02289 -3.564315,-4.25027 -3.324272,-5.47896 0.216265,-1.10697 3.649229,-0.49928 5.415159,-2.88583 0.718161,-0.60562 0.812186,0.61609 0.507048,0.9843 z"
         sodipodi:nodetypes="csscscc" />
      <path
         id="path140700"
         style="fill:#12a5c8;fill-opacity:1;stroke-width:1.02245;stroke-linecap:round;stroke-linejoin:round;stroke-dasharray:1.02245, 1.02245;paint-order:stroke fill markers"
         d="m 35.558607,301.39856 c 1.278341,-0.47723 1.545124,-1.00594 1.984058,-1.40169 0.437604,-0.39449 1.167063,-2.34403 1.286415,-2.92867 0.193707,-0.9488 0.867763,-1.55076 0.784974,-0.24875 -0.337099,2.87773 1.092499,4.74459 0.564672,5.48255 -0.475539,0.66486 -2.599726,-1.11103 -4.497795,-0.19395 -0.663024,0.12545 -0.437115,-0.58097 -0.122322,-0.70949 z"
         sodipodi:nodetypes="csscscc" />
      <path
         id="path143339"
         style="fill:#0e839f;fill-opacity:1;stroke-width:1.41424;stroke-linecap:round;stroke-linejoin:round;stroke-dasharray:1.41424, 1.41424;paint-order:stroke fill markers"
         d="m 37.727986,309.30233 c -0.147625,-1.82088 -0.578858,-2.20652 -0.948131,-2.91989 -0.368105,-0.71116 -2.330691,-2.16795 -2.94722,-2.6946 -0.870861,-0.74389 -1.498263,-1.39117 0.0046,-0.95776 3.270117,1.22646 6.353293,0.19009 7.157436,1.14745 0.724473,0.86259 -2.559763,2.91205 -2.054122,5.69495 -0.09112,0.89802 -1.161111,0.18238 -1.212562,-0.27025 z"
         sodipodi:nodetypes="csscscc" />
      <path
         id="path143341"
         style="fill:#12a5c8;fill-opacity:1;stroke-width:1.02245;stroke-linecap:round;stroke-linejoin:round;stroke-dasharray:1.02245, 1.02245;paint-order:stroke fill markers"
         d="m 41.597144,296.89127 c 0.723667,1.30637 1.234428,1.47038 1.677301,1.86024 0.441489,0.38869 2.260481,0.70957 2.780812,0.69483 0.844432,-0.0239 1.519696,0.57624 0.407235,0.81339 -2.497796,0.35211 -3.700942,2.42072 -4.453203,2.01824 -0.677746,-0.3626 0.27332,-3.18363 -0.975962,-5.07053 -0.273,-0.70846 0.376387,-0.63507 0.563817,-0.31616 z"
         sodipodi:nodetypes="csscscc" />
    </g>
  </g>
</svg>
