<?xml version="1.0" encoding="UTF-8" standalone="no"?>
<!-- Created with Inkscape (http://www.inkscape.org/) -->

<svg
   width="100"
   height="100"
   viewBox="0 0 26.458333 26.458333"
   version="1.1"
   id="svg41976"
   inkscape:version="1.1 (c68e22c387, 2021-05-23)"
   sodipodi:docname="sugar.svg"
   xmlns:inkscape="http://www.inkscape.org/namespaces/inkscape"
   xmlns:sodipodi="http://sodipodi.sourceforge.net/DTD/sodipodi-0.dtd"
   xmlns="http://www.w3.org/2000/svg"
   xmlns:svg="http://www.w3.org/2000/svg">
  <sodipodi:namedview
     id="namedview41978"
     pagecolor="#505050"
     bordercolor="#ffffff"
     borderopacity="1"
     inkscape:pageshadow="0"
     inkscape:pageopacity="0"
     inkscape:pagecheckerboard="1"
     inkscape:document-units="mm"
     showgrid="false"
     fit-margin-top="0"
     fit-margin-left="0"
     fit-margin-right="0"
     fit-margin-bottom="0"
     inkscape:zoom="4.525404"
     inkscape:cx="44.084462"
     inkscape:cy="61.983416"
     inkscape:window-width="1284"
     inkscape:window-height="1041"
     inkscape:window-x="1735"
     inkscape:window-y="25"
     inkscape:window-maximized="0"
     inkscape:current-layer="g104871"
     units="px"
     inkscape:snap-to-guides="false"
     inkscape:snap-grids="false"
     inkscape:snap-page="true" />
  <defs
     id="defs41973" />
  <g
     inkscape:label="Layer 1"
     inkscape:groupmode="layer"
     id="layer1"
     transform="translate(-133.59635,-122.73145)">
    <g
       id="g104871"
       transform="matrix(1.1007275,0,0,1.2148405,89.693675,-182.31623)"
       inkscape:export-filename="C:\develop\theSeed\res\img\sugar.png"
       inkscape:export-xdpi="96"
       inkscape:export-ydpi="96">
      <path
         id="path82750"
         style="opacity:1;fill:#ffffff;fill-opacity:1;stroke:#a09779;stroke-width:2.16025;stroke-linecap:round;stroke-linejoin:round;stroke-miterlimit:4;stroke-dasharray:none;stroke-opacity:1;paint-order:stroke fill markers"
         inkscape:transform-center-x="-0.19378088"
         inkscape:transform-center-y="-0.29292174"
         d="m 52.279908,269.50235 c -2.315547,-0.0282 -6.687361,1.87866 -6.687361,1.87866 0,0 0.608168,-4.13713 -0.01356,-6.05915 -0.692342,-2.14034 -3.940847,-5.48217 -3.940847,-5.48217 0,0 4.690803,-0.54993 6.420543,-1.96884 1.975493,-1.62051 3.872274,-5.18264 3.872274,-5.18264 0,0 2.076337,3.69654 3.747109,4.89436 1.878162,1.34648 6.568595,2.22709 6.568595,2.22709 0,0 -3.042158,2.97315 -3.725194,4.90955 -0.737075,2.08959 -0.192166,6.64323 -0.192166,6.64323 0,0 -3.939586,-1.83431 -6.0494,-1.86009 z"
         sodipodi:nodetypes="scscscscscs" />
      <path
         id="path87497"
         style="opacity:1;fill:#a09779;fill-opacity:1;stroke-width:7.55906;stroke-linecap:round;stroke-linejoin:round;stroke-dasharray:7.55906, 7.55906;paint-order:stroke fill markers"
         d="m 51.662904,256.50201 c 0.937624,1.07905 -0.792819,3.52368 -1.967379,4.11911 -1.174568,0.59544 -3.219103,0.41405 -3.24202,-0.36657 -0.02291,-0.78062 1.813343,-0.59554 2.815629,-1.5088 1.138291,-1.03714 1.228882,-3.00159 2.39377,-2.24374"
         sodipodi:nodetypes="csssc" />
    </g>
  </g>
</svg>
