<?xml version="1.0" encoding="UTF-8" standalone="no"?>
<!-- Created with Inkscape (http://www.inkscape.org/) -->

<svg
   width="350"
   height="350"
   viewBox="0 0 92.604166 92.604166"
   version="1.1"
   id="svg928"
   inkscape:version="1.1.1 (3bf5ae0d25, 2021-09-20)"
   sodipodi:docname="tick-dying-2.svg"
   xmlns:inkscape="http://www.inkscape.org/namespaces/inkscape"
   xmlns:sodipodi="http://sodipodi.sourceforge.net/DTD/sodipodi-0.dtd"
   xmlns="http://www.w3.org/2000/svg"
   xmlns:svg="http://www.w3.org/2000/svg">
  <sodipodi:namedview
     id="namedview930"
     pagecolor="#505050"
     bordercolor="#ffffff"
     borderopacity="1"
     inkscape:pageshadow="0"
     inkscape:pageopacity="0"
     inkscape:pagecheckerboard="1"
     inkscape:document-units="mm"
     showgrid="false"
     inkscape:snap-global="false"
     inkscape:zoom="2.0647518"
     inkscape:cx="130.52416"
     inkscape:cy="191.54845"
     inkscape:window-width="1920"
     inkscape:window-height="1017"
     inkscape:window-x="1272"
     inkscape:window-y="-8"
     inkscape:window-maximized="1"
     inkscape:current-layer="layer1"
     units="px" />
  <defs
     id="defs925" />
  <g
     inkscape:label="Layer 1"
     inkscape:groupmode="layer"
     id="layer1">
    <path
       id="path22494"
       style="fill:#16110b;fill-opacity:1;stroke-width:2.43417;stroke-linecap:round;stroke-linejoin:round;paint-order:fill markers stroke"
       d="m 18.505666,25.672354 c -0.557444,-0.812654 0.795653,-2.452725 2.256977,-3.956063 1.488638,-1.531453 2.619525,-2.303738 3.226799,-1.467711 0.633155,0.871678 -0.409567,1.825767 -1.77395,3.447148 -1.414544,1.680982 -3.278426,2.605524 -3.709824,1.976626 z"
       sodipodi:nodetypes="sssss"
       inkscape:transform-center-x="1.9946598"
       inkscape:transform-center-y="2.1672543" />
    <path
       id="path22500"
       style="fill:#16110b;fill-opacity:1;stroke-width:2.43417;stroke-linecap:round;stroke-linejoin:round;paint-order:fill markers stroke"
       d="m 12.505348,36.289497 c -0.775126,-0.161485 -0.336572,-2.313681 0.244063,-4.449343 0.591482,-2.175589 1.197035,-3.552889 2.021766,-3.41166 0.859896,0.147245 0.398205,1.587618 -0.05693,3.734971 -0.471867,2.226286 -1.609044,4.251002 -2.208895,4.126032 z"
       sodipodi:nodetypes="sssss"
       inkscape:transform-center-x="5.535829"
       inkscape:transform-center-y="8.7050939" />
    <path
       id="path22506"
       style="fill:#16110b;fill-opacity:1;stroke-width:2.43419;stroke-linecap:round;stroke-linejoin:round;paint-order:fill markers stroke"
       d="m 8.0798245,45.902022 c 0.3945034,-0.289592 1.0494574,0.447427 1.6372084,1.240872 0.5987361,0.808277 0.8790051,1.418618 0.4712331,1.734554 C 9.7631009,49.206862 9.3966569,48.641818 8.7506939,47.898949 8.0809861,47.128778 7.774527,46.126126 8.0798245,45.902022 Z"
       sodipodi:nodetypes="sssss" />
    <g
       id="g8054"
       transform="matrix(1.1638545,0,0,1,-9.8744153,4.5468465)"
       style="stroke-width:0.926938">
      <path
         id="path1011"
         style="fill:#821c1b;stroke-width:2.25632;stroke-linecap:round;stroke-linejoin:round;paint-order:fill markers stroke"
         d="M 40.830716,60.475275 C 29.106464,47.070393 28.401887,61.055586 23.491885,52.752581 21.197866,48.873318 23.576781,42.952863 29.849262,29.71129 35.23455,18.342646 39.57023,7.5919926 49.063978,18.864118 c 17.856338,21.201204 3.983261,55.57887 -8.233262,41.611157 z"
         sodipodi:nodetypes="sssss" />
      <path
         style="fill:#5d201f;fill-opacity:1;stroke:none;stroke-width:0.0763374px;stroke-linecap:butt;stroke-linejoin:miter;stroke-opacity:1"
         d="M 23.618837,53.338367 C 20.869875,48.035949 32.331457,17.57453 40.760557,14.011607 28.402198,29.130462 28.759104,57.805969 47.506925,63.623413 42.460719,65.184103 26.498102,58.892126 23.618837,53.338367 Z"
         id="path129460"
         sodipodi:nodetypes="sccs"
         inkscape:transform-center-x="14.226329"
         inkscape:transform-center-y="4.970208" />
      <ellipse
         style="fill:#e99259;fill-opacity:1;stroke:none;stroke-width:2.45252;stroke-linecap:round;stroke-linejoin:round"
         id="ellipse5276"
         cx="13.514402"
         cy="55.174862"
         rx="4.4850025"
         ry="6.1828952"
         transform="rotate(-14.623179)" />
      <path
         id="path7742"
         style="fill:#ffffff;fill-opacity:0.41958;stroke-width:1.26483;stroke-linecap:round;stroke-linejoin:bevel"
         d="M 53.853635,50.212909 C 54.96337,44.555796 54.415087,38.46314 52.011603,34.924996 50.433799,32.602329 50.51675,40.8475 50.232167,45.841084 c -0.238173,4.179035 -3.489277,11.199401 -1.865012,13.443363 1.624255,2.24398 4.745606,-5.294855 5.48648,-9.071538 z"
         sodipodi:nodetypes="sssss"
         inkscape:transform-center-x="-0.35883329"
         inkscape:transform-center-y="13.161602" />
    </g>
    <ellipse
       style="fill:#e99259;fill-opacity:1;stroke:none;stroke-width:2.64587;stroke-linecap:round;stroke-linejoin:round"
       id="path1300"
       cx="8.6428289"
       cy="58.149734"
       rx="4.4878097"
       ry="9.3317327"
       transform="matrix(0.97401624,-0.22647817,0.21878062,0.97577407,0,0)" />
    <path
       id="path22504"
       style="fill:#16110b;fill-opacity:1;stroke-width:2.43419;stroke-linecap:round;stroke-linejoin:round;paint-order:fill markers stroke"
       d="m 12.077248,40.484531 c 0.608056,-0.418505 1.618394,0.613143 2.525154,1.726134 0.923711,1.133797 1.356259,1.993414 0.727756,2.449546 -0.655304,0.475579 -1.220693,-0.318087 -2.217176,-1.358191 -1.033105,-1.078351 -1.506295,-2.493614 -1.035735,-2.817488 z"
       sodipodi:nodetypes="sssss" />
    <g
       id="g8065"
       transform="rotate(-12.527126,29.24308,49.269812)">
      <g
         id="g28307"
         inkscape:transform-center-x="7.4358198"
         inkscape:transform-center-y="1.5155612"
         transform="rotate(23.312484,36.492799,35.713884)">
        <g
           id="g28410">
          <path
             id="path1013"
             style="fill:#821c1b;fill-opacity:1;stroke-width:2.43418;stroke-linecap:round;stroke-linejoin:round;paint-order:fill markers stroke"
             d="m 31.892586,67.941771 c -5.22983,4.728747 -10.386765,5.4285 -13.865423,1.988676 -3.478665,-3.439823 -0.666937,-9.363025 2.80166,-15.539875 3.701936,-6.592305 4.945426,-6.832064 10.468911,1.346413 2.731447,4.044383 1.587441,11.307304 0.594852,12.204786 z"
             sodipodi:nodetypes="sssss" />
          <path
             id="path18942"
             style="fill:#ffffff;fill-opacity:0.473193;stroke-width:1.36452;stroke-linecap:round;stroke-linejoin:bevel"
             d="m 30.745108,59.198274 c -0.630572,-2.123379 -1.829395,-3.927991 -3.147118,-4.39922 -0.865026,-0.309336 0.560885,2.315128 1.324661,3.997223 0.639193,1.407699 0.863124,4.561127 1.728633,4.832356 0.865513,0.271227 0.514794,-3.012788 0.09385,-4.430358 z"
             sodipodi:nodetypes="sssss"
             inkscape:transform-center-x="0.20027184"
             inkscape:transform-center-y="5.1339829" />
        </g>
      </g>
      <g
         id="g28311"
         inkscape:transform-center-x="13.121263"
         inkscape:transform-center-y="7.3067749"
         transform="rotate(20.679725,44.713159,32.146821)">
        <ellipse
           style="fill:#1d170d;fill-opacity:1;stroke-width:2.43417;stroke-linecap:round;stroke-linejoin:round;paint-order:fill markers stroke"
           id="ellipse1475"
           cx="49.386829"
           cy="54.604969"
           rx="5.1846304"
           ry="4.6132631"
           transform="rotate(24.456709)" />
        <path
           id="path18944"
           style="fill:#ffffff;fill-opacity:0.517483;stroke-width:1.36452;stroke-linecap:round;stroke-linejoin:bevel"
           d="m 26.322506,69.590085 c -0.397211,-1.227797 -1.148653,-2.272391 -1.972116,-2.546827 -0.540561,-0.180151 0.354021,1.338469 0.83365,2.311547 0.4014,0.814344 0.54645,2.636566 1.087248,2.794706 0.540805,0.158133 0.316384,-1.739741 0.05122,-2.559426 z"
           sodipodi:nodetypes="sssss"
           inkscape:transform-center-x="0.11742265"
           inkscape:transform-center-y="2.9655163" />
      </g>
      <ellipse
         style="fill:#1d170d;fill-opacity:1;stroke-width:2.43417;stroke-linecap:round;stroke-linejoin:round;paint-order:fill markers stroke"
         id="path13611"
         cx="64.170563"
         cy="11.055459"
         rx="1.298147"
         ry="1.2482182"
         transform="rotate(73.674615)" />
      <ellipse
         style="fill:#1d170d;fill-opacity:1;stroke-width:2.43417;stroke-linecap:round;stroke-linejoin:round;paint-order:fill markers stroke"
         id="path1015"
         cx="61.204861"
         cy="10.978036"
         rx="3.0972292"
         ry="3.1638601"
         transform="rotate(73.674615)" />
    </g>
  </g>
</svg>
