<?xml version="1.0" encoding="UTF-8" standalone="no"?>
<!-- Created with Inkscape (http://www.inkscape.org/) -->

<svg
   width="350"
   height="350"
   viewBox="0 0 92.604166 92.604166"
   version="1.1"
   id="svg928"
   inkscape:version="1.1.1 (3bf5ae0d25, 2021-09-20)"
   sodipodi:docname="tick-hiding-2.svg"
   xmlns:inkscape="http://www.inkscape.org/namespaces/inkscape"
   xmlns:sodipodi="http://sodipodi.sourceforge.net/DTD/sodipodi-0.dtd"
   xmlns:xlink="http://www.w3.org/1999/xlink"
   xmlns="http://www.w3.org/2000/svg"
   xmlns:svg="http://www.w3.org/2000/svg">
  <sodipodi:namedview
     id="namedview930"
     pagecolor="#505050"
     bordercolor="#ffffff"
     borderopacity="1"
     inkscape:pageshadow="0"
     inkscape:pageopacity="0"
     inkscape:pagecheckerboard="1"
     inkscape:document-units="mm"
     showgrid="false"
     inkscape:snap-global="false"
     inkscape:zoom="1.5621904"
     inkscape:cx="184.67659"
     inkscape:cy="110.42188"
     inkscape:window-width="1920"
     inkscape:window-height="1017"
     inkscape:window-x="1272"
     inkscape:window-y="-8"
     inkscape:window-maximized="1"
     inkscape:current-layer="layer1"
     units="px" />
  <defs
     id="defs925" />
  <g
     inkscape:label="Layer 1"
     inkscape:groupmode="layer"
     id="layer1">
    <path
       id="path21800"
       style="fill:#1d170d;stroke-width:2.43418;stroke-linecap:round;stroke-linejoin:round;paint-order:fill markers stroke"
       d="m 24.520924,30.18287 c -0.731237,-1.217845 0.926349,-2.518429 2.725216,-3.607364 1.8325,-1.109297 3.237308,-1.491161 4.032304,-0.222506 0.828889,1.322744 -0.458554,1.959998 -2.131015,3.233283 -1.733949,1.320092 -4.060617,1.539054 -4.626505,0.596587 z"
       sodipodi:nodetypes="sssss"
       inkscape:transform-center-x="0.83201664"
       inkscape:transform-center-y="0.012428003" />
    <path
       id="path21806"
       style="fill:#1d170d;stroke-width:2.43417;stroke-linecap:round;stroke-linejoin:round;paint-order:fill markers stroke"
       d="m 22.324716,38.336247 c -0.985315,-0.552242 -0.500724,-2.883329 0.164051,-5.128584 0.677213,-2.287224 1.398135,-3.62728 2.445516,-3.075738 1.092032,0.575054 0.555063,2.05661 0.04934,4.374237 -0.524313,2.402823 -1.896384,4.257454 -2.658899,3.830085 z"
       sodipodi:nodetypes="sssss"
       inkscape:transform-center-x="5.1041223"
       inkscape:transform-center-y="6.0559748" />
    <g
       id="g24156"
       transform="matrix(0.35618069,0.73408962,-0.73408962,0.35618069,83.862686,-102.98167)"
       style="stroke-width:1.22559">
      <path
         id="path22482"
         style="fill:#16110b;fill-opacity:1;stroke-width:2.98328;stroke-linecap:round;stroke-linejoin:round;paint-order:fill markers stroke"
         d="m 144.62988,151.46099 c -0.37785,-0.84266 -2.03556,-0.59589 -3.6349,-0.196 -1.62926,0.40737 -2.5882,0.91156 -2.21168,1.805 0.39255,0.93155 1.44924,0.58716 3.0977,0.32221 1.70907,-0.27468 3.04129,-1.27909 2.74888,-1.93121 z"
         sodipodi:nodetypes="sssss"
         inkscape:transform-center-x="-0.51424519"
         inkscape:transform-center-y="0.16191344" />
      <path
         id="path22488"
         style="fill:#16110b;fill-opacity:1;stroke-width:2.98328;stroke-linecap:round;stroke-linejoin:round;paint-order:fill markers stroke"
         d="m 150.80705,153.76772 c 0.1649,-0.68952 -1.52744,-1.41645 -3.25937,-2.02342 -1.76429,-0.61836 -2.96467,-0.82821 -3.16193,-0.10979 -0.20566,0.74904 0.98773,1.10335 2.68263,1.8148 1.75721,0.73759 3.61107,0.85201 3.73867,0.31841 z"
         sodipodi:nodetypes="sssss"
         inkscape:transform-center-x="-6.4186829"
         inkscape:transform-center-y="0.51361632" />
      <path
         id="path22490"
         style="fill:#16110b;fill-opacity:1;stroke-width:2.98331;stroke-linecap:round;stroke-linejoin:round;paint-order:fill markers stroke"
         d="m 150.42228,153.60286 c -0.58196,-0.17591 -0.96195,1.04438 -1.23933,2.30351 -0.2826,1.28265 -0.30321,2.17116 0.30634,2.37362 0.63553,0.21109 0.77463,-0.66129 1.14168,-1.88469 0.38055,-1.26837 0.2417,-2.6563 -0.20869,-2.79244 z"
         sodipodi:nodetypes="sssss"
         inkscape:transform-center-x="-8.7504379"
         inkscape:transform-center-y="3.8222974" />
      <path
         id="path22492"
         style="fill:#16110b;fill-opacity:1;stroke-width:2.98331;stroke-linecap:round;stroke-linejoin:round;paint-order:fill markers stroke"
         d="m 149.40434,157.77781 c -0.38372,-0.12996 -0.60684,0.72089 -0.76216,1.60011 -0.15824,0.89565 -0.15346,1.51809 0.24881,1.66697 0.41943,0.15522 0.49235,-0.45458 0.70698,-1.30773 0.22251,-0.88452 0.10332,-1.85878 -0.19363,-1.95935 z"
         sodipodi:nodetypes="sssss"
         inkscape:transform-center-x="-7.9574132"
         inkscape:transform-center-y="7.2904274" />
    </g>
    <g
       id="g24162"
       transform="matrix(-0.17657364,-0.79660153,-0.79660153,0.17657364,145.43713,74.790798)"
       style="stroke-width:1.22559"
       inkscape:transform-center-x="4.5082898"
       inkscape:transform-center-y="5.7646614">
      <path
         id="path22494"
         style="fill:#16110b;fill-opacity:1;stroke-width:2.98328;stroke-linecap:round;stroke-linejoin:round;paint-order:fill markers stroke"
         d="m 47.439605,137.15669 c 0.0439,-1.20698 2.57293,-1.83497 5.10879,-2.24935 2.58327,-0.42214 4.26038,-0.35765 4.2485,0.9087 -0.0124,1.32034 -1.73532,1.49921 -4.26183,2.10056 -2.61939,0.62345 -5.12943,0.17415 -5.09546,-0.75991 z"
         sodipodi:nodetypes="sssss" />
      <path
         id="path22500"
         style="fill:#16110b;fill-opacity:1;stroke-width:2.98328;stroke-linecap:round;stroke-linejoin:round;paint-order:fill markers stroke"
         d="m 39.926985,143.31499 c -0.64553,-0.72452 1.35648,-2.52405 3.48635,-4.20364 2.16968,-1.711 3.77083,-2.62558 4.47999,-1.88482 0.7394,0.77234 -0.76609,1.85399 -2.7809,3.63665 -2.08887,1.84819 -4.68588,3.0125 -5.18544,2.45181 z"
         sodipodi:nodetypes="sssss" />
      <path
         id="path22504"
         style="fill:#16110b;fill-opacity:1;stroke-width:2.98331;stroke-linecap:round;stroke-linejoin:round;paint-order:fill markers stroke"
         d="m 40.382395,142.90636 c 0.73231,-0.53119 2.00146,0.70217 3.14617,2.03833 1.16611,1.36114 1.72213,2.40124 0.96591,2.97915 -0.78847,0.60255 -1.50525,-0.35272 -2.75768,-1.59686 -1.29846,-1.28989 -1.92112,-3.00954 -1.3544,-3.42062 z"
         sodipodi:nodetypes="sssss" />
      <path
         id="path22506"
         style="fill:#16110b;fill-opacity:1;stroke-width:2.98331;stroke-linecap:round;stroke-linejoin:round;paint-order:fill markers stroke"
         d="m 44.319075,147.28235 c 0.47457,-0.36677 1.29937,0.51638 2.04354,1.4707 0.75808,0.97216 1.11997,1.71146 0.62994,2.11091 -0.51093,0.41649 -0.97703,-0.2647 -1.79099,-1.15529 -0.84388,-0.92332 -1.24975,-2.14249 -0.88249,-2.42632 z"
         sodipodi:nodetypes="sssss" />
    </g>
    <g
       id="g24168"
       transform="matrix(-0.75704323,-0.30436461,-0.30436461,0.75704323,98.643443,-36.056221)"
       inkscape:transform-center-x="-3.8311325"
       inkscape:transform-center-y="8.4121192"
       style="stroke-width:1.22559">
      <path
         id="path22508"
         style="fill:#16110b;fill-opacity:1;stroke-width:2.98328;stroke-linecap:round;stroke-linejoin:round;paint-order:fill markers stroke"
         d="m 35.657475,132.21907 c 0.0679,-1.73963 2.64065,-1.96028 5.21618,-1.86906 2.62368,0.0929 4.32045,0.64456 4.28383,2.4791 -0.0382,1.91275 -1.78609,1.70178 -4.35578,1.88444 -2.66416,0.18938 -5.19677,-1.14821 -5.14423,-2.49448 z"
         sodipodi:nodetypes="sssss" />
      <path
         id="path22514"
         style="fill:#16110b;fill-opacity:1;stroke-width:2.98328;stroke-linecap:round;stroke-linejoin:round;paint-order:fill markers stroke"
         d="m 27.931565,139.10446 c -0.6395,-1.22776 1.42242,-3.29254 3.61147,-5.14834 2.22998,-1.89049 3.86886,-2.78047 4.57247,-1.51176 0.73361,1.3228 -0.81166,2.48137 -2.88622,4.51816 -2.15082,2.11166 -4.80282,3.09208 -5.29772,2.14194 z"
         sodipodi:nodetypes="sssss" />
      <path
         id="path22518"
         style="fill:#16110b;fill-opacity:1;stroke-width:2.98331;stroke-linecap:round;stroke-linejoin:round;paint-order:fill markers stroke"
         d="m 28.400585,138.63581 c 0.75176,-0.57089 2.01277,1.56565 3.1458,3.81739 1.15421,2.29384 1.69696,3.95513 0.92008,4.58728 -0.81,0.65911 -1.51716,-0.92298 -2.76103,-3.07061 -1.2896,-2.22658 -1.88663,-4.89226 -1.30485,-5.33406 z"
         sodipodi:nodetypes="sssss" />
      <path
         id="path22520"
         style="fill:#16110b;fill-opacity:1;stroke-width:2.98331;stroke-linecap:round;stroke-linejoin:round;paint-order:fill markers stroke"
         d="m 32.301345,146.06162 c 0.48761,-0.40266 1.30554,1.10428 2.04045,2.69248 0.74865,1.61789 1.10069,2.78963 0.59679,3.2355 -0.52539,0.46488 -0.98407,-0.651 -1.79088,-2.16576 -0.83647,-1.57045 -1.22371,-3.45061 -0.84636,-3.76222 z"
         sodipodi:nodetypes="sssss" />
    </g>
    <g
       id="g28303"
       inkscape:transform-center-x="9.3302071"
       inkscape:transform-center-y="-0.75227304"
       transform="rotate(23.712952,42.866944,41.801698)">
      <path
         id="path1011"
         style="fill:#821c1b;stroke-width:2.43417;stroke-linecap:round;stroke-linejoin:round;paint-order:fill markers stroke"
         d="M 50.092308,64.197301 C 28.454972,61.151982 31.515778,75.503451 21.661363,71.585524 17.05725,69.755029 18.899933,61.88228 24.457008,43.452048 29.228083,27.628637 32.598146,13.319151 50.242139,16.195358 83.427882,21.60508 72.638136,67.370485 50.092308,64.197301 Z"
         sodipodi:nodetypes="sssss" />
      <path
         style="fill:#5d201f;fill-opacity:1;stroke:none;stroke-width:0.0823545px;stroke-linecap:butt;stroke-linejoin:miter;stroke-opacity:1"
         d="M 31.531377,67.592383 C 13.050153,62.474558 25.696279,28.412362 34.967122,19.893222 25.246807,41.42277 32.722646,69.289539 58.720225,62.894845 52.585511,66.51567 38.991806,62.875116 31.531377,67.592383 Z"
         id="path129460"
         sodipodi:nodetypes="cccc"
         inkscape:transform-center-x="19.603178"
         inkscape:transform-center-y="3.7037948" />
      <path
         id="path7742"
         style="fill:#ffffff;fill-opacity:0.41958;stroke-width:1.36452;stroke-linecap:round;stroke-linejoin:bevel"
         d="M 67.723137,37.49714 C 66.817105,31.77983 63.84013,26.610148 59.718016,24.78936 c -2.706023,-1.195283 0.566246,6.174228 2.163737,10.827181 1.336897,3.893976 0.3103,12.050781 3.039326,13.148945 2.729022,1.098187 3.406907,-7.451467 2.802058,-11.268346 z"
         sodipodi:nodetypes="sssss"
         inkscape:transform-center-x="3.0086309"
         inkscape:transform-center-y="12.948618" />
    </g>
    <g
       id="g28307"
       inkscape:transform-center-x="5.2331622"
       inkscape:transform-center-y="1.8472657"
       transform="rotate(22.802646,46.29951,45.438554)">
      <g
         id="g28410">
        <path
           id="path1013"
           style="fill:#821c1b;fill-opacity:1;stroke-width:2.43418;stroke-linecap:round;stroke-linejoin:round;paint-order:fill markers stroke"
           d="m 31.892586,67.941771 c -5.22983,4.728747 -10.386765,5.4285 -13.865423,1.988676 -3.478665,-3.439823 -0.666937,-9.363025 2.80166,-15.539875 3.701936,-6.592305 4.945426,-6.832064 10.468911,1.346413 2.731447,4.044383 1.587441,11.307304 0.594852,12.204786 z"
           sodipodi:nodetypes="sssss" />
        <path
           id="path18942"
           style="fill:#ffffff;fill-opacity:0.473193;stroke-width:1.36452;stroke-linecap:round;stroke-linejoin:bevel"
           d="m 30.745108,59.198274 c -0.630572,-2.123379 -1.829395,-3.927991 -3.147118,-4.39922 -0.865026,-0.309336 0.560885,2.315128 1.324661,3.997223 0.639193,1.407699 0.863124,4.561127 1.728633,4.832356 0.865513,0.271227 0.514794,-3.012788 0.09385,-4.430358 z"
           sodipodi:nodetypes="sssss"
           inkscape:transform-center-x="0.20027184"
           inkscape:transform-center-y="5.1339829" />
      </g>
    </g>
    <g
       id="g28311"
       inkscape:transform-center-x="8.9644289"
       inkscape:transform-center-y="8.0663359"
       transform="rotate(20.169887,54.595568,39.725364)">
      <ellipse
         style="fill:#1d170d;fill-opacity:1;stroke-width:2.43417;stroke-linecap:round;stroke-linejoin:round;paint-order:fill markers stroke"
         id="ellipse1475"
         cx="49.386829"
         cy="54.604969"
         rx="5.1846304"
         ry="4.6132631"
         transform="rotate(24.456709)" />
      <path
         id="path18944"
         style="fill:#ffffff;fill-opacity:0.517483;stroke-width:1.36452;stroke-linecap:round;stroke-linejoin:bevel"
         d="m 26.322506,69.590085 c -0.397211,-1.227797 -1.148653,-2.272391 -1.972116,-2.546827 -0.540561,-0.180151 0.354021,1.338469 0.83365,2.311547 0.4014,0.814344 0.54645,2.636566 1.087248,2.794706 0.540805,0.158133 0.316384,-1.739741 0.05122,-2.559426 z"
         sodipodi:nodetypes="sssss"
         inkscape:transform-center-x="0.11742265"
         inkscape:transform-center-y="2.9655163" />
    </g>
    <g
       id="g28532"
       transform="translate(1.3173653,4.372605)">
      <g
         id="g28316"
         inkscape:transform-center-x="13.319461"
         inkscape:transform-center-y="10.249737"
         transform="rotate(48.708068,37.219581,53.2734)">
        <ellipse
           style="fill:#f0a2a1;fill-opacity:1;stroke-width:2.43417;stroke-linecap:round;stroke-linejoin:round;paint-order:fill markers stroke"
           id="path13611"
           cx="52.408508"
           cy="59.92844"
           rx="1.298147"
           ry="1.2482182"
           transform="rotate(24.456709)" />
        <ellipse
           style="fill:#1d170d;fill-opacity:1;stroke-width:2.43417;stroke-linecap:round;stroke-linejoin:round;paint-order:fill markers stroke"
           id="path1015"
           cx="49.442806"
           cy="59.851017"
           rx="3.0972292"
           ry="3.1638601"
           transform="rotate(24.456709)" />
        <use
           x="0"
           y="0"
           xlink:href="#path13611"
           id="use14924"
           transform="translate(-3.5740349,-1.1867148)"
           width="100%"
           height="100%"
           style="stroke-width:1.22559" />
      </g>
    </g>
    <path
       id="ellipse21289"
       style="fill:#1d170d;stroke-width:2.43417;stroke-linecap:round;stroke-linejoin:round;paint-order:fill markers stroke"
       d="m 18.024533,44.479099 c 0.559573,0.504641 -0.04762,1.729935 -0.759077,2.871525 -0.724759,1.162935 -1.356651,1.78112 -1.955997,1.264784 -0.624899,-0.538349 -0.09258,-1.272488 0.526412,-2.486044 0.641743,-1.258169 1.755621,-2.040796 2.188662,-1.650265 z"
       sodipodi:nodetypes="sssss" />
    <path
       id="path21758"
       style="fill:#1d170d;stroke-width:2.43417;stroke-linecap:round;stroke-linejoin:round;paint-order:fill markers stroke"
       d="m 13.611098,41.605188 c 0.324027,-0.479209 1.694045,0.138493 3.013709,0.846123 1.344351,0.720822 2.132142,1.327456 1.808562,1.842058 -0.337372,0.536531 -1.208221,0.01371 -2.570339,-0.614049 -1.412196,-0.650859 -2.502682,-1.703295 -2.251932,-2.074132 z"
       sodipodi:nodetypes="sssss"
       inkscape:transform-center-x="1.8053869"
       inkscape:transform-center-y="-0.96358338" />
    <path
       id="path21764"
       style="fill:#1d170d;stroke-width:2.43418;stroke-linecap:round;stroke-linejoin:round;paint-order:fill markers stroke"
       d="m 14.14547,41.408967 c 0.475834,0.140243 0.189354,1.14296 -0.184542,2.126283 -0.380841,1.001709 -0.76418,1.617262 -1.270703,1.482799 -0.528125,-0.140182 -0.232852,-0.797747 0.06386,-1.796798 0.307615,-1.035777 1.023142,-1.92082 1.391388,-1.812284 z"
       sodipodi:nodetypes="sssss"
       inkscape:transform-center-x="0.66320357"
       inkscape:transform-center-y="1.5407759" />
    <path
       id="path21770"
       style="fill:#1d170d;stroke-width:2.43418;stroke-linecap:round;stroke-linejoin:round;paint-order:fill markers stroke"
       d="m 15.057669,45.370154 c 0.0047,0.330537 -0.711881,0.290473 -1.433508,0.190651 -0.735111,-0.101671 -1.217215,-0.261427 -1.231968,-0.611102 -0.01538,-0.364588 0.476395,-0.268332 1.192649,-0.221105 0.742588,0.04898 1.469185,0.385774 1.472827,0.641556 z"
       sodipodi:nodetypes="sssss" />
    <g
       id="g28430"
       transform="rotate(-21.484529,33.862847,25.765732)"
       inkscape:transform-center-x="2.2754491"
       inkscape:transform-center-y="1.9161677">
      <path
         id="path21788"
         style="fill:#1d170d;stroke-width:2.43418;stroke-linecap:round;stroke-linejoin:round;paint-order:fill markers stroke"
         d="m 19.56859,34.566677 c 0.196394,0.711555 -1.109155,1.3285 -2.457659,1.820945 -1.373711,0.501652 -2.327563,0.62896 -2.552813,-0.114231 -0.23485,-0.774883 0.700169,-1.049303 2.009172,-1.650388 1.357134,-0.623168 2.849319,-0.606983 3.0013,-0.05633 z"
         sodipodi:nodetypes="sssss"
         inkscape:transform-center-x="1.3979066"
         inkscape:transform-center-y="0.50725773" />
      <path
         id="path21794"
         style="fill:#1d170d;stroke-width:2.43418;stroke-linecap:round;stroke-linejoin:round;paint-order:fill markers stroke"
         d="m 15.858802,35.894094 c 0.144491,0.467565 -0.766324,0.845162 -1.70846,1.14078 -0.959741,0.301146 -1.628202,0.36617 -1.793238,-0.122557 -0.172082,-0.509577 0.48179,-0.670855 1.395188,-1.038038 0.946968,-0.380683 1.994694,-0.342026 2.10651,0.01982 z"
         sodipodi:nodetypes="sssss"
         inkscape:transform-center-x="5.111557"
         inkscape:transform-center-y="1.897873" />
    </g>
  </g>
</svg>
