<?xml version="1.0" encoding="UTF-8" standalone="no"?>
<!-- Created with Inkscape (http://www.inkscape.org/) -->

<svg
   width="350"
   height="350"
   viewBox="0 0 92.604166 92.604166"
   version="1.1"
   id="svg928"
   inkscape:version="1.1.1 (3bf5ae0d25, 2021-09-20)"
   sodipodi:docname="tick-dying-5.svg"
   xmlns:inkscape="http://www.inkscape.org/namespaces/inkscape"
   xmlns:sodipodi="http://sodipodi.sourceforge.net/DTD/sodipodi-0.dtd"
   xmlns="http://www.w3.org/2000/svg"
   xmlns:svg="http://www.w3.org/2000/svg">
  <sodipodi:namedview
     id="namedview930"
     pagecolor="#505050"
     bordercolor="#ffffff"
     borderopacity="1"
     inkscape:pageshadow="0"
     inkscape:pageopacity="0"
     inkscape:pagecheckerboard="1"
     inkscape:document-units="mm"
     showgrid="false"
     inkscape:snap-global="false"
     inkscape:zoom="1.36"
     inkscape:cx="37.867647"
     inkscape:cy="154.04412"
     inkscape:window-width="1920"
     inkscape:window-height="1017"
     inkscape:window-x="3192"
     inkscape:window-y="-8"
     inkscape:window-maximized="1"
     inkscape:current-layer="layer1"
     units="px" />
  <defs
     id="defs925" />
  <g
     inkscape:label="Layer 1"
     inkscape:groupmode="layer"
     id="layer1">
    <ellipse
       style="fill:#e99259;fill-opacity:1;stroke:none;stroke-width:2.64583;stroke-linecap:round;stroke-linejoin:round"
       id="path10796"
       cx="30.905518"
       cy="70.469788"
       rx="4.4399261"
       ry="8.6080198" />
    <path
       id="path8236"
       style="fill:#e99259;stroke-width:2.64583;stroke-linecap:round;stroke-linejoin:round"
       d="m 34.315073,18.437112 c 1.611949,0.226195 0.655199,3.071844 -0.601625,3.722868 -1.256823,0.651025 -3.925138,-0.446018 -3.210463,-1.908475 2.161004,-4.422116 -5.352552,2.513696 -4.665231,-4.896996 0.448631,-4.83713 3.459959,2.378549 8.477319,3.082603 z"
       sodipodi:nodetypes="sssss" />
    <path
       id="path22494"
       style="fill:#16110b;fill-opacity:1;stroke-width:2.43417;stroke-linecap:round;stroke-linejoin:round;paint-order:fill markers stroke"
       d="m 26.649855,28.614118 c -0.96232,-0.212344 -1.095258,-2.33438 -1.055751,-4.43055 0.04024,-2.135362 0.338096,-3.472003 1.352769,-3.276648 1.05793,0.203696 0.94868,1.612816 1.06061,3.728918 0.11604,2.193894 -0.612902,4.142606 -1.357626,3.978279 z"
       sodipodi:nodetypes="sssss"
       inkscape:transform-center-x="-0.057271032"
       inkscape:transform-center-y="3.0145168" />
    <path
       id="path1011"
       style="fill:#821c1b;stroke-width:2.43417;stroke-linecap:round;stroke-linejoin:round;paint-order:fill markers stroke"
       d="M 51.826827,60.031168 C 35.296892,53.404693 41.014128,66.187309 32.871468,61.015743 29.067112,58.599529 28.500962,52.244177 28.082962,37.598067 27.724091,25.023545 26.710243,13.475956 40.284823,19.213805 65.816599,30.005851 69.050811,66.935866 51.826827,60.031168 Z"
       sodipodi:nodetypes="sssss" />
    <path
       style="fill:#5d201f;fill-opacity:1;stroke:none;stroke-width:0.0823544px;stroke-linecap:butt;stroke-linejoin:miter;stroke-opacity:1"
       d="M 33.250374,61.48017 C 28.394905,58.002116 24.788493,25.656177 30.683606,18.656761 26.529883,37.736997 39.858102,63.129333 59.204671,59.807626 55.415819,63.487917 38.335996,65.123088 33.250374,61.48017 Z"
       id="path129460"
       sodipodi:nodetypes="sccs"
       inkscape:transform-center-x="13.34459"
       inkscape:transform-center-y="6.2672294" />
    <ellipse
       style="fill:#e99259;fill-opacity:1;stroke:none;stroke-width:2.65575;stroke-linecap:round;stroke-linejoin:round"
       id="ellipse8318"
       cx="27.595482"
       cy="44.936661"
       rx="1.9457765"
       ry="14.054519"
       transform="matrix(0.98973098,-0.1429426,0.02126411,0.99977389,0,0)" />
    <path
       id="path22506"
       style="fill:#16110b;fill-opacity:1;stroke-width:2.43419;stroke-linecap:round;stroke-linejoin:round;paint-order:fill markers stroke"
       d="m 27.255815,49.763672 c 0.489304,-0.0088 0.598827,0.97106 0.620902,1.958238 0.02249,1.005629 -0.100871,1.665819 -0.616215,1.688495 -0.537327,0.02364 -0.510486,-0.649284 -0.60929,-1.628754 -0.102438,-1.01547 0.225944,-2.011157 0.604603,-2.017979 z"
       sodipodi:nodetypes="sssss" />
    <ellipse
       style="fill:#e99259;fill-opacity:1;stroke:none;stroke-width:2.70529;stroke-linecap:round;stroke-linejoin:round"
       id="ellipse5276"
       cx="-23.759754"
       cy="69.044548"
       rx="5.1748662"
       ry="6.8904705"
       transform="matrix(0.83605074,-0.54865214,0.76863303,0.63968997,0,0)" />
    <path
       id="path7742"
       style="fill:#ffffff;fill-opacity:0.41958;stroke-width:1.36452;stroke-linecap:round;stroke-linejoin:bevel"
       d="m 58.776176,44.977293 c -1.577704,-5.544842 -4.830564,-10.725574 -8.577702,-12.788134 -2.459865,-1.353997 1.354914,5.956077 3.366911,10.53524 1.683791,3.832219 1.97172,11.563475 4.437281,12.826255 2.465559,1.2628 1.82677,-6.871621 0.77351,-10.573361 z"
       sodipodi:nodetypes="sssss" />
    <ellipse
       style="fill:#e99259;fill-opacity:1;stroke:none;stroke-width:2.64736;stroke-linecap:round;stroke-linejoin:round"
       id="path1300"
       cx="-4.6540184"
       cy="72.375237"
       rx="6.1116619"
       ry="11.611719"
       transform="matrix(0.80913747,-0.5876194,0.54809526,0.83641591,0,0)" />
    <path
       id="path22504"
       style="fill:#16110b;fill-opacity:1;stroke-width:2.43419;stroke-linecap:round;stroke-linejoin:round;paint-order:fill markers stroke"
       d="m 27.236847,44.529397 c 0.736186,0.05395 0.878909,1.49086 0.889939,2.926424 0.01124,1.462399 -0.189147,2.403613 -0.964824,2.366224 -0.808752,-0.03899 -0.753261,-1.011865 -0.879886,-2.446703 -0.131265,-1.487587 0.385052,-2.887693 0.954771,-2.845945 z"
       sodipodi:nodetypes="sssss" />
    <g
       id="g28307"
       transform="rotate(-19.138279,50.401599,36.537045)">
      <g
         id="g28410">
        <path
           id="path1013"
           style="fill:#821c1b;fill-opacity:1;stroke-width:2.43418;stroke-linecap:round;stroke-linejoin:round;paint-order:fill markers stroke"
           d="m 31.892586,67.941771 c -5.22983,4.728747 -10.386765,5.4285 -13.865423,1.988676 -3.478665,-3.439823 -0.666937,-9.363025 2.80166,-15.539875 3.701936,-6.592305 4.945426,-6.832064 10.468911,1.346413 2.731447,4.044383 1.587441,11.307304 0.594852,12.204786 z"
           sodipodi:nodetypes="sssss" />
        <path
           id="path18942"
           style="fill:#ffffff;fill-opacity:0.473193;stroke-width:1.36452;stroke-linecap:round;stroke-linejoin:bevel"
           d="m 30.745108,59.198274 c -0.630572,-2.123379 -1.829395,-3.927991 -3.147118,-4.39922 -0.865026,-0.309336 0.560885,2.315128 1.324661,3.997223 0.639193,1.407699 0.863124,4.561127 1.728633,4.832356 0.865513,0.271227 0.514794,-3.012788 0.09385,-4.430358 z"
           sodipodi:nodetypes="sssss"
           inkscape:transform-center-x="0.20027184"
           inkscape:transform-center-y="5.1339829" />
      </g>
    </g>
    <g
       id="g28311"
       inkscape:transform-center-x="13.121263"
       inkscape:transform-center-y="7.3067749"
       transform="rotate(-21.771038,42.660992,42.708423)">
      <ellipse
         style="fill:#1d170d;fill-opacity:1;stroke-width:2.43417;stroke-linecap:round;stroke-linejoin:round;paint-order:fill markers stroke"
         id="ellipse1475"
         cx="49.386829"
         cy="54.604969"
         rx="5.1846304"
         ry="4.6132631"
         transform="rotate(24.456709)" />
      <path
         id="path18944"
         style="fill:#ffffff;fill-opacity:0.517483;stroke-width:1.36452;stroke-linecap:round;stroke-linejoin:bevel"
         d="m 26.322506,69.590085 c -0.397211,-1.227797 -1.148653,-2.272391 -1.972116,-2.546827 -0.540561,-0.180151 0.354021,1.338469 0.83365,2.311547 0.4014,0.814344 0.54645,2.636566 1.087248,2.794706 0.540805,0.158133 0.316384,-1.739741 0.05122,-2.559426 z"
         sodipodi:nodetypes="sssss"
         inkscape:transform-center-x="0.11742265"
         inkscape:transform-center-y="2.9655163" />
    </g>
    <ellipse
       style="fill:#1d170d;fill-opacity:1;stroke-width:2.43417;stroke-linecap:round;stroke-linejoin:round;paint-order:fill markers stroke"
       id="path13611"
       cx="67.177132"
       cy="54.995876"
       rx="1.298147"
       ry="1.2482182"
       transform="rotate(31.223852)" />
    <ellipse
       style="fill:#1d170d;fill-opacity:1;stroke-width:2.43417;stroke-linecap:round;stroke-linejoin:round;paint-order:fill markers stroke"
       id="path1015"
       cx="68.153015"
       cy="51.796917"
       rx="3.0972292"
       ry="3.1638601"
       transform="rotate(31.223852)" />
    <path
       id="path22500"
       style="fill:#16110b;fill-opacity:1;stroke-width:2.43417;stroke-linecap:round;stroke-linejoin:round;paint-order:fill markers stroke"
       d="m 26.508167,40.443701 c -0.791474,0.0216 -0.861008,-2.173721 -0.788478,-4.385718 0.07388,-2.253349 0.345525,-3.733165 1.180596,-3.785915 0.870677,-0.055 0.75356,1.453013 0.805843,3.647447 0.0542,2.275098 -0.585454,4.507469 -1.197957,4.524185 z"
       sodipodi:nodetypes="sssss"
       inkscape:transform-center-x="0.056038959"
       inkscape:transform-center-y="-0.25750925" />
  </g>
</svg>
