<?xml version="1.0" encoding="UTF-8" standalone="no"?>
<!-- Created with Inkscape (http://www.inkscape.org/) -->

<svg
   width="350"
   height="350"
   viewBox="0 0 92.604166 92.604166"
   version="1.1"
   id="svg928"
   inkscape:version="1.1.1 (3bf5ae0d25, 2021-09-20)"
   sodipodi:docname="tick-dying-4.svg"
   xmlns:inkscape="http://www.inkscape.org/namespaces/inkscape"
   xmlns:sodipodi="http://sodipodi.sourceforge.net/DTD/sodipodi-0.dtd"
   xmlns="http://www.w3.org/2000/svg"
   xmlns:svg="http://www.w3.org/2000/svg">
  <sodipodi:namedview
     id="namedview930"
     pagecolor="#505050"
     bordercolor="#ffffff"
     borderopacity="1"
     inkscape:pageshadow="0"
     inkscape:pageopacity="0"
     inkscape:pagecheckerboard="1"
     inkscape:document-units="mm"
     showgrid="false"
     inkscape:snap-global="false"
     inkscape:zoom="1.46"
     inkscape:cx="265.41096"
     inkscape:cy="172.94521"
     inkscape:window-width="1920"
     inkscape:window-height="1017"
     inkscape:window-x="1272"
     inkscape:window-y="-8"
     inkscape:window-maximized="1"
     inkscape:current-layer="layer1"
     units="px" />
  <defs
     id="defs925" />
  <g
     inkscape:label="Layer 1"
     inkscape:groupmode="layer"
     id="layer1">
    <path
       id="path8236"
       style="fill:#e99259;stroke-width:2.64583;stroke-linecap:round;stroke-linejoin:round"
       d="m 31.622149,21.127132 c 1.254053,1.037735 -0.02794,3.160951 -1.4412,3.239279 -1.413259,0.07833 -2.405229,-1.909159 -1.465806,-3.238454 2.280567,-3.227035 -5.426902,-6.800925 -0.654393,-8.157236 4.472597,-1.271079 0.203676,5.377876 3.561399,8.156411 z"
       sodipodi:nodetypes="sssss" />
    <path
       id="path22494"
       style="fill:#16110b;fill-opacity:1;stroke-width:2.43417;stroke-linecap:round;stroke-linejoin:round;paint-order:fill markers stroke"
       d="m 21.887352,30.730786 c -0.96232,-0.212344 -1.095258,-2.33438 -1.055751,-4.43055 0.04024,-2.135362 0.338096,-3.472003 1.352769,-3.276648 1.05793,0.203696 0.94868,1.612816 1.06061,3.728918 0.11604,2.193894 -0.612902,4.142606 -1.357626,3.978279 z"
       sodipodi:nodetypes="sssss"
       inkscape:transform-center-x="-0.057271032"
       inkscape:transform-center-y="3.0145168" />
    <path
       id="path22506"
       style="fill:#16110b;fill-opacity:1;stroke-width:2.43419;stroke-linecap:round;stroke-linejoin:round;paint-order:fill markers stroke"
       d="m 22.54742,50.84536 c 0.488048,0.03613 0.507159,1.02193 0.438523,2.006966 -0.06992,1.003448 -0.253361,1.649526 -0.768611,1.6248 -0.537229,-0.02578 -0.448729,-0.693403 -0.457204,-1.677807 -0.0088,-1.020586 0.409605,-1.981925 0.787292,-1.953959 z"
       sodipodi:nodetypes="sssss" />
    <ellipse
       style="fill:#e99259;fill-opacity:1;stroke:none;stroke-width:2.65139;stroke-linecap:round;stroke-linejoin:round"
       id="ellipse8318"
       cx="23.14868"
       cy="49.417965"
       rx="1.9391763"
       ry="11.49287"
       transform="matrix(0.99309961,-0.11727385,0.02600367,0.99966185,0,0)" />
    <path
       id="path1011"
       style="fill:#821c1b;stroke-width:2.43417;stroke-linecap:round;stroke-linejoin:round;paint-order:fill markers stroke"
       d="M 46.531459,62.78365 C 30.485241,55.059155 35.32877,68.197735 27.552824,62.489612 23.919801,59.822712 23.78288,53.443662 24.352041,38.802647 24.840703,26.2325 24.606725,14.642851 37.764129,21.281735 c 24.747135,12.48676 25.487286,49.550736 8.76733,41.501915 z"
       sodipodi:nodetypes="sssss" />
    <path
       style="fill:#5d201f;fill-opacity:1;stroke:none;stroke-width:0.0823544px;stroke-linecap:butt;stroke-linejoin:miter;stroke-opacity:1"
       d="M 27.899597,62.978499 C 23.289347,59.181391 21.869169,26.666025 28.222213,20.079448 22.793131,38.836684 34.38128,65.068857 53.90761,63.05741 49.879541,66.474222 32.728377,66.955594 27.899597,62.978499 Z"
       id="path129460"
       sodipodi:nodetypes="sccs"
       inkscape:transform-center-x="14.226329"
       inkscape:transform-center-y="4.970208" />
    <ellipse
       style="fill:#e99259;fill-opacity:1;stroke:none;stroke-width:2.64583;stroke-linecap:round;stroke-linejoin:round"
       id="ellipse5276"
       cx="-12.362767"
       cy="64.48027"
       rx="4.4850025"
       ry="6.1828952"
       transform="rotate(-37.743693)" />
    <path
       id="path7742"
       style="fill:#ffffff;fill-opacity:0.41958;stroke-width:1.36452;stroke-linecap:round;stroke-linejoin:bevel"
       d="M 54.478703,48.231884 C 53.277947,42.59339 50.38132,37.205382 46.781571,34.895186 c -2.363109,-1.516562 0.950781,6.033793 2.649868,10.738043 1.421924,3.936901 1.188607,11.669998 3.563541,13.095933 2.374932,1.425955 2.285332,-6.733018 1.483723,-10.497278 z"
       sodipodi:nodetypes="sssss"
       inkscape:transform-center-x="-0.35883329"
       inkscape:transform-center-y="13.161602" />
    <ellipse
       style="fill:#e99259;fill-opacity:1;stroke:none;stroke-width:2.64683;stroke-linecap:round;stroke-linejoin:round"
       id="path1300"
       cx="-11.729221"
       cy="69.717529"
       rx="6.0242848"
       ry="11.074412"
       transform="matrix(0.83392447,-0.55187859,0.58382469,0.81187975,0,0)" />
    <path
       id="path22504"
       style="fill:#16110b;fill-opacity:1;stroke-width:2.43419;stroke-linecap:round;stroke-linejoin:round;paint-order:fill markers stroke"
       d="m 22.112512,45.613275 c 0.738,-0.01537 1.014922,1.401812 1.160606,2.830007 0.148407,1.454893 0.03722,2.410757 -0.738539,2.446316 -0.808842,0.03707 -0.844883,-0.93672 -1.105584,-2.353346 -0.270269,-1.468707 0.112394,-2.911083 0.683517,-2.922977 z"
       sodipodi:nodetypes="sssss" />
    <g
       id="g28307"
       inkscape:transform-center-x="7.4358198"
       inkscape:transform-center-y="1.5155612"
       transform="rotate(-19.138279,45.115636,50.448795)">
      <g
         id="g28410">
        <path
           id="path1013"
           style="fill:#821c1b;fill-opacity:1;stroke-width:2.43418;stroke-linecap:round;stroke-linejoin:round;paint-order:fill markers stroke"
           d="m 31.892586,67.941771 c -5.22983,4.728747 -10.386765,5.4285 -13.865423,1.988676 -3.478665,-3.439823 -0.666937,-9.363025 2.80166,-15.539875 3.701936,-6.592305 4.945426,-6.832064 10.468911,1.346413 2.731447,4.044383 1.587441,11.307304 0.594852,12.204786 z"
           sodipodi:nodetypes="sssss" />
        <path
           id="path18942"
           style="fill:#ffffff;fill-opacity:0.473193;stroke-width:1.36452;stroke-linecap:round;stroke-linejoin:bevel"
           d="m 30.745108,59.198274 c -0.630572,-2.123379 -1.829395,-3.927991 -3.147118,-4.39922 -0.865026,-0.309336 0.560885,2.315128 1.324661,3.997223 0.639193,1.407699 0.863124,4.561127 1.728633,4.832356 0.865513,0.271227 0.514794,-3.012788 0.09385,-4.430358 z"
           sodipodi:nodetypes="sssss"
           inkscape:transform-center-x="0.20027184"
           inkscape:transform-center-y="5.1339829" />
      </g>
    </g>
    <g
       id="g28311"
       inkscape:transform-center-x="13.121263"
       inkscape:transform-center-y="7.3067749"
       transform="rotate(-21.771038,37.727781,54.844467)">
      <ellipse
         style="fill:#1d170d;fill-opacity:1;stroke-width:2.43417;stroke-linecap:round;stroke-linejoin:round;paint-order:fill markers stroke"
         id="ellipse1475"
         cx="49.386829"
         cy="54.604969"
         rx="5.1846304"
         ry="4.6132631"
         transform="rotate(24.456709)" />
      <path
         id="path18944"
         style="fill:#ffffff;fill-opacity:0.517483;stroke-width:1.36452;stroke-linecap:round;stroke-linejoin:bevel"
         d="m 26.322506,69.590085 c -0.397211,-1.227797 -1.148653,-2.272391 -1.972116,-2.546827 -0.540561,-0.180151 0.354021,1.338469 0.83365,2.311547 0.4014,0.814344 0.54645,2.636566 1.087248,2.794706 0.540805,0.158133 0.316384,-1.739741 0.05122,-2.559426 z"
         sodipodi:nodetypes="sssss"
         inkscape:transform-center-x="0.11742265"
         inkscape:transform-center-y="2.9655163" />
    </g>
    <ellipse
       style="fill:#1d170d;fill-opacity:1;stroke-width:2.43417;stroke-linecap:round;stroke-linejoin:round;paint-order:fill markers stroke"
       id="path13611"
       cx="65.708946"
       cy="55.818043"
       rx="1.298147"
       ry="1.2482182"
       transform="rotate(31.223852)" />
    <ellipse
       style="fill:#1d170d;fill-opacity:1;stroke-width:2.43417;stroke-linecap:round;stroke-linejoin:round;paint-order:fill markers stroke"
       id="path1015"
       cx="64.557404"
       cy="52.955097"
       rx="3.0972292"
       ry="3.1638601"
       transform="rotate(31.223852)" />
    <path
       id="path22500"
       style="fill:#16110b;fill-opacity:1;stroke-width:2.43417;stroke-linecap:round;stroke-linejoin:round;paint-order:fill markers stroke"
       d="m 21.745664,42.560369 c -0.791474,0.0216 -0.861008,-2.173721 -0.788478,-4.385718 0.07388,-2.253349 0.345525,-3.733165 1.180596,-3.785915 0.870677,-0.055 0.75356,1.453013 0.805843,3.647447 0.0542,2.275098 -0.585454,4.507469 -1.197957,4.524185 z"
       sodipodi:nodetypes="sssss"
       inkscape:transform-center-x="0.056038959"
       inkscape:transform-center-y="-0.25750925" />
  </g>
</svg>
