<?xml version="1.0" encoding="UTF-8" standalone="no"?>
<!-- Created with Inkscape (http://www.inkscape.org/) -->

<svg
   width="350"
   height="350"
   viewBox="0 0 92.604166 92.604166"
   version="1.1"
   id="svg928"
   inkscape:version="1.1.1 (3bf5ae0d25, 2021-09-20)"
   sodipodi:docname="tick-dead.svg"
   xmlns:inkscape="http://www.inkscape.org/namespaces/inkscape"
   xmlns:sodipodi="http://sodipodi.sourceforge.net/DTD/sodipodi-0.dtd"
   xmlns="http://www.w3.org/2000/svg"
   xmlns:svg="http://www.w3.org/2000/svg">
  <sodipodi:namedview
     id="namedview930"
     pagecolor="#505050"
     bordercolor="#ffffff"
     borderopacity="1"
     inkscape:pageshadow="0"
     inkscape:pageopacity="0"
     inkscape:pagecheckerboard="1"
     inkscape:document-units="mm"
     showgrid="false"
     inkscape:snap-global="false"
     inkscape:zoom="1.46"
     inkscape:cx="154.45205"
     inkscape:cy="140.75342"
     inkscape:window-width="1920"
     inkscape:window-height="1017"
     inkscape:window-x="1272"
     inkscape:window-y="-8"
     inkscape:window-maximized="1"
     inkscape:current-layer="layer1"
     units="px" />
  <defs
     id="defs925" />
  <g
     inkscape:label="Layer 1"
     inkscape:groupmode="layer"
     id="layer1">
    <ellipse
       style="fill:#e99259;fill-opacity:1;stroke:none;stroke-width:2.64682;stroke-linecap:round;stroke-linejoin:round"
       id="path10796"
       cx="23.743036"
       cy="76.212952"
       rx="4.9592342"
       ry="10.682882"
       transform="matrix(0.98086785,-0.19467474,0.15661012,0.9876605,0,0)" />
    <path
       id="path8236"
       style="fill:#e99259;stroke-width:2.64583;stroke-linecap:round;stroke-linejoin:round"
       d="m 38.561,20.002863 c 1.643047,0.226195 0.66784,3.071844 -0.613231,3.722868 -1.28107,0.651025 -3.523852,-0.299536 -3.2724,-1.908475 1.186748,-7.593492 -5.568208,6.620055 -4.75523,-4.896996 0.673835,-9.5458874 3.526707,2.378549 8.640861,3.082603 z"
       sodipodi:nodetypes="sssss" />
    <path
       id="path1011"
       style="fill:#821c1b;stroke-width:2.43417;stroke-linecap:round;stroke-linejoin:round;paint-order:fill markers stroke"
       d="M 56.089141,61.596919 C 39.559206,54.970444 45.276442,67.75306 37.133782,62.581494 33.329427,60.16528 32.763277,53.809928 32.345278,39.163818 31.986407,26.589296 30.972559,15.041707 44.547137,20.779556 70.078913,31.571602 73.313125,68.501617 56.089141,61.596919 Z"
       sodipodi:nodetypes="sssss" />
    <ellipse
       style="fill:#e99259;fill-opacity:1;stroke:none;stroke-width:2.64634;stroke-linecap:round;stroke-linejoin:round"
       id="ellipse5276"
       cx="-19.790785"
       cy="60.241589"
       rx="5.8024006"
       ry="7.124505"
       transform="matrix(0.60297153,-0.7977627,0.78080943,0.62476927,0,0)" />
    <path
       style="fill:#5d201f;fill-opacity:1;stroke:none;stroke-width:0.0823544px;stroke-linecap:butt;stroke-linejoin:miter;stroke-opacity:1"
       d="M 37.512688,63.045921 C 32.65722,59.567867 29.05081,27.221928 34.94592,20.222512 30.792199,39.302748 44.120416,64.695084 63.466985,61.373377 59.678133,65.053668 42.59831,66.688839 37.512688,63.045921 Z"
       id="path129460"
       sodipodi:nodetypes="sccs"
       inkscape:transform-center-x="13.34459"
       inkscape:transform-center-y="6.2672294" />
    <path
       id="ellipse8318"
       style="fill:#e99259;stroke-width:2.64582;stroke-linecap:round;stroke-linejoin:round"
       d="m 34.452002,40.782532 c 0.19176,9.873697 -1.561411,18.324954 -2.798076,18.520552 -1.236666,0.195597 -1.488527,-7.938533 -1.680287,-17.812231 -0.191761,-9.873697 -0.613248,-19.671189 0.623418,-19.866787 1.236666,-0.195597 3.663185,9.284768 3.854945,19.158466 z"
       sodipodi:nodetypes="sssss" />
    <path
       id="path22506"
       style="fill:#16110b;fill-opacity:1;stroke-width:2.43419;stroke-linecap:round;stroke-linejoin:round;paint-order:fill markers stroke"
       d="m 30.340191,51.510644 c 0.489304,-0.0088 0.598826,0.97106 0.620902,1.958238 0.02249,1.005629 -0.100871,1.665819 -0.616215,1.688495 -0.537327,0.02364 -0.510486,-0.649284 -0.609289,-1.628754 -0.102439,-1.01547 0.225943,-2.011157 0.604602,-2.017979 z"
       sodipodi:nodetypes="sssss" />
    <path
       id="path7742"
       style="fill:#ffffff;fill-opacity:0.41958;stroke-width:1.36452;stroke-linecap:round;stroke-linejoin:bevel"
       d="M 63.03849,46.543044 C 61.460786,40.998202 58.207926,35.81747 54.460788,33.75491 c -2.459865,-1.353997 1.354914,5.956077 3.366911,10.53524 1.683791,3.832219 1.97172,11.563475 4.437281,12.826255 2.465559,1.2628 1.82677,-6.871621 0.77351,-10.573361 z"
       sodipodi:nodetypes="sssss" />
    <ellipse
       style="fill:#e99259;fill-opacity:1;stroke:none;stroke-width:2.64585;stroke-linecap:round;stroke-linejoin:round"
       id="path1300"
       cx="-18.459312"
       cy="73.7938"
       rx="5.9481273"
       ry="11.294063"
       transform="matrix(0.7131386,-0.70102306,0.70505668,0.70915096,0,0)" />
    <path
       id="path22504"
       style="fill:#16110b;fill-opacity:1;stroke-width:2.43419;stroke-linecap:round;stroke-linejoin:round;paint-order:fill markers stroke"
       d="m 30.321224,46.095148 c 0.736185,0.05395 0.878908,1.49086 0.889938,2.926424 0.01124,1.462399 -0.189147,2.403613 -0.964824,2.366224 -0.808751,-0.03899 -0.75326,-1.011865 -0.879885,-2.446703 -0.131265,-1.487587 0.385052,-2.887693 0.954769,-2.845945 z"
       sodipodi:nodetypes="sssss" />
    <g
       id="g28307"
       transform="rotate(-29.197939,48.519619,38.889812)">
      <g
         id="g28410">
        <path
           id="path1013"
           style="fill:#821c1b;fill-opacity:1;stroke-width:2.43418;stroke-linecap:round;stroke-linejoin:round;paint-order:fill markers stroke"
           d="m 31.892586,67.941771 c -5.22983,4.728747 -10.386765,5.4285 -13.865423,1.988676 -3.478665,-3.439823 -0.666937,-9.363025 2.80166,-15.539875 3.701936,-6.592305 4.945426,-6.832064 10.468911,1.346413 2.731447,4.044383 1.587441,11.307304 0.594852,12.204786 z"
           sodipodi:nodetypes="sssss" />
        <path
           id="path18942"
           style="fill:#ffffff;fill-opacity:0.473193;stroke-width:1.36452;stroke-linecap:round;stroke-linejoin:bevel"
           d="m 30.745108,59.198274 c -0.630572,-2.123379 -1.829395,-3.927991 -3.147118,-4.39922 -0.865026,-0.309336 0.560885,2.315128 1.324661,3.997223 0.639193,1.407699 0.863124,4.561127 1.728633,4.832356 0.865513,0.271227 0.514794,-3.012788 0.09385,-4.430358 z"
           sodipodi:nodetypes="sssss"
           inkscape:transform-center-x="0.20027184"
           inkscape:transform-center-y="5.1339829" />
      </g>
    </g>
    <g
       id="g28311"
       inkscape:transform-center-x="11.643242"
       inkscape:transform-center-y="9.4863808"
       transform="rotate(-31.830698,43.684879,43.360424)">
      <ellipse
         style="fill:#1d170d;fill-opacity:1;stroke-width:2.43417;stroke-linecap:round;stroke-linejoin:round;paint-order:fill markers stroke"
         id="ellipse1475"
         cx="49.386829"
         cy="54.604969"
         rx="5.1846304"
         ry="4.6132631"
         transform="rotate(24.456709)" />
      <path
         id="path18944"
         style="fill:#ffffff;fill-opacity:0.517483;stroke-width:1.36452;stroke-linecap:round;stroke-linejoin:bevel"
         d="m 26.322506,69.590085 c -0.397211,-1.227797 -1.148653,-2.272391 -1.972116,-2.546827 -0.540561,-0.180151 0.354021,1.338469 0.83365,2.311547 0.4014,0.814344 0.54645,2.636566 1.087248,2.794706 0.540805,0.158133 0.316384,-1.739741 0.05122,-2.559426 z"
         sodipodi:nodetypes="sssss"
         inkscape:transform-center-x="0.11742265"
         inkscape:transform-center-y="2.9655163" />
    </g>
    <ellipse
       style="fill:#1d170d;fill-opacity:1;stroke-width:2.43417;stroke-linecap:round;stroke-linejoin:round;paint-order:fill markers stroke"
       id="path13611"
       cx="62.079048"
       cy="65.717049"
       rx="1.298147"
       ry="1.2482182"
       transform="rotate(21.164192)" />
    <ellipse
       style="fill:#1d170d;fill-opacity:1;stroke-width:2.43417;stroke-linecap:round;stroke-linejoin:round;paint-order:fill markers stroke"
       id="path1015"
       cx="63.796337"
       cy="62.425419"
       rx="3.0972292"
       ry="3.1638601"
       transform="rotate(21.164192)" />
    <path
       id="path22500"
       style="fill:#16110b;fill-opacity:1;stroke-width:2.43417;stroke-linecap:round;stroke-linejoin:round;paint-order:fill markers stroke"
       d="m 29.773765,42.553116 c -0.791474,0.0216 -0.861008,-2.173721 -0.788477,-4.385718 0.07388,-2.253349 0.345524,-3.733165 1.180595,-3.785915 0.870676,-0.055 0.753559,1.453013 0.805842,3.647447 0.0542,2.275098 -0.585453,4.507469 -1.197956,4.524185 z"
       sodipodi:nodetypes="sssss"
       inkscape:transform-center-x="0.056038959"
       inkscape:transform-center-y="-0.25750925" />
    <path
       id="path22494"
       style="fill:#16110b;fill-opacity:1;stroke-width:2.43417;stroke-linecap:round;stroke-linejoin:round;paint-order:fill markers stroke"
       d="m 29.824843,31.810862 c -0.96232,-0.212344 -1.095258,-2.33438 -1.055751,-4.43055 0.04024,-2.135362 0.338096,-3.472003 1.352768,-3.276648 1.057929,0.203696 0.948679,1.612816 1.060609,3.728918 0.11604,2.193894 -0.612901,4.142606 -1.357625,3.978279 z"
       sodipodi:nodetypes="sssss"
       inkscape:transform-center-x="-0.057271032"
       inkscape:transform-center-y="3.0145168" />
  </g>
</svg>
