<?xml version="1.0" encoding="UTF-8" standalone="no"?>
<!-- Created with Inkscape (http://www.inkscape.org/) -->

<svg
   width="150mm"
   height="150mm"
   viewBox="0 0 150 150"
   version="1.1"
   id="svg99316"
   inkscape:version="1.1.1 (3bf5ae0d25, 2021-09-20)"
   sodipodi:docname="toad-head.svg"
   xmlns:inkscape="http://www.inkscape.org/namespaces/inkscape"
   xmlns:sodipodi="http://sodipodi.sourceforge.net/DTD/sodipodi-0.dtd"
   xmlns="http://www.w3.org/2000/svg"
   xmlns:svg="http://www.w3.org/2000/svg">
  <sodipodi:namedview
     id="namedview99318"
     pagecolor="#505050"
     bordercolor="#ffffff"
     borderopacity="1"
     inkscape:pageshadow="0"
     inkscape:pageopacity="0"
     inkscape:pagecheckerboard="1"
     inkscape:document-units="mm"
     showgrid="false"
     inkscape:snap-global="false"
     fit-margin-top="0"
     fit-margin-left="0"
     fit-margin-right="0"
     fit-margin-bottom="0"
     inkscape:zoom="1.0809568"
     inkscape:cx="114.25064"
     inkscape:cy="274.29404"
     inkscape:window-width="1920"
     inkscape:window-height="1017"
     inkscape:window-x="1272"
     inkscape:window-y="-8"
     inkscape:window-maximized="1"
     inkscape:current-layer="layer1" />
  <defs
     id="defs99313" />
  <g
     inkscape:label="Layer 1"
     inkscape:groupmode="layer"
     id="layer1"
     transform="translate(-91.715484,-49.194269)">
    <path
       id="path107716"
       style="fill:#095700;fill-opacity:0.996078;stroke:#074300;stroke-width:8.88202;stroke-linecap:round;stroke-linejoin:round;stroke-dasharray:2.2205, 2.2205;paint-order:stroke markers fill"
       d="m 162.18185,183.75439 c 29.98967,0.99448 -4.45876,-28.75311 3.34297,-56.95708 10.13486,-36.638538 36.77699,-59.200558 -10.12807,-58.404505 -54.0415,0.917171 -27.74086,22.689387 -26.42025,50.983505 1.44259,30.90765 12.81579,63.70193 33.20535,64.37808 z"
       sodipodi:nodetypes="sssss"
       inkscape:transform-center-x="-1.5638487"
       inkscape:transform-center-y="59.729378" />
    <path
       id="path105392"
       style="fill:#095700;fill-opacity:0.996078;stroke:#074300;stroke-width:8.88202;stroke-linecap:round;stroke-linejoin:round;stroke-dasharray:2.2205, 2.2205;paint-order:stroke markers fill"
       d="m 214.53443,114.31621 c -7.29751,1.2368 0.3229,7.41475 -2.21191,17.8277 -3.29285,13.52701 -14.9437,21.2434 -7.64618,20.00659 7.29751,-1.23679 15.42014,-10.70892 18.14237,-21.15658 2.72223,-10.44765 -0.98676,-17.91451 -8.28428,-16.67771 z"
       sodipodi:nodetypes="sssss" />
    <path
       id="path99399"
       style="fill:#0a5800;fill-opacity:0.995338;stroke:#074300;stroke-width:8.88202;stroke-linecap:round;stroke-linejoin:round;stroke-dasharray:2.22051, 2.22051;paint-order:stroke markers fill"
       d="m 222.29983,105.32129 c -0.53537,-24.476979 -18.8433,-11.196218 -29.78167,-38.621654 -5.81033,-14.568061 -58.15191,-20.660108 -67.46775,2.771759 -4.24869,10.686611 10.91087,37.980765 12.31551,54.096635 1.50726,17.2932 8.24544,29.70942 14.22093,41.43286 5.97549,11.72344 -5.50695,46.73042 33.50761,20.09523 8.29136,-5.6605 10.20362,-14.60879 14.90268,-31.83849 5.0067,-18.35771 22.79964,-25.21584 22.30269,-47.93634 z"
       sodipodi:nodetypes="ssssssss" />
    <ellipse
       style="fill:#d9a200;fill-opacity:0.995338;stroke:#512f13;stroke-width:8.79838;stroke-linecap:round;stroke-linejoin:round;stroke-miterlimit:4;stroke-dasharray:2.1996, 2.1996;stroke-dashoffset:0;stroke-opacity:1;paint-order:stroke markers fill"
       id="path103402"
       cx="168.03381"
       cy="-167.90976"
       rx="14.858872"
       ry="17.850525"
       transform="matrix(0.94703037,-0.32114403,-0.23833529,-0.97118293,0,0)" />
    <ellipse
       style="fill:#000000;fill-opacity:0.995338;stroke-width:7.08201;stroke-linecap:round;stroke-linejoin:round;stroke-miterlimit:4;stroke-dasharray:1.77051, 1.77051;stroke-dashoffset:0;paint-order:stroke fill markers"
       id="path25533"
       cx="127.68517"
       cy="-187.32935"
       rx="17.220617"
       ry="7.1069627"
       transform="matrix(0.09903157,0.99508429,-0.99540135,0.09579225,0,0)" />
    <ellipse
       style="fill:#0f240c;fill-opacity:1;stroke:none;stroke-width:9.58206;stroke-linecap:round;stroke-linejoin:round;stroke-miterlimit:4;stroke-dasharray:2.39552, 2.39552;stroke-dashoffset:0;stroke-opacity:1;paint-order:stroke fill markers"
       id="path41100"
       cx="251.1158"
       cy="-55.421261"
       rx="3.0718069"
       ry="4.2918878"
       transform="matrix(0.55891382,0.82922575,-0.82520691,0.56483055,0,0)" />
    <ellipse
       style="fill:#074300;fill-opacity:1;stroke:none;stroke-width:9.58229;stroke-linecap:round;stroke-linejoin:round;stroke-miterlimit:4;stroke-dasharray:2.39556, 2.39556;stroke-dashoffset:0;stroke-opacity:1;paint-order:stroke fill markers"
       id="ellipse58737"
       cx="-50.371883"
       cy="-153.55222"
       rx="5.1056457"
       ry="7.2043614"
       transform="matrix(-0.70028395,0.71386441,-0.721854,-0.69204538,0,0)" />
    <ellipse
       style="fill:#074300;fill-opacity:1;stroke:none;stroke-width:9.58207;stroke-linecap:round;stroke-linejoin:round;stroke-miterlimit:4;stroke-dasharray:2.3955, 2.3955;stroke-dashoffset:0;stroke-opacity:1;paint-order:stroke fill markers"
       id="ellipse58739"
       cx="-36.778187"
       cy="-167.30714"
       rx="7.9376898"
       ry="11.231836"
       transform="matrix(-0.6942403,0.71974329,-0.71602631,-0.69807329,0,0)" />
  </g>
</svg>
