<?xml version="1.0" encoding="UTF-8" standalone="no"?>
<!-- Created with Inkscape (http://www.inkscape.org/) -->

<svg
   width="150mm"
   height="150mm"
   viewBox="0 0 150 150.00001"
   version="1.1"
   id="svg99316"
   inkscape:version="1.1.1 (3bf5ae0d25, 2021-09-20)"
   sodipodi:docname="toad-head-open.svg"
   xmlns:inkscape="http://www.inkscape.org/namespaces/inkscape"
   xmlns:sodipodi="http://sodipodi.sourceforge.net/DTD/sodipodi-0.dtd"
   xmlns="http://www.w3.org/2000/svg"
   xmlns:svg="http://www.w3.org/2000/svg">
  <sodipodi:namedview
     id="namedview99318"
     pagecolor="#505050"
     bordercolor="#ffffff"
     borderopacity="1"
     inkscape:pageshadow="0"
     inkscape:pageopacity="0"
     inkscape:pagecheckerboard="1"
     inkscape:document-units="mm"
     showgrid="false"
     inkscape:snap-global="false"
     fit-margin-top="0"
     fit-margin-left="0"
     fit-margin-right="0"
     fit-margin-bottom="0"
     inkscape:zoom="0.54047838"
     inkscape:cx="-32.378723"
     inkscape:cy="258.10468"
     inkscape:window-width="1920"
     inkscape:window-height="1017"
     inkscape:window-x="1272"
     inkscape:window-y="-8"
     inkscape:window-maximized="1"
     inkscape:current-layer="layer1" />
  <defs
     id="defs99313" />
  <g
     inkscape:label="Layer 1"
     inkscape:groupmode="layer"
     id="layer1"
     transform="translate(-67.735748,-20.476347)">
    <ellipse
       style="fill:#d88dc3;fill-opacity:1;stroke:none;stroke-width:7.10173;stroke-linecap:round;stroke-linejoin:round;stroke-miterlimit:4;stroke-dasharray:none;stroke-dashoffset:0;stroke-opacity:1;paint-order:stroke fill markers"
       id="path60617"
       cx="150.82831"
       cy="91.114258"
       rx="10.366"
       ry="23.864658"
       transform="matrix(0.95415477,0.29931368,-0.26924217,0.96307251,0,0)" />
    <path
       id="path107716"
       style="fill:#095700;fill-opacity:0.996078;stroke:#074300;stroke-width:8.882;stroke-linecap:round;stroke-linejoin:round;stroke-dasharray:2.2205, 2.2205;paint-order:stroke markers fill"
       d="m 100.80573,159.08211 c 27.49063,11.66127 6.17236,-27.99663 23.53243,-51.09499 22.55163,-30.006048 55.38267,-41.172093 11.54281,-57.25188 -50.509901,-18.526265 -33.89692,10.889193 -42.818643,37.339737 -9.745818,28.893763 -10.94708,63.078793 7.743403,71.007133 z"
       sodipodi:nodetypes="sssss"
       inkscape:transform-center-x="3.0564787"
       inkscape:transform-center-y="42.782424" />
    <g
       id="g59359"
       transform="matrix(0.22408534,0.516422,-0.51591635,0.22365051,205.84973,-40.414122)"
       style="stroke-width:1.77738">
      <path
         id="path105392"
         style="fill:#095700;fill-opacity:0.996078;stroke:#074300;stroke-width:15.7868;stroke-linecap:round;stroke-linejoin:round;stroke-dasharray:3.94668, 3.94668;paint-order:stroke markers fill"
         d="m 175.23949,92.991781 c 0.93174,13.068759 12.97894,0.73092 30.70473,7.020179 23.02677,8.17007 34.52294,30.04138 33.59118,16.97261 -0.93173,-13.06876 -16.08019,-29.034077 -33.83503,-35.659491 -17.75482,-6.625425 -31.39262,-1.402061 -30.46088,11.666702 z"
         sodipodi:nodetypes="sssss" />
      <path
         id="path99399"
         style="fill:#0a5800;fill-opacity:0.995338;stroke:#074300;stroke-width:15.7868;stroke-linecap:round;stroke-linejoin:round;stroke-dasharray:3.9467, 3.9467;paint-order:stroke markers fill"
         d="M 160.86294,77.739238 C 118.1069,74.39201 138.18569,108.96267 88.545059,123.41987 c -26.368504,7.67949 -45.767875,98.79292 -6.486113,119.30638 17.9153,9.35561 68.035184,-12.55871 96.362644,-12.20785 30.39691,0.37649 53.17016,-9.31424 74.60785,-17.78317 21.4377,-8.46894 80.53279,17.88901 40.64919,-55.4897 -8.47605,-15.59442 -23.75319,-20.53057 -52.99831,-31.82616 -31.15976,-12.03509 -40.12954,-44.573104 -79.81738,-47.680132 z"
         sodipodi:nodetypes="ssssssss" />
      <ellipse
         style="fill:#d9a200;fill-opacity:0.995338;stroke:#512f13;stroke-width:17.0619;stroke-linecap:round;stroke-linejoin:round;stroke-miterlimit:4;stroke-dasharray:4.2655, 4.2655;stroke-dashoffset:0;stroke-opacity:1;paint-order:stroke markers fill"
         id="path103402"
         cx="-141.785"
         cy="-132.82314"
         rx="26.302402"
         ry="31.2516"
         transform="matrix(-0.22649441,-0.97401246,-0.98979125,0.14252468,0,0)" />
      <ellipse
         style="fill:#000000;fill-opacity:0.995338;stroke-width:12.5874;stroke-linecap:round;stroke-linejoin:round;stroke-miterlimit:4;stroke-dasharray:3.14687, 3.14687;stroke-dashoffset:0;paint-order:stroke fill markers"
         id="path25533"
         cx="163.58238"
         cy="119.23963"
         rx="30.156063"
         ry="12.578165" />
      <ellipse
         style="fill:#0f240c;fill-opacity:1;stroke:none;stroke-width:17.0308;stroke-linecap:round;stroke-linejoin:round;stroke-miterlimit:4;stroke-dasharray:4.2577, 4.2577;stroke-dashoffset:0;stroke-opacity:1;paint-order:stroke fill markers"
         id="path41100"
         cx="171.76715"
         cy="269.09656"
         rx="5.3848896"
         ry="7.5877995"
         transform="rotate(-28.594093)" />
      <ellipse
         style="fill:#074300;fill-opacity:1;stroke:none;stroke-width:17.0328;stroke-linecap:round;stroke-linejoin:round;stroke-miterlimit:4;stroke-dasharray:4.25818, 4.25818;stroke-dashoffset:0;stroke-opacity:1;paint-order:stroke fill markers"
         id="ellipse58737"
         cx="212.57111"
         cy="64.395439"
         rx="9.0113745"
         ry="12.652826"
         transform="matrix(0.63846382,0.76965184,-0.7558083,0.65479296,0,0)" />
      <ellipse
         style="fill:#074300;fill-opacity:1;stroke:none;stroke-width:17.031;stroke-linecap:round;stroke-linejoin:round;stroke-miterlimit:4;stroke-dasharray:4.25772, 4.25772;stroke-dashoffset:0;stroke-opacity:1;paint-order:stroke fill markers"
         id="ellipse58739"
         cx="239.3616"
         cy="42.767002"
         rx="14.008718"
         ry="19.724518"
         transform="matrix(0.64489792,0.76426872,-0.76129824,0.64840187,0,0)" />
    </g>
  </g>
</svg>
