<svg id="ePlW0Zp7UAK1" xmlns="http://www.w3.org/2000/svg" xmlns:xlink="http://www.w3.org/1999/xlink" viewBox="0 0 640 480" shape-rendering="geometricPrecision" text-rendering="geometricPrecision"><path id="ePlW0Zp7UAK2" d="M-199.202316,-240L-167.812572,-240C-166.059404,-229.475073,-62.991146,-45.616493,-53.763167,-41.881359C-25.766750,-30.549476,11.263471,-240,1.842964,-240C-6.156012,-240,25.951451,-251.036454,22.618544,-240C10.708735,-200.562338,4.551173,-162.263313,1.842964,-110.255723C-0.109659,-72.758184,-25.429229,-4.757303,-22.373423,23.673853C-18.242700,62.106014,-63.323093,119.542477,-42.253594,177.483601Q-21.327098,235.031466,172.242993,240L-191.878043,240L-102.940434,177.483601Q-64.049919,90.740693,-53.763167,39.368725Q-44.858626,-19.412304,-199.202316,-240Z" transform="matrix(1 0 0 1 189.61000000000001 240)" fill="rgb(35,143,57)" stroke="none" stroke-width="0"/><path id="ePlW0Zp7UAK3" d="M-22.115569,-240L18.429641,-240C20.182809,-229.475073,18.378087,-87.832737,27.606066,-84.097603C55.602483,-72.765720,99.018638,-240,89.598131,-240C81.599155,-240,119.594292,-251.036454,116.261385,-240C104.351576,-200.562338,43.114275,-28.333737,40.406066,23.673853C38.453443,61.171392,46.684015,57.477263,46.684015,75.990094C44.378386,102.059033,49.261075,97.635932,40.406066,158.649754Q33.690417,204.922705,110.509829,240L-260.935480,240Q-43.634314,171.848247,-22.115569,125.167360Q-1.127775,79.638273,-10.863849,-41.881359Q-10.863849,-41.881359,-22.115569,-240Z" transform="matrix(1 0 0 1 530.71188900000004 240)" fill="rgb(35,143,57)" stroke="none" stroke-width="0"/></svg>