<?xml version="1.0" encoding="UTF-8" standalone="no"?>
<!-- Created with Inkscape (http://www.inkscape.org/) -->

<svg
   width="185.59753"
   height="224.49342"
   viewBox="0 0 49.10601 59.397219"
   version="1.1"
   id="svg973"
   inkscape:version="1.1 (c68e22c387, 2021-05-23)"
   sodipodi:docname="water-cap.svg"
   xmlns:inkscape="http://www.inkscape.org/namespaces/inkscape"
   xmlns:sodipodi="http://sodipodi.sourceforge.net/DTD/sodipodi-0.dtd"
   xmlns="http://www.w3.org/2000/svg"
   xmlns:svg="http://www.w3.org/2000/svg">
  <sodipodi:namedview
     id="namedview975"
     pagecolor="#505050"
     bordercolor="#ffffff"
     borderopacity="1"
     inkscape:pageshadow="0"
     inkscape:pageopacity="0"
     inkscape:pagecheckerboard="1"
     inkscape:document-units="mm"
     showgrid="false"
     fit-margin-top="0"
     fit-margin-left="0"
     fit-margin-right="0"
     fit-margin-bottom="0"
     units="px"
     inkscape:zoom="1.5287037"
     inkscape:cx="-61.817081"
     inkscape:cy="12.101757"
     inkscape:window-width="1920"
     inkscape:window-height="1017"
     inkscape:window-x="1272"
     inkscape:window-y="-8"
     inkscape:window-maximized="1"
     inkscape:current-layer="layer1" />
  <defs
     id="defs970">
    <inkscape:path-effect
       effect="spiro"
       id="path-effect6152"
       is_visible="true"
       lpeversion="1" />
    <inkscape:path-effect
       effect="spiro"
       id="path-effect5936"
       is_visible="true"
       lpeversion="1" />
  </defs>
  <g
     inkscape:label="Layer 1"
     inkscape:groupmode="layer"
     id="layer1"
     transform="translate(-49.51105,-70.068153)">
    <path
       id="path46489"
       style="fill:#599ec4;fill-opacity:0.643357;stroke:#2d4a79;stroke-width:2.71989;stroke-linecap:round;stroke-linejoin:bevel;stroke-opacity:0.666667"
       d="M 91.754726,77.613313 C 80.046882,89.686734 96.700334,116.64103 85.024135,116.68221 71.745133,116.72901 93.961698,84.878391 74.083258,85.580739 56.874073,86.188776 74.363051,105.59103 63.542976,105.74878 50.444055,105.93974 70.433295,89.898124 56.481697,76.790095 51.186066,68.242582 69.64311,73.216262 78.79579,73.29635 c 8.061679,0.07054 17.407324,-3.405638 12.958936,4.316963 z"
       sodipodi:nodetypes="cssscsc" />
    <path
       id="path7742"
       style="fill:#afc5f0;fill-opacity:1;stroke:none;stroke-width:0.620691;stroke-linecap:round;stroke-linejoin:bevel;stroke-opacity:0.825175"
       d="m 83.201771,109.63233 c 0.02914,-2.05269 0.607081,-3.80925 1.596332,-4.28613 0.649411,-0.31306 0.07392,2.23577 -0.169701,3.86666 -0.203855,1.36485 0.347422,4.40039 -0.311305,4.67681 -0.658734,0.27642 -1.134779,-2.88695 -1.115326,-4.25734 z"
       sodipodi:nodetypes="sssss" />
    <path
       id="path56180"
       style="fill:#afc5f0;fill-opacity:1;stroke:none;stroke-width:0.524163;stroke-linecap:round;stroke-linejoin:bevel;stroke-opacity:0.825175"
       d="m 61.714476,100.43305 c 0.03163,-1.349316 0.658626,-2.503966 1.731871,-2.817436 0.70455,-0.20578 0.0802,1.46965 -0.18411,2.541706 -0.221164,0.89717 0.376921,2.89255 -0.337736,3.07425 -0.714665,0.18169 -1.23113,-1.89771 -1.210025,-2.79852 z"
       sodipodi:nodetypes="sssss"
       inkscape:transform-center-x="-13.464341"
       inkscape:transform-center-y="3.9327443" />
    <path
       id="path56182"
       style="fill:#afc5f0;fill-opacity:1;stroke:none;stroke-width:0.570303;stroke-linecap:round;stroke-linejoin:bevel;stroke-opacity:0.825175"
       d="m 59.73684,74.547188 c 1.671228,-0.259399 3.274579,-0.305873 6.000013,0.180208 1.268382,0.226216 1.50089,1.353698 -3.780763,0.714691 -2.464745,-0.317256 -0.788012,1.570114 -1.757847,1.176368 -1.623661,-0.659195 -1.728639,-1.874573 -0.461403,-2.071267 z"
       sodipodi:nodetypes="sscss" />
  </g>
</svg>
